# Blender 5.1.0
# www.blender.org
mtllib Box.mtl
o polySurface146.126
v -0.585727 1.206404 -0.749862
v 0.585727 1.206404 -0.749862
v -0.631741 1.187345 -0.749862
v -0.591332 1.234580 -0.749862
v 0.591331 1.234580 -0.749862
v -0.591332 1.234580 0.239951
v -0.653306 1.208909 -0.749862
v -0.653306 1.208909 0.239951
v -0.678977 1.146935 -0.749862
v -0.650800 1.141330 -0.749862
v -0.678977 1.146935 0.239951
v -0.678975 -1.146935 -0.749862
v -0.650800 -1.141330 -0.749862
v -0.678975 -1.146935 0.239951
v -0.653306 -1.208909 -0.749862
v -0.631741 -1.187345 -0.749862
v -0.653306 -1.208909 0.239951
v -0.591332 -1.234579 -0.749862
v -0.585727 -1.206404 -0.749862
v -0.591332 -1.234579 0.239951
v 0.591331 -1.234580 -0.749862
v 0.585727 -1.206404 -0.749862
v 0.591331 -1.234580 0.239951
v 0.653305 -1.208909 -0.749862
v 0.631741 -1.187345 -0.749862
v 0.653305 -1.208909 0.239951
v 0.678975 -1.146935 -0.749862
v 0.650800 -1.141330 -0.749862
v 0.678975 -1.146935 0.239951
v 0.678977 1.146935 -0.749862
v 0.650800 1.141330 -0.749862
v 0.678976 1.146935 0.239951
v 0.653305 1.208909 -0.749862
v 0.631741 1.187345 -0.749862
v 0.653305 1.208909 0.239951
v 0.591331 1.234580 0.239951
v 0.684671 1.240276 0.239951
v 0.599484 1.275562 0.239951
v 0.684671 1.240276 0.260597
v 0.719959 1.155087 0.239951
v 0.719958 -1.155087 0.239951
v 0.719959 1.155087 0.260597
v 0.678976 1.146935 0.260597
v 0.719958 -1.155087 0.260597
v 0.678975 -1.146935 0.260597
v 0.684671 -1.240276 0.260597
v 0.653305 -1.208909 0.260597
v 0.684671 -1.240276 0.239951
v 0.599484 -1.275563 0.260597
v 0.591331 -1.234580 0.260597
v 0.599484 -1.275563 0.239951
v -0.599483 -1.275562 0.260597
v -0.591332 -1.234579 0.260597
v -0.599483 -1.275562 0.239951
v -0.684673 -1.240275 0.260597
v -0.653306 -1.208909 0.260597
v -0.684673 -1.240275 0.239951
v -0.719957 -1.155086 0.260597
v -0.678975 -1.146935 0.260597
v -0.719957 -1.155086 0.239951
v -0.719960 1.155086 0.260597
v -0.678977 1.146935 0.260597
v -0.719960 1.155086 0.239951
v -0.684671 1.240276 0.260597
v -0.653306 1.208909 0.260597
v -0.684671 1.240276 0.239951
v -0.599483 1.275562 0.260597
v -0.591332 1.234580 0.260597
v -0.599483 1.275562 0.239951
v 0.599484 1.275562 0.260597
v 0.591331 1.234580 0.260597
v 0.585727 1.206404 0.260597
v 0.653305 1.208909 0.260597
v 0.631741 1.187345 0.260597
v 0.631741 1.187345 0.239951
v 0.650800 1.141330 0.260597
v 0.650800 1.141330 0.239951
v 0.650800 -1.141330 0.260597
v 0.650800 -1.141330 0.239951
v 0.631741 -1.187345 0.260597
v 0.631741 -1.187345 0.239951
v 0.585727 -1.206404 0.260597
v 0.585727 -1.206404 0.239951
v -0.585727 -1.206404 0.260597
v -0.585727 -1.206404 0.239951
v -0.631741 -1.187345 0.260597
v -0.631741 -1.187345 0.239951
v -0.650800 -1.141330 0.260597
v -0.650800 -1.141330 0.239951
v -0.650800 1.141330 0.260597
v -0.650800 1.141330 0.239951
v -0.631741 1.187345 0.260597
v -0.631741 1.187345 0.239951
v -0.585727 1.206404 0.260597
v -0.585727 1.206404 0.239951
v 0.585727 1.206404 0.239951
v -0.584962 1.202562 0.239951
v 0.584962 1.202562 0.239951
v -0.584962 1.202562 0.264439
v -0.628801 1.184403 0.239951
v -0.628801 1.184403 0.264439
v -0.646958 1.140566 0.239951
v -0.646958 -1.140567 0.239951
v -0.646958 1.140568 0.264439
v -0.646958 -1.140568 0.264439
v -0.678977 1.146935 0.264439
v -0.678975 -1.146935 0.264439
v -0.653306 1.208909 0.264439
v -0.723802 1.155849 0.264439
v -0.723800 -1.155849 0.264439
v -0.723802 1.155849 0.236109
v -0.687611 1.243217 0.264439
v -0.687611 1.243217 0.236109
v -0.600248 1.279404 0.264439
v -0.600248 1.279404 0.236109
v 0.600249 1.279404 0.264440
v -0.591332 1.234580 0.264439
v 0.591331 1.234580 0.264440
v 0.584962 1.202562 0.264440
v 0.653305 1.208909 0.264440
v 0.628801 1.184403 0.264440
v 0.678976 1.146935 0.264440
v 0.687612 1.243216 0.264440
v 0.687612 1.243216 0.236109
v 0.723800 1.155850 0.264440
v 0.723800 1.155850 0.236109
v 0.723799 -1.155850 0.264440
v 0.723799 -1.155850 0.236109
v 0.687612 -1.243216 0.264440
v 0.678975 -1.146935 0.264440
v 0.646958 -1.140568 0.264440
v 0.653305 -1.208909 0.264440
v 0.628801 -1.184404 0.264440
v 0.591331 -1.234580 0.264440
v -0.591332 -1.234579 0.264439
v 0.584962 -1.202562 0.264440
v 0.600249 -1.279405 0.264440
v 0.600249 -1.279405 0.236109
v -0.600248 -1.279404 0.264439
v -0.600248 -1.279404 0.236109
v -0.687612 -1.243216 0.264439
v -0.687612 -1.243216 0.236109
v -0.653306 -1.208909 0.264439
v -0.628801 -1.184404 0.264439
v -0.584962 -1.202562 0.264439
v -0.628801 -1.184404 0.239951
v -0.584962 -1.202562 0.239951
v 0.584962 -1.202562 0.239951
v 0.628801 -1.184404 0.239951
v 0.646958 -1.140566 0.239951
v 0.646958 1.140566 0.239951
v 0.646958 1.140568 0.264440
v 0.628801 1.184403 0.239951
v -0.723800 -1.155849 0.236109
v -0.656246 -1.211850 0.236109
v -0.656246 -1.211850 -0.753704
v -0.682817 -1.147697 0.236109
v -0.592097 -1.238422 0.236109
v -0.592097 -1.238422 -0.753704
v 0.592096 -1.238422 0.236109
v 0.592096 -1.238422 -0.753704
v 0.656245 -1.211850 0.236109
v 0.682817 -1.147698 0.236109
v 0.656245 -1.211850 -0.753704
v 0.687612 -1.243216 0.236109
v 0.682817 -1.147698 -0.753704
v 0.631741 -1.187345 -0.753704
v 0.650800 -1.141330 -0.753704
v 0.585727 -1.206404 -0.753704
v -0.585727 -1.206404 -0.753704
v -0.631741 -1.187345 -0.753704
v -0.650800 -1.141330 -0.753704
v -0.650800 1.141330 -0.753704
v -0.682817 -1.147697 -0.753704
v -0.682818 1.147697 -0.753704
v -0.682819 1.147697 0.236109
v -0.656246 1.211850 -0.753704
v -0.592097 1.238422 -0.753704
v -0.656246 1.211850 0.236109
v -0.631741 1.187345 -0.753704
v -0.585727 1.206404 -0.753704
v 0.585727 1.206404 -0.753704
v 0.631741 1.187345 -0.753704
v 0.592096 1.238422 -0.753704
v 0.592096 1.238422 0.236109
v 0.656245 1.211850 -0.753704
v 0.656245 1.211850 0.236109
v 0.682819 1.147698 -0.753704
v 0.682819 1.147698 0.236109
v 0.650800 1.141330 -0.753704
v -0.592097 1.238422 0.236109
v 0.600249 1.279404 0.236109
vn -0.0000 -0.0000 1.0000
vn 0.0183 -0.9998 -0.0000
vn -0.0183 -0.9998 -0.0000
vn -0.0207 -0.9998 -0.0000
vn 0.3827 -0.9239 -0.0000
vn 0.0207 -0.9998 0.0001
vn 0.9239 -0.3827 -0.0000
vn 1.0000 -0.0092 -0.0000
vn 1.0000 0.0092 -0.0000
vn 0.9999 -0.0110 -0.0001
vn 0.9239 0.3827 -0.0000
vn 0.9999 0.0109 0.0001
vn 0.3827 0.9239 -0.0000
vn 0.0183 0.9998 -0.0000
vn -0.0183 0.9998 -0.0000
vn 0.0207 0.9998 0.0001
vn -0.3827 0.9239 -0.0000
vn -1.0000 0.0092 -0.0000
vn -0.9239 0.3827 -0.0000
vn -0.9999 0.0109 0.0001
vn -1.0000 -0.0092 -0.0000
vn -0.9999 -0.0109 -0.0000
vn -0.9239 -0.3827 -0.0000
vn -0.3827 -0.9239 -0.0000
vn -0.0293 -0.9996 -0.0000
vn -0.9999 -0.0167 -0.0000
vn -0.9999 -0.0168 0.0002
vn -0.9999 0.0168 -0.0002
vn -0.9999 0.0167 -0.0000
vn -0.0000 -0.0000 -1.0000
vn -0.0293 0.9996 -0.0000
vn -0.0294 0.9996 0.0001
vn 0.0294 0.9996 -0.0000
vn 0.0293 0.9996 -0.0000
vn 0.9999 0.0167 -0.0000
vn 0.9999 0.0168 -0.0001
vn 0.9999 -0.0168 0.0001
vn 0.9999 -0.0167 -0.0000
vn 0.0293 -0.9996 -0.0000
vn 0.0294 -0.9996 -0.0000
vn -0.0294 -0.9996 -0.0001
vn 1.0000 0.0068 -0.0000
vn 0.0144 0.9999 0.0001
vn 0.0140 0.9999 -0.0000
vn 1.0000 0.0064 -0.0000
vn 1.0000 -0.0064 -0.0000
vn 1.0000 -0.0068 -0.0001
vn 0.0144 -0.9999 -0.0000
vn 0.0140 -0.9999 -0.0000
vn -0.0140 -0.9999 -0.0000
vn -0.0144 -0.9999 0.0001
vn -1.0000 -0.0069 0.0002
vn -1.0000 -0.0064 -0.0000
vn -1.0000 0.0064 -0.0000
vn -1.0000 0.0069 -0.0001
vn -0.0144 0.9999 -0.0000
vn -0.0140 0.9999 -0.0000
vn -0.0170 -0.9999 -0.0000
vn 0.0171 -0.9999 -0.0000
vn 0.0164 -0.9999 -0.0001
vn 1.0000 -0.0093 0.0001
vn 1.0000 -0.0100 -0.0000
vn 0.9999 0.0107 -0.0000
vn 1.0000 0.0079 -0.0001
vn -0.9999 -0.0134 -0.0000
vn -0.9999 0.0134 -0.0001
vn -0.9999 0.0136 -0.0000
vn -0.0267 0.9996 -0.0000
vn -0.0265 0.9996 -0.0000
vn 0.0265 0.9996 -0.0000
vn 0.0267 0.9996 -0.0000
vn 0.9999 0.0136 -0.0000
vn 0.9999 0.0134 -0.0000
vn 0.9999 -0.0134 0.0001
vn 0.9999 -0.0136 -0.0000
vn 0.0267 -0.9996 -0.0000
vn 0.0265 -0.9996 0.0001
vn -0.0265 -0.9996 -0.0000
vn -0.0267 -0.9996 -0.0000
vn -0.9999 -0.0136 -0.0000
vn 0.0177 0.9998 -0.0000
vn 0.0150 0.9999 -0.0001
vn -0.0177 0.9998 -0.0000
vn -0.0150 0.9999 -0.0001
vn -1.0000 0.0093 -0.0000
vn -1.0000 0.0100 -0.0000
vn -0.9999 -0.0107 -0.0000
vn -1.0000 -0.0079 -0.0000
vn -0.0163 -0.9999 0.0002
vn -0.0233 -0.9997 -0.0000
vn -0.9999 -0.0128 -0.0000
vn -0.9999 -0.0113 0.0001
vn 0.0233 -0.9997 -0.0000
vn -0.0213 -0.9998 -0.0000
vn 0.9999 -0.0128 -0.0000
vn 0.9999 -0.0113 -0.0000
vn -0.9999 0.0128 -0.0000
vn -0.9999 0.0113 -0.0000
vn -0.0233 0.9997 -0.0000
vn -0.0213 0.9998 -0.0000
vn 0.0233 0.9997 -0.0000
vn 0.0213 0.9998 -0.0000
vn 0.9999 0.0128 -0.0000
vn 0.9999 0.0113 -0.0001
vn -0.0207 0.9998 -0.0000
vn 0.0213 -0.9998 -0.0001
vt 0.745356 0.615470
vt 0.725706 0.614999
vt 0.745263 0.614999
vt 0.746349 0.613913
vt 0.724938 0.614681
vt 0.725707 0.574718
vt 0.725612 0.615469
vt 0.338779 0.770573
vt 0.322255 0.750829
vt 0.338779 0.750829
vt 0.322255 0.771693
vt 0.322255 0.770573
vt 0.724149 0.614006
vt 0.724620 0.613912
vt 0.310606 0.695090
vt 0.327131 0.693982
vt 0.327130 0.695102
vt 0.724620 0.575805
vt 0.310635 0.655675
vt 0.310607 0.693970
vt 0.724150 0.575711
vt 0.724939 0.575037
vt 0.327160 0.654567
vt 0.327159 0.655687
vt 0.725613 0.574248
vt 0.554288 0.749531
vt 0.537764 0.750661
vt 0.537763 0.749541
vt 0.745357 0.574248
vt 0.745264 0.574719
vt 0.554301 0.770394
vt 0.554288 0.750651
vt 0.746032 0.575037
vt 0.537777 0.771525
vt 0.554301 0.771514
vt 0.746820 0.575712
vt 0.746350 0.575805
vt 0.100923 0.645242
vt 0.117446 0.644108
vt 0.117447 0.645227
vt 0.117480 0.683522
vt 0.100956 0.683536
vt 0.746819 0.614006
vt 0.746031 0.614681
vt 0.100957 0.684656
vt 0.117481 0.684642
vt 0.338779 0.749709
vt 0.152971 0.731496
vt 0.152072 0.732609
vt 0.151936 0.731925
vt 0.154083 0.730598
vt 0.153399 0.730462
vt 0.369263 0.935642
vt 0.368914 0.937181
vt 0.368919 0.935641
vt 0.980783 0.541610
vt 0.980429 0.543147
vt 0.980438 0.541608
vt 0.154083 0.692031
vt 0.153399 0.692167
vt 0.981006 0.503044
vt 0.980661 0.503042
vt 0.544701 0.688747
vt 0.543588 0.687848
vt 0.544272 0.687712
vt 0.543588 0.649281
vt 0.544272 0.649417
vt 0.544701 0.648383
vt 0.981015 0.501505
vt 0.980670 0.501503
vt 0.545599 0.647270
vt 0.545736 0.647954
vt 0.730327 0.956735
vt 0.729974 0.958272
vt 0.729983 0.956733
vt 0.565616 0.647270
vt 0.565479 0.647955
vt 0.730444 0.936719
vt 0.730100 0.936717
vt 0.566514 0.648383
vt 0.730453 0.935180
vt 0.730109 0.935178
vt 0.567627 0.649282
vt 0.566943 0.649418
vt 0.432921 0.928510
vt 0.433266 0.926971
vt 0.433266 0.928510
vt 0.566942 0.687712
vt 0.432921 0.967077
vt 0.433266 0.967077
vt 0.567627 0.687849
vt 0.566514 0.688747
vt 0.432921 0.968616
vt 0.433266 0.968616
vt 0.565615 0.689860
vt 0.565479 0.689176
vt 0.369200 0.957198
vt 0.368851 0.958736
vt 0.368856 0.957197
vt 0.545735 0.689176
vt 0.369259 0.937182
vt 0.545599 0.689860
vt 0.545061 0.688387
vt 0.545829 0.688705
vt 0.565386 0.688705
vt 0.544742 0.687619
vt 0.112571 0.952984
vt 0.112924 0.952156
vt 0.112916 0.952988
vt 0.788568 0.956498
vt 0.788219 0.957328
vt 0.788223 0.956496
vt 0.112579 0.952153
vt 0.113291 0.914049
vt 0.544743 0.649511
vt 0.112947 0.914046
vt 0.113299 0.913217
vt 0.545061 0.648743
vt 0.299405 0.936065
vt 0.299056 0.936895
vt 0.299060 0.936064
vt 0.545829 0.648425
vt 0.299401 0.936897
vt 0.298961 0.956451
vt 0.565386 0.648425
vt 0.299305 0.956453
vt 0.298957 0.957283
vt 0.566154 0.648743
vt 0.119124 0.913211
vt 0.118771 0.914039
vt 0.118780 0.913208
vt 0.566472 0.649511
vt 0.119116 0.914042
vt 0.118404 0.952145
vt 0.566472 0.687619
vt 0.118748 0.952148
vt 0.118396 0.952976
vt 0.566154 0.688387
vt 0.788665 0.936109
vt 0.788317 0.936939
vt 0.788321 0.936108
vt 0.788661 0.936941
vt 0.748535 0.614529
vt 0.768079 0.614464
vt 0.768092 0.614528
vt 0.768811 0.614161
vt 0.768860 0.614210
vt 0.170821 0.935997
vt 0.171336 0.955526
vt 0.170928 0.955528
vt 0.171341 0.956318
vt 0.170932 0.956320
vt 0.769178 0.613442
vt 0.769114 0.613429
vt 0.625974 0.951990
vt 0.625557 0.951203
vt 0.625965 0.951198
vt 0.769113 0.575347
vt 0.769177 0.575334
vt 0.625140 0.913123
vt 0.625549 0.913118
vt 0.276942 0.635543
vt 0.276407 0.597354
vt 0.276941 0.597461
vt 0.277245 0.636275
vt 0.276407 0.635649
vt 0.275658 0.597206
vt 0.276836 0.636684
vt 0.275659 0.635798
vt 0.869775 0.914149
vt 0.870539 0.952737
vt 0.870066 0.952740
vt 0.870551 0.954315
vt 0.870078 0.954319
vt 0.951307 0.931836
vt 0.951785 0.933413
vt 0.951312 0.933415
vt 0.277722 0.637861
vt 0.276263 0.637257
vt 0.951858 0.953454
vt 0.951385 0.953456
vt 0.297614 0.637112
vt 0.277871 0.637112
vt 0.297508 0.636577
vt 0.277977 0.636578
vt 0.298240 0.636274
vt 0.298649 0.636683
vt 0.297763 0.637860
vt 0.299078 0.635649
vt 0.299826 0.635798
vt 0.299222 0.637256
vt 0.951864 0.955033
vt 0.951391 0.955035
vt 0.759882 0.954935
vt 0.759397 0.953360
vt 0.759870 0.953356
vt 0.759108 0.914767
vt 0.759581 0.914764
vt 0.299825 0.597205
vt 0.759096 0.913189
vt 0.759569 0.913185
vt 0.298648 0.596319
vt 0.299077 0.597354
vt 0.298239 0.596729
vt 0.298542 0.597460
vt 0.298543 0.635543
vt 0.297614 0.595891
vt 0.297763 0.595143
vt 0.299221 0.595747
vt 0.277721 0.595143
vt 0.277976 0.596426
vt 0.297507 0.596425
vt 0.939658 0.931829
vt 0.940136 0.933405
vt 0.939663 0.933407
vt 0.940211 0.953447
vt 0.939738 0.953448
vt 0.940217 0.955025
vt 0.939744 0.955027
vt 0.276835 0.596320
vt 0.277870 0.595891
vt 0.869763 0.912570
vt 0.870248 0.914145
vt 0.276263 0.595747
vt 0.277244 0.596729
vt 0.625540 0.912326
vt 0.625132 0.912331
vt 0.962964 0.932481
vt 0.963365 0.931684
vt 0.963373 0.932476
vt 0.768090 0.574248
vt 0.768809 0.574615
vt 0.768078 0.574312
vt 0.768859 0.574566
vt 0.748546 0.574313
vt 0.748534 0.574249
vt 0.963589 0.952006
vt 0.963180 0.952011
vt 0.747815 0.574616
vt 0.747765 0.574567
vt 0.963189 0.952803
vt 0.963598 0.952798
vt 0.747447 0.575335
vt 0.747511 0.575348
vt 0.223238 0.912326
vt 0.223655 0.913114
vt 0.223246 0.913118
vt 0.747513 0.613430
vt 0.747448 0.613443
vt 0.224071 0.951195
vt 0.223662 0.951200
vt 0.747816 0.614162
vt 0.747767 0.614211
vt 0.223671 0.951992
vt 0.224080 0.951988
vt 0.748548 0.614465
vt 0.170817 0.935205
vt 0.171230 0.935995
vt 0.787960 0.628164
vt 0.789088 0.629099
vt 0.788404 0.629235
vt 0.787025 0.627037
vt 0.788484 0.627641
vt 0.613483 0.766799
vt 0.630007 0.767969
vt 0.613483 0.767958
vt 0.770782 0.574248
vt 0.787305 0.575422
vt 0.770781 0.575407
vt 0.630020 0.747040
vt 0.630008 0.766810
vt 0.767120 0.627721
vt 0.786889 0.627721
vt 0.613497 0.745871
vt 0.630021 0.745881
vt 0.766049 0.628165
vt 0.766984 0.627037
vt 0.764921 0.629099
vt 0.765525 0.627641
vt 0.747447 0.627173
vt 0.763973 0.628318
vt 0.747448 0.628332
vt 0.078477 0.549439
vt 0.077624 0.550101
vt 0.078067 0.549030
vt 0.079138 0.548586
vt 0.079245 0.549121
vt 0.099888 0.550207
vt 0.079245 0.589401
vt 0.098908 0.548586
vt 0.098801 0.549121
vt 0.099570 0.549439
vt 0.099979 0.549030
vt 0.100422 0.550101
vt 0.100422 0.588421
vt 0.099888 0.588315
vt 0.770747 0.613728
vt 0.787271 0.613742
vt 0.787270 0.614901
vt 0.770746 0.614887
vt 0.099570 0.589083
vt 0.099979 0.589492
vt 0.098908 0.589936
vt 0.098801 0.589401
vt 0.630956 0.747880
vt 0.647481 0.749035
vt 0.630956 0.749039
vt 0.079138 0.589936
vt 0.078476 0.589083
vt 0.078067 0.589492
vt 0.647486 0.769964
vt 0.630961 0.768808
vt 0.647486 0.768805
vt 0.747482 0.666653
vt 0.764008 0.667797
vt 0.747483 0.667812
vt 0.077624 0.588421
vt 0.078158 0.588315
vt 0.764006 0.666638
vt 0.078158 0.550207
vt 0.765605 0.667556
vt 0.765605 0.629236
vt 0.766049 0.668627
vt 0.764921 0.667692
vt 0.766984 0.669755
vt 0.765525 0.669150
vt 0.767120 0.669070
vt 0.787025 0.669754
vt 0.787960 0.668627
vt 0.786889 0.669070
vt 0.789088 0.667692
vt 0.788484 0.669150
vt 0.788404 0.667556
vt 0.132056 0.732609
vt 0.131157 0.731496
vt 0.132192 0.731925
vt 0.130045 0.730597
vt 0.130729 0.730461
vt 0.130729 0.692167
vt 0.130045 0.692031
vt 0.131158 0.691132
vt 0.132056 0.690019
vt 0.132192 0.690704
vt 0.151936 0.690704
vt 0.152072 0.690019
vt 0.152971 0.691132
vt 0.724578 0.615041
vt 0.338779 0.771693
vt 0.724579 0.574677
vt 0.310636 0.654555
vt 0.537776 0.770405
vt 0.746392 0.574677
vt 0.100922 0.644122
vt 0.746391 0.615041
vt 0.322255 0.749709
vt 0.153494 0.732020
vt 0.980774 0.543149
vt 0.544177 0.689271
vt 0.544177 0.647859
vt 0.730318 0.958274
vt 0.567038 0.647859
vt 0.432921 0.926971
vt 0.567037 0.689271
vt 0.369196 0.958737
vt 0.788564 0.957330
vt 0.112954 0.913214
vt 0.299301 0.957284
vt 0.118740 0.952980
vt 0.625565 0.951995
vt 0.951780 0.931834
vt 0.759409 0.954939
vt 0.940130 0.931827
vt 0.870236 0.912567
vt 0.962956 0.931689
vt 0.223646 0.912322
vt 0.171225 0.935202
vt 0.787306 0.574263
vt 0.613496 0.747030
vt 0.763972 0.627159
vt 0.647480 0.747876
vt 0.630961 0.769968
vt 0.130634 0.732020
vt 0.130634 0.690608
vt 0.153494 0.690609
s 1
usemtl standardSurface2
f 5/1/1 1/2/1 2/3/1
f 31/4/1 3/5/1 19/6/1
f 4/7/1 3/5/1 1/2/1
f 6/8/2 5/9/3 36/10/4
f 6/8/2 7/11/5 4/12/6
f 3/5/1 9/13/1 10/14/1
f 8/15/7 9/16/8 7/17/7
f 9/13/1 13/18/1 10/14/1
f 14/19/9 9/16/8 11/20/10
f 12/21/1 16/22/1 13/18/1
f 14/19/9 15/23/11 12/24/12
f 16/22/1 18/25/1 19/6/1
f 17/26/13 18/27/14 15/28/13
f 19/6/1 21/29/1 22/30/1
f 23/31/15 18/27/14 20/32/16
f 21/29/1 25/33/1 22/30/1
f 24/34/17 23/31/15 26/35/17
f 25/33/1 27/36/1 28/37/1
f 27/38/18 26/39/19 29/40/20
f 27/36/1 31/4/1 28/37/1
f 27/38/18 32/41/21 30/42/22
f 30/43/1 34/44/1 31/4/1
f 33/45/23 32/41/21 35/46/23
f 34/44/1 5/1/1 2/3/1
f 5/9/3 35/47/24 36/10/4
f 35/48/1 38/49/1 36/50/1
f 40/51/1 35/48/1 32/52/1
f 39/53/24 38/54/25 37/55/24
f 42/56/26 37/57/23 40/58/27
f 41/59/1 32/52/1 29/60/1
f 44/61/28 40/58/27 41/62/29
f 73/63/30 42/64/30 43/65/30
f 43/65/30 44/66/30 45/67/30
f 44/66/30 47/68/30 45/67/30
f 46/69/19 41/62/29 48/70/19
f 47/68/30 49/71/30 50/72/30
f 49/73/31 48/74/17 51/75/32
f 50/72/30 52/76/30 53/77/30
f 52/78/33 51/75/32 54/79/34
f 52/76/30 56/80/30 53/77/30
f 55/81/13 54/79/34 57/82/13
f 56/80/30 58/83/30 59/84/30
f 58/85/35 57/86/11 60/87/36
f 58/83/30 62/88/30 59/84/30
f 61/89/37 60/87/36 63/90/38
f 61/91/30 65/92/30 62/88/30
f 64/93/7 63/90/38 66/94/7
f 65/92/30 67/95/30 68/96/30
f 67/97/39 66/98/5 69/99/40
f 67/95/30 71/100/30 68/96/30
f 70/101/41 69/99/40 38/54/25
f 70/102/30 73/63/30 71/100/30
f 71/100/30 74/103/30 72/104/30
f 68/96/30 72/104/30 94/105/30
f 74/103/30 43/65/30 76/106/30
f 74/107/11 77/108/42 75/109/11
f 72/110/43 75/111/13 96/112/44
f 76/113/45 79/114/46 77/108/42
f 43/65/30 78/115/30 76/106/30
f 78/116/47 81/117/7 79/114/46
f 45/67/30 80/118/30 78/115/30
f 80/119/5 83/120/48 81/121/5
f 80/118/30 50/72/30 82/122/30
f 82/123/49 85/124/50 83/120/48
f 50/72/30 84/125/30 82/122/30
f 84/126/51 87/127/24 85/124/50
f 53/77/30 86/128/30 84/125/30
f 86/129/23 89/130/52 87/131/23
f 86/128/30 59/84/30 88/132/30
f 88/133/53 91/134/54 89/130/52
f 88/132/30 62/88/30 90/135/30
f 90/136/55 93/137/19 91/134/54
f 62/88/30 92/138/30 90/135/30
f 92/139/17 95/140/56 93/141/17
f 92/138/30 68/96/30 94/105/30
f 94/142/57 96/112/44 95/140/56
f 96/143/30 97/144/30 95/145/30
f 95/145/30 100/146/30 93/147/30
f 98/148/58 99/149/59 97/150/60
f 97/150/60 101/151/5 100/152/5
f 91/153/30 100/146/30 102/154/30
f 100/155/7 104/156/61 102/157/62
f 91/153/30 103/158/30 89/159/30
f 102/157/62 105/160/63 103/161/64
f 104/162/1 107/163/1 105/164/1
f 101/165/1 106/166/1 104/162/1
f 106/166/1 110/167/1 107/163/1
f 108/168/1 109/169/1 106/166/1
f 154/170/65 109/171/66 111/172/67
f 111/172/67 112/173/19 113/174/19
f 113/175/17 114/176/68 115/177/69
f 108/168/1 114/178/1 112/179/1
f 115/177/69 116/180/70 192/181/71
f 118/182/1 114/178/1 117/183/1
f 119/184/1 117/183/1 99/185/1
f 101/165/1 117/183/1 108/168/1
f 121/186/1 118/182/1 119/184/1
f 120/187/1 116/188/1 118/182/1
f 121/186/1 122/189/1 120/187/1
f 120/187/1 125/190/1 123/191/1
f 192/181/71 123/192/13 124/193/13
f 124/194/11 125/195/72 126/196/73
f 126/196/73 127/197/74 128/198/75
f 122/189/1 127/199/1 125/190/1
f 128/198/75 129/200/7 165/201/7
f 132/202/1 127/199/1 130/203/1
f 133/204/1 130/203/1 131/205/1
f 131/205/1 122/189/1 152/206/1
f 133/204/1 134/207/1 132/202/1
f 132/202/1 137/208/1 129/209/1
f 134/207/1 139/210/1 137/208/1
f 145/211/1 134/207/1 136/212/1
f 165/213/5 137/214/76 138/215/77
f 138/215/77 139/216/78 140/217/79
f 140/217/79 141/218/24 142/219/24
f 143/220/1 139/210/1 135/221/1
f 142/222/23 110/223/80 154/170/65
f 143/220/1 110/167/1 141/224/1
f 144/225/1 107/163/1 143/220/1
f 144/225/1 135/221/1 145/211/1
f 146/226/11 105/160/63 144/227/11
f 147/228/81 144/229/13 145/230/82
f 85/231/30 146/232/30 147/233/30
f 89/159/30 146/232/30 87/234/30
f 85/231/30 148/235/30 83/236/30
f 147/228/81 136/237/83 148/238/84
f 83/236/30 149/239/30 81/240/30
f 149/241/17 136/237/83 133/242/17
f 79/243/30 149/239/30 150/244/30
f 149/245/19 131/246/85 150/247/86
f 79/243/30 151/248/30 77/249/30
f 150/247/86 152/250/87 151/251/88
f 77/249/30 153/252/30 75/253/30
f 153/254/23 152/250/87 121/255/23
f 96/143/30 153/252/30 98/256/30
f 153/257/24 119/258/89 98/148/58
f 155/259/30 154/260/30 157/261/30
f 155/259/30 140/262/30 142/263/30
f 159/264/90 155/265/24 156/266/24
f 156/267/23 157/268/91 174/269/92
f 159/264/90 160/270/93 158/271/94
f 160/272/30 140/262/30 158/273/30
f 160/270/93 164/274/5 162/275/5
f 162/276/30 138/277/30 160/272/30
f 162/276/30 128/278/30 165/279/30
f 162/280/7 166/281/95 163/282/96
f 167/283/30 166/284/30 164/285/30
f 167/283/30 161/286/30 169/287/30
f 172/288/30 182/289/30 167/283/30
f 169/287/30 159/290/30 170/291/30
f 171/292/30 159/290/30 156/293/30
f 171/292/30 174/294/30 172/288/30
f 172/288/30 175/295/30 173/296/30
f 175/297/97 157/268/91 176/298/98
f 175/297/97 179/299/19 177/300/19
f 180/301/30 175/295/30 177/302/30
f 180/301/30 178/303/30 181/304/30
f 177/305/17 191/306/99 178/307/100
f 181/304/30 184/308/30 182/289/30
f 183/309/30 184/308/30 186/310/30
f 187/311/13 184/312/101 185/313/102
f 184/312/101 191/306/99 185/313/102
f 189/314/103 186/315/11 187/316/11
f 183/309/30 188/317/30 190/318/30
f 189/314/103 166/281/95 188/319/104
f 190/318/30 166/284/30 168/320/30
f 189/321/30 128/278/30 163/322/30
f 187/323/30 126/324/30 189/321/30
f 187/323/30 192/325/30 124/326/30
f 185/327/30 115/328/30 192/325/30
f 179/329/30 115/328/30 191/330/30
f 179/329/30 111/331/30 113/332/30
f 157/261/30 111/331/30 176/333/30
f 69/334/1 8/335/1 6/336/1
f 36/50/1 69/334/1 6/336/1
f 8/335/1 63/337/1 11/338/1
f 63/337/1 14/339/1 11/338/1
f 60/340/1 17/341/1 14/339/1
f 17/341/1 54/342/1 20/343/1
f 54/342/1 23/344/1 20/343/1
f 51/345/1 26/346/1 23/344/1
f 26/346/1 41/59/1 29/60/1
f 5/1/1 4/7/1 1/2/1
f 19/6/1 22/30/1 25/33/1
f 25/33/1 28/37/1 31/4/1
f 31/4/1 34/44/1 2/3/1
f 2/3/1 1/2/1 3/5/1
f 3/5/1 10/14/1 13/18/1
f 13/18/1 16/22/1 19/6/1
f 19/6/1 25/33/1 31/4/1
f 31/4/1 2/3/1 3/5/1
f 3/5/1 13/18/1 19/6/1
f 4/7/1 7/347/1 3/5/1
f 6/8/2 4/12/6 5/9/3
f 6/8/2 8/348/5 7/11/5
f 3/5/1 7/347/1 9/13/1
f 8/15/7 11/20/10 9/16/8
f 9/13/1 12/21/1 13/18/1
f 14/19/9 12/24/12 9/16/8
f 12/21/1 15/349/1 16/22/1
f 14/19/9 17/350/11 15/23/11
f 16/22/1 15/349/1 18/25/1
f 17/26/13 20/32/16 18/27/14
f 19/6/1 18/25/1 21/29/1
f 23/31/15 21/351/105 18/27/14
f 21/29/1 24/352/1 25/33/1
f 24/34/17 21/351/105 23/31/15
f 25/33/1 24/352/1 27/36/1
f 27/38/18 24/353/19 26/39/19
f 27/36/1 30/43/1 31/4/1
f 27/38/18 29/40/20 32/41/21
f 30/43/1 33/354/1 34/44/1
f 33/45/23 30/42/22 32/41/21
f 34/44/1 33/354/1 5/1/1
f 5/9/3 33/355/24 35/47/24
f 35/48/1 37/356/1 38/49/1
f 40/51/1 37/356/1 35/48/1
f 39/53/24 70/101/41 38/54/25
f 42/56/26 39/357/23 37/57/23
f 41/59/1 40/51/1 32/52/1
f 44/61/28 42/56/26 40/58/27
f 73/63/30 39/358/30 42/64/30
f 43/65/30 42/64/30 44/66/30
f 44/66/30 46/359/30 47/68/30
f 46/69/19 44/61/28 41/62/29
f 47/68/30 46/359/30 49/71/30
f 49/73/31 46/360/17 48/74/17
f 50/72/30 49/71/30 52/76/30
f 52/78/33 49/73/31 51/75/32
f 52/76/30 55/361/30 56/80/30
f 55/81/13 52/78/33 54/79/34
f 56/80/30 55/361/30 58/83/30
f 58/85/35 55/362/11 57/86/11
f 58/83/30 61/91/30 62/88/30
f 61/89/37 58/85/35 60/87/36
f 61/91/30 64/363/30 65/92/30
f 64/93/7 61/89/37 63/90/38
f 65/92/30 64/363/30 67/95/30
f 67/97/39 64/364/5 66/98/5
f 67/95/30 70/102/30 71/100/30
f 70/101/41 67/97/39 69/99/40
f 70/102/30 39/358/30 73/63/30
f 71/100/30 73/63/30 74/103/30
f 68/96/30 71/100/30 72/104/30
f 74/103/30 73/63/30 43/65/30
f 74/107/11 76/113/45 77/108/42
f 72/110/43 74/365/13 75/111/13
f 76/113/45 78/116/47 79/114/46
f 43/65/30 45/67/30 78/115/30
f 78/116/47 80/366/7 81/117/7
f 45/67/30 47/68/30 80/118/30
f 80/119/5 82/123/49 83/120/48
f 80/118/30 47/68/30 50/72/30
f 82/123/49 84/126/51 85/124/50
f 50/72/30 53/77/30 84/125/30
f 84/126/51 86/367/24 87/127/24
f 53/77/30 56/80/30 86/128/30
f 86/129/23 88/133/53 89/130/52
f 86/128/30 56/80/30 59/84/30
f 88/133/53 90/136/55 91/134/54
f 88/132/30 59/84/30 62/88/30
f 90/136/55 92/368/19 93/137/19
f 62/88/30 65/92/30 92/138/30
f 92/139/17 94/142/57 95/140/56
f 92/138/30 65/92/30 68/96/30
f 94/142/57 72/110/43 96/112/44
f 96/143/30 98/256/30 97/144/30
f 95/145/30 97/144/30 100/146/30
f 98/148/58 119/258/89 99/149/59
f 97/150/60 99/149/59 101/151/5
f 91/153/30 93/147/30 100/146/30
f 100/155/7 101/369/7 104/156/61
f 91/153/30 102/154/30 103/158/30
f 102/157/62 104/156/61 105/160/63
f 104/162/1 106/166/1 107/163/1
f 101/165/1 108/168/1 106/166/1
f 106/166/1 109/169/1 110/167/1
f 108/168/1 112/179/1 109/169/1
f 154/170/65 110/223/80 109/171/66
f 111/172/67 109/171/66 112/173/19
f 113/175/17 112/370/17 114/176/68
f 108/168/1 117/183/1 114/178/1
f 115/177/69 114/176/68 116/180/70
f 118/182/1 116/188/1 114/178/1
f 119/184/1 118/182/1 117/183/1
f 101/165/1 99/185/1 117/183/1
f 121/186/1 120/187/1 118/182/1
f 120/187/1 123/191/1 116/188/1
f 121/186/1 152/206/1 122/189/1
f 120/187/1 122/189/1 125/190/1
f 192/181/71 116/180/70 123/192/13
f 124/194/11 123/371/11 125/195/72
f 126/196/73 125/195/72 127/197/74
f 122/189/1 130/203/1 127/199/1
f 128/198/75 127/197/74 129/200/7
f 132/202/1 129/209/1 127/199/1
f 133/204/1 132/202/1 130/203/1
f 131/205/1 130/203/1 122/189/1
f 133/204/1 136/212/1 134/207/1
f 132/202/1 134/207/1 137/208/1
f 134/207/1 135/221/1 139/210/1
f 145/211/1 135/221/1 134/207/1
f 165/213/5 129/372/5 137/214/76
f 138/215/77 137/214/76 139/216/78
f 140/217/79 139/216/78 141/218/24
f 143/220/1 141/224/1 139/210/1
f 142/222/23 141/373/23 110/223/80
f 143/220/1 107/163/1 110/167/1
f 144/225/1 105/164/1 107/163/1
f 144/225/1 143/220/1 135/221/1
f 146/226/11 103/161/64 105/160/63
f 147/228/81 146/374/13 144/229/13
f 85/231/30 87/234/30 146/232/30
f 89/159/30 103/158/30 146/232/30
f 85/231/30 147/233/30 148/235/30
f 147/228/81 145/230/82 136/237/83
f 83/236/30 148/235/30 149/239/30
f 149/241/17 148/238/84 136/237/83
f 79/243/30 81/240/30 149/239/30
f 149/245/19 133/375/19 131/246/85
f 79/243/30 150/244/30 151/248/30
f 150/247/86 131/246/85 152/250/87
f 77/249/30 151/248/30 153/252/30
f 153/254/23 151/251/88 152/250/87
f 96/143/30 75/253/30 153/252/30
f 153/257/24 121/376/24 119/258/89
f 155/259/30 142/263/30 154/260/30
f 155/259/30 158/273/30 140/262/30
f 159/264/90 158/271/94 155/265/24
f 156/267/23 155/377/23 157/268/91
f 159/264/90 161/378/106 160/270/93
f 160/272/30 138/277/30 140/262/30
f 160/270/93 161/378/106 164/274/5
f 162/276/30 165/279/30 138/277/30
f 162/276/30 163/322/30 128/278/30
f 162/280/7 164/379/7 166/281/95
f 167/283/30 168/320/30 166/284/30
f 167/283/30 164/285/30 161/286/30
f 167/283/30 169/287/30 170/291/30
f 170/291/30 171/292/30 172/288/30
f 172/288/30 173/296/30 180/301/30
f 180/301/30 181/304/30 182/289/30
f 182/289/30 183/309/30 190/318/30
f 190/318/30 168/320/30 167/283/30
f 167/283/30 170/291/30 172/288/30
f 172/288/30 180/301/30 182/289/30
f 182/289/30 190/318/30 167/283/30
f 169/287/30 161/286/30 159/290/30
f 171/292/30 170/291/30 159/290/30
f 171/292/30 156/293/30 174/294/30
f 172/288/30 174/294/30 175/295/30
f 175/297/97 174/269/92 157/268/91
f 175/297/97 176/298/98 179/299/19
f 180/301/30 173/296/30 175/295/30
f 180/301/30 177/302/30 178/303/30
f 177/305/17 179/380/17 191/306/99
f 181/304/30 178/303/30 184/308/30
f 183/309/30 182/289/30 184/308/30
f 187/311/13 186/381/13 184/312/101
f 184/312/101 178/307/100 191/306/99
f 189/314/103 188/319/104 186/315/11
f 183/309/30 186/310/30 188/317/30
f 189/314/103 163/282/96 166/281/95
f 190/318/30 188/317/30 166/284/30
f 189/321/30 126/324/30 128/278/30
f 187/323/30 124/326/30 126/324/30
f 187/323/30 185/327/30 192/325/30
f 185/327/30 191/330/30 115/328/30
f 179/329/30 113/332/30 115/328/30
f 179/329/30 176/333/30 111/331/30
f 157/261/30 154/260/30 111/331/30
f 69/334/1 66/382/1 8/335/1
f 36/50/1 38/49/1 69/334/1
f 8/335/1 66/382/1 63/337/1
f 63/337/1 60/340/1 14/339/1
f 60/340/1 57/383/1 17/341/1
f 17/341/1 57/383/1 54/342/1
f 54/342/1 51/345/1 23/344/1
f 51/345/1 48/384/1 26/346/1
f 26/346/1 48/384/1 41/59/1
