# Blender 5.1.0
# www.blender.org
mtllib CandyBottle.mtl
o polySurface146.066
v 0.267324 -0.000006 -0.843586
v 0.322690 0.133657 -0.843586
v 0.133662 -0.055371 -0.843586
v 0.133662 0.133657 -0.843586
v 0.353907 -0.086589 -0.398404
v 0.335919 -0.068601 -0.290333
v 0.445136 0.133657 -0.398404
v 0.133662 -0.177818 -0.398404
v 0.133662 -0.152379 -0.290333
v -0.086585 -0.086589 -0.398404
v -0.177813 0.133657 -0.398404
v -0.068597 -0.068601 -0.290333
v -0.000002 -0.000006 -0.843586
v -0.055367 0.133657 -0.843586
v -0.000002 0.267320 -0.843586
v 0.133662 0.322684 -0.843586
v -0.086585 0.353903 -0.398404
v -0.068597 0.335915 -0.290333
v 0.133662 0.445132 -0.398404
v 0.133662 0.419693 -0.290333
v 0.353907 0.353903 -0.398404
v 0.335919 0.335915 -0.290333
v 0.267324 0.267320 -0.843586
v 0.419698 0.133657 -0.290333
v 0.267324 0.267320 -0.174991
v 0.133662 0.322684 -0.174991
v 0.322690 0.133657 -0.174991
v 0.267324 0.267320 -0.000000
v 0.322690 0.133657 -0.000000
v 0.253959 0.253955 0.015574
v 0.133662 0.322684 -0.000000
v 0.133662 0.303784 0.015574
v -0.000002 0.267320 -0.000000
v 0.013363 0.253955 0.015574
v -0.055367 0.133657 -0.000000
v -0.000002 0.267320 -0.174991
v -0.055367 0.133657 -0.174991
v -0.000002 -0.000006 -0.174991
v -0.152374 0.133657 -0.290333
v 0.133662 -0.055371 -0.174991
v -0.000002 -0.000006 -0.000000
v 0.013363 0.013359 0.015574
v 0.133662 -0.055371 -0.000000
v 0.133662 -0.036470 0.015574
v 0.267324 -0.000006 -0.000000
v 0.253959 0.013359 0.015574
v 0.267324 -0.000006 -0.174991
v 0.303787 0.133657 0.015574
v 0.133662 0.133657 0.015574
v -0.036463 0.133657 0.015574
vn 0.8825 -0.2472 -0.4000
vn 0.6981 -0.6981 -0.1594
vn 0.6592 -0.6592 -0.3617
vn -0.0000 -0.0000 -1.0000
vn -0.4190 -0.7101 -0.5659
vn -0.0000 -0.9870 -0.1605
vn 0.6357 -0.6396 0.4321
vn 0.9018 -0.0028 0.4321
vn 0.9900 -0.1401 -0.0164
vn -0.6375 -0.6375 0.4326
vn -0.6980 -0.6981 -0.1594
vn -0.8014 -0.2020 -0.5630
vn -0.9874 -0.0000 -0.1581
vn -0.9323 -0.0000 -0.3617
vn -0.9033 0.0057 0.4290
vn -0.2020 0.8014 -0.5630
vn -0.6981 0.6981 -0.1594
vn -0.0000 0.9870 -0.1605
vn -0.0000 0.9353 -0.3537
vn -0.6358 0.6396 0.4320
vn 0.6375 0.6375 0.4326
vn 0.6981 0.6981 -0.1594
vn 0.6592 0.6592 -0.3617
vn -0.0000 0.9246 0.3809
vn 0.6538 0.6538 0.3807
vn 0.9246 -0.0000 0.3809
vn 0.7052 0.7052 0.0729
vn 0.9974 -0.0000 0.0725
vn 0.4356 -0.1935 0.8791
vn 0.1543 0.1543 0.9759
vn -0.0000 0.2197 0.9756
vn -0.7053 0.7052 0.0727
vn -0.1549 0.1550 0.9757
vn -0.6506 0.6579 0.3794
vn -0.3191 0.8507 0.4177
vn -0.9974 -0.0000 0.0727
vn -0.2191 -0.0000 0.9757
vn -0.9253 0.0050 0.3792
vn 0.0036 0.9060 0.4232
vn -0.6579 -0.6506 0.3793
vn -0.0051 -0.9252 0.3793
vn -0.3763 -0.8270 0.4176
vn -0.1544 -0.1543 0.9759
vn -0.0000 -0.2197 0.9756
vn 0.8609 -0.4289 0.2738
vn -0.1020 -0.7511 0.6523
vn 0.6507 -0.6579 0.3792
vn 0.1966 -0.4597 0.8660
vn -0.0057 -0.9045 0.4264
vn -0.0000 -0.0000 1.0000
vt 0.814139 0.330750
vt 0.816787 0.325618
vt 0.815780 0.330873
vt 0.883548 0.027605
vt 0.885058 0.028231
vt 0.883548 0.029741
vt 0.517166 0.172579
vt 0.519746 0.177773
vt 0.517131 0.177698
vt 0.885683 0.029741
vt 0.519513 0.179100
vt 0.814144 0.324451
vt 0.814127 0.325630
vt 0.514688 0.179019
vt 0.514465 0.177690
vt 0.515525 0.172443
vt 0.355795 0.265660
vt 0.354037 0.270896
vt 0.354108 0.265776
vt 0.354000 0.272074
vt 0.356646 0.270978
vt 0.356400 0.272296
vt 0.885058 0.031251
vt 0.883548 0.031876
vt 0.352470 0.265626
vt 0.351378 0.270864
vt 0.882038 0.031251
vt 0.827542 0.222917
vt 0.825832 0.228167
vt 0.825853 0.223048
vt 0.881412 0.029741
vt 0.828218 0.229562
vt 0.828447 0.228235
vt 0.823393 0.229495
vt 0.823166 0.228167
vt 0.824211 0.222916
vt 0.811517 0.325589
vt 0.882038 0.028231
vt 0.825783 0.230986
vt 0.824081 0.231165
vt 0.811741 0.324268
vt 0.814146 0.322795
vt 0.824203 0.233111
vt 0.812441 0.322685
vt 0.814132 0.320777
vt 0.842567 0.038481
vt 0.841038 0.038170
vt 0.841206 0.037950
vt 0.825776 0.233217
vt 0.824320 0.233367
vt 0.827336 0.233175
vt 0.827208 0.233429
vt 0.827504 0.231151
vt 0.825782 0.232952
vt 0.841206 0.035210
vt 0.842570 0.034402
vt 0.842568 0.034680
vt 0.353972 0.273730
vt 0.352352 0.275791
vt 0.352268 0.273864
vt 0.351593 0.272191
vt 0.825802 0.229340
vt 0.355676 0.273868
vt 0.353953 0.275747
vt 0.517074 0.180516
vt 0.515488 0.182637
vt 0.515372 0.180691
vt 0.844098 0.034992
vt 0.843930 0.035211
vt 0.517060 0.182747
vt 0.515605 0.182894
vt 0.518622 0.182710
vt 0.517067 0.182483
vt 0.518795 0.180686
vt 0.844098 0.038172
vt 0.843930 0.037952
vt 0.815732 0.320708
vt 0.815848 0.322634
vt 0.816550 0.324295
vt 0.517098 0.178871
vt 0.842568 0.036581
vt 0.844496 0.036581
vt 0.840640 0.036580
vt 0.518855 0.172453
vt 0.812454 0.330893
vt 0.812495 0.320718
vt 0.842566 0.038760
vt 0.841038 0.034989
vt 0.355589 0.275833
vt 0.518492 0.182964
s 1
usemtl standardSurface2
f 2/1/1 5/2/2 1/3/3
f 2/4/1 1/5/3 4/6/4
f 3/7/5 5/8/2 8/9/6
f 1/5/3 3/10/5 4/6/4
f 6/11/7 8/9/6 5/8/2
f 24/12/8 5/2/2 7/13/9
f 8/9/6 12/14/10 10/15/11
f 13/16/12 8/9/6 10/15/11
f 13/17/12 11/18/13 14/19/14
f 39/20/15 10/21/11 12/22/10
f 13/23/12 14/24/14 4/6/4
f 3/10/5 13/23/12 4/6/4
f 15/25/16 11/18/13 17/26/17
f 14/24/14 15/27/16 4/6/4
f 15/28/16 19/29/18 16/30/19
f 15/27/16 16/31/19 4/6/4
f 18/32/20 19/29/18 17/33/17
f 39/20/15 17/26/17 11/18/13
f 19/29/18 22/34/21 21/35/22
f 16/30/19 21/35/22 23/36/23
f 21/37/22 24/12/8 7/13/9
f 2/1/1 21/37/22 7/13/9
f 23/38/23 2/4/1 4/6/4
f 16/31/19 23/38/23 4/6/4
f 22/34/21 26/39/24 25/40/25
f 22/41/21 27/42/26 24/12/8
f 26/39/24 28/43/27 25/40/25
f 25/44/25 29/45/28 27/42/26
f 48/46/29 28/47/27 30/48/30
f 28/43/27 32/49/31 30/50/30
f 32/49/31 33/51/32 34/52/33
f 36/53/34 31/54/35 26/39/24
f 34/55/33 35/56/36 50/57/37
f 37/58/38 33/59/32 36/60/34
f 39/20/15 36/60/34 18/61/20
f 20/62/39 36/53/34 26/39/24
f 38/63/40 35/64/36 37/58/38
f 39/20/15 38/63/40 37/58/38
f 40/65/41 41/66/42 38/67/40
f 12/14/10 40/65/41 38/67/40
f 50/57/37 41/68/42 42/69/43
f 41/66/42 44/70/44 42/71/43
f 45/72/45 44/70/44 43/73/46
f 47/74/47 43/73/46 40/65/41
f 45/75/45 48/46/29 46/76/48
f 27/42/26 45/77/45 47/78/47
f 6/79/7 27/42/26 47/78/47
f 6/11/7 40/65/41 9/80/49
f 46/76/48 48/46/29 49/81/50
f 44/82/44 46/76/48 49/81/50
f 48/46/29 30/48/30 49/81/50
f 30/48/30 32/83/31 49/81/50
f 32/83/31 34/55/33 49/81/50
f 34/55/33 50/57/37 49/81/50
f 50/57/37 42/69/43 49/81/50
f 42/69/43 44/82/44 49/81/50
f 2/1/1 7/13/9 5/2/2
f 3/7/5 1/84/3 5/8/2
f 6/11/7 9/80/49 8/9/6
f 24/12/8 6/79/7 5/2/2
f 8/9/6 9/80/49 12/14/10
f 13/16/12 3/7/5 8/9/6
f 13/17/12 10/21/11 11/18/13
f 39/20/15 11/18/13 10/21/11
f 15/25/16 14/19/14 11/18/13
f 15/28/16 17/33/17 19/29/18
f 18/32/20 20/62/39 19/29/18
f 39/20/15 18/61/20 17/26/17
f 19/29/18 20/62/39 22/34/21
f 16/30/19 19/29/18 21/35/22
f 21/37/22 22/41/21 24/12/8
f 2/1/1 23/85/23 21/37/22
f 22/34/21 20/62/39 26/39/24
f 22/41/21 25/44/25 27/42/26
f 26/39/24 31/54/35 28/43/27
f 25/44/25 28/86/27 29/45/28
f 48/46/29 29/87/28 28/47/27
f 28/43/27 31/54/35 32/49/31
f 32/49/31 31/54/35 33/51/32
f 36/53/34 33/51/32 31/54/35
f 34/55/33 33/88/32 35/56/36
f 37/58/38 35/64/36 33/59/32
f 39/20/15 37/58/38 36/60/34
f 20/62/39 18/32/20 36/53/34
f 38/63/40 41/89/42 35/64/36
f 39/20/15 12/22/10 38/63/40
f 40/65/41 43/73/46 41/66/42
f 12/14/10 9/80/49 40/65/41
f 50/57/37 35/56/36 41/68/42
f 41/66/42 43/73/46 44/70/44
f 45/72/45 46/90/48 44/70/44
f 47/74/47 45/72/45 43/73/46
f 45/75/45 29/87/28 48/46/29
f 27/42/26 29/45/28 45/77/45
f 6/79/7 24/12/8 27/42/26
f 6/11/7 47/74/47 40/65/41
