# Blender OBJ modified for tiled floor texture
# UVs regenerated with planar projection; texture repeats every 5 world units
mtllib Floor_Tiled.mtl
o polySurface146.048
v -22.641685 12.574430 1.265786
v -22.641685 -13.243827 1.265786
v 19.467724 12.574430 1.265783
v -14.828669 7.628269 1.265785
v -14.828669 1.318187 1.265785
v -5.577633 7.628269 1.265785
v -14.664024 7.463625 1.265785
v -14.664024 1.482831 1.265785
v -14.664024 7.463625 1.027549
v -5.742277 7.463625 1.265785
v -5.742277 1.482831 1.265785
v -5.742277 7.463625 1.027548
v -5.577633 7.628269 1.027548
v -5.742277 1.482831 1.027548
v -5.577633 1.318187 1.027549
v -14.664024 1.482831 1.027549
v -14.828669 1.318187 1.027549
v -14.828669 7.628269 1.027549
v -14.828669 1.318187 -0.483142
v -14.828669 7.628269 -0.483142
v -5.577633 1.318186 -0.483143
v -5.577633 7.628269 -0.483143
v -5.577633 1.318187 1.265785
v 19.467724 -13.243827 1.265783
vn -0.0000 -0.0000 1.0000
vn 1.0000 -0.0000 -0.0000
vn -0.0000 -1.0000 -0.0000
vn -1.0000 -0.0000 -0.0000
vn -0.0000 -0.0000 -1.0000
vn -0.0000 1.0000 -0.0000
vt 0.000000 5.163651
vt 1.562603 2.912403
vt 1.562603 4.174419
vt 0.000000 5.163651
vt 3.412810 4.174419
vt 8.421882 5.163651
vt 1.562603 2.912403
vt 1.595532 4.141490
vt 1.562603 4.174419
vt 3.412810 4.174419
vt 1.595532 4.141490
vt 3.379882 4.141490
vt 2.945332 0.349786
vt 4.141490 0.302138
vt 4.141490 0.349786
vt 1.595532 0.349786
vt 3.379882 0.302138
vt 3.379882 0.349786
vt 3.412810 4.174419
vt 3.379882 2.945332
vt 3.412810 2.912403
vt 2.945332 0.349786
vt 4.141490 0.302138
vt 2.945332 0.302138
vt 3.412810 4.174419
vt 1.595532 4.141490
vt 1.562603 4.174419
vt 3.412810 4.174419
vt 3.379882 2.945332
vt 3.379882 4.141490
vt 1.562603 2.912403
vt 3.379882 2.945332
vt 3.412810 2.912403
vt 3.379882 0.349786
vt 1.595532 0.302138
vt 1.595532 0.349786
vt 1.562603 4.174419
vt 1.595532 2.945332
vt 1.562603 2.912403
vt 2.912403 0.302138
vt 4.174419 0.000000
vt 4.174419 0.302138
vt 3.412810 0.302138
vt 1.562603 0.000000
vt 1.562603 0.302138
vt 2.912403 0.302138
vt 4.174419 0.000000
vt 2.912403 0.000000
vt 1.562603 0.302138
vt 3.412810 0.000000
vt 3.412810 0.302138
vt 3.412810 2.912403
vt 1.595532 2.945332
vt 1.562603 2.912403
vt 8.421882 5.163651
vt 3.412810 2.912403
vt 8.421882 0.000000
vt 0.000000 0.000000
vt 3.412810 2.912403
vt 1.562603 2.912403
vt 0.000000 5.163651
vt 0.000000 0.000000
vt 1.562603 2.912403
vt 0.000000 5.163651
vt 1.562603 4.174419
vt 3.412810 4.174419
vt 1.562603 2.912403
vt 1.595532 2.945332
vt 1.595532 4.141490
vt 3.412810 4.174419
vt 1.562603 4.174419
vt 1.595532 4.141490
vt 2.945332 0.349786
vt 2.945332 0.302138
vt 4.141490 0.302138
vt 1.595532 0.349786
vt 1.595532 0.302138
vt 3.379882 0.302138
vt 3.412810 4.174419
vt 3.379882 4.141490
vt 3.379882 2.945332
vt 2.945332 0.349786
vt 4.141490 0.349786
vt 4.141490 0.302138
vt 3.412810 4.174419
vt 3.379882 4.141490
vt 1.595532 4.141490
vt 3.412810 4.174419
vt 3.412810 2.912403
vt 3.379882 2.945332
vt 1.562603 2.912403
vt 1.595532 2.945332
vt 3.379882 2.945332
vt 3.379882 0.349786
vt 3.379882 0.302138
vt 1.595532 0.302138
vt 1.562603 4.174419
vt 1.595532 4.141490
vt 1.595532 2.945332
vt 2.912403 0.302138
vt 2.912403 0.000000
vt 4.174419 0.000000
vt 3.412810 0.302138
vt 3.412810 0.000000
vt 1.562603 0.000000
vt 2.912403 0.302138
vt 4.174419 0.302138
vt 4.174419 0.000000
vt 1.562603 0.302138
vt 1.562603 0.000000
vt 3.412810 0.000000
vt 3.412810 2.912403
vt 3.379882 2.945332
vt 1.595532 2.945332
vt 8.421882 5.163651
vt 3.412810 4.174419
vt 3.412810 2.912403
vt 0.000000 0.000000
vt 8.421882 0.000000
vt 3.412810 2.912403
s 1
usemtl wood_planks_tiled
f 1/1/1 5/2/1 4/3/1
f 1/4/1 6/5/1 3/6/1
f 5/7/1 7/8/1 4/9/1
f 6/10/1 7/11/1 10/12/1
f 8/13/2 9/14/2 7/15/2
f 7/16/3 12/17/3 10/18/3
f 6/19/1 11/20/1 23/21/1
f 11/22/4 12/23/4 14/24/4
f 13/25/5 9/26/5 18/27/5
f 13/28/5 14/29/5 12/30/5
f 17/31/5 14/32/5 15/33/5
f 11/34/6 16/35/6 8/36/6
f 18/37/5 16/38/5 17/39/5
f 17/40/2 20/41/2 18/42/2
f 15/43/6 19/44/6 17/45/6
f 15/46/4 22/47/4 21/48/4
f 18/49/3 22/50/3 13/51/3
f 23/52/1 8/53/1 5/54/1
f 3/55/1 23/56/1 24/57/1
f 2/58/1 23/59/1 5/60/1
f 1/61/1 2/62/1 5/63/1
f 1/64/1 4/65/1 6/66/1
f 5/67/1 8/68/1 7/69/1
f 6/70/1 4/71/1 7/72/1
f 8/73/2 16/74/2 9/75/2
f 7/76/3 9/77/3 12/78/3
f 6/79/1 10/80/1 11/81/1
f 11/82/4 10/83/4 12/84/4
f 13/85/5 12/86/5 9/87/5
f 13/88/5 15/89/5 14/90/5
f 17/91/5 16/92/5 14/93/5
f 11/94/6 14/95/6 16/96/6
f 18/97/5 9/98/5 16/99/5
f 17/100/2 19/101/2 20/102/2
f 15/103/6 21/104/6 19/105/6
f 15/106/4 13/107/4 22/108/4
f 18/109/3 20/110/3 22/111/3
f 23/112/1 11/113/1 8/114/1
f 3/115/1 6/116/1 23/117/1
f 2/118/1 24/119/1 23/120/1
