# Blender 5.1.0
# www.blender.org
mtllib Frame.mtl
o polySurface146.151
v -20.725067 -12.258341 5.995452
v -20.725067 -12.819145 6.030741
v -0.832873 -12.258341 5.995450
v -20.725067 -12.258341 5.370648
v -20.725067 -12.819145 5.370648
v -0.832873 -12.258341 5.370646
v -0.832873 -12.819145 5.370646
v 0.094890 -12.258341 5.370646
v 0.094890 -12.819145 5.370646
v 0.094890 -12.258341 5.995450
v 13.733797 -12.258341 5.370646
v 13.733797 -12.819145 5.370646
v 13.733797 -12.258341 5.995449
v 14.837191 -12.258341 5.370646
v 14.837191 -12.819145 5.370646
v 14.837191 -12.258341 5.995449
v 18.284184 -12.258341 5.370645
v 18.284184 -12.819145 5.370645
v 18.284184 -12.258341 5.995449
v 18.284184 -12.819145 6.030738
v 14.837191 -12.819145 6.030739
v 14.837192 -6.984583 11.591480
v 14.837192 -6.324957 12.217142
v 14.837192 -6.711388 11.072612
v 14.837192 -6.080986 11.670557
v 13.733798 -6.711388 11.072612
v 14.837192 6.367935 11.067989
v 14.837192 5.683052 11.717607
v 14.837191 11.938051 5.907707
v 14.837192 6.670539 11.558960
v 13.733801 6.367935 11.067989
v 13.733798 5.683052 11.717607
v 13.733797 11.938051 5.907707
v 13.733801 6.670539 11.558960
v 13.733798 5.953909 12.238690
v 13.733797 12.498856 6.030739
v 0.094890 12.498856 6.030740
v 0.094890 11.938051 5.907706
v 0.094891 6.904809 11.336753
v 0.094891 6.175730 12.028293
v 0.094891 6.591827 10.855628
v 0.094891 5.895046 11.516532
v -0.832873 6.591827 10.855628
v 0.094891 -6.859685 10.877850
v 0.094891 -6.207954 11.496022
v 0.094891 -7.120137 11.408802
v -0.832873 -6.859685 10.877850
v -0.832873 -6.207954 11.496022
v -0.832873 -7.120137 11.408802
v -0.832873 -12.819145 6.030740
v -0.832873 -6.438196 12.055630
v -0.832873 -0.160145 18.037937
v -0.832873 -0.160145 17.259945
v -0.832873 6.175730 12.028293
v -0.832873 6.904809 11.336753
v -0.832873 5.895046 11.516532
v -0.832873 12.498856 6.030740
v -0.832873 11.938051 5.907706
v -20.725067 12.498856 6.030741
v -20.725067 12.498856 5.349383
v -20.725067 11.938051 5.907710
v -20.725067 11.938051 5.349383
v -0.832873 11.938051 5.349382
v -0.832873 12.498856 5.349382
v 0.094890 11.938051 5.349382
v 0.094890 12.498856 5.349382
v 13.733797 11.938051 5.349381
v 13.733797 12.498856 5.349381
v 14.837191 11.938051 5.349381
v 14.837191 12.498856 5.349381
v 18.284184 11.938051 5.349380
v 18.284184 12.498856 5.349380
v 18.284184 11.938051 5.907707
v 18.284184 12.498856 6.030738
v 14.837191 12.498856 6.030739
v 0.094891 -0.160145 17.259945
v 0.094891 -0.160145 18.037937
v 0.094891 -6.438196 12.055630
v 0.094890 -12.819145 6.030740
v 13.733797 -12.819145 6.030739
v 13.733798 -6.984583 11.591480
v 13.733798 -6.324957 12.217142
v 13.733798 -0.160145 18.037935
v 13.733798 -6.080986 11.670557
v 13.733798 -0.160145 17.259941
v 14.837192 -0.160145 17.259941
v 14.837192 -0.160145 18.037935
v 14.837192 5.953909 12.238690
vn -1.0000 -0.0000 -0.0000
vn -0.0000 0.0628 0.9980
vn -0.0000 1.0000 -0.0000
vn -0.0000 -0.0000 -1.0000
vn 1.0000 -0.0000 -0.0000
vn -0.0000 0.6752 -0.7377
vn -0.0000 -0.0004 -1.0000
vn -0.0000 -0.6796 -0.7336
vn -0.0000 -0.2143 0.9768
vn -0.0000 -0.6792 -0.7339
vn -0.0000 -0.0017 -1.0000
vn -0.0000 0.6708 -0.7417
vn -0.0000 -0.6882 -0.7255
vn -0.0000 -0.0017 1.0000
vn -0.0000 -1.0000 -0.0000
vn -0.0000 0.6899 -0.7239
vn -0.0000 0.6865 -0.7272
vn -0.0000 -0.0040 1.0000
vt 0.523950 0.452175
vt 0.514465 0.452175
vt 0.520015 0.447193
vt 0.974611 0.774338
vt 0.980953 0.549600
vt 0.980960 0.774337
vt 0.600820 0.633646
vt 0.603066 0.408809
vt 0.607877 0.633495
vt 0.537177 0.433194
vt 0.342782 0.546144
vt 0.533841 0.427807
vt 0.346118 0.551530
vt 0.333871 0.551663
vt 0.601044 0.644126
vt 0.608102 0.643975
vt 0.337207 0.557050
vt 0.202873 0.632800
vt 0.604343 0.798180
vt 0.611400 0.798029
vt 0.206209 0.638186
vt 0.192275 0.639364
vt 0.604610 0.810643
vt 0.611667 0.810492
vt 0.195611 0.644750
vt 0.159167 0.659870
vt 0.605444 0.849578
vt 0.612501 0.849426
vt 0.781551 0.439538
vt 0.781551 0.449023
vt 0.776570 0.445088
vt 0.467875 0.917595
vt 0.474217 0.878651
vt 0.474223 0.917594
vt 0.592273 0.471485
vt 0.529050 0.531067
vt 0.591874 0.465149
vt 0.528157 0.541275
vt 0.521982 0.538519
vt 0.696604 0.808673
vt 0.696337 0.796210
vt 0.534965 0.681921
vt 0.527626 0.674183
vt 0.962956 0.268923
vt 0.975422 0.416691
vt 0.962956 0.416691
vt 0.529418 0.685340
vt 0.521739 0.677243
vt 0.707451 0.450427
vt 0.793328 0.462247
vt 0.707545 0.462892
vt 0.593265 0.744851
vt 0.591875 0.751186
vt 0.287362 0.842046
vt 0.294170 0.701400
vt 0.294701 0.834308
vt 0.292909 0.845464
vt 0.300588 0.837368
vt 0.229062 0.904976
vt 0.230452 0.911312
vt 0.835478 0.801988
vt 0.829066 0.956081
vt 0.828991 0.801991
vt 0.846454 0.399433
vt 0.907790 0.456298
vt 0.906400 0.462634
vt 0.844423 0.388025
vt 0.838641 0.391196
vt 0.844655 0.251288
vt 0.851890 0.395897
vt 0.708703 0.616978
vt 0.791079 0.626840
vt 0.708782 0.627459
vt 0.712500 0.462855
vt 0.722982 0.614827
vt 0.712500 0.614827
vt 0.906799 0.182932
vt 0.845640 0.240983
vt 0.906400 0.176596
vt 0.690319 0.642214
vt 0.690095 0.631735
vt 0.838332 0.248687
vt 0.512546 0.674004
vt 0.451387 0.615954
vt 0.451785 0.609618
vt 0.506296 0.828919
vt 0.513531 0.684310
vt 0.513763 0.821047
vt 0.519853 0.681709
vt 0.578651 0.752637
vt 0.587440 0.752637
vt 0.519544 0.824218
vt 0.511731 0.832455
vt 0.776570 0.155677
vt 0.847255 0.092400
vt 0.784381 0.162667
vt 0.275658 0.694211
vt 0.286140 0.830949
vt 0.275658 0.830949
vt 0.450395 0.889320
vt 0.451785 0.895656
vt 0.969442 0.549600
vt 0.963030 0.774340
vt 0.962956 0.549602
vt 0.467869 0.375364
vt 0.474205 0.381672
vt 0.467869 0.383062
vt 0.704163 0.852238
vt 0.710471 0.852191
vt 0.253608 0.503375
vt 0.474455 0.461255
vt 0.254970 0.509563
vt 0.243372 0.505628
vt 0.244733 0.511816
vt 0.702395 0.617025
vt 0.702474 0.627506
vt 0.092884 0.538750
vt 0.094246 0.544938
vt 0.701237 0.462940
vt 0.080709 0.541430
vt 0.082071 0.547617
vt 0.701144 0.450474
vt 0.042676 0.549801
vt 0.044038 0.555988
vt 0.700851 0.411532
vt 0.310606 0.462024
vt 0.319546 0.462024
vt 0.314115 0.467479
vt 0.770746 0.666442
vt 0.783472 0.629070
vt 0.777146 0.667496
vt 0.839443 0.085411
vt 0.910194 0.022060
vt 0.779535 0.319615
vt 0.770746 0.319615
vt 0.636787 0.964043
vt 0.643129 0.809953
vt 0.643135 0.964043
vt 0.293276 0.691192
vt 0.230054 0.631610
vt 0.230452 0.625274
vt 0.300345 0.698644
vt 0.357317 0.768293
vt 0.366107 0.768293
vt 0.836380 0.112700
vt 0.906243 0.051571
vt 0.845774 0.120894
vt 0.975422 0.549600
vt 0.962956 0.549600
vt 0.776570 0.181268
vt 0.785964 0.189462
vt 0.465009 0.608168
vt 0.456220 0.608168
vt 0.518697 0.456890
vt 0.974605 0.549600
vt 0.596009 0.408960
vt 0.162504 0.665256
vt 0.786267 0.443770
vt 0.467869 0.878652
vt 0.534912 0.534153
vt 0.975422 0.268923
vt 0.793234 0.449782
vt 0.287414 0.694278
vt 0.835553 0.956077
vt 0.851639 0.243925
vt 0.791000 0.616359
vt 0.722982 0.462855
vt 0.506547 0.676947
vt 0.286140 0.694211
vt 0.969517 0.774338
vt 0.474205 0.375364
vt 0.473093 0.455067
vt 0.707159 0.411484
vt 0.315056 0.457554
vt 0.777071 0.628016
vt 0.902383 0.015071
vt 0.636781 0.809953
vt 0.896849 0.043376
vt 0.975422 0.416691
s 1
usemtl standardSurface2
f 1/1/1 5/2/1 2/3/1
f 3/4/2 2/5/2 50/6/2
f 6/7/3 1/8/3 3/9/3
f 4/10/4 7/11/4 5/12/4
f 6/13/4 9/14/4 7/11/4
f 8/15/3 3/9/3 10/16/3
f 8/17/4 12/18/4 9/14/4
f 11/19/3 10/16/3 13/20/3
f 11/21/4 15/22/4 12/18/4
f 14/23/3 13/20/3 16/24/3
f 14/25/4 18/26/4 15/22/4
f 17/27/3 16/24/3 19/28/3
f 18/29/5 19/30/5 20/31/5
f 19/32/2 21/33/2 20/34/2
f 16/35/5 22/36/5 21/37/5
f 22/36/5 25/38/5 23/39/5
f 24/40/6 13/20/6 26/41/6
f 25/38/5 27/42/5 28/43/5
f 24/44/7 31/45/7 27/46/7
f 28/43/5 30/47/5 88/48/5
f 29/49/8 31/50/8 33/51/8
f 30/47/5 29/52/5 75/53/5
f 31/54/1 84/55/1 32/56/1
f 34/57/1 32/56/1 35/58/1
f 33/59/1 34/57/1 36/60/1
f 38/61/9 36/62/9 37/63/9
f 39/64/5 38/65/5 37/66/5
f 42/67/5 39/64/5 40/68/5
f 45/69/5 41/70/5 42/67/5
f 38/71/10 43/72/10 58/73/10
f 44/74/11 43/75/11 41/76/11
f 10/77/5 46/78/5 79/79/5
f 44/80/12 3/9/12 47/81/12
f 46/78/5 45/69/5 78/82/5
f 49/83/1 3/84/1 50/85/1
f 43/86/1 48/87/1 56/88/1
f 48/87/1 49/83/1 51/89/1
f 53/90/1 51/89/1 52/91/1
f 54/92/1 53/90/1 52/91/1
f 55/93/1 56/88/1 54/92/1
f 42/94/13 53/95/13 56/96/13
f 48/97/14 42/98/14 56/99/14
f 58/100/1 55/93/1 57/101/1
f 61/102/9 57/103/9 59/104/9
f 60/105/1 61/106/1 59/107/1
f 62/108/15 58/73/15 61/109/15
f 63/110/4 60/111/4 64/112/4
f 65/113/4 64/112/4 66/114/4
f 65/115/15 58/73/15 63/116/15
f 67/117/4 66/114/4 68/118/4
f 67/119/15 38/71/15 65/115/15
f 69/120/4 68/118/4 70/121/4
f 69/122/15 33/51/15 67/119/15
f 71/123/4 70/121/4 72/124/4
f 71/125/15 29/49/15 69/122/15
f 73/126/5 72/127/5 74/128/5
f 29/129/9 74/130/9 75/131/9
f 76/132/16 48/133/16 53/95/16
f 78/82/5 76/134/5 77/135/5
f 76/134/5 40/68/5 77/135/5
f 13/136/2 79/137/2 80/138/2
f 81/139/1 13/140/1 80/141/1
f 84/55/1 81/139/1 82/142/1
f 85/143/1 82/142/1 83/144/1
f 86/145/17 84/146/17 85/147/17
f 84/46/18 28/148/18 32/149/18
f 35/58/1 85/143/1 83/144/1
f 28/150/13 85/147/13 32/151/13
f 23/39/5 86/152/5 87/153/5
f 86/152/5 88/48/5 87/153/5
f 1/1/1 4/154/1 5/2/1
f 3/4/2 1/155/2 2/5/2
f 6/7/3 4/156/3 1/8/3
f 4/10/4 6/13/4 7/11/4
f 6/13/4 8/17/4 9/14/4
f 8/15/3 6/7/3 3/9/3
f 8/17/4 11/21/4 12/18/4
f 11/19/3 8/15/3 10/16/3
f 11/21/4 14/25/4 15/22/4
f 14/23/3 11/19/3 13/20/3
f 14/25/4 17/157/4 18/26/4
f 17/27/3 14/23/3 16/24/3
f 18/29/5 17/158/5 19/30/5
f 19/32/2 16/159/2 21/33/2
f 16/35/5 24/160/5 22/36/5
f 22/36/5 24/160/5 25/38/5
f 24/40/6 16/24/6 13/20/6
f 25/38/5 24/160/5 27/42/5
f 24/44/7 26/161/7 31/45/7
f 28/43/5 27/42/5 30/47/5
f 29/49/8 27/162/8 31/50/8
f 30/47/5 27/42/5 29/52/5
f 31/54/1 26/163/1 84/55/1
f 34/57/1 31/54/1 32/56/1
f 33/59/1 31/54/1 34/57/1
f 38/61/9 33/164/9 36/62/9
f 39/64/5 41/70/5 38/65/5
f 42/67/5 41/70/5 39/64/5
f 45/69/5 44/165/5 41/70/5
f 38/71/10 41/166/10 43/72/10
f 44/74/11 47/167/11 43/75/11
f 10/77/5 44/165/5 46/78/5
f 44/80/12 10/16/12 3/9/12
f 46/78/5 44/165/5 45/69/5
f 49/83/1 47/168/1 3/84/1
f 43/86/1 47/168/1 48/87/1
f 48/87/1 47/168/1 49/83/1
f 53/90/1 48/87/1 51/89/1
f 54/92/1 56/88/1 53/90/1
f 55/93/1 43/86/1 56/88/1
f 42/94/13 76/132/13 53/95/13
f 48/97/14 45/169/14 42/98/14
f 58/100/1 43/86/1 55/93/1
f 61/102/9 58/170/9 57/103/9
f 60/105/1 62/171/1 61/106/1
f 62/108/15 63/116/15 58/73/15
f 63/110/4 62/172/4 60/111/4
f 65/113/4 63/110/4 64/112/4
f 65/115/15 38/71/15 58/73/15
f 67/117/4 65/113/4 66/114/4
f 67/119/15 33/51/15 38/71/15
f 69/120/4 67/117/4 68/118/4
f 69/122/15 29/49/15 33/51/15
f 71/123/4 69/120/4 70/121/4
f 71/125/15 73/173/15 29/49/15
f 73/126/5 71/174/5 72/127/5
f 29/129/9 73/175/9 74/130/9
f 76/132/16 45/176/16 48/133/16
f 78/82/5 45/69/5 76/134/5
f 76/134/5 42/67/5 40/68/5
f 13/136/2 10/177/2 79/137/2
f 81/139/1 26/163/1 13/140/1
f 84/55/1 26/163/1 81/139/1
f 85/143/1 84/55/1 82/142/1
f 86/145/17 25/178/17 84/146/17
f 84/46/18 25/179/18 28/148/18
f 35/58/1 32/56/1 85/143/1
f 28/150/13 86/145/13 85/147/13
f 23/39/5 25/38/5 86/152/5
f 86/152/5 28/43/5 88/48/5
