# Blender 5.1.0
# www.blender.org
mtllib HouseWall.mtl
o Plane.001
v -0.157115 12.406980 6.590161
v 13.922316 12.314448 6.500409
v -0.162315 5.825551 12.559590
v 13.917115 5.733020 12.469838
vn -0.0091 -0.6718 -0.7407
vt 1.000000 0.000000
vt 0.000000 1.000000
vt 0.000000 0.000000
vt 1.000000 1.000000
s 1
usemtl Material.004
f 2/1/1 3/2/1 1/3/1
f 2/1/1 4/4/1 3/2/1
o polySurface146.102
v -20.758633 12.213560 1.010237
v -0.866439 12.213560 1.010236
v -20.758633 12.213560 5.468534
v -0.866439 12.213560 5.468533
v 0.061325 12.213560 5.468533
v 13.700233 12.213560 5.468532
v 0.061324 12.213560 1.010236
v 13.700233 12.213560 1.010235
v 14.803625 12.213560 1.010235
v 18.250618 12.213560 1.010234
v 14.803625 12.213560 5.468532
v 18.250618 12.213560 5.468531
vn -0.0000 -1.0000 -0.0000
vt 0.910535 0.455795
vt 0.960904 0.231057
vt 0.960904 0.455795
vt 0.910535 0.220576
vt 0.910535 0.231057
vt 0.910535 0.066486
vt 0.960904 0.220576
vt 0.910535 0.054020
vt 0.960904 0.066486
vt 0.910535 0.015077
vt 0.960904 0.054020
vt 0.960904 0.015077
s 1
usemtl standardSurface2
f 5/5/2 8/6/2 7/7/2
f 11/8/2 8/6/2 6/9/2
f 12/10/2 9/11/2 11/8/2
f 13/12/2 10/13/2 12/10/2
f 14/14/2 15/15/2 13/12/2
f 5/5/2 6/9/2 8/6/2
f 11/8/2 9/11/2 8/6/2
f 12/10/2 10/13/2 9/11/2
f 13/12/2 15/15/2 10/13/2
f 14/14/2 16/16/2 15/15/2
o polySurface146.078
v -20.758633 12.213560 5.861788
v -20.758633 6.662270 11.070210
v -0.866439 12.213560 5.861787
v -0.866439 6.662270 11.070208
v -0.866438 -0.445442 17.738918
v -20.758631 -0.445442 17.738920
v -0.866439 -13.104441 5.861787
v -20.758633 -13.104441 5.861788
vn -0.0000 -0.6842 -0.7293
vn -0.0000 0.6842 -0.7293
vt 0.778260 0.020809
vt 0.551401 0.101048
vt 0.553595 0.015075
vt 0.776066 0.106782
vt 0.548591 0.211124
vt 0.773256 0.216858
vt 0.543588 0.407173
vt 0.768253 0.412907
s 1
usemtl standardSurface2
f 19/17/3 18/18/3 17/19/3
f 20/20/3 22/21/3 18/18/3
f 21/22/4 24/23/4 22/21/4
f 19/17/3 20/20/3 18/18/3
f 20/20/3 21/22/3 22/21/3
f 21/22/4 23/24/4 24/23/4
o polySurface146.105
v -12.590479 11.432161 6.434466
v -4.503599 11.432161 6.434466
v -12.590479 6.751397 10.903541
v -4.503599 6.751397 10.903540
vn -0.0000 -0.6906 -0.7233
vt 0.615416 0.409104
vt 0.680509 0.506347
vt 0.607658 0.500138
vt 0.688268 0.415313
s 1
usemtl standardSurface2
f 26/25/5 27/26/5 25/27/5
f 26/25/5 28/28/5 27/26/5
o polySurface146.044
v 13.700233 -13.104441 5.861786
v 13.700233 -0.445442 17.738916
v 6.571789 -13.104441 5.861786
v 0.061325 -13.104441 5.861787
v 6.571790 -0.445442 17.738918
v 0.061326 -0.445442 17.738918
v 6.571790 6.680446 11.053154
v 0.061325 6.680446 11.053155
v 13.700233 6.680446 11.053154
v 6.571789 12.213560 5.861786
v 6.193297 6.955056 10.795505
v 6.950282 6.955056 10.795504
v 6.950282 11.938949 6.119436
v 13.321740 6.955056 10.795504
v 6.950282 7.736470 11.610413
v 6.950282 12.720363 6.934344
v 13.321740 7.736470 11.610413
v 13.321740 12.720363 6.934343
v 13.321739 11.938949 6.119436
v 13.700233 12.213560 5.861786
v 0.439817 6.955056 10.795505
v 6.193297 11.938949 6.119436
v 6.193297 7.736470 11.610414
v 0.439817 7.736470 11.610414
v 6.193297 12.720363 6.934344
v 0.439817 12.720363 6.934344
v 0.439817 11.938949 6.119437
v 0.061325 12.213560 5.861787
vn -0.0000 0.6842 -0.7293
vn -0.0000 -0.6842 -0.7293
vn 1.0000 -0.0000 -0.0000
vn -0.0000 0.7218 -0.6921
vn -1.0000 -0.0000 -0.0000
vn -0.0000 -0.7218 0.6921
vt 0.354128 0.246461
vt 0.391989 0.031132
vt 0.434669 0.229156
vt 0.466470 0.015074
vt 0.508985 0.214450
vt 0.452219 0.342677
vt 0.531058 0.327352
vt 0.382835 0.354745
vt 0.527309 0.332801
vt 0.447933 0.347905
vt 0.462511 0.430267
vt 0.467363 0.434535
vt 0.471063 0.429646
vt 0.535729 0.407029
vt 0.473693 0.359550
vt 0.482900 0.350722
vt 0.416637 0.359214
vt 0.387996 0.358327
vt 0.506606 0.470104
vt 0.444571 0.517583
vt 0.497400 0.461276
vt 0.521392 0.561735
vt 0.510374 0.634005
vt 0.508641 0.562042
vt 0.390122 0.434713
vt 0.386016 0.439279
vt 0.520817 0.341516
vt 0.457516 0.346182
vt 0.891027 0.185761
vt 0.828991 0.233239
vt 0.881820 0.176932
vt 0.587186 0.647607
vt 0.572711 0.712248
vt 0.574435 0.647269
vt 0.832781 0.391741
vt 0.770746 0.344262
vt 0.779952 0.335433
vt 0.541324 0.422135
vt 0.546440 0.426330
vt 0.310606 0.049364
vt 0.526523 0.415857
vt 0.401262 0.364786
vt 0.453777 0.526411
vt 0.523126 0.633698
vt 0.467470 0.353463
vt 0.838198 0.242068
vt 0.585462 0.712586
vt 0.823575 0.400569
s 1
usemtl standardSurface2
f 30/29/6 31/30/6 33/31/6
f 33/31/6 32/32/6 34/33/6
f 35/34/7 34/33/7 36/35/7
f 37/36/7 33/31/7 35/34/7
f 49/37/7 35/34/7 36/35/7
f 40/38/7 37/36/7 35/34/7
f 41/39/7 35/34/7 38/40/7
f 35/34/7 50/41/7 38/40/7
f 41/42/8 43/43/8 40/44/8
f 43/45/9 42/46/9 40/38/9
f 45/47/10 47/48/10 42/49/10
f 46/50/11 41/51/11 47/52/11
f 47/53/7 38/40/7 48/54/7
f 37/36/7 47/53/7 48/54/7
f 52/55/9 39/56/9 49/37/9
f 51/57/10 50/58/10 39/59/10
f 53/60/11 55/61/11 50/62/11
f 55/63/8 52/64/8 49/65/8
f 38/40/7 55/66/7 56/67/7
f 55/66/7 36/35/7 56/67/7
f 30/29/6 29/68/6 31/30/6
f 33/31/6 31/30/6 32/32/6
f 35/34/7 33/31/7 34/33/7
f 37/36/7 30/29/7 33/31/7
f 49/37/7 39/56/7 35/34/7
f 40/38/7 42/46/7 37/36/7
f 41/39/7 40/38/7 35/34/7
f 35/34/7 39/56/7 50/41/7
f 41/42/8 44/69/8 43/43/8
f 43/45/9 45/70/9 42/46/9
f 45/47/10 46/71/10 47/48/10
f 46/50/11 44/72/11 41/51/11
f 47/53/7 41/39/7 38/40/7
f 37/36/7 42/46/7 47/53/7
f 52/55/9 51/73/9 39/56/9
f 51/57/10 53/74/10 50/58/10
f 53/60/11 54/75/11 55/61/11
f 55/63/8 54/76/8 52/64/8
f 38/40/7 50/41/7 55/66/7
f 55/66/7 49/37/7 36/35/7
o polySurface146.081
v -20.758633 -13.104441 1.010237
v -0.866439 -13.104441 1.010236
v -20.758633 -13.104441 5.419118
v -0.866439 -13.104441 5.419117
v 0.061325 -13.104441 5.419117
v 0.061324 -13.104441 1.010236
v 13.700233 -13.104441 5.419116
v 13.700233 -13.104441 1.010235
v 14.803625 -13.104441 5.419116
v 14.803625 -13.104441 1.010235
v 18.250618 -13.104441 5.419116
v 18.250618 -13.104441 1.010234
vn -0.0000 1.0000 -0.0000
vt 0.910535 0.680533
vt 0.960345 0.455795
vt 0.960346 0.680533
vt 0.910535 0.691015
vt 0.960346 0.691015
vt 0.910535 0.845105
vt 0.960346 0.845105
vt 0.910535 0.857571
vt 0.960346 0.857571
vt 0.910535 0.896514
vt 0.960346 0.896514
vt 0.910535 0.455795
s 1
usemtl standardSurface2
f 58/77/12 59/78/12 60/79/12
f 62/80/12 60/79/12 61/81/12
f 64/82/12 61/81/12 63/83/12
f 66/84/12 63/83/12 65/85/12
f 68/86/12 65/85/12 67/87/12
f 58/77/12 57/88/12 59/78/12
f 62/80/12 58/77/12 60/79/12
f 64/82/12 62/80/12 61/81/12
f 66/84/12 64/82/12 63/83/12
f 68/86/12 66/84/12 65/85/12
o polySurface146.125
v 18.250618 12.213560 5.861785
v 18.250620 -0.445442 17.738916
v 14.803625 12.213560 5.861786
v 14.803626 -0.445442 17.738916
v 14.803625 -13.104441 5.861786
v 18.250618 -13.104441 5.861785
vn -0.0000 -0.6842 -0.7293
vn -0.0000 0.6842 -0.7293
vt 0.316430 0.710909
vt 0.470967 0.584043
vt 0.346530 0.735620
vt 0.440867 0.559332
vt 0.595404 0.432466
vt 0.565304 0.407755
s 1
usemtl standardSurface2
f 69/89/13 72/90/13 71/91/13
f 70/92/14 73/93/14 72/90/14
f 69/89/13 70/92/13 72/90/13
f 70/92/14 74/94/14 73/93/14
