# Blender 5.1.0
# www.blender.org
mtllib HouseWall2.mtl
o polySurface146.029
v 19.086512 -13.259835 5.821303
v 19.086514 -0.446166 17.828501
v 19.086512 -13.259835 4.525906
v 17.893414 -13.259835 5.821303
v 17.893414 -13.259835 4.525907
v 17.893415 -0.446166 17.828501
v 17.893414 -4.831520 11.093372
v 17.893414 -11.048845 7.314594
v 17.893414 -6.119155 12.191644
v 17.893415 -0.446166 17.309839
v 17.893414 -6.123498 11.471849
v 17.893415 -5.117584 12.965553
v 17.893415 -4.586167 13.498546
v 17.893415 -0.444728 17.033703
v 17.893415 -4.615005 13.155464
v 18.637560 -4.586167 13.498546
v 18.637560 -0.444728 17.033703
v 18.637560 -4.615005 13.155464
v 18.637560 -0.442962 13.150529
v 17.893415 -0.442962 13.150529
v 18.637560 3.748786 13.140974
v 17.893415 3.748786 13.140974
v 18.637560 3.720631 13.471887
v 17.893415 3.720631 13.471887
v 17.893414 5.253620 12.161782
v 17.893414 12.367504 5.821303
v 17.893414 5.236444 11.472525
v 17.893415 4.251283 12.949325
v 17.893415 -0.444187 12.960027
v 17.893414 4.237134 11.992147
v 17.893415 4.087149 12.860915
v 17.893415 -0.443863 12.869641
v 17.893414 4.073496 12.080453
v 19.320004 4.087149 12.860914
v 19.320004 -0.443863 12.869640
v 19.320002 4.073496 12.080452
v 19.320002 -0.448028 12.071738
v 17.893414 -0.448028 12.071739
v 19.320002 -4.957028 12.066764
v 17.893414 -4.957028 12.066765
v 19.320004 -4.953576 12.874149
v 17.893415 -4.953576 12.874150
v 17.893414 -5.121161 11.975361
v 17.893414 -0.448502 11.981462
v 17.893414 -0.451404 11.472528
v 17.893414 -0.451381 11.094037
v 17.893414 3.944402 11.094033
v 21.938189 -0.451381 11.094036
v 21.938189 3.944402 11.094032
v 21.938189 -4.831520 11.093371
v 21.938189 -4.831520 8.753868
v 21.938189 -4.831520 5.271848
v 17.893414 -4.831520 8.753869
v 17.893414 -4.831520 5.271848
v 17.893414 -6.453043 6.159051
v 17.893414 -6.453042 7.461416
v 17.893414 -11.048845 6.028875
v 17.893414 -6.453043 4.220664
v 17.893414 -6.642259 6.340261
v 17.893414 -6.642259 5.961412
v 17.893414 -10.859628 5.847666
v 17.893414 -6.642259 4.402852
v 18.650398 -6.642259 5.961412
v 18.650398 -10.859628 5.847666
v 18.650398 -6.642259 4.402852
v 18.650398 -10.859628 4.311845
v 17.893414 -10.859628 4.311845
v 17.893414 -11.048845 4.115267
v 17.893414 -13.259835 2.597891
v 17.893414 -11.048845 2.446562
v 17.893414 -10.859628 3.933080
v 17.893414 -10.859628 2.642218
v 17.893414 -6.642259 4.024086
v 18.650398 -10.859628 3.933080
v 18.650398 -10.859628 2.642218
v 18.650398 -6.642259 4.024086
v 18.650398 -6.642259 2.713398
v 17.893414 -6.642259 2.713398
v 17.893414 -6.453042 2.530352
v 17.893414 -4.831520 2.235457
v 17.893414 -13.259835 0.916624
v 17.893414 -0.451381 2.229872
v 21.938189 -4.831520 2.235457
v 21.938189 -0.451381 2.229872
v 21.938189 3.944402 2.234880
v 17.893414 3.944402 2.234880
v 21.938189 3.944402 5.271696
v 21.938189 3.944402 8.754201
v 17.893414 3.944402 5.271696
v 17.893414 3.944402 8.754202
v 17.893414 5.796793 4.210075
v 17.893414 5.796793 5.772036
v 17.893414 5.796793 2.488880
v 17.893414 10.087348 4.121343
v 17.893414 5.986012 4.395448
v 17.893414 5.986012 4.016876
v 17.893414 9.898129 3.935969
v 17.893414 5.986012 2.676019
v 18.547474 5.986012 4.016876
v 18.547474 9.898129 3.935969
v 18.547474 5.986012 2.676019
v 18.547474 9.898129 2.632210
v 17.893414 9.898129 2.632210
v 17.893414 10.087348 2.440833
v 17.893414 12.367504 0.916623
v 19.086512 12.367504 0.916623
v 17.893414 -0.446166 0.908407
v 17.893414 12.367504 2.597891
v 17.893414 12.367504 4.525906
v 19.086512 12.367504 2.597891
v 19.086512 12.367504 4.525906
v 19.086512 12.367504 5.821303
v 17.893414 10.087348 5.636649
v 17.893414 10.087348 7.343303
v 17.893414 9.898129 5.831959
v 17.893414 9.898129 5.453279
v 17.893414 5.986012 5.576725
v 17.893414 9.898129 4.314543
v 18.547474 9.898129 5.453279
v 18.547474 5.986012 5.576725
v 18.547474 9.898129 4.314543
v 18.547474 5.986012 4.395448
v 17.893414 9.898129 7.161267
v 17.893414 5.986012 5.955405
v 18.547474 9.898129 5.831959
v 18.547474 9.898129 7.161267
v 18.547474 5.986012 5.955405
v 18.547474 5.986012 7.313297
v 17.893414 5.986012 7.313297
v 17.893414 5.796793 7.510038
v 19.086512 -0.446166 0.908407
v 19.086512 -13.259835 0.916623
v 19.086512 -13.259835 2.597891
v 17.893414 -6.642259 7.263060
v 17.893414 -10.859628 6.226515
v 18.650398 -6.642259 6.340261
v 18.650398 -6.642259 7.263060
v 18.650398 -10.859628 6.226515
v 18.650398 -10.859628 7.134039
v 17.893414 -10.859628 7.134039
vn -0.0000 -0.6838 0.7297
vn -0.0000 -1.0000 -0.0000
vn -1.0000 -0.0000 -0.0000
vn -0.9761 -0.2171 -0.0000
vn -0.0000 0.6492 -0.7606
vn -0.0000 0.9965 -0.0838
vn -0.0000 0.0012 1.0000
vn -0.0000 0.0017 1.0000
vn -0.0000 0.0023 1.0000
vn -0.0000 -0.9964 -0.0848
vn -0.0000 -0.6499 -0.7600
vn -0.0000 -0.0019 -1.0000
vn -0.0000 -0.0015 -1.0000
vn -0.0000 -0.9998 0.0175
vn -0.0000 -0.0015 1.0000
vn -0.0000 -0.0019 1.0000
vn -0.0000 -0.0011 1.0000
vn -0.0000 1.0000 -0.0043
vn -0.0000 -0.0010 -1.0000
vn -0.0000 -0.0000 -1.0000
vn -0.0000 0.0001 -1.0000
vn -0.0000 0.0002 -1.0000
vn -0.0000 1.0000 -0.0000
vn -0.0000 0.0270 -0.9996
vn -0.0000 -0.0216 0.9998
vn -0.0000 0.0216 -0.9998
vn -0.0000 -0.0169 0.9999
vn -0.0000 0.0013 1.0000
vn -0.0000 0.0001 1.0000
vn -0.0000 -0.0207 -0.9998
vn -0.0000 0.0112 0.9999
vn -0.0000 0.0006 -1.0000
vn -0.0000 0.6838 0.7297
vn -0.9999 -0.0161 -0.0000
vn -0.0000 -0.0315 -0.9995
vn -0.0000 0.0207 0.9998
vn -0.0000 0.0315 0.9995
vn -0.0000 -0.0388 -0.9992
vn -0.0000 -0.0006 -1.0000
vn -0.0000 -0.0270 0.9996
vn -0.0000 0.0306 -0.9995
vt 0.890056 0.873099
vt 0.875803 0.674761
vt 0.889283 0.674708
vt 0.875746 0.660125
vt 0.889226 0.660073
vt 0.849549 0.407649
vt 0.851894 0.432628
vt 0.834914 0.407649
vt 0.149209 0.669616
vt 0.085525 0.605524
vt 0.013554 0.524850
vt 0.077393 0.605475
vt 0.073117 0.620072
vt 0.811517 0.502835
vt 0.855791 0.568387
vt 0.818578 0.532140
vt 0.143349 0.669616
vt 0.100290 0.622844
vt 0.083081 0.616799
vt 0.094268 0.616840
vt 0.096414 0.622518
vt 0.383082 0.766823
vt 0.375757 0.705167
vt 0.384163 0.705315
vt 0.375826 0.701278
vt 0.384232 0.701426
vt 0.314646 0.215143
vt 0.310714 0.261952
vt 0.310770 0.214817
vt 0.298957 0.718859
vt 0.307364 0.765994
vt 0.298957 0.765994
vt 0.307364 0.813352
vt 0.298957 0.813352
vt 0.314344 0.308992
vt 0.354585 0.261932
vt 0.031027 0.699635
vt 0.039499 0.703240
vt 0.031093 0.703387
vt 0.040577 0.765149
vt 0.032171 0.765296
vt 0.094085 0.722687
vt 0.099989 0.716692
vt 0.085188 0.734012
vt 0.140229 0.669633
vt 0.013554 0.814383
vt 0.077401 0.733818
vt 0.083271 0.722528
vt 0.094206 0.669639
vt 0.096250 0.717010
vt 0.093086 0.720833
vt 0.093185 0.669643
vt 0.635424 0.745874
vt 0.619307 0.694684
vt 0.635424 0.694684
vt 0.770746 0.739225
vt 0.779565 0.723108
vt 0.779564 0.739225
vt 0.634203 0.861191
vt 0.625287 0.912227
vt 0.625188 0.861144
vt 0.258185 0.732426
vt 0.274302 0.783509
vt 0.258185 0.783509
vt 0.258185 0.681484
vt 0.274302 0.732426
vt 0.634253 0.810241
vt 0.625132 0.810202
vt 0.587657 0.712585
vt 0.578535 0.728702
vt 0.578535 0.712585
vt 0.619307 0.643734
vt 0.635424 0.643734
vt 0.084114 0.618654
vt 0.093236 0.618693
vt 0.083150 0.669590
vt 0.084170 0.669595
vt 0.077400 0.669557
vt 0.084269 0.720679
vt 0.073124 0.669558
vt 0.073124 0.719220
vt 0.251461 0.879747
vt 0.205764 0.830084
vt 0.251461 0.830084
vt 0.205764 0.780598
vt 0.251461 0.780598
vt 0.059251 0.699490
vt 0.013554 0.673059
vt 0.059251 0.673059
vt 0.013554 0.633720
vt 0.059251 0.633720
vt 0.882680 0.502870
vt 0.868078 0.484551
vt 0.909111 0.502870
vt 0.843341 0.502870
vt 0.853364 0.484551
vt 0.865837 0.482413
vt 0.851132 0.482413
vt 0.849846 0.434766
vt 0.854127 0.434766
vt 0.855412 0.482413
vt 0.831465 0.484551
vt 0.738527 0.755775
vt 0.729974 0.708111
vt 0.738526 0.708110
vt 0.194115 0.645649
vt 0.202667 0.663257
vt 0.194115 0.663257
vt 0.456097 0.623236
vt 0.439774 0.670883
vt 0.438746 0.623236
vt 0.741624 0.714211
vt 0.750175 0.761869
vt 0.741623 0.761869
vt 0.156071 0.688723
vt 0.147518 0.671372
vt 0.156071 0.671372
vt 0.832495 0.434766
vt 0.833523 0.482413
vt 0.830274 0.432628
vt 0.813131 0.407649
vt 0.811422 0.432628
vt 0.794137 0.407649
vt 0.829244 0.482413
vt 0.828216 0.434766
vt 0.813632 0.434766
vt 0.097825 0.914653
vt 0.089273 0.900069
vt 0.097825 0.900069
vt 0.115300 0.762541
vt 0.106746 0.714883
vt 0.115299 0.714882
vt 0.086383 0.490820
vt 0.072603 0.538467
vt 0.071799 0.490820
vt 0.852289 0.899120
vt 0.860841 0.913928
vt 0.852289 0.913928
vt 0.363027 0.715470
vt 0.371580 0.763123
vt 0.363027 0.763123
vt 0.812368 0.484551
vt 0.814436 0.482413
vt 0.809036 0.502870
vt 0.794044 0.552415
vt 0.808973 0.552356
vt 0.654254 0.642985
vt 0.699952 0.692471
vt 0.654254 0.692471
vt 0.013554 0.599415
vt 0.059251 0.599415
vt 0.699952 0.742134
vt 0.654254 0.742134
vt 0.537763 0.565298
vt 0.583460 0.530989
vt 0.583460 0.565298
vt 0.537763 0.604643
vt 0.583460 0.604643
vt 0.843339 0.602019
vt 0.848992 0.622947
vt 0.831345 0.622947
vt 0.809030 0.602019
vt 0.811900 0.622947
vt 0.846785 0.625085
vt 0.833440 0.625085
vt 0.829163 0.625085
vt 0.814014 0.625085
vt 0.830343 0.671421
vt 0.832526 0.669283
vt 0.550978 0.843029
vt 0.543588 0.798822
vt 0.550977 0.798822
vt 0.335469 0.918187
vt 0.328079 0.903038
vt 0.335469 0.903038
vt 0.272914 0.650164
vt 0.258680 0.605965
vt 0.273829 0.605965
vt 0.252360 0.811906
vt 0.259750 0.856107
vt 0.252360 0.856107
vt 0.794044 0.903471
vt 0.801433 0.918201
vt 0.794044 0.918201
vt 0.813519 0.669283
vt 0.811357 0.671421
vt 0.828249 0.669283
vt 0.813131 0.697181
vt 0.794137 0.697181
vt 0.963726 0.034071
vt 0.977268 0.015121
vt 0.977205 0.034115
vt 0.893061 0.755061
vt 0.906541 0.899827
vt 0.893061 0.899827
vt 0.834913 0.697181
vt 0.847462 0.671421
vt 0.963655 0.055853
vt 0.977134 0.055897
vt 0.977086 0.070532
vt 0.963607 0.070488
vt 0.976435 0.268924
vt 0.962956 0.268879
vt 0.849549 0.697181
vt 0.866744 0.671421
vt 0.849669 0.669283
vt 0.864687 0.669283
vt 0.845391 0.669283
vt 0.492734 0.832726
vt 0.485342 0.788506
vt 0.492732 0.788506
vt 0.479518 0.659991
vt 0.486907 0.672856
vt 0.479518 0.672856
vt 0.725365 0.740113
vt 0.713414 0.695914
vt 0.726760 0.695914
vt 0.572712 0.796977
vt 0.580100 0.841184
vt 0.572711 0.841184
vt 0.789784 0.916817
vt 0.782395 0.903471
vt 0.789784 0.903471
vt 0.718324 0.903314
vt 0.725714 0.918333
vt 0.718324 0.918333
vt 0.473693 0.788503
vt 0.481084 0.832723
vt 0.473695 0.832723
vt 0.908079 0.242271
vt 0.894456 0.198072
vt 0.909797 0.198072
vt 0.492732 0.917287
vt 0.485342 0.901946
vt 0.492732 0.901946
vt 0.469436 0.832731
vt 0.462044 0.788500
vt 0.469434 0.788499
vt 0.866405 0.625085
vt 0.868628 0.622947
vt 0.851064 0.625085
vt 0.823805 0.162311
vt 0.776570 0.238300
vt 0.788645 0.191316
vt 0.882684 0.602019
vt 0.893061 0.610295
vt 0.906541 0.755061
vt 0.889141 0.638291
vt 0.875587 0.619349
vt 0.889067 0.619296
vt 0.875662 0.638343
vt 0.583460 0.631078
vt 0.537763 0.631078
vt 0.287308 0.560280
vt 0.295860 0.570705
vt 0.287308 0.570705
vt 0.590184 0.683105
vt 0.598738 0.730769
vt 0.590186 0.730770
vt 0.128649 0.702451
vt 0.119681 0.750098
vt 0.118396 0.702451
vt 0.237614 0.608216
vt 0.229062 0.597963
vt 0.237614 0.597963
vt 0.313335 0.646014
vt 0.304781 0.598345
vt 0.313333 0.598345
vt 0.866420 0.432628
vt 0.864380 0.434766
vt 0.096358 0.669653
vt 0.876577 0.873151
vt 0.900641 0.571187
vt 0.374676 0.766675
vt 0.307364 0.718859
vt 0.310606 0.309310
vt 0.039433 0.699489
vt 0.619307 0.745874
vt 0.770746 0.723107
vt 0.634104 0.912382
vt 0.274302 0.681484
vt 0.587657 0.728702
vt 0.205764 0.879747
vt 0.013554 0.699490
vt 0.729975 0.755775
vt 0.202667 0.645649
vt 0.457382 0.670883
vt 0.750176 0.714211
vt 0.147518 0.688723
vt 0.089273 0.914653
vt 0.106747 0.762541
vt 0.087411 0.538467
vt 0.860842 0.899120
vt 0.371579 0.715469
vt 0.699951 0.642985
vt 0.537763 0.530989
vt 0.543589 0.843029
vt 0.328079 0.918187
vt 0.258185 0.650164
vt 0.259750 0.811906
vt 0.801433 0.903471
vt 0.963789 0.015077
vt 0.485344 0.832726
vt 0.486907 0.659991
vt 0.712500 0.740113
vt 0.580101 0.796977
vt 0.782395 0.916817
vt 0.725714 0.903314
vt 0.481083 0.788503
vt 0.893061 0.242271
vt 0.485342 0.917287
vt 0.462047 0.832731
vt 0.785669 0.267905
vt 0.909119 0.602019
vt 0.906541 0.610295
vt 0.295860 0.560279
vt 0.598737 0.683105
vt 0.130106 0.750098
vt 0.229062 0.608216
vt 0.304783 0.646015
s 1
usemtl standardSurface2
f 2/1/1 4/2/1 1/3/1
f 1/3/2 5/4/2 3/5/2
f 4/6/3 57/7/3 5/8/3
f 6/9/3 9/10/3 4/11/3
f 4/11/3 11/12/3 7/13/3
f 4/14/3 56/15/3 8/16/4
f 10/17/3 13/18/3 9/10/3
f 9/10/3 43/19/3 11/12/3
f 12/20/3 13/18/3 15/21/3
f 14/22/5 16/23/5 13/24/5
f 13/24/6 18/25/6 15/26/6
f 16/27/3 19/28/3 18/29/3
f 15/30/7 19/31/8 20/32/8
f 20/32/8 21/33/9 22/34/9
f 23/35/3 19/28/3 17/36/3
f 22/37/10 23/38/10 24/39/10
f 24/39/11 17/40/11 14/41/11
f 28/42/3 24/43/3 25/44/3
f 10/17/3 24/43/3 14/45/3
f 26/46/3 27/47/3 25/44/3
f 6/9/3 25/44/3 10/17/3
f 25/44/3 30/48/3 28/42/3
f 29/49/3 22/50/3 28/42/3
f 29/49/3 31/51/3 32/52/3
f 30/48/3 31/51/3 28/42/3
f 31/53/12 35/54/13 32/55/13
f 33/56/14 34/57/14 31/58/14
f 35/59/3 36/60/3 37/61/3
f 38/62/15 36/63/16 33/64/16
f 40/65/17 37/66/15 38/62/15
f 41/67/3 37/61/3 39/68/3
f 42/69/18 39/70/18 40/71/18
f 32/55/13 41/72/19 42/73/19
f 12/20/3 40/74/3 43/19/3
f 29/49/3 42/75/3 12/20/3
f 44/76/3 40/74/3 38/77/3
f 45/78/3 43/19/3 44/76/3
f 45/78/3 30/48/3 27/47/3
f 44/76/3 33/79/3 30/48/3
f 7/13/3 45/78/3 46/80/3
f 47/81/3 45/78/3 27/47/3
f 47/82/20 48/83/21 46/84/21
f 46/84/21 50/85/22 7/86/22
f 7/87/23 51/88/23 53/89/23
f 53/89/23 52/90/23 54/91/23
f 53/92/3 56/93/3 7/94/3
f 54/95/3 55/96/3 53/92/3
f 55/96/3 134/97/3 56/93/3
f 57/7/3 60/98/3 61/99/3
f 55/96/3 135/100/3 59/101/3
f 58/102/3 60/98/3 55/96/3
f 60/103/24 64/104/24 61/105/24
f 62/106/2 63/107/2 60/108/2
f 64/109/3 65/110/3 66/111/3
f 67/112/25 65/113/25 62/114/25
f 61/115/23 66/116/23 67/117/23
f 58/102/3 67/118/3 62/119/3
f 57/7/3 67/118/3 68/120/3
f 69/121/3 70/122/3 81/123/3
f 5/8/3 68/120/3 69/121/3
f 68/120/3 73/124/3 71/125/3
f 68/120/3 72/126/3 70/122/3
f 71/127/23 75/128/23 72/129/23
f 73/130/26 74/131/26 71/132/26
f 74/133/3 77/134/3 75/135/3
f 78/136/2 76/137/2 73/138/2
f 72/139/27 77/140/27 78/141/27
f 79/142/3 72/126/3 78/143/3
f 79/142/3 73/124/3 58/102/3
f 81/123/3 79/142/3 80/144/3
f 80/144/3 58/102/3 54/95/3
f 107/145/3 80/144/3 82/146/3
f 80/147/28 84/148/29 82/149/29
f 54/91/23 83/150/23 80/151/23
f 82/149/29 85/152/17 86/153/17
f 89/154/2 85/155/2 87/156/2
f 90/157/2 87/156/2 88/158/2
f 89/159/3 92/160/3 91/161/3
f 86/162/3 91/161/3 93/163/3
f 91/161/3 117/164/3 95/165/3
f 93/163/3 96/166/3 98/167/3
f 94/168/3 96/166/3 91/161/3
f 91/161/3 118/169/3 94/168/3
f 97/170/30 99/171/30 96/172/30
f 96/173/23 101/174/23 98/175/23
f 100/176/3 101/177/3 99/178/3
f 98/179/31 102/180/31 103/181/31
f 103/182/2 100/183/2 97/184/2
f 93/163/3 103/185/3 104/186/3
f 94/168/3 103/185/3 97/187/3
f 108/188/3 104/186/3 94/168/3
f 105/189/3 93/163/3 104/186/3
f 110/190/23 105/191/23 108/192/23
f 131/193/20 105/194/32 106/195/32
f 107/145/3 86/162/3 105/189/3
f 109/196/3 94/168/3 113/197/3
f 111/198/23 108/192/23 109/199/23
f 111/198/23 26/200/23 112/201/23
f 112/201/33 6/202/33 2/203/33
f 26/204/3 113/197/3 114/205/34
f 114/205/34 115/206/3 123/207/3
f 113/197/3 118/169/3 116/208/3
f 113/197/3 117/164/3 92/160/3
f 92/160/3 115/206/3 113/197/3
f 116/209/35 120/210/35 117/211/35
f 118/212/2 119/213/2 116/214/2
f 119/215/3 122/216/3 120/217/3
f 95/218/36 121/219/36 118/220/36
f 117/221/23 122/222/23 95/223/23
f 115/224/2 126/225/2 123/226/2
f 124/227/37 125/228/37 115/229/37
f 126/230/3 127/231/3 128/232/3
f 129/233/23 127/234/23 124/235/23
f 123/236/38 128/237/38 129/238/38
f 114/205/34 129/239/3 130/240/3
f 92/160/3 129/239/3 124/241/3
f 47/242/3 114/243/34 130/244/3
f 90/245/3 130/240/3 92/160/3
f 132/246/39 107/247/20 131/193/20
f 133/248/2 81/249/2 132/250/2
f 3/5/2 69/251/2 133/248/2
f 90/157/2 49/252/2 47/253/2
f 59/254/2 137/255/2 134/256/2
f 135/257/40 136/258/40 59/259/40
f 139/260/3 136/261/3 138/262/3
f 140/263/23 138/264/23 135/265/23
f 134/266/41 139/267/41 140/268/41
f 8/269/4 134/97/3 140/270/3
f 8/269/4 135/100/3 57/7/3
f 29/49/3 15/21/3 20/271/3
f 2/1/1 6/272/1 4/2/1
f 1/3/2 4/2/2 5/4/2
f 4/6/3 8/269/4 57/7/3
f 6/9/3 10/17/3 9/10/3
f 4/11/3 9/10/3 11/12/3
f 4/14/3 7/273/3 56/15/3
f 10/17/3 14/45/3 13/18/3
f 9/10/3 12/20/3 43/19/3
f 12/20/3 9/10/3 13/18/3
f 14/22/5 17/274/5 16/23/5
f 13/24/6 16/23/6 18/25/6
f 16/27/3 17/36/3 19/28/3
f 15/30/7 18/275/7 19/31/8
f 20/32/8 19/31/8 21/33/9
f 23/35/3 21/276/3 19/28/3
f 22/37/10 21/277/10 23/38/10
f 24/39/11 23/38/11 17/40/11
f 28/42/3 22/50/3 24/43/3
f 10/17/3 25/44/3 24/43/3
f 26/46/3 47/81/3 27/47/3
f 6/9/3 26/46/3 25/44/3
f 25/44/3 27/47/3 30/48/3
f 29/49/3 20/271/3 22/50/3
f 29/49/3 28/42/3 31/51/3
f 30/48/3 33/79/3 31/51/3
f 31/53/12 34/278/12 35/54/13
f 33/56/14 36/279/14 34/57/14
f 35/59/3 34/280/3 36/60/3
f 38/62/15 37/66/15 36/63/16
f 40/65/17 39/281/17 37/66/15
f 41/67/3 35/59/3 37/61/3
f 42/69/18 41/282/18 39/70/18
f 32/55/13 35/54/13 41/72/19
f 12/20/3 42/75/3 40/74/3
f 29/49/3 32/52/3 42/75/3
f 44/76/3 43/19/3 40/74/3
f 45/78/3 11/12/3 43/19/3
f 45/78/3 44/76/3 30/48/3
f 44/76/3 38/77/3 33/79/3
f 7/13/3 11/12/3 45/78/3
f 47/81/3 46/80/3 45/78/3
f 47/82/20 49/283/20 48/83/21
f 46/84/21 48/83/21 50/85/22
f 7/87/23 50/284/23 51/88/23
f 53/89/23 51/88/23 52/90/23
f 53/92/3 55/96/3 56/93/3
f 54/95/3 58/102/3 55/96/3
f 55/96/3 59/101/3 134/97/3
f 57/7/3 55/96/3 60/98/3
f 55/96/3 57/7/3 135/100/3
f 58/102/3 62/119/3 60/98/3
f 60/103/24 63/285/24 64/104/24
f 62/106/2 65/286/2 63/107/2
f 64/109/3 63/287/3 65/110/3
f 67/112/25 66/288/25 65/113/25
f 61/115/23 64/289/23 66/116/23
f 58/102/3 68/120/3 67/118/3
f 57/7/3 61/99/3 67/118/3
f 69/121/3 68/120/3 70/122/3
f 5/8/3 57/7/3 68/120/3
f 68/120/3 58/102/3 73/124/3
f 68/120/3 71/125/3 72/126/3
f 71/127/23 74/290/23 75/128/23
f 73/130/26 76/291/26 74/131/26
f 74/133/3 76/292/3 77/134/3
f 78/136/2 77/293/2 76/137/2
f 72/139/27 75/294/27 77/140/27
f 79/142/3 70/122/3 72/126/3
f 79/142/3 78/143/3 73/124/3
f 81/123/3 70/122/3 79/142/3
f 80/144/3 79/142/3 58/102/3
f 107/145/3 81/123/3 80/144/3
f 80/147/28 83/295/28 84/148/29
f 54/91/23 52/90/23 83/150/23
f 82/149/29 84/148/29 85/152/17
f 89/154/2 86/296/2 85/155/2
f 90/157/2 89/154/2 87/156/2
f 89/159/3 90/245/3 92/160/3
f 86/162/3 89/159/3 91/161/3
f 91/161/3 92/160/3 117/164/3
f 93/163/3 91/161/3 96/166/3
f 94/168/3 97/187/3 96/166/3
f 91/161/3 95/165/3 118/169/3
f 97/170/30 100/297/30 99/171/30
f 96/173/23 99/298/23 101/174/23
f 100/176/3 102/299/3 101/177/3
f 98/179/31 101/300/31 102/180/31
f 103/182/2 102/301/2 100/183/2
f 93/163/3 98/167/3 103/185/3
f 94/168/3 104/186/3 103/185/3
f 108/188/3 105/189/3 104/186/3
f 105/189/3 86/162/3 93/163/3
f 110/190/23 106/302/23 105/191/23
f 131/193/20 107/247/20 105/194/32
f 107/145/3 82/146/3 86/162/3
f 109/196/3 108/188/3 94/168/3
f 111/198/23 110/190/23 108/192/23
f 111/198/23 109/199/23 26/200/23
f 112/201/33 26/200/33 6/202/33
f 26/204/3 109/196/3 113/197/3
f 114/205/34 113/197/3 115/206/3
f 113/197/3 94/168/3 118/169/3
f 113/197/3 116/208/3 117/164/3
f 92/160/3 124/241/3 115/206/3
f 116/209/35 119/303/35 120/210/35
f 118/212/2 121/304/2 119/213/2
f 119/215/3 121/305/3 122/216/3
f 95/218/36 122/306/36 121/219/36
f 117/221/23 120/307/23 122/222/23
f 115/224/2 125/308/2 126/225/2
f 124/227/37 127/309/37 125/228/37
f 126/230/3 125/310/3 127/231/3
f 129/233/23 128/311/23 127/234/23
f 123/236/38 126/312/38 128/237/38
f 114/205/34 123/207/3 129/239/3
f 92/160/3 130/240/3 129/239/3
f 47/242/3 26/313/3 114/243/34
f 90/245/3 47/314/3 130/240/3
f 132/246/39 81/315/39 107/247/20
f 133/248/2 69/251/2 81/249/2
f 3/5/2 5/4/2 69/251/2
f 90/157/2 88/158/2 49/252/2
f 59/254/2 136/316/2 137/255/2
f 135/257/40 138/317/40 136/258/40
f 139/260/3 137/318/3 136/261/3
f 140/263/23 139/319/23 138/264/23
f 134/266/41 137/320/41 139/267/41
f 8/269/4 56/93/3 134/97/3
f 8/269/4 140/270/3 135/100/3
f 29/49/3 12/20/3 15/21/3
