# Blender 5.1.0
# www.blender.org
mtllib RolledUpPapers.mtl
o polySurface146.070
v -0.613690 0.224210 0.600189
v -0.604597 0.231627 0.585987
v -0.631225 0.241058 0.597734
v -0.593704 0.201855 0.604263
v -0.585542 0.175633 0.600018
v -0.582929 0.208809 0.591038
v -0.574042 0.181146 0.586724
v -0.569413 0.218016 0.558151
v -0.591079 0.240833 0.553100
v -0.560525 0.190353 0.553837
v 0.202027 0.743428 -1.318728
v 0.180359 0.766245 -1.323778
v 0.210913 0.715766 -1.323041
v 0.209689 0.687136 -1.331812
v -0.561749 0.161723 0.545066
v 0.198174 0.661064 -1.344106
v -0.573265 0.135652 0.532773
v 0.177343 0.641014 -1.358557
v -0.594095 0.115600 0.518322
v 0.149309 0.629847 -1.373498
v -0.622130 0.104434 0.503380
v 0.117538 0.629958 -1.386832
v -0.653900 0.104545 0.490046
v 0.086446 0.642058 -1.396543
v -0.684992 0.116646 0.480336
v 0.060801 0.664961 -1.400995
v -0.710638 0.139549 0.475884
v 0.044757 0.695484 -1.399365
v -0.726681 0.170072 0.477513
v 0.041042 0.728953 -1.391837
v -0.730397 0.203541 0.485042
v 0.050462 0.760072 -1.379553
v -0.720977 0.234659 0.497326
v 0.071093 0.783988 -1.364665
v -0.700346 0.258576 0.512214
v 0.099621 0.797318 -1.349486
v -0.671817 0.271906 0.527392
v 0.131634 0.798498 -1.336283
v -0.639806 0.273086 0.540595
v 0.162883 0.787423 -1.326830
v -0.608557 0.262011 0.550049
v 0.189059 0.765732 -1.322456
v -0.582379 0.240319 0.554422
v 0.206757 0.736065 -1.323840
v -0.564681 0.210652 0.553039
v 0.213488 0.701807 -1.331062
v -0.557950 0.176394 0.545816
v 0.207789 0.666990 -1.343602
v -0.563650 0.141577 0.533277
v 0.189476 0.636084 -1.360279
v -0.581963 0.110672 0.516599
v 0.159944 0.613611 -1.379248
v -0.611494 0.088198 0.497631
v 0.122355 0.603472 -1.398103
v -0.649083 0.078059 0.478776
v 0.081518 0.608140 -1.414158
v -0.689920 0.082727 0.462721
v 0.043276 0.627888 -1.424921
v -0.728163 0.102475 0.451957
v 0.013357 0.660335 -1.428699
v -0.758082 0.134923 0.448179
v -0.003422 0.700982 -1.424760
v -0.774860 0.175569 0.452118
v -0.004269 0.743709 -1.413666
v -0.775708 0.218297 0.463212
v 0.010879 0.781975 -1.397231
v -0.760559 0.256563 0.479647
v 0.040048 0.809885 -1.377908
v -0.731390 0.284472 0.498970
v 0.078582 0.823266 -1.358805
v -0.692857 0.297854 0.518074
v 0.120927 0.820072 -1.342787
v -0.650512 0.294660 0.534091
v 0.161037 0.800546 -1.332290
v -0.610401 0.275133 0.544588
v 0.193225 0.767033 -1.329008
v -0.578214 0.241621 0.547870
v 0.212764 0.723663 -1.333737
v -0.558675 0.198251 0.543142
v 0.216402 0.675928 -1.346278
v -0.555037 0.150516 0.530601
v 0.202791 0.630168 -1.365404
v -0.568648 0.104756 0.511474
v 0.172844 0.592863 -1.388914
v -0.598595 0.067450 0.487964
v 0.129857 0.569749 -1.413832
v -0.641582 0.044337 0.463046
v 0.079284 0.564855 -1.436769
v -0.692155 0.039442 0.440109
v 0.028074 0.579649 -1.454445
v -0.743365 0.054238 0.422433
v -0.016380 0.612603 -1.464237
v -0.787817 0.087190 0.412641
v -0.047445 0.659291 -1.464651
v -0.818884 0.133878 0.412227
v -0.060490 0.713015 -1.455664
v -0.831929 0.187602 0.421215
v -0.053283 0.765947 -1.438537
v -0.824721 0.240534 0.438342
v -0.026954 0.810250 -1.415948
v -0.798393 0.284838 0.460930
v 0.014755 0.839405 -1.391266
v -0.756683 0.313993 0.485612
v 0.065861 0.849079 -1.368173
v -0.705578 0.323666 0.508706
v 0.119078 0.837734 -1.350102
v -0.652361 0.312321 0.526777
v 0.166743 0.806660 -1.339848
v -0.604695 0.281247 0.537031
v -0.618213 0.272041 0.569918
v -0.665878 0.303114 0.559663
v -0.626039 0.265525 0.585270
v -0.672887 0.296169 0.575222
v -0.725198 0.307416 0.557484
v -0.775432 0.298014 0.534814
v -0.719095 0.314460 0.541593
v -0.770201 0.304787 0.518499
v -0.811910 0.275631 0.493817
v -0.838238 0.231328 0.471229
v -0.816443 0.269486 0.510583
v -0.842366 0.226088 0.488402
v -0.849549 0.174237 0.471574
v -0.836882 0.121570 0.462713
v -0.845446 0.178396 0.454102
v -0.832401 0.124672 0.445114
v -0.801335 0.077984 0.445528
v -0.756882 0.045031 0.455320
v -0.806549 0.075769 0.463059
v -0.763067 0.043388 0.472597
v -0.712930 0.028778 0.489867
v -0.663389 0.033448 0.512301
v -0.705673 0.030236 0.472996
v -0.655099 0.035130 0.495934
v -0.612111 0.058243 0.520851
v -0.582165 0.095549 0.544361
v -0.621265 0.055947 0.536675
v -0.591902 0.092309 0.559663
v -0.578493 0.136885 0.578357
v -0.581882 0.183341 0.590625
v -0.568555 0.141310 0.563488
v -0.572191 0.189044 0.576028
v -0.591731 0.232415 0.580757
v -0.623919 0.265927 0.577475
v -0.600716 0.225530 0.595295
v -0.631821 0.258152 0.592191
v -0.670617 0.277233 0.582093
v -0.711596 0.280510 0.566644
v -0.664028 0.285453 0.566978
v -0.706375 0.288648 0.550961
v -0.744908 0.275266 0.531857
v -0.774077 0.247357 0.512534
v -0.748919 0.267765 0.548199
v -0.777202 0.241014 0.529547
v -0.792000 0.204232 0.513654
v -0.791406 0.163122 0.502887
v -0.789225 0.209090 0.496100
v -0.788378 0.166363 0.485005
v -0.771599 0.125716 0.481066
v -0.741680 0.093269 0.484844
v -0.775454 0.123925 0.498993
v -0.746769 0.092526 0.502536
v -0.709981 0.073314 0.512830
v -0.670591 0.068618 0.528262
v -0.703437 0.073521 0.495608
v -0.662602 0.068853 0.511663
v -0.625012 0.078992 0.530517
v -0.595480 0.101466 0.549486
v -0.634295 0.078214 0.546413
v -0.605768 0.099678 0.564664
v -0.588046 0.129181 0.580685
v -0.582397 0.162338 0.592719
v -0.577166 0.132370 0.566164
v -0.571467 0.167188 0.578703
v -0.578198 0.201445 0.585926
v -0.595896 0.231113 0.587309
v -0.588564 0.194905 0.599681
v -0.605137 0.223129 0.601104
v -0.629790 0.243854 0.597070
v -0.659316 0.254571 0.588209
v -0.622074 0.252804 0.582935
v -0.653322 0.263879 0.573482
v -0.685334 0.262699 0.560279
v -0.713863 0.249369 0.545101
v -0.689666 0.253699 0.575759
v -0.716761 0.241344 0.561428
v -0.736431 0.218993 0.547356
v -0.745575 0.189887 0.535729
v -0.734494 0.225453 0.530213
v -0.743915 0.194335 0.517928
v -0.740198 0.160865 0.510400
v -0.724156 0.130343 0.508771
v -0.742397 0.158463 0.528532
v -0.727578 0.129654 0.526859
v -0.703592 0.107875 0.530925
v -0.674312 0.096213 0.539995
v -0.698509 0.107439 0.513223
v -0.667417 0.095339 0.522933
v -0.635647 0.095228 0.536267
v -0.607613 0.106394 0.551209
v -0.644274 0.095861 0.552532
v -0.617710 0.106181 0.566616
v -0.597964 0.124823 0.580209
v -0.586961 0.149052 0.591759
v -0.586781 0.126445 0.565659
v -0.575266 0.152517 0.577953
v 0.163408 0.782027 -1.326364
v -0.608031 0.256615 0.550514
v -0.621549 0.247409 0.583401
vn 0.4871 0.5984 0.6361
vn 0.7257 0.4395 0.5293
vn 0.5602 0.6618 0.4982
vn 0.5519 0.6684 0.4986
vn 0.5026 0.6121 0.6105
vn 0.6221 0.3560 0.6973
vn 0.8810 0.0116 0.4730
vn 0.7662 0.4638 0.4448
vn 0.5929 0.6786 0.4336
vn 0.7606 0.4728 0.4450
vn 0.5924 0.6790 0.4336
vn 0.9203 0.0368 0.3894
vn 0.9048 -0.3186 0.2827
vn 0.9210 0.0344 0.3882
vn 0.7702 -0.6216 0.1425
vn 0.9044 -0.3201 0.2821
vn 0.5440 -0.8390 -0.0113
vn 0.7693 -0.6229 0.1418
vn 0.2541 -0.9534 -0.1625
vn 0.5427 -0.8398 -0.0120
vn -0.0747 -0.9519 -0.2972
vn 0.2525 -0.9537 -0.1632
vn -0.4071 -0.8223 -0.3975
vn -0.0759 -0.9517 -0.2976
vn -0.6942 -0.5665 -0.4439
vn -0.4088 -0.8213 -0.3979
vn -0.8814 -0.2127 -0.4218
vn -0.6958 -0.5645 -0.4440
vn -0.9263 0.1822 -0.3298
vn -0.8820 -0.2108 -0.4215
vn -0.8210 0.5397 -0.1863
vn -0.9262 0.1832 -0.3294
vn -0.5962 0.8026 -0.0204
vn -0.8206 0.5405 -0.1860
vn -0.2946 0.9448 0.1435
vn -0.5953 0.8032 -0.0198
vn 0.0461 0.9569 0.2868
vn -0.2930 0.9452 0.1442
vn 0.3823 0.8370 0.3915
vn 0.0477 0.9566 0.2874
vn 0.6685 0.5979 0.4422
vn 0.3843 0.8359 0.3920
vn 0.8608 0.2723 0.4300
vn 0.6695 0.5968 0.4423
vn 0.9298 -0.0872 0.3577
vn 0.8616 0.2702 0.4298
vn 0.8731 -0.4243 0.2400
vn 0.9298 -0.0895 0.3571
vn 0.7095 -0.6981 0.0961
vn 0.8723 -0.4264 0.2392
vn 0.4634 -0.8843 -0.0571
vn 0.7079 -0.6998 0.0951
vn 0.1600 -0.9657 -0.2046
vn 0.4614 -0.8853 -0.0582
vn -0.1731 -0.9277 -0.3308
vn 0.1575 -0.9659 -0.2056
vn -0.4940 -0.7632 -0.4166
vn -0.1754 -0.9270 -0.3316
vn -0.7544 -0.4825 -0.4451
vn -0.4961 -0.7615 -0.4171
vn -0.9061 -0.1196 -0.4059
vn -0.7560 -0.4799 -0.4451
vn -0.9160 0.2633 -0.3027
vn -0.9066 -0.1171 -0.4054
vn -0.7819 0.6045 -0.1522
vn -0.9156 0.2654 -0.3021
vn -0.5298 0.8479 0.0196
vn -0.7810 0.6059 -0.1514
vn -0.2026 0.9615 0.1859
vn -0.5281 0.8489 0.0206
vn 0.1521 0.9338 0.3239
vn -0.2011 0.9616 0.1865
vn 0.4842 0.7704 0.4147
vn 0.1541 0.9332 0.3246
vn 0.7461 0.4951 0.4452
vn 0.4865 0.7688 0.4152
vn 0.8985 0.1520 0.4118
vn 0.7475 0.4929 0.4452
vn 0.9240 -0.2061 0.3220
vn 0.8991 0.1493 0.4114
vn 0.8263 -0.5297 0.1913
vn 0.9237 -0.2088 0.3212
vn 0.6237 -0.7807 0.0378
vn 0.8251 -0.5320 0.1902
vn 0.3423 -0.9319 -0.1202
vn 0.6217 -0.7824 0.0365
vn 0.0133 -0.9643 -0.2645
vn 0.3396 -0.9327 -0.1215
vn -0.3239 -0.8681 -0.3761
vn 0.0109 -0.9641 -0.2654
vn -0.6229 -0.6485 -0.4375
vn -0.3262 -0.8670 -0.3768
vn -0.8365 -0.3313 -0.4365
vn -0.6249 -0.6464 -0.4378
vn -0.9280 0.0389 -0.3705
vn -0.8375 -0.3290 -0.4363
vn -0.8803 0.4040 -0.2487
vn -0.9281 0.0410 -0.3700
vn -0.7016 0.7068 -0.0905
vn -0.8795 0.4062 -0.2478
vn -0.4206 0.9037 0.0801
vn -0.7004 0.7081 -0.0897
vn -0.0800 0.9679 0.2381
vn -0.4189 0.9044 0.0810
vn 0.2725 0.8916 0.3616
vn -0.0778 0.9679 0.2390
vn 0.4368 0.8035 0.4045
vn 0.2741 0.8909 0.3621
vn 0.4211 0.7912 0.4434
vn 0.2563 0.8798 0.4004
vn 0.2243 0.8480 0.4802
vn -0.1250 0.9237 0.3620
vn -0.0957 0.9557 0.2783
vn -0.4640 0.8608 0.2092
vn -0.4368 0.8913 0.1215
vn -0.7181 0.6943 -0.0481
vn -0.7447 0.6659 0.0434
vn -0.8970 0.3917 -0.2049
vn -0.9238 0.3669 -0.1094
vn -0.9740 0.0058 -0.2266
vn -0.9452 0.0266 -0.3255
vn -0.8869 -0.3608 -0.2886
vn -0.8543 -0.3435 -0.3902
vn -0.6417 -0.6604 -0.3900
vn -0.6794 -0.6755 -0.2866
vn -0.3437 -0.8802 -0.3274
vn -0.3868 -0.8948 -0.2228
vn -0.0566 -0.9924 -0.1093
vn -0.0078 -0.9767 -0.2147
vn 0.2656 -0.9634 0.0364
vn 0.3199 -0.9449 -0.0694
vn 0.6006 -0.7945 0.0897
vn 0.5418 -0.8174 0.1957
vn 0.8025 -0.5445 0.2442
vn 0.7403 -0.5735 0.3507
vn 0.8364 -0.2580 0.4835
vn 0.8997 -0.2219 0.3759
vn 0.8120 0.0920 0.5764
vn 0.8740 0.1353 0.4668
vn 0.7215 0.4776 0.5013
vn 0.6632 0.4279 0.6141
vn 0.4600 0.7520 0.4721
vn 0.4070 0.6982 0.5890
vn 0.0811 0.8596 0.5045
vn 0.1278 0.9151 0.3824
vn -0.2673 0.8883 0.3735
vn -0.2268 0.9425 0.2456
vn -0.5532 0.8291 0.0808
vn -0.5887 0.7793 0.2149
vn -0.8054 0.5859 -0.0898
vn -0.8379 0.5435 0.0504
vn -0.9730 0.2112 -0.0937
vn -0.9395 0.2455 -0.2389
vn -0.9680 -0.1622 -0.1916
vn -0.9302 -0.1369 -0.3407
vn -0.7795 -0.4992 -0.3785
vn -0.8249 -0.5175 -0.2274
vn -0.5204 -0.7795 -0.3487
vn -0.5750 -0.7941 -0.1971
vn -0.2650 -0.9579 -0.1106
vn -0.2010 -0.9440 -0.2617
vn 0.0563 -0.9983 0.0146
vn 0.1301 -0.9823 -0.1348
vn 0.4322 -0.9017 0.0134
vn 0.3498 -0.9229 0.1608
vn 0.6772 -0.7166 0.1670
vn 0.5880 -0.7461 0.3126
vn 0.7469 -0.4844 0.4555
vn 0.8402 -0.4440 0.3114
vn 0.8033 -0.1611 0.5734
vn 0.8966 -0.1082 0.4295
vn 0.8276 0.2501 0.5025
vn 0.7389 0.1851 0.6479
vn 0.6355 0.5747 0.5155
vn 0.5549 0.5006 0.6644
vn 0.2805 0.7327 0.6200
vn 0.3500 0.8127 0.4659
vn -0.0436 0.8512 0.5231
vn 0.0146 0.9319 0.3624
vn -0.3250 0.9197 0.2203
vn -0.3728 0.8428 0.3883
vn -0.6260 0.7777 0.0574
vn -0.6655 0.7091 0.2331
vn -0.8847 0.4600 0.0762
vn -0.8500 0.5157 -0.1075
vn -0.9911 0.1191 -0.0596
vn -0.9551 0.1594 -0.2498
vn -0.9106 -0.2342 -0.3405
vn -0.9541 -0.2607 -0.1472
vn -0.7247 -0.5867 -0.3613
vn -0.7802 -0.6026 -0.1677
vn -0.5082 -0.8525 -0.1222
vn -0.4391 -0.8418 -0.3138
vn -0.1919 -0.9811 -0.0247
vn -0.1091 -0.9710 -0.2128
vn 0.2181 -0.9728 -0.0778
vn 0.1220 -0.9869 0.1058
vn 0.5062 -0.8593 0.0733
vn 0.3988 -0.8818 0.2519
vn 0.6155 -0.6787 0.4007
vn 0.7314 -0.6431 0.2268
vn 0.7460 -0.3937 0.5370
vn 0.8654 -0.3415 0.3667
vn 0.7646 -0.0571 0.6420
vn 0.5785 0.6921 0.4315
vn 0.5786 0.6921 0.4316
vn 0.3865 0.7615 0.5203
vt 0.490167 0.100769
vt 0.489624 0.100544
vt 0.490143 0.100460
vt 0.490530 0.100425
vt 0.490575 0.100731
vt 0.489659 0.100845
vt 0.489142 0.100609
vt 0.489557 0.099942
vt 0.490081 0.099849
vt 0.485830 0.065148
vt 0.486354 0.065054
vt 0.489070 0.099993
vt 0.574429 0.477994
vt 0.590271 0.446793
vt 0.574875 0.478221
vt 0.573965 0.477762
vt 0.589823 0.446569
vt 0.573481 0.477523
vt 0.589359 0.446338
vt 0.572977 0.477274
vt 0.588876 0.446096
vt 0.540145 0.666035
vt 0.546019 0.631537
vt 0.540711 0.666135
vt 0.539573 0.665938
vt 0.545451 0.631445
vt 0.539002 0.665845
vt 0.544878 0.631352
vt 0.538432 0.665758
vt 0.544306 0.631260
vt 0.537862 0.665674
vt 0.543737 0.631168
vt 0.515334 0.344245
vt 0.529650 0.376176
vt 0.514805 0.344483
vt 0.515864 0.344002
vt 0.530177 0.375934
vt 0.516392 0.343754
vt 0.530707 0.375691
vt 0.686161 0.787335
vt 0.680408 0.752818
vt 0.686732 0.787241
vt 0.685593 0.787432
vt 0.679839 0.752918
vt 0.685030 0.787532
vt 0.679272 0.753018
vt 0.684462 0.787636
vt 0.678708 0.753116
vt 0.683877 0.787741
vt 0.678139 0.753216
vt 0.877182 0.237256
vt 0.891854 0.205489
vt 0.877749 0.237518
vt 0.876579 0.236982
vt 0.891285 0.205231
vt 0.875944 0.236699
vt 0.890683 0.204958
vt 0.483268 0.621520
vt 0.490696 0.587324
vt 0.483973 0.621675
vt 0.482548 0.621365
vt 0.489989 0.587177
vt 0.481823 0.621214
vt 0.489267 0.587027
vt 0.481098 0.621069
vt 0.488542 0.586876
vt 0.480374 0.620928
vt 0.487818 0.586726
vt 0.509569 0.197977
vt 0.523568 0.230049
vt 0.508896 0.198277
vt 0.510244 0.197675
vt 0.524240 0.229747
vt 0.510924 0.197365
vt 0.524915 0.229444
vt 0.763832 0.608798
vt 0.757872 0.574312
vt 0.764572 0.608665
vt 0.763086 0.608930
vt 0.757133 0.574449
vt 0.762333 0.609066
vt 0.756387 0.574586
vt 0.761569 0.609209
vt 0.755635 0.574725
vt 0.760785 0.609359
vt 0.754870 0.574866
vt 0.759973 0.609511
vt 0.754085 0.575010
vt 0.860120 0.056354
vt 0.875541 0.024943
vt 0.860893 0.056728
vt 0.859317 0.055971
vt 0.874766 0.024574
vt 0.858488 0.055583
vt 0.873962 0.024191
vt 0.658075 0.777310
vt 0.664587 0.742927
vt 0.658990 0.777479
vt 0.657152 0.777145
vt 0.663670 0.742766
vt 0.656228 0.776984
vt 0.662747 0.742605
vt 0.655305 0.776828
vt 0.661822 0.742444
vt 0.654382 0.776677
vt 0.660899 0.742284
vt 0.096312 0.497984
vt 0.110055 0.530167
vt 0.095454 0.498361
vt 0.097169 0.497601
vt 0.110910 0.529785
vt 0.098029 0.497210
vt 0.111768 0.529402
vt 0.135063 0.526620
vt 0.127004 0.492564
vt 0.135985 0.526390
vt 0.134135 0.526856
vt 0.126083 0.492799
vt 0.133201 0.527100
vt 0.125155 0.493036
vt 0.133365 0.527694
vt 0.134295 0.527446
vt 0.134369 0.527743
vt 0.135285 0.527511
vt 0.135217 0.527211
vt 0.136194 0.527293
vt 0.136136 0.526989
vt 0.097766 0.496652
vt 0.096911 0.497047
vt 0.096788 0.496766
vt 0.096060 0.497427
vt 0.095943 0.497143
vt 0.095097 0.497504
vt 0.095204 0.497795
vt 0.655164 0.777735
vt 0.654294 0.777290
vt 0.655216 0.777433
vt 0.656133 0.777588
vt 0.656076 0.777889
vt 0.657051 0.777748
vt 0.656991 0.778049
vt 0.657903 0.778214
vt 0.657968 0.777913
vt 0.658800 0.778390
vt 0.658877 0.778090
vt 0.858236 0.056147
vt 0.859065 0.056527
vt 0.858931 0.056802
vt 0.859861 0.056907
vt 0.859719 0.057179
vt 0.860470 0.057554
vt 0.860625 0.057287
vt 0.861161 0.057966
vt 0.861334 0.057711
vt 0.760098 0.610115
vt 0.760912 0.609963
vt 0.761693 0.609806
vt 0.761746 0.610107
vt 0.762450 0.609664
vt 0.762497 0.609967
vt 0.763237 0.609835
vt 0.763196 0.609530
vt 0.763966 0.609716
vt 0.763941 0.609406
vt 0.764683 0.609271
vt 0.510525 0.196532
vt 0.511311 0.196429
vt 0.510661 0.196808
vt 0.509987 0.197123
vt 0.509871 0.196841
vt 0.509214 0.197124
vt 0.509314 0.197417
vt 0.480226 0.621849
vt 0.479535 0.621494
vt 0.480270 0.621544
vt 0.508641 0.197718
vt 0.480993 0.621670
vt 0.480931 0.621969
vt 0.481710 0.621813
vt 0.481640 0.622111
vt 0.482351 0.622260
vt 0.482426 0.621962
vt 0.483055 0.622414
vt 0.483137 0.622118
vt 0.483834 0.622286
vt 0.483735 0.622581
vt 0.875701 0.237269
vt 0.876338 0.237541
vt 0.876207 0.237817
vt 0.876789 0.238083
vt 0.876931 0.237812
vt 0.877327 0.238348
vt 0.877487 0.238084
vt 0.683997 0.788348
vt 0.684583 0.788242
vt 0.877807 0.238646
vt 0.877992 0.238400
vt 0.685147 0.788128
vt 0.685196 0.788429
vt 0.685740 0.788332
vt 0.685701 0.788029
vt 0.686288 0.788244
vt 0.686259 0.787938
vt 0.686826 0.787862
vt 0.686836 0.788174
vt 0.516122 0.343196
vt 0.515602 0.343454
vt 0.515480 0.343174
vt 0.514973 0.343404
vt 0.515081 0.343691
vt 0.514465 0.343612
vt 0.514552 0.343912
vt 0.537786 0.666297
vt 0.538356 0.666362
vt 0.538307 0.666664
vt 0.538915 0.666445
vt 0.538855 0.666745
vt 0.539407 0.666836
vt 0.539474 0.666537
vt 0.539958 0.666936
vt 0.540035 0.666638
vt 0.540592 0.666755
vt 0.540495 0.667051
vt 0.572711 0.477831
vt 0.573215 0.478079
vt 0.540999 0.667219
vt 0.541123 0.666938
vt 0.573558 0.478576
vt 0.573701 0.478307
vt 0.573996 0.478800
vt 0.574154 0.478538
vt 0.574587 0.478776
vt 0.574405 0.479030
vt 0.490468 0.099808
vt 0.486741 0.065012
vt 0.489196 0.100914
vt 0.485342 0.065197
vt 0.588374 0.445845
vt 0.543169 0.631076
vt 0.531237 0.375447
vt 0.677553 0.753317
vt 0.890049 0.204670
vt 0.487096 0.586576
vt 0.525596 0.229137
vt 0.753272 0.575158
vt 0.873137 0.023798
vt 0.659978 0.742124
vt 0.112630 0.529017
vt 0.124220 0.493274
vt 0.133450 0.527990
vt 0.097631 0.496375
vt 0.654254 0.777596
vt 0.858114 0.056430
vt 0.760981 0.610264
vt 0.511153 0.196165
vt 0.479518 0.621801
vt 0.875587 0.237556
vt 0.684657 0.788543
vt 0.515976 0.342923
vt 0.537763 0.666607
vt 0.573094 0.478364
s 1
usemtl standardSurface2
f 1/1/1 6/2/2 2/3/3
f 1/1/1 208/4/4 3/5/5
f 4/6/6 7/7/7 6/2/2
f 2/3/3 8/8/8 9/9/9
f 7/7/7 8/8/8 6/2/2
f 9/9/9 11/10/10 12/11/11
f 10/12/12 11/10/10 8/8/8
f 15/13/13 13/14/14 10/15/12
f 17/16/15 14/17/16 15/13/13
f 19/18/17 16/19/18 17/16/15
f 21/20/19 18/21/20 19/18/17
f 23/22/21 20/23/22 21/24/19
f 25/25/23 22/26/24 23/22/21
f 27/27/25 24/28/26 25/25/23
f 29/29/27 26/30/28 27/27/25
f 31/31/29 28/32/30 29/29/27
f 33/33/31 30/34/32 31/35/29
f 35/36/33 32/37/34 33/33/31
f 37/38/35 34/39/36 35/36/33
f 39/40/37 36/41/38 37/42/35
f 41/43/39 38/44/40 39/40/37
f 43/45/41 40/46/42 41/43/39
f 45/47/43 42/48/44 43/45/41
f 47/49/45 44/50/46 45/47/43
f 49/51/47 46/52/48 47/53/45
f 51/54/49 48/55/50 49/51/47
f 53/56/51 50/57/52 51/54/49
f 55/58/53 52/59/54 53/60/51
f 57/61/55 54/62/56 55/58/53
f 59/63/57 56/64/58 57/61/55
f 61/65/59 58/66/60 59/63/57
f 63/67/61 60/68/62 61/65/59
f 65/69/63 62/70/64 63/71/61
f 67/72/65 64/73/66 65/69/63
f 69/74/67 66/75/68 67/72/65
f 71/76/69 68/77/70 69/78/67
f 73/79/71 70/80/72 71/76/69
f 75/81/73 72/82/74 73/79/71
f 77/83/75 74/84/76 75/81/73
f 79/85/77 76/86/78 77/83/75
f 81/87/79 78/88/80 79/85/77
f 83/89/81 80/90/82 81/91/79
f 85/92/83 82/93/84 83/89/81
f 87/94/85 84/95/86 85/92/83
f 89/96/87 86/97/88 87/98/85
f 91/99/89 88/100/90 89/96/87
f 93/101/91 90/102/92 91/99/89
f 95/103/93 92/104/94 93/101/91
f 97/105/95 94/106/96 95/103/93
f 99/107/97 96/108/98 97/109/95
f 101/110/99 98/111/100 99/107/97
f 103/112/101 100/113/102 101/110/99
f 105/114/103 102/115/104 103/116/101
f 107/117/105 104/118/106 105/114/103
f 109/119/107 106/120/108 107/117/105
f 110/121/109 107/117/105 111/122/110
f 113/123/111 110/121/109 111/122/110
f 114/124/112 111/122/110 116/125/113
f 115/126/114 116/125/113 117/127/115
f 116/125/113 103/116/101 117/127/115
f 111/122/110 105/114/103 116/125/113
f 117/128/115 101/110/99 118/129/116
f 120/130/117 117/128/115 118/129/116
f 118/129/116 99/107/97 119/131/118
f 121/132/119 118/129/116 119/131/118
f 122/133/120 119/131/118 124/134/121
f 123/135/122 124/136/121 125/137/123
f 124/136/121 95/103/93 125/137/123
f 119/131/118 97/109/95 124/134/121
f 125/137/123 93/101/91 126/138/124
f 128/139/125 125/137/123 126/138/124
f 126/138/124 91/99/89 127/140/126
f 129/141/127 126/138/124 127/140/126
f 130/142/128 127/140/126 132/143/129
f 131/144/130 132/143/129 133/145/131
f 132/143/129 87/98/85 133/145/131
f 127/140/126 89/96/87 132/143/129
f 133/146/131 85/92/83 134/147/132
f 136/148/133 133/146/131 134/147/132
f 134/147/132 83/89/81 135/149/134
f 137/150/135 134/147/132 135/149/134
f 138/151/136 135/149/134 140/152/137
f 139/153/138 140/152/137 141/154/139
f 140/155/137 79/85/77 141/156/139
f 135/149/134 81/91/79 140/152/137
f 141/156/139 77/83/75 142/157/140
f 144/158/141 141/156/139 142/157/140
f 142/157/140 75/81/73 143/159/142
f 145/160/143 142/157/140 143/159/142
f 146/161/144 143/159/142 148/162/145
f 147/163/146 148/162/145 149/164/147
f 148/162/145 71/76/69 149/164/147
f 143/159/142 73/79/71 148/162/145
f 149/164/147 69/78/67 150/165/148
f 152/166/149 149/167/147 150/168/148
f 150/168/148 67/72/65 151/169/150
f 153/170/151 150/168/148 151/169/150
f 154/171/152 151/169/150 156/172/153
f 155/173/154 156/174/153 157/175/155
f 156/172/153 63/71/61 157/176/155
f 151/169/150 65/69/63 156/172/153
f 157/175/155 61/65/59 158/177/156
f 160/178/157 157/175/155 158/177/156
f 158/177/156 59/63/57 159/179/158
f 161/180/159 158/177/156 159/179/158
f 162/181/160 159/179/158 164/182/161
f 163/183/162 164/182/161 165/184/163
f 164/182/161 55/58/53 165/184/163
f 159/179/158 57/61/55 164/182/161
f 165/184/163 53/60/51 166/185/164
f 168/186/165 165/184/163 166/185/164
f 166/187/164 51/54/49 167/188/166
f 169/189/167 166/187/164 167/188/166
f 170/190/168 167/188/166 172/191/169
f 171/192/170 172/191/169 173/193/171
f 172/191/169 47/53/45 173/193/171
f 167/188/166 49/51/47 172/191/169
f 173/194/171 45/47/43 174/195/172
f 176/196/173 173/193/171 174/197/172
f 174/195/172 43/45/41 175/198/174
f 177/199/175 174/195/172 175/198/174
f 178/200/176 175/198/174 180/201/177
f 179/202/178 180/201/177 181/203/179
f 180/201/177 39/40/37 181/203/179
f 175/198/174 41/43/39 180/201/177
f 181/203/179 37/42/35 182/204/180
f 184/205/181 181/203/179 182/204/180
f 182/206/180 35/36/33 183/207/182
f 185/208/183 182/206/180 183/207/182
f 186/209/184 183/207/182 188/210/185
f 187/211/186 188/210/185 189/212/187
f 188/210/185 31/35/29 189/212/187
f 183/207/182 33/33/31 188/210/185
f 189/213/187 29/29/27 190/214/188
f 192/215/189 189/213/187 190/214/188
f 190/214/188 27/27/25 191/216/190
f 193/217/191 190/214/188 191/216/190
f 194/218/192 191/216/190 196/219/193
f 195/220/194 196/219/193 197/221/195
f 196/219/193 23/22/21 197/221/195
f 191/216/190 25/25/23 196/219/193
f 197/221/195 21/24/19 198/222/196
f 200/223/197 197/221/195 198/222/196
f 198/224/196 19/18/17 199/225/198
f 201/226/199 198/222/196 199/227/198
f 202/228/200 199/225/198 204/229/201
f 203/230/202 204/229/201 205/231/203
f 204/229/201 15/13/13 205/231/203
f 199/225/198 17/16/15 204/229/201
f 205/231/203 10/15/12 7/232/7
f 5/233/204 205/231/203 7/232/7
f 207/234/205 12/11/11 206/235/206
f 208/4/4 9/9/9 207/234/205
f 1/1/1 4/6/6 6/2/2
f 1/1/1 2/3/3 208/4/4
f 4/6/6 5/236/204 7/7/7
f 2/3/3 6/2/2 8/8/8
f 7/7/7 10/12/12 8/8/8
f 9/9/9 8/8/8 11/10/10
f 10/12/12 13/237/14 11/10/10
f 15/13/13 14/17/16 13/14/14
f 17/16/15 16/19/18 14/17/16
f 19/18/17 18/21/20 16/19/18
f 21/20/19 20/238/22 18/21/20
f 23/22/21 22/26/24 20/23/22
f 25/25/23 24/28/26 22/26/24
f 27/27/25 26/30/28 24/28/26
f 29/29/27 28/32/30 26/30/28
f 31/31/29 30/239/32 28/32/30
f 33/33/31 32/37/34 30/34/32
f 35/36/33 34/39/36 32/37/34
f 37/38/35 36/240/38 34/39/36
f 39/40/37 38/44/40 36/41/38
f 41/43/39 40/46/42 38/44/40
f 43/45/41 42/48/44 40/46/42
f 45/47/43 44/50/46 42/48/44
f 47/49/45 46/241/48 44/50/46
f 49/51/47 48/55/50 46/52/48
f 51/54/49 50/57/52 48/55/50
f 53/56/51 52/242/54 50/57/52
f 55/58/53 54/62/56 52/59/54
f 57/61/55 56/64/58 54/62/56
f 59/63/57 58/66/60 56/64/58
f 61/65/59 60/68/62 58/66/60
f 63/67/61 62/243/64 60/68/62
f 65/69/63 64/73/66 62/70/64
f 67/72/65 66/75/68 64/73/66
f 69/74/67 68/244/70 66/75/68
f 71/76/69 70/80/72 68/77/70
f 73/79/71 72/82/74 70/80/72
f 75/81/73 74/84/76 72/82/74
f 77/83/75 76/86/78 74/84/76
f 79/85/77 78/88/80 76/86/78
f 81/87/79 80/245/82 78/88/80
f 83/89/81 82/93/84 80/90/82
f 85/92/83 84/95/86 82/93/84
f 87/94/85 86/246/88 84/95/86
f 89/96/87 88/100/90 86/97/88
f 91/99/89 90/102/92 88/100/90
f 93/101/91 92/104/94 90/102/92
f 95/103/93 94/106/96 92/104/94
f 97/105/95 96/247/98 94/106/96
f 99/107/97 98/111/100 96/108/98
f 101/110/99 100/113/102 98/111/100
f 103/112/101 102/248/104 100/113/102
f 105/114/103 104/118/106 102/115/104
f 107/117/105 106/120/108 104/118/106
f 109/119/107 108/249/107 106/120/108
f 110/121/109 109/119/107 107/117/105
f 113/123/111 112/250/207 110/121/109
f 114/124/112 113/123/111 111/122/110
f 115/126/114 114/124/112 116/125/113
f 116/125/113 105/114/103 103/116/101
f 111/122/110 107/117/105 105/114/103
f 117/128/115 103/112/101 101/110/99
f 120/130/117 115/251/114 117/128/115
f 118/129/116 101/110/99 99/107/97
f 121/132/119 120/130/117 118/129/116
f 122/133/120 121/132/119 119/131/118
f 123/135/122 122/252/120 124/136/121
f 124/136/121 97/105/95 95/103/93
f 119/131/118 99/107/97 97/109/95
f 125/137/123 95/103/93 93/101/91
f 128/139/125 123/135/122 125/137/123
f 126/138/124 93/101/91 91/99/89
f 129/141/127 128/139/125 126/138/124
f 130/142/128 129/141/127 127/140/126
f 131/144/130 130/142/128 132/143/129
f 132/143/129 89/96/87 87/98/85
f 127/140/126 91/99/89 89/96/87
f 133/146/131 87/94/85 85/92/83
f 136/148/133 131/253/130 133/146/131
f 134/147/132 85/92/83 83/89/81
f 137/150/135 136/148/133 134/147/132
f 138/151/136 137/150/135 135/149/134
f 139/153/138 138/151/136 140/152/137
f 140/155/137 81/87/79 79/85/77
f 135/149/134 83/89/81 81/91/79
f 141/156/139 79/85/77 77/83/75
f 144/158/141 139/254/138 141/156/139
f 142/157/140 77/83/75 75/81/73
f 145/160/143 144/158/141 142/157/140
f 146/161/144 145/160/143 143/159/142
f 147/163/146 146/161/144 148/162/145
f 148/162/145 73/79/71 71/76/69
f 143/159/142 75/81/73 73/79/71
f 149/164/147 71/76/69 69/78/67
f 152/166/149 147/255/146 149/167/147
f 150/168/148 69/74/67 67/72/65
f 153/170/151 152/166/149 150/168/148
f 154/171/152 153/170/151 151/169/150
f 155/173/154 154/256/152 156/174/153
f 156/172/153 65/69/63 63/71/61
f 151/169/150 67/72/65 65/69/63
f 157/175/155 63/67/61 61/65/59
f 160/178/157 155/173/154 157/175/155
f 158/177/156 61/65/59 59/63/57
f 161/180/159 160/178/157 158/177/156
f 162/181/160 161/180/159 159/179/158
f 163/183/162 162/181/160 164/182/161
f 164/182/161 57/61/55 55/58/53
f 159/179/158 59/63/57 57/61/55
f 165/184/163 55/58/53 53/60/51
f 168/186/165 163/183/162 165/184/163
f 166/187/164 53/56/51 51/54/49
f 169/189/167 168/257/165 166/187/164
f 170/190/168 169/189/167 167/188/166
f 171/192/170 170/190/168 172/191/169
f 172/191/169 49/51/47 47/53/45
f 167/188/166 51/54/49 49/51/47
f 173/194/171 47/49/45 45/47/43
f 176/196/173 171/192/170 173/193/171
f 174/195/172 45/47/43 43/45/41
f 177/199/175 176/258/173 174/195/172
f 178/200/176 177/199/175 175/198/174
f 179/202/178 178/200/176 180/201/177
f 180/201/177 41/43/39 39/40/37
f 175/198/174 43/45/41 41/43/39
f 181/203/179 39/40/37 37/42/35
f 184/205/181 179/202/178 181/203/179
f 182/206/180 37/38/35 35/36/33
f 185/208/183 184/259/181 182/206/180
f 186/209/184 185/208/183 183/207/182
f 187/211/186 186/209/184 188/210/185
f 188/210/185 33/33/31 31/35/29
f 183/207/182 35/36/33 33/33/31
f 189/213/187 31/31/29 29/29/27
f 192/215/189 187/260/186 189/213/187
f 190/214/188 29/29/27 27/27/25
f 193/217/191 192/215/189 190/214/188
f 194/218/192 193/217/191 191/216/190
f 195/220/194 194/218/192 196/219/193
f 196/219/193 25/25/23 23/22/21
f 191/216/190 27/27/25 25/25/23
f 197/221/195 23/22/21 21/24/19
f 200/223/197 195/220/194 197/221/195
f 198/224/196 21/20/19 19/18/17
f 201/226/199 200/223/197 198/222/196
f 202/228/200 201/261/199 199/225/198
f 203/230/202 202/228/200 204/229/201
f 204/229/201 17/16/15 15/13/13
f 199/225/198 19/18/17 17/16/15
f 205/231/203 15/13/13 10/15/12
f 5/233/204 203/230/202 205/231/203
f 207/234/205 9/9/9 12/11/11
f 208/4/4 2/3/3 9/9/9
o polySurface146.050
v 0.633097 -0.498016 0.466005
v 0.631519 -0.485982 0.452147
v 0.610828 -0.491790 0.473921
v 0.660325 -0.507952 0.457303
v 0.676183 -0.526369 0.443830
v 0.660703 -0.495572 0.443665
v 0.677724 -0.514880 0.429513
v 0.654284 -0.478315 0.411885
v 0.625101 -0.468725 0.420366
v 0.671305 -0.497623 0.397732
v 0.287967 0.506590 -1.401847
v 0.258783 0.516181 -1.393366
v 0.304987 0.487283 -1.415999
v 0.312398 0.462538 -1.431195
v 0.678715 -0.522367 0.382537
v 0.308955 0.435253 -1.445587
v 0.675272 -0.549652 0.368144
v 0.294559 0.408802 -1.457329
v 0.660877 -0.576104 0.356402
v 0.270405 0.386571 -1.464826
v 0.636723 -0.598335 0.348905
v 0.239159 0.372166 -1.466654
v 0.605476 -0.612738 0.347077
v 0.204924 0.368210 -1.462217
v 0.571240 -0.616694 0.351514
v 0.172727 0.375878 -1.451885
v 0.539045 -0.609027 0.361847
v 0.147611 0.394376 -1.437100
v 0.513927 -0.590529 0.376632
v 0.133661 0.421000 -1.420150
v 0.499979 -0.563906 0.393582
v 0.133289 0.451639 -1.403746
v 0.499607 -0.533266 0.409986
v 0.146080 0.481313 -1.390513
v 0.512398 -0.503592 0.423219
v 0.169825 0.505646 -1.382384
v 0.536143 -0.479260 0.431348
v 0.200673 0.521298 -1.380409
v 0.566991 -0.463608 0.433322
v 0.234500 0.526242 -1.384858
v 0.600818 -0.458663 0.428874
v 0.266585 0.519894 -1.395109
v 0.632903 -0.465012 0.418622
v 0.292786 0.502928 -1.409978
v 0.659103 -0.481977 0.403754
v 0.309631 0.477074 -1.427833
v 0.675948 -0.507831 0.385899
v 0.314463 0.445069 -1.446655
v 0.680781 -0.539837 0.367077
v 0.305742 0.410609 -1.464122
v 0.672060 -0.574297 0.349610
v 0.283463 0.378152 -1.477805
v 0.649780 -0.606752 0.335927
v 0.249534 0.352444 -1.485498
v 0.615851 -0.632461 0.328233
v 0.207919 0.337771 -1.485659
v 0.574236 -0.647134 0.328073
v 0.164255 0.337033 -1.477834
v 0.530572 -0.647872 0.335898
v 0.124875 0.350835 -1.462969
v 0.491192 -0.634070 0.350763
v 0.095866 0.377574 -1.443152
v 0.462184 -0.607331 0.370580
v 0.081823 0.413353 -1.421423
v 0.448142 -0.571552 0.392308
v 0.084795 0.452671 -1.401195
v 0.451113 -0.532235 0.412537
v 0.104648 0.489638 -1.385626
v 0.470966 -0.495267 0.428106
v 0.138084 0.518604 -1.377147
v 0.504403 -0.466302 0.436584
v 0.180289 0.535298 -1.377115
v 0.546606 -0.449606 0.436616
v 0.225262 0.537166 -1.385726
v 0.591581 -0.447740 0.428006
v 0.266723 0.523590 -1.402057
v 0.633039 -0.461314 0.411674
v 0.298784 0.495904 -1.424208
v 0.665101 -0.489001 0.389524
v 0.316591 0.457263 -1.449484
v 0.682908 -0.527642 0.364247
v 0.316899 0.412411 -1.474650
v 0.683218 -0.572494 0.339082
v 0.298637 0.367243 -1.496273
v 0.664954 -0.617662 0.317459
v 0.263287 0.328115 -1.511186
v 0.629606 -0.656791 0.302546
v 0.214971 0.300923 -1.517002
v 0.581287 -0.683981 0.296730
v 0.160045 0.290086 -1.512589
v 0.526361 -0.694819 0.301142
v 0.106215 0.297687 -1.498361
v 0.472533 -0.687218 0.315370
v 0.061317 0.323017 -1.476278
v 0.427635 -0.661888 0.337453
v 0.031923 0.362531 -1.449599
v 0.398240 -0.622373 0.364133
v 0.022603 0.410630 -1.422273
v 0.388920 -0.574275 0.391458
v 0.034623 0.460172 -1.398456
v 0.400940 -0.524732 0.415276
v 0.066308 0.503937 -1.381735
v 0.432625 -0.480968 0.431997
v 0.113117 0.535526 -1.374676
v 0.479434 -0.449379 0.439055
v 0.168383 0.550309 -1.378459
v 0.534701 -0.434596 0.435273
v 0.224216 0.545876 -1.392804
v 0.590534 -0.439029 0.420928
v 0.596952 -0.456286 0.452708
v 0.541119 -0.451854 0.467053
v 0.599650 -0.467011 0.467443
v 0.544744 -0.462568 0.481596
v 0.490390 -0.477018 0.485363
v 0.444347 -0.507979 0.478480
v 0.485853 -0.466637 0.470835
v 0.439044 -0.498226 0.463777
v 0.407359 -0.541990 0.447057
v 0.395338 -0.591532 0.423239
v 0.413150 -0.550893 0.462111
v 0.401245 -0.599483 0.438774
v 0.410255 -0.646656 0.412000
v 0.438953 -0.685448 0.385839
v 0.404660 -0.639632 0.395914
v 0.434053 -0.679145 0.369233
v 0.478951 -0.704475 0.347151
v 0.532781 -0.712077 0.332923
v 0.482857 -0.710362 0.364166
v 0.535557 -0.717922 0.350172
v 0.589369 -0.707417 0.345788
v 0.636737 -0.680886 0.351419
v 0.587707 -0.701240 0.328510
v 0.636024 -0.674048 0.334326
v 0.671374 -0.634920 0.349239
v 0.689636 -0.589751 0.370862
v 0.671422 -0.642670 0.365954
v 0.689393 -0.598565 0.387041
v 0.689240 -0.554806 0.411563
v 0.672059 -0.517131 0.436170
v 0.689326 -0.544900 0.396028
v 0.671520 -0.506259 0.421304
v 0.639459 -0.478572 0.443455
v 0.597999 -0.464997 0.459786
v 0.641039 -0.490119 0.457725
v 0.600903 -0.476800 0.473631
v 0.557343 -0.478443 0.482061
v 0.516443 -0.494442 0.482128
v 0.553025 -0.466864 0.468397
v 0.510821 -0.483559 0.468365
v 0.477385 -0.512524 0.459886
v 0.457531 -0.549492 0.444317
v 0.483991 -0.522313 0.474027
v 0.464646 -0.557896 0.459089
v 0.461559 -0.595797 0.439634
v 0.474852 -0.630322 0.418716
v 0.454560 -0.588809 0.424089
v 0.468603 -0.624588 0.402360
v 0.497612 -0.651328 0.382544
v 0.536991 -0.665130 0.367678
v 0.502601 -0.656211 0.399593
v 0.540447 -0.669690 0.385191
v 0.582516 -0.669162 0.377552
v 0.622715 -0.655172 0.377606
v 0.580655 -0.664392 0.359854
v 0.622270 -0.649719 0.360013
v 0.656198 -0.624010 0.367708
v 0.678478 -0.591554 0.381390
v 0.655536 -0.630512 0.384933
v 0.677130 -0.599367 0.398020
v 0.685692 -0.566362 0.414708
v 0.681306 -0.535781 0.432645
v 0.687200 -0.557094 0.398857
v 0.682368 -0.525089 0.417679
v 0.665521 -0.499234 0.435534
v 0.639321 -0.482269 0.450403
v 0.665519 -0.511097 0.449630
v 0.640850 -0.494836 0.463789
v 0.610545 -0.488607 0.473599
v 0.578505 -0.493064 0.477934
v 0.607237 -0.475921 0.460655
v 0.573410 -0.480865 0.465103
v 0.542561 -0.496517 0.463128
v 0.518817 -0.520850 0.455000
v 0.549184 -0.507696 0.476189
v 0.526540 -0.530548 0.468626
v 0.514205 -0.558458 0.456242
v 0.514227 -0.587267 0.440882
v 0.506025 -0.550523 0.441767
v 0.506397 -0.581163 0.425363
v 0.520347 -0.607786 0.408413
v 0.545464 -0.626285 0.393627
v 0.527019 -0.612406 0.424951
v 0.550409 -0.630013 0.410977
v 0.580631 -0.637488 0.401129
v 0.612952 -0.633987 0.396812
v 0.577660 -0.633953 0.383295
v 0.611895 -0.629996 0.378858
v 0.643141 -0.615592 0.380686
v 0.667296 -0.593361 0.388183
v 0.642569 -0.620578 0.398412
v 0.665536 -0.599733 0.405378
v 0.679290 -0.574967 0.416316
v 0.682785 -0.549472 0.429708
v 0.681691 -0.566909 0.399925
v 0.685133 -0.539624 0.414317
v 0.237378 0.521779 -1.386040
v 0.603696 -0.463127 0.427692
v 0.610114 -0.480384 0.459472
vn 0.4048 0.7070 0.5799
vn 0.6207 0.6946 0.3636
vn 0.3808 0.8089 0.4479
vn 0.3714 0.8106 0.4527
vn 0.4011 0.7285 0.5553
vn 0.6408 0.5579 0.5273
vn 0.9027 0.4038 0.1484
vn 0.6086 0.7424 0.2802
vn 0.3737 0.8447 0.3832
vn 0.6004 0.7474 0.2846
vn 0.3730 0.8449 0.3835
vn 0.8897 0.4517 0.0664
vn 0.9822 0.1442 -0.1201
vn 0.8907 0.4499 0.0644
vn 0.9428 -0.1735 -0.2847
vn 0.9824 0.1427 -0.1209
vn 0.7875 -0.4608 -0.4093
vn 0.9423 -0.1749 -0.2853
vn 0.5387 -0.6900 -0.4835
vn 0.7865 -0.4620 -0.4097
vn 0.2161 -0.8390 -0.4993
vn 0.5375 -0.6908 -0.4837
vn -0.1481 -0.8813 -0.4487
vn 0.2145 -0.8395 -0.4992
vn -0.5069 -0.7963 -0.3300
vn -0.1501 -0.8812 -0.4482
vn -0.7976 -0.5828 -0.1554
vn -0.5091 -0.7953 -0.3291
vn -0.9618 -0.2694 0.0480
vn -0.7989 -0.5814 -0.1544
vn -0.9675 0.0810 0.2394
vn -0.9622 -0.2678 0.0489
vn -0.8278 0.4057 0.3875
vn -0.9674 0.0819 0.2398
vn -0.5756 0.6642 0.4770
vn -0.8269 0.4070 0.3880
vn -0.2461 0.8300 0.5005
vn -0.5745 0.6650 0.4772
vn 0.1196 0.8824 0.4551
vn -0.2440 0.8307 0.5004
vn 0.4722 0.8111 0.3451
vn 0.1217 0.8824 0.4546
vn 0.7594 0.6237 0.1853
vn 0.4736 0.8105 0.3445
vn 0.9363 0.3513 0.0016
vn 0.7608 0.6223 0.1843
vn 0.9834 0.0404 -0.1767
vn 0.9370 0.3494 0.0005
vn 0.9066 -0.2660 -0.3276
vn 0.9833 0.0382 -0.1778
vn 0.7226 -0.5358 -0.4369
vn 0.9057 -0.2680 -0.3285
vn 0.4502 -0.7434 -0.4946
vn 0.7208 -0.5376 -0.4375
vn 0.1131 -0.8634 -0.4917
vn 0.4480 -0.7446 -0.4948
vn -0.2510 -0.8710 -0.4223
vn 0.1106 -0.8639 -0.4914
vn -0.5914 -0.7527 -0.2892
vn -0.2537 -0.8706 -0.4215
vn -0.8502 -0.5152 -0.1080
vn -0.5937 -0.7513 -0.2881
vn -0.9764 -0.1959 0.0908
vn -0.8515 -0.5134 -0.1068
vn -0.9490 0.1537 0.2751
vn -0.9767 -0.1942 0.0918
vn -0.7760 0.4751 0.4147
vn -0.9484 0.1557 0.2761
vn -0.4912 0.7200 0.4902
vn -0.7750 0.4764 0.4152
vn -0.1353 0.8590 0.4938
vn -0.4898 0.7209 0.4904
vn 0.2399 0.8726 0.4254
vn -0.1333 0.8594 0.4936
vn 0.5791 0.7598 0.2956
vn 0.2420 0.8723 0.4248
vn 0.8329 0.5392 0.1245
vn 0.5814 0.7585 0.2944
vn 0.9668 0.2481 -0.0606
vn 0.8343 0.5373 0.1233
vn 0.9697 -0.0701 -0.2340
vn 0.9674 0.2457 -0.0619
vn 0.8479 -0.3748 -0.3748
vn 0.9692 -0.0726 -0.2352
vn 0.6184 -0.6314 -0.4678
vn 0.8464 -0.3773 -0.3758
vn 0.3064 -0.8092 -0.5013
vn 0.6161 -0.6333 -0.4683
vn -0.0527 -0.8820 -0.4683
vn 0.3036 -0.8103 -0.5013
vn -0.4121 -0.8330 -0.3691
vn -0.0554 -0.8821 -0.4678
vn -0.7175 -0.6626 -0.2148
vn -0.4148 -0.8321 -0.3681
vn -0.9198 -0.3915 -0.0268
vn -0.7194 -0.6610 -0.2136
vn -0.9843 -0.0609 0.1658
vn -0.9207 -0.3895 -0.0256
vn -0.9016 0.2767 0.3324
vn -0.9842 -0.0590 0.1667
vn -0.6867 0.5716 0.4491
vn -0.9009 0.2782 0.3330
vn -0.3721 0.7821 0.4999
vn -0.6853 0.5729 0.4495
vn -0.0047 0.8784 0.4779
vn -0.3710 0.7826 0.4999
vn 0.1829 0.8790 0.4404
vn -0.0027 0.8786 0.4776
vn 0.1913 0.8575 0.4776
vn 0.0031 0.8570 0.5153
vn 0.0235 0.8074 0.5896
vn -0.3398 0.7114 0.6152
vn -0.3638 0.7602 0.5382
vn -0.6511 0.5024 0.5689
vn -0.6774 0.5498 0.4886
vn -0.8923 0.2545 0.3730
vn -0.8644 0.2095 0.4572
vn -0.9746 -0.0832 0.2077
vn -0.9467 -0.1255 0.2965
vn -0.8841 -0.4541 0.1101
vn -0.9101 -0.4140 0.0164
vn -0.6854 -0.7246 -0.0720
vn -0.7080 -0.6854 -0.1701
vn -0.4029 -0.8564 -0.3230
vn -0.3846 -0.8962 -0.2209
vn -0.0437 -0.9061 -0.4209
vn -0.0296 -0.9484 -0.3158
vn 0.3257 -0.8802 -0.3453
vn 0.3149 -0.8343 -0.4525
vn 0.6339 -0.7089 -0.3093
vn 0.6267 -0.6577 -0.4179
vn 0.8562 -0.4024 -0.3240
vn 0.8617 -0.4597 -0.2148
vn 0.9783 -0.0989 -0.1822
vn 0.9839 -0.1631 -0.0731
vn 0.9840 0.1472 0.1005
vn 0.9759 0.2182 -0.0080
vn 0.8557 0.4314 0.2859
vn 0.8426 0.5083 0.1779
vn 0.5898 0.7279 0.3497
vn 0.6097 0.6472 0.4577
vn 0.2510 0.8403 0.4805
vn 0.2788 0.7581 0.5895
vn -0.0880 0.7452 0.6610
vn -0.1232 0.8262 0.5498
vn -0.4354 0.6100 0.6620
vn -0.4779 0.6871 0.5472
vn -0.7623 0.4420 0.4727
vn -0.7150 0.3708 0.5926
vn -0.9346 0.1211 0.3343
vn -0.8856 0.0570 0.4609
vn -0.9148 -0.2861 0.2852
vn -0.9617 -0.2282 0.1517
vn -0.7945 -0.5998 0.0952
vn -0.8357 -0.5473 -0.0457
vn -0.5773 -0.7849 -0.2252
vn -0.5444 -0.8352 -0.0781
vn -0.2378 -0.9036 -0.3564
vn -0.2136 -0.9552 -0.2049
vn 0.1416 -0.9524 -0.2701
vn 0.1255 -0.8968 -0.4243
vn 0.4701 -0.8401 -0.2708
vn 0.4618 -0.7780 -0.4260
vn 0.7335 -0.5718 -0.3675
vn 0.7363 -0.6424 -0.2126
vn 0.9173 -0.3036 -0.2577
vn 0.9172 -0.3845 -0.1045
vn 0.9949 -0.0909 0.0436
vn 0.9943 0.0014 -0.1066
vn 0.9534 0.2078 0.2186
vn 0.9477 0.3110 0.0720
vn 0.7716 0.5823 0.2559
vn 0.7867 0.4708 0.3993
vn 0.4853 0.7689 0.4162
vn 0.5124 0.6530 0.5577
vn 0.1745 0.7236 0.6678
vn 0.1340 0.8395 0.5266
vn -0.1778 0.6752 0.7158
vn -0.2301 0.7869 0.5726
vn -0.5582 0.6213 0.5499
vn -0.4958 0.5175 0.6974
vn -0.8094 0.3636 0.4612
vn -0.7404 0.2705 0.6154
vn -0.8779 -0.0407 0.4771
vn -0.9486 0.0397 0.3140
vn -0.8768 -0.3781 0.2972
vn -0.9427 -0.3097 0.1238
vn -0.7790 -0.6222 -0.0778
vn -0.7238 -0.6820 0.1048
vn -0.4892 -0.8354 -0.2506
vn -0.4480 -0.8919 -0.0610
vn -0.1043 -0.9792 -0.1740
vn -0.1315 -0.9207 -0.3675
vn 0.2460 -0.9436 -0.2218
vn 0.2313 -0.8791 -0.4167
vn 0.5524 -0.7313 -0.4001
vn 0.5559 -0.8053 -0.2061
vn 0.8002 -0.5036 -0.3257
vn 0.7960 -0.5901 -0.1347
vn 0.9474 -0.3195 -0.0154
vn 0.9550 -0.2179 -0.2013
vn 0.9897 -0.0192 0.1422
vn 0.9945 0.0983 -0.0372
vn 0.9065 0.2740 0.3213
vn 0.3555 0.8496 0.3896
vn 0.2074 0.8086 0.5506
vt 0.376361 0.472456
vt 0.376028 0.471974
vt 0.376510 0.472183
vt 0.376855 0.472361
vt 0.376727 0.472643
vt 0.375889 0.472245
vt 0.375597 0.471765
vt 0.376295 0.471432
vt 0.376788 0.471632
vt 0.391467 0.439902
vt 0.391961 0.440098
vt 0.375854 0.471217
vt 0.375403 0.471000
vt 0.391026 0.439686
vt 0.374937 0.470775
vt 0.390577 0.439465
vt 0.853610 0.659087
vt 0.863521 0.625526
vt 0.854128 0.659240
vt 0.853070 0.658932
vt 0.863002 0.625377
vt 0.852516 0.658777
vt 0.862461 0.625222
vt 0.904736 0.480280
vt 0.889843 0.448612
vt 0.905262 0.480037
vt 0.904212 0.480527
vt 0.889320 0.448863
vt 0.903692 0.480776
vt 0.888798 0.449114
vt 0.903175 0.481030
vt 0.888279 0.449364
vt 0.902656 0.481289
vt 0.887759 0.449614
vt 0.363784 0.310076
vt 0.372587 0.343944
vt 0.363220 0.310224
vt 0.364348 0.309924
vt 0.373150 0.343792
vt 0.364905 0.309769
vt 0.373714 0.343640
vt 0.779076 0.135310
vt 0.793793 0.103560
vt 0.779597 0.135554
vt 0.778557 0.135070
vt 0.793269 0.103323
vt 0.778031 0.134831
vt 0.792748 0.103086
vt 0.777488 0.134588
vt 0.792222 0.102847
vt 0.776916 0.134335
vt 0.791680 0.102600
vt 0.423502 0.671447
vt 0.434689 0.638292
vt 0.424128 0.671659
vt 0.422841 0.671228
vt 0.434061 0.638086
vt 0.422154 0.671006
vt 0.433400 0.637868
vt 0.421454 0.670778
vt 0.432714 0.637642
vt 0.770861 0.444627
vt 0.756632 0.412657
vt 0.771538 0.444328
vt 0.770186 0.444930
vt 0.755958 0.412964
vt 0.769516 0.445236
vt 0.755285 0.413272
vt 0.768848 0.445547
vt 0.754615 0.413578
vt 0.768179 0.445864
vt 0.753944 0.413885
vt 0.550324 0.649661
vt 0.558248 0.683745
vt 0.549597 0.649833
vt 0.551054 0.649482
vt 0.558974 0.683567
vt 0.551789 0.649297
vt 0.559704 0.683388
vt 0.389632 0.471576
vt 0.405449 0.440360
vt 0.390315 0.471921
vt 0.388936 0.471229
vt 0.404763 0.440022
vt 0.388221 0.470875
vt 0.404065 0.439678
vt 0.387479 0.470513
vt 0.403349 0.439325
vt 0.386705 0.470140
vt 0.402608 0.438958
vt 0.137888 0.725788
vt 0.149150 0.692657
vt 0.138732 0.726069
vt 0.137018 0.725504
vt 0.148304 0.692382
vt 0.136131 0.725222
vt 0.147434 0.692098
vt 0.759820 0.444464
vt 0.745891 0.412360
vt 0.760678 0.444086
vt 0.758964 0.444846
vt 0.745036 0.412746
vt 0.758111 0.445232
vt 0.744181 0.413132
vt 0.757261 0.445622
vt 0.743328 0.413519
vt 0.756411 0.446016
vt 0.742476 0.413904
vt 0.032106 0.563576
vt 0.041363 0.597327
vt 0.031204 0.563838
vt 0.033012 0.563312
vt 0.042264 0.597063
vt 0.033923 0.563042
vt 0.043171 0.596798
vt 0.713679 0.661208
vt 0.724528 0.627936
vt 0.714593 0.661492
vt 0.712755 0.660928
vt 0.723613 0.627655
vt 0.712583 0.661518
vt 0.713506 0.661794
vt 0.713411 0.662086
vt 0.714309 0.662371
vt 0.714415 0.662081
vt 0.032752 0.562433
vt 0.033741 0.562454
vt 0.032834 0.562729
vt 0.031930 0.562987
vt 0.031859 0.562686
vt 0.031027 0.563250
vt 0.756822 0.446848
vt 0.755864 0.447033
vt 0.756683 0.446573
vt 0.757654 0.446451
vt 0.757527 0.446172
vt 0.758494 0.446066
vt 0.758372 0.445785
vt 0.759219 0.445402
vt 0.759338 0.445684
vt 0.760070 0.445023
vt 0.760186 0.445308
vt 0.761033 0.444946
vt 0.760928 0.444655
vt 0.136743 0.726378
vt 0.135954 0.725813
vt 0.136840 0.726088
vt 0.137702 0.726370
vt 0.137597 0.726658
vt 0.138539 0.726658
vt 0.138421 0.726943
vt 0.387088 0.471343
vt 0.386448 0.470706
vt 0.387224 0.471069
vt 0.387820 0.471699
vt 0.387961 0.471427
vt 0.388669 0.471777
vt 0.388524 0.472047
vt 0.389357 0.472123
vt 0.389206 0.472391
vt 0.389864 0.472740
vt 0.390030 0.472477
vt 0.550831 0.648595
vt 0.551628 0.648699
vt 0.550899 0.648893
vt 0.550178 0.649069
vt 0.550119 0.648767
vt 0.549454 0.649228
vt 0.549412 0.648920
vt 0.769247 0.446372
vt 0.768459 0.446422
vt 0.769120 0.446094
vt 0.769900 0.446067
vt 0.769779 0.445785
vt 0.770441 0.445483
vt 0.770556 0.445767
vt 0.771109 0.445186
vt 0.771218 0.445474
vt 0.771881 0.445198
vt 0.771787 0.444903
vt 0.772560 0.444989
vt 0.772492 0.444689
vt 0.421272 0.671367
vt 0.421974 0.671595
vt 0.422660 0.671809
vt 0.422559 0.672097
vt 0.423312 0.672026
vt 0.423200 0.672312
vt 0.423798 0.672531
vt 0.423928 0.672249
vt 0.777128 0.135429
vt 0.776678 0.134914
vt 0.777254 0.135151
vt 0.777789 0.135388
vt 0.777655 0.135663
vt 0.778305 0.135623
vt 0.778164 0.135895
vt 0.778664 0.136132
vt 0.778814 0.135863
vt 0.779153 0.136383
vt 0.779322 0.136120
vt 0.364731 0.309174
vt 0.364180 0.309340
vt 0.364107 0.309043
vt 0.363626 0.309488
vt 0.363566 0.309187
vt 0.363027 0.309310
vt 0.363065 0.309619
vt 0.903591 0.481844
vt 0.902950 0.481844
vt 0.903458 0.481570
vt 0.903964 0.481318
vt 0.904087 0.481598
vt 0.904474 0.481074
vt 0.904588 0.481358
vt 0.905096 0.481126
vt 0.904990 0.480838
vt 0.905607 0.480915
vt 0.905518 0.480614
vt 0.852357 0.659376
vt 0.852911 0.659518
vt 0.852820 0.659809
vt 0.853441 0.659672
vt 0.853336 0.659960
vt 0.853822 0.660121
vt 0.853948 0.659838
vt 0.854262 0.660323
vt 0.854418 0.660057
vt 0.374676 0.471337
vt 0.375144 0.471561
vt 0.375460 0.472037
vt 0.377137 0.471803
vt 0.392312 0.440266
vt 0.390112 0.439237
vt 0.861908 0.625064
vt 0.887237 0.449865
vt 0.374272 0.343489
vt 0.791112 0.102341
vt 0.432014 0.637411
vt 0.753272 0.414194
vt 0.560440 0.683208
vt 0.401839 0.438577
vt 0.146549 0.691810
vt 0.741623 0.414291
vt 0.044082 0.596531
vt 0.722690 0.627372
vt 0.712500 0.661814
vt 0.033647 0.562161
vt 0.756018 0.447299
vt 0.135869 0.726109
vt 0.386325 0.470989
vt 0.551542 0.648403
vt 0.768605 0.446694
vt 0.421890 0.671892
vt 0.776570 0.135204
vt 0.364633 0.308881
vt 0.903108 0.482111
vt 0.852289 0.659678
vt 0.375029 0.471850
s 1
usemtl standardSurface2
f 209/262/208 214/263/209 210/264/210
f 209/262/208 416/265/211 211/266/212
f 212/267/213 215/268/214 214/263/209
f 210/264/210 216/269/215 217/270/216
f 215/268/214 216/269/215 214/263/209
f 217/270/216 219/271/217 220/272/218
f 218/273/219 219/271/217 216/269/215
f 223/274/220 221/275/221 218/273/219
f 225/276/222 222/277/223 223/274/220
f 227/278/224 224/279/225 225/280/222
f 229/281/226 226/282/227 227/278/224
f 231/283/228 228/284/229 229/281/226
f 233/285/230 230/286/231 231/287/228
f 235/288/232 232/289/233 233/285/230
f 237/290/234 234/291/235 235/288/232
f 239/292/236 236/293/237 237/290/234
f 241/294/238 238/295/239 239/292/236
f 243/296/240 240/297/241 241/298/238
f 245/299/242 242/300/243 243/296/240
f 247/301/244 244/302/245 245/299/242
f 249/303/246 246/304/247 247/305/244
f 251/306/248 248/307/249 249/303/246
f 253/308/250 250/309/251 251/306/248
f 255/310/252 252/311/253 253/308/250
f 257/312/254 254/313/255 255/310/252
f 259/314/256 256/315/257 257/316/254
f 261/317/258 258/318/259 259/314/256
f 263/319/260 260/320/261 261/317/258
f 265/321/262 262/322/263 263/319/260
f 267/323/264 264/324/265 265/325/262
f 269/326/266 266/327/267 267/323/264
f 271/328/268 268/329/269 269/326/266
f 273/330/270 270/331/271 271/328/268
f 275/332/272 272/333/273 273/330/270
f 277/334/274 274/335/275 275/336/272
f 279/337/276 276/338/277 277/334/274
f 281/339/278 278/340/279 279/337/276
f 283/341/280 280/342/281 281/343/278
f 285/344/282 282/345/283 283/341/280
f 287/346/284 284/347/285 285/344/282
f 289/348/286 286/349/287 287/346/284
f 291/350/288 288/351/289 289/348/286
f 293/352/290 290/353/291 291/354/288
f 295/355/292 292/356/293 293/352/290
f 297/357/294 294/358/295 295/355/292
f 299/359/296 296/360/297 297/361/294
f 301/362/298 298/363/299 299/359/296
f 303/364/300 300/365/301 301/362/298
f 305/366/302 302/367/303 303/364/300
f 307/368/304 304/369/305 305/366/302
f 309/370/306 306/371/307 307/372/304
f 311/373/308 308/374/309 309/370/306
f 313/375/310 310/376/311 311/373/308
f 315/377/312 312/378/313 313/379/310
f 317/380/314 314/381/315 315/377/312
f 318/382/316 315/377/312 319/383/317
f 321/384/318 318/382/316 319/383/317
f 322/385/319 319/383/317 324/386/320
f 323/387/321 324/388/320 325/389/322
f 324/388/320 311/373/308 325/389/322
f 319/383/317 313/379/310 324/386/320
f 325/389/322 309/370/306 326/390/323
f 328/391/324 325/389/322 326/390/323
f 326/390/323 307/372/304 327/392/325
f 329/393/326 326/394/323 327/395/325
f 330/396/327 327/395/325 332/397/328
f 331/398/329 332/397/328 333/399/330
f 332/397/328 303/364/300 333/399/330
f 327/395/325 305/366/302 332/397/328
f 333/399/330 301/362/298 334/400/331
f 336/401/332 333/399/330 334/400/331
f 334/400/331 299/359/296 335/402/333
f 337/403/334 334/400/331 335/402/333
f 338/404/335 335/402/333 340/405/336
f 339/406/337 340/407/336 341/408/338
f 340/407/336 295/355/292 341/408/338
f 335/402/333 297/361/294 340/405/336
f 341/408/338 293/352/290 342/409/339
f 344/410/340 341/408/338 342/409/339
f 342/409/339 291/354/288 343/411/341
f 345/412/342 342/409/339 343/411/341
f 346/413/343 343/414/341 348/415/344
f 347/416/345 348/415/344 349/417/346
f 348/415/344 287/346/284 349/417/346
f 343/414/341 289/348/286 348/415/344
f 349/417/346 285/344/282 350/418/347
f 352/419/348 349/417/346 350/418/347
f 350/418/347 283/341/280 351/420/349
f 353/421/350 350/418/347 351/420/349
f 354/422/351 351/420/349 356/423/352
f 355/424/353 356/425/352 357/426/354
f 356/425/352 279/337/276 357/426/354
f 351/420/349 281/343/278 356/423/352
f 357/426/354 277/334/274 358/427/355
f 360/428/356 357/426/354 358/427/355
f 358/427/355 275/336/272 359/429/357
f 361/430/358 358/427/355 359/429/357
f 362/431/359 359/432/357 364/433/360
f 363/434/361 364/433/360 365/435/362
f 364/433/360 271/328/268 365/435/362
f 359/432/357 273/330/270 364/433/360
f 365/435/362 269/326/266 366/436/363
f 368/437/364 365/435/362 366/436/363
f 366/436/363 267/323/264 367/438/365
f 369/439/366 366/436/363 367/438/365
f 370/440/367 367/438/365 372/441/368
f 371/442/369 372/441/368 373/443/370
f 372/444/368 263/319/260 373/445/370
f 367/438/365 265/325/262 372/441/368
f 373/445/370 261/317/258 374/446/371
f 376/447/372 373/445/370 374/446/371
f 374/446/371 259/314/256 375/448/373
f 377/449/374 374/446/371 375/448/373
f 378/450/375 375/448/373 380/451/376
f 379/452/377 380/453/376 381/454/378
f 380/453/376 255/310/252 381/454/378
f 375/448/373 257/316/254 380/451/376
f 381/454/378 253/308/250 382/455/379
f 384/456/380 381/454/378 382/455/379
f 382/455/379 251/306/248 383/457/381
f 385/458/382 382/455/379 383/457/381
f 386/459/383 383/457/381 388/460/384
f 387/461/385 388/460/384 389/462/386
f 388/460/384 247/305/244 389/462/386
f 383/457/381 249/303/246 388/460/384
f 389/463/386 245/299/242 390/464/387
f 392/465/388 389/463/386 390/464/387
f 390/464/387 243/296/240 391/466/389
f 393/467/390 390/464/387 391/466/389
f 394/468/391 391/466/389 396/469/392
f 395/470/393 396/471/392 397/472/394
f 396/471/392 239/292/236 397/472/394
f 391/466/389 241/298/238 396/469/392
f 397/472/394 237/290/234 398/473/395
f 400/474/396 397/472/394 398/473/395
f 398/473/395 235/288/232 399/475/397
f 401/476/398 398/473/395 399/475/397
f 402/477/399 399/475/397 404/478/400
f 403/479/401 404/478/400 405/480/402
f 404/478/400 231/287/228 405/480/402
f 399/475/397 233/285/230 404/478/400
f 405/481/402 229/281/226 406/482/403
f 408/483/404 405/481/402 406/482/403
f 406/482/403 227/278/224 407/484/405
f 409/485/406 406/482/403 407/484/405
f 410/486/407 407/484/405 412/487/408
f 411/488/409 412/487/408 413/489/410
f 412/490/408 223/274/220 413/491/410
f 407/484/405 225/280/222 412/487/408
f 413/491/410 218/273/219 215/268/214
f 213/492/411 413/491/410 215/268/214
f 415/493/412 220/272/218 414/494/412
f 416/265/211 217/270/216 415/493/412
f 209/262/208 212/267/213 214/263/209
f 209/262/208 210/264/210 416/265/211
f 212/267/213 213/492/411 215/268/214
f 210/264/210 214/263/209 216/269/215
f 215/268/214 218/273/219 216/269/215
f 217/270/216 216/269/215 219/271/217
f 218/273/219 221/275/221 219/271/217
f 223/274/220 222/277/223 221/275/221
f 225/276/222 224/495/225 222/277/223
f 227/278/224 226/282/227 224/279/225
f 229/281/226 228/284/229 226/282/227
f 231/283/228 230/496/231 228/284/229
f 233/285/230 232/289/233 230/286/231
f 235/288/232 234/291/235 232/289/233
f 237/290/234 236/293/237 234/291/235
f 239/292/236 238/295/239 236/293/237
f 241/294/238 240/497/241 238/295/239
f 243/296/240 242/300/243 240/297/241
f 245/299/242 244/302/245 242/300/243
f 247/301/244 246/498/247 244/302/245
f 249/303/246 248/307/249 246/304/247
f 251/306/248 250/309/251 248/307/249
f 253/308/250 252/311/253 250/309/251
f 255/310/252 254/313/255 252/311/253
f 257/312/254 256/499/257 254/313/255
f 259/314/256 258/318/259 256/315/257
f 261/317/258 260/320/261 258/318/259
f 263/319/260 262/322/263 260/320/261
f 265/321/262 264/500/265 262/322/263
f 267/323/264 266/327/267 264/324/265
f 269/326/266 268/329/269 266/327/267
f 271/328/268 270/331/271 268/329/269
f 273/330/270 272/333/273 270/331/271
f 275/332/272 274/501/275 272/333/273
f 277/334/274 276/338/277 274/335/275
f 279/337/276 278/340/279 276/338/277
f 281/339/278 280/502/281 278/340/279
f 283/341/280 282/345/283 280/342/281
f 285/344/282 284/347/285 282/345/283
f 287/346/284 286/349/287 284/347/285
f 289/348/286 288/351/289 286/349/287
f 291/350/288 290/503/291 288/351/289
f 293/352/290 292/356/293 290/353/291
f 295/355/292 294/358/295 292/356/293
f 297/357/294 296/504/297 294/358/295
f 299/359/296 298/363/299 296/360/297
f 301/362/298 300/365/301 298/363/299
f 303/364/300 302/367/303 300/365/301
f 305/366/302 304/369/305 302/367/303
f 307/368/304 306/505/307 304/369/305
f 309/370/306 308/374/309 306/371/307
f 311/373/308 310/376/311 308/374/309
f 313/375/310 312/506/313 310/376/311
f 315/377/312 314/381/315 312/378/313
f 317/380/314 316/507/314 314/381/315
f 318/382/316 317/380/314 315/377/312
f 321/384/318 320/508/413 318/382/316
f 322/385/319 321/384/318 319/383/317
f 323/387/321 322/509/319 324/388/320
f 324/388/320 313/375/310 311/373/308
f 319/383/317 315/377/312 313/379/310
f 325/389/322 311/373/308 309/370/306
f 328/391/324 323/387/321 325/389/322
f 326/390/323 309/370/306 307/372/304
f 329/393/326 328/510/324 326/394/323
f 330/396/327 329/393/326 327/395/325
f 331/398/329 330/396/327 332/397/328
f 332/397/328 305/366/302 303/364/300
f 327/395/325 307/368/304 305/366/302
f 333/399/330 303/364/300 301/362/298
f 336/401/332 331/398/329 333/399/330
f 334/400/331 301/362/298 299/359/296
f 337/403/334 336/401/332 334/400/331
f 338/404/335 337/403/334 335/402/333
f 339/406/337 338/511/335 340/407/336
f 340/407/336 297/357/294 295/355/292
f 335/402/333 299/359/296 297/361/294
f 341/408/338 295/355/292 293/352/290
f 344/410/340 339/406/337 341/408/338
f 342/409/339 293/352/290 291/354/288
f 345/412/342 344/410/340 342/409/339
f 346/413/343 345/512/342 343/414/341
f 347/416/345 346/413/343 348/415/344
f 348/415/344 289/348/286 287/346/284
f 343/414/341 291/350/288 289/348/286
f 349/417/346 287/346/284 285/344/282
f 352/419/348 347/416/345 349/417/346
f 350/418/347 285/344/282 283/341/280
f 353/421/350 352/419/348 350/418/347
f 354/422/351 353/421/350 351/420/349
f 355/424/353 354/513/351 356/425/352
f 356/425/352 281/339/278 279/337/276
f 351/420/349 283/341/280 281/343/278
f 357/426/354 279/337/276 277/334/274
f 360/428/356 355/424/353 357/426/354
f 358/427/355 277/334/274 275/336/272
f 361/430/358 360/428/356 358/427/355
f 362/431/359 361/514/358 359/432/357
f 363/434/361 362/431/359 364/433/360
f 364/433/360 273/330/270 271/328/268
f 359/432/357 275/332/272 273/330/270
f 365/435/362 271/328/268 269/326/266
f 368/437/364 363/434/361 365/435/362
f 366/436/363 269/326/266 267/323/264
f 369/439/366 368/437/364 366/436/363
f 370/440/367 369/439/366 367/438/365
f 371/442/369 370/440/367 372/441/368
f 372/444/368 265/321/262 263/319/260
f 367/438/365 267/323/264 265/325/262
f 373/445/370 263/319/260 261/317/258
f 376/447/372 371/515/369 373/445/370
f 374/446/371 261/317/258 259/314/256
f 377/449/374 376/447/372 374/446/371
f 378/450/375 377/449/374 375/448/373
f 379/452/377 378/516/375 380/453/376
f 380/453/376 257/312/254 255/310/252
f 375/448/373 259/314/256 257/316/254
f 381/454/378 255/310/252 253/308/250
f 384/456/380 379/452/377 381/454/378
f 382/455/379 253/308/250 251/306/248
f 385/458/382 384/456/380 382/455/379
f 386/459/383 385/458/382 383/457/381
f 387/461/385 386/459/383 388/460/384
f 388/460/384 249/303/246 247/305/244
f 383/457/381 251/306/248 249/303/246
f 389/463/386 247/301/244 245/299/242
f 392/465/388 387/517/385 389/463/386
f 390/464/387 245/299/242 243/296/240
f 393/467/390 392/465/388 390/464/387
f 394/468/391 393/467/390 391/466/389
f 395/470/393 394/518/391 396/471/392
f 396/471/392 241/294/238 239/292/236
f 391/466/389 243/296/240 241/298/238
f 397/472/394 239/292/236 237/290/234
f 400/474/396 395/470/393 397/472/394
f 398/473/395 237/290/234 235/288/232
f 401/476/398 400/474/396 398/473/395
f 402/477/399 401/476/398 399/475/397
f 403/479/401 402/477/399 404/478/400
f 404/478/400 233/285/230 231/287/228
f 399/475/397 235/288/232 233/285/230
f 405/481/402 231/283/228 229/281/226
f 408/483/404 403/519/401 405/481/402
f 406/482/403 229/281/226 227/278/224
f 409/485/406 408/483/404 406/482/403
f 410/486/407 409/485/406 407/484/405
f 411/488/409 410/486/407 412/487/408
f 412/490/408 225/276/222 223/274/220
f 407/484/405 227/278/224 225/280/222
f 413/491/410 223/274/220 218/273/219
f 213/492/411 411/520/409 413/491/410
f 415/493/412 217/270/216 220/272/218
f 416/265/211 210/264/210 217/270/216
