# Blender 5.1.0
# www.blender.org
mtllib SkyDome.mtl
o Sphere
v 0.000000 1000.000000 0.000000
v 0.000000 831.469604 -555.570251
v 0.000000 555.570251 -831.469604
v 0.000000 195.090317 -980.785278
v 0.000000 0.000000 -1000.000000
v 0.000000 -195.090317 -980.785278
v 0.000000 -555.570251 -831.469604
v 0.000000 -1000.000000 0.000000
v 38.060234 980.785278 -191.341721
v 74.657845 923.879517 -375.330292
v 108.386383 831.469604 -544.895142
v 137.949692 707.106750 -693.519897
v 162.211670 555.570251 -815.493103
v 180.239944 382.683441 -906.127380
v 191.341721 195.090317 -961.939697
v 195.090317 0.000000 -980.785278
v 191.341721 -195.090317 -961.939697
v 180.239944 -382.683441 -906.127380
v 162.211670 -555.570251 -815.493103
v 137.949692 -707.106750 -693.519897
v 108.386383 -831.469604 -544.895142
v 74.657845 -923.879517 -375.330292
v 38.060234 -980.785278 -191.341721
v 74.657829 980.785278 -180.239944
v 146.446609 923.879517 -353.553406
v 212.607529 831.469604 -513.279907
v 270.598053 707.106750 -653.281433
v 318.189636 555.570251 -768.177612
v 353.553345 382.683441 -853.553345
v 375.330261 195.090317 -906.127380
v 382.683441 0.000000 -923.879456
v 375.330261 -195.090317 -906.127380
v 353.553345 -382.683441 -853.553345
v 318.189636 -555.570251 -768.177612
v 270.598053 -707.106750 -653.281433
v 212.607529 -831.469604 -513.279907
v 146.446609 -923.879517 -353.553406
v 74.657829 -980.785278 -180.239944
v 108.386368 980.785278 -162.211655
v 212.607529 923.879517 -318.189636
v 308.658264 831.469604 -461.939697
v 392.847473 707.106750 -587.937744
v 461.939697 555.570251 -691.341553
v 513.279907 382.683441 -768.177673
v 544.895142 195.090317 -815.493103
v 555.570251 0.000000 -831.469482
v 544.895142 -195.090317 -815.493103
v 513.279907 -382.683441 -768.177673
v 461.939697 -555.570251 -691.341553
v 392.847473 -707.106750 -587.937744
v 308.658264 -831.469604 -461.939697
v 212.607529 -923.879517 -318.189636
v 108.386368 -980.785278 -162.211655
v 137.949677 980.785278 -137.949661
v 270.598053 923.879517 -270.598022
v 392.847443 831.469604 -392.847382
v 500.000000 707.106750 -500.000000
v 587.937683 555.570251 -587.937683
v 653.281372 382.683441 -653.281433
v 693.519897 195.090317 -693.519836
v 707.106750 0.000000 -707.106567
v 693.519897 -195.090317 -693.519836
v 653.281372 -382.683441 -653.281433
v 587.937683 -555.570251 -587.937683
v 500.000000 -707.106750 -500.000000
v 392.847443 -831.469604 -392.847382
v 270.598053 -923.879517 -270.598022
v 137.949677 -980.785278 -137.949661
v 162.211655 980.785278 -108.386353
v 318.189636 923.879517 -212.607498
v 461.939728 831.469604 -308.658203
v 587.937744 707.106750 -392.847473
v 691.341614 555.570251 -461.939636
v 768.177612 382.683441 -513.279968
v 815.493103 195.090317 -544.895020
v 831.469543 0.000000 -555.570007
v 815.493103 -195.090317 -544.895020
v 768.177612 -382.683441 -513.279968
v 691.341614 -555.570251 -461.939636
v 587.937744 -707.106750 -392.847473
v 461.939728 -831.469604 -308.658203
v 318.189636 -923.879517 -212.607498
v 162.211655 -980.785278 -108.386353
v 180.239914 980.785278 -74.657814
v 353.553345 923.879517 -146.446579
v 513.279907 831.469604 -212.607452
v 653.281433 707.106750 -270.598053
v 768.177612 555.570251 -318.189514
v 853.553284 382.683441 -353.553406
v 906.127319 195.090317 -375.330139
v 923.879395 0.000000 -382.683228
v 906.127319 -195.090317 -375.330139
v 853.553284 -382.683441 -353.553406
v 768.177612 -555.570251 -318.189514
v 653.281433 -707.106750 -270.598053
v 513.279907 -831.469604 -212.607452
v 353.553345 -923.879517 -146.446579
v 180.239914 -980.785278 -74.657814
v 191.341675 980.785278 -38.060215
v 375.330231 923.879517 -74.657814
v 544.895081 831.469604 -108.386314
v 693.519897 707.106750 -137.949707
v 815.492981 555.570251 -162.211563
v 906.127319 382.683441 -180.239990
v 961.939636 195.090317 -191.341614
v 980.785095 0.000000 -195.090134
v 961.939636 -195.090317 -191.341614
v 906.127319 -382.683441 -180.239990
v 815.492981 -555.570251 -162.211563
v 693.519897 -707.106750 -137.949707
v 544.895081 -831.469604 -108.386314
v 375.330231 -923.879517 -74.657814
v 191.341675 -980.785278 -38.060215
v 195.090271 980.785278 0.000011
v 382.683411 923.879517 0.000022
v 555.570129 831.469604 0.000052
v 707.106689 707.106750 -0.000015
v 831.469421 555.570251 0.000089
v 923.879456 382.683441 -0.000045
v 980.785156 195.090317 0.000089
v 999.999695 0.000000 0.000164
v 980.785156 -195.090317 0.000089
v 923.879456 -382.683441 -0.000045
v 831.469421 -555.570251 0.000089
v 707.106689 -707.106750 -0.000015
v 555.570129 -831.469604 0.000052
v 382.683411 -923.879517 0.000022
v 195.090271 -980.785278 0.000011
v 191.341660 980.785278 38.060234
v 375.330231 923.879517 74.657852
v 544.895020 831.469604 108.386406
v 693.519836 707.106750 137.949661
v 815.492920 555.570251 162.211731
v 906.127319 382.683441 180.239899
v 961.939575 195.090317 191.341766
v 980.784912 0.000000 195.090424
v 961.939575 -195.090317 191.341766
v 906.127319 -382.683441 180.239899
v 815.492920 -555.570251 162.211731
v 693.519836 -707.106750 137.949661
v 544.895020 -831.469604 108.386406
v 375.330231 -923.879517 74.657852
v 191.341660 -980.785278 38.060234
v 180.239883 980.785278 74.657822
v 353.553345 923.879517 146.446609
v 513.279785 831.469604 212.607529
v 653.281372 707.106750 270.597992
v 768.177490 555.570251 318.189636
v 853.553284 382.683441 353.553284
v 906.127197 195.090317 375.330292
v 923.879089 0.000000 382.683441
v 906.127197 -195.090317 375.330292
v 853.553284 -382.683441 353.553284
v 768.177490 -555.570251 318.189636
v 653.281372 -707.106750 270.597992
v 513.279785 -831.469604 212.607529
v 353.553345 -923.879517 146.446609
v 180.239883 -980.785278 74.657822
v 162.211594 980.785278 108.386337
v 318.189606 923.879517 212.607513
v 461.939575 831.469604 308.658234
v 587.937683 707.106750 392.847412
v 691.341431 555.570251 461.939697
v 768.177612 382.683441 513.279846
v 815.492920 195.090317 544.895081
v 831.469116 0.000000 555.570190
v 815.492920 -195.090317 544.895081
v 768.177612 -382.683441 513.279846
v 691.341431 -555.570251 461.939697
v 587.937683 -707.106750 392.847412
v 461.939575 -831.469604 308.658234
v 318.189606 -923.879517 212.607513
v 162.211594 -980.785278 108.386337
v 137.949615 980.785278 137.949631
v 270.597961 923.879517 270.598022
v 392.847260 831.469604 392.847412
v 499.999939 707.106750 499.999939
v 587.937561 555.570251 587.937683
v 653.281372 382.683441 653.281311
v 693.519714 195.090317 693.519836
v 707.106262 0.000000 707.106628
v 693.519714 -195.090317 693.519836
v 653.281372 -382.683441 653.281311
v 587.937561 -555.570251 587.937683
v 499.999939 -707.106750 499.999939
v 392.847260 -831.469604 392.847412
v 270.597961 -923.879517 270.598022
v 137.949615 -980.785278 137.949631
v 108.386314 980.785278 162.211594
v 212.607437 923.879517 318.189636
v 308.658081 831.469604 461.939667
v 392.847412 707.106750 587.937683
v 461.939545 555.570251 691.341492
v 513.279907 382.683441 768.177551
v 544.894897 195.090317 815.492981
v 555.569702 0.000000 831.469360
v 544.894897 -195.090317 815.492981
v 513.279907 -382.683441 768.177551
v 461.939545 -555.570251 691.341492
v 392.847412 -707.106750 587.937683
v 308.658081 -831.469604 461.939667
v 212.607437 -923.879517 318.189636
v 108.386314 -980.785278 162.211594
v 74.657784 980.785278 180.239853
v 146.446533 923.879517 353.553314
v 212.607361 831.469604 513.279785
v 270.597992 707.106750 653.281372
v 318.189453 555.570251 768.177490
v 353.553345 382.683441 853.553162
v 375.330017 195.090317 906.127197
v 382.682953 0.000000 923.879150
v 375.330017 -195.090317 906.127197
v 353.553345 -382.683441 853.553162
v 318.189453 -555.570251 768.177490
v 270.597992 -707.106750 653.281372
v 212.607361 -831.469604 513.279785
v 146.446533 -923.879517 353.553314
v 74.657784 -980.785278 180.239853
v 38.060204 980.785278 191.341599
v 74.657761 923.879517 375.330170
v 108.386230 831.469604 544.894897
v 137.949661 707.106750 693.519836
v 162.211517 555.570251 815.492859
v 180.239944 382.683441 906.127197
v 191.341522 195.090317 961.939453
v 195.089905 0.000000 980.784790
v 191.341522 -195.090317 961.939453
v 180.239944 -382.683441 906.127197
v 162.211517 -555.570251 815.492859
v 137.949661 -707.106750 693.519836
v 108.386230 -831.469604 544.894897
v 74.657761 -923.879517 375.330170
v 38.060204 -980.785278 191.341599
v -0.000007 980.785278 195.090195
v -0.000052 923.879517 382.683350
v -0.000097 831.469604 555.569946
v -0.000015 707.106750 707.106628
v -0.000104 555.570251 831.469299
v 0.000030 382.683441 923.879272
v -0.000134 195.090317 980.784973
v -0.000328 0.000000 999.999329
v -0.000134 -195.090317 980.784973
v 0.000030 -382.683441 923.879272
v -0.000104 -555.570251 831.469299
v -0.000015 -707.106750 707.106628
v -0.000097 -831.469604 555.569946
v -0.000052 -923.879517 382.683350
v -0.000007 -980.785278 195.090195
v -38.060215 980.785278 191.341583
v -74.657867 923.879517 375.330170
v -108.386421 831.469604 544.894836
v -137.949677 707.106750 693.519775
v -162.211716 555.570251 815.492798
v -180.239868 382.683441 906.127136
v -191.341782 195.090317 961.939392
v -195.090515 0.000000 980.784546
v -191.341782 -195.090317 961.939392
v -180.239868 -382.683441 906.127136
v -162.211716 -555.570251 815.492798
v -137.949677 -707.106750 693.519775
v -108.386421 -831.469604 544.894836
v -74.657867 -923.879517 375.330170
v -38.060215 -980.785278 191.341583
v -74.657784 980.785278 180.239822
v -146.446609 923.879517 353.553284
v -212.607498 831.469604 513.279602
v -270.597992 707.106750 653.281311
v -318.189636 555.570251 768.177368
v -353.553223 382.683441 853.553101
v -375.330261 195.090317 906.127014
v -382.683472 0.000000 923.878723
v -375.330261 -195.090317 906.127014
v -353.553223 -382.683441 853.553101
v -318.189636 -555.570251 768.177368
v -270.597992 -707.106750 653.281311
v -212.607498 -831.469604 513.279602
v -146.446609 -923.879517 353.553284
v -74.657784 -980.785278 180.239822
v -108.386299 980.785278 162.211548
v -212.607498 923.879517 318.189545
v -308.658173 831.469604 461.939392
v -392.847412 707.106750 587.937683
v -461.939636 555.570251 691.341370
v -513.279724 382.683441 768.177490
v -544.895081 195.090317 815.492737
v -555.570129 0.000000 831.468750
v -544.895081 -195.090317 815.492737
v -513.279724 -382.683441 768.177490
v -461.939636 -555.570251 691.341370
v -392.847412 -707.106750 587.937683
v -308.658173 -831.469604 461.939392
v -212.607498 -923.879517 318.189545
v -108.386299 -980.785278 162.211548
v -137.949585 980.785278 137.949570
v -270.597992 923.879517 270.597931
v -392.847290 831.469604 392.847107
v -499.999908 707.106750 499.999878
v -587.937622 555.570251 587.937439
v -653.281189 382.683441 653.281250
v -693.519775 195.090317 693.519531
v -707.106445 0.000000 707.105957
v -693.519775 -195.090317 693.519531
v -653.281189 -382.683441 653.281250
v -587.937622 -555.570251 587.937439
v -499.999908 -707.106750 499.999878
v -392.847290 -831.469604 392.847107
v -270.597992 -923.879517 270.597931
v -137.949585 -980.785278 137.949570
v -162.211548 980.785278 108.386276
v -318.189575 923.879517 212.607407
v -461.939514 831.469604 308.657959
v -587.937683 707.106750 392.847351
v -691.341431 555.570251 461.939423
v -768.177429 382.683441 513.279785
v -815.492920 195.090317 544.894714
v -831.469116 0.000000 555.569397
v -815.492920 -195.090317 544.894714
v -768.177429 -382.683441 513.279785
v -691.341431 -555.570251 461.939423
v -587.937683 -707.106750 392.847351
v -461.939514 -831.469604 308.657959
v -318.189575 -923.879517 212.607407
v -162.211548 -980.785278 108.386276
v -180.239807 980.785278 74.657753
v -353.553253 923.879517 146.446518
v -513.279602 831.469604 212.607239
v -653.281311 707.106750 270.597961
v -768.177368 555.570251 318.189331
v -853.553040 382.683441 353.553253
v -906.127136 195.090317 375.329895
v -923.878845 0.000000 382.682678
v -906.127136 -195.090317 375.329895
v -853.553040 -382.683441 353.553253
v -768.177368 -555.570251 318.189331
v -653.281311 -707.106750 270.597961
v -513.279602 -831.469604 212.607239
v -353.553253 -923.879517 146.446518
v -180.239807 -980.785278 74.657753
v -191.341553 980.785278 38.060181
v -375.330109 923.879517 74.657753
v -544.894714 831.469604 108.386154
v -693.519775 707.106750 137.949631
v -815.492737 555.570251 162.211426
v -906.127075 382.683441 180.239883
v -961.939392 195.090317 191.341385
v -980.784424 0.000000 195.089691
v -961.939392 -195.090317 191.341385
v -906.127075 -382.683441 180.239883
v -815.492737 -555.570251 162.211426
v -693.519775 -707.106750 137.949631
v -544.894714 -831.469604 108.386154
v -375.330109 -923.879517 74.657753
v -191.341553 -980.785278 38.060181
v -195.090149 980.785278 -0.000019
v -382.683258 923.879517 -0.000052
v -555.569763 831.469604 -0.000149
v -707.106567 707.106750 -0.000030
v -831.469177 555.570251 -0.000164
v -923.879150 382.683441 -0.000015
v -980.784851 195.090317 -0.000268
v -999.999023 0.000000 -0.000447
v -980.784851 -195.090317 -0.000268
v -923.879150 -382.683441 -0.000015
v -831.469177 -555.570251 -0.000164
v -707.106567 -707.106750 -0.000030
v -555.569763 -831.469604 -0.000149
v -382.683258 -923.879517 -0.000052
v -195.090149 -980.785278 -0.000019
v -191.341537 980.785278 -38.060219
v -375.330078 923.879517 -74.657852
v -544.894653 831.469604 -108.386436
v -693.519714 707.106750 -137.949692
v -815.492615 555.570251 -162.211761
v -906.127014 382.683441 -180.239899
v -961.939209 195.090317 -191.341888
v -980.784241 0.000000 -195.090576
v -961.939209 -195.090317 -191.341888
v -906.127014 -382.683441 -180.239899
v -815.492615 -555.570251 -162.211761
v -693.519714 -707.106750 -137.949692
v -544.894653 -831.469604 -108.386436
v -375.330078 -923.879517 -74.657852
v -191.341537 -980.785278 -38.060219
v -180.239777 980.785278 -74.657784
v -353.553192 923.879517 -146.446579
v -513.279419 831.469604 -212.607483
v -653.281250 707.106750 -270.597992
v -768.177185 555.570251 -318.189636
v -853.552979 382.683441 -353.553223
v -906.126831 195.090317 -375.330322
v -923.878418 0.000000 -382.683472
v -906.126831 -195.090317 -375.330322
v -853.552979 -382.683441 -353.553223
v -768.177185 -555.570251 -318.189636
v -653.281250 -707.106750 -270.597992
v -513.279419 -831.469604 -212.607483
v -353.553192 -923.879517 -146.446579
v -180.239777 -980.785278 -74.657784
v -162.211502 980.785278 -108.386292
v -318.189453 923.879517 -212.607452
v -461.939209 831.469604 -308.658142
v -587.937622 707.106750 -392.847382
v -691.341187 555.570251 -461.939636
v -768.177368 382.683441 -513.279724
v -815.492554 195.090317 -544.895081
v -831.468445 0.000000 -555.570068
v -815.492554 -195.090317 -544.895081
v -768.177368 -382.683441 -513.279724
v -691.341187 -555.570251 -461.939636
v -587.937622 -707.106750 -392.847382
v -461.939209 -831.469604 -308.658142
v -318.189453 -923.879517 -212.607452
v -162.211502 -980.785278 -108.386292
v -137.949539 980.785278 -137.949570
v -270.597870 923.879517 -270.597931
v -392.846954 831.469604 -392.847229
v -499.999817 707.106750 -499.999878
v -587.937256 555.570251 -587.937561
v -653.281128 382.683441 -653.281128
v -693.519348 195.090317 -693.519714
v -707.105713 0.000000 -707.106323
v -693.519348 -195.090317 -693.519714
v -653.281128 -382.683441 -653.281128
v -587.937256 -555.570251 -587.937561
v -499.999817 -707.106750 -499.999878
v -392.846954 -831.469604 -392.847229
v -270.597870 -923.879517 -270.597931
v -137.949539 -980.785278 -137.949570
v -108.386246 980.785278 -162.211517
v -212.607376 923.879517 -318.189514
v -308.657806 831.469604 -461.939423
v -392.847290 707.106750 -587.937683
v -461.939270 555.570251 -691.341370
v -513.279663 382.683441 -768.177368
v -544.894592 195.090317 -815.492798
v -555.569214 0.000000 -831.468933
v -544.894592 -195.090317 -815.492798
v -513.279663 -382.683441 -768.177368
v -461.939270 -555.570251 -691.341370
v -392.847290 -707.106750 -587.937683
v -308.657806 -831.469604 -461.939423
v -212.607376 -923.879517 -318.189514
v -108.386246 -980.785278 -162.211517
v -74.657738 980.785278 -180.239761
v -146.446487 923.879517 -353.553223
v -212.607101 831.469604 -513.279480
v -270.597900 707.106750 -653.281311
v -318.189209 555.570251 -768.177246
v -353.553162 382.683441 -853.552979
v -375.329803 195.090317 -906.126953
v -382.682556 0.000000 -923.878601
v -375.329803 -195.090317 -906.126953
v -353.553162 -382.683441 -853.552979
v -318.189209 -555.570251 -768.177246
v -270.597900 -707.106750 -653.281311
v -212.607101 -831.469604 -513.279480
v -146.446487 -923.879517 -353.553223
v -74.657738 -980.785278 -180.239761
v -38.060177 980.785278 -191.341507
v -74.657730 923.879517 -375.330078
v -108.386040 831.469604 -544.894531
v -137.949570 707.106750 -693.519775
v -162.211334 555.570251 -815.492554
v -180.239807 382.683441 -906.126953
v -191.341324 195.090317 -961.939209
v -195.089630 0.000000 -980.784180
v -191.341324 -195.090317 -961.939209
v -180.239807 -382.683441 -906.126953
v -162.211334 -555.570251 -815.492554
v -137.949570 -707.106750 -693.519775
v -108.386040 -831.469604 -544.894531
v -74.657730 -923.879517 -375.330078
v -38.060177 -980.785278 -191.341507
v 0.000015 980.785278 -195.090103
v 0.000067 923.879517 -382.683228
v 0.000089 707.106750 -707.106567
v 0.000060 382.683441 -923.879028
v 0.000060 -382.683441 -923.879028
v 0.000089 -707.106750 -707.106567
v 0.000216 -831.469604 -555.569519
v 0.000067 -923.879517 -382.683228
v 0.000015 -980.785278 -195.090103
vn -0.0464 0.8810 0.4709
vn -0.0938 -0.2890 0.9527
vn -0.0286 0.9565 0.2902
vn -0.0975 -0.0975 0.9904
vn -0.0097 -0.9951 0.0980
vn -0.0097 0.9951 0.0980
vn -0.0975 0.0975 0.9904
vn -0.0286 -0.9565 0.2902
vn -0.0938 0.2890 0.9527
vn -0.0464 -0.8810 0.4709
vn -0.0865 0.4696 0.8786
vn -0.0624 -0.7715 0.6332
vn -0.0759 0.6326 0.7708
vn -0.0759 -0.6326 0.7708
vn -0.0624 0.7715 0.6332
vn -0.0865 -0.4696 0.8786
vn -0.2248 -0.6326 0.7412
vn -0.1847 0.7715 0.6088
vn -0.2563 -0.4696 0.8448
vn -0.1374 0.8810 0.4528
vn -0.2779 -0.2890 0.9161
vn -0.0846 0.9565 0.2790
vn -0.2889 -0.0976 0.9524
vn -0.0286 -0.9951 0.0942
vn -0.0286 0.9951 0.0942
vn -0.2889 0.0976 0.9524
vn -0.0846 -0.9565 0.2790
vn -0.2779 0.2890 0.9161
vn -0.1374 -0.8810 0.4528
vn -0.2563 0.4696 0.8448
vn -0.1847 -0.7715 0.6088
vn -0.2248 0.6326 0.7412
vn -0.4691 0.0975 0.8777
vn -0.1374 -0.9565 0.2571
vn -0.4513 0.2890 0.8443
vn -0.2230 -0.8810 0.4173
vn -0.4162 0.4696 0.7786
vn -0.2999 -0.7715 0.5611
vn -0.3651 0.6326 0.6831
vn -0.3651 -0.6326 0.6831
vn -0.2999 0.7715 0.5611
vn -0.4162 -0.4696 0.7786
vn -0.2230 0.8810 0.4173
vn -0.4513 -0.2890 0.8443
vn -0.1374 0.9565 0.2571
vn -0.4691 -0.0975 0.8777
vn -0.0464 -0.9951 0.0869
vn -0.0464 0.9951 0.0869
vn -0.4036 0.7715 0.4918
vn -0.5601 -0.4696 0.6825
vn -0.3002 0.8810 0.3658
vn -0.6073 -0.2890 0.7400
vn -0.1850 0.9565 0.2254
vn -0.6314 -0.0975 0.7693
vn -0.0625 -0.9951 0.0761
vn -0.0625 0.9951 0.0761
vn -0.6314 0.0975 0.7693
vn -0.1850 -0.9565 0.2254
vn -0.6073 0.2890 0.7400
vn -0.3002 -0.8810 0.3658
vn -0.5601 0.4696 0.6825
vn -0.4036 -0.7715 0.4918
vn -0.4913 0.6326 0.5987
vn -0.4913 -0.6326 0.5987
vn -0.7400 0.2890 0.6073
vn -0.3658 -0.8810 0.3002
vn -0.6825 0.4696 0.5601
vn -0.4918 -0.7715 0.4036
vn -0.5987 0.6326 0.4913
vn -0.5987 -0.6326 0.4913
vn -0.4918 0.7715 0.4036
vn -0.6825 -0.4696 0.5601
vn -0.3658 0.8810 0.3002
vn -0.7400 -0.2890 0.6073
vn -0.2254 0.9565 0.1850
vn -0.7693 -0.0975 0.6314
vn -0.0761 -0.9951 0.0625
vn -0.0761 0.9951 0.0625
vn -0.7693 0.0975 0.6314
vn -0.2254 -0.9565 0.1850
vn -0.4173 0.8810 0.2230
vn -0.8443 -0.2890 0.4513
vn -0.2571 0.9565 0.1374
vn -0.8777 -0.0975 0.4691
vn -0.0869 -0.9951 0.0464
vn -0.0869 0.9951 0.0464
vn -0.8777 0.0975 0.4691
vn -0.2571 -0.9565 0.1374
vn -0.8443 0.2890 0.4513
vn -0.4173 -0.8810 0.2230
vn -0.7786 0.4696 0.4162
vn -0.5611 -0.7715 0.2999
vn -0.6831 0.6326 0.3651
vn -0.6831 -0.6326 0.3651
vn -0.5611 0.7715 0.2999
vn -0.7786 -0.4696 0.4162
vn -0.4528 -0.8810 0.1374
vn -0.8448 0.4696 0.2563
vn -0.6088 -0.7715 0.1847
vn -0.7412 0.6326 0.2248
vn -0.7412 -0.6326 0.2248
vn -0.6088 0.7715 0.1847
vn -0.8448 -0.4696 0.2563
vn -0.4528 0.8810 0.1374
vn -0.9161 -0.2890 0.2779
vn -0.2790 0.9565 0.0846
vn -0.9524 -0.0975 0.2889
vn -0.0942 -0.9951 0.0286
vn -0.0942 0.9951 0.0286
vn -0.9524 0.0975 0.2889
vn -0.2790 -0.9565 0.0846
vn -0.9161 0.2890 0.2779
vn -0.9527 -0.2890 0.0938
vn -0.2902 0.9565 0.0286
vn -0.9904 -0.0975 0.0975
vn -0.0980 -0.9951 0.0097
vn -0.0980 0.9951 0.0097
vn -0.9904 0.0975 0.0975
vn -0.2902 -0.9565 0.0286
vn -0.9527 0.2890 0.0938
vn -0.4709 -0.8810 0.0464
vn -0.8786 0.4696 0.0865
vn -0.6332 -0.7715 0.0624
vn -0.7708 0.6326 0.0759
vn -0.7708 -0.6326 0.0759
vn -0.6332 0.7715 0.0624
vn -0.8786 -0.4696 0.0865
vn -0.4709 0.8810 0.0464
vn -0.8786 0.4696 -0.0865
vn -0.6332 -0.7715 -0.0624
vn -0.7708 0.6326 -0.0759
vn -0.7708 -0.6326 -0.0759
vn -0.6332 0.7715 -0.0624
vn -0.8786 -0.4696 -0.0865
vn -0.4709 0.8810 -0.0464
vn -0.9527 -0.2890 -0.0938
vn -0.2902 0.9565 -0.0286
vn -0.9904 -0.0975 -0.0976
vn -0.0980 -0.9951 -0.0097
vn -0.0980 0.9951 -0.0097
vn -0.9904 0.0975 -0.0976
vn -0.2902 -0.9565 -0.0286
vn -0.9527 0.2890 -0.0938
vn -0.4709 -0.8810 -0.0464
vn -0.2790 0.9565 -0.0846
vn -0.9524 -0.0975 -0.2889
vn -0.0942 -0.9951 -0.0286
vn -0.0942 0.9951 -0.0286
vn -0.9524 0.0975 -0.2889
vn -0.2790 -0.9565 -0.0846
vn -0.9161 0.2890 -0.2779
vn -0.4528 -0.8810 -0.1374
vn -0.8448 0.4696 -0.2563
vn -0.6088 -0.7715 -0.1847
vn -0.7412 0.6326 -0.2248
vn -0.7412 -0.6326 -0.2248
vn -0.6088 0.7715 -0.1847
vn -0.8448 -0.4696 -0.2563
vn -0.4528 0.8810 -0.1374
vn -0.9161 -0.2890 -0.2779
vn -0.5611 -0.7715 -0.2999
vn -0.6831 0.6326 -0.3651
vn -0.6831 -0.6326 -0.3651
vn -0.5611 0.7715 -0.2999
vn -0.7786 -0.4696 -0.4162
vn -0.4173 0.8810 -0.2230
vn -0.8443 -0.2890 -0.4513
vn -0.2571 0.9565 -0.1374
vn -0.8777 -0.0975 -0.4691
vn -0.0869 -0.9951 -0.0464
vn -0.0869 0.9951 -0.0464
vn -0.8777 0.0975 -0.4691
vn -0.2571 -0.9565 -0.1374
vn -0.8443 0.2890 -0.4513
vn -0.4173 -0.8810 -0.2230
vn -0.7786 0.4696 -0.4162
vn -0.7693 -0.0975 -0.6314
vn -0.0761 -0.9951 -0.0625
vn -0.0761 0.9951 -0.0625
vn -0.7693 0.0975 -0.6314
vn -0.2254 -0.9565 -0.1850
vn -0.7400 0.2890 -0.6073
vn -0.3658 -0.8810 -0.3002
vn -0.6825 0.4696 -0.5601
vn -0.4918 -0.7715 -0.4036
vn -0.5987 0.6326 -0.4913
vn -0.5987 -0.6326 -0.4913
vn -0.4918 0.7715 -0.4036
vn -0.6825 -0.4696 -0.5601
vn -0.3658 0.8810 -0.3002
vn -0.7400 -0.2890 -0.6073
vn -0.2254 0.9565 -0.1850
vn -0.4913 0.6326 -0.5987
vn -0.4913 -0.6326 -0.5987
vn -0.4036 0.7715 -0.4918
vn -0.5601 -0.4696 -0.6825
vn -0.3002 0.8810 -0.3658
vn -0.6073 -0.2890 -0.7400
vn -0.1850 0.9565 -0.2254
vn -0.6314 -0.0975 -0.7693
vn -0.0625 -0.9951 -0.0761
vn -0.0625 0.9951 -0.0761
vn -0.6314 0.0975 -0.7693
vn -0.1850 -0.9565 -0.2254
vn -0.6073 0.2890 -0.7400
vn -0.3002 -0.8810 -0.3658
vn -0.5601 0.4696 -0.6825
vn -0.4036 -0.7715 -0.4918
vn -0.0464 0.9951 -0.0869
vn -0.4691 0.0975 -0.8777
vn -0.1374 -0.9565 -0.2571
vn -0.4513 0.2890 -0.8443
vn -0.2230 -0.8810 -0.4173
vn -0.4162 0.4696 -0.7786
vn -0.2999 -0.7715 -0.5611
vn -0.3651 0.6326 -0.6831
vn -0.3651 -0.6326 -0.6831
vn -0.2999 0.7715 -0.5611
vn -0.4162 -0.4696 -0.7786
vn -0.2230 0.8810 -0.4173
vn -0.4513 -0.2890 -0.8443
vn -0.1374 0.9565 -0.2571
vn -0.4691 -0.0975 -0.8777
vn -0.0464 -0.9951 -0.0869
vn -0.1847 0.7715 -0.6088
vn -0.2563 -0.4696 -0.8448
vn -0.1374 0.8810 -0.4528
vn -0.2779 -0.2890 -0.9161
vn -0.0846 0.9565 -0.2790
vn -0.2889 -0.0975 -0.9524
vn -0.0286 -0.9951 -0.0942
vn -0.0286 0.9951 -0.0942
vn -0.2889 0.0975 -0.9524
vn -0.0846 -0.9565 -0.2790
vn -0.2779 0.2890 -0.9161
vn -0.1374 -0.8810 -0.4528
vn -0.2563 0.4696 -0.8448
vn -0.1847 -0.7715 -0.6088
vn -0.2248 0.6326 -0.7412
vn -0.2248 -0.6326 -0.7412
vn -0.0286 -0.9565 -0.2902
vn -0.0938 0.2890 -0.9527
vn -0.0464 -0.8810 -0.4709
vn -0.0865 0.4696 -0.8786
vn -0.0624 -0.7715 -0.6332
vn -0.0759 0.6326 -0.7708
vn -0.0759 -0.6326 -0.7708
vn -0.0624 0.7715 -0.6332
vn -0.0865 -0.4696 -0.8786
vn -0.0464 0.8810 -0.4709
vn -0.0938 -0.2890 -0.9527
vn -0.0286 0.9565 -0.2902
vn -0.0975 -0.0975 -0.9904
vn -0.0097 -0.9951 -0.0980
vn -0.0097 0.9951 -0.0980
vn -0.0975 0.0975 -0.9904
vn 0.0865 -0.4696 -0.8786
vn 0.0464 0.8810 -0.4709
vn 0.0938 -0.2890 -0.9527
vn 0.0286 0.9565 -0.2902
vn 0.0976 -0.0975 -0.9904
vn 0.0097 -0.9951 -0.0980
vn 0.0097 0.9951 -0.0980
vn 0.0976 0.0975 -0.9904
vn 0.0286 -0.9565 -0.2902
vn 0.0938 0.2890 -0.9527
vn 0.0464 -0.8810 -0.4709
vn 0.0865 0.4696 -0.8786
vn 0.0624 -0.7715 -0.6332
vn 0.0759 0.6326 -0.7708
vn 0.0759 -0.6326 -0.7708
vn 0.0624 0.7715 -0.6332
vn 0.2779 0.2890 -0.9161
vn 0.1374 -0.8810 -0.4528
vn 0.2563 0.4696 -0.8448
vn 0.1847 -0.7715 -0.6088
vn 0.2248 0.6326 -0.7412
vn 0.2248 -0.6326 -0.7412
vn 0.1847 0.7715 -0.6088
vn 0.2563 -0.4696 -0.8448
vn 0.1374 0.8810 -0.4528
vn 0.2779 -0.2890 -0.9161
vn 0.0846 0.9565 -0.2790
vn 0.2889 -0.0975 -0.9524
vn 0.0286 -0.9951 -0.0942
vn 0.0286 0.9951 -0.0942
vn 0.2889 0.0975 -0.9524
vn 0.0846 -0.9565 -0.2790
vn 0.2230 0.8810 -0.4173
vn 0.4513 -0.2890 -0.8443
vn 0.1374 0.9565 -0.2571
vn 0.4691 -0.0975 -0.8777
vn 0.0464 -0.9951 -0.0869
vn 0.0464 0.9951 -0.0869
vn 0.4691 0.0975 -0.8777
vn 0.1374 -0.9565 -0.2571
vn 0.4513 0.2890 -0.8443
vn 0.2231 -0.8810 -0.4173
vn 0.4162 0.4696 -0.7786
vn 0.2999 -0.7715 -0.5611
vn 0.3651 0.6326 -0.6831
vn 0.3651 -0.6326 -0.6831
vn 0.2999 0.7715 -0.5611
vn 0.4162 -0.4696 -0.7786
vn 0.3002 -0.8810 -0.3658
vn 0.5601 0.4696 -0.6825
vn 0.4036 -0.7715 -0.4918
vn 0.4913 0.6326 -0.5987
vn 0.4913 -0.6326 -0.5987
vn 0.4036 0.7715 -0.4918
vn 0.5601 -0.4696 -0.6825
vn 0.3002 0.8810 -0.3658
vn 0.6073 -0.2890 -0.7400
vn 0.1850 0.9565 -0.2254
vn 0.6314 -0.0975 -0.7693
vn 0.0625 -0.9951 -0.0761
vn 0.0625 0.9951 -0.0761
vn 0.6314 0.0975 -0.7693
vn 0.1850 -0.9565 -0.2254
vn 0.6073 0.2890 -0.7400
vn 0.7400 -0.2890 -0.6073
vn 0.2254 0.9565 -0.1850
vn 0.7693 -0.0975 -0.6314
vn 0.0761 -0.9951 -0.0625
vn 0.0761 0.9951 -0.0625
vn 0.7693 0.0975 -0.6314
vn 0.2254 -0.9565 -0.1850
vn 0.7400 0.2890 -0.6073
vn 0.3658 -0.8810 -0.3002
vn 0.6825 0.4696 -0.5601
vn 0.4918 -0.7715 -0.4036
vn 0.5987 0.6326 -0.4913
vn 0.5987 -0.6326 -0.4913
vn 0.4918 0.7715 -0.4036
vn 0.6825 -0.4696 -0.5601
vn 0.3658 0.8810 -0.3002
vn 0.7786 0.4696 -0.4162
vn 0.5611 -0.7715 -0.2999
vn 0.6831 0.6326 -0.3651
vn 0.6831 -0.6326 -0.3651
vn 0.5611 0.7715 -0.2999
vn 0.7786 -0.4696 -0.4162
vn 0.4173 0.8810 -0.2230
vn 0.8443 -0.2890 -0.4513
vn 0.2571 0.9565 -0.1374
vn 0.8777 -0.0975 -0.4691
vn 0.0869 -0.9951 -0.0464
vn 0.0869 0.9951 -0.0464
vn 0.8777 0.0975 -0.4691
vn 0.2571 -0.9565 -0.1374
vn 0.8443 0.2890 -0.4513
vn 0.4173 -0.8810 -0.2230
vn 0.2790 0.9565 -0.0846
vn 0.9524 -0.0975 -0.2889
vn 0.0942 -0.9951 -0.0286
vn 0.0942 0.9951 -0.0286
vn 0.9524 0.0975 -0.2889
vn 0.2790 -0.9565 -0.0846
vn 0.9161 0.2890 -0.2779
vn 0.4528 -0.8810 -0.1374
vn 0.8448 0.4696 -0.2563
vn 0.6088 -0.7715 -0.1847
vn 0.7412 0.6326 -0.2248
vn 0.7412 -0.6326 -0.2248
vn 0.6088 0.7715 -0.1847
vn 0.8448 -0.4696 -0.2563
vn 0.4528 0.8810 -0.1374
vn 0.9161 -0.2890 -0.2779
vn 0.7708 0.6326 -0.0759
vn 0.7708 -0.6326 -0.0759
vn 0.6332 0.7715 -0.0624
vn 0.8786 -0.4696 -0.0865
vn 0.4709 0.8810 -0.0464
vn 0.9527 -0.2890 -0.0938
vn 0.2902 0.9565 -0.0286
vn 0.9904 -0.0975 -0.0975
vn 0.0980 -0.9951 -0.0097
vn 0.0980 0.9951 -0.0097
vn 0.9904 0.0975 -0.0975
vn 0.2902 -0.9565 -0.0286
vn 0.9527 0.2890 -0.0938
vn 0.4709 -0.8810 -0.0464
vn 0.8786 0.4696 -0.0865
vn 0.6332 -0.7715 -0.0624
vn 0.0980 -0.9951 0.0097
vn 0.0980 0.9951 0.0097
vn 0.9904 0.0975 0.0976
vn 0.2902 -0.9565 0.0286
vn 0.9527 0.2890 0.0938
vn 0.4709 -0.8810 0.0464
vn 0.8786 0.4696 0.0865
vn 0.6332 -0.7715 0.0624
vn 0.7708 0.6326 0.0759
vn 0.7708 -0.6326 0.0759
vn 0.6332 0.7715 0.0624
vn 0.8786 -0.4696 0.0865
vn 0.4709 0.8810 0.0464
vn 0.9527 -0.2890 0.0938
vn 0.2902 0.9565 0.0286
vn 0.9904 -0.0975 0.0976
vn 0.7412 -0.6326 0.2248
vn 0.6088 0.7715 0.1847
vn 0.8448 -0.4696 0.2563
vn 0.4528 0.8810 0.1374
vn 0.9161 -0.2890 0.2779
vn 0.2790 0.9565 0.0846
vn 0.9524 -0.0975 0.2889
vn 0.0942 -0.9951 0.0286
vn 0.0942 0.9951 0.0286
vn 0.9524 0.0975 0.2889
vn 0.2790 -0.9565 0.0846
vn 0.9161 0.2890 0.2779
vn 0.4528 -0.8810 0.1374
vn 0.8448 0.4696 0.2563
vn 0.6088 -0.7715 0.1847
vn 0.7412 0.6326 0.2248
vn 0.8777 0.0975 0.4691
vn 0.2571 -0.9565 0.1374
vn 0.8443 0.2890 0.4513
vn 0.4173 -0.8810 0.2231
vn 0.7786 0.4696 0.4162
vn 0.5611 -0.7715 0.2999
vn 0.6831 0.6326 0.3651
vn 0.6831 -0.6326 0.3651
vn 0.5611 0.7715 0.2999
vn 0.7786 -0.4696 0.4162
vn 0.4173 0.8810 0.2231
vn 0.8443 -0.2890 0.4513
vn 0.2571 0.9565 0.1374
vn 0.8777 -0.0975 0.4691
vn 0.0869 -0.9951 0.0464
vn 0.0869 0.9951 0.0464
vn 0.4918 0.7715 0.4036
vn 0.6825 -0.4696 0.5601
vn 0.3658 0.8810 0.3002
vn 0.7400 -0.2890 0.6073
vn 0.2254 0.9565 0.1850
vn 0.7693 -0.0975 0.6314
vn 0.0761 -0.9951 0.0625
vn 0.0761 0.9951 0.0625
vn 0.7693 0.0975 0.6314
vn 0.2254 -0.9565 0.1850
vn 0.7400 0.2890 0.6073
vn 0.3658 -0.8810 0.3002
vn 0.6825 0.4696 0.5601
vn 0.4918 -0.7715 0.4036
vn 0.5987 0.6326 0.4913
vn 0.5987 -0.6326 0.4913
vn 0.1850 -0.9565 0.2254
vn 0.6073 0.2890 0.7400
vn 0.3002 -0.8810 0.3658
vn 0.5601 0.4696 0.6825
vn 0.4036 -0.7715 0.4918
vn 0.4913 0.6326 0.5987
vn 0.4913 -0.6326 0.5987
vn 0.4036 0.7715 0.4918
vn 0.5601 -0.4696 0.6825
vn 0.3002 0.8810 0.3658
vn 0.6073 -0.2890 0.7400
vn 0.1850 0.9565 0.2254
vn 0.6314 -0.0975 0.7693
vn 0.0625 -0.9951 0.0761
vn 0.0625 0.9951 0.0761
vn 0.6314 0.0975 0.7693
vn 0.4162 -0.4696 0.7786
vn 0.2230 0.8810 0.4173
vn 0.4513 -0.2890 0.8443
vn 0.1374 0.9565 0.2571
vn 0.4691 -0.0975 0.8777
vn 0.0464 -0.9951 0.0869
vn 0.0464 0.9951 0.0869
vn 0.4691 0.0975 0.8777
vn 0.1374 -0.9565 0.2571
vn 0.4513 0.2890 0.8443
vn 0.2230 -0.8810 0.4173
vn 0.4162 0.4696 0.7786
vn 0.2999 -0.7715 0.5611
vn 0.3651 0.6326 0.6831
vn 0.3651 -0.6326 0.6831
vn 0.2999 0.7715 0.5611
vn 0.2779 0.2890 0.9161
vn 0.1374 -0.8810 0.4528
vn 0.2563 0.4696 0.8448
vn 0.1847 -0.7715 0.6088
vn 0.2248 0.6326 0.7412
vn 0.2248 -0.6326 0.7412
vn 0.1847 0.7715 0.6088
vn 0.2563 -0.4696 0.8448
vn 0.1374 0.8810 0.4528
vn 0.2779 -0.2890 0.9161
vn 0.0846 0.9565 0.2790
vn 0.2889 -0.0975 0.9524
vn 0.0286 -0.9951 0.0942
vn 0.0286 0.9951 0.0942
vn 0.2889 0.0975 0.9524
vn 0.0846 -0.9565 0.2790
vn 0.0464 0.8810 0.4709
vn 0.0938 -0.2890 0.9527
vn 0.0286 0.9565 0.2902
vn 0.0976 -0.0975 0.9904
vn 0.0097 -0.9951 0.0980
vn 0.0097 0.9951 0.0980
vn 0.0976 0.0975 0.9904
vn 0.0286 -0.9565 0.2902
vn 0.0938 0.2890 0.9527
vn 0.0464 -0.8810 0.4709
vn 0.0865 0.4696 0.8786
vn 0.0624 -0.7715 0.6332
vn 0.0759 0.6326 0.7708
vn 0.0759 -0.6326 0.7708
vn 0.0624 0.7715 0.6332
vn 0.0865 -0.4696 0.8786
vt 0.750000 0.125000
vt 0.718750 0.125000
vt 0.718750 0.187500
vt 0.750000 0.187500
vt 0.750000 0.562500
vt 0.718750 0.562500
vt 0.718750 0.625000
vt 0.750000 0.625000
vt 0.750000 0.062500
vt 0.718750 0.062500
vt 0.750000 0.500000
vt 0.718750 0.500000
vt 0.750000 0.937500
vt 0.718750 0.937500
vt 0.734375 1.000000
vt 0.734375 0.000000
vt 0.750000 0.437500
vt 0.718750 0.437500
vt 0.750000 0.875000
vt 0.718750 0.875000
vt 0.750000 0.375000
vt 0.718750 0.375000
vt 0.750000 0.812500
vt 0.718750 0.812500
vt 0.750000 0.312500
vt 0.718750 0.312500
vt 0.750000 0.750000
vt 0.718750 0.750000
vt 0.750000 0.250000
vt 0.718750 0.250000
vt 0.750000 0.687500
vt 0.718750 0.687500
vt 0.687500 0.687500
vt 0.687500 0.750000
vt 0.687500 0.187500
vt 0.687500 0.250000
vt 0.687500 0.625000
vt 0.687500 0.125000
vt 0.687500 0.562500
vt 0.687500 0.062500
vt 0.687500 0.500000
vt 0.687500 0.937500
vt 0.703125 1.000000
vt 0.703125 0.000000
vt 0.687500 0.437500
vt 0.687500 0.875000
vt 0.687500 0.375000
vt 0.687500 0.812500
vt 0.687500 0.312500
vt 0.656250 0.437500
vt 0.656250 0.500000
vt 0.656250 0.875000
vt 0.656250 0.937500
vt 0.656250 0.375000
vt 0.656250 0.812500
vt 0.656250 0.312500
vt 0.656250 0.750000
vt 0.656250 0.250000
vt 0.656250 0.687500
vt 0.656250 0.187500
vt 0.656250 0.625000
vt 0.656250 0.125000
vt 0.656250 0.562500
vt 0.656250 0.062500
vt 0.671875 1.000000
vt 0.671875 0.000000
vt 0.625000 0.187500
vt 0.625000 0.250000
vt 0.625000 0.625000
vt 0.625000 0.687500
vt 0.625000 0.125000
vt 0.625000 0.562500
vt 0.625000 0.062500
vt 0.625000 0.500000
vt 0.625000 0.937500
vt 0.640625 1.000000
vt 0.640625 0.000000
vt 0.625000 0.437500
vt 0.625000 0.875000
vt 0.625000 0.375000
vt 0.625000 0.812500
vt 0.625000 0.312500
vt 0.625000 0.750000
vt 0.593750 0.375000
vt 0.593750 0.437500
vt 0.593750 0.812500
vt 0.593750 0.875000
vt 0.593750 0.312500
vt 0.593750 0.750000
vt 0.593750 0.250000
vt 0.593750 0.687500
vt 0.593750 0.187500
vt 0.593750 0.625000
vt 0.593750 0.125000
vt 0.593750 0.562500
vt 0.593750 0.062500
vt 0.593750 0.500000
vt 0.593750 0.937500
vt 0.609375 1.000000
vt 0.609375 0.000000
vt 0.562500 0.125000
vt 0.562500 0.187500
vt 0.562500 0.562500
vt 0.562500 0.625000
vt 0.562500 0.062500
vt 0.562500 0.500000
vt 0.562500 0.937500
vt 0.578125 1.000000
vt 0.578125 0.000000
vt 0.562500 0.437500
vt 0.562500 0.875000
vt 0.562500 0.375000
vt 0.562500 0.812500
vt 0.562500 0.312500
vt 0.562500 0.750000
vt 0.562500 0.250000
vt 0.562500 0.687500
vt 0.531250 0.812500
vt 0.531250 0.875000
vt 0.531250 0.312500
vt 0.531250 0.375000
vt 0.531250 0.750000
vt 0.531250 0.250000
vt 0.531250 0.687500
vt 0.531250 0.187500
vt 0.531250 0.625000
vt 0.531250 0.125000
vt 0.531250 0.562500
vt 0.531250 0.062500
vt 0.531250 0.500000
vt 0.531250 0.937500
vt 0.546875 1.000000
vt 0.546875 0.000000
vt 0.531250 0.437500
vt 0.500000 0.562500
vt 0.500000 0.625000
vt 0.500000 0.062500
vt 0.500000 0.125000
vt 0.500000 0.500000
vt 0.500000 0.937500
vt 0.515625 1.000000
vt 0.515625 0.000000
vt 0.500000 0.437500
vt 0.500000 0.875000
vt 0.500000 0.375000
vt 0.500000 0.812500
vt 0.500000 0.312500
vt 0.500000 0.750000
vt 0.500000 0.250000
vt 0.500000 0.687500
vt 0.500000 0.187500
vt 0.468750 0.312500
vt 0.468750 0.375000
vt 0.468750 0.750000
vt 0.468750 0.812500
vt 0.468750 0.250000
vt 0.468750 0.687500
vt 0.468750 0.187500
vt 0.468750 0.625000
vt 0.468750 0.125000
vt 0.468750 0.562500
vt 0.468750 0.062500
vt 0.468750 0.500000
vt 0.468750 0.937500
vt 0.484375 1.000000
vt 0.484375 0.000000
vt 0.468750 0.437500
vt 0.468750 0.875000
vt 0.437500 0.062500
vt 0.437500 0.125000
vt 0.437500 0.500000
vt 0.437500 0.562500
vt 0.437500 0.937500
vt 0.453125 1.000000
vt 0.453125 0.000000
vt 0.437500 0.437500
vt 0.437500 0.875000
vt 0.437500 0.375000
vt 0.437500 0.812500
vt 0.437500 0.312500
vt 0.437500 0.750000
vt 0.437500 0.250000
vt 0.437500 0.687500
vt 0.437500 0.187500
vt 0.437500 0.625000
vt 0.406250 0.750000
vt 0.406250 0.812500
vt 0.406250 0.250000
vt 0.406250 0.312500
vt 0.406250 0.687500
vt 0.406250 0.187500
vt 0.406250 0.625000
vt 0.406250 0.125000
vt 0.406250 0.562500
vt 0.406250 0.062500
vt 0.406250 0.500000
vt 0.406250 0.937500
vt 0.421875 1.000000
vt 0.421875 0.000000
vt 0.406250 0.437500
vt 0.406250 0.875000
vt 0.406250 0.375000
vt 0.375000 0.500000
vt 0.375000 0.562500
vt 0.375000 0.937500
vt 0.390625 1.000000
vt 0.390625 0.000000
vt 0.375000 0.062500
vt 0.375000 0.437500
vt 0.375000 0.875000
vt 0.375000 0.375000
vt 0.375000 0.812500
vt 0.375000 0.312500
vt 0.375000 0.750000
vt 0.375000 0.250000
vt 0.375000 0.687500
vt 0.375000 0.187500
vt 0.375000 0.625000
vt 0.375000 0.125000
vt 0.343750 0.250000
vt 0.343750 0.312500
vt 0.343750 0.687500
vt 0.343750 0.750000
vt 0.343750 0.187500
vt 0.343750 0.625000
vt 0.343750 0.125000
vt 0.343750 0.562500
vt 0.343750 0.062500
vt 0.343750 0.500000
vt 0.343750 0.937500
vt 0.359375 1.000000
vt 0.359375 0.000000
vt 0.343750 0.437500
vt 0.343750 0.875000
vt 0.343750 0.375000
vt 0.343750 0.812500
vt 0.328125 0.000000
vt 0.312500 0.062500
vt 0.312500 0.437500
vt 0.312500 0.500000
vt 0.312500 0.875000
vt 0.312500 0.937500
vt 0.312500 0.375000
vt 0.312500 0.812500
vt 0.312500 0.312500
vt 0.312500 0.750000
vt 0.312500 0.250000
vt 0.312500 0.687500
vt 0.312500 0.187500
vt 0.312500 0.625000
vt 0.312500 0.125000
vt 0.312500 0.562500
vt 0.328125 1.000000
vt 0.281250 0.187500
vt 0.281250 0.250000
vt 0.281250 0.625000
vt 0.281250 0.687500
vt 0.281250 0.125000
vt 0.281250 0.562500
vt 0.281250 0.062500
vt 0.281250 0.500000
vt 0.281250 0.937500
vt 0.296875 1.000000
vt 0.296875 0.000000
vt 0.281250 0.437500
vt 0.281250 0.875000
vt 0.281250 0.375000
vt 0.281250 0.812500
vt 0.281250 0.312500
vt 0.281250 0.750000
vt 0.250000 0.875000
vt 0.250000 0.937500
vt 0.250000 0.375000
vt 0.250000 0.437500
vt 0.250000 0.812500
vt 0.250000 0.312500
vt 0.250000 0.750000
vt 0.250000 0.250000
vt 0.250000 0.687500
vt 0.250000 0.187500
vt 0.250000 0.625000
vt 0.250000 0.125000
vt 0.250000 0.562500
vt 0.250000 0.062500
vt 0.250000 0.500000
vt 0.265625 1.000000
vt 0.265625 0.000000
vt 0.218750 0.625000
vt 0.218750 0.687500
vt 0.218750 0.125000
vt 0.218750 0.187500
vt 0.218750 0.562500
vt 0.218750 0.062500
vt 0.218750 0.500000
vt 0.218750 0.937500
vt 0.234375 1.000000
vt 0.234375 0.000000
vt 0.218750 0.437500
vt 0.218750 0.875000
vt 0.218750 0.375000
vt 0.218750 0.812500
vt 0.218750 0.312500
vt 0.218750 0.750000
vt 0.218750 0.250000
vt 0.187500 0.375000
vt 0.187500 0.437500
vt 0.187500 0.812500
vt 0.187500 0.875000
vt 0.187500 0.312500
vt 0.187500 0.750000
vt 0.187500 0.250000
vt 0.187500 0.687500
vt 0.187500 0.187500
vt 0.187500 0.625000
vt 0.187500 0.125000
vt 0.187500 0.562500
vt 0.187500 0.062500
vt 0.187500 0.500000
vt 0.187500 0.937500
vt 0.203125 1.000000
vt 0.203125 0.000000
vt 0.156250 0.125000
vt 0.156250 0.187500
vt 0.156250 0.562500
vt 0.156250 0.625000
vt 0.156250 0.062500
vt 0.156250 0.500000
vt 0.156250 0.937500
vt 0.171875 1.000000
vt 0.171875 0.000000
vt 0.156250 0.437500
vt 0.156250 0.875000
vt 0.156250 0.375000
vt 0.156250 0.812500
vt 0.156250 0.312500
vt 0.156250 0.750000
vt 0.156250 0.250000
vt 0.156250 0.687500
vt 0.125000 0.812500
vt 0.125000 0.875000
vt 0.125000 0.312500
vt 0.125000 0.375000
vt 0.125000 0.750000
vt 0.125000 0.250000
vt 0.125000 0.687500
vt 0.125000 0.187500
vt 0.125000 0.625000
vt 0.125000 0.125000
vt 0.125000 0.562500
vt 0.125000 0.062500
vt 0.125000 0.500000
vt 0.125000 0.937500
vt 0.140625 1.000000
vt 0.140625 0.000000
vt 0.125000 0.437500
vt 0.093750 0.562500
vt 0.093750 0.625000
vt 0.093750 0.062500
vt 0.093750 0.125000
vt 0.093750 0.500000
vt 0.093750 0.937500
vt 0.109375 1.000000
vt 0.109375 0.000000
vt 0.093750 0.437500
vt 0.093750 0.875000
vt 0.093750 0.375000
vt 0.093750 0.812500
vt 0.093750 0.312500
vt 0.093750 0.750000
vt 0.093750 0.250000
vt 0.093750 0.687500
vt 0.093750 0.187500
vt 0.062500 0.312500
vt 0.062500 0.375000
vt 0.062500 0.750000
vt 0.062500 0.812500
vt 0.062500 0.250000
vt 0.062500 0.687500
vt 0.062500 0.187500
vt 0.062500 0.625000
vt 0.062500 0.125000
vt 0.062500 0.562500
vt 0.062500 0.062500
vt 0.062500 0.500000
vt 0.062500 0.937500
vt 0.078125 1.000000
vt 0.078125 0.000000
vt 0.062500 0.437500
vt 0.062500 0.875000
vt 0.031250 0.062500
vt 0.031250 0.125000
vt 0.031250 0.500000
vt 0.031250 0.562500
vt 0.031250 0.937500
vt 0.046875 1.000000
vt 0.046875 0.000000
vt 0.031250 0.437500
vt 0.031250 0.875000
vt 0.031250 0.375000
vt 0.031250 0.812500
vt 0.031250 0.312500
vt 0.031250 0.750000
vt 0.031250 0.250000
vt 0.031250 0.687500
vt 0.031250 0.187500
vt 0.031250 0.625000
vt 0.000000 0.250000
vt 0.000000 0.312500
vt 0.000000 0.687500
vt 0.000000 0.750000
vt 0.000000 0.187500
vt 0.000000 0.625000
vt 0.000000 0.125000
vt 0.000000 0.562500
vt 0.000000 0.062500
vt 0.000000 0.500000
vt 0.000000 0.937500
vt 0.015625 1.000000
vt 0.015625 0.000000
vt 0.000000 0.437500
vt 0.000000 0.875000
vt 0.000000 0.375000
vt 0.000000 0.812500
vt 1.000000 0.937500
vt 0.968750 0.937500
vt 0.984375 1.000000
vt 0.984375 0.000000
vt 0.968750 0.062500
vt 1.000000 0.062500
vt 1.000000 0.437500
vt 0.968750 0.437500
vt 0.968750 0.500000
vt 1.000000 0.500000
vt 1.000000 0.875000
vt 0.968750 0.875000
vt 1.000000 0.375000
vt 0.968750 0.375000
vt 1.000000 0.812500
vt 0.968750 0.812500
vt 1.000000 0.312500
vt 0.968750 0.312500
vt 1.000000 0.750000
vt 0.968750 0.750000
vt 1.000000 0.250000
vt 0.968750 0.250000
vt 1.000000 0.687500
vt 0.968750 0.687500
vt 1.000000 0.187500
vt 0.968750 0.187500
vt 1.000000 0.625000
vt 0.968750 0.625000
vt 1.000000 0.125000
vt 0.968750 0.125000
vt 1.000000 0.562500
vt 0.968750 0.562500
vt 0.937500 0.687500
vt 0.937500 0.750000
vt 0.937500 0.187500
vt 0.937500 0.250000
vt 0.937500 0.625000
vt 0.937500 0.125000
vt 0.937500 0.562500
vt 0.937500 0.062500
vt 0.937500 0.500000
vt 0.937500 0.937500
vt 0.953125 1.000000
vt 0.953125 0.000000
vt 0.937500 0.437500
vt 0.937500 0.875000
vt 0.937500 0.375000
vt 0.937500 0.812500
vt 0.937500 0.312500
vt 0.906250 0.437500
vt 0.906250 0.500000
vt 0.906250 0.875000
vt 0.906250 0.937500
vt 0.906250 0.375000
vt 0.906250 0.812500
vt 0.906250 0.312500
vt 0.906250 0.750000
vt 0.906250 0.250000
vt 0.906250 0.687500
vt 0.906250 0.187500
vt 0.906250 0.625000
vt 0.906250 0.125000
vt 0.906250 0.562500
vt 0.906250 0.062500
vt 0.921875 1.000000
vt 0.921875 0.000000
vt 0.875000 0.187500
vt 0.875000 0.250000
vt 0.875000 0.625000
vt 0.875000 0.687500
vt 0.875000 0.125000
vt 0.875000 0.562500
vt 0.875000 0.062500
vt 0.875000 0.500000
vt 0.875000 0.937500
vt 0.890625 1.000000
vt 0.890625 0.000000
vt 0.875000 0.437500
vt 0.875000 0.875000
vt 0.875000 0.375000
vt 0.875000 0.812500
vt 0.875000 0.312500
vt 0.875000 0.750000
vt 0.843750 0.875000
vt 0.843750 0.937500
vt 0.843750 0.375000
vt 0.843750 0.437500
vt 0.843750 0.812500
vt 0.843750 0.312500
vt 0.843750 0.750000
vt 0.843750 0.250000
vt 0.843750 0.687500
vt 0.843750 0.187500
vt 0.843750 0.625000
vt 0.843750 0.125000
vt 0.843750 0.562500
vt 0.843750 0.062500
vt 0.843750 0.500000
vt 0.859375 1.000000
vt 0.859375 0.000000
vt 0.812500 0.625000
vt 0.812500 0.687500
vt 0.812500 0.125000
vt 0.812500 0.187500
vt 0.812500 0.562500
vt 0.812500 0.062500
vt 0.812500 0.500000
vt 0.812500 0.937500
vt 0.828125 1.000000
vt 0.828125 0.000000
vt 0.812500 0.437500
vt 0.812500 0.875000
vt 0.812500 0.375000
vt 0.812500 0.812500
vt 0.812500 0.312500
vt 0.812500 0.750000
vt 0.812500 0.250000
vt 0.781250 0.375000
vt 0.781250 0.437500
vt 0.781250 0.812500
vt 0.781250 0.875000
vt 0.781250 0.312500
vt 0.781250 0.750000
vt 0.781250 0.250000
vt 0.781250 0.687500
vt 0.781250 0.187500
vt 0.781250 0.625000
vt 0.781250 0.125000
vt 0.781250 0.562500
vt 0.781250 0.062500
vt 0.781250 0.500000
vt 0.781250 0.937500
vt 0.796875 1.000000
vt 0.796875 0.000000
vt 0.765625 1.000000
vt 0.765625 0.000000
s 0
usemtl Material.001
f 481/1/1 22/2/1 21/3/1 480/4/1
f 4/5/2 15/6/2 14/7/2 477/8/2
f 482/9/3 23/10/3 22/2/3 481/1/3
f 5/11/4 16/12/4 15/6/4 4/5/4
f 474/13/5 9/14/5 1/15/5
f 8/16/6 23/10/6 482/9/6
f 6/17/7 17/18/7 16/12/7 5/11/7
f 475/19/8 10/20/8 9/14/8 474/13/8
f 478/21/9 18/22/9 17/18/9 6/17/9
f 2/23/10 11/24/10 10/20/10 475/19/10
f 7/25/11 19/26/11 18/22/11 478/21/11
f 476/27/12 12/28/12 11/24/12 2/23/12
f 479/29/13 20/30/13 19/26/13 7/25/13
f 3/31/14 13/32/14 12/28/14 476/27/14
f 480/4/15 21/3/15 20/30/15 479/29/15
f 477/8/16 14/7/16 13/32/16 3/31/16
f 13/32/17 28/33/17 27/34/17 12/28/17
f 21/3/18 36/35/18 35/36/18 20/30/18
f 14/7/19 29/37/19 28/33/19 13/32/19
f 22/2/20 37/38/20 36/35/20 21/3/20
f 15/6/21 30/39/21 29/37/21 14/7/21
f 23/10/22 38/40/22 37/38/22 22/2/22
f 16/12/23 31/41/23 30/39/23 15/6/23
f 9/14/24 24/42/24 1/43/24
f 8/44/25 38/40/25 23/10/25
f 17/18/26 32/45/26 31/41/26 16/12/26
f 10/20/27 25/46/27 24/42/27 9/14/27
f 18/22/28 33/47/28 32/45/28 17/18/28
f 11/24/29 26/48/29 25/46/29 10/20/29
f 19/26/30 34/49/30 33/47/30 18/22/30
f 12/28/31 27/34/31 26/48/31 11/24/31
f 20/30/32 35/36/32 34/49/32 19/26/32
f 32/45/33 47/50/33 46/51/33 31/41/33
f 25/46/34 40/52/34 39/53/34 24/42/34
f 33/47/35 48/54/35 47/50/35 32/45/35
f 26/48/36 41/55/36 40/52/36 25/46/36
f 34/49/37 49/56/37 48/54/37 33/47/37
f 27/34/38 42/57/38 41/55/38 26/48/38
f 35/36/39 50/58/39 49/56/39 34/49/39
f 28/33/40 43/59/40 42/57/40 27/34/40
f 36/35/41 51/60/41 50/58/41 35/36/41
f 29/37/42 44/61/42 43/59/42 28/33/42
f 37/38/43 52/62/43 51/60/43 36/35/43
f 30/39/44 45/63/44 44/61/44 29/37/44
f 38/40/45 53/64/45 52/62/45 37/38/45
f 31/41/46 46/51/46 45/63/46 30/39/46
f 24/42/47 39/53/47 1/65/47
f 8/66/48 53/64/48 38/40/48
f 51/60/49 66/67/49 65/68/49 50/58/49
f 44/61/50 59/69/50 58/70/50 43/59/50
f 52/62/51 67/71/51 66/67/51 51/60/51
f 45/63/52 60/72/52 59/69/52 44/61/52
f 53/64/53 68/73/53 67/71/53 52/62/53
f 46/51/54 61/74/54 60/72/54 45/63/54
f 39/53/55 54/75/55 1/76/55
f 8/77/56 68/73/56 53/64/56
f 47/50/57 62/78/57 61/74/57 46/51/57
f 40/52/58 55/79/58 54/75/58 39/53/58
f 48/54/59 63/80/59 62/78/59 47/50/59
f 41/55/60 56/81/60 55/79/60 40/52/60
f 49/56/61 64/82/61 63/80/61 48/54/61
f 42/57/62 57/83/62 56/81/62 41/55/62
f 50/58/63 65/68/63 64/82/63 49/56/63
f 43/59/64 58/70/64 57/83/64 42/57/64
f 63/80/65 78/84/65 77/85/65 62/78/65
f 56/81/66 71/86/66 70/87/66 55/79/66
f 64/82/67 79/88/67 78/84/67 63/80/67
f 57/83/68 72/89/68 71/86/68 56/81/68
f 65/68/69 80/90/69 79/88/69 64/82/69
f 58/70/70 73/91/70 72/89/70 57/83/70
f 66/67/71 81/92/71 80/90/71 65/68/71
f 59/69/72 74/93/72 73/91/72 58/70/72
f 67/71/73 82/94/73 81/92/73 66/67/73
f 60/72/74 75/95/74 74/93/74 59/69/74
f 68/73/75 83/96/75 82/94/75 67/71/75
f 61/74/76 76/97/76 75/95/76 60/72/76
f 54/75/77 69/98/77 1/99/77
f 8/100/78 83/96/78 68/73/78
f 62/78/79 77/85/79 76/97/79 61/74/79
f 55/79/80 70/87/80 69/98/80 54/75/80
f 82/94/81 97/101/81 96/102/81 81/92/81
f 75/95/82 90/103/82 89/104/82 74/93/82
f 83/96/83 98/105/83 97/101/83 82/94/83
f 76/97/84 91/106/84 90/103/84 75/95/84
f 69/98/85 84/107/85 1/108/85
f 8/109/86 98/105/86 83/96/86
f 77/85/87 92/110/87 91/106/87 76/97/87
f 70/87/88 85/111/88 84/107/88 69/98/88
f 78/84/89 93/112/89 92/110/89 77/85/89
f 71/86/90 86/113/90 85/111/90 70/87/90
f 79/88/91 94/114/91 93/112/91 78/84/91
f 72/89/92 87/115/92 86/113/92 71/86/92
f 80/90/93 95/116/93 94/114/93 79/88/93
f 73/91/94 88/117/94 87/115/94 72/89/94
f 81/92/95 96/102/95 95/116/95 80/90/95
f 74/93/96 89/104/96 88/117/96 73/91/96
f 86/113/97 101/118/97 100/119/97 85/111/97
f 94/114/98 109/120/98 108/121/98 93/112/98
f 87/115/99 102/122/99 101/118/99 86/113/99
f 95/116/100 110/123/100 109/120/100 94/114/100
f 88/117/101 103/124/101 102/122/101 87/115/101
f 96/102/102 111/125/102 110/123/102 95/116/102
f 89/104/103 104/126/103 103/124/103 88/117/103
f 97/101/104 112/127/104 111/125/104 96/102/104
f 90/103/105 105/128/105 104/126/105 89/104/105
f 98/105/106 113/129/106 112/127/106 97/101/106
f 91/106/107 106/130/107 105/128/107 90/103/107
f 84/107/108 99/131/108 1/132/108
f 8/133/109 113/129/109 98/105/109
f 92/110/110 107/134/110 106/130/110 91/106/110
f 85/111/111 100/119/111 99/131/111 84/107/111
f 93/112/112 108/121/112 107/134/112 92/110/112
f 105/128/113 120/135/113 119/136/113 104/126/113
f 113/129/114 128/137/114 127/138/114 112/127/114
f 106/130/115 121/139/115 120/135/115 105/128/115
f 99/131/116 114/140/116 1/141/116
f 8/142/117 128/137/117 113/129/117
f 107/134/118 122/143/118 121/139/118 106/130/118
f 100/119/119 115/144/119 114/140/119 99/131/119
f 108/121/120 123/145/120 122/143/120 107/134/120
f 101/118/121 116/146/121 115/144/121 100/119/121
f 109/120/122 124/147/122 123/145/122 108/121/122
f 102/122/123 117/148/123 116/146/123 101/118/123
f 110/123/124 125/149/124 124/147/124 109/120/124
f 103/124/125 118/150/125 117/148/125 102/122/125
f 111/125/126 126/151/126 125/149/126 110/123/126
f 104/126/127 119/136/127 118/150/127 103/124/127
f 112/127/128 127/138/128 126/151/128 111/125/128
f 124/147/129 139/152/129 138/153/129 123/145/129
f 117/148/130 132/154/130 131/155/130 116/146/130
f 125/149/131 140/156/131 139/152/131 124/147/131
f 118/150/132 133/157/132 132/154/132 117/148/132
f 126/151/133 141/158/133 140/156/133 125/149/133
f 119/136/134 134/159/134 133/157/134 118/150/134
f 127/138/135 142/160/135 141/158/135 126/151/135
f 120/135/136 135/161/136 134/159/136 119/136/136
f 128/137/137 143/162/137 142/160/137 127/138/137
f 121/139/138 136/163/138 135/161/138 120/135/138
f 114/140/139 129/164/139 1/165/139
f 8/166/140 143/162/140 128/137/140
f 122/143/141 137/167/141 136/163/141 121/139/141
f 115/144/142 130/168/142 129/164/142 114/140/142
f 123/145/143 138/153/143 137/167/143 122/143/143
f 116/146/144 131/155/144 130/168/144 115/144/144
f 143/162/145 158/169/145 157/170/145 142/160/145
f 136/163/146 151/171/146 150/172/146 135/161/146
f 129/164/147 144/173/147 1/174/147
f 8/175/148 158/169/148 143/162/148
f 137/167/149 152/176/149 151/171/149 136/163/149
f 130/168/150 145/177/150 144/173/150 129/164/150
f 138/153/151 153/178/151 152/176/151 137/167/151
f 131/155/152 146/179/152 145/177/152 130/168/152
f 139/152/153 154/180/153 153/178/153 138/153/153
f 132/154/154 147/181/154 146/179/154 131/155/154
f 140/156/155 155/182/155 154/180/155 139/152/155
f 133/157/156 148/183/156 147/181/156 132/154/156
f 141/158/157 156/184/157 155/182/157 140/156/157
f 134/159/158 149/185/158 148/183/158 133/157/158
f 142/160/159 157/170/159 156/184/159 141/158/159
f 135/161/160 150/172/160 149/185/160 134/159/160
f 147/181/161 162/186/161 161/187/161 146/179/161
f 155/182/162 170/188/162 169/189/162 154/180/162
f 148/183/163 163/190/163 162/186/163 147/181/163
f 156/184/164 171/191/164 170/188/164 155/182/164
f 149/185/165 164/192/165 163/190/165 148/183/165
f 157/170/166 172/193/166 171/191/166 156/184/166
f 150/172/167 165/194/167 164/192/167 149/185/167
f 158/169/168 173/195/168 172/193/168 157/170/168
f 151/171/169 166/196/169 165/194/169 150/172/169
f 144/173/170 159/197/170 1/198/170
f 8/199/171 173/195/171 158/169/171
f 152/176/172 167/200/172 166/196/172 151/171/172
f 145/177/173 160/201/173 159/197/173 144/173/173
f 153/178/174 168/202/174 167/200/174 152/176/174
f 146/179/175 161/187/175 160/201/175 145/177/175
f 154/180/176 169/189/176 168/202/176 153/178/176
f 166/196/177 181/203/177 180/204/177 165/194/177
f 159/197/178 174/205/178 1/206/178
f 8/207/179 188/208/179 173/195/179
f 167/200/180 182/209/180 181/203/180 166/196/180
f 160/201/181 175/210/181 174/205/181 159/197/181
f 168/202/182 183/211/182 182/209/182 167/200/182
f 161/187/183 176/212/183 175/210/183 160/201/183
f 169/189/184 184/213/184 183/211/184 168/202/184
f 162/186/185 177/214/185 176/212/185 161/187/185
f 170/188/186 185/215/186 184/213/186 169/189/186
f 163/190/187 178/216/187 177/214/187 162/186/187
f 171/191/188 186/217/188 185/215/188 170/188/188
f 164/192/189 179/218/189 178/216/189 163/190/189
f 172/193/190 187/219/190 186/217/190 171/191/190
f 165/194/191 180/204/191 179/218/191 164/192/191
f 173/195/192 188/208/192 187/219/192 172/193/192
f 185/215/193 200/220/193 199/221/193 184/213/193
f 178/216/194 193/222/194 192/223/194 177/214/194
f 186/217/195 201/224/195 200/220/195 185/215/195
f 179/218/196 194/225/196 193/222/196 178/216/196
f 187/219/197 202/226/197 201/224/197 186/217/197
f 180/204/198 195/227/198 194/225/198 179/218/198
f 188/208/199 203/228/199 202/226/199 187/219/199
f 181/203/200 196/229/200 195/227/200 180/204/200
f 174/205/201 189/230/201 1/231/201
f 8/232/202 203/228/202 188/208/202
f 182/209/203 197/233/203 196/229/203 181/203/203
f 175/210/204 190/234/204 189/230/204 174/205/204
f 183/211/205 198/235/205 197/233/205 182/209/205
f 176/212/206 191/236/206 190/234/206 175/210/206
f 184/213/207 199/221/207 198/235/207 183/211/207
f 177/214/208 192/223/208 191/236/208 176/212/208
f 8/237/209 218/238/209 203/228/209
f 197/233/210 212/239/210 211/240/210 196/229/210
f 190/234/211 205/241/211 204/242/211 189/230/211
f 198/235/212 213/243/212 212/239/212 197/233/212
f 191/236/213 206/244/213 205/241/213 190/234/213
f 199/221/214 214/245/214 213/243/214 198/235/214
f 192/223/215 207/246/215 206/244/215 191/236/215
f 200/220/216 215/247/216 214/245/216 199/221/216
f 193/222/217 208/248/217 207/246/217 192/223/217
f 201/224/218 216/249/218 215/247/218 200/220/218
f 194/225/219 209/250/219 208/248/219 193/222/219
f 202/226/220 217/251/220 216/249/220 201/224/220
f 195/227/221 210/252/221 209/250/221 194/225/221
f 203/228/222 218/238/222 217/251/222 202/226/222
f 196/229/223 211/240/223 210/252/223 195/227/223
f 189/230/224 204/242/224 1/253/224
f 216/249/225 231/254/225 230/255/225 215/247/225
f 209/250/226 224/256/226 223/257/226 208/248/226
f 217/251/227 232/258/227 231/254/227 216/249/227
f 210/252/228 225/259/228 224/256/228 209/250/228
f 218/238/229 233/260/229 232/258/229 217/251/229
f 211/240/230 226/261/230 225/259/230 210/252/230
f 204/242/231 219/262/231 1/263/231
f 8/264/232 233/260/232 218/238/232
f 212/239/233 227/265/233 226/261/233 211/240/233
f 205/241/234 220/266/234 219/262/234 204/242/234
f 213/243/235 228/267/235 227/265/235 212/239/235
f 206/244/236 221/268/236 220/266/236 205/241/236
f 214/245/237 229/269/237 228/267/237 213/243/237
f 207/246/238 222/270/238 221/268/238 206/244/238
f 215/247/239 230/255/239 229/269/239 214/245/239
f 208/248/240 223/257/240 222/270/240 207/246/240
f 220/266/241 235/271/241 234/272/241 219/262/241
f 228/267/242 243/273/242 242/274/242 227/265/242
f 221/268/243 236/275/243 235/271/243 220/266/243
f 229/269/244 244/276/244 243/273/244 228/267/244
f 222/270/245 237/277/245 236/275/245 221/268/245
f 230/255/246 245/278/246 244/276/246 229/269/246
f 223/257/247 238/279/247 237/277/247 222/270/247
f 231/254/248 246/280/248 245/278/248 230/255/248
f 224/256/249 239/281/249 238/279/249 223/257/249
f 232/258/250 247/282/250 246/280/250 231/254/250
f 225/259/251 240/283/251 239/281/251 224/256/251
f 233/260/252 248/284/252 247/282/252 232/258/252
f 226/261/253 241/285/253 240/283/253 225/259/253
f 219/262/254 234/272/254 1/286/254
f 8/287/255 248/284/255 233/260/255
f 227/265/256 242/274/256 241/285/256 226/261/256
f 239/281/257 254/288/257 253/289/257 238/279/257
f 247/282/258 262/290/258 261/291/258 246/280/258
f 240/283/259 255/292/259 254/288/259 239/281/259
f 248/284/260 263/293/260 262/290/260 247/282/260
f 241/285/261 256/294/261 255/292/261 240/283/261
f 234/272/262 249/295/262 1/296/262
f 8/297/263 263/293/263 248/284/263
f 242/274/264 257/298/264 256/294/264 241/285/264
f 235/271/265 250/299/265 249/295/265 234/272/265
f 243/273/266 258/300/266 257/298/266 242/274/266
f 236/275/267 251/301/267 250/299/267 235/271/267
f 244/276/268 259/302/268 258/300/268 243/273/268
f 237/277/269 252/303/269 251/301/269 236/275/269
f 245/278/270 260/304/270 259/302/270 244/276/270
f 238/279/271 253/289/271 252/303/271 237/277/271
f 246/280/272 261/291/272 260/304/272 245/278/272
f 258/300/273 273/305/273 272/306/273 257/298/273
f 251/301/274 266/307/274 265/308/274 250/299/274
f 259/302/275 274/309/275 273/305/275 258/300/275
f 252/303/276 267/310/276 266/307/276 251/301/276
f 260/304/277 275/311/277 274/309/277 259/302/277
f 253/289/278 268/312/278 267/310/278 252/303/278
f 261/291/279 276/313/279 275/311/279 260/304/279
f 254/288/280 269/314/280 268/312/280 253/289/280
f 262/290/281 277/315/281 276/313/281 261/291/281
f 255/292/282 270/316/282 269/314/282 254/288/282
f 263/293/283 278/317/283 277/315/283 262/290/283
f 256/294/284 271/318/284 270/316/284 255/292/284
f 249/295/285 264/319/285 1/320/285
f 8/321/286 278/317/286 263/293/286
f 257/298/287 272/306/287 271/318/287 256/294/287
f 250/299/288 265/308/288 264/319/288 249/295/288
f 277/315/289 292/322/289 291/323/289 276/313/289
f 270/316/290 285/324/290 284/325/290 269/314/290
f 278/317/291 293/326/291 292/322/291 277/315/291
f 271/318/292 286/327/292 285/324/292 270/316/292
f 264/319/293 279/328/293 1/329/293
f 8/330/294 293/326/294 278/317/294
f 272/306/295 287/331/295 286/327/295 271/318/295
f 265/308/296 280/332/296 279/328/296 264/319/296
f 273/305/297 288/333/297 287/331/297 272/306/297
f 266/307/298 281/334/298 280/332/298 265/308/298
f 274/309/299 289/335/299 288/333/299 273/305/299
f 267/310/300 282/336/300 281/334/300 266/307/300
f 275/311/301 290/337/301 289/335/301 274/309/301
f 268/312/302 283/338/302 282/336/302 267/310/302
f 276/313/303 291/323/303 290/337/303 275/311/303
f 269/314/304 284/325/304 283/338/304 268/312/304
f 281/334/305 296/339/305 295/340/305 280/332/305
f 289/335/306 304/341/306 303/342/306 288/333/306
f 282/336/307 297/343/307 296/339/307 281/334/307
f 290/337/308 305/344/308 304/341/308 289/335/308
f 283/338/309 298/345/309 297/343/309 282/336/309
f 291/323/310 306/346/310 305/344/310 290/337/310
f 284/325/311 299/347/311 298/345/311 283/338/311
f 292/322/312 307/348/312 306/346/312 291/323/312
f 285/324/313 300/349/313 299/347/313 284/325/313
f 293/326/314 308/350/314 307/348/314 292/322/314
f 286/327/315 301/351/315 300/349/315 285/324/315
f 279/328/316 294/352/316 1/353/316
f 8/354/317 308/350/317 293/326/317
f 287/331/318 302/355/318 301/351/318 286/327/318
f 280/332/319 295/340/319 294/352/319 279/328/319
f 288/333/320 303/342/320 302/355/320 287/331/320
f 300/349/321 315/356/321 314/357/321 299/347/321
f 308/350/322 323/358/322 322/359/322 307/348/322
f 301/351/323 316/360/323 315/356/323 300/349/323
f 294/352/324 309/361/324 1/362/324
f 8/363/325 323/358/325 308/350/325
f 302/355/326 317/364/326 316/360/326 301/351/326
f 295/340/327 310/365/327 309/361/327 294/352/327
f 303/342/328 318/366/328 317/364/328 302/355/328
f 296/339/329 311/367/329 310/365/329 295/340/329
f 304/341/330 319/368/330 318/366/330 303/342/330
f 297/343/331 312/369/331 311/367/331 296/339/331
f 305/344/332 320/370/332 319/368/332 304/341/332
f 298/345/333 313/371/333 312/369/333 297/343/333
f 306/346/334 321/372/334 320/370/334 305/344/334
f 299/347/335 314/357/335 313/371/335 298/345/335
f 307/348/336 322/359/336 321/372/336 306/346/336
f 319/368/337 334/373/337 333/374/337 318/366/337
f 312/369/338 327/375/338 326/376/338 311/367/338
f 320/370/339 335/377/339 334/373/339 319/368/339
f 313/371/340 328/378/340 327/375/340 312/369/340
f 321/372/341 336/379/341 335/377/341 320/370/341
f 314/357/342 329/380/342 328/378/342 313/371/342
f 322/359/343 337/381/343 336/379/343 321/372/343
f 315/356/344 330/382/344 329/380/344 314/357/344
f 323/358/345 338/383/345 337/381/345 322/359/345
f 316/360/346 331/384/346 330/382/346 315/356/346
f 309/361/347 324/385/347 1/386/347
f 8/387/348 338/383/348 323/358/348
f 317/364/349 332/388/349 331/384/349 316/360/349
f 310/365/350 325/389/350 324/385/350 309/361/350
f 318/366/351 333/374/351 332/388/351 317/364/351
f 311/367/352 326/376/352 325/389/352 310/365/352
f 338/383/353 353/390/353 352/391/353 337/381/353
f 331/384/354 346/392/354 345/393/354 330/382/354
f 324/385/355 339/394/355 1/395/355
f 8/396/356 353/390/356 338/383/356
f 332/388/357 347/397/357 346/392/357 331/384/357
f 325/389/358 340/398/358 339/394/358 324/385/358
f 333/374/359 348/399/359 347/397/359 332/388/359
f 326/376/360 341/400/360 340/398/360 325/389/360
f 334/373/361 349/401/361 348/399/361 333/374/361
f 327/375/362 342/402/362 341/400/362 326/376/362
f 335/377/363 350/403/363 349/401/363 334/373/363
f 328/378/364 343/404/364 342/402/364 327/375/364
f 336/379/365 351/405/365 350/403/365 335/377/365
f 329/380/366 344/406/366 343/404/366 328/378/366
f 337/381/367 352/391/367 351/405/367 336/379/367
f 330/382/368 345/393/368 344/406/368 329/380/368
f 350/403/369 365/407/369 364/408/369 349/401/369
f 343/404/370 358/409/370 357/410/370 342/402/370
f 351/405/371 366/411/371 365/407/371 350/403/371
f 344/406/372 359/412/372 358/409/372 343/404/372
f 352/391/373 367/413/373 366/411/373 351/405/373
f 345/393/374 360/414/374 359/412/374 344/406/374
f 353/390/375 368/415/375 367/413/375 352/391/375
f 346/392/376 361/416/376 360/414/376 345/393/376
f 339/394/377 354/417/377 1/418/377
f 8/419/378 368/415/378 353/390/378
f 347/397/379 362/420/379 361/416/379 346/392/379
f 340/398/380 355/421/380 354/417/380 339/394/380
f 348/399/381 363/422/381 362/420/381 347/397/381
f 341/400/382 356/423/382 355/421/382 340/398/382
f 349/401/383 364/408/383 363/422/383 348/399/383
f 342/402/384 357/410/384 356/423/384 341/400/384
f 354/424/385 369/425/385 1/426/385
f 8/427/386 383/428/386 368/429/386
f 362/430/387 377/431/387 376/432/387 361/433/387
f 355/434/388 370/435/388 369/425/388 354/424/388
f 363/436/389 378/437/389 377/431/389 362/430/389
f 356/438/390 371/439/390 370/435/390 355/434/390
f 364/440/391 379/441/391 378/437/391 363/436/391
f 357/442/392 372/443/392 371/439/392 356/438/392
f 365/444/393 380/445/393 379/441/393 364/440/393
f 358/446/394 373/447/394 372/443/394 357/442/394
f 366/448/395 381/449/395 380/445/395 365/444/395
f 359/450/396 374/451/396 373/447/396 358/446/396
f 367/452/397 382/453/397 381/449/397 366/448/397
f 360/454/398 375/455/398 374/451/398 359/450/398
f 368/429/399 383/428/399 382/453/399 367/452/399
f 361/433/400 376/432/400 375/455/400 360/454/400
f 373/447/401 388/456/401 387/457/401 372/443/401
f 381/449/402 396/458/402 395/459/402 380/445/402
f 374/451/403 389/460/403 388/456/403 373/447/403
f 382/453/404 397/461/404 396/458/404 381/449/404
f 375/455/405 390/462/405 389/460/405 374/451/405
f 383/428/406 398/463/406 397/461/406 382/453/406
f 376/432/407 391/464/407 390/462/407 375/455/407
f 369/425/408 384/465/408 1/466/408
f 8/467/409 398/463/409 383/428/409
f 377/431/410 392/468/410 391/464/410 376/432/410
f 370/435/411 385/469/411 384/465/411 369/425/411
f 378/437/412 393/470/412 392/468/412 377/431/412
f 371/439/413 386/471/413 385/469/413 370/435/413
f 379/441/414 394/472/414 393/470/414 378/437/414
f 372/443/415 387/457/415 386/471/415 371/439/415
f 380/445/416 395/459/416 394/472/416 379/441/416
f 392/468/417 407/473/417 406/474/417 391/464/417
f 385/469/418 400/475/418 399/476/418 384/465/418
f 393/470/419 408/477/419 407/473/419 392/468/419
f 386/471/420 401/478/420 400/475/420 385/469/420
f 394/472/421 409/479/421 408/477/421 393/470/421
f 387/457/422 402/480/422 401/478/422 386/471/422
f 395/459/423 410/481/423 409/479/423 394/472/423
f 388/456/424 403/482/424 402/480/424 387/457/424
f 396/458/425 411/483/425 410/481/425 395/459/425
f 389/460/426 404/484/426 403/482/426 388/456/426
f 397/461/427 412/485/427 411/483/427 396/458/427
f 390/462/428 405/486/428 404/484/428 389/460/428
f 398/463/429 413/487/429 412/485/429 397/461/429
f 391/464/430 406/474/430 405/486/430 390/462/430
f 384/465/431 399/476/431 1/488/431
f 8/489/432 413/487/432 398/463/432
f 411/483/433 426/490/433 425/491/433 410/481/433
f 404/484/434 419/492/434 418/493/434 403/482/434
f 412/485/435 427/494/435 426/490/435 411/483/435
f 405/486/436 420/495/436 419/492/436 404/484/436
f 413/487/437 428/496/437 427/494/437 412/485/437
f 406/474/438 421/497/438 420/495/438 405/486/438
f 399/476/439 414/498/439 1/499/439
f 8/500/440 428/496/440 413/487/440
f 407/473/441 422/501/441 421/497/441 406/474/441
f 400/475/442 415/502/442 414/498/442 399/476/442
f 408/477/443 423/503/443 422/501/443 407/473/443
f 401/478/444 416/504/444 415/502/444 400/475/444
f 409/479/445 424/505/445 423/503/445 408/477/445
f 402/480/446 417/506/446 416/504/446 401/478/446
f 410/481/447 425/491/447 424/505/447 409/479/447
f 403/482/448 418/493/448 417/506/448 402/480/448
f 415/502/449 430/507/449 429/508/449 414/498/449
f 423/503/450 438/509/450 437/510/450 422/501/450
f 416/504/451 431/511/451 430/507/451 415/502/451
f 424/505/452 439/512/452 438/509/452 423/503/452
f 417/506/453 432/513/453 431/511/453 416/504/453
f 425/491/454 440/514/454 439/512/454 424/505/454
f 418/493/455 433/515/455 432/513/455 417/506/455
f 426/490/456 441/516/456 440/514/456 425/491/456
f 419/492/457 434/517/457 433/515/457 418/493/457
f 427/494/458 442/518/458 441/516/458 426/490/458
f 420/495/459 435/519/459 434/517/459 419/492/459
f 428/496/460 443/520/460 442/518/460 427/494/460
f 421/497/461 436/521/461 435/519/461 420/495/461
f 414/498/462 429/508/462 1/522/462
f 8/523/463 443/520/463 428/496/463
f 422/501/464 437/510/464 436/521/464 421/497/464
f 434/517/465 449/524/465 448/525/465 433/515/465
f 442/518/466 457/526/466 456/527/466 441/516/466
f 435/519/467 450/528/467 449/524/467 434/517/467
f 443/520/468 458/529/468 457/526/468 442/518/468
f 436/521/469 451/530/469 450/528/469 435/519/469
f 429/508/470 444/531/470 1/532/470
f 8/533/471 458/529/471 443/520/471
f 437/510/472 452/534/472 451/530/472 436/521/472
f 430/507/473 445/535/473 444/531/473 429/508/473
f 438/509/474 453/536/474 452/534/474 437/510/474
f 431/511/475 446/537/475 445/535/475 430/507/475
f 439/512/476 454/538/476 453/536/476 438/509/476
f 432/513/477 447/539/477 446/537/477 431/511/477
f 440/514/478 455/540/478 454/538/478 439/512/478
f 433/515/479 448/525/479 447/539/479 432/513/479
f 441/516/480 456/527/480 455/540/480 440/514/480
f 453/536/481 468/541/481 467/542/481 452/534/481
f 446/537/482 461/543/482 460/544/482 445/535/482
f 454/538/483 469/545/483 468/541/483 453/536/483
f 447/539/484 462/546/484 461/543/484 446/537/484
f 455/540/485 470/547/485 469/545/485 454/538/485
f 448/525/486 463/548/486 462/546/486 447/539/486
f 456/527/487 471/549/487 470/547/487 455/540/487
f 449/524/488 464/550/488 463/548/488 448/525/488
f 457/526/489 472/551/489 471/549/489 456/527/489
f 450/528/490 465/552/490 464/550/490 449/524/490
f 458/529/491 473/553/491 472/551/491 457/526/491
f 451/530/492 466/554/492 465/552/492 450/528/492
f 444/531/493 459/555/493 1/556/493
f 8/557/494 473/553/494 458/529/494
f 452/534/495 467/542/495 466/554/495 451/530/495
f 445/535/496 460/544/496 459/555/496 444/531/496
f 472/551/497 481/1/497 480/4/497 471/549/497
f 465/552/498 4/5/498 477/8/498 464/550/498
f 473/553/499 482/9/499 481/1/499 472/551/499
f 466/554/500 5/11/500 4/5/500 465/552/500
f 459/555/501 474/13/501 1/558/501
f 8/559/502 482/9/502 473/553/502
f 467/542/503 6/17/503 5/11/503 466/554/503
f 460/544/504 475/19/504 474/13/504 459/555/504
f 468/541/505 478/21/505 6/17/505 467/542/505
f 461/543/506 2/23/506 475/19/506 460/544/506
f 469/545/507 7/25/507 478/21/507 468/541/507
f 462/546/508 476/27/508 2/23/508 461/543/508
f 470/547/509 479/29/509 7/25/509 469/545/509
f 463/548/510 3/31/510 476/27/510 462/546/510
f 471/549/511 480/4/511 479/29/511 470/547/511
f 464/550/512 477/8/512 3/31/512 463/548/512
