# Blender 5.1.0
# www.blender.org
mtllib SkyDome2.mtl
o Object_6
v -2.215274 0.831470 -0.555570
v -2.215274 0.555570 -0.831470
v -2.215274 0.195090 -0.980785
v -2.215274 0.000000 -1.000000
v -2.215274 -0.195090 -0.980785
v -2.215274 -0.555570 -0.831470
v -2.177214 0.980785 -0.191342
v -2.140616 0.923880 -0.375330
v -2.106888 0.831470 -0.544895
v -2.077325 0.707107 -0.693520
v -2.053063 0.555570 -0.815493
v -2.035034 0.382684 -0.906128
v -2.023933 0.195090 -0.961940
v -2.020184 0.000000 -0.980785
v -2.023933 -0.195090 -0.961940
v -2.035034 -0.382684 -0.906128
v -2.053063 -0.555570 -0.815493
v -2.077325 -0.707107 -0.693520
v -2.106888 -0.831470 -0.544895
v -2.140616 -0.923880 -0.375330
v -2.177214 -0.980785 -0.191342
v -2.140616 0.980785 -0.180240
v -2.068828 0.923880 -0.353554
v -2.002667 0.831470 -0.513280
v -1.944676 0.707107 -0.653282
v -1.897085 0.555570 -0.768178
v -1.861721 0.382684 -0.853554
v -1.839944 0.195090 -0.906128
v -1.832591 0.000000 -0.923880
v -1.839944 -0.195090 -0.906128
v -1.861721 -0.382684 -0.853554
v -1.897085 -0.555570 -0.768178
v -1.944676 -0.707107 -0.653282
v -2.002667 -0.831470 -0.513280
v -2.068828 -0.923880 -0.353554
v -2.140616 -0.980785 -0.180240
v -2.106888 0.980785 -0.162212
v -2.002667 0.923880 -0.318190
v -1.906616 0.831470 -0.461940
v -1.822427 0.707107 -0.587938
v -1.753335 0.555570 -0.691342
v -1.701994 0.382684 -0.768178
v -1.670379 0.195090 -0.815493
v -1.659704 0.000000 -0.831470
v -1.670379 -0.195090 -0.815493
v -1.701994 -0.382684 -0.768178
v -1.753335 -0.555570 -0.691342
v -1.822427 -0.707107 -0.587938
v -1.906616 -0.831470 -0.461940
v -2.002667 -0.923880 -0.318190
v -2.106888 -0.980785 -0.162212
v -2.077325 0.980785 -0.137950
v -1.944676 0.923880 -0.270598
v -1.822427 0.831470 -0.392847
v -1.715274 0.707107 -0.500000
v -1.627337 0.555570 -0.587938
v -1.561993 0.382684 -0.653282
v -1.521755 0.195090 -0.693520
v -1.508168 0.000000 -0.707107
v -1.521755 -0.195090 -0.693520
v -1.561993 -0.382684 -0.653282
v -1.627337 -0.555570 -0.587938
v -1.715274 -0.707107 -0.500000
v -1.822427 -0.831470 -0.392847
v -1.944676 -0.923880 -0.270598
v -2.077325 -0.980785 -0.137950
v -2.053063 0.980785 -0.108386
v -1.897085 0.923880 -0.212608
v -1.753335 0.831470 -0.308658
v -1.627337 0.707107 -0.392848
v -1.523933 0.555570 -0.461940
v -1.447097 0.382684 -0.513280
v -1.399781 0.195090 -0.544895
v -1.383805 0.000000 -0.555570
v -1.399781 -0.195090 -0.544895
v -1.447097 -0.382684 -0.513280
v -1.523933 -0.555570 -0.461940
v -1.627337 -0.707107 -0.392848
v -1.753335 -0.831470 -0.308658
v -1.897085 -0.923880 -0.212608
v -2.053063 -0.980785 -0.108386
v -2.215274 1.000000 0.000000
v -2.215274 1.000000 0.000000
v -2.215274 1.000000 0.000000
v -2.215274 1.000000 0.000000
v -2.215274 1.000000 0.000000
v -2.215274 1.000000 0.000000
v -2.215274 1.000000 0.000000
v -2.215274 1.000000 0.000000
v -2.215274 1.000000 0.000000
v -2.215274 1.000000 0.000000
v -2.215274 1.000000 0.000000
v -2.215274 1.000000 0.000000
v -2.215274 1.000000 0.000000
v -2.215274 1.000000 0.000000
v -2.215274 1.000000 0.000000
v -2.215274 1.000000 0.000000
v -2.215274 1.000000 0.000000
v -2.215274 1.000000 0.000000
v -2.215274 1.000000 0.000000
v -2.215274 1.000000 0.000000
v -2.215274 1.000000 0.000000
v -2.215274 1.000000 0.000000
v -2.215274 1.000000 0.000000
v -2.215274 1.000000 0.000000
v -2.215274 1.000000 0.000000
v -2.215274 1.000000 0.000000
v -2.215274 1.000000 0.000000
v -2.215274 1.000000 0.000000
v -2.215274 1.000000 0.000000
v -2.215274 1.000000 0.000000
v -2.215274 1.000000 0.000000
v -2.215274 1.000000 0.000000
v -2.035034 0.980785 -0.074658
v -1.861721 0.923880 -0.146447
v -1.701994 0.831470 -0.212608
v -1.561993 0.707107 -0.270598
v -1.447097 0.555570 -0.318190
v -1.361721 0.382684 -0.353554
v -1.309147 0.195090 -0.375330
v -1.291395 0.000000 -0.382683
v -1.309147 -0.195090 -0.375330
v -1.361721 -0.382684 -0.353554
v -1.447097 -0.555570 -0.318190
v -1.561993 -0.707107 -0.270598
v -1.701994 -0.831470 -0.212608
v -1.861721 -0.923880 -0.146447
v -2.035034 -0.980785 -0.074658
v -2.023933 0.980785 -0.038060
v -1.839944 0.923880 -0.074658
v -1.670379 0.831470 -0.108386
v -1.521755 0.707107 -0.137950
v -1.399781 0.555570 -0.162212
v -1.309147 0.382684 -0.180240
v -1.253335 0.195090 -0.191342
v -1.234489 0.000000 -0.195090
v -1.253335 -0.195090 -0.191342
v -1.309147 -0.382684 -0.180240
v -1.399781 -0.555570 -0.162212
v -1.521755 -0.707107 -0.137950
v -1.670379 -0.831470 -0.108386
v -1.839944 -0.923880 -0.074658
v -2.023933 -0.980785 -0.038060
v -2.020184 0.980785 0.000000
v -1.832591 0.923880 0.000000
v -1.659704 0.831470 0.000000
v -1.508168 0.707107 -0.000000
v -1.383805 0.555570 0.000000
v -1.291395 0.382684 -0.000000
v -1.234489 0.195090 0.000000
v -1.215275 0.000000 0.000000
v -1.234489 -0.195090 0.000000
v -1.291395 -0.382684 -0.000000
v -1.383805 -0.555570 0.000000
v -1.508168 -0.707107 -0.000000
v -1.659704 -0.831470 0.000000
v -1.832591 -0.923880 0.000000
v -2.020184 -0.980785 0.000000
v -2.023933 0.980785 0.038060
v -1.839944 0.923880 0.074658
v -1.670379 0.831470 0.108386
v -1.521755 0.707107 0.137950
v -1.399781 0.555570 0.162212
v -1.309147 0.382684 0.180240
v -1.253335 0.195090 0.191342
v -1.234489 0.000000 0.195090
v -1.253335 -0.195090 0.191342
v -1.309147 -0.382684 0.180240
v -1.399781 -0.555570 0.162212
v -1.521755 -0.707107 0.137950
v -1.670379 -0.831470 0.108386
v -1.839944 -0.923880 0.074658
v -2.023933 -0.980785 0.038060
v -2.035034 0.980785 0.074658
v -1.861721 0.923880 0.146447
v -1.701995 0.831470 0.212608
v -1.561993 0.707107 0.270598
v -1.447097 0.555570 0.318190
v -1.361721 0.382684 0.353553
v -1.309147 0.195090 0.375330
v -1.291395 0.000000 0.382684
v -1.309147 -0.195090 0.375330
v -1.361721 -0.382684 0.353553
v -1.447097 -0.555570 0.318190
v -1.561993 -0.707107 0.270598
v -1.701995 -0.831470 0.212608
v -1.861721 -0.923880 0.146447
v -2.035034 -0.980785 0.074658
v -2.053063 0.980785 0.108386
v -1.897085 0.923880 0.212608
v -1.753335 0.831470 0.308658
v -1.627337 0.707107 0.392848
v -1.523933 0.555570 0.461940
v -1.447097 0.382684 0.513280
v -1.399781 0.195090 0.544895
v -1.383805 0.000000 0.555570
v -1.399781 -0.195090 0.544895
v -1.447097 -0.382684 0.513280
v -1.523933 -0.555570 0.461940
v -1.627337 -0.707107 0.392848
v -1.753335 -0.831470 0.308658
v -1.897085 -0.923880 0.212608
v -2.053063 -0.980785 0.108386
v -2.077325 0.980785 0.137950
v -1.944676 0.923880 0.270598
v -1.822427 0.831470 0.392848
v -1.715274 0.707107 0.500000
v -1.627337 0.555570 0.587938
v -1.561993 0.382684 0.653282
v -1.521755 0.195090 0.693520
v -1.508168 0.000000 0.707107
v -1.521755 -0.195090 0.693520
v -1.561993 -0.382684 0.653282
v -1.627337 -0.555570 0.587938
v -1.715274 -0.707107 0.500000
v -1.822427 -0.831470 0.392848
v -1.944676 -0.923880 0.270598
v -2.077325 -0.980785 0.137950
v -2.106888 0.980785 0.162212
v -2.002667 0.923880 0.318190
v -1.906616 0.831470 0.461940
v -1.822427 0.707107 0.587938
v -1.753335 0.555570 0.691342
v -1.701994 0.382684 0.768178
v -1.670379 0.195090 0.815493
v -1.659705 0.000000 0.831470
v -1.670379 -0.195090 0.815493
v -1.701994 -0.382684 0.768178
v -1.753335 -0.555570 0.691342
v -1.822427 -0.707107 0.587938
v -1.906616 -0.831470 0.461940
v -2.002667 -0.923880 0.318190
v -2.106888 -0.980785 0.162212
v -2.140617 0.980785 0.180240
v -2.068828 0.923880 0.353553
v -2.002667 0.831470 0.513280
v -1.944676 0.707107 0.653282
v -1.897085 0.555570 0.768178
v -1.861721 0.382684 0.853553
v -1.839944 0.195090 0.906127
v -1.832591 0.000000 0.923879
v -1.839944 -0.195090 0.906127
v -1.861721 -0.382684 0.853553
v -1.897085 -0.555570 0.768178
v -1.944676 -0.707107 0.653282
v -2.002667 -0.831470 0.513280
v -2.068828 -0.923880 0.353553
v -2.140617 -0.980785 0.180240
v -2.177214 0.980785 0.191342
v -2.140617 0.923880 0.375330
v -2.106888 0.831470 0.544895
v -2.077325 0.707107 0.693520
v -2.053063 0.555570 0.815493
v -2.035034 0.382684 0.906127
v -2.023933 0.195090 0.961940
v -2.020185 0.000000 0.980785
v -2.023933 -0.195090 0.961940
v -2.035034 -0.382684 0.906127
v -2.053063 -0.555570 0.815493
v -2.077325 -0.707107 0.693520
v -2.106888 -0.831470 0.544895
v -2.140617 -0.923880 0.375330
v -2.177214 -0.980785 0.191342
v -2.215274 0.980785 0.195090
v -2.215274 0.923880 0.382683
v -2.215274 0.831470 0.555570
v -2.215274 0.707107 0.707107
v -2.215274 0.555570 0.831469
v -2.215274 0.382684 0.923880
v -2.215275 0.195090 0.980785
v -2.215275 0.000000 1.000000
v -2.215275 -0.195090 0.980785
v -2.215274 -0.382684 0.923880
v -2.215274 -0.555570 0.831469
v -2.215274 -0.707107 0.707107
v -2.215274 -0.831470 0.555570
v -2.215274 -0.923880 0.382683
v -2.215274 -0.980785 0.195090
v -2.253335 0.980785 0.191342
v -2.289932 0.923880 0.375330
v -2.323661 0.831470 0.544895
v -2.353224 0.707107 0.693520
v -2.377486 0.555570 0.815493
v -2.395514 0.382684 0.906127
v -2.406616 0.195090 0.961940
v -2.410365 0.000000 0.980785
v -2.406616 -0.195090 0.961940
v -2.395514 -0.382684 0.906127
v -2.377486 -0.555570 0.815493
v -2.353224 -0.707107 0.693520
v -2.323661 -0.831470 0.544895
v -2.289932 -0.923880 0.375330
v -2.253335 -0.980785 0.191342
v -2.289932 0.980785 0.180240
v -2.361721 0.923880 0.353553
v -2.427882 0.831470 0.513280
v -2.485872 0.707107 0.653282
v -2.533464 0.555570 0.768178
v -2.568828 0.382684 0.853553
v -2.590605 0.195090 0.906127
v -2.597958 0.000000 0.923879
v -2.590605 -0.195090 0.906127
v -2.568828 -0.382684 0.853553
v -2.533464 -0.555570 0.768178
v -2.485872 -0.707107 0.653282
v -2.427882 -0.831470 0.513280
v -2.361721 -0.923880 0.353553
v -2.289932 -0.980785 0.180240
v -2.323661 0.980785 0.162212
v -2.427882 0.923880 0.318190
v -2.523932 0.831470 0.461940
v -2.608122 0.707107 0.587938
v -2.677214 0.555570 0.691342
v -2.728554 0.382684 0.768178
v -2.760170 0.195090 0.815493
v -2.770844 0.000000 0.831469
v -2.760170 -0.195090 0.815493
v -2.728554 -0.382684 0.768178
v -2.677214 -0.555570 0.691342
v -2.608122 -0.707107 0.587938
v -2.523932 -0.831470 0.461940
v -2.427882 -0.923880 0.318190
v -2.323661 -0.980785 0.162212
v -2.353224 0.980785 0.137950
v -2.485872 0.923880 0.270598
v -2.608122 0.831470 0.392847
v -2.715274 0.707107 0.500000
v -2.803212 0.555570 0.587938
v -2.868556 0.382684 0.653281
v -2.908794 0.195090 0.693520
v -2.922381 0.000000 0.707106
v -2.908794 -0.195090 0.693520
v -2.868556 -0.382684 0.653281
v -2.803212 -0.555570 0.587938
v -2.715274 -0.707107 0.500000
v -2.608122 -0.831470 0.392847
v -2.485872 -0.923880 0.270598
v -2.353224 -0.980785 0.137950
v -2.215274 -1.000000 0.000000
v -2.215274 -1.000000 0.000000
v -2.215274 -1.000000 0.000000
v -2.215274 -1.000000 0.000000
v -2.215274 -1.000000 0.000000
v -2.215274 -1.000000 0.000000
v -2.215274 -1.000000 0.000000
v -2.215274 -1.000000 0.000000
v -2.215274 -1.000000 0.000000
v -2.215274 -1.000000 0.000000
v -2.215274 -1.000000 0.000000
v -2.215274 -1.000000 0.000000
v -2.215274 -1.000000 0.000000
v -2.215274 -1.000000 0.000000
v -2.215274 -1.000000 0.000000
v -2.215274 -1.000000 0.000000
v -2.215274 -1.000000 0.000000
v -2.215274 -1.000000 0.000000
v -2.215274 -1.000000 0.000000
v -2.215274 -1.000000 0.000000
v -2.215274 -1.000000 0.000000
v -2.215274 -1.000000 0.000000
v -2.215274 -1.000000 0.000000
v -2.215274 -1.000000 0.000000
v -2.215274 -1.000000 0.000000
v -2.215274 -1.000000 0.000000
v -2.215274 -1.000000 0.000000
v -2.215274 -1.000000 0.000000
v -2.215274 -1.000000 0.000000
v -2.215274 -1.000000 0.000000
v -2.215274 -1.000000 0.000000
v -2.215274 -1.000000 0.000000
v -2.377486 0.980785 0.108386
v -2.533464 0.923880 0.212607
v -2.677214 0.831470 0.308658
v -2.803212 0.707107 0.392847
v -2.906616 0.555570 0.461940
v -2.983452 0.382684 0.513280
v -3.030767 0.195090 0.544895
v -3.046743 0.000000 0.555570
v -3.030767 -0.195090 0.544895
v -2.983452 -0.382684 0.513280
v -2.906616 -0.555570 0.461940
v -2.803212 -0.707107 0.392847
v -2.677214 -0.831470 0.308658
v -2.533464 -0.923880 0.212607
v -2.377486 -0.980785 0.108386
v -2.395514 0.980785 0.074658
v -2.568828 0.923880 0.146447
v -2.728554 0.831470 0.212607
v -2.868556 0.707107 0.270598
v -2.983452 0.555570 0.318189
v -3.068827 0.382684 0.353553
v -3.121402 0.195090 0.375330
v -3.139153 0.000000 0.382683
v -3.121402 -0.195090 0.375330
v -3.068827 -0.382684 0.353553
v -2.983452 -0.555570 0.318189
v -2.868556 -0.707107 0.270598
v -2.728554 -0.831470 0.212607
v -2.568828 -0.923880 0.146447
v -2.395514 -0.980785 0.074658
v -2.406616 0.980785 0.038060
v -2.590605 0.923880 0.074658
v -2.760169 0.831470 0.108386
v -2.908794 0.707107 0.137950
v -3.030767 0.555570 0.162211
v -3.121401 0.382684 0.180240
v -3.177214 0.195090 0.191341
v -3.196059 0.000000 0.195090
v -3.177214 -0.195090 0.191341
v -3.121401 -0.382684 0.180240
v -3.030767 -0.555570 0.162211
v -2.908794 -0.707107 0.137950
v -2.760169 -0.831470 0.108386
v -2.590605 -0.923880 0.074658
v -2.406616 -0.980785 0.038060
v -2.410364 0.980785 -0.000000
v -2.410364 0.980785 -0.000000
v -2.597958 0.923880 -0.000000
v -2.597958 0.923880 -0.000000
v -2.770844 0.831470 -0.000000
v -2.770844 0.831470 -0.000000
v -2.922381 0.707107 -0.000000
v -2.922381 0.707107 -0.000000
v -3.046743 0.555570 -0.000000
v -3.046743 0.555570 -0.000000
v -3.139153 0.382684 -0.000000
v -3.139153 0.382684 -0.000000
v -3.196059 0.195090 -0.000000
v -3.196059 0.195090 -0.000000
v -3.215273 0.000000 -0.000000
v -3.215273 0.000000 -0.000000
v -3.196059 -0.195090 -0.000000
v -3.196059 -0.195090 -0.000000
v -3.139153 -0.382684 -0.000000
v -3.139153 -0.382684 -0.000000
v -3.046743 -0.555570 -0.000000
v -3.046743 -0.555570 -0.000000
v -2.922381 -0.707107 -0.000000
v -2.922381 -0.707107 -0.000000
v -2.770844 -0.831470 -0.000000
v -2.770844 -0.831470 -0.000000
v -2.597958 -0.923880 -0.000000
v -2.597958 -0.923880 -0.000000
v -2.410364 -0.980785 -0.000000
v -2.410364 -0.980785 -0.000000
v -2.406616 0.980785 -0.038060
v -2.590604 0.923880 -0.074658
v -2.760169 0.831470 -0.108386
v -2.908794 0.707107 -0.137950
v -3.030767 0.555570 -0.162212
v -3.121401 0.382684 -0.180240
v -3.177214 0.195090 -0.191342
v -3.196059 0.000000 -0.195091
v -3.177214 -0.195090 -0.191342
v -3.121401 -0.382684 -0.180240
v -3.030767 -0.555570 -0.162212
v -2.908794 -0.707107 -0.137950
v -2.760169 -0.831470 -0.108386
v -2.590604 -0.923880 -0.074658
v -2.406616 -0.980785 -0.038060
v -2.395514 0.980785 -0.074658
v -2.568828 0.923880 -0.146447
v -2.728554 0.831470 -0.212608
v -2.868556 0.707107 -0.270598
v -2.983452 0.555570 -0.318190
v -3.068827 0.382684 -0.353553
v -3.121401 0.195090 -0.375330
v -3.139153 0.000000 -0.382684
v -3.121401 -0.195090 -0.375330
v -3.068827 -0.382684 -0.353553
v -2.983452 -0.555570 -0.318190
v -2.868556 -0.707107 -0.270598
v -2.728554 -0.831470 -0.212608
v -2.568828 -0.923880 -0.146447
v -2.395514 -0.980785 -0.074658
v -2.377486 0.980785 -0.108386
v -2.533464 0.923880 -0.212608
v -2.677214 0.831470 -0.308658
v -2.803212 0.707107 -0.392847
v -2.906615 0.555570 -0.461940
v -2.983452 0.382684 -0.513280
v -3.030767 0.195090 -0.544895
v -3.046743 0.000000 -0.555570
v -3.030767 -0.195090 -0.544895
v -2.983452 -0.382684 -0.513280
v -2.906615 -0.555570 -0.461940
v -2.803212 -0.707107 -0.392847
v -2.677214 -0.831470 -0.308658
v -2.533464 -0.923880 -0.212608
v -2.377486 -0.980785 -0.108386
v -2.353224 0.980785 -0.137950
v -2.485872 0.923880 -0.270598
v -2.608121 0.831470 -0.392847
v -2.715274 0.707107 -0.500000
v -2.803212 0.555570 -0.587938
v -2.868556 0.382684 -0.653281
v -2.908794 0.195090 -0.693520
v -2.922380 0.000000 -0.707107
v -2.908794 -0.195090 -0.693520
v -2.868556 -0.382684 -0.653281
v -2.803212 -0.555570 -0.587938
v -2.715274 -0.707107 -0.500000
v -2.608121 -0.831470 -0.392847
v -2.485872 -0.923880 -0.270598
v -2.353224 -0.980785 -0.137950
v -2.323661 0.980785 -0.162212
v -2.427882 0.923880 -0.318190
v -2.523932 0.831470 -0.461940
v -2.608122 0.707107 -0.587938
v -2.677214 0.555570 -0.691342
v -2.728554 0.382684 -0.768178
v -2.760169 0.195090 -0.815493
v -2.770844 0.000000 -0.831469
v -2.760169 -0.195090 -0.815493
v -2.728554 -0.382684 -0.768178
v -2.677214 -0.555570 -0.691342
v -2.608122 -0.707107 -0.587938
v -2.523932 -0.831470 -0.461940
v -2.427882 -0.923880 -0.318190
v -2.323661 -0.980785 -0.162212
v -2.289932 0.980785 -0.180240
v -2.361721 0.923880 -0.353553
v -2.427881 0.831470 -0.513280
v -2.485872 0.707107 -0.653282
v -2.533463 0.555570 -0.768177
v -2.568828 0.382684 -0.853553
v -2.590604 0.195090 -0.906127
v -2.597957 0.000000 -0.923879
v -2.590604 -0.195090 -0.906127
v -2.568828 -0.382684 -0.853553
v -2.533463 -0.555570 -0.768177
v -2.485872 -0.707107 -0.653282
v -2.427881 -0.831470 -0.513280
v -2.361721 -0.923880 -0.353553
v -2.289932 -0.980785 -0.180240
v -2.253335 0.980785 -0.191342
v -2.289932 0.923880 -0.375330
v -2.323660 0.831470 -0.544895
v -2.353224 0.707107 -0.693520
v -2.377486 0.555570 -0.815493
v -2.395514 0.382684 -0.906127
v -2.406616 0.195090 -0.961939
v -2.410364 0.000000 -0.980784
v -2.406616 -0.195090 -0.961939
v -2.395514 -0.382684 -0.906127
v -2.377486 -0.555570 -0.815493
v -2.353224 -0.707107 -0.693520
v -2.323660 -0.831470 -0.544895
v -2.289932 -0.923880 -0.375330
v -2.253335 -0.980785 -0.191342
v -2.215274 0.980785 -0.195090
v -2.215274 0.923880 -0.382683
v -2.215274 0.707107 -0.707107
v -2.215274 0.382684 -0.923879
v -2.215274 -0.382684 -0.923879
v -2.215274 -0.707107 -0.707107
v -2.215274 -0.831470 -0.555570
v -2.215274 -0.923880 -0.382683
v -2.215274 -0.980785 -0.195090
vn -0.0000 -0.1939 -0.9810
vn -0.0000 -0.0000 -1.0000
vn 0.1951 -0.0000 -0.9808
vn 0.1914 -0.1939 -0.9622
vn -0.0000 0.9217 -0.3879
vn -0.0000 0.9796 -0.2010
vn 0.0392 0.9796 -0.1971
vn 0.0757 0.9217 -0.3804
vn -0.0000 -0.3805 -0.9248
vn 0.1804 -0.3805 -0.9070
vn -0.0000 0.8286 -0.5598
vn 0.1092 0.8286 -0.5490
vn -0.0000 -0.5528 -0.8333
vn 0.1626 -0.5528 -0.8173
vn -0.0000 0.7041 -0.7101
vn 0.1385 0.7041 -0.6965
vn -0.0000 -0.7041 -0.7101
vn 0.1385 -0.7041 -0.6965
vn -0.0000 0.5528 -0.8333
vn 0.1626 0.5528 -0.8173
vn -0.0000 -0.8286 -0.5598
vn 0.1092 -0.8286 -0.5490
vn -0.0000 0.3805 -0.9248
vn 0.1804 0.3805 -0.9070
vn -0.0000 -0.9217 -0.3879
vn 0.0757 -0.9217 -0.3804
vn -0.0000 0.1939 -0.9810
vn 0.1914 0.1939 -0.9622
vn -0.0000 -0.9796 -0.2010
vn 0.0392 -0.9796 -0.1971
vn -0.0000 1.0000 -0.0000
vn -0.0000 -1.0000 -0.0000
vn 0.3754 0.1939 -0.9063
vn 0.3827 -0.0000 -0.9239
vn 0.0769 0.9796 -0.1857
vn 0.0769 -0.9796 -0.1857
vn 0.3754 -0.1939 -0.9063
vn 0.1484 0.9217 -0.3584
vn 0.3539 -0.3805 -0.8544
vn 0.2142 0.8286 -0.5172
vn 0.3189 -0.5528 -0.7699
vn 0.2718 0.7041 -0.6561
vn 0.2718 -0.7041 -0.6561
vn 0.3189 0.5528 -0.7699
vn 0.2142 -0.8286 -0.5172
vn 0.3539 0.3805 -0.8544
vn 0.1484 -0.9217 -0.3584
vn 0.4630 -0.5528 -0.6929
vn 0.3945 -0.7041 -0.5905
vn 0.3945 0.7041 -0.5905
vn 0.4630 0.5528 -0.6929
vn 0.3110 -0.8286 -0.4654
vn 0.5138 0.3805 -0.7689
vn 0.2155 -0.9217 -0.3225
vn 0.5450 0.1939 -0.8157
vn 0.1117 -0.9796 -0.1671
vn 0.5556 -0.0000 -0.8315
vn 0.1117 0.9796 -0.1671
vn 0.5450 -0.1939 -0.8157
vn 0.2155 0.9217 -0.3225
vn 0.5138 -0.3805 -0.7689
vn 0.3110 0.8286 -0.4654
vn 0.1421 0.9796 -0.1421
vn 0.1421 -0.9796 -0.1421
vn 0.7071 -0.0000 -0.7071
vn 0.6937 -0.1939 -0.6937
vn 0.2743 0.9217 -0.2743
vn 0.6539 -0.3805 -0.6539
vn 0.3958 0.8286 -0.3958
vn 0.5893 -0.5528 -0.5893
vn 0.5021 0.7041 -0.5021
vn 0.5021 -0.7041 -0.5021
vn 0.5893 0.5528 -0.5893
vn 0.3958 -0.8286 -0.3958
vn 0.6539 0.3805 -0.6539
vn 0.2743 -0.9217 -0.2743
vn 0.6937 0.1939 -0.6937
vn 0.5905 0.7041 -0.3945
vn 0.6929 0.5528 -0.4630
vn 0.5905 -0.7041 -0.3945
vn 0.4654 -0.8286 -0.3110
vn 0.7689 0.3805 -0.5138
vn 0.3225 -0.9217 -0.2155
vn 0.8157 0.1939 -0.5450
vn 0.1671 -0.9796 -0.1117
vn 0.8315 -0.0000 -0.5556
vn 0.1671 0.9796 -0.1117
vn 0.8157 -0.1939 -0.5450
vn 0.3225 0.9217 -0.2155
vn 0.7689 -0.3805 -0.5138
vn 0.4654 0.8286 -0.3110
vn 0.6929 -0.5528 -0.4630
vn 0.9239 -0.0000 -0.3827
vn 0.9063 -0.1939 -0.3754
vn 0.1857 0.9796 -0.0769
vn 0.3584 0.9217 -0.1484
vn 0.8544 -0.3805 -0.3539
vn 0.5172 0.8286 -0.2142
vn 0.7699 -0.5528 -0.3189
vn 0.6561 0.7041 -0.2718
vn 0.6561 -0.7041 -0.2718
vn 0.7699 0.5528 -0.3189
vn 0.5172 -0.8286 -0.2142
vn 0.8544 0.3805 -0.3539
vn 0.3584 -0.9217 -0.1484
vn 0.9063 0.1939 -0.3754
vn 0.1857 -0.9796 -0.0769
vn 0.6965 -0.7041 -0.1385
vn 0.5490 -0.8286 -0.1092
vn 0.8173 0.5528 -0.1626
vn 0.9070 0.3805 -0.1804
vn 0.3804 -0.9217 -0.0757
vn 0.9622 0.1939 -0.1914
vn 0.1971 -0.9796 -0.0392
vn 0.9808 -0.0000 -0.1951
vn 0.1971 0.9796 -0.0392
vn 0.9622 -0.1939 -0.1914
vn 0.3804 0.9217 -0.0757
vn 0.9070 -0.3805 -0.1804
vn 0.5490 0.8286 -0.1092
vn 0.8173 -0.5528 -0.1626
vn 0.6965 0.7041 -0.1385
vn 0.9810 -0.1939 -0.0000
vn 0.9248 -0.3805 -0.0000
vn 0.3879 0.9217 -0.0000
vn 0.5598 0.8286 -0.0000
vn 0.8333 -0.5528 -0.0000
vn 0.7101 0.7041 -0.0000
vn 0.7101 -0.7041 -0.0000
vn 0.8333 0.5528 -0.0000
vn 0.5598 -0.8286 -0.0000
vn 0.9248 0.3805 -0.0000
vn 0.3879 -0.9217 -0.0000
vn 0.9810 0.1939 -0.0000
vn 0.2010 -0.9796 -0.0000
vn 1.0000 -0.0000 -0.0000
vn 0.2010 0.9796 -0.0000
vn 0.5490 -0.8286 0.1092
vn 0.3804 -0.9217 0.0757
vn 0.9070 0.3805 0.1804
vn 0.9622 0.1939 0.1914
vn 0.1971 -0.9796 0.0392
vn 0.9808 -0.0000 0.1951
vn 0.1971 0.9796 0.0392
vn 0.9622 -0.1939 0.1914
vn 0.3804 0.9217 0.0757
vn 0.9070 -0.3805 0.1804
vn 0.5490 0.8286 0.1092
vn 0.8173 -0.5528 0.1626
vn 0.6965 0.7041 0.1385
vn 0.6965 -0.7041 0.1385
vn 0.8173 0.5528 0.1626
vn 0.3584 0.9217 0.1484
vn 0.5172 0.8286 0.2142
vn 0.8544 -0.3805 0.3539
vn 0.7699 -0.5528 0.3189
vn 0.6561 0.7041 0.2718
vn 0.6561 -0.7041 0.2718
vn 0.7699 0.5528 0.3189
vn 0.5172 -0.8286 0.2142
vn 0.8544 0.3805 0.3539
vn 0.3584 -0.9217 0.1484
vn 0.9063 0.1939 0.3754
vn 0.1857 -0.9796 0.0769
vn 0.9239 -0.0000 0.3827
vn 0.1857 0.9796 0.0769
vn 0.9063 -0.1939 0.3754
vn 0.7689 0.3805 0.5138
vn 0.8157 0.1939 0.5450
vn 0.3225 -0.9217 0.2155
vn 0.1671 -0.9796 0.1117
vn 0.8315 -0.0000 0.5556
vn 0.1671 0.9796 0.1117
vn 0.8157 -0.1939 0.5450
vn 0.3225 0.9217 0.2155
vn 0.7689 -0.3805 0.5138
vn 0.4654 0.8286 0.3110
vn 0.6929 -0.5528 0.4630
vn 0.5905 0.7041 0.3945
vn 0.5905 -0.7041 0.3945
vn 0.6929 0.5528 0.4630
vn 0.4654 -0.8286 0.3110
vn 0.6539 -0.3805 0.6539
vn 0.5893 -0.5528 0.5893
vn 0.3958 0.8286 0.3958
vn 0.5021 0.7041 0.5021
vn 0.5021 -0.7041 0.5021
vn 0.5893 0.5528 0.5893
vn 0.3958 -0.8286 0.3958
vn 0.6539 0.3805 0.6539
vn 0.2743 -0.9217 0.2743
vn 0.6937 0.1939 0.6937
vn 0.1421 -0.9796 0.1421
vn 0.7071 -0.0000 0.7071
vn 0.1421 0.9796 0.1421
vn 0.6937 -0.1939 0.6937
vn 0.2743 0.9217 0.2743
vn 0.2155 -0.9217 0.3225
vn 0.1117 -0.9796 0.1671
vn 0.5450 0.1939 0.8157
vn 0.5556 -0.0000 0.8315
vn 0.1117 0.9796 0.1671
vn 0.5450 -0.1939 0.8157
vn 0.2155 0.9217 0.3225
vn 0.5138 -0.3805 0.7689
vn 0.3110 0.8286 0.4654
vn 0.4630 -0.5528 0.6929
vn 0.3945 0.7041 0.5905
vn 0.3945 -0.7041 0.5905
vn 0.4630 0.5528 0.6929
vn 0.3110 -0.8286 0.4654
vn 0.5138 0.3805 0.7689
vn 0.2142 0.8286 0.5172
vn 0.2718 0.7041 0.6561
vn 0.3189 -0.5528 0.7699
vn 0.2718 -0.7041 0.6561
vn 0.3189 0.5528 0.7699
vn 0.2142 -0.8286 0.5172
vn 0.3539 0.3805 0.8544
vn 0.1484 -0.9217 0.3584
vn 0.3754 0.1939 0.9063
vn 0.0769 -0.9796 0.1857
vn 0.3827 -0.0000 0.9239
vn 0.0769 0.9796 0.1857
vn 0.3754 -0.1939 0.9063
vn 0.1484 0.9217 0.3584
vn 0.3539 -0.3805 0.8544
vn 0.1914 0.1939 0.9622
vn 0.1951 -0.0000 0.9808
vn 0.0392 0.9796 0.1971
vn 0.0392 -0.9796 0.1971
vn 0.1914 -0.1939 0.9622
vn 0.0757 0.9217 0.3804
vn 0.1804 -0.3805 0.9070
vn 0.1092 0.8286 0.5490
vn 0.1626 -0.5528 0.8173
vn 0.1385 0.7041 0.6965
vn 0.1385 -0.7041 0.6965
vn 0.1626 0.5528 0.8173
vn 0.1092 -0.8286 0.5490
vn 0.1804 0.3805 0.9070
vn 0.0757 -0.9217 0.3804
vn -0.0000 -0.5528 0.8333
vn -0.0000 -0.7041 0.7101
vn -0.0000 0.7041 0.7101
vn -0.0000 0.5528 0.8333
vn -0.0000 -0.8286 0.5598
vn -0.0000 0.3805 0.9248
vn -0.0000 -0.9217 0.3879
vn -0.0000 0.1939 0.9810
vn -0.0000 -0.9796 0.2010
vn -0.0000 -0.0000 1.0000
vn -0.0000 0.9796 0.2010
vn -0.0000 -0.1939 0.9810
vn -0.0000 0.9217 0.3879
vn -0.0000 -0.3805 0.9248
vn -0.0000 0.8286 0.5598
vn -0.0392 -0.9796 0.1971
vn -0.1951 -0.0000 0.9808
vn -0.1914 -0.1939 0.9622
vn -0.0392 0.9796 0.1971
vn -0.0757 0.9217 0.3804
vn -0.1804 -0.3805 0.9070
vn -0.1092 0.8286 0.5490
vn -0.1626 -0.5528 0.8173
vn -0.1385 0.7041 0.6965
vn -0.1385 -0.7041 0.6965
vn -0.1626 0.5528 0.8173
vn -0.1092 -0.8286 0.5490
vn -0.1804 0.3805 0.9070
vn -0.0757 -0.9217 0.3804
vn -0.1914 0.1939 0.9622
vn -0.2718 -0.7041 0.6561
vn -0.2142 -0.8286 0.5172
vn -0.3189 0.5528 0.7699
vn -0.3539 0.3805 0.8544
vn -0.1484 -0.9217 0.3584
vn -0.3754 0.1939 0.9063
vn -0.0769 -0.9796 0.1857
vn -0.3827 -0.0000 0.9239
vn -0.0769 0.9796 0.1857
vn -0.3754 -0.1939 0.9063
vn -0.1484 0.9217 0.3584
vn -0.3539 -0.3805 0.8544
vn -0.2142 0.8286 0.5172
vn -0.3189 -0.5528 0.7699
vn -0.2718 0.7041 0.6561
vn -0.1117 0.9796 0.1671
vn -0.2155 0.9217 0.3225
vn -0.5450 -0.1939 0.8157
vn -0.5138 -0.3805 0.7689
vn -0.3110 0.8286 0.4654
vn -0.4630 -0.5528 0.6929
vn -0.3945 0.7041 0.5905
vn -0.3945 -0.7041 0.5905
vn -0.4630 0.5528 0.6929
vn -0.3110 -0.8286 0.4654
vn -0.5138 0.3805 0.7689
vn -0.2155 -0.9217 0.3225
vn -0.5450 0.1939 0.8157
vn -0.1117 -0.9796 0.1671
vn -0.5556 -0.0000 0.8315
vn -0.5893 0.5528 0.5893
vn -0.6539 0.3805 0.6539
vn -0.3958 -0.8286 0.3958
vn -0.2743 -0.9217 0.2743
vn -0.6937 0.1939 0.6937
vn -0.1421 -0.9796 0.1421
vn -0.7071 -0.0000 0.7071
vn -0.1421 0.9796 0.1421
vn -0.6937 -0.1939 0.6937
vn -0.2743 0.9217 0.2743
vn -0.6539 -0.3805 0.6539
vn -0.3958 0.8286 0.3958
vn -0.5893 -0.5528 0.5893
vn -0.5021 0.7041 0.5021
vn -0.5021 -0.7041 0.5021
vn -0.8157 -0.1939 0.5450
vn -0.7689 -0.3805 0.5138
vn -0.3225 0.9217 0.2155
vn -0.4654 0.8286 0.3110
vn -0.6929 -0.5528 0.4630
vn -0.5905 0.7041 0.3945
vn -0.5905 -0.7041 0.3945
vn -0.6929 0.5528 0.4630
vn -0.4654 -0.8286 0.3110
vn -0.7689 0.3805 0.5138
vn -0.3225 -0.9217 0.2155
vn -0.8157 0.1939 0.5450
vn -0.1671 -0.9796 0.1117
vn -0.8315 -0.0000 0.5556
vn -0.1671 0.9796 0.1117
vn -0.5172 -0.8286 0.2142
vn -0.3584 -0.9217 0.1484
vn -0.8544 0.3805 0.3539
vn -0.9063 0.1939 0.3754
vn -0.1857 -0.9796 0.0769
vn -0.9239 -0.0000 0.3827
vn -0.1857 0.9796 0.0769
vn -0.9063 -0.1939 0.3754
vn -0.3584 0.9217 0.1484
vn -0.8544 -0.3805 0.3539
vn -0.5172 0.8286 0.2142
vn -0.7699 -0.5528 0.3189
vn -0.6561 0.7041 0.2718
vn -0.6561 -0.7041 0.2718
vn -0.7699 0.5528 0.3189
vn -0.3804 0.9217 0.0757
vn -0.5490 0.8286 0.1092
vn -0.9070 -0.3805 0.1804
vn -0.8173 -0.5528 0.1626
vn -0.6965 0.7041 0.1385
vn -0.6965 -0.7041 0.1385
vn -0.8173 0.5528 0.1626
vn -0.5490 -0.8286 0.1092
vn -0.9070 0.3805 0.1804
vn -0.3804 -0.9217 0.0757
vn -0.9622 0.1939 0.1914
vn -0.1971 -0.9796 0.0392
vn -0.9808 -0.0000 0.1951
vn -0.1971 0.9796 0.0392
vn -0.9622 -0.1939 0.1914
vn -0.9248 0.3805 -0.0000
vn -0.9810 0.1939 -0.0000
vn -0.3879 -0.9217 -0.0000
vn -0.2010 -0.9796 -0.0000
vn -1.0000 -0.0000 -0.0000
vn -0.2010 0.9796 -0.0000
vn -0.9810 -0.1939 -0.0000
vn -0.3879 0.9217 -0.0000
vn -0.9248 -0.3805 -0.0000
vn -0.5598 0.8286 -0.0000
vn -0.8333 -0.5528 -0.0000
vn -0.7101 0.7041 -0.0000
vn -0.7101 -0.7041 -0.0000
vn -0.8333 0.5528 -0.0000
vn -0.5598 -0.8286 -0.0000
vn -0.9070 -0.3805 -0.1804
vn -0.8173 -0.5528 -0.1626
vn -0.5490 0.8286 -0.1092
vn -0.6965 0.7041 -0.1385
vn -0.6965 -0.7041 -0.1385
vn -0.8173 0.5528 -0.1626
vn -0.5490 -0.8286 -0.1092
vn -0.9070 0.3805 -0.1804
vn -0.3804 -0.9217 -0.0757
vn -0.9622 0.1939 -0.1914
vn -0.1971 -0.9796 -0.0392
vn -0.9808 -0.0000 -0.1951
vn -0.1971 0.9796 -0.0392
vn -0.9622 -0.1939 -0.1914
vn -0.3804 0.9217 -0.0757
vn -0.3584 -0.9217 -0.1484
vn -0.1857 -0.9796 -0.0769
vn -0.9063 0.1939 -0.3754
vn -0.9239 -0.0000 -0.3827
vn -0.1857 0.9796 -0.0769
vn -0.9063 -0.1939 -0.3754
vn -0.3584 0.9217 -0.1484
vn -0.8544 -0.3805 -0.3539
vn -0.5172 0.8286 -0.2142
vn -0.7699 -0.5528 -0.3189
vn -0.6561 0.7041 -0.2718
vn -0.6561 -0.7041 -0.2718
vn -0.7699 0.5528 -0.3189
vn -0.5172 -0.8286 -0.2142
vn -0.8544 0.3805 -0.3539
vn -0.6929 -0.5528 -0.4630
vn -0.5905 -0.7041 -0.3945
vn -0.5905 0.7041 -0.3945
vn -0.6929 0.5528 -0.4630
vn -0.4654 -0.8286 -0.3110
vn -0.7689 0.3805 -0.5138
vn -0.3225 -0.9217 -0.2155
vn -0.8157 0.1939 -0.5450
vn -0.1671 -0.9796 -0.1117
vn -0.8315 -0.0000 -0.5556
vn -0.1671 0.9796 -0.1117
vn -0.8157 -0.1939 -0.5450
vn -0.3225 0.9217 -0.2155
vn -0.7689 -0.3805 -0.5138
vn -0.4654 0.8286 -0.3110
vn -0.1421 0.9796 -0.1421
vn -0.1421 -0.9796 -0.1421
vn -0.7071 -0.0000 -0.7071
vn -0.6937 -0.1939 -0.6937
vn -0.2743 0.9217 -0.2743
vn -0.6539 -0.3805 -0.6539
vn -0.3958 0.8286 -0.3958
vn -0.5893 -0.5528 -0.5893
vn -0.5021 0.7041 -0.5021
vn -0.5021 -0.7041 -0.5021
vn -0.5893 0.5528 -0.5893
vn -0.3958 -0.8286 -0.3958
vn -0.6539 0.3805 -0.6539
vn -0.2743 -0.9217 -0.2743
vn -0.6937 0.1939 -0.6937
vn -0.3945 0.7041 -0.5905
vn -0.4630 0.5528 -0.6929
vn -0.3945 -0.7041 -0.5905
vn -0.3110 -0.8286 -0.4654
vn -0.5138 0.3805 -0.7689
vn -0.2155 -0.9217 -0.3225
vn -0.5450 0.1939 -0.8157
vn -0.1117 -0.9796 -0.1671
vn -0.5556 -0.0000 -0.8315
vn -0.1117 0.9796 -0.1671
vn -0.5450 -0.1939 -0.8157
vn -0.2155 0.9217 -0.3225
vn -0.5138 -0.3805 -0.7689
vn -0.3110 0.8286 -0.4654
vn -0.4630 -0.5528 -0.6929
vn -0.3827 -0.0000 -0.9239
vn -0.3754 -0.1939 -0.9063
vn -0.0769 0.9796 -0.1857
vn -0.1484 0.9217 -0.3584
vn -0.3539 -0.3805 -0.8544
vn -0.2142 0.8286 -0.5172
vn -0.3189 -0.5528 -0.7699
vn -0.2718 0.7041 -0.6561
vn -0.2718 -0.7041 -0.6561
vn -0.3189 0.5528 -0.7699
vn -0.2142 -0.8286 -0.5172
vn -0.3539 0.3805 -0.8544
vn -0.1484 -0.9217 -0.3584
vn -0.3754 0.1939 -0.9063
vn -0.0769 -0.9796 -0.1857
vn -0.1385 -0.7041 -0.6965
vn -0.1092 -0.8286 -0.5490
vn -0.1626 0.5528 -0.8173
vn -0.1804 0.3805 -0.9070
vn -0.0757 -0.9217 -0.3804
vn -0.1914 0.1939 -0.9622
vn -0.0392 -0.9796 -0.1971
vn -0.1951 -0.0000 -0.9808
vn -0.0392 0.9796 -0.1971
vn -0.1914 -0.1939 -0.9622
vn -0.0757 0.9217 -0.3804
vn -0.1804 -0.3805 -0.9070
vn -0.1092 0.8286 -0.5490
vn -0.1626 -0.5528 -0.8173
vn -0.1385 0.7041 -0.6965
vt 0.750000 0.437500
vt 0.750000 0.500000
vt 0.718750 0.500000
vt 0.718750 0.437500
vt 0.750000 0.875000
vt 0.750000 0.937500
vt 0.718750 0.937500
vt 0.718750 0.875000
vt 0.750000 0.375000
vt 0.718750 0.375000
vt 0.750000 0.812500
vt 0.718750 0.812500
vt 0.750000 0.312500
vt 0.718750 0.312500
vt 0.750000 0.750000
vt 0.718750 0.750000
vt 0.750000 0.250000
vt 0.718750 0.250000
vt 0.750000 0.687500
vt 0.718750 0.687500
vt 0.750000 0.187500
vt 0.718750 0.187500
vt 0.750000 0.625000
vt 0.718750 0.625000
vt 0.750000 0.125000
vt 0.718750 0.125000
vt 0.750000 0.562500
vt 0.718750 0.562500
vt 0.750000 0.062500
vt 0.718750 0.062500
vt 0.734375 1.000000
vt 0.734375 0.000000
vt 0.687500 0.562500
vt 0.687500 0.500000
vt 0.703125 1.000000
vt 0.687500 0.937500
vt 0.703125 0.000000
vt 0.687500 0.062500
vt 0.687500 0.437500
vt 0.687500 0.875000
vt 0.687500 0.375000
vt 0.687500 0.812500
vt 0.687500 0.312500
vt 0.687500 0.750000
vt 0.687500 0.250000
vt 0.687500 0.687500
vt 0.687500 0.187500
vt 0.687500 0.625000
vt 0.687500 0.125000
vt 0.656250 0.312500
vt 0.656250 0.250000
vt 0.656250 0.750000
vt 0.656250 0.687500
vt 0.656250 0.187500
vt 0.656250 0.625000
vt 0.656250 0.125000
vt 0.656250 0.562500
vt 0.656250 0.062500
vt 0.656250 0.500000
vt 0.671875 1.000000
vt 0.656250 0.937500
vt 0.671875 0.000000
vt 0.656250 0.437500
vt 0.656250 0.875000
vt 0.656250 0.375000
vt 0.656250 0.812500
vt 0.640625 1.000000
vt 0.625000 0.937500
vt 0.640625 0.000000
vt 0.625000 0.062500
vt 0.625000 0.500000
vt 0.625000 0.437500
vt 0.625000 0.875000
vt 0.625000 0.375000
vt 0.625000 0.812500
vt 0.625000 0.312500
vt 0.625000 0.750000
vt 0.625000 0.250000
vt 0.625000 0.687500
vt 0.625000 0.187500
vt 0.625000 0.625000
vt 0.625000 0.125000
vt 0.625000 0.562500
vt 0.593750 0.750000
vt 0.593750 0.687500
vt 0.593750 0.250000
vt 0.593750 0.187500
vt 0.593750 0.625000
vt 0.593750 0.125000
vt 0.593750 0.562500
vt 0.593750 0.062500
vt 0.593750 0.500000
vt 0.609375 1.000000
vt 0.593750 0.937500
vt 0.609375 0.000000
vt 0.593750 0.437500
vt 0.593750 0.875000
vt 0.593750 0.375000
vt 0.593750 0.812500
vt 0.593750 0.312500
vt 0.562500 0.500000
vt 0.562500 0.437500
vt 0.562500 0.937500
vt 0.562500 0.875000
vt 0.562500 0.375000
vt 0.562500 0.812500
vt 0.562500 0.312500
vt 0.562500 0.750000
vt 0.562500 0.250000
vt 0.562500 0.687500
vt 0.562500 0.187500
vt 0.562500 0.625000
vt 0.562500 0.125000
vt 0.562500 0.562500
vt 0.562500 0.062500
vt 0.578125 1.000000
vt 0.578125 0.000000
vt 0.531250 0.250000
vt 0.531250 0.187500
vt 0.531250 0.687500
vt 0.531250 0.625000
vt 0.531250 0.125000
vt 0.531250 0.562500
vt 0.531250 0.062500
vt 0.531250 0.500000
vt 0.546875 1.000000
vt 0.531250 0.937500
vt 0.546875 0.000000
vt 0.531250 0.437500
vt 0.531250 0.875000
vt 0.531250 0.375000
vt 0.531250 0.812500
vt 0.531250 0.312500
vt 0.531250 0.750000
vt 0.500000 0.437500
vt 0.500000 0.375000
vt 0.500000 0.875000
vt 0.500000 0.812500
vt 0.500000 0.312500
vt 0.500000 0.750000
vt 0.500000 0.250000
vt 0.500000 0.687500
vt 0.500000 0.187500
vt 0.500000 0.625000
vt 0.500000 0.125000
vt 0.500000 0.562500
vt 0.500000 0.062500
vt 0.500000 0.500000
vt 0.515625 1.000000
vt 0.500000 0.937500
vt 0.515625 0.000000
vt 0.468750 0.187500
vt 0.468750 0.125000
vt 0.468750 0.625000
vt 0.468750 0.562500
vt 0.468750 0.062500
vt 0.468750 0.500000
vt 0.484375 1.000000
vt 0.468750 0.937500
vt 0.484375 0.000000
vt 0.468750 0.437500
vt 0.468750 0.875000
vt 0.468750 0.375000
vt 0.468750 0.812500
vt 0.468750 0.312500
vt 0.468750 0.750000
vt 0.468750 0.250000
vt 0.468750 0.687500
vt 0.437500 0.875000
vt 0.437500 0.812500
vt 0.437500 0.375000
vt 0.437500 0.312500
vt 0.437500 0.750000
vt 0.437500 0.250000
vt 0.437500 0.687500
vt 0.437500 0.187500
vt 0.437500 0.625000
vt 0.437500 0.125000
vt 0.437500 0.562500
vt 0.437500 0.062500
vt 0.437500 0.500000
vt 0.453125 1.000000
vt 0.437500 0.937500
vt 0.453125 0.000000
vt 0.437500 0.437500
vt 0.406250 0.625000
vt 0.406250 0.562500
vt 0.406250 0.125000
vt 0.406250 0.062500
vt 0.406250 0.500000
vt 0.421875 1.000000
vt 0.406250 0.937500
vt 0.421875 0.000000
vt 0.406250 0.437500
vt 0.406250 0.875000
vt 0.406250 0.375000
vt 0.406250 0.812500
vt 0.406250 0.312500
vt 0.406250 0.750000
vt 0.406250 0.250000
vt 0.406250 0.687500
vt 0.406250 0.187500
vt 0.375000 0.375000
vt 0.375000 0.312500
vt 0.375000 0.812500
vt 0.375000 0.750000
vt 0.375000 0.250000
vt 0.375000 0.687500
vt 0.375000 0.187500
vt 0.375000 0.625000
vt 0.375000 0.125000
vt 0.375000 0.562500
vt 0.375000 0.062500
vt 0.375000 0.500000
vt 0.390625 1.000000
vt 0.375000 0.937500
vt 0.390625 0.000000
vt 0.375000 0.437500
vt 0.375000 0.875000
vt 0.343750 0.125000
vt 0.343750 0.062500
vt 0.343750 0.562500
vt 0.343750 0.500000
vt 0.359375 1.000000
vt 0.343750 0.937500
vt 0.359375 0.000000
vt 0.343750 0.437500
vt 0.343750 0.875000
vt 0.343750 0.375000
vt 0.343750 0.812500
vt 0.343750 0.312500
vt 0.343750 0.750000
vt 0.343750 0.250000
vt 0.343750 0.687500
vt 0.343750 0.187500
vt 0.343750 0.625000
vt 0.312500 0.812500
vt 0.312500 0.750000
vt 0.312500 0.312500
vt 0.312500 0.250000
vt 0.312500 0.687500
vt 0.312500 0.187500
vt 0.312500 0.625000
vt 0.312500 0.125000
vt 0.312500 0.562500
vt 0.312500 0.062500
vt 0.312500 0.500000
vt 0.328125 1.000000
vt 0.312500 0.937500
vt 0.328125 0.000000
vt 0.312500 0.437500
vt 0.312500 0.875000
vt 0.312500 0.375000
vt 0.281250 0.562500
vt 0.281250 0.500000
vt 0.296875 1.000000
vt 0.281250 0.937500
vt 0.296875 0.000000
vt 0.281250 0.062500
vt 0.281250 0.437500
vt 0.281250 0.875000
vt 0.281250 0.375000
vt 0.281250 0.812500
vt 0.281250 0.312500
vt 0.281250 0.750000
vt 0.281250 0.250000
vt 0.281250 0.687500
vt 0.281250 0.187500
vt 0.281250 0.625000
vt 0.281250 0.125000
vt 0.250000 0.312500
vt 0.250000 0.250000
vt 0.250000 0.750000
vt 0.250000 0.687500
vt 0.250000 0.187500
vt 0.250000 0.625000
vt 0.250000 0.125000
vt 0.250000 0.562500
vt 0.250000 0.062500
vt 0.250000 0.500000
vt 0.265625 1.000000
vt 0.250000 0.937500
vt 0.265625 0.000000
vt 0.250000 0.437500
vt 0.250000 0.875000
vt 0.250000 0.375000
vt 0.250000 0.812500
vt 0.234375 0.000000
vt 0.218750 0.062500
vt 0.218750 0.500000
vt 0.218750 0.437500
vt 0.218750 0.937500
vt 0.218750 0.875000
vt 0.218750 0.375000
vt 0.218750 0.812500
vt 0.218750 0.312500
vt 0.218750 0.750000
vt 0.218750 0.250000
vt 0.218750 0.687500
vt 0.218750 0.187500
vt 0.218750 0.625000
vt 0.218750 0.125000
vt 0.218750 0.562500
vt 0.234375 1.000000
vt 0.187500 0.250000
vt 0.187500 0.187500
vt 0.187500 0.687500
vt 0.187500 0.625000
vt 0.187500 0.125000
vt 0.187500 0.562500
vt 0.187500 0.062500
vt 0.187500 0.500000
vt 0.203125 1.000000
vt 0.187500 0.937500
vt 0.203125 0.000000
vt 0.187500 0.437500
vt 0.187500 0.875000
vt 0.187500 0.375000
vt 0.187500 0.812500
vt 0.187500 0.312500
vt 0.187500 0.750000
vt 0.156250 0.937500
vt 0.156250 0.875000
vt 0.156250 0.437500
vt 0.156250 0.375000
vt 0.156250 0.812500
vt 0.156250 0.312500
vt 0.156250 0.750000
vt 0.156250 0.250000
vt 0.156250 0.687500
vt 0.156250 0.187500
vt 0.156250 0.625000
vt 0.156250 0.125000
vt 0.156250 0.562500
vt 0.156250 0.062500
vt 0.156250 0.500000
vt 0.171875 1.000000
vt 0.171875 0.000000
vt 0.125000 0.687500
vt 0.125000 0.625000
vt 0.125000 0.187500
vt 0.125000 0.125000
vt 0.125000 0.562500
vt 0.125000 0.062500
vt 0.125000 0.500000
vt 0.140625 1.000000
vt 0.125000 0.937500
vt 0.140625 0.000000
vt 0.125000 0.437500
vt 0.125000 0.875000
vt 0.125000 0.375000
vt 0.125000 0.812500
vt 0.125000 0.312500
vt 0.125000 0.750000
vt 0.125000 0.250000
vt 0.093750 0.437500
vt 0.093750 0.375000
vt 0.093750 0.875000
vt 0.093750 0.812500
vt 0.093750 0.312500
vt 0.093750 0.750000
vt 0.093750 0.250000
vt 0.093750 0.687500
vt 0.093750 0.187500
vt 0.093750 0.625000
vt 0.093750 0.125000
vt 0.093750 0.562500
vt 0.093750 0.062500
vt 0.093750 0.500000
vt 0.109375 1.000000
vt 0.093750 0.937500
vt 0.109375 0.000000
vt 0.062500 0.187500
vt 0.062500 0.125000
vt 0.062500 0.625000
vt 0.062500 0.562500
vt 0.062500 0.062500
vt 0.062500 0.500000
vt 0.078125 1.000000
vt 0.062500 0.937500
vt 0.078125 0.000000
vt 0.062500 0.437500
vt 0.062500 0.875000
vt 0.062500 0.375000
vt 0.062500 0.812500
vt 0.062500 0.312500
vt 0.062500 0.750000
vt 0.062500 0.250000
vt 0.062500 0.687500
vt 0.031250 0.875000
vt 0.031250 0.812500
vt 0.031250 0.375000
vt 0.031250 0.312500
vt 0.031250 0.750000
vt 0.031250 0.250000
vt 0.031250 0.687500
vt 0.031250 0.187500
vt 0.031250 0.625000
vt 0.031250 0.125000
vt 0.031250 0.562500
vt 0.031250 0.062500
vt 0.031250 0.500000
vt 0.046875 1.000000
vt 0.031250 0.937500
vt 0.046875 0.000000
vt 0.031250 0.437500
vt 0.000000 0.625000
vt 0.000000 0.562500
vt 0.000000 0.125000
vt 0.000000 0.062500
vt 0.000000 0.500000
vt 0.015625 1.000000
vt 0.000000 0.937500
vt 0.015625 0.000000
vt 0.000000 0.437500
vt 0.000000 0.875000
vt 0.000000 0.375000
vt 0.000000 0.812500
vt 0.000000 0.312500
vt 0.000000 0.750000
vt 0.000000 0.250000
vt 0.000000 0.687500
vt 0.000000 0.187500
vt 1.000000 0.312500
vt 1.000000 0.375000
vt 0.968750 0.375000
vt 0.968750 0.312500
vt 1.000000 0.750000
vt 1.000000 0.812500
vt 0.968750 0.812500
vt 0.968750 0.750000
vt 1.000000 0.250000
vt 0.968750 0.250000
vt 1.000000 0.687500
vt 0.968750 0.687500
vt 1.000000 0.187500
vt 0.968750 0.187500
vt 1.000000 0.625000
vt 0.968750 0.625000
vt 1.000000 0.125000
vt 0.968750 0.125000
vt 1.000000 0.562500
vt 0.968750 0.562500
vt 1.000000 0.062500
vt 0.968750 0.062500
vt 1.000000 0.500000
vt 0.968750 0.500000
vt 1.000000 0.937500
vt 0.984375 1.000000
vt 0.968750 0.937500
vt 0.984375 0.000000
vt 1.000000 0.437500
vt 0.968750 0.437500
vt 1.000000 0.875000
vt 0.968750 0.875000
vt 0.937500 0.125000
vt 0.937500 0.062500
vt 0.937500 0.562500
vt 0.937500 0.500000
vt 0.953125 1.000000
vt 0.937500 0.937500
vt 0.953125 0.000000
vt 0.937500 0.437500
vt 0.937500 0.875000
vt 0.937500 0.375000
vt 0.937500 0.812500
vt 0.937500 0.312500
vt 0.937500 0.750000
vt 0.937500 0.250000
vt 0.937500 0.687500
vt 0.937500 0.187500
vt 0.937500 0.625000
vt 0.906250 0.312500
vt 0.906250 0.250000
vt 0.906250 0.750000
vt 0.906250 0.687500
vt 0.906250 0.187500
vt 0.906250 0.625000
vt 0.906250 0.125000
vt 0.906250 0.562500
vt 0.906250 0.062500
vt 0.906250 0.500000
vt 0.921875 1.000000
vt 0.906250 0.937500
vt 0.921875 0.000000
vt 0.906250 0.437500
vt 0.906250 0.875000
vt 0.906250 0.375000
vt 0.906250 0.812500
vt 0.890625 1.000000
vt 0.875000 0.937500
vt 0.890625 0.000000
vt 0.875000 0.062500
vt 0.875000 0.500000
vt 0.875000 0.437500
vt 0.875000 0.875000
vt 0.875000 0.375000
vt 0.875000 0.812500
vt 0.875000 0.312500
vt 0.875000 0.750000
vt 0.875000 0.250000
vt 0.875000 0.687500
vt 0.875000 0.187500
vt 0.875000 0.625000
vt 0.875000 0.125000
vt 0.875000 0.562500
vt 0.843750 0.750000
vt 0.843750 0.687500
vt 0.843750 0.250000
vt 0.843750 0.187500
vt 0.843750 0.625000
vt 0.843750 0.125000
vt 0.843750 0.562500
vt 0.843750 0.062500
vt 0.843750 0.500000
vt 0.859375 1.000000
vt 0.843750 0.937500
vt 0.859375 0.000000
vt 0.843750 0.437500
vt 0.843750 0.875000
vt 0.843750 0.375000
vt 0.843750 0.812500
vt 0.843750 0.312500
vt 0.812500 0.500000
vt 0.812500 0.437500
vt 0.812500 0.937500
vt 0.812500 0.875000
vt 0.812500 0.375000
vt 0.812500 0.812500
vt 0.812500 0.312500
vt 0.812500 0.750000
vt 0.812500 0.250000
vt 0.812500 0.687500
vt 0.812500 0.187500
vt 0.812500 0.625000
vt 0.812500 0.125000
vt 0.812500 0.562500
vt 0.812500 0.062500
vt 0.828125 1.000000
vt 0.828125 0.000000
vt 0.781250 0.250000
vt 0.781250 0.187500
vt 0.781250 0.687500
vt 0.781250 0.625000
vt 0.781250 0.125000
vt 0.781250 0.562500
vt 0.781250 0.062500
vt 0.781250 0.500000
vt 0.796875 1.000000
vt 0.781250 0.937500
vt 0.796875 0.000000
vt 0.781250 0.437500
vt 0.781250 0.875000
vt 0.781250 0.375000
vt 0.781250 0.812500
vt 0.781250 0.312500
vt 0.781250 0.750000
vt 0.765625 1.000000
vt 0.765625 0.000000
s 1
usemtl .001
f 5/1/1 4/2/2 14/3/3
f 5/1/1 14/3/3 15/4/4
f 552/5/5 551/6/6 7/7/7
f 552/5/5 7/7/7 8/8/8
f 555/9/9 5/1/1 15/4/4
f 555/9/9 15/4/4 16/10/10
f 1/11/11 552/5/5 8/8/8
f 1/11/11 8/8/8 9/12/12
f 6/13/13 555/9/9 16/10/10
f 6/13/13 16/10/10 17/14/14
f 553/15/15 1/11/11 9/12/12
f 553/15/15 9/12/12 10/16/16
f 556/17/17 6/13/13 17/14/14
f 556/17/17 17/14/14 18/18/18
f 2/19/19 553/15/15 10/16/16
f 2/19/19 10/16/16 11/20/20
f 557/21/21 556/17/17 18/18/18
f 557/21/21 18/18/18 19/22/22
f 554/23/23 2/19/19 11/20/20
f 554/23/23 11/20/20 12/24/24
f 558/25/25 557/21/21 19/22/22
f 558/25/25 19/22/22 20/26/26
f 3/27/27 554/23/23 12/24/24
f 3/27/27 12/24/24 13/28/28
f 559/29/29 558/25/25 20/26/26
f 559/29/29 20/26/26 21/30/30
f 4/2/2 3/27/27 13/28/28
f 4/2/2 13/28/28 14/3/3
f 551/6/6 105/31/31 7/7/7
f 362/32/32 559/29/29 21/30/30
f 14/3/3 13/28/28 28/33/33
f 14/3/3 28/33/33 29/34/34
f 7/7/7 104/35/31 22/36/35
f 361/37/32 21/30/30 36/38/36
f 15/4/4 14/3/3 29/34/34
f 15/4/4 29/34/34 30/39/37
f 8/8/8 7/7/7 22/36/35
f 8/8/8 22/36/35 23/40/38
f 16/10/10 15/4/4 30/39/37
f 16/10/10 30/39/37 31/41/39
f 9/12/12 8/8/8 23/40/38
f 9/12/12 23/40/38 24/42/40
f 17/14/14 16/10/10 31/41/39
f 17/14/14 31/41/39 32/43/41
f 10/16/16 9/12/12 24/42/40
f 10/16/16 24/42/40 25/44/42
f 18/18/18 17/14/14 32/43/41
f 18/18/18 32/43/41 33/45/43
f 11/20/20 10/16/16 25/44/42
f 11/20/20 25/44/42 26/46/44
f 19/22/22 18/18/18 33/45/43
f 19/22/22 33/45/43 34/47/45
f 12/24/24 11/20/20 26/46/44
f 12/24/24 26/46/44 27/48/46
f 20/26/26 19/22/22 34/47/45
f 20/26/26 34/47/45 35/49/47
f 13/28/28 12/24/24 27/48/46
f 13/28/28 27/48/46 28/33/33
f 21/30/30 20/26/26 35/49/47
f 21/30/30 35/49/47 36/38/36
f 33/45/43 32/43/41 47/50/48
f 33/45/43 47/50/48 48/51/49
f 26/46/44 25/44/42 40/52/50
f 26/46/44 40/52/50 41/53/51
f 34/47/45 33/45/43 48/51/49
f 34/47/45 48/51/49 49/54/52
f 27/48/46 26/46/44 41/53/51
f 27/48/46 41/53/51 42/55/53
f 35/49/47 34/47/45 49/54/52
f 35/49/47 49/54/52 50/56/54
f 28/33/33 27/48/46 42/55/53
f 28/33/33 42/55/53 43/57/55
f 36/38/36 35/49/47 50/56/54
f 36/38/36 50/56/54 51/58/56
f 29/34/34 28/33/33 43/57/55
f 29/34/34 43/57/55 44/59/57
f 22/36/35 103/60/31 37/61/58
f 360/62/32 36/38/36 51/58/56
f 30/39/37 29/34/34 44/59/57
f 30/39/37 44/59/57 45/63/59
f 23/40/38 22/36/35 37/61/58
f 23/40/38 37/61/58 38/64/60
f 31/41/39 30/39/37 45/63/59
f 31/41/39 45/63/59 46/65/61
f 24/42/40 23/40/38 38/64/60
f 24/42/40 38/64/60 39/66/62
f 32/43/41 31/41/39 46/65/61
f 32/43/41 46/65/61 47/50/48
f 25/44/42 24/42/40 39/66/62
f 25/44/42 39/66/62 40/52/50
f 37/61/58 102/67/31 52/68/63
f 359/69/32 51/58/56 66/70/64
f 45/63/59 44/59/57 59/71/65
f 45/63/59 59/71/65 60/72/66
f 38/64/60 37/61/58 52/68/63
f 38/64/60 52/68/63 53/73/67
f 46/65/61 45/63/59 60/72/66
f 46/65/61 60/72/66 61/74/68
f 39/66/62 38/64/60 53/73/67
f 39/66/62 53/73/67 54/75/69
f 47/50/48 46/65/61 61/74/68
f 47/50/48 61/74/68 62/76/70
f 40/52/50 39/66/62 54/75/69
f 40/52/50 54/75/69 55/77/71
f 48/51/49 47/50/48 62/76/70
f 48/51/49 62/76/70 63/78/72
f 41/53/51 40/52/50 55/77/71
f 41/53/51 55/77/71 56/79/73
f 49/54/52 48/51/49 63/78/72
f 49/54/52 63/78/72 64/80/74
f 42/55/53 41/53/51 56/79/73
f 42/55/53 56/79/73 57/81/75
f 50/56/54 49/54/52 64/80/74
f 50/56/54 64/80/74 65/82/76
f 43/57/55 42/55/53 57/81/75
f 43/57/55 57/81/75 58/83/77
f 51/58/56 50/56/54 65/82/76
f 51/58/56 65/82/76 66/70/64
f 44/59/57 43/57/55 58/83/77
f 44/59/57 58/83/77 59/71/65
f 56/79/73 55/77/71 70/84/78
f 56/79/73 70/84/78 71/85/79
f 64/80/74 63/78/72 78/86/80
f 64/80/74 78/86/80 79/87/81
f 57/81/75 56/79/73 71/85/79
f 57/81/75 71/85/79 72/88/82
f 65/82/76 64/80/74 79/87/81
f 65/82/76 79/87/81 80/89/83
f 58/83/77 57/81/75 72/88/82
f 58/83/77 72/88/82 73/90/84
f 66/70/64 65/82/76 80/89/83
f 66/70/64 80/89/83 81/91/85
f 59/71/65 58/83/77 73/90/84
f 59/71/65 73/90/84 74/92/86
f 52/68/63 101/93/31 67/94/87
f 358/95/32 66/70/64 81/91/85
f 60/72/66 59/71/65 74/92/86
f 60/72/66 74/92/86 75/96/88
f 53/73/67 52/68/63 67/94/87
f 53/73/67 67/94/87 68/97/89
f 61/74/68 60/72/66 75/96/88
f 61/74/68 75/96/88 76/98/90
f 54/75/69 53/73/67 68/97/89
f 54/75/69 68/97/89 69/99/91
f 62/76/70 61/74/68 76/98/90
f 62/76/70 76/98/90 77/100/92
f 55/77/71 54/75/69 69/99/91
f 55/77/71 69/99/91 70/84/78
f 63/78/72 62/76/70 77/100/92
f 63/78/72 77/100/92 78/86/80
f 75/96/88 74/92/86 121/101/93
f 75/96/88 121/101/93 122/102/94
f 68/97/89 67/94/87 114/103/95
f 68/97/89 114/103/95 115/104/96
f 76/98/90 75/96/88 122/102/94
f 76/98/90 122/102/94 123/105/97
f 69/99/91 68/97/89 115/104/96
f 69/99/91 115/104/96 116/106/98
f 77/100/92 76/98/90 123/105/97
f 77/100/92 123/105/97 124/107/99
f 70/84/78 69/99/91 116/106/98
f 70/84/78 116/106/98 117/108/100
f 78/86/80 77/100/92 124/107/99
f 78/86/80 124/107/99 125/109/101
f 71/85/79 70/84/78 117/108/100
f 71/85/79 117/108/100 118/110/102
f 79/87/81 78/86/80 125/109/101
f 79/87/81 125/109/101 126/111/103
f 72/88/82 71/85/79 118/110/102
f 72/88/82 118/110/102 119/112/104
f 80/89/83 79/87/81 126/111/103
f 80/89/83 126/111/103 127/113/105
f 73/90/84 72/88/82 119/112/104
f 73/90/84 119/112/104 120/114/106
f 81/91/85 80/89/83 127/113/105
f 81/91/85 127/113/105 128/115/107
f 74/92/86 73/90/84 120/114/106
f 74/92/86 120/114/106 121/101/93
f 67/94/87 100/116/31 114/103/95
f 357/117/32 81/91/85 128/115/107
f 126/111/103 125/109/101 140/118/108
f 126/111/103 140/118/108 141/119/109
f 119/112/104 118/110/102 133/120/110
f 119/112/104 133/120/110 134/121/111
f 127/113/105 126/111/103 141/119/109
f 127/113/105 141/119/109 142/122/112
f 120/114/106 119/112/104 134/121/111
f 120/114/106 134/121/111 135/123/113
f 128/115/107 127/113/105 142/122/112
f 128/115/107 142/122/112 143/124/114
f 121/101/93 120/114/106 135/123/113
f 121/101/93 135/123/113 136/125/115
f 114/103/95 99/126/31 129/127/116
f 356/128/32 128/115/107 143/124/114
f 122/102/94 121/101/93 136/125/115
f 122/102/94 136/125/115 137/129/117
f 115/104/96 114/103/95 129/127/116
f 115/104/96 129/127/116 130/130/118
f 123/105/97 122/102/94 137/129/117
f 123/105/97 137/129/117 138/131/119
f 116/106/98 115/104/96 130/130/118
f 116/106/98 130/130/118 131/132/120
f 124/107/99 123/105/97 138/131/119
f 124/107/99 138/131/119 139/133/121
f 117/108/100 116/106/98 131/132/120
f 117/108/100 131/132/120 132/134/122
f 125/109/101 124/107/99 139/133/121
f 125/109/101 139/133/121 140/118/108
f 118/110/102 117/108/100 132/134/122
f 118/110/102 132/134/122 133/120/110
f 138/131/119 137/129/117 152/135/123
f 138/131/119 152/135/123 153/136/124
f 131/132/120 130/130/118 145/137/125
f 131/132/120 145/137/125 146/138/126
f 139/133/121 138/131/119 153/136/124
f 139/133/121 153/136/124 154/139/127
f 132/134/122 131/132/120 146/138/126
f 132/134/122 146/138/126 147/140/128
f 140/118/108 139/133/121 154/139/127
f 140/118/108 154/139/127 155/141/129
f 133/120/110 132/134/122 147/140/128
f 133/120/110 147/140/128 148/142/130
f 141/119/109 140/118/108 155/141/129
f 141/119/109 155/141/129 156/143/131
f 134/121/111 133/120/110 148/142/130
f 134/121/111 148/142/130 149/144/132
f 142/122/112 141/119/109 156/143/131
f 142/122/112 156/143/131 157/145/133
f 135/123/113 134/121/111 149/144/132
f 135/123/113 149/144/132 150/146/134
f 143/124/114 142/122/112 157/145/133
f 143/124/114 157/145/133 158/147/135
f 136/125/115 135/123/113 150/146/134
f 136/125/115 150/146/134 151/148/136
f 129/127/116 98/149/31 144/150/137
f 355/151/32 143/124/114 158/147/135
f 137/129/117 136/125/115 151/148/136
f 137/129/117 151/148/136 152/135/123
f 130/130/118 129/127/116 144/150/137
f 130/130/118 144/150/137 145/137/125
f 157/145/133 156/143/131 171/152/138
f 157/145/133 171/152/138 172/153/139
f 150/146/134 149/144/132 164/154/140
f 150/146/134 164/154/140 165/155/141
f 158/147/135 157/145/133 172/153/139
f 158/147/135 172/153/139 173/156/142
f 151/148/136 150/146/134 165/155/141
f 151/148/136 165/155/141 166/157/143
f 144/150/137 97/158/31 159/159/144
f 354/160/32 158/147/135 173/156/142
f 152/135/123 151/148/136 166/157/143
f 152/135/123 166/157/143 167/161/145
f 145/137/125 144/150/137 159/159/144
f 145/137/125 159/159/144 160/162/146
f 153/136/124 152/135/123 167/161/145
f 153/136/124 167/161/145 168/163/147
f 146/138/126 145/137/125 160/162/146
f 146/138/126 160/162/146 161/164/148
f 154/139/127 153/136/124 168/163/147
f 154/139/127 168/163/147 169/165/149
f 147/140/128 146/138/126 161/164/148
f 147/140/128 161/164/148 162/166/150
f 155/141/129 154/139/127 169/165/149
f 155/141/129 169/165/149 170/167/151
f 148/142/130 147/140/128 162/166/150
f 148/142/130 162/166/150 163/168/152
f 156/143/131 155/141/129 170/167/151
f 156/143/131 170/167/151 171/152/138
f 149/144/132 148/142/130 163/168/152
f 149/144/132 163/168/152 164/154/140
f 161/164/148 160/162/146 175/169/153
f 161/164/148 175/169/153 176/170/154
f 169/165/149 168/163/147 183/171/155
f 169/165/149 183/171/155 184/172/156
f 162/166/150 161/164/148 176/170/154
f 162/166/150 176/170/154 177/173/157
f 170/167/151 169/165/149 184/172/156
f 170/167/151 184/172/156 185/174/158
f 163/168/152 162/166/150 177/173/157
f 163/168/152 177/173/157 178/175/159
f 171/152/138 170/167/151 185/174/158
f 171/152/138 185/174/158 186/176/160
f 164/154/140 163/168/152 178/175/159
f 164/154/140 178/175/159 179/177/161
f 172/153/139 171/152/138 186/176/160
f 172/153/139 186/176/160 187/178/162
f 165/155/141 164/154/140 179/177/161
f 165/155/141 179/177/161 180/179/163
f 173/156/142 172/153/139 187/178/162
f 173/156/142 187/178/162 188/180/164
f 166/157/143 165/155/141 180/179/163
f 166/157/143 180/179/163 181/181/165
f 159/159/144 96/182/31 174/183/166
f 353/184/32 173/156/142 188/180/164
f 167/161/145 166/157/143 181/181/165
f 167/161/145 181/181/165 182/185/167
f 160/162/146 159/159/144 174/183/166
f 160/162/146 174/183/166 175/169/153
f 168/163/147 167/161/145 182/185/167
f 168/163/147 182/185/167 183/171/155
f 180/179/163 179/177/161 194/186/168
f 180/179/163 194/186/168 195/187/169
f 188/180/164 187/178/162 202/188/170
f 188/180/164 202/188/170 203/189/171
f 181/181/165 180/179/163 195/187/169
f 181/181/165 195/187/169 196/190/172
f 174/183/166 95/191/31 189/192/173
f 352/193/32 188/180/164 203/189/171
f 182/185/167 181/181/165 196/190/172
f 182/185/167 196/190/172 197/194/174
f 175/169/153 174/183/166 189/192/173
f 175/169/153 189/192/173 190/195/175
f 183/171/155 182/185/167 197/194/174
f 183/171/155 197/194/174 198/196/176
f 176/170/154 175/169/153 190/195/175
f 176/170/154 190/195/175 191/197/177
f 184/172/156 183/171/155 198/196/176
f 184/172/156 198/196/176 199/198/178
f 177/173/157 176/170/154 191/197/177
f 177/173/157 191/197/177 192/199/179
f 185/174/158 184/172/156 199/198/178
f 185/174/158 199/198/178 200/200/180
f 178/175/159 177/173/157 192/199/179
f 178/175/159 192/199/179 193/201/181
f 186/176/160 185/174/158 200/200/180
f 186/176/160 200/200/180 201/202/182
f 179/177/161 178/175/159 193/201/181
f 179/177/161 193/201/181 194/186/168
f 187/178/162 186/176/160 201/202/182
f 187/178/162 201/202/182 202/188/170
f 199/198/178 198/196/176 213/203/183
f 199/198/178 213/203/183 214/204/184
f 192/199/179 191/197/177 206/205/185
f 192/199/179 206/205/185 207/206/186
f 200/200/180 199/198/178 214/204/184
f 200/200/180 214/204/184 215/207/187
f 193/201/181 192/199/179 207/206/186
f 193/201/181 207/206/186 208/208/188
f 201/202/182 200/200/180 215/207/187
f 201/202/182 215/207/187 216/209/189
f 194/186/168 193/201/181 208/208/188
f 194/186/168 208/208/188 209/210/190
f 202/188/170 201/202/182 216/209/189
f 202/188/170 216/209/189 217/211/191
f 195/187/169 194/186/168 209/210/190
f 195/187/169 209/210/190 210/212/192
f 203/189/171 202/188/170 217/211/191
f 203/189/171 217/211/191 218/213/193
f 196/190/172 195/187/169 210/212/192
f 196/190/172 210/212/192 211/214/194
f 189/192/173 94/215/31 204/216/195
f 351/217/32 203/189/171 218/213/193
f 197/194/174 196/190/172 211/214/194
f 197/194/174 211/214/194 212/218/196
f 190/195/175 189/192/173 204/216/195
f 190/195/175 204/216/195 205/219/197
f 198/196/176 197/194/174 212/218/196
f 198/196/176 212/218/196 213/203/183
f 191/197/177 190/195/175 205/219/197
f 191/197/177 205/219/197 206/205/185
f 218/213/193 217/211/191 232/220/198
f 218/213/193 232/220/198 233/221/199
f 211/214/194 210/212/192 225/222/200
f 211/214/194 225/222/200 226/223/201
f 204/216/195 93/224/31 219/225/202
f 350/226/32 218/213/193 233/221/199
f 212/218/196 211/214/194 226/223/201
f 212/218/196 226/223/201 227/227/203
f 205/219/197 204/216/195 219/225/202
f 205/219/197 219/225/202 220/228/204
f 213/203/183 212/218/196 227/227/203
f 213/203/183 227/227/203 228/229/205
f 206/205/185 205/219/197 220/228/204
f 206/205/185 220/228/204 221/230/206
f 214/204/184 213/203/183 228/229/205
f 214/204/184 228/229/205 229/231/207
f 207/206/186 206/205/185 221/230/206
f 207/206/186 221/230/206 222/232/208
f 215/207/187 214/204/184 229/231/207
f 215/207/187 229/231/207 230/233/209
f 208/208/188 207/206/186 222/232/208
f 208/208/188 222/232/208 223/234/210
f 216/209/189 215/207/187 230/233/209
f 216/209/189 230/233/209 231/235/211
f 209/210/190 208/208/188 223/234/210
f 209/210/190 223/234/210 224/236/212
f 217/211/191 216/209/189 231/235/211
f 217/211/191 231/235/211 232/220/198
f 210/212/192 209/210/190 224/236/212
f 210/212/192 224/236/212 225/222/200
f 222/232/208 221/230/206 236/237/213
f 222/232/208 236/237/213 237/238/214
f 230/233/209 229/231/207 244/239/215
f 230/233/209 244/239/215 245/240/216
f 223/234/210 222/232/208 237/238/214
f 223/234/210 237/238/214 238/241/217
f 231/235/211 230/233/209 245/240/216
f 231/235/211 245/240/216 246/242/218
f 224/236/212 223/234/210 238/241/217
f 224/236/212 238/241/217 239/243/219
f 232/220/198 231/235/211 246/242/218
f 232/220/198 246/242/218 247/244/220
f 225/222/200 224/236/212 239/243/219
f 225/222/200 239/243/219 240/245/221
f 233/221/199 232/220/198 247/244/220
f 233/221/199 247/244/220 248/246/222
f 226/223/201 225/222/200 240/245/221
f 226/223/201 240/245/221 241/247/223
f 219/225/202 92/248/31 234/249/224
f 349/250/32 233/221/199 248/246/222
f 227/227/203 226/223/201 241/247/223
f 227/227/203 241/247/223 242/251/225
f 220/228/204 219/225/202 234/249/224
f 220/228/204 234/249/224 235/252/226
f 228/229/205 227/227/203 242/251/225
f 228/229/205 242/251/225 243/253/227
f 221/230/206 220/228/204 235/252/226
f 221/230/206 235/252/226 236/237/213
f 229/231/207 228/229/205 243/253/227
f 229/231/207 243/253/227 244/239/215
f 241/247/223 240/245/221 255/254/228
f 241/247/223 255/254/228 256/255/229
f 234/249/224 91/256/31 249/257/230
f 348/258/32 248/246/222 263/259/231
f 242/251/225 241/247/223 256/255/229
f 242/251/225 256/255/229 257/260/232
f 235/252/226 234/249/224 249/257/230
f 235/252/226 249/257/230 250/261/233
f 243/253/227 242/251/225 257/260/232
f 243/253/227 257/260/232 258/262/234
f 236/237/213 235/252/226 250/261/233
f 236/237/213 250/261/233 251/263/235
f 244/239/215 243/253/227 258/262/234
f 244/239/215 258/262/234 259/264/236
f 237/238/214 236/237/213 251/263/235
f 237/238/214 251/263/235 252/265/237
f 245/240/216 244/239/215 259/264/236
f 245/240/216 259/264/236 260/266/238
f 238/241/217 237/238/214 252/265/237
f 238/241/217 252/265/237 253/267/239
f 246/242/218 245/240/216 260/266/238
f 246/242/218 260/266/238 261/268/240
f 239/243/219 238/241/217 253/267/239
f 239/243/219 253/267/239 254/269/241
f 247/244/220 246/242/218 261/268/240
f 247/244/220 261/268/240 262/270/242
f 240/245/221 239/243/219 254/269/241
f 240/245/221 254/269/241 255/254/228
f 248/246/222 247/244/220 262/270/242
f 248/246/222 262/270/242 263/259/231
f 260/266/238 259/264/236 274/271/243
f 260/266/238 274/271/243 275/272/244
f 253/267/239 252/265/237 267/273/245
f 253/267/239 267/273/245 268/274/246
f 261/268/240 260/266/238 275/272/244
f 261/268/240 275/272/244 276/275/247
f 254/269/241 253/267/239 268/274/246
f 254/269/241 268/274/246 269/276/248
f 262/270/242 261/268/240 276/275/247
f 262/270/242 276/275/247 277/277/249
f 255/254/228 254/269/241 269/276/248
f 255/254/228 269/276/248 270/278/250
f 263/259/231 262/270/242 277/277/249
f 263/259/231 277/277/249 278/279/251
f 256/255/229 255/254/228 270/278/250
f 256/255/229 270/278/250 271/280/252
f 249/257/230 90/281/31 264/282/253
f 347/283/32 263/259/231 278/279/251
f 257/260/232 256/255/229 271/280/252
f 257/260/232 271/280/252 272/284/254
f 250/261/233 249/257/230 264/282/253
f 250/261/233 264/282/253 265/285/255
f 258/262/234 257/260/232 272/284/254
f 258/262/234 272/284/254 273/286/256
f 251/263/235 250/261/233 265/285/255
f 251/263/235 265/285/255 266/287/257
f 259/264/236 258/262/234 273/286/256
f 259/264/236 273/286/256 274/271/243
f 252/265/237 251/263/235 266/287/257
f 252/265/237 266/287/257 267/273/245
f 346/288/32 278/279/251 293/289/258
f 272/284/254 271/280/252 286/290/259
f 272/284/254 286/290/259 287/291/260
f 265/285/255 264/282/253 279/292/261
f 265/285/255 279/292/261 280/293/262
f 273/286/256 272/284/254 287/291/260
f 273/286/256 287/291/260 288/294/263
f 266/287/257 265/285/255 280/293/262
f 266/287/257 280/293/262 281/295/264
f 274/271/243 273/286/256 288/294/263
f 274/271/243 288/294/263 289/296/265
f 267/273/245 266/287/257 281/295/264
f 267/273/245 281/295/264 282/297/266
f 275/272/244 274/271/243 289/296/265
f 275/272/244 289/296/265 290/298/267
f 268/274/246 267/273/245 282/297/266
f 268/274/246 282/297/266 283/299/268
f 276/275/247 275/272/244 290/298/267
f 276/275/247 290/298/267 291/300/269
f 269/276/248 268/274/246 283/299/268
f 269/276/248 283/299/268 284/301/270
f 277/277/249 276/275/247 291/300/269
f 277/277/249 291/300/269 292/302/271
f 270/278/250 269/276/248 284/301/270
f 270/278/250 284/301/270 285/303/272
f 278/279/251 277/277/249 292/302/271
f 278/279/251 292/302/271 293/289/258
f 271/280/252 270/278/250 285/303/272
f 271/280/252 285/303/272 286/290/259
f 264/282/253 89/304/31 279/292/261
f 291/300/269 290/298/267 305/305/273
f 291/300/269 305/305/273 306/306/274
f 284/301/270 283/299/268 298/307/275
f 284/301/270 298/307/275 299/308/276
f 292/302/271 291/300/269 306/306/274
f 292/302/271 306/306/274 307/309/277
f 285/303/272 284/301/270 299/308/276
f 285/303/272 299/308/276 300/310/278
f 293/289/258 292/302/271 307/309/277
f 293/289/258 307/309/277 308/311/279
f 286/290/259 285/303/272 300/310/278
f 286/290/259 300/310/278 301/312/280
f 279/292/261 88/313/31 294/314/281
f 345/315/32 293/289/258 308/311/279
f 287/291/260 286/290/259 301/312/280
f 287/291/260 301/312/280 302/316/282
f 280/293/262 279/292/261 294/314/281
f 280/293/262 294/314/281 295/317/283
f 288/294/263 287/291/260 302/316/282
f 288/294/263 302/316/282 303/318/284
f 281/295/264 280/293/262 295/317/283
f 281/295/264 295/317/283 296/319/285
f 289/296/265 288/294/263 303/318/284
f 289/296/265 303/318/284 304/320/286
f 282/297/266 281/295/264 296/319/285
f 282/297/266 296/319/285 297/321/287
f 290/298/267 289/296/265 304/320/286
f 290/298/267 304/320/286 305/305/273
f 283/299/268 282/297/266 297/321/287
f 283/299/268 297/321/287 298/307/275
f 295/317/283 294/314/281 309/322/288
f 295/317/283 309/322/288 310/323/289
f 303/318/284 302/316/282 317/324/290
f 303/318/284 317/324/290 318/325/291
f 296/319/285 295/317/283 310/323/289
f 296/319/285 310/323/289 311/326/292
f 304/320/286 303/318/284 318/325/291
f 304/320/286 318/325/291 319/327/293
f 297/321/287 296/319/285 311/326/292
f 297/321/287 311/326/292 312/328/294
f 305/305/273 304/320/286 319/327/293
f 305/305/273 319/327/293 320/329/295
f 298/307/275 297/321/287 312/328/294
f 298/307/275 312/328/294 313/330/296
f 306/306/274 305/305/273 320/329/295
f 306/306/274 320/329/295 321/331/297
f 299/308/276 298/307/275 313/330/296
f 299/308/276 313/330/296 314/332/298
f 307/309/277 306/306/274 321/331/297
f 307/309/277 321/331/297 322/333/299
f 300/310/278 299/308/276 314/332/298
f 300/310/278 314/332/298 315/334/300
f 308/311/279 307/309/277 322/333/299
f 308/311/279 322/333/299 323/335/301
f 301/312/280 300/310/278 315/334/300
f 301/312/280 315/334/300 316/336/302
f 294/314/281 87/337/31 309/322/288
f 344/338/32 308/311/279 323/335/301
f 302/316/282 301/312/280 316/336/302
f 302/316/282 316/336/302 317/324/290
f 314/332/298 313/330/296 328/339/303
f 314/332/298 328/339/303 329/340/304
f 322/333/299 321/331/297 336/341/305
f 322/333/299 336/341/305 337/342/306
f 315/334/300 314/332/298 329/340/304
f 315/334/300 329/340/304 330/343/307
f 323/335/301 322/333/299 337/342/306
f 323/335/301 337/342/306 338/344/308
f 316/336/302 315/334/300 330/343/307
f 316/336/302 330/343/307 331/345/309
f 309/322/288 86/346/31 324/347/310
f 343/348/32 323/335/301 338/344/308
f 317/324/290 316/336/302 331/345/309
f 317/324/290 331/345/309 332/349/311
f 310/323/289 309/322/288 324/347/310
f 310/323/289 324/347/310 325/350/312
f 318/325/291 317/324/290 332/349/311
f 318/325/291 332/349/311 333/351/313
f 311/326/292 310/323/289 325/350/312
f 311/326/292 325/350/312 326/352/314
f 319/327/293 318/325/291 333/351/313
f 319/327/293 333/351/313 334/353/315
f 312/328/294 311/326/292 326/352/314
f 312/328/294 326/352/314 327/354/316
f 320/329/295 319/327/293 334/353/315
f 320/329/295 334/353/315 335/355/317
f 313/330/296 312/328/294 327/354/316
f 313/330/296 327/354/316 328/339/303
f 321/331/297 320/329/295 335/355/317
f 321/331/297 335/355/317 336/341/305
f 333/351/313 332/349/311 379/356/318
f 333/351/313 379/356/318 380/357/319
f 326/352/314 325/350/312 372/358/320
f 326/352/314 372/358/320 373/359/321
f 334/353/315 333/351/313 380/357/319
f 334/353/315 380/357/319 381/360/322
f 327/354/316 326/352/314 373/359/321
f 327/354/316 373/359/321 374/361/323
f 335/355/317 334/353/315 381/360/322
f 335/355/317 381/360/322 382/362/324
f 328/339/303 327/354/316 374/361/323
f 328/339/303 374/361/323 375/363/325
f 336/341/305 335/355/317 382/362/324
f 336/341/305 382/362/324 383/364/326
f 329/340/304 328/339/303 375/363/325
f 329/340/304 375/363/325 376/365/327
f 337/342/306 336/341/305 383/364/326
f 337/342/306 383/364/326 384/366/328
f 330/343/307 329/340/304 376/365/327
f 330/343/307 376/365/327 377/367/329
f 338/344/308 337/342/306 384/366/328
f 338/344/308 384/366/328 385/368/330
f 331/345/309 330/343/307 377/367/329
f 331/345/309 377/367/329 378/369/331
f 324/347/310 85/370/31 371/371/332
f 342/372/32 338/344/308 385/368/330
f 332/349/311 331/345/309 378/369/331
f 332/349/311 378/369/331 379/356/318
f 325/350/312 324/347/310 371/371/332
f 325/350/312 371/371/332 372/358/320
f 384/366/328 383/364/326 398/373/333
f 384/366/328 398/373/333 399/374/334
f 377/367/329 376/365/327 391/375/335
f 377/367/329 391/375/335 392/376/336
f 385/368/330 384/366/328 399/374/334
f 385/368/330 399/374/334 400/377/337
f 378/369/331 377/367/329 392/376/336
f 378/369/331 392/376/336 393/378/338
f 371/371/332 84/379/31 386/380/339
f 341/381/32 385/368/330 400/377/337
f 379/356/318 378/369/331 393/378/338
f 379/356/318 393/378/338 394/382/340
f 372/358/320 371/371/332 386/380/339
f 372/358/320 386/380/339 387/383/341
f 380/357/319 379/356/318 394/382/340
f 380/357/319 394/382/340 395/384/342
f 373/359/321 372/358/320 387/383/341
f 373/359/321 387/383/341 388/385/343
f 381/360/322 380/357/319 395/384/342
f 381/360/322 395/384/342 396/386/344
f 374/361/323 373/359/321 388/385/343
f 374/361/323 388/385/343 389/387/345
f 382/362/324 381/360/322 396/386/344
f 382/362/324 396/386/344 397/388/346
f 375/363/325 374/361/323 389/387/345
f 375/363/325 389/387/345 390/389/347
f 383/364/326 382/362/324 397/388/346
f 383/364/326 397/388/346 398/373/333
f 376/365/327 375/363/325 390/389/347
f 376/365/327 390/389/347 391/375/335
f 388/385/343 387/383/341 402/390/348
f 388/385/343 402/390/348 403/391/349
f 396/386/344 395/384/342 410/392/350
f 396/386/344 410/392/350 411/393/351
f 389/387/345 388/385/343 403/391/349
f 389/387/345 403/391/349 404/394/352
f 397/388/346 396/386/344 411/393/351
f 397/388/346 411/393/351 412/395/353
f 390/389/347 389/387/345 404/394/352
f 390/389/347 404/394/352 405/396/354
f 398/373/333 397/388/346 412/395/353
f 398/373/333 412/395/353 413/397/355
f 391/375/335 390/389/347 405/396/354
f 391/375/335 405/396/354 406/398/356
f 399/374/334 398/373/333 413/397/355
f 399/374/334 413/397/355 414/399/357
f 392/376/336 391/375/335 406/398/356
f 392/376/336 406/398/356 407/400/358
f 400/377/337 399/374/334 414/399/357
f 400/377/337 414/399/357 415/401/359
f 393/378/338 392/376/336 407/400/358
f 393/378/338 407/400/358 408/402/360
f 386/380/339 83/403/31 401/404/361
f 340/405/32 400/377/337 415/401/359
f 394/382/340 393/378/338 408/402/360
f 394/382/340 408/402/360 409/406/362
f 387/383/341 386/380/339 401/404/361
f 387/383/341 401/404/361 402/390/348
f 395/384/342 394/382/340 409/406/362
f 395/384/342 409/406/362 410/392/350
f 407/400/358 406/398/356 426/407/363
f 407/400/358 426/407/363 428/408/364
f 415/401/359 414/399/357 442/409/365
f 415/401/359 442/409/365 444/410/366
f 408/402/360 407/400/358 428/408/364
f 408/402/360 428/408/364 430/411/367
f 401/404/361 82/412/31 416/413/368
f 339/414/32 415/401/359 444/410/366
f 409/406/362 408/402/360 430/411/367
f 409/406/362 430/411/367 432/415/369
f 402/390/348 401/404/361 416/413/368
f 402/390/348 416/413/368 418/416/370
f 410/392/350 409/406/362 432/415/369
f 410/392/350 432/415/369 434/417/371
f 403/391/349 402/390/348 418/416/370
f 403/391/349 418/416/370 420/418/372
f 411/393/351 410/392/350 434/417/371
f 411/393/351 434/417/371 436/419/373
f 404/394/352 403/391/349 420/418/372
f 404/394/352 420/418/372 422/420/374
f 412/395/353 411/393/351 436/419/373
f 412/395/353 436/419/373 438/421/375
f 405/396/354 404/394/352 422/420/374
f 405/396/354 422/420/374 424/422/376
f 413/397/355 412/395/353 438/421/375
f 413/397/355 438/421/375 440/423/377
f 406/398/356 405/396/354 424/422/376
f 406/398/356 424/422/376 426/407/363
f 414/399/357 413/397/355 440/423/377
f 414/399/357 440/423/377 442/409/365
f 437/424/373 435/425/371 455/426/378
f 437/424/373 455/426/378 456/427/379
f 423/428/374 421/429/372 448/430/380
f 423/428/374 448/430/380 449/431/381
f 439/432/375 437/424/373 456/427/379
f 439/432/375 456/427/379 457/433/382
f 425/434/376 423/428/374 449/431/381
f 425/434/376 449/431/381 450/435/383
f 441/436/377 439/432/375 457/433/382
f 441/436/377 457/433/382 458/437/384
f 427/438/363 425/434/376 450/435/383
f 427/438/363 450/435/383 451/439/385
f 443/440/365 441/436/377 458/437/384
f 443/440/365 458/437/384 459/441/386
f 429/442/364 427/438/363 451/439/385
f 429/442/364 451/439/385 452/443/387
f 445/444/366 443/440/365 459/441/386
f 445/444/366 459/441/386 460/445/388
f 431/446/367 429/442/364 452/443/387
f 431/446/367 452/443/387 453/447/389
f 417/448/368 113/449/31 446/450/390
f 370/451/32 445/444/366 460/445/388
f 433/452/369 431/446/367 453/447/389
f 433/452/369 453/447/389 454/453/391
f 419/454/370 417/448/368 446/450/390
f 419/454/370 446/450/390 447/455/392
f 435/425/371 433/452/369 454/453/391
f 435/425/371 454/453/391 455/426/378
f 421/429/372 419/454/370 447/455/392
f 421/429/372 447/455/392 448/430/380
f 460/445/388 459/441/386 474/456/393
f 460/445/388 474/456/393 475/457/394
f 453/447/389 452/443/387 467/458/395
f 453/447/389 467/458/395 468/459/396
f 446/450/390 112/460/31 461/461/397
f 369/462/32 460/445/388 475/457/394
f 454/453/391 453/447/389 468/459/396
f 454/453/391 468/459/396 469/463/398
f 447/455/392 446/450/390 461/461/397
f 447/455/392 461/461/397 462/464/399
f 455/426/378 454/453/391 469/463/398
f 455/426/378 469/463/398 470/465/400
f 448/430/380 447/455/392 462/464/399
f 448/430/380 462/464/399 463/466/401
f 456/427/379 455/426/378 470/465/400
f 456/427/379 470/465/400 471/467/402
f 449/431/381 448/430/380 463/466/401
f 449/431/381 463/466/401 464/468/403
f 457/433/382 456/427/379 471/467/402
f 457/433/382 471/467/402 472/469/404
f 450/435/383 449/431/381 464/468/403
f 450/435/383 464/468/403 465/470/405
f 458/437/384 457/433/382 472/469/404
f 458/437/384 472/469/404 473/471/406
f 451/439/385 450/435/383 465/470/405
f 451/439/385 465/470/405 466/472/407
f 459/441/386 458/437/384 473/471/406
f 459/441/386 473/471/406 474/456/393
f 452/443/387 451/439/385 466/472/407
f 452/443/387 466/472/407 467/458/395
f 472/469/404 471/467/402 486/473/408
f 472/469/404 486/473/408 487/474/409
f 465/470/405 464/468/403 479/475/410
f 465/470/405 479/475/410 480/476/411
f 473/471/406 472/469/404 487/474/409
f 473/471/406 487/474/409 488/477/412
f 466/472/407 465/470/405 480/476/411
f 466/472/407 480/476/411 481/478/413
f 474/456/393 473/471/406 488/477/412
f 474/456/393 488/477/412 489/479/414
f 467/458/395 466/472/407 481/478/413
f 467/458/395 481/478/413 482/480/415
f 475/457/394 474/456/393 489/479/414
f 475/457/394 489/479/414 490/481/416
f 468/459/396 467/458/395 482/480/415
f 468/459/396 482/480/415 483/482/417
f 461/461/397 111/483/31 476/484/418
f 368/485/32 475/457/394 490/481/416
f 469/463/398 468/459/396 483/482/417
f 469/463/398 483/482/417 484/486/419
f 462/464/399 461/461/397 476/484/418
f 462/464/399 476/484/418 477/487/420
f 470/465/400 469/463/398 484/486/419
f 470/465/400 484/486/419 485/488/421
f 463/466/401 462/464/399 477/487/420
f 463/466/401 477/487/420 478/489/422
f 471/467/402 470/465/400 485/488/421
f 471/467/402 485/488/421 486/473/408
f 464/468/403 463/466/401 478/489/422
f 464/468/403 478/489/422 479/475/410
f 476/484/418 110/490/31 491/491/423
f 367/492/32 490/481/416 505/493/424
f 484/486/419 483/482/417 498/494/425
f 484/486/419 498/494/425 499/495/426
f 477/487/420 476/484/418 491/491/423
f 477/487/420 491/491/423 492/496/427
f 485/488/421 484/486/419 499/495/426
f 485/488/421 499/495/426 500/497/428
f 478/489/422 477/487/420 492/496/427
f 478/489/422 492/496/427 493/498/429
f 486/473/408 485/488/421 500/497/428
f 486/473/408 500/497/428 501/499/430
f 479/475/410 478/489/422 493/498/429
f 479/475/410 493/498/429 494/500/431
f 487/474/409 486/473/408 501/499/430
f 487/474/409 501/499/430 502/501/432
f 480/476/411 479/475/410 494/500/431
f 480/476/411 494/500/431 495/502/433
f 488/477/412 487/474/409 502/501/432
f 488/477/412 502/501/432 503/503/434
f 481/478/413 480/476/411 495/502/433
f 481/478/413 495/502/433 496/504/435
f 489/479/414 488/477/412 503/503/434
f 489/479/414 503/503/434 504/505/436
f 482/480/415 481/478/413 496/504/435
f 482/480/415 496/504/435 497/506/437
f 490/481/416 489/479/414 504/505/436
f 490/481/416 504/505/436 505/493/424
f 483/482/417 482/480/415 497/506/437
f 483/482/417 497/506/437 498/494/425
f 495/502/433 494/500/431 509/507/438
f 495/502/433 509/507/438 510/508/439
f 503/503/434 502/501/432 517/509/440
f 503/503/434 517/509/440 518/510/441
f 496/504/435 495/502/433 510/508/439
f 496/504/435 510/508/439 511/511/442
f 504/505/436 503/503/434 518/510/441
f 504/505/436 518/510/441 519/512/443
f 497/506/437 496/504/435 511/511/442
f 497/506/437 511/511/442 512/513/444
f 505/493/424 504/505/436 519/512/443
f 505/493/424 519/512/443 520/514/445
f 498/494/425 497/506/437 512/513/444
f 498/494/425 512/513/444 513/515/446
f 491/491/423 109/516/31 506/517/447
f 366/518/32 505/493/424 520/514/445
f 499/495/426 498/494/425 513/515/446
f 499/495/426 513/515/446 514/519/448
f 492/496/427 491/491/423 506/517/447
f 492/496/427 506/517/447 507/520/449
f 500/497/428 499/495/426 514/519/448
f 500/497/428 514/519/448 515/521/450
f 493/498/429 492/496/427 507/520/449
f 493/498/429 507/520/449 508/522/451
f 501/499/430 500/497/428 515/521/450
f 501/499/430 515/521/450 516/523/452
f 494/500/431 493/498/429 508/522/451
f 494/500/431 508/522/451 509/507/438
f 502/501/432 501/499/430 516/523/452
f 502/501/432 516/523/452 517/509/440
f 514/519/448 513/515/446 528/524/453
f 514/519/448 528/524/453 529/525/454
f 507/520/449 506/517/447 521/526/455
f 507/520/449 521/526/455 522/527/456
f 515/521/450 514/519/448 529/525/454
f 515/521/450 529/525/454 530/528/457
f 508/522/451 507/520/449 522/527/456
f 508/522/451 522/527/456 523/529/458
f 516/523/452 515/521/450 530/528/457
f 516/523/452 530/528/457 531/530/459
f 509/507/438 508/522/451 523/529/458
f 509/507/438 523/529/458 524/531/460
f 517/509/440 516/523/452 531/530/459
f 517/509/440 531/530/459 532/532/461
f 510/508/439 509/507/438 524/531/460
f 510/508/439 524/531/460 525/533/462
f 518/510/441 517/509/440 532/532/461
f 518/510/441 532/532/461 533/534/463
f 511/511/442 510/508/439 525/533/462
f 511/511/442 525/533/462 526/535/464
f 519/512/443 518/510/441 533/534/463
f 519/512/443 533/534/463 534/536/465
f 512/513/444 511/511/442 526/535/464
f 512/513/444 526/535/464 527/537/466
f 520/514/445 519/512/443 534/536/465
f 520/514/445 534/536/465 535/538/467
f 513/515/446 512/513/444 527/537/466
f 513/515/446 527/537/466 528/524/453
f 506/517/447 108/539/31 521/526/455
f 365/540/32 520/514/445 535/538/467
f 533/534/463 532/532/461 547/541/468
f 533/534/463 547/541/468 548/542/469
f 526/535/464 525/533/462 540/543/470
f 526/535/464 540/543/470 541/544/471
f 534/536/465 533/534/463 548/542/469
f 534/536/465 548/542/469 549/545/472
f 527/537/466 526/535/464 541/544/471
f 527/537/466 541/544/471 542/546/473
f 535/538/467 534/536/465 549/545/472
f 535/538/467 549/545/472 550/547/474
f 528/524/453 527/537/466 542/546/473
f 528/524/453 542/546/473 543/548/475
f 521/526/455 107/549/31 536/550/476
f 364/551/32 535/538/467 550/547/474
f 529/525/454 528/524/453 543/548/475
f 529/525/454 543/548/475 544/552/477
f 522/527/456 521/526/455 536/550/476
f 522/527/456 536/550/476 537/553/478
f 530/528/457 529/525/454 544/552/477
f 530/528/457 544/552/477 545/554/479
f 523/529/458 522/527/456 537/553/478
f 523/529/458 537/553/478 538/555/480
f 531/530/459 530/528/457 545/554/479
f 531/530/459 545/554/479 546/556/481
f 524/531/460 523/529/458 538/555/480
f 524/531/460 538/555/480 539/557/482
f 532/532/461 531/530/459 546/556/481
f 532/532/461 546/556/481 547/541/468
f 525/533/462 524/531/460 539/557/482
f 525/533/462 539/557/482 540/543/470
f 537/553/478 536/550/476 551/6/6
f 537/553/478 551/6/6 552/5/5
f 545/554/479 544/552/477 5/1/1
f 545/554/479 5/1/1 555/9/9
f 538/555/480 537/553/478 552/5/5
f 538/555/480 552/5/5 1/11/11
f 546/556/481 545/554/479 555/9/9
f 546/556/481 555/9/9 6/13/13
f 539/557/482 538/555/480 1/11/11
f 539/557/482 1/11/11 553/15/15
f 547/541/468 546/556/481 6/13/13
f 547/541/468 6/13/13 556/17/17
f 540/543/470 539/557/482 553/15/15
f 540/543/470 553/15/15 2/19/19
f 548/542/469 547/541/468 556/17/17
f 548/542/469 556/17/17 557/21/21
f 541/544/471 540/543/470 2/19/19
f 541/544/471 2/19/19 554/23/23
f 549/545/472 548/542/469 557/21/21
f 549/545/472 557/21/21 558/25/25
f 542/546/473 541/544/471 554/23/23
f 542/546/473 554/23/23 3/27/27
f 550/547/474 549/545/472 558/25/25
f 550/547/474 558/25/25 559/29/29
f 543/548/475 542/546/473 3/27/27
f 543/548/475 3/27/27 4/2/2
f 536/550/476 106/558/31 551/6/6
f 363/559/32 550/547/474 559/29/29
f 544/552/477 543/548/475 4/2/2
f 544/552/477 4/2/2 5/1/1
