# Blender 5.1.0
# www.blender.org
mtllib Painkiller.mtl
o Painkiller_Painkiller_0
v -0.046723 0.498905 0.441771
v -0.086334 0.472438 0.441771
v -0.086334 0.472438 0.426570
v -0.046723 0.498905 0.426570
v -0.086334 0.472438 0.441771
v -0.112801 0.432828 0.441771
v -0.112801 0.432828 0.426570
v -0.086334 0.472438 0.426570
v -0.112801 0.432828 0.441771
v -0.122094 0.386104 0.441771
v -0.122094 0.386104 0.426570
v -0.112801 0.432828 0.426570
v -0.122094 0.386104 0.441771
v -0.112801 0.339380 0.441771
v -0.112801 0.339380 0.426570
v -0.122094 0.386104 0.426570
v -0.112801 0.339380 0.441771
v -0.086334 0.299770 0.441771
v -0.086334 0.299770 0.426570
v -0.112801 0.339380 0.426570
v -0.086334 0.299770 0.441771
v -0.046724 0.273303 0.441771
v -0.046724 0.273303 0.426570
v -0.086334 0.299770 0.426570
v -0.046724 0.273303 0.441771
v -0.000000 0.264009 0.441771
v -0.000000 0.264009 0.426570
v -0.046724 0.273303 0.426570
v -0.000000 0.264009 0.441771
v 0.046724 0.273303 0.441771
v 0.046724 0.273303 0.426570
v -0.000000 0.264009 0.426570
v 0.046724 0.273303 0.441771
v 0.086334 0.299770 0.441771
v 0.086334 0.299770 0.426570
v 0.046724 0.273303 0.426570
v 0.112801 0.339380 0.441771
v 0.086334 0.299770 0.426570
v 0.086334 0.299770 0.441771
v 0.112801 0.339380 0.426570
v 0.122094 0.386104 0.441771
v 0.112801 0.339380 0.426570
v 0.112801 0.339380 0.441771
v 0.122094 0.386104 0.426570
v 0.112801 0.432828 0.441771
v 0.122094 0.386104 0.426570
v 0.122094 0.386104 0.441771
v 0.112801 0.432828 0.426570
v 0.112801 0.432828 0.441771
v 0.086334 0.472438 0.441771
v 0.086334 0.472438 0.426570
v 0.112801 0.432828 0.426570
v 0.086334 0.472438 0.441771
v 0.046724 0.498905 0.441771
v 0.046724 0.498905 0.426570
v 0.086334 0.472438 0.426570
v 0.046724 0.498905 0.441771
v 0.000000 0.508198 0.441771
v 0.000000 0.508198 0.426570
v 0.046724 0.498905 0.426570
v 0.000000 0.508198 0.441771
v -0.046723 0.498905 0.441771
v -0.046723 0.498905 0.426570
v 0.000000 0.508198 0.426570
v -0.046723 0.498905 0.091546
v -0.046723 0.498905 0.383508
v 0.000000 0.508198 0.091546
v 0.000000 0.508198 0.383508
v 0.046724 0.498905 0.091546
v 0.046724 0.498905 0.383508
v 0.086334 0.472438 0.091546
v 0.086334 0.472438 0.383508
v 0.112801 0.432827 0.091546
v 0.112801 0.432828 0.383508
v 0.122094 0.386104 0.091546
v 0.122094 0.386104 0.383508
v 0.112801 0.339380 0.091546
v 0.112801 0.339380 0.383508
v 0.086334 0.299770 0.091546
v 0.086334 0.299770 0.383508
v 0.046724 0.273303 0.383508
v 0.046724 0.273303 0.091546
v -0.000000 0.264009 0.383508
v -0.000000 0.264009 0.091546
v -0.046724 0.273303 0.091546
v -0.046724 0.273303 0.383508
v -0.086334 0.299770 0.091546
v -0.086334 0.299770 0.383508
v -0.112801 0.339380 0.091546
v -0.112801 0.339380 0.383508
v -0.122094 0.386104 0.091546
v -0.122094 0.386104 0.383508
v -0.112801 0.432828 0.091546
v -0.112801 0.432828 0.383508
v -0.086334 0.472438 0.091546
v -0.086334 0.472438 0.383508
v -0.046723 0.498905 0.091546
v -0.046723 0.498905 0.383508
v -0.044677 0.493962 0.383508
v -0.044677 0.493962 0.426570
v -0.082552 0.468655 0.426570
v -0.082552 0.468655 0.383508
v -0.107859 0.430780 0.426570
v -0.107859 0.430780 0.383508
v -0.116746 0.386104 0.426570
v -0.116746 0.386104 0.383508
v -0.107859 0.341427 0.426570
v -0.107859 0.341427 0.383508
v -0.082552 0.303552 0.426570
v -0.082552 0.303552 0.383508
v -0.044677 0.278245 0.426570
v -0.044677 0.278245 0.383508
v -0.000001 0.269358 0.426570
v -0.000001 0.269358 0.383508
v 0.044676 0.278245 0.426570
v 0.044676 0.278245 0.383508
v 0.082551 0.303552 0.426570
v 0.082551 0.303552 0.383508
v 0.107858 0.341427 0.426570
v 0.107858 0.341427 0.383508
v 0.116745 0.386104 0.383508
v 0.116745 0.386104 0.426570
v 0.107858 0.430780 0.426570
v 0.107858 0.430780 0.383508
v 0.082551 0.468655 0.426570
v 0.082551 0.468655 0.383508
v 0.044676 0.493962 0.426570
v 0.044676 0.493962 0.383508
v -0.000001 0.502849 0.426570
v -0.000001 0.502849 0.383508
v -0.044677 0.493962 0.426570
v -0.044677 0.493962 0.383508
v -0.044677 0.493962 0.107543
v -0.044677 0.493962 0.383508
v -0.082552 0.468655 0.383508
v -0.082552 0.468655 0.107543
v -0.107859 0.430780 0.383508
v -0.107859 0.430780 0.107543
v -0.116746 0.386104 0.383508
v -0.116746 0.386104 0.107543
v -0.107859 0.341427 0.383508
v -0.107859 0.341427 0.107543
v -0.082552 0.303552 0.383508
v -0.082552 0.303552 0.107543
v -0.044677 0.278245 0.383508
v -0.044677 0.278245 0.107543
v -0.000001 0.269358 0.383508
v -0.000001 0.269358 0.107543
v 0.044676 0.278245 0.107543
v 0.044676 0.278245 0.383508
v 0.082551 0.303552 0.107543
v 0.082551 0.303552 0.383508
v 0.107858 0.341427 0.383508
v 0.107858 0.341427 0.107543
v 0.116745 0.386104 0.383508
v 0.116745 0.386104 0.107543
v 0.107858 0.430780 0.383508
v 0.107858 0.430780 0.107543
v 0.082551 0.468655 0.383508
v 0.082551 0.468655 0.107543
v 0.044676 0.493962 0.383508
v 0.044676 0.493962 0.107543
v -0.000001 0.502849 0.383508
v -0.000001 0.502849 0.107543
v -0.044677 0.493962 0.383508
v -0.044677 0.493962 0.107543
v -0.046723 0.498905 0.383508
v -0.086334 0.472438 0.426570
v -0.046723 0.498905 0.426570
v -0.086334 0.472438 0.383508
v -0.112801 0.432828 0.426570
v -0.112801 0.432828 0.383508
v -0.122094 0.386104 0.426570
v -0.122094 0.386104 0.383508
v -0.112801 0.339380 0.426570
v -0.112801 0.339380 0.383508
v -0.086334 0.299770 0.426570
v -0.086334 0.299770 0.383508
v -0.046724 0.273303 0.426570
v -0.046724 0.273303 0.383508
v -0.000000 0.264009 0.426570
v -0.000000 0.264009 0.383508
v 0.046724 0.273303 0.426570
v 0.046724 0.273303 0.383508
v 0.086334 0.299770 0.426570
v 0.086334 0.299770 0.383508
v 0.112801 0.339380 0.426570
v 0.112801 0.339380 0.383508
v 0.122094 0.386104 0.383508
v 0.122094 0.386104 0.426570
v 0.112801 0.432828 0.426570
v 0.112801 0.432828 0.383508
v 0.086334 0.472438 0.426570
v 0.086334 0.472438 0.383508
v 0.046724 0.498905 0.426570
v 0.046724 0.498905 0.383508
v 0.000000 0.508198 0.426570
v 0.000000 0.508198 0.383508
v -0.046723 0.498905 0.426570
v -0.046723 0.498905 0.383508
v -0.086334 0.472438 0.426570
v -0.044677 0.493962 0.426570
v -0.046723 0.498905 0.426570
v -0.082552 0.468655 0.426570
v -0.112801 0.432828 0.426570
v -0.107859 0.430780 0.426570
v -0.122094 0.386104 0.426570
v -0.116746 0.386104 0.426570
v -0.112801 0.339380 0.426570
v -0.107859 0.341427 0.426570
v -0.082552 0.303552 0.426570
v -0.086334 0.299770 0.426570
v -0.044677 0.278245 0.426570
v -0.046724 0.273303 0.426570
v -0.000001 0.269358 0.426570
v -0.000000 0.264009 0.426570
v 0.044676 0.278245 0.426570
v 0.046724 0.273303 0.426570
v 0.082551 0.303552 0.426570
v 0.086334 0.299770 0.426570
v 0.107858 0.341427 0.426570
v 0.112801 0.339380 0.426570
v 0.116745 0.386104 0.426570
v 0.122094 0.386104 0.426570
v 0.107858 0.430780 0.426570
v 0.112801 0.432828 0.426570
v 0.086334 0.472438 0.426570
v 0.082551 0.468655 0.426570
v 0.046724 0.498905 0.426570
v 0.044676 0.493962 0.426570
v 0.000000 0.508198 0.426570
v -0.000001 0.502849 0.426570
v -0.046723 0.498905 0.426570
v -0.044677 0.493962 0.426570
v 0.096941 0.289163 0.439424
v 0.052464 0.259445 0.439424
v 0.052464 0.259444 0.426967
v 0.096941 0.289163 0.426967
v 0.126660 0.333640 0.439424
v 0.126660 0.333640 0.426967
v 0.137095 0.386104 0.439424
v 0.137095 0.386104 0.426967
v 0.126660 0.438568 0.426967
v 0.126660 0.438568 0.439424
v 0.096941 0.483045 0.439424
v 0.096941 0.483045 0.426967
v 0.052464 0.512763 0.426967
v 0.052464 0.512763 0.439424
v 0.000000 0.523199 0.426967
v 0.000000 0.523199 0.439424
v -0.052464 0.512764 0.439424
v -0.052464 0.512764 0.426967
v -0.096941 0.483045 0.439424
v -0.096941 0.483045 0.426967
v -0.126659 0.438568 0.439424
v -0.126659 0.438568 0.426967
v -0.137095 0.386104 0.439424
v -0.137095 0.386104 0.426967
v -0.126660 0.333640 0.439424
v -0.126660 0.333640 0.426967
v -0.096941 0.289163 0.439424
v -0.096941 0.289163 0.426967
v -0.052464 0.259445 0.439424
v -0.052464 0.259445 0.426967
v -0.000000 0.249009 0.439424
v -0.000000 0.249009 0.426967
v 0.052464 0.259445 0.439424
v 0.052464 0.259444 0.426967
v -0.096941 0.289163 0.439424
v -0.126660 0.333640 0.458647
v -0.126660 0.333640 0.439424
v -0.096941 0.289163 0.458647
v -0.052464 0.259445 0.439424
v -0.052464 0.259445 0.458647
v -0.000000 0.249009 0.439424
v -0.000000 0.249009 0.458647
v 0.052464 0.259445 0.439424
v 0.052464 0.259444 0.458647
v 0.096941 0.289163 0.439424
v 0.096941 0.289163 0.458647
v 0.126659 0.333640 0.439424
v 0.126659 0.333640 0.458647
v 0.137095 0.386104 0.458647
v 0.137095 0.386104 0.439424
v 0.126660 0.438568 0.439424
v 0.126660 0.438568 0.458647
v 0.096941 0.483045 0.439424
v 0.096941 0.483045 0.458647
v 0.052464 0.512763 0.458647
v 0.052464 0.512763 0.439424
v 0.000000 0.523199 0.458647
v 0.000000 0.523199 0.439424
v -0.052464 0.512764 0.439424
v -0.052464 0.512764 0.458647
v -0.096941 0.483045 0.439424
v -0.096941 0.483045 0.458647
v -0.126659 0.438568 0.439424
v -0.126659 0.438568 0.458647
v -0.137095 0.386104 0.439424
v -0.137095 0.386104 0.458647
v -0.126660 0.333640 0.439424
v -0.126660 0.333640 0.458647
v 0.105850 0.407159 0.455612
v 0.059960 0.475840 0.455612
v 0.105850 0.407159 0.439424
v 0.059960 0.475840 0.439424
v -0.021055 0.491954 0.455612
v -0.021055 0.491954 0.439424
v -0.089736 0.446064 0.455612
v -0.089736 0.446064 0.439424
v -0.105850 0.365049 0.455612
v -0.105850 0.365049 0.439424
v -0.059959 0.296368 0.455612
v -0.059959 0.296368 0.439424
v 0.021055 0.280254 0.455612
v 0.021055 0.280254 0.439424
v 0.089736 0.326145 0.455612
v 0.089736 0.326145 0.439424
v 0.105850 0.407159 0.455612
v 0.105850 0.407159 0.439424
v 0.083968 0.420885 0.509937
v 0.062525 0.448629 0.545565
v 0.081692 0.419942 0.545565
v 0.064266 0.450370 0.509937
v 0.034781 0.470072 0.509937
v 0.033838 0.467796 0.545565
v 0.000000 0.476990 0.509937
v 0.000000 0.474527 0.545565
v -0.033838 0.467796 0.545565
v -0.034781 0.470072 0.509937
v -0.062525 0.448629 0.545565
v -0.064266 0.450370 0.509937
v -0.083968 0.420885 0.509937
v -0.081692 0.419942 0.545565
v -0.090886 0.386104 0.509937
v -0.088423 0.386104 0.545565
v -0.081692 0.352266 0.545565
v -0.083968 0.351323 0.509937
v -0.062525 0.323579 0.545565
v -0.064266 0.321838 0.509937
v -0.034781 0.302136 0.509937
v -0.033838 0.304412 0.545565
v -0.000000 0.295218 0.509937
v -0.000000 0.297681 0.545565
v 0.033838 0.304412 0.545565
v 0.034781 0.302136 0.509937
v 0.062525 0.323579 0.545565
v 0.064266 0.321838 0.509937
v 0.083968 0.351323 0.509937
v 0.081692 0.352266 0.545565
v 0.090886 0.386104 0.509937
v 0.088423 0.386104 0.545565
v 0.081692 0.419942 0.545565
v 0.083968 0.420885 0.509937
v -0.046723 0.498905 0.033700
v -0.086334 0.472438 0.091546
v -0.046723 0.498905 0.091546
v -0.086334 0.472438 0.033700
v -0.112801 0.432828 0.091546
v -0.081873 0.467977 0.014079
v -0.044309 0.493077 0.014079
v -0.112801 0.432828 0.033700
v -0.122094 0.386104 0.091546
v -0.106973 0.430413 0.014079
v -0.122094 0.386104 0.033700
v -0.115786 0.386104 0.014079
v -0.106973 0.341794 0.014079
v -0.112801 0.339380 0.091546
v -0.112801 0.339380 0.033700
v -0.086334 0.299770 0.033700
v -0.086334 0.299770 0.091546
v -0.081873 0.304231 0.014079
v -0.106973 0.341794 0.014079
v -0.046724 0.273303 0.033700
v -0.046724 0.273303 0.091546
v -0.044309 0.279131 0.014079
v -0.000000 0.264009 0.091546
v -0.000000 0.264009 0.033700
v -0.000000 0.270318 0.014079
v 0.046724 0.273303 0.091546
v 0.044309 0.279131 0.014079
v 0.046724 0.273303 0.033700
v 0.086334 0.299770 0.091546
v 0.081873 0.304231 0.014079
v 0.086334 0.299770 0.033700
v 0.112801 0.339380 0.091546
v 0.112801 0.339380 0.033700
v 0.106973 0.341794 0.014079
v 0.122094 0.386104 0.091546
v 0.122094 0.386104 0.033700
v 0.106973 0.341794 0.014079
v 0.115786 0.386104 0.014079
v 0.106973 0.430413 0.014079
v 0.112801 0.432827 0.091546
v 0.112801 0.432827 0.033700
v 0.086334 0.472438 0.091546
v 0.086334 0.472438 0.033700
v 0.046724 0.498905 0.091546
v 0.081873 0.467977 0.014079
v 0.106973 0.430413 0.014079
v 0.046724 0.498905 0.033700
v 0.000000 0.508198 0.091546
v 0.044310 0.493076 0.014079
v 0.000000 0.508198 0.033700
v -0.046723 0.498905 0.091546
v 0.000000 0.501890 0.014079
v -0.046723 0.498905 0.033700
v -0.044309 0.493077 0.014079
v -0.044677 0.493962 0.049697
v -0.044677 0.493962 0.107543
v -0.082552 0.468655 0.107543
v -0.082552 0.468655 0.049697
v -0.107859 0.430780 0.107543
v -0.078287 0.464390 0.030076
v -0.042369 0.488389 0.030076
v -0.107859 0.430780 0.049697
v -0.116746 0.386104 0.107543
v -0.102286 0.428472 0.030076
v -0.116746 0.386104 0.049697
v -0.110714 0.386104 0.030076
v -0.102286 0.343735 0.030076
v -0.107859 0.341427 0.107543
v -0.107859 0.341427 0.049697
v -0.082552 0.303552 0.049697
v -0.082552 0.303552 0.107543
v -0.078287 0.307817 0.030076
v -0.102286 0.343735 0.030076
v -0.044677 0.278245 0.049697
v -0.044677 0.278245 0.107543
v -0.042369 0.283818 0.030076
v -0.000001 0.269358 0.107543
v -0.000001 0.269358 0.049697
v -0.000001 0.275390 0.030076
v 0.044676 0.278245 0.107543
v 0.042368 0.283818 0.030076
v 0.044676 0.278245 0.049697
v 0.082551 0.303552 0.107543
v 0.078286 0.307817 0.030076
v 0.082551 0.303552 0.049697
v 0.107858 0.341427 0.107543
v 0.107858 0.341427 0.049697
v 0.102285 0.343735 0.030076
v 0.116745 0.386104 0.107543
v 0.116745 0.386104 0.049697
v 0.102285 0.343735 0.030076
v 0.110713 0.386104 0.030076
v 0.102285 0.428472 0.030076
v 0.107858 0.430780 0.107543
v 0.107858 0.430780 0.049697
v 0.082551 0.468655 0.107543
v 0.082551 0.468655 0.049697
v 0.044676 0.493962 0.107543
v 0.078286 0.464390 0.030076
v 0.102285 0.428472 0.030076
v 0.044676 0.493962 0.049697
v -0.000001 0.502849 0.107543
v 0.042368 0.488389 0.030076
v -0.000001 0.502849 0.049697
v -0.044677 0.493962 0.107543
v -0.000001 0.496817 0.030076
v -0.044677 0.493962 0.049697
v -0.042369 0.488389 0.030076
v 0.118025 0.386104 0.499938
v 0.109041 0.431270 0.495179
v 0.109041 0.431270 0.499938
v 0.118025 0.386104 0.459044
v 0.109041 0.431270 0.459044
v 0.118025 0.386104 0.495179
v 0.109041 0.340938 0.499938
v 0.109041 0.340938 0.459044
v 0.109041 0.340938 0.495179
v 0.083456 0.302648 0.499938
v 0.083456 0.302648 0.459044
v 0.083456 0.302648 0.495179
v 0.045166 0.277063 0.499938
v 0.045166 0.277063 0.459044
v 0.045166 0.277063 0.495179
v -0.000000 0.268079 0.499938
v -0.000000 0.268079 0.459044
v -0.000000 0.268079 0.495179
v -0.045166 0.277063 0.499938
v -0.045166 0.277063 0.459044
v -0.045166 0.277063 0.495179
v -0.083456 0.302648 0.499938
v -0.083456 0.302648 0.459044
v -0.083456 0.302648 0.495179
v -0.109041 0.340938 0.499938
v -0.109041 0.340938 0.459044
v -0.109041 0.340938 0.495179
v -0.118025 0.386104 0.499938
v -0.118025 0.386104 0.459044
v -0.118025 0.386104 0.495179
v -0.109041 0.431270 0.499938
v -0.109041 0.431270 0.495179
v -0.109041 0.431270 0.459044
v -0.083456 0.469560 0.499938
v -0.083456 0.469560 0.459044
v -0.083456 0.469560 0.495179
v -0.045166 0.495145 0.499938
v -0.045166 0.495145 0.459044
v -0.045166 0.495145 0.495179
v 0.000000 0.504129 0.499938
v 0.000000 0.504129 0.459044
v 0.000000 0.504129 0.495179
v 0.045166 0.495145 0.499938
v 0.045166 0.495145 0.459044
v 0.045166 0.495145 0.495179
v 0.083456 0.469560 0.499938
v 0.083456 0.469560 0.495179
v 0.083456 0.469560 0.459044
v 0.109041 0.431270 0.499938
v 0.109041 0.431270 0.459044
v 0.109041 0.431270 0.495179
v -0.096941 0.289163 0.439424
v -0.059959 0.296368 0.439424
v -0.052464 0.259445 0.439424
v -0.126660 0.333640 0.439424
v -0.000000 0.249009 0.439424
v -0.105850 0.365049 0.439424
v 0.021055 0.280254 0.439424
v -0.137095 0.386104 0.439424
v 0.052464 0.259445 0.439424
v -0.089736 0.446064 0.439424
v 0.096941 0.289163 0.439424
v -0.126659 0.438568 0.439424
v 0.089736 0.326145 0.439424
v -0.096941 0.483045 0.439424
v 0.126659 0.333640 0.439424
v -0.021055 0.491954 0.439424
v 0.105850 0.407159 0.439424
v -0.052464 0.512764 0.439424
v 0.137095 0.386104 0.439424
v 0.000000 0.523199 0.439424
v 0.126660 0.438568 0.439424
v 0.059960 0.475840 0.439424
v 0.096941 0.483045 0.439424
v 0.052464 0.512763 0.439424
v 0.112801 0.339380 0.426570
v 0.122094 0.386104 0.426570
v 0.137095 0.386104 0.426967
v 0.112801 0.432828 0.426570
v 0.126660 0.333640 0.426967
v 0.126660 0.438568 0.426967
v 0.086334 0.299770 0.426570
v 0.086334 0.472438 0.426570
v 0.096941 0.289163 0.426967
v 0.096941 0.483045 0.426967
v 0.046724 0.273303 0.426570
v 0.046724 0.498905 0.426570
v 0.052464 0.259444 0.426967
v 0.052464 0.512763 0.426967
v -0.000000 0.249009 0.426967
v 0.000000 0.523199 0.426967
v -0.000000 0.264009 0.426570
v 0.000000 0.508198 0.426570
v -0.052464 0.259445 0.426967
v -0.046723 0.498905 0.426570
v -0.046724 0.273303 0.426570
v -0.052464 0.512764 0.426967
v -0.096941 0.289163 0.426967
v -0.086334 0.472438 0.426570
v -0.086334 0.299770 0.426570
v -0.096941 0.483045 0.426967
v -0.112801 0.339380 0.426570
v -0.112801 0.432828 0.426570
v -0.126660 0.333640 0.426967
v -0.126659 0.438568 0.426967
v -0.122094 0.386104 0.426570
v -0.137095 0.386104 0.426967
v 0.096941 0.289163 0.458647
v 0.109041 0.340938 0.459044
v 0.083456 0.302648 0.459044
v 0.045166 0.277063 0.459044
v 0.126659 0.333640 0.458647
v 0.052464 0.259444 0.458647
v 0.118025 0.386104 0.459044
v -0.000000 0.268079 0.459044
v 0.137095 0.386104 0.458647
v -0.000000 0.249009 0.458647
v 0.109041 0.431270 0.459044
v -0.052464 0.259445 0.458647
v 0.126660 0.438568 0.458647
v -0.045166 0.277063 0.459044
v 0.083456 0.469560 0.459044
v -0.096941 0.289163 0.458647
v 0.096941 0.483045 0.458647
v -0.083456 0.302648 0.459044
v 0.045166 0.495145 0.459044
v -0.126660 0.333640 0.458647
v 0.052464 0.512763 0.458647
v -0.109041 0.340938 0.459044
v 0.000000 0.523199 0.458647
v -0.118025 0.386104 0.459044
v 0.000000 0.504129 0.459044
v -0.137095 0.386104 0.458647
v -0.045166 0.495145 0.459044
v -0.109041 0.431270 0.459044
v -0.052464 0.512764 0.458647
v -0.126659 0.438568 0.458647
v -0.096941 0.483045 0.458647
v -0.083456 0.469560 0.459044
v 0.105850 0.407159 0.455612
v 0.000000 0.386104 0.455612
v 0.059960 0.475840 0.455612
v 0.089736 0.326145 0.455612
v -0.021055 0.491954 0.455612
v 0.021055 0.280254 0.455612
v -0.089736 0.446064 0.455612
v -0.059959 0.296368 0.455612
v -0.105850 0.365049 0.455612
v -0.044309 0.493077 0.014079
v -0.070958 0.457062 0.000852
v -0.081873 0.467977 0.014079
v -0.106973 0.430413 0.014079
v -0.038402 0.478815 0.000852
v 0.000000 0.501890 0.014079
v -0.092711 0.424506 0.000852
v -0.115786 0.386104 0.014079
v 0.000000 0.486454 0.000852
v 0.044310 0.493076 0.014079
v 0.000000 0.386104 0.000852
v 0.038402 0.478815 0.000852
v 0.070958 0.457062 0.000852
v 0.081873 0.467977 0.014079
v 0.092711 0.424506 0.000852
v 0.106973 0.430413 0.014079
v 0.115786 0.386104 0.014079
v 0.100350 0.386104 0.000852
v 0.106973 0.341794 0.014079
v 0.092711 0.347702 0.000852
v 0.081873 0.304231 0.014079
v 0.070958 0.315146 0.000852
v 0.044309 0.279131 0.014079
v 0.038402 0.293393 0.000852
v -0.000000 0.270318 0.014079
v -0.000000 0.285754 0.000852
v -0.038402 0.293393 0.000852
v -0.044309 0.279131 0.014079
v -0.081873 0.304231 0.014079
v -0.070958 0.315146 0.000852
v -0.106973 0.341794 0.014079
v -0.092711 0.347702 0.000852
v -0.100350 0.386104 0.000852
v -0.102286 0.428472 0.030076
v -0.067850 0.453953 0.016849
v -0.078287 0.464390 0.030076
v -0.042369 0.488389 0.030076
v -0.088650 0.422823 0.016849
v -0.110714 0.386104 0.030076
v -0.036720 0.474753 0.016849
v -0.000001 0.496817 0.030076
v -0.095954 0.386104 0.016849
v -0.000001 0.482057 0.016849
v 0.042368 0.488389 0.030076
v -0.088650 0.349384 0.016849
v -0.102286 0.343735 0.030076
v 0.036719 0.474753 0.016849
v -0.067850 0.318254 0.016849
v -0.078287 0.307817 0.030076
v 0.067849 0.453953 0.016849
v 0.078286 0.464390 0.030076
v -0.036720 0.297454 0.016849
v -0.042369 0.283818 0.030076
v -0.000001 0.275390 0.030076
v 0.088649 0.422823 0.016849
v 0.102285 0.428472 0.030076
v 0.110713 0.386104 0.030076
v -0.000001 0.290150 0.016849
v 0.095953 0.386104 0.016849
v 0.102285 0.343735 0.030076
v 0.036719 0.297454 0.016849
v 0.042368 0.283818 0.030076
v 0.088649 0.349384 0.016849
v 0.078286 0.307817 0.030076
v 0.067849 0.318254 0.016849
v -0.000001 0.386104 0.016849
v 0.042760 0.282872 0.502255
v 0.064266 0.321838 0.509937
v 0.034781 0.302136 0.509937
v -0.000000 0.295218 0.509937
v 0.079010 0.307094 0.502255
v 0.083968 0.351323 0.509937
v -0.000000 0.274366 0.502255
v 0.045166 0.277063 0.499938
v 0.083456 0.302648 0.499938
v -0.000000 0.268079 0.499938
v 0.103232 0.343344 0.502255
v 0.109041 0.340938 0.499938
v 0.090886 0.386104 0.509937
v 0.118025 0.386104 0.499938
v 0.111738 0.386104 0.502255
v 0.109041 0.431270 0.499938
v 0.103232 0.428864 0.502255
v 0.083968 0.420885 0.509937
v 0.083456 0.469560 0.499938
v 0.064266 0.450370 0.509937
v 0.079011 0.465115 0.502255
v 0.045166 0.495145 0.499938
v 0.042760 0.489336 0.502255
v 0.034781 0.470072 0.509937
v 0.000000 0.476990 0.509937
v 0.000000 0.497842 0.502255
v 0.000000 0.504129 0.499938
v -0.042760 0.489336 0.502255
v -0.034781 0.470072 0.509937
v -0.045166 0.495145 0.499938
v -0.064266 0.450370 0.509937
v -0.079010 0.465115 0.502255
v -0.083456 0.469560 0.499938
v -0.083968 0.420885 0.509937
v -0.103232 0.428864 0.502255
v -0.109041 0.431270 0.499938
v -0.090886 0.386104 0.509937
v -0.111738 0.386104 0.502255
v -0.118025 0.386104 0.499938
v -0.109041 0.340938 0.499938
v -0.103232 0.343344 0.502255
v -0.083968 0.351323 0.509937
v -0.083456 0.302648 0.499938
v -0.064266 0.321838 0.509937
v -0.079011 0.307094 0.502255
v -0.034781 0.302136 0.509937
v -0.042760 0.282872 0.502255
v -0.045166 0.277063 0.499938
v 0.062525 0.448629 0.545565
v 0.000000 0.386104 0.545565
v 0.081692 0.419942 0.545565
v 0.033838 0.467796 0.545565
v 0.088423 0.386104 0.545565
v 0.000000 0.474527 0.545565
v 0.081692 0.352266 0.545565
v -0.033838 0.467796 0.545565
v 0.062525 0.323579 0.545565
v -0.062525 0.448629 0.545565
v 0.033838 0.304412 0.545565
v -0.081692 0.419942 0.545565
v -0.000000 0.297681 0.545565
v -0.088423 0.386104 0.545565
v -0.033838 0.304412 0.545565
v -0.081692 0.352266 0.545565
v -0.062525 0.323579 0.545565
vn 0.5556 -0.8315 -0.0000
vn 0.8315 -0.5556 -0.0000
vn 0.9808 -0.1951 -0.0000
vn 0.9808 0.1951 -0.0000
vn 0.8315 0.5556 -0.0000
vn 0.5556 0.8315 -0.0000
vn 0.1951 0.9808 -0.0000
vn -0.1951 0.9808 -0.0000
vn -0.5556 0.8315 -0.0000
vn -0.8315 0.5556 -0.0000
vn -0.9808 0.1951 -0.0000
vn -0.9808 -0.1951 -0.0000
vn -0.8315 -0.5556 -0.0000
vn -0.5556 -0.8315 -0.0000
vn -0.1951 -0.9808 -0.0000
vn 0.1951 -0.9808 -0.0000
vn -0.3826 0.9239 -0.0000
vn -0.0000 1.0000 -0.0000
vn 0.3827 0.9239 -0.0000
vn 0.7071 0.7071 -0.0000
vn 0.9239 0.3827 -0.0000
vn 1.0000 -0.0000 -0.0000
vn 0.9239 -0.3827 -0.0000
vn 0.7071 -0.7071 -0.0000
vn 0.3827 -0.9239 -0.0000
vn -0.0000 -1.0000 -0.0000
vn -0.3827 -0.9239 -0.0000
vn -0.7071 -0.7071 -0.0000
vn -0.9239 -0.3827 -0.0000
vn -1.0000 -0.0000 -0.0000
vn -0.9239 0.3827 -0.0000
vn -0.7071 0.7071 -0.0000
vn -0.3827 0.9239 -0.0000
vn 0.3826 -0.9239 -0.0000
vn -0.0000 -0.0000 1.0000
vn -0.9239 -0.3827 0.0001
vn -0.9239 -0.3826 -0.0000
vn 0.7140 0.2958 0.6346
vn 0.7054 0.7054 0.0690
vn 0.9217 0.3818 0.0690
vn 0.5465 0.5465 0.6346
vn 0.2958 0.7140 0.6346
vn 0.3818 0.9217 0.0690
vn -0.0000 0.7729 0.6346
vn -0.0000 0.9976 0.0690
vn -0.3818 0.9217 0.0690
vn -0.2957 0.7140 0.6346
vn -0.7054 0.7054 0.0690
vn -0.5465 0.5465 0.6346
vn -0.7140 0.2958 0.6346
vn -0.9217 0.3818 0.0690
vn -0.7729 -0.0000 0.6346
vn -0.9976 -0.0000 0.0690
vn -0.9217 -0.3818 0.0690
vn -0.7140 -0.2957 0.6346
vn -0.7054 -0.7054 0.0690
vn -0.5465 -0.5465 0.6346
vn -0.2958 -0.7140 0.6346
vn -0.3818 -0.9217 0.0690
vn -0.0000 -0.7729 0.6346
vn -0.0000 -0.9976 0.0690
vn 0.3818 -0.9217 0.0690
vn 0.2957 -0.7141 0.6346
vn 0.7054 -0.7054 0.0690
vn 0.5465 -0.5465 0.6346
vn 0.7140 -0.2958 0.6346
vn 0.9217 -0.3818 0.0690
vn 0.7729 -0.0000 0.6346
vn 0.9976 -0.0000 0.0690
vn 0.9217 0.3817 0.0690
vn 0.7140 0.2957 0.6346
vn -0.3783 0.9131 -0.1520
vn -0.6989 0.6989 -0.1520
vn -0.5958 0.5958 -0.5385
vn -0.3225 0.7785 -0.5385
vn -0.9131 0.3782 -0.1520
vn -0.7785 0.3225 -0.5385
vn -0.9884 -0.0000 -0.1520
vn -0.8426 -0.0000 -0.5385
vn -0.7785 -0.3224 -0.5385
vn -0.9131 -0.3782 -0.1520
vn -0.6989 -0.6989 -0.1520
vn -0.5958 -0.5958 -0.5385
vn -0.7785 -0.3225 -0.5385
vn -0.3782 -0.9131 -0.1520
vn -0.3225 -0.7785 -0.5385
vn -0.0000 -0.9884 -0.1520
vn -0.0000 -0.8426 -0.5385
vn 0.3224 -0.7785 -0.5385
vn 0.3782 -0.9131 -0.1520
vn 0.5958 -0.5958 -0.5385
vn 0.6989 -0.6989 -0.1520
vn 0.9131 -0.3782 -0.1520
vn 0.7785 -0.3225 -0.5385
vn 0.9884 -0.0000 -0.1520
vn 0.7785 -0.3224 -0.5385
vn 0.8426 -0.0000 -0.5385
vn 0.7785 0.3224 -0.5385
vn 0.9131 0.3782 -0.1520
vn 0.6989 0.6989 -0.1520
vn 0.5958 0.5958 -0.5385
vn 0.7785 0.3225 -0.5385
vn 0.3782 0.9131 -0.1520
vn 0.3225 0.7785 -0.5385
vn -0.0000 0.9884 -0.1520
vn -0.0000 0.8426 -0.5385
vn -0.3782 0.9132 -0.1520
vn -0.3224 0.7785 -0.5385
vn 0.3786 -0.9140 0.1459
vn 0.6995 -0.6995 0.1459
vn 0.6021 -0.6021 0.5243
vn 0.3259 -0.7867 0.5243
vn 0.9140 -0.3786 0.1459
vn 0.7867 -0.3259 0.5243
vn 0.9893 -0.0000 0.1459
vn 0.8515 -0.0000 0.5243
vn 0.7867 0.3259 0.5243
vn 0.9140 0.3786 0.1459
vn 0.6995 0.6995 0.1459
vn 0.6021 0.6021 0.5243
vn 0.3786 0.9140 0.1459
vn 0.3259 0.7867 0.5243
vn -0.0000 0.9893 0.1459
vn -0.0000 0.8515 0.5243
vn -0.3259 0.7867 0.5243
vn -0.3786 0.9140 0.1459
vn -0.6021 0.6021 0.5243
vn -0.6995 0.6995 0.1459
vn -0.9140 0.3786 0.1459
vn -0.7867 0.3259 0.5243
vn -0.9893 -0.0000 0.1459
vn -0.8515 -0.0000 0.5243
vn -0.7867 -0.3258 0.5243
vn -0.9140 -0.3786 0.1459
vn -0.6995 -0.6995 0.1459
vn -0.6021 -0.6021 0.5243
vn -0.7867 -0.3259 0.5243
vn -0.3786 -0.9140 0.1459
vn -0.3259 -0.7867 0.5243
vn -0.0000 -0.9893 0.1459
vn -0.0000 -0.8515 0.5243
vn 0.3258 -0.7867 0.5243
vn 0.8411 -0.0000 0.5408
vn 0.9239 0.3826 -0.0000
vn 0.7771 0.3219 0.5408
vn 0.7771 -0.3219 0.5408
vn 0.5947 -0.5948 0.5408
vn 0.3219 -0.7771 0.5408
vn -0.0000 -0.8411 0.5408
vn -0.3219 -0.7771 0.5408
vn -0.5948 -0.5948 0.5408
vn -0.7771 -0.3219 0.5408
vn -0.8411 -0.0000 0.5408
vn -0.7771 0.3219 0.5408
vn -0.5948 0.5948 0.5408
vn -0.3219 0.7771 0.5408
vn -0.0000 0.8411 0.5408
vn 0.3219 0.7771 0.5408
vn 0.5947 0.5948 0.5408
vn 0.7771 0.3219 0.5409
vn -0.0000 -0.0000 -1.0000
vn 0.0245 -0.0101 -0.9996
vn 0.0265 -0.0000 -0.9996
vn 0.0245 0.0101 -0.9996
vn 0.0187 -0.0187 -0.9996
vn 0.0187 0.0187 -0.9996
vn 0.0101 -0.0245 -0.9996
vn 0.0101 0.0245 -0.9996
vn -0.0000 -0.0265 -0.9996
vn -0.0000 0.0265 -0.9996
vn -0.0101 -0.0245 -0.9996
vn -0.0101 0.0245 -0.9996
vn -0.0187 -0.0187 -0.9996
vn -0.0187 0.0187 -0.9996
vn -0.0245 -0.0101 -0.9996
vn -0.0245 0.0101 -0.9996
vn -0.0265 -0.0000 -0.9996
vn 0.0147 -0.0147 0.9998
vn 0.0193 -0.0080 0.9998
vn 0.0080 -0.0193 0.9998
vn 0.0208 -0.0000 0.9998
vn -0.0000 -0.0208 0.9998
vn 0.0193 0.0080 0.9998
vn -0.0080 -0.0193 0.9998
vn 0.0147 0.0147 0.9998
vn -0.0147 -0.0147 0.9998
vn 0.0080 0.0193 0.9998
vn -0.0193 -0.0080 0.9998
vn -0.0000 0.0208 0.9998
vn -0.0208 -0.0000 0.9998
vn -0.0080 0.0193 0.9998
vn -0.0193 0.0080 0.9998
vn -0.0147 0.0147 0.9998
vn -0.3225 0.7784 -0.5386
vn -0.2714 0.2714 -0.9234
vn -0.5958 0.5958 -0.5386
vn -0.7784 0.3225 -0.5386
vn -0.1469 0.3546 -0.9234
vn -0.0000 0.8426 -0.5386
vn -0.3546 0.1469 -0.9234
vn -0.8426 -0.0000 -0.5386
vn -0.0000 0.3838 -0.9234
vn 0.3225 0.7784 -0.5386
vn 0.1469 0.3546 -0.9234
vn 0.2714 0.2714 -0.9234
vn 0.5958 0.5958 -0.5386
vn 0.3546 0.1469 -0.9234
vn 0.7785 0.3224 -0.5386
vn 0.8426 -0.0000 -0.5386
vn 0.3838 -0.0000 -0.9234
vn 0.7785 -0.3224 -0.5386
vn 0.3546 -0.1469 -0.9234
vn 0.5958 -0.5958 -0.5386
vn 0.2714 -0.2714 -0.9234
vn 0.3225 -0.7784 -0.5386
vn 0.1469 -0.3546 -0.9234
vn -0.0000 -0.8426 -0.5386
vn -0.0000 -0.3838 -0.9234
vn -0.1469 -0.3546 -0.9234
vn -0.3225 -0.7784 -0.5386
vn -0.5958 -0.5958 -0.5386
vn -0.2714 -0.2714 -0.9234
vn -0.7784 -0.3225 -0.5386
vn -0.3546 -0.1469 -0.9234
vn -0.3838 -0.0000 -0.9234
vn 0.7867 -0.3259 0.5244
vn 0.2793 -0.2793 0.9187
vn 0.6021 -0.6021 0.5244
vn 0.3259 -0.7867 0.5244
vn 0.3649 -0.1511 0.9187
vn 0.8515 -0.0000 0.5244
vn 0.1511 -0.3649 0.9187
vn -0.0000 -0.8515 0.5244
vn 0.3949 -0.0000 0.9187
vn -0.0000 -0.3949 0.9187
vn -0.3258 -0.7867 0.5244
vn 0.3649 0.1511 0.9187
vn 0.7867 0.3259 0.5244
vn -0.1511 -0.3649 0.9187
vn 0.2793 0.2793 0.9187
vn 0.6021 0.6021 0.5244
vn -0.2793 -0.2793 0.9187
vn -0.6021 -0.6021 0.5244
vn 0.1511 0.3649 0.9187
vn 0.3258 0.7867 0.5244
vn -0.0000 0.8515 0.5244
vn -0.3649 -0.1511 0.9187
vn -0.7867 -0.3259 0.5244
vn -0.8515 -0.0000 0.5244
vn -0.0000 0.3949 0.9187
vn -0.3949 -0.0000 0.9187
vn -0.7867 0.3258 0.5244
vn -0.1511 0.3649 0.9187
vn -0.3259 0.7867 0.5244
vn -0.3649 0.1511 0.9187
vn -0.6021 0.6021 0.5244
vn -0.2793 0.2793 0.9187
vn 0.1323 -0.3194 0.9383
vn 0.2958 -0.7140 0.6346
vn 0.2445 -0.2445 0.9383
vn 0.7141 -0.2958 0.6346
vn -0.0000 -0.3457 0.9383
vn 0.5948 -0.5948 0.5408
vn 0.3194 -0.1323 0.9383
vn 0.3457 -0.0000 0.9383
vn 0.3194 0.1323 0.9383
vn 0.5948 0.5948 0.5408
vn 0.2445 0.2445 0.9383
vn 0.1323 0.3194 0.9383
vn 0.2957 0.7140 0.6346
vn -0.0000 0.3457 0.9383
vn -0.1323 0.3194 0.9383
vn -0.2958 0.7140 0.6346
vn -0.2445 0.2445 0.9383
vn -0.7141 0.2958 0.6346
vn -0.3194 0.1323 0.9383
vn -0.3457 -0.0000 0.9383
vn -0.3194 -0.1323 0.9383
vn -0.7140 -0.2958 0.6346
vn -0.2445 -0.2445 0.9383
vn -0.2958 -0.7141 0.6346
vn -0.1323 -0.3194 0.9383
vt 0.682617 0.788574
vt 0.712402 0.743164
vt 0.757812 0.712402
vt 0.811035 0.702148
vt 0.864746 0.712402
vt 0.909668 0.743164
vt 0.940918 0.788574
vt 0.951172 0.841797
vt 0.940918 0.895508
vt 0.909668 0.940918
vt 0.864746 0.970703
vt 0.811035 0.981934
vt 0.757812 0.970703
vt 0.712402 0.940918
vt 0.682617 0.895508
vt 0.672363 0.841797
vt 0.205200 0.108948
vt 0.205566 0.405762
vt 0.253662 0.108948
vt 0.254150 0.405762
vt 0.302246 0.108948
vt 0.302734 0.405762
vt 0.350342 0.108948
vt 0.351074 0.405762
vt 0.399170 0.108948
vt 0.399658 0.405762
vt 0.447510 0.108948
vt 0.448242 0.405762
vt 0.496094 0.108948
vt 0.496826 0.405762
vt 0.544434 0.108948
vt 0.545410 0.405762
vt 0.593750 0.405762
vt 0.592773 0.108948
vt 0.642090 0.405762
vt 0.641113 0.108948
vt 0.690918 0.108948
vt 0.690918 0.405762
vt 0.739258 0.108948
vt 0.739746 0.405762
vt 0.788086 0.108948
vt 0.788574 0.405762
vt 0.836426 0.108948
vt 0.836914 0.405762
vt 0.884766 0.108948
vt 0.885254 0.405762
vt 0.933594 0.108948
vt 0.934082 0.405762
vt 0.981934 0.108948
vt 0.982422 0.405762
vt 0.982422 0.413330
vt 0.982422 0.457275
vt 0.934082 0.457275
vt 0.934082 0.413330
vt 0.885254 0.457275
vt 0.885254 0.413330
vt 0.836914 0.457275
vt 0.836914 0.413330
vt 0.788574 0.457275
vt 0.788574 0.413330
vt 0.739746 0.457275
vt 0.739746 0.413330
vt 0.691406 0.457275
vt 0.690918 0.413330
vt 0.642090 0.457275
vt 0.642090 0.413330
vt 0.593750 0.457275
vt 0.593750 0.413330
vt 0.545410 0.457275
vt 0.545410 0.413330
vt 0.497070 0.457275
vt 0.496826 0.413330
vt 0.448242 0.413330
vt 0.448242 0.457275
vt 0.399658 0.457275
vt 0.399658 0.413330
vt 0.351074 0.457275
vt 0.351074 0.413330
vt 0.302734 0.457275
vt 0.302734 0.413330
vt 0.254150 0.457275
vt 0.254150 0.413330
vt 0.205566 0.457275
vt 0.205566 0.413330
vt 0.258057 0.497070
vt 0.220947 0.497070
vt 0.220947 0.534180
vt 0.257812 0.534180
vt 0.303467 0.497070
vt 0.303467 0.534180
vt 0.361084 0.497070
vt 0.361084 0.534180
vt 0.411377 0.534180
vt 0.411377 0.497070
vt 0.456543 0.497070
vt 0.456543 0.534180
vt 0.502930 0.534180
vt 0.502930 0.497070
vt 0.548340 0.534180
vt 0.548340 0.497070
vt 0.594238 0.497070
vt 0.594238 0.534180
vt 0.640137 0.497070
vt 0.640137 0.534180
vt 0.687988 0.497070
vt 0.687988 0.534180
vt 0.735840 0.497070
vt 0.735840 0.534180
vt 0.785156 0.497070
vt 0.785156 0.534180
vt 0.830078 0.497070
vt 0.830078 0.534180
vt 0.875488 0.497070
vt 0.875488 0.534180
vt 0.925781 0.497070
vt 0.925781 0.534180
vt 0.982910 0.497070
vt 0.982910 0.534180
vt 0.269043 0.565430
vt 0.221680 0.545410
vt 0.221680 0.565430
vt 0.269043 0.545410
vt 0.313721 0.565430
vt 0.313721 0.545410
vt 0.359131 0.565430
vt 0.359131 0.545410
vt 0.403320 0.565430
vt 0.403320 0.545410
vt 0.447266 0.565430
vt 0.447266 0.545410
vt 0.497070 0.565430
vt 0.497070 0.545410
vt 0.551270 0.545410
vt 0.551270 0.565430
vt 0.602539 0.565430
vt 0.602539 0.545410
vt 0.651855 0.565430
vt 0.651855 0.545410
vt 0.697754 0.545410
vt 0.697754 0.565430
vt 0.742188 0.545410
vt 0.742188 0.565430
vt 0.786133 0.565430
vt 0.786133 0.545410
vt 0.832520 0.565430
vt 0.832520 0.545410
vt 0.882324 0.565430
vt 0.882324 0.545410
vt 0.932617 0.565430
vt 0.932617 0.545410
vt 0.984375 0.565430
vt 0.984375 0.545410
vt 0.976562 0.467773
vt 0.928223 0.467773
vt 0.976562 0.484863
vt 0.928223 0.484863
vt 0.842773 0.467773
vt 0.842773 0.484863
vt 0.770020 0.467773
vt 0.770020 0.484863
vt 0.684082 0.467773
vt 0.684082 0.484863
vt 0.611328 0.467773
vt 0.611328 0.484863
vt 0.525879 0.467773
vt 0.525879 0.484863
vt 0.453125 0.467773
vt 0.453125 0.484863
vt 0.367432 0.467773
vt 0.367432 0.484863
vt 0.465576 0.673340
vt 0.502930 0.636230
vt 0.466797 0.636230
vt 0.501953 0.673340
vt 0.538574 0.673340
vt 0.539062 0.636230
vt 0.574219 0.673340
vt 0.574707 0.636230
vt 0.608398 0.636230
vt 0.607422 0.673340
vt 0.640625 0.636230
vt 0.640137 0.673340
vt 0.672363 0.673340
vt 0.672363 0.636230
vt 0.703125 0.673340
vt 0.703613 0.636230
vt 0.733887 0.636230
vt 0.733887 0.673340
vt 0.764648 0.636230
vt 0.764648 0.673340
vt 0.794922 0.673340
vt 0.794922 0.636230
vt 0.826172 0.673340
vt 0.826172 0.636230
vt 0.857910 0.636230
vt 0.857910 0.673340
vt 0.889648 0.636230
vt 0.890137 0.673340
vt 0.921387 0.673340
vt 0.921387 0.636230
vt 0.953125 0.673340
vt 0.953125 0.636230
vt 0.983398 0.636230
vt 0.983887 0.673340
vt 0.981934 0.042358
vt 0.933594 0.101379
vt 0.981934 0.101379
vt 0.933105 0.042358
vt 0.884766 0.101379
vt 0.933105 0.021439
vt 0.979980 0.021439
vt 0.884766 0.042358
vt 0.836426 0.101379
vt 0.884766 0.021439
vt 0.836426 0.042358
vt 0.836426 0.021439
vt 0.789551 0.021439
vt 0.788086 0.101379
vt 0.788086 0.042358
vt 0.739258 0.042358
vt 0.739258 0.101379
vt 0.738770 0.021439
vt 0.786621 0.021439
vt 0.690918 0.042358
vt 0.690918 0.101379
vt 0.690918 0.021439
vt 0.641113 0.101379
vt 0.641113 0.042358
vt 0.641113 0.021439
vt 0.592773 0.101379
vt 0.592773 0.021439
vt 0.592773 0.042358
vt 0.544434 0.101379
vt 0.544434 0.021439
vt 0.544434 0.042358
vt 0.496094 0.101379
vt 0.496094 0.042358
vt 0.497559 0.021439
vt 0.447510 0.101379
vt 0.447510 0.042358
vt 0.494385 0.021439
vt 0.447510 0.021439
vt 0.400391 0.021439
vt 0.399170 0.101379
vt 0.398926 0.042358
vt 0.350342 0.101379
vt 0.350342 0.042358
vt 0.302246 0.101379
vt 0.350098 0.021439
vt 0.397461 0.021439
vt 0.302002 0.042358
vt 0.253662 0.101379
vt 0.302002 0.021439
vt 0.253662 0.042358
vt 0.205200 0.101379
vt 0.253662 0.021439
vt 0.205078 0.042358
vt 0.206543 0.021439
vt 0.364746 0.618652
vt 0.326416 0.614258
vt 0.326416 0.618652
vt 0.364746 0.576172
vt 0.326416 0.576172
vt 0.364746 0.614258
vt 0.403564 0.618652
vt 0.403564 0.576172
vt 0.403564 0.614258
vt 0.443604 0.618652
vt 0.443604 0.576172
vt 0.443604 0.614258
vt 0.486816 0.618652
vt 0.486816 0.576172
vt 0.486816 0.614258
vt 0.533203 0.618652
vt 0.533203 0.576172
vt 0.533203 0.614258
vt 0.579102 0.618652
vt 0.579102 0.576172
vt 0.579102 0.614258
vt 0.621582 0.618652
vt 0.621582 0.576172
vt 0.621582 0.614258
vt 0.661133 0.618652
vt 0.661133 0.576172
vt 0.661133 0.614258
vt 0.700195 0.618652
vt 0.700195 0.576172
vt 0.700195 0.614258
vt 0.739258 0.618652
vt 0.739258 0.614258
vt 0.739258 0.576172
vt 0.779785 0.618652
vt 0.779785 0.576172
vt 0.779785 0.614258
vt 0.820312 0.618652
vt 0.820312 0.576172
vt 0.820312 0.614258
vt 0.860840 0.618652
vt 0.860840 0.576172
vt 0.860840 0.614258
vt 0.901855 0.618652
vt 0.901855 0.576172
vt 0.901855 0.614258
vt 0.941895 0.618652
vt 0.941895 0.614258
vt 0.941895 0.576172
vt 0.982422 0.618652
vt 0.982422 0.576172
vt 0.982422 0.614258
vt 0.272949 0.726562
vt 0.264648 0.769043
vt 0.306885 0.777344
vt 0.222534 0.691895
vt 0.319092 0.836914
vt 0.186523 0.716309
vt 0.283203 0.861328
vt 0.161865 0.680176
vt 0.306885 0.897461
vt 0.093933 0.734863
vt 0.272949 0.947754
vt 0.102173 0.691895
vt 0.230713 0.939453
vt 0.051788 0.726562
vt 0.222534 0.981934
vt 0.041504 0.812988
vt 0.138184 0.958008
vt 0.016815 0.777344
vt 0.161865 0.994141
vt 0.005501 0.836914
vt 0.102173 0.981934
vt 0.059998 0.905762
vt 0.051788 0.947754
vt 0.016815 0.897461
vt 0.811035 0.998535
vt 0.871582 0.986816
vt 0.751465 0.986816
vt 0.922363 0.953125
vt 0.701172 0.953125
vt 0.956055 0.901367
vt 0.666016 0.901367
vt 0.968750 0.841797
vt 0.654785 0.841797
vt 0.956055 0.781250
vt 0.666016 0.781250
vt 0.922363 0.730957
vt 0.701172 0.730957
vt 0.871582 0.696777
vt 0.751465 0.696777
vt 0.811035 0.684570
vt 0.596191 0.954102
vt 0.610352 0.894531
vt 0.580566 0.938477
vt 0.537598 0.967285
vt 0.629883 0.902832
vt 0.545410 0.987793
vt 0.620605 0.842773
vt 0.485107 0.977539
vt 0.642090 0.842773
vt 0.485107 0.999512
vt 0.610352 0.791504
vt 0.425293 0.987793
vt 0.629883 0.782227
vt 0.433594 0.967285
vt 0.580566 0.747070
vt 0.375000 0.954102
vt 0.596191 0.731934
vt 0.390381 0.938477
vt 0.537598 0.718262
vt 0.341064 0.902832
vt 0.545410 0.697754
vt 0.360596 0.894531
vt 0.485107 0.685547
vt 0.350342 0.842773
vt 0.485107 0.708008
vt 0.328613 0.842773
vt 0.433594 0.718262
vt 0.360596 0.791504
vt 0.425293 0.697754
vt 0.341064 0.782227
vt 0.375000 0.731934
vt 0.390381 0.747070
vt 0.142212 0.946777
vt 0.163818 0.837891
vt 0.071289 0.899414
vt 0.225586 0.930176
vt 0.053833 0.816406
vt 0.272949 0.859375
vt 0.101135 0.745117
vt 0.256348 0.775879
vt 0.185425 0.729004
vt 0.439697 0.961426
vt 0.410889 0.922363
vt 0.399658 0.934570
vt 0.372803 0.894531
vt 0.446045 0.945801
vt 0.487061 0.970703
vt 0.387207 0.888184
vt 0.362549 0.847168
vt 0.487061 0.954102
vt 0.534180 0.961426
vt 0.487061 0.847168
vt 0.528320 0.945801
vt 0.562988 0.922363
vt 0.574219 0.934570
vt 0.585938 0.888184
vt 0.601074 0.894531
vt 0.610352 0.847168
vt 0.593750 0.847168
vt 0.601074 0.799805
vt 0.585938 0.806152
vt 0.574219 0.759766
vt 0.562988 0.770996
vt 0.534180 0.731934
vt 0.528320 0.747070
vt 0.487061 0.722656
vt 0.487061 0.739258
vt 0.446045 0.747070
vt 0.439697 0.731934
vt 0.399658 0.759766
vt 0.410889 0.770996
vt 0.372803 0.799805
vt 0.387207 0.806152
vt 0.380127 0.847168
vt 0.697754 0.889160
vt 0.741211 0.913086
vt 0.718750 0.879883
vt 0.711426 0.840820
vt 0.724609 0.929199
vt 0.773926 0.934570
vt 0.687500 0.840820
vt 0.690918 0.891113
vt 0.719727 0.934570
vt 0.681641 0.840820
vt 0.764648 0.956055
vt 0.762695 0.962402
vt 0.812988 0.942871
vt 0.812988 0.972656
vt 0.812988 0.965332
vt 0.863770 0.962402
vt 0.860352 0.956055
vt 0.851074 0.934570
vt 0.905762 0.934570
vt 0.884277 0.913086
vt 0.900391 0.929199
vt 0.934570 0.891113
vt 0.928223 0.889160
vt 0.906738 0.879883
vt 0.914062 0.840820
vt 0.937500 0.840820
vt 0.944824 0.840820
vt 0.928223 0.793457
vt 0.906738 0.802734
vt 0.934570 0.790527
vt 0.884277 0.770020
vt 0.900391 0.753418
vt 0.905762 0.748535
vt 0.851074 0.747070
vt 0.860352 0.725586
vt 0.863770 0.719727
vt 0.812988 0.740234
vt 0.812988 0.716309
vt 0.812988 0.708984
vt 0.762695 0.719727
vt 0.764648 0.725586
vt 0.773926 0.747070
vt 0.719727 0.748535
vt 0.741211 0.770020
vt 0.724609 0.753418
vt 0.718750 0.802734
vt 0.697754 0.793457
vt 0.690918 0.790527
vt 0.878906 0.906738
vt 0.812012 0.839844
vt 0.849121 0.927246
vt 0.899414 0.875977
vt 0.812012 0.934570
vt 0.906738 0.839844
vt 0.776367 0.927246
vt 0.899414 0.803711
vt 0.746094 0.906738
vt 0.878906 0.772949
vt 0.725586 0.875977
vt 0.849121 0.752441
vt 0.718750 0.839844
vt 0.812012 0.745117
vt 0.725586 0.803711
vt 0.776367 0.752441
vt 0.746094 0.772949
s 0
usemtl Painkiller
f 1/1/1 2/2/1 3/2/1
f 1/1/1 3/2/1 4/1/1
s 1
f 5/2/2 6/3/2 7/3/2
s 0
f 5/2/2 7/3/2 8/2/2
f 9/3/3 10/4/3 11/4/3
f 9/3/3 11/4/3 12/3/3
f 13/4/4 14/5/4 15/5/4
f 13/4/4 15/5/4 16/4/4
f 17/5/5 18/6/5 19/6/5
f 17/5/5 19/6/5 20/5/5
f 21/6/6 22/7/6 23/7/6
s 1
f 21/6/6 23/7/6 24/6/6
s 0
f 25/7/7 26/8/7 27/8/7
f 25/7/7 27/8/7 28/7/7
f 29/8/8 30/9/8 31/9/8
f 29/8/8 31/9/8 32/8/8
s 1
f 33/9/9 34/10/9 35/10/9
s 0
f 33/9/9 35/10/9 36/9/9
f 37/11/10 38/10/10 39/10/10
f 38/10/10 37/11/10 40/11/10
s 1
f 41/12/11 42/11/11 43/11/11
s 0
f 42/11/11 41/12/11 44/12/11
f 45/13/12 46/12/12 47/12/12
f 46/12/12 45/13/12 48/13/12
f 49/13/13 50/14/13 51/14/13
f 49/13/13 51/14/13 52/13/13
f 53/14/14 54/15/14 55/15/14
f 53/14/14 55/15/14 56/14/14
f 57/15/15 58/16/15 59/16/15
f 57/15/15 59/16/15 60/15/15
f 61/16/16 62/1/16 63/1/16
f 61/16/16 63/1/16 64/16/16
s 1
f 65/17/17 66/18/17 67/19/18
f 67/19/18 66/18/17 68/20/18
f 67/19/18 68/20/18 69/21/19
f 69/21/19 68/20/18 70/22/19
f 69/21/19 70/22/19 71/23/20
f 71/23/20 70/22/19 72/24/20
f 71/23/20 72/24/20 73/25/21
f 74/26/21 73/25/21 72/24/20
f 73/25/21 74/26/21 75/27/22
f 76/28/22 75/27/22 74/26/21
f 75/27/22 76/28/22 77/29/23
f 78/30/23 77/29/23 76/28/22
f 77/29/23 78/30/23 79/31/24
f 80/32/24 79/31/24 78/30/23
f 81/33/25 79/31/24 80/32/24
f 79/31/24 81/33/25 82/34/25
f 83/35/26 82/34/25 81/33/25
f 82/34/25 83/35/26 84/36/26
f 83/35/26 85/37/27 84/36/26
f 86/38/27 85/37/27 83/35/26
f 86/38/27 87/39/28 85/37/27
f 88/40/28 87/39/28 86/38/27
f 88/40/28 89/41/29 87/39/28
f 89/41/29 88/40/28 90/42/29
f 90/42/29 91/43/30 89/41/29
f 91/43/30 90/42/29 92/44/30
f 92/44/30 93/45/31 91/43/30
f 93/45/31 92/44/30 94/46/31
f 94/46/31 95/47/32 93/45/31
f 95/47/32 94/46/31 96/48/32
f 96/48/32 97/49/33 95/47/32
f 97/49/33 96/48/32 98/50/33
f 99/51/25 100/52/25 101/53/24
f 101/53/24 102/54/24 99/51/25
f 102/54/24 101/53/24 103/55/23
f 103/55/23 104/56/23 102/54/24
f 104/56/23 103/55/23 105/57/22
f 105/57/22 106/58/22 104/56/23
f 106/58/22 105/57/22 107/59/21
f 107/59/21 108/60/21 106/58/22
f 108/60/21 107/59/21 109/61/20
f 109/61/20 110/62/20 108/60/21
f 111/63/19 110/62/20 109/61/20
f 111/63/19 112/64/19 110/62/20
f 113/65/18 112/64/19 111/63/19
f 113/65/18 114/66/18 112/64/19
f 115/67/33 114/66/18 113/65/18
f 115/67/33 116/68/33 114/66/18
f 117/69/32 116/68/33 115/67/33
f 117/69/32 118/70/32 116/68/33
f 117/69/32 119/71/31 118/70/32
f 118/70/32 119/71/31 120/72/31
f 120/72/31 119/71/31 121/73/30
f 119/71/31 122/74/30 121/73/30
f 122/74/30 123/75/29 121/73/30
f 121/73/30 123/75/29 124/76/29
f 123/75/29 125/77/28 124/76/29
f 124/76/29 125/77/28 126/78/28
f 126/78/28 125/77/28 127/79/27
f 128/80/27 126/78/28 127/79/27
f 128/80/27 127/79/27 129/81/26
f 130/82/26 128/80/27 129/81/26
f 130/82/26 129/81/26 131/83/34
f 131/83/34 132/84/34 130/82/26
f 133/49/25 134/50/25 135/48/24
f 135/48/24 136/47/24 133/49/25
f 136/47/24 135/48/24 137/46/23
f 137/46/23 138/45/23 136/47/24
f 138/45/23 137/46/23 139/44/22
f 139/44/22 140/43/22 138/45/23
f 140/43/22 139/44/22 141/42/21
f 141/42/21 142/41/21 140/43/22
f 142/41/21 141/42/21 143/40/20
f 143/40/20 144/39/20 142/41/21
f 143/40/20 145/38/19 144/39/20
f 145/38/19 146/37/19 144/39/20
f 145/38/19 147/35/18 146/37/19
f 147/35/18 148/36/18 146/37/19
f 149/34/33 148/36/18 147/35/18
f 147/35/18 150/33/33 149/34/33
f 151/31/32 149/34/33 150/33/33
f 150/33/33 152/32/32 151/31/32
f 152/32/32 153/30/31 151/31/32
f 154/29/31 151/31/32 153/30/31
f 153/30/31 155/28/30 154/29/31
f 156/27/30 154/29/31 155/28/30
f 155/28/30 157/26/29 156/27/30
f 158/25/29 156/27/30 157/26/29
f 157/26/29 159/24/28 158/25/29
f 160/23/28 158/25/29 159/24/28
f 160/23/28 159/24/28 161/22/27
f 162/21/27 160/23/28 161/22/27
f 162/21/27 161/22/27 163/20/26
f 164/19/26 162/21/27 163/20/26
f 164/19/26 163/20/26 165/18/34
f 166/17/34 164/19/26 165/18/34
f 167/51/33 168/53/32 169/52/33
f 168/53/32 167/51/33 170/54/32
f 170/54/32 171/55/31 168/53/32
f 171/55/31 170/54/32 172/56/31
f 172/56/31 173/57/30 171/55/31
f 173/57/30 172/56/31 174/58/30
f 174/58/30 175/59/29 173/57/30
f 175/59/29 174/58/30 176/60/29
f 176/60/29 177/61/28 175/59/29
f 177/61/28 176/60/29 178/62/28
f 179/63/27 177/61/28 178/62/28
f 179/63/27 178/62/28 180/64/27
f 181/65/26 179/63/27 180/64/27
f 181/65/26 180/64/27 182/66/26
f 183/67/25 181/65/26 182/66/26
f 183/67/25 182/66/26 184/68/25
f 185/69/24 183/67/25 184/68/25
f 185/69/24 184/68/25 186/70/24
f 185/69/24 186/70/24 187/71/23
f 186/70/24 188/72/23 187/71/23
f 188/72/23 189/73/22 187/71/23
f 187/71/23 189/73/22 190/74/22
f 190/74/22 189/73/22 191/75/21
f 189/73/22 192/76/21 191/75/21
f 191/75/21 192/76/21 193/77/20
f 192/76/21 194/78/20 193/77/20
f 194/78/20 195/79/19 193/77/20
f 196/80/19 195/79/19 194/78/20
f 196/80/19 197/81/18 195/79/19
f 198/82/18 197/81/18 196/80/19
f 198/82/18 199/83/17 197/81/18
f 199/83/17 198/82/18 200/84/17
s 0
f 201/53/35 202/52/35 203/52/35
f 202/52/35 201/53/35 204/53/35
f 205/55/35 204/53/35 201/53/35
f 204/53/35 205/55/35 206/55/35
f 207/57/35 206/55/35 205/55/35
f 206/55/35 207/57/35 208/57/35
f 209/59/35 208/57/35 207/57/35
f 208/57/35 209/59/35 210/59/35
f 209/59/35 211/61/35 210/59/35
f 211/61/35 209/59/35 212/61/35
f 212/61/35 213/63/35 211/61/35
f 213/63/35 212/61/35 214/63/35
f 214/63/35 215/65/35 213/63/35
f 215/65/35 214/63/35 216/65/35
f 217/67/35 215/65/35 216/65/35
f 216/65/35 218/67/35 217/67/35
f 219/69/35 217/67/35 218/67/35
f 218/67/35 220/69/35 219/69/35
f 220/69/35 221/71/35 219/69/35
f 220/69/35 222/71/35 221/71/35
f 222/71/35 223/74/35 221/71/35
f 223/74/35 222/71/35 224/74/35
f 224/74/35 225/75/35 223/74/35
f 225/75/35 224/74/35 226/75/35
f 227/77/35 225/75/35 226/75/35
f 225/75/35 227/77/35 228/77/35
f 229/79/35 228/77/35 227/77/35
f 228/77/35 229/79/35 230/79/35
f 231/81/35 230/79/35 229/79/35
f 230/79/35 231/81/35 232/81/35
f 233/83/35 232/81/35 231/81/35
f 232/81/35 233/83/35 234/83/35
s 1
f 235/85/24 236/86/25 237/87/25
f 235/85/24 237/87/25 238/88/24
f 239/89/23 235/85/24 238/88/24
f 238/88/24 240/90/23 239/89/23
f 241/91/22 239/89/23 240/90/23
f 240/90/23 242/92/22 241/91/22
f 242/92/22 243/93/21 241/91/22
f 241/91/22 243/93/21 244/94/21
f 245/95/20 244/94/21 243/93/21
f 243/93/21 246/96/20 245/95/20
f 247/97/19 245/95/20 246/96/20
f 245/95/20 247/97/19 248/98/19
f 249/99/18 248/98/19 247/97/19
f 248/98/19 249/99/18 250/100/18
f 249/99/18 251/101/33 250/100/18
f 249/99/18 252/102/33 251/101/33
f 252/102/33 253/103/32 251/101/33
f 252/102/33 254/104/32 253/103/32
f 254/104/32 255/105/31 253/103/32
f 255/105/31 254/104/32 256/106/31
f 256/106/31 257/107/30 255/105/31
f 257/107/30 256/106/31 258/108/30
f 258/108/30 259/109/29 257/107/30
f 259/109/29 258/108/30 260/110/29
f 260/110/29 261/111/28 259/109/29
f 261/111/28 260/110/29 262/112/28
f 263/113/27 261/111/28 262/112/28
f 263/113/27 262/112/28 264/114/27
f 265/115/26 263/113/27 264/114/27
f 265/115/26 264/114/27 266/116/26
f 267/117/34 265/115/26 266/116/26
f 267/117/34 266/116/26 268/118/34
f 269/119/28 270/120/29 271/121/36
f 272/122/28 270/120/29 269/119/28
f 273/123/27 272/122/28 269/119/28
f 272/122/28 273/123/27 274/124/27
f 275/125/26 274/124/27 273/123/27
f 274/124/27 275/125/26 276/126/26
f 277/127/25 276/126/26 275/125/26
f 276/126/26 277/127/25 278/128/25
f 279/129/24 278/128/25 277/127/25
f 278/128/25 279/129/24 280/130/24
f 279/129/24 281/131/23 280/130/24
f 280/130/24 281/131/23 282/132/23
f 281/131/23 283/133/22 282/132/23
f 283/133/22 281/131/23 284/134/22
f 284/134/22 285/135/21 283/133/22
f 283/133/22 285/135/21 286/136/21
f 285/135/21 287/137/20 286/136/21
f 286/136/21 287/137/20 288/138/20
f 287/137/20 289/139/19 288/138/20
f 289/139/19 287/137/20 290/140/19
f 290/140/19 291/141/18 289/139/19
f 291/141/18 290/140/19 292/142/18
f 292/142/18 293/143/33 291/141/18
f 294/144/33 291/141/18 293/143/33
f 293/143/33 295/145/32 294/144/33
f 296/146/32 294/144/33 295/145/32
f 297/147/31 296/146/32 295/145/32
f 296/146/32 297/147/31 298/148/31
f 299/149/30 298/148/31 297/147/31
f 300/150/30 298/148/31 299/149/30
f 301/151/37 300/150/30 299/149/30
f 302/152/37 300/150/30 301/151/37
f 303/153/12 304/154/14 305/155/12
f 305/155/12 304/154/14 306/156/14
f 307/157/16 306/156/14 304/154/14
f 306/156/14 307/157/16 308/158/16
f 309/159/2 308/158/16 307/157/16
f 308/158/16 309/159/2 310/160/2
f 311/161/4 310/160/2 309/159/2
f 312/162/4 310/160/2 311/161/4
f 313/163/6 312/162/4 311/161/4
f 314/164/6 312/162/4 313/163/6
f 313/163/6 315/165/8 314/164/6
f 316/166/8 314/164/6 315/165/8
f 315/165/8 317/167/10 316/166/8
f 318/168/10 316/166/8 317/167/10
f 317/167/10 319/169/12 318/168/10
f 318/168/10 319/169/12 320/170/12
f 321/171/38 322/172/39 323/173/40
f 322/172/39 321/171/38 324/174/41
f 325/175/42 322/172/39 324/174/41
f 322/172/39 325/175/42 326/176/43
f 327/177/44 326/176/43 325/175/42
f 326/176/43 327/177/44 328/178/45
f 327/177/44 329/179/46 328/178/45
f 327/177/44 330/180/47 329/179/46
f 330/180/47 331/181/48 329/179/46
f 330/180/47 332/182/49 331/181/48
f 333/183/50 331/181/48 332/182/49
f 331/181/48 333/183/50 334/184/51
f 335/185/52 334/184/51 333/183/50
f 334/184/51 335/185/52 336/186/53
f 337/187/54 336/186/53 335/185/52
f 338/188/55 337/187/54 335/185/52
f 339/189/56 337/187/54 338/188/55
f 340/190/57 339/189/56 338/188/55
f 341/191/58 339/189/56 340/190/57
f 339/189/56 341/191/58 342/192/59
f 343/193/60 342/192/59 341/191/58
f 342/192/59 343/193/60 344/194/61
f 344/194/61 343/193/60 345/195/62
f 345/195/62 343/193/60 346/196/63
f 345/195/62 346/196/63 347/197/64
f 347/197/64 346/196/63 348/198/65
f 349/199/66 347/197/64 348/198/65
f 347/197/64 349/199/66 350/200/67
f 351/201/68 350/200/67 349/199/66
f 350/200/67 351/201/68 352/202/69
f 351/201/68 353/203/70 352/202/69
f 353/203/70 351/201/68 354/204/71
f 355/205/72 356/206/32 357/207/33
f 358/208/73 356/206/32 355/205/72
f 358/208/73 359/209/31 356/206/32
f 360/210/74 355/205/72 361/211/75
f 355/205/72 360/210/74 358/208/73
f 359/209/31 358/208/73 362/212/76
f 360/210/74 362/212/76 358/208/73
f 362/212/76 363/213/30 359/209/31
f 362/212/76 360/210/74 364/214/77
f 363/213/30 362/212/76 365/215/78
f 364/214/77 365/215/78 362/212/76
f 365/215/78 364/214/77 366/216/79
f 367/217/80 365/215/78 366/216/79
f 365/215/78 368/218/29 363/213/30
f 365/215/78 367/217/80 369/219/81
f 368/218/29 365/215/78 369/219/81
f 370/220/82 368/218/29 369/219/81
f 370/220/82 371/221/28 368/218/29
f 372/222/83 369/219/81 373/223/84
f 369/219/81 372/222/83 370/220/82
f 374/224/85 371/221/28 370/220/82
f 374/224/85 370/220/82 372/222/83
f 371/221/28 374/224/85 375/225/27
f 374/224/85 372/222/83 376/226/86
f 377/227/26 375/225/27 374/224/85
f 378/228/87 374/224/85 376/226/86
f 377/227/26 374/224/85 378/228/87
f 378/228/87 376/226/86 379/229/88
f 380/230/25 377/227/26 378/228/87
f 381/231/89 378/228/87 379/229/88
f 380/230/25 378/228/87 382/232/90
f 378/228/87 381/231/89 382/232/90
f 383/233/24 380/230/25 382/232/90
f 384/234/91 382/232/90 381/231/89
f 383/233/24 382/232/90 385/235/92
f 382/232/90 384/234/91 385/235/92
f 383/233/24 385/235/92 386/236/23
f 387/237/93 385/235/92 384/234/91
f 385/235/92 387/237/93 386/236/23
f 384/234/91 388/238/94 387/237/93
f 386/236/23 387/237/93 389/239/22
f 387/237/93 390/240/95 389/239/22
f 390/240/95 387/237/93 391/241/96
f 391/241/96 392/242/97 390/240/95
f 393/243/98 390/240/95 392/242/97
f 389/239/22 390/240/95 394/244/21
f 390/240/95 393/243/98 395/245/99
f 390/240/95 395/245/99 394/244/21
f 394/244/21 395/245/99 396/246/20
f 395/245/99 397/247/100 396/246/20
f 397/247/100 398/248/19 396/246/20
f 399/249/101 395/245/99 400/250/102
f 395/245/99 399/249/101 397/247/100
f 401/251/103 398/248/19 397/247/100
f 399/249/101 401/251/103 397/247/100
f 401/251/103 402/252/18 398/248/19
f 399/249/101 403/253/104 401/251/103
f 404/254/105 402/252/18 401/251/103
f 403/253/104 404/254/105 401/251/103
f 404/254/105 405/255/17 402/252/18
f 403/253/104 406/256/106 404/254/105
f 407/257/107 405/255/17 404/254/105
f 408/258/108 404/254/105 406/256/106
f 404/254/105 408/258/108 407/257/107
f 409/205/109 410/207/25 411/206/24
f 412/208/110 409/205/109 411/206/24
f 412/208/110 411/206/24 413/209/23
f 414/210/111 415/211/112 409/205/109
f 409/205/109 412/208/110 414/210/111
f 413/209/23 416/212/113 412/208/110
f 414/210/111 412/208/110 416/212/113
f 416/212/113 413/209/23 417/213/22
f 416/212/113 418/214/114 414/210/111
f 417/213/22 419/215/115 416/212/113
f 418/214/114 416/212/113 419/215/115
f 419/215/115 420/216/116 418/214/114
f 421/217/117 420/216/116 419/215/115
f 419/215/115 417/213/22 422/218/21
f 419/215/115 423/219/118 421/217/117
f 422/218/21 423/219/118 419/215/115
f 424/220/119 423/219/118 422/218/21
f 424/220/119 422/218/21 425/221/20
f 426/222/120 427/223/117 423/219/118
f 423/219/118 424/220/119 426/222/120
f 428/224/121 424/220/119 425/221/20
f 428/224/121 426/222/120 424/220/119
f 425/221/20 429/225/19 428/224/121
f 428/224/121 430/226/122 426/222/120
f 431/227/18 428/224/121 429/225/19
f 432/228/123 430/226/122 428/224/121
f 431/227/18 432/228/123 428/224/121
f 432/228/123 433/229/124 430/226/122
f 434/230/33 432/228/123 431/227/18
f 435/231/125 433/229/124 432/228/123
f 434/230/33 436/232/126 432/228/123
f 432/228/123 436/232/126 435/231/125
f 437/233/32 436/232/126 434/230/33
f 438/234/127 435/231/125 436/232/126
f 437/233/32 439/235/128 436/232/126
f 436/232/126 439/235/128 438/234/127
f 437/233/32 440/236/31 439/235/128
f 441/237/129 438/234/127 439/235/128
f 439/235/128 440/236/31 441/237/129
f 438/234/127 441/237/129 442/238/130
f 440/236/31 443/239/30 441/237/129
f 441/237/129 443/239/30 444/240/131
f 444/240/131 445/241/130 441/237/129
f 445/241/130 444/240/131 446/242/132
f 447/243/133 446/242/132 444/240/131
f 443/239/30 448/244/29 444/240/131
f 444/240/131 449/245/134 447/243/133
f 444/240/131 448/244/29 449/245/134
f 448/244/29 450/246/28 449/245/134
f 449/245/134 450/246/28 451/247/135
f 451/247/135 450/246/28 452/248/27
f 453/249/136 454/250/137 449/245/134
f 449/245/134 451/247/135 453/249/136
f 455/251/138 451/247/135 452/248/27
f 453/249/136 451/247/135 455/251/138
f 455/251/138 452/248/27 456/252/26
f 453/249/136 455/251/138 457/253/139
f 458/254/140 455/251/138 456/252/26
f 457/253/139 455/251/138 458/254/140
f 458/254/140 456/252/26 459/255/34
f 457/253/139 458/254/140 460/256/141
f 461/257/109 458/254/140 459/255/34
f 462/258/142 460/256/141 458/254/140
f 458/254/140 461/257/109 462/258/142
f 463/259/143 464/260/144 465/261/145
f 464/260/144 466/262/22 467/263/144
f 468/264/22 464/260/144 463/259/143
f 466/262/22 464/260/144 468/264/22
f 469/265/146 468/264/22 463/259/143
f 468/264/22 470/266/23 466/262/22
f 468/264/22 469/265/146 471/267/23
f 470/266/23 468/264/22 471/267/23
f 472/268/147 471/267/23 469/265/146
f 471/267/23 473/269/24 470/266/23
f 474/270/24 471/267/23 472/268/147
f 473/269/24 471/267/23 474/270/24
f 472/268/147 475/271/148 474/270/24
f 474/270/24 476/272/25 473/269/24
f 477/273/25 474/270/24 475/271/148
f 476/272/25 474/270/24 477/273/25
f 475/271/148 478/274/149 477/273/25
f 477/273/25 479/275/26 476/272/25
f 480/276/26 477/273/25 478/274/149
f 480/276/26 479/275/26 477/273/25
f 478/274/149 481/277/150 480/276/26
f 480/276/26 482/278/27 479/275/26
f 483/279/27 480/276/26 481/277/150
f 483/279/27 482/278/27 480/276/26
f 481/277/150 484/280/151 483/279/27
f 483/279/27 485/281/28 482/278/27
f 486/282/28 483/279/27 484/280/151
f 486/282/28 485/281/28 483/279/27
f 484/280/151 487/283/152 486/282/28
f 485/281/28 486/282/28 488/284/29
f 486/282/28 487/283/152 489/285/29
f 486/282/28 489/285/29 488/284/29
f 487/283/152 490/286/153 489/285/29
f 488/284/29 489/285/29 491/287/30
f 489/285/29 490/286/153 492/288/30
f 489/285/29 492/288/30 491/287/30
f 490/286/153 493/289/154 492/288/30
f 492/288/30 494/290/31 491/287/30
f 492/288/30 493/289/154 494/290/31
f 491/287/30 494/290/31 495/291/31
f 493/289/154 496/292/155 494/290/31
f 495/291/31 494/290/31 497/293/32
f 494/290/31 496/292/155 498/294/32
f 494/290/31 498/294/32 497/293/32
f 499/295/156 498/294/32 496/292/155
f 500/296/33 497/293/32 498/294/32
f 498/294/32 499/295/156 501/297/33
f 500/296/33 498/294/32 501/297/33
f 502/298/157 501/297/33 499/295/156
f 503/299/18 500/296/33 501/297/33
f 501/297/33 502/298/157 504/300/18
f 503/299/18 501/297/33 504/300/18
f 505/301/158 504/300/18 502/298/157
f 506/302/19 503/299/18 504/300/18
f 504/300/18 505/301/158 507/303/19
f 506/302/19 504/300/18 507/303/19
f 508/304/159 507/303/19 505/301/158
f 509/305/20 506/302/19 507/303/19
f 507/303/19 508/304/159 509/305/20
f 506/302/19 509/305/20 510/306/20
f 511/307/160 509/305/20 508/304/159
f 509/305/20 512/308/21 510/306/20
f 513/309/21 509/305/20 511/307/160
f 512/308/21 509/305/20 513/309/21
s 0
f 514/310/161 515/311/161 516/312/161
f 517/313/161 515/311/161 514/310/161
f 515/311/161 518/314/161 516/312/161
f 515/311/161 517/313/161 519/315/161
f 518/314/161 515/311/161 520/316/161
f 521/317/161 519/315/161 517/313/161
f 518/314/161 520/316/161 522/318/161
f 521/317/161 523/319/161 519/315/161
f 520/316/161 524/320/161 522/318/161
f 523/319/161 521/317/161 525/321/161
f 524/320/161 520/316/161 526/322/161
f 527/323/161 523/319/161 525/321/161
f 524/320/161 526/322/161 528/324/161
f 527/323/161 529/325/161 523/319/161
f 526/322/161 530/326/161 528/324/161
f 529/325/161 527/323/161 531/327/161
f 528/324/161 530/326/161 532/328/161
f 533/329/161 529/325/161 531/327/161
f 532/328/161 530/326/161 534/330/161
f 533/329/161 535/331/161 529/325/161
f 530/326/161 536/332/161 534/330/161
f 536/332/161 530/326/161 535/331/161
f 535/331/161 533/329/161 537/333/161
f 536/332/161 535/331/161 537/333/161
s 1
f 538/11/162 539/12/163 540/334/163
f 541/13/164 540/334/163 539/12/163
f 540/334/163 542/335/162 538/11/162
f 540/334/163 541/13/164 543/336/164
f 542/335/162 544/10/165 538/11/162
f 545/14/166 543/336/164 541/13/164
f 544/10/165 542/335/162 546/337/165
f 543/336/164 545/14/166 547/338/166
f 546/337/165 548/9/167 544/10/165
f 549/15/168 547/338/166 545/14/166
f 548/9/167 546/337/165 550/339/167
f 547/338/166 549/15/168 551/340/168
f 552/341/169 548/9/167 550/339/167
f 549/15/168 553/342/170 551/340/168
f 548/9/167 552/341/169 554/8/169
f 553/342/170 549/15/168 555/16/170
f 556/343/171 554/8/169 552/341/169
f 557/1/172 553/342/170 555/16/170
f 554/8/169 556/343/171 558/7/171
f 553/342/170 557/1/172 559/344/172
f 560/345/173 558/7/171 556/343/171
f 561/2/174 559/344/172 557/1/172
f 558/7/171 560/345/173 562/6/173
f 559/344/172 561/2/174 563/346/174
f 564/5/175 562/6/173 560/345/173
f 565/3/176 563/346/174 561/2/174
f 564/5/175 560/345/173 566/347/175
f 563/346/174 565/3/176 567/348/176
f 566/347/175 568/4/177 564/5/175
f 569/349/177 567/348/176 565/3/176
f 568/4/177 566/347/175 569/349/177
f 569/349/177 565/3/176 568/4/177
f 570/350/178 571/351/179 572/352/178
f 573/353/180 570/350/178 572/352/178
f 571/351/179 570/350/178 574/354/179
f 570/350/178 573/353/180 575/355/180
f 574/354/179 576/356/181 571/351/179
f 573/353/180 577/357/182 575/355/180
f 576/356/181 574/354/179 578/358/181
f 579/359/182 575/355/180 577/357/182
f 578/358/181 580/360/183 576/356/181
f 577/357/182 581/361/184 579/359/182
f 580/360/183 578/358/181 582/362/183
f 581/361/184 577/357/182 583/363/184
f 582/362/183 584/364/185 580/360/183
f 583/363/184 585/365/186 581/361/184
f 584/364/185 582/362/183 586/366/185
f 585/365/186 583/363/184 587/367/186
f 586/366/185 588/368/187 584/364/185
f 587/367/186 589/369/188 585/365/186
f 588/368/187 586/366/185 590/370/187
f 589/369/188 587/367/186 591/371/188
f 592/372/189 588/368/187 590/370/187
f 593/373/190 589/369/188 591/371/188
f 588/368/187 592/372/189 594/374/189
f 589/369/188 593/373/190 595/375/190
f 592/372/189 596/376/191 594/374/189
f 597/377/192 595/375/190 593/373/190
f 596/376/191 592/372/189 598/378/191
f 599/379/192 595/375/190 597/377/192
f 598/378/191 600/380/193 596/376/191
f 597/377/192 601/381/193 599/379/192
f 596/376/191 600/380/193 601/381/193
f 600/380/193 599/379/192 601/381/193
s 0
f 602/382/161 603/383/161 604/384/161
f 605/385/161 603/383/161 602/382/161
f 604/384/161 603/383/161 606/386/161
f 607/387/161 603/383/161 605/385/161
f 606/386/161 603/383/161 608/388/161
f 609/389/161 603/383/161 607/387/161
f 608/388/161 603/383/161 610/390/161
f 610/390/161 603/383/161 609/389/161
s 1
f 611/391/194 612/392/195 613/393/196
f 614/394/197 613/393/196 612/392/195
f 612/392/195 611/391/194 615/395/198
f 616/396/199 615/395/198 611/391/194
f 614/394/197 612/392/195 617/397/200
f 618/398/201 614/394/197 617/397/200
f 615/395/198 616/396/199 619/399/202
f 620/400/203 619/399/202 616/396/199
f 612/392/195 615/395/198 621/401/161
f 615/395/198 619/399/202 621/401/161
f 617/397/200 612/392/195 621/401/161
f 619/399/202 620/400/203 622/402/204
f 619/399/202 622/402/204 621/401/161
f 620/400/203 623/403/205 622/402/204
f 622/402/204 623/403/205 621/401/161
f 623/403/205 620/400/203 624/404/206
f 624/404/206 625/405/207 623/403/205
f 623/403/205 625/405/207 621/401/161
f 624/404/206 626/406/208 625/405/207
f 627/407/209 625/405/207 626/406/208
f 625/405/207 627/407/209 628/408/210
f 625/405/207 628/408/210 621/401/161
f 629/409/211 628/408/210 627/407/209
f 628/408/210 629/409/211 630/410/212
f 628/408/210 630/410/212 621/401/161
f 631/411/213 630/410/212 629/409/211
f 630/410/212 631/411/213 632/412/214
f 630/410/212 632/412/214 621/401/161
f 633/413/215 632/412/214 631/411/213
f 632/412/214 633/413/215 634/414/216
f 632/412/214 634/414/216 621/401/161
f 635/415/217 634/414/216 633/413/215
f 634/414/216 635/415/217 636/416/218
f 634/414/216 636/416/218 621/401/161
f 635/415/217 637/417/219 636/416/218
f 636/416/218 637/417/219 621/401/161
f 635/415/217 638/418/220 637/417/219
f 639/419/221 637/417/219 638/418/220
f 637/417/219 639/419/221 640/420/222
f 637/417/219 640/420/222 621/401/161
f 641/421/223 640/420/222 639/419/221
f 640/420/222 641/421/223 642/422/224
f 640/420/222 642/422/224 621/401/161
f 618/398/201 642/422/224 641/421/223
f 642/422/224 643/423/225 621/401/161
f 642/422/224 618/398/201 643/423/225
f 643/423/225 617/397/200 621/401/161
f 618/398/201 617/397/200 643/423/225
f 644/394/226 645/392/227 646/393/228
f 647/391/229 646/393/228 645/392/227
f 644/394/226 648/397/230 645/392/227
f 649/398/231 648/397/230 644/394/226
f 645/392/227 650/395/232 647/391/229
f 651/396/233 647/391/229 650/395/232
f 649/398/231 652/423/234 648/397/230
f 650/395/232 653/399/235 651/396/233
f 654/400/236 651/396/233 653/399/235
f 655/422/237 652/423/234 649/398/231
f 649/398/231 656/421/238 655/422/237
f 653/399/235 657/402/239 654/400/236
f 658/420/240 655/422/237 656/421/238
f 656/421/238 659/419/241 658/420/240
f 654/400/236 657/402/239 660/403/242
f 660/403/242 661/404/243 654/400/236
f 662/417/244 658/420/240 659/419/241
f 659/419/241 663/418/245 662/417/244
f 664/415/246 662/417/244 663/418/245
f 661/404/243 660/403/242 665/405/247
f 661/404/243 665/405/247 666/406/248
f 667/407/249 666/406/248 665/405/247
f 664/415/246 668/416/250 662/417/244
f 665/405/247 669/408/251 667/407/249
f 670/409/252 667/407/249 669/408/251
f 671/414/253 668/416/250 664/415/246
f 664/415/246 672/413/254 671/414/253
f 669/408/251 673/410/255 670/409/252
f 674/411/256 670/409/252 673/410/255
f 672/413/254 674/411/256 675/412/257
f 673/410/255 675/412/257 674/411/256
f 675/412/257 671/414/253 672/413/254
f 669/408/251 676/401/35 673/410/255
f 673/410/255 676/401/35 675/412/257
f 675/412/257 676/401/35 671/414/253
f 665/405/247 676/401/35 669/408/251
f 671/414/253 676/401/35 668/416/250
f 660/403/242 676/401/35 665/405/247
f 668/416/250 676/401/35 662/417/244
f 657/402/239 676/401/35 660/403/242
f 662/417/244 676/401/35 658/420/240
f 653/399/235 676/401/35 657/402/239
f 658/420/240 676/401/35 655/422/237
f 650/395/232 676/401/35 653/399/235
f 655/422/237 676/401/35 652/423/234
f 645/392/227 676/401/35 650/395/232
f 652/423/234 676/401/35 648/397/230
f 648/397/230 676/401/35 645/392/227
f 677/424/258 678/425/65 679/426/259
f 680/427/60 677/424/258 679/426/259
f 678/425/65 677/424/258 681/428/260
f 681/428/260 682/429/261 678/425/65
f 677/424/258 680/427/60 683/430/262
f 684/431/148 681/428/260 677/424/258
f 683/430/262 684/431/148 677/424/258
f 681/428/260 684/431/148 685/432/263
f 684/431/148 683/430/262 686/433/149
f 685/432/263 687/434/264 681/428/260
f 682/429/261 681/428/260 687/434/264
f 687/434/264 685/432/263 688/435/146
f 689/436/68 682/429/261 687/434/264
f 690/437/143 687/434/264 688/435/146
f 687/434/264 690/437/143 691/438/265
f 687/434/264 691/438/265 689/436/68
f 692/439/145 691/438/265 690/437/143
f 693/440/266 689/436/68 691/438/265
f 691/438/265 692/439/145 693/440/266
f 689/436/68 693/440/266 694/441/38
f 695/442/267 693/440/266 692/439/145
f 693/440/266 696/443/41 694/441/38
f 693/440/266 695/442/267 697/444/268
f 696/443/41 693/440/266 697/444/268
f 698/445/158 697/444/268 695/442/267
f 699/446/269 696/443/41 697/444/268
f 697/444/268 698/445/158 699/446/269
f 696/443/41 699/446/269 700/447/270
f 699/446/269 701/448/44 700/447/270
f 698/445/158 702/449/271 699/446/269
f 701/448/44 699/446/269 702/449/271
f 702/449/271 698/445/158 703/450/157
f 704/451/272 701/448/44 702/449/271
f 704/451/272 702/449/271 703/450/157
f 701/448/44 704/451/272 705/452/273
f 703/450/157 706/453/156 704/451/272
f 705/452/273 704/451/272 707/454/49
f 708/455/274 704/451/272 706/453/156
f 704/451/272 708/455/274 707/454/49
f 706/453/156 709/456/155 708/455/274
f 708/455/274 710/457/275 707/454/49
f 709/456/155 711/458/276 708/455/274
f 708/455/274 711/458/276 710/457/275
f 709/456/155 712/459/154 711/458/276
f 711/458/276 713/460/52 710/457/275
f 712/459/154 714/461/277 711/458/276
f 713/460/52 711/458/276 714/461/277
f 714/461/277 712/459/154 715/462/153
f 716/463/152 714/461/277 715/462/153
f 717/464/278 713/460/52 714/461/277
f 714/461/277 716/463/152 717/464/278
f 713/460/52 717/464/278 718/465/279
f 719/466/151 717/464/278 716/463/152
f 720/467/57 718/465/279 717/464/278
f 717/464/278 721/468/280 720/467/57
f 717/464/278 719/466/151 721/468/280
f 722/469/281 720/467/57 721/468/280
f 723/470/282 721/468/280 719/466/151
f 721/468/280 723/470/282 722/469/281
f 719/466/151 724/471/150 723/470/282
f 723/470/282 680/427/60 722/469/281
f 686/433/149 723/470/282 724/471/150
f 723/470/282 683/430/262 680/427/60
f 723/470/282 686/433/149 683/430/262
s 0
f 725/472/35 726/473/35 727/474/35
f 728/475/35 726/473/35 725/472/35
f 727/474/35 726/473/35 729/476/35
f 730/477/35 726/473/35 728/475/35
f 729/476/35 726/473/35 731/478/35
f 732/479/35 726/473/35 730/477/35
f 731/478/35 726/473/35 733/480/35
f 734/481/35 726/473/35 732/479/35
f 733/480/35 726/473/35 735/482/35
f 736/483/35 726/473/35 734/481/35
f 735/482/35 726/473/35 737/484/35
f 738/485/35 726/473/35 736/483/35
f 737/484/35 726/473/35 739/486/35
f 740/487/35 726/473/35 738/485/35
f 739/486/35 726/473/35 741/488/35
f 741/488/35 726/473/35 740/487/35
