# Blender 5.1.0
# www.blender.org
mtllib MedicineBottle.mtl
o LP
v -0.571157 -0.494911 -1.432848
v -0.571157 -0.494911 -0.000000
v -0.550904 -0.354044 -1.432848
v -0.491784 -0.224590 -1.432848
v -0.398588 -0.117036 -1.432848
v -0.278865 -0.040095 -1.432848
v -0.142315 0.000000 -1.432848
v 0.000000 0.000000 -1.432848
v 0.000000 0.000000 0.000000
v 0.136550 -0.040095 -1.432848
v 0.256273 -0.117036 -1.432848
v 0.349470 -0.224590 -1.432848
v 0.408589 -0.354044 -1.432848
v 0.408589 -0.354044 0.000000
v 0.428843 -0.494911 -1.432848
v 0.408589 -0.635777 -1.432848
v 0.408589 -0.635777 0.000000
v 0.349470 -0.765231 -1.432848
v 0.256273 -0.872785 -1.432848
v 0.136551 -0.949727 -1.432848
v 0.000001 -0.989821 -1.432848
v -0.142314 -0.989821 -1.432848
v -0.142315 -0.989821 -0.000000
v -0.278864 -0.949727 -1.432848
v -0.398587 -0.872786 -1.432848
v -0.398587 -0.872786 -0.000000
v -0.491784 -0.765232 -1.432848
v -0.550904 -0.635778 -1.432848
v -0.181311 -0.462567 0.311846
v -0.185961 -0.494911 0.311846
v -0.167737 -0.432843 0.311846
v -0.146338 -0.408148 0.311846
v -0.118849 -0.390482 0.311846
v -0.087496 -0.381276 0.311846
v -0.054819 -0.381276 0.311846
v -0.023466 -0.390482 0.311846
v 0.004023 -0.408148 0.311846
v 0.025422 -0.432843 0.311846
v 0.038996 -0.462567 0.311846
v 0.043646 -0.494911 0.311846
v 0.038996 -0.527255 0.311846
v 0.025422 -0.556978 0.311846
v 0.004023 -0.581674 0.311846
v -0.023466 -0.599340 0.311846
v -0.054819 -0.608546 0.311846
v -0.087496 -0.608546 0.311846
v -0.118849 -0.599340 0.311846
v -0.146338 -0.581674 0.311846
v -0.167736 -0.556978 0.311846
v -0.181311 -0.527255 0.311846
v -0.491784 -0.224590 -0.000000
v -0.398588 -0.117036 -0.000000
v -0.142315 0.000000 -0.000000
v 0.256273 -0.117036 0.000000
v 0.349469 -0.224590 0.000000
v -0.278865 -0.949727 -0.000000
v 0.136550 -0.040095 0.311846
v 0.256273 -0.117036 0.311846
v 0.349469 -0.224590 0.311846
v 0.428842 -0.494911 0.311846
v 0.408589 -0.635777 0.311846
v 0.349469 -0.765231 0.311846
v 0.256273 -0.872785 0.311846
v -0.550904 -0.354044 -0.000000
v -0.278865 -0.040095 -0.000000
v 0.136550 -0.040095 0.000000
v 0.428843 -0.494911 0.000000
v 0.349469 -0.765231 0.000000
v 0.256273 -0.872785 0.000000
v 0.136550 -0.949727 0.000000
v 0.000000 -0.989821 0.000000
v -0.491784 -0.765232 -0.000000
v -0.550904 -0.635778 -0.000000
v -0.398588 -0.117036 0.311846
v -0.278865 -0.040095 0.311846
v -0.142315 0.000000 0.311846
v -0.000000 0.000000 0.311846
v 0.408589 -0.354044 0.311846
v 0.136550 -0.949727 0.311846
v 0.000000 -0.989821 0.311846
v -0.491784 -0.765232 0.311846
v -0.591957 -0.341990 -0.000000
v -0.613943 -0.494911 -0.000000
v -0.527778 -0.201458 -0.000000
v -0.426607 -0.084700 -0.000000
v -0.296639 -0.001175 -0.000000
v -0.148404 0.042350 -0.000000
v 0.284292 -0.084701 0.000000
v 0.385463 -0.201459 0.000000
v 0.449642 -0.341990 0.000000
v 0.471628 -0.494911 0.000000
v 0.449642 -0.647831 0.000000
v 0.385463 -0.788363 0.000000
v 0.284292 -0.905121 0.000000
v 0.154324 -0.988646 0.000000
v 0.006089 -1.032172 0.000000
v -0.148404 -1.032172 -0.000000
v -0.296638 -0.988646 -0.000000
v -0.426606 -0.905121 -0.000000
v -0.527778 -0.788363 -0.000000
v -0.591957 -0.647832 -0.000000
v -0.591957 -0.341990 0.311846
v -0.613943 -0.494911 0.311846
v -0.527778 -0.201458 0.311846
v -0.426607 -0.084700 0.311846
v -0.296639 -0.001175 0.311846
v -0.148404 0.042350 0.311846
v 0.006089 0.042350 0.311846
v 0.154324 -0.001175 0.311846
v 0.284292 -0.084701 0.311846
v 0.385463 -0.201458 0.311846
v 0.449642 -0.341990 0.311846
v 0.471628 -0.494911 0.311846
v 0.449642 -0.647831 0.311846
v 0.385463 -0.788363 0.311846
v 0.284292 -0.905121 0.311846
v 0.154324 -0.988646 0.311846
v 0.006089 -1.032172 0.311846
v -0.148404 -1.032172 0.311846
v -0.296639 -0.988646 0.311846
v -0.426606 -0.905121 0.311846
v -0.527778 -0.788363 0.311846
v -0.591957 -0.647832 0.311846
v -0.550904 -0.354044 0.311846
v -0.571158 -0.494911 0.311846
v -0.491784 -0.224590 0.311846
v -0.142315 -0.989821 0.311846
v -0.278865 -0.949727 0.311846
v -0.398588 -0.872786 0.311846
v -0.550904 -0.635778 0.311846
v -0.111211 -0.483150 0.291389
v -0.112901 -0.494911 0.291389
v -0.106275 -0.472342 0.291389
v -0.098494 -0.463363 0.291389
v -0.088499 -0.456939 0.291389
v -0.077098 -0.453592 0.291389
v -0.065217 -0.453592 0.291389
v -0.053816 -0.456939 0.291389
v -0.043821 -0.463363 0.291389
v -0.036040 -0.472342 0.291389
v -0.031104 -0.483150 0.291389
v -0.029414 -0.494911 0.291389
v -0.031104 -0.506671 0.291389
v -0.036040 -0.517479 0.291389
v -0.043821 -0.526459 0.291389
v -0.053816 -0.532882 0.291389
v -0.065217 -0.536230 0.291389
v -0.077098 -0.536230 0.291389
v -0.088499 -0.532882 0.291389
v -0.098494 -0.526459 0.291389
v -0.106275 -0.517479 0.291389
v -0.111211 -0.506671 0.291389
v -0.093159 -0.488450 0.315116
v -0.094088 -0.494911 0.315116
v -0.090448 -0.482513 0.315116
v -0.086174 -0.477581 0.315116
v -0.080683 -0.474052 0.315116
v -0.074421 -0.472214 0.315116
v -0.067894 -0.472214 0.315116
v -0.061632 -0.474052 0.315116
v -0.056141 -0.477581 0.315116
v -0.051867 -0.482513 0.315116
v -0.049156 -0.488450 0.315116
v -0.048227 -0.494911 0.315116
v -0.049156 -0.501371 0.315116
v -0.051867 -0.507308 0.315116
v -0.056141 -0.512240 0.315116
v -0.061632 -0.515769 0.315116
v -0.067894 -0.517608 0.315116
v -0.074421 -0.517608 0.315116
v -0.080683 -0.515769 0.315116
v -0.086174 -0.512240 0.315116
v -0.090448 -0.507308 0.315116
v -0.093159 -0.501371 0.315116
vn -0.6720 -0.0000 -0.7406
vn -0.7067 0.2075 -0.6764
vn -0.7365 -0.0000 -0.6764
vn -0.6447 0.1893 -0.7406
vn -0.6196 0.3982 -0.6764
vn -0.5653 0.3633 -0.7406
vn -0.4823 0.5566 -0.6764
vn -0.4400 0.5078 -0.7406
vn -0.3060 0.6699 -0.6764
vn -0.2791 0.6112 -0.7406
vn -0.1048 0.7290 -0.6764
vn -0.0795 0.3089 -0.9478
vn 0.1048 0.7290 -0.6764
vn 0.1693 0.6795 -0.7138
vn 0.3060 0.6700 -0.6764
vn 0.3840 0.6073 -0.6955
vn 0.4823 0.5566 -0.6764
vn 0.3786 0.5366 -0.7542
vn 0.6196 0.3982 -0.6764
vn 0.5653 0.3633 -0.7406
vn 0.7067 0.2075 -0.6764
vn 0.6447 0.1893 -0.7406
vn 0.7365 -0.0000 -0.6764
vn 0.6720 -0.0000 -0.7406
vn 0.7067 -0.2075 -0.6764
vn 0.6447 -0.1893 -0.7406
vn 0.6196 -0.3982 -0.6764
vn 0.5653 -0.3633 -0.7406
vn 0.4823 -0.5566 -0.6764
vn 0.4400 -0.5078 -0.7406
vn 0.3060 -0.6700 -0.6764
vn 0.2791 -0.6112 -0.7406
vn 0.1048 -0.7290 -0.6764
vn 0.0956 -0.6651 -0.7406
vn -0.1048 -0.7290 -0.6764
vn -0.0956 -0.6651 -0.7406
vn -0.3060 -0.6699 -0.6764
vn -0.2791 -0.6112 -0.7406
vn -0.4823 -0.5566 -0.6764
vn -0.4400 -0.5078 -0.7406
vn -0.6196 -0.3982 -0.6764
vn -0.5653 -0.3633 -0.7406
vn -0.7067 -0.2075 -0.6764
vn -0.6447 -0.1893 -0.7406
vn -0.0515 -0.1127 0.9923
vn 0.1714 0.1978 0.9651
vn -0.0811 -0.0936 0.9923
vn -0.0000 -0.0000 1.0000
vn -0.4823 -0.5566 0.6764
vn 0.3060 -0.6699 -0.6764
vn -0.2109 0.7077 0.6743
vn -0.3060 -0.6699 0.6764
vn -0.3060 0.6699 0.6764
vn -0.1048 -0.7290 0.6764
vn -0.4823 0.5566 0.6764
vn 0.1048 -0.7290 0.6764
vn -0.6196 0.3982 0.6764
vn 0.3060 -0.6699 0.6764
vn -0.7067 0.2075 0.6764
vn 0.4823 -0.5566 0.6764
vn -0.7365 -0.0000 0.6764
vn 0.6196 -0.3982 0.6764
vn -0.6196 0.3982 -0.6765
vn 0.7067 -0.2075 0.6764
vn -0.1014 0.5634 -0.8199
vn 0.7067 0.2075 0.6764
vn -0.6196 -0.3982 0.6764
vn 0.5225 0.6263 0.5785
vn 0.7365 -0.0000 0.6764
vn -0.7067 -0.2075 0.6764
vn 0.2788 0.7968 -0.5361
vn 0.6196 0.3982 0.6764
vn 0.2254 0.6870 0.6908
vn -0.0301 -0.1104 -0.9934
vn 0.1189 -0.0349 0.9923
vn 0.1239 -0.0000 0.9923
vn 0.1042 -0.0670 0.9923
vn 0.0811 -0.0936 0.9923
vn 0.0176 -0.1226 0.9923
vn 0.0515 -0.1127 0.9923
vn -0.0176 -0.1226 0.9923
vn -0.1042 -0.0670 0.9923
vn -0.1239 -0.0000 0.9923
vn -0.1189 -0.0349 0.9923
vn -0.1189 0.0349 0.9923
vn -0.1042 0.0670 0.9923
vn -0.0811 0.0936 0.9923
vn -0.0515 0.1127 0.9923
vn -0.0176 0.1226 0.9923
vn 0.0176 0.1226 0.9923
vn 0.0811 0.0936 0.9923
vn 0.0515 0.1127 0.9923
vn 0.1189 0.0349 0.9923
vn 0.1042 0.0670 0.9923
vn -0.2617 -0.0000 0.9651
vn -0.4472 0.1313 0.8847
vn -0.2511 0.0737 0.9651
vn 0.0372 -0.2591 0.9651
vn 0.2202 0.1415 0.9651
vn -0.2202 0.1415 0.9651
vn -0.0372 -0.2591 0.9651
vn 0.2511 0.0737 0.9651
vn -0.1714 0.1978 0.9651
vn -0.1087 -0.2381 0.9651
vn 0.2617 -0.0000 0.9651
vn -0.1087 0.2381 0.9651
vn -0.1714 -0.1978 0.9651
vn 0.2511 -0.0737 0.9651
vn -0.0373 0.2590 0.9651
vn -0.2202 -0.1415 0.9651
vn 0.2202 -0.1415 0.9651
vn 0.0372 0.2591 0.9651
vn -0.2511 -0.0737 0.9651
vn 0.1714 -0.1978 0.9651
vn 0.1087 0.2381 0.9651
vn 0.1087 -0.2381 0.9651
vn -0.3921 -0.2520 0.8847
vn 0.4472 -0.1313 0.8847
vn -0.1936 0.4240 0.8847
vn 0.1936 -0.4240 0.8847
vn 0.0663 -0.4614 0.8847
vn 0.3052 0.3523 0.8847
vn 0.3921 0.2520 0.8847
vn -0.3921 0.2520 0.8847
vn -0.0663 -0.4614 0.8847
vn 0.4472 0.1313 0.8847
vn -0.3052 0.3523 0.8847
vn -0.1936 -0.4240 0.8847
vn 0.4661 -0.0000 0.8847
vn -0.3052 -0.3523 0.8847
vn -0.0663 0.4614 0.8847
vn 0.3921 -0.2520 0.8847
vn 0.0663 0.4614 0.8847
vn -0.4472 -0.1313 0.8847
vn 0.3052 -0.3523 0.8847
vn 0.1936 0.4240 0.8847
vn -0.4661 -0.0000 0.8847
vt 0.416113 0.694872
vt 0.020880 0.734128
vt 0.020880 0.694873
vt 0.416113 0.734128
vt 0.020880 0.771794
vt 0.416113 0.771794
vt 0.020880 0.804818
vt 0.416113 0.020880
vt 0.020880 0.051025
vt 0.020880 0.020880
vt 0.416113 0.051025
vt 0.020880 0.084049
vt 0.416113 0.084049
vt 0.020880 0.121714
vt 0.416113 0.121714
vt 0.020880 0.160970
vt 0.416113 0.160970
vt 0.020880 0.198636
vt 0.416113 0.198636
vt 0.020880 0.231660
vt 0.416113 0.231660
vt 0.020880 0.262913
vt 0.416113 0.262914
vt 0.020880 0.295937
vt 0.416113 0.295938
vt 0.020880 0.333603
vt 0.416113 0.333603
vt 0.020880 0.372859
vt 0.416113 0.372859
vt 0.020880 0.410524
vt 0.416113 0.410524
vt 0.020880 0.443548
vt 0.416113 0.443548
vt 0.020880 0.476572
vt 0.416113 0.476572
vt 0.020880 0.514238
vt 0.416113 0.514238
vt 0.020880 0.553493
vt 0.416113 0.553493
vt 0.020880 0.591159
vt 0.416113 0.591159
vt 0.020880 0.624183
vt 0.416113 0.624183
vt 0.020880 0.657207
vt 0.416113 0.657207
vt 0.457873 0.860829
vt 0.668952 0.725177
vt 0.633244 0.973533
vt 0.630002 0.149863
vt 0.616785 0.153928
vt 0.623190 0.143961
vt 0.567213 0.302932
vt 0.525125 0.296553
vt 0.531505 0.286625
vt 0.742584 0.531430
vt 0.742260 0.573998
vt 0.731525 0.569095
vt 0.731525 0.113307
vt 0.754266 0.149293
vt 0.742584 0.150973
vt 0.501838 0.602119
vt 0.469879 0.573998
vt 0.480615 0.569095
vt 0.492919 0.268646
vt 0.501838 0.260918
vt 0.742584 0.492174
vt 0.754266 0.533109
vt 0.754266 0.191908
vt 0.742584 0.190229
vt 0.469879 0.232797
vt 0.480615 0.227894
vt 0.731525 0.454509
vt 0.754266 0.490495
vt 0.742260 0.232797
vt 0.731525 0.227894
vt 0.457873 0.191908
vt 0.469555 0.190228
vt 0.719221 0.413756
vt 0.742260 0.449606
vt 0.719221 0.268647
vt 0.710301 0.260918
vt 0.469555 0.150973
vt 0.457873 0.149293
vt 0.680634 0.395778
vt 0.710302 0.421485
vt 0.687015 0.296553
vt 0.680634 0.286625
vt 0.480615 0.113307
vt 0.469879 0.108404
vt 0.644926 0.379470
vt 0.687015 0.385849
vt 0.648251 0.314256
vt 0.644926 0.302932
vt 0.501838 0.080283
vt 0.492919 0.072555
vt 0.606070 0.373884
vt 0.648251 0.368146
vt 0.531505 0.627826
vt 0.492919 0.609848
vt 0.882082 0.741708
vt 0.796058 0.700831
vt 0.882077 0.700820
vt 0.882050 0.504728
vt 0.796037 0.545628
vt 0.796032 0.504739
vt 0.882093 0.181122
vt 0.796069 0.140245
vt 0.882088 0.140234
vt 0.882093 0.825212
vt 0.796069 0.784335
vt 0.882088 0.784323
vt 0.882067 0.629120
vt 0.796043 0.588243
vt 0.882061 0.588231
vt 0.882051 0.440986
vt 0.796040 0.405118
vt 0.882059 0.405136
vt 0.882092 0.244894
vt 0.796080 0.216969
vt 0.882098 0.216987
vt 0.882077 0.056730
vt 0.796053 0.020892
vt 0.882072 0.020880
vt 0.882072 0.664970
vt 0.796053 0.664981
vt 0.796027 0.468889
vt 0.882045 0.468878
vt 0.531506 0.395778
vt 0.796066 0.280726
vt 0.796064 0.097630
vt 0.882082 0.097619
vt 0.882056 0.545616
vt 0.796064 0.741720
vt 0.796075 0.181134
vt 0.882098 0.861062
vt 0.796075 0.825224
vt 0.796048 0.629132
vt 0.796033 0.440968
vt 0.882085 0.280744
vt 0.796074 0.244876
vt 0.796058 0.056742
vt 0.469555 0.531430
vt 0.457873 0.533109
vt 0.710302 0.080283
vt 0.742260 0.108405
vt 0.719221 0.609848
vt 0.710302 0.602119
vt 0.606070 0.308519
vt 0.563888 0.314256
vt 0.457873 0.490494
vt 0.469555 0.492174
vt 0.680634 0.054576
vt 0.719221 0.072555
vt 0.687015 0.637755
vt 0.680634 0.627826
vt 0.606070 0.320321
vt 0.480615 0.454508
vt 0.469879 0.449606
vt 0.648251 0.026945
vt 0.687015 0.044648
vt 0.648251 0.655458
vt 0.644926 0.644134
vt 0.492919 0.413756
vt 0.501838 0.421485
vt 0.644926 0.038269
vt 0.606070 0.020880
vt 0.606070 0.661522
vt 0.606070 0.649720
vt 0.606070 0.032682
vt 0.563889 0.026945
vt 0.563889 0.655458
vt 0.567214 0.644134
vt 0.567214 0.038269
vt 0.525125 0.044648
vt 0.525125 0.637755
vt 0.531505 0.054576
vt 0.623190 0.197241
vt 0.614991 0.200985
vt 0.630002 0.191338
vt 0.634875 0.183756
vt 0.637415 0.166094
vt 0.637415 0.175107
vt 0.634875 0.157446
vt 0.614991 0.140216
vt 0.597148 0.140216
vt 0.606070 0.138934
vt 0.588949 0.143961
vt 0.582137 0.149863
vt 0.577264 0.157446
vt 0.574725 0.166094
vt 0.574725 0.175107
vt 0.577264 0.183756
vt 0.588949 0.197241
vt 0.582137 0.191338
vt 0.606070 0.202268
vt 0.597148 0.200985
vt 0.611654 0.189617
vt 0.610376 0.177301
vt 0.616785 0.187274
vt 0.586452 0.173421
vt 0.611654 0.151584
vt 0.621048 0.183580
vt 0.588041 0.178834
vt 0.606070 0.150781
vt 0.624098 0.178834
vt 0.591091 0.183580
vt 0.600486 0.151584
vt 0.625687 0.173421
vt 0.595355 0.187274
vt 0.595355 0.153928
vt 0.625687 0.167780
vt 0.600486 0.189617
vt 0.591091 0.157622
vt 0.624098 0.162368
vt 0.606070 0.190420
vt 0.588042 0.162367
vt 0.621048 0.157622
vt 0.586452 0.167780
vt 0.603826 0.178243
vt 0.601764 0.163900
vt 0.613953 0.171734
vt 0.598186 0.169467
vt 0.598186 0.171734
vt 0.610376 0.163900
vt 0.608314 0.162958
vt 0.612089 0.175817
vt 0.598825 0.173909
vt 0.606070 0.162636
vt 0.613315 0.173909
vt 0.600050 0.175817
vt 0.603826 0.162958
vt 0.601764 0.177301
vt 0.613953 0.169467
vt 0.600050 0.165385
vt 0.613315 0.167292
vt 0.606070 0.178566
vt 0.598825 0.167292
vt 0.612089 0.165385
vt 0.608314 0.178243
vt 0.416113 0.804818
vt 0.555532 0.973533
vt 0.519823 0.957226
vt 0.490156 0.931519
vt 0.468933 0.898495
vt 0.457873 0.821573
vt 0.468933 0.783908
vt 0.490156 0.750884
vt 0.519824 0.725177
vt 0.555532 0.708870
vt 0.594388 0.703283
vt 0.633244 0.708870
vt 0.698620 0.750884
vt 0.719843 0.783908
vt 0.730902 0.821573
vt 0.730902 0.860829
vt 0.719843 0.898495
vt 0.698620 0.931519
vt 0.668952 0.957226
vt 0.594388 0.979120
vt 0.606070 0.362082
vt 0.796049 0.364229
vt 0.796058 0.321614
vt 0.567214 0.379470
vt 0.796080 0.861073
s 1
usemtl Material.003
f 2/1/1 3/2/2 1/3/3
f 64/4/4 4/5/5 3/2/2
f 51/6/6 5/7/7 4/5/5
f 52/8/8 6/9/9 5/10/7
f 65/11/10 7/12/11 6/9/9
f 53/13/12 8/14/13 7/12/11
f 9/15/14 10/16/15 8/14/13
f 66/17/16 11/18/17 10/16/15
f 54/19/18 12/20/19 11/18/17
f 55/21/20 13/22/21 12/20/19
f 14/23/22 15/24/23 13/22/21
f 67/25/24 16/26/25 15/24/23
f 17/27/26 18/28/27 16/26/25
f 68/29/28 19/30/29 18/28/27
f 69/31/30 20/32/31 19/30/29
f 70/33/32 21/34/33 20/32/31
f 71/35/34 22/36/35 21/34/33
f 23/37/36 24/38/37 22/36/35
f 56/39/38 25/40/39 24/38/37
f 26/41/40 27/42/41 25/40/39
f 72/43/42 28/44/43 27/42/41
f 73/45/44 1/3/3 28/44/43
f 5/46/7 15/47/23 25/48/39
f 36/49/45 139/50/46 37/51/47
f 81/52/48 121/53/49 129/54/48
f 69/55/30 95/56/50 70/57/32
f 77/58/48 107/59/51 76/60/48
f 2/61/1 82/62/2 64/63/4
f 129/54/48 120/64/52 128/65/48
f 68/66/28 94/67/29 69/55/30
f 76/60/48 106/68/53 75/69/48
f 128/65/48 119/70/54 127/71/48
f 17/72/26 93/73/27 68/66/28
f 75/69/48 105/74/55 74/75/48
f 127/71/48 118/76/56 80/77/48
f 17/72/26 91/78/23 92/79/25
f 74/75/48 104/80/57 126/81/48
f 79/82/48 118/76/56 117/83/58
f 14/84/22 91/78/23 67/85/24
f 126/81/48 102/86/59 124/87/48
f 63/88/48 117/83/58 116/89/60
f 55/90/20 90/91/21 14/84/22
f 124/87/48 103/92/61 125/93/48
f 62/94/48 116/89/60 115/95/62
f 54/96/18 89/97/19 55/90/20
f 73/98/44 83/99/3 2/61/1
f 98/100/37 121/101/49 99/102/39
f 84/103/63 102/104/59 104/105/57
f 91/106/23 114/107/64 92/108/25
f 96/109/33 119/110/54 97/111/35
f 101/112/43 103/113/61 83/114/3
f 86/115/9 107/116/51 87/117/65
f 89/118/19 112/119/66 90/120/21
f 94/121/29 117/122/58 95/123/50
f 100/124/41 121/101/49 122/125/67
f 84/103/63 105/126/55 85/127/7
f 9/128/14 87/117/65 110/129/68
f 92/108/25 115/130/62 93/131/27
f 83/114/3 102/104/59 82/132/2
f 97/111/35 120/133/52 98/100/37
f 90/120/21 113/134/69 91/106/23
f 95/135/50 118/136/56 96/109/33
f 100/124/41 123/137/70 101/112/43
f 85/127/7 106/138/53 86/115/9
f 88/139/71 111/140/72 89/118/19
f 93/131/27 116/141/60 94/121/29
f 51/142/6 82/62/2 84/143/63
f 57/144/48 108/145/73 77/58/48
f 70/57/32 96/146/33 71/147/34
f 130/148/48 122/149/67 81/52/48
f 51/142/6 85/150/7 52/151/8
f 58/152/48 109/153/74 57/144/48
f 71/147/34 97/154/35 23/155/36
f 130/148/48 103/92/61 123/156/70
f 65/157/10 85/150/7 86/158/9
f 58/152/48 111/159/72 110/160/68
f 23/155/36 98/161/37 56/162/38
f 65/157/10 87/163/65 53/164/12
f 59/165/48 112/166/66 111/159/72
f 56/162/38 99/167/39 26/168/40
f 78/169/48 113/170/69 112/166/66
f 26/168/40 100/171/41 72/172/42
f 60/173/48 114/174/64 113/170/69
f 72/172/42 101/175/43 73/98/44
f 61/176/48 115/95/62 114/174/64
f 29/177/75 125/93/48 30/178/76
f 31/179/77 124/87/48 29/177/75
f 32/180/78 126/81/48 31/179/77
f 32/180/78 75/69/48 74/75/48
f 34/181/79 75/69/48 33/182/80
f 34/181/79 77/58/48 76/60/48
f 36/49/45 77/58/48 35/183/81
f 37/51/47 57/144/48 36/49/45
f 38/184/82 58/152/48 37/51/47
f 38/184/82 78/169/48 59/165/48
f 40/185/83 78/169/48 39/186/84
f 41/187/85 60/173/48 40/185/83
f 42/188/86 61/176/48 41/187/85
f 43/189/87 62/94/48 42/188/86
f 44/190/88 63/88/48 43/189/87
f 45/191/89 79/82/48 44/190/88
f 46/192/90 80/77/48 45/191/89
f 46/192/90 128/65/48 127/71/48
f 48/193/91 128/65/48 47/194/92
f 48/193/91 81/52/48 129/54/48
f 50/195/93 81/52/48 49/196/94
f 50/195/93 125/93/48 130/148/48
f 132/197/95 153/198/96 131/199/97
f 30/178/76 131/199/97 29/177/75
f 44/190/88 147/200/98 45/191/89
f 38/184/82 139/50/46 140/201/99
f 29/177/75 133/202/100 31/179/77
f 46/192/90 147/200/98 148/203/101
f 39/186/84 140/201/99 141/204/102
f 32/180/78 133/202/100 134/205/103
f 47/194/92 148/203/101 149/206/104
f 39/186/84 142/207/105 40/185/83
f 33/182/80 134/205/103 135/208/106
f 48/193/91 149/206/104 150/209/107
f 40/185/83 143/210/108 41/187/85
f 33/182/80 136/211/109 34/181/79
f 48/193/91 151/212/110 49/196/94
f 41/187/85 144/213/111 42/188/86
f 34/181/79 137/214/112 35/183/81
f 50/195/93 151/212/110 152/215/113
f 42/188/86 145/216/114 43/189/87
f 36/49/45 137/214/112 138/217/115
f 30/178/76 152/215/113 132/197/95
f 43/189/87 146/218/116 44/190/88
f 173/219/117 165/220/118 157/221/119
f 147/200/98 168/222/120 169/223/121
f 140/201/99 161/224/122 162/225/123
f 133/202/100 153/198/96 155/226/124
f 147/200/98 170/227/125 148/203/101
f 140/201/99 163/228/126 141/204/102
f 134/205/103 155/226/124 156/229/127
f 149/206/104 170/227/125 171/230/128
f 142/207/105 163/228/126 164/231/129
f 135/208/106 156/229/127 157/221/119
f 150/209/107 171/230/128 172/232/130
f 142/207/105 165/220/118 143/210/108
f 136/211/109 157/221/119 158/233/131
f 151/212/110 172/232/130 173/219/117
f 143/210/108 166/234/132 144/213/111
f 136/211/109 159/235/133 137/214/112
f 152/215/113 173/219/117 174/236/134
f 144/213/111 167/237/135 145/216/114
f 137/214/112 160/238/136 138/217/115
f 132/197/95 174/236/134 154/239/137
f 145/216/114 168/222/120 146/218/116
f 138/217/115 161/224/122 139/50/46
f 2/1/1 64/4/4 3/2/2
f 64/4/4 51/6/6 4/5/5
f 51/6/6 52/240/8 5/7/7
f 52/8/8 65/11/10 6/9/9
f 65/11/10 53/13/12 7/12/11
f 53/13/12 9/15/14 8/14/13
f 9/15/14 66/17/16 10/16/15
f 66/17/16 54/19/18 11/18/17
f 54/19/18 55/21/20 12/20/19
f 55/21/20 14/23/22 13/22/21
f 14/23/22 67/25/24 15/24/23
f 67/25/24 17/27/26 16/26/25
f 17/27/26 68/29/28 18/28/27
f 68/29/28 69/31/30 19/30/29
f 69/31/30 70/33/32 20/32/31
f 70/33/32 71/35/34 21/34/33
f 71/35/34 23/37/36 22/36/35
f 23/37/36 56/39/38 24/38/37
f 56/39/38 26/41/40 25/40/39
f 26/41/40 72/43/42 27/42/41
f 72/43/42 73/45/44 28/44/43
f 73/45/44 2/1/1 1/3/3
f 28/241/43 1/242/3 3/243/2
f 3/243/2 4/244/5 5/46/7
f 5/46/7 6/245/9 7/246/11
f 7/246/11 8/247/13 10/248/15
f 10/248/15 11/249/17 12/250/19
f 12/250/19 13/251/21 15/47/23
f 15/47/23 16/252/25 18/253/27
f 18/253/27 19/254/29 20/255/31
f 20/255/31 21/256/33 22/257/35
f 22/257/35 24/258/37 25/48/39
f 25/48/39 27/259/41 28/241/43
f 28/241/43 3/243/2 5/46/7
f 5/46/7 7/246/11 10/248/15
f 10/248/15 12/250/19 15/47/23
f 15/47/23 18/253/27 20/255/31
f 20/255/31 22/257/35 25/48/39
f 25/48/39 28/241/43 5/46/7
f 5/46/7 10/248/15 15/47/23
f 15/47/23 20/255/31 25/48/39
f 36/49/45 138/217/115 139/50/46
f 81/52/48 122/149/67 121/53/49
f 69/55/30 94/67/29 95/56/50
f 77/58/48 108/145/73 107/59/51
f 2/61/1 83/99/3 82/62/2
f 129/54/48 121/53/49 120/64/52
f 68/66/28 93/73/27 94/67/29
f 76/60/48 107/59/51 106/68/53
f 128/65/48 120/64/52 119/70/54
f 17/72/26 92/79/25 93/73/27
f 75/69/48 106/68/53 105/74/55
f 127/71/48 119/70/54 118/76/56
f 17/72/26 67/85/24 91/78/23
f 74/75/48 105/74/55 104/80/57
f 79/82/48 80/77/48 118/76/56
f 14/84/22 90/91/21 91/78/23
f 126/81/48 104/80/57 102/86/59
f 63/88/48 79/82/48 117/83/58
f 55/90/20 89/97/19 90/91/21
f 124/87/48 102/86/59 103/92/61
f 62/94/48 63/88/48 116/89/60
f 54/96/18 88/260/71 89/97/19
f 73/98/44 101/175/43 83/99/3
f 98/100/37 120/133/52 121/101/49
f 84/103/63 82/132/2 102/104/59
f 91/106/23 113/134/69 114/107/64
f 96/109/33 118/136/56 119/110/54
f 101/112/43 123/137/70 103/113/61
f 86/115/9 106/138/53 107/116/51
f 89/118/19 111/140/72 112/119/66
f 94/121/29 116/141/60 117/122/58
f 100/124/41 99/102/39 121/101/49
f 84/103/63 104/105/57 105/126/55
f 9/128/14 53/164/12 87/117/65
f 87/117/65 107/116/51 108/261/73
f 108/261/73 109/262/74 110/129/68
f 110/129/68 88/260/71 54/96/18
f 110/129/68 54/96/18 66/263/16
f 87/117/65 108/261/73 110/129/68
f 110/129/68 66/263/16 9/128/14
f 92/108/25 114/107/64 115/130/62
f 83/114/3 103/113/61 102/104/59
f 97/111/35 119/110/54 120/133/52
f 90/120/21 112/119/66 113/134/69
f 95/135/50 117/264/58 118/136/56
f 100/124/41 122/125/67 123/137/70
f 85/127/7 105/126/55 106/138/53
f 88/139/71 110/129/68 111/140/72
f 93/131/27 115/130/62 116/141/60
f 51/142/6 64/63/4 82/62/2
f 57/144/48 109/153/74 108/145/73
f 70/57/32 95/56/50 96/146/33
f 130/148/48 123/156/70 122/149/67
f 51/142/6 84/143/63 85/150/7
f 58/152/48 110/160/68 109/153/74
f 71/147/34 96/146/33 97/154/35
f 130/148/48 125/93/48 103/92/61
f 65/157/10 52/151/8 85/150/7
f 58/152/48 59/165/48 111/159/72
f 23/155/36 97/154/35 98/161/37
f 65/157/10 86/158/9 87/163/65
f 59/165/48 78/169/48 112/166/66
f 56/162/38 98/161/37 99/167/39
f 78/169/48 60/173/48 113/170/69
f 26/168/40 99/167/39 100/171/41
f 60/173/48 61/176/48 114/174/64
f 72/172/42 100/171/41 101/175/43
f 61/176/48 62/94/48 115/95/62
f 29/177/75 124/87/48 125/93/48
f 31/179/77 126/81/48 124/87/48
f 32/180/78 74/75/48 126/81/48
f 32/180/78 33/182/80 75/69/48
f 34/181/79 76/60/48 75/69/48
f 34/181/79 35/183/81 77/58/48
f 36/49/45 57/144/48 77/58/48
f 37/51/47 58/152/48 57/144/48
f 38/184/82 59/165/48 58/152/48
f 38/184/82 39/186/84 78/169/48
f 40/185/83 60/173/48 78/169/48
f 41/187/85 61/176/48 60/173/48
f 42/188/86 62/94/48 61/176/48
f 43/189/87 63/88/48 62/94/48
f 44/190/88 79/82/48 63/88/48
f 45/191/89 80/77/48 79/82/48
f 46/192/90 127/71/48 80/77/48
f 46/192/90 47/194/92 128/65/48
f 48/193/91 129/54/48 128/65/48
f 48/193/91 49/196/94 81/52/48
f 50/195/93 130/148/48 81/52/48
f 50/195/93 30/178/76 125/93/48
f 132/197/95 154/239/137 153/198/96
f 30/178/76 132/197/95 131/199/97
f 44/190/88 146/218/116 147/200/98
f 38/184/82 37/51/47 139/50/46
f 29/177/75 131/199/97 133/202/100
f 46/192/90 45/191/89 147/200/98
f 39/186/84 38/184/82 140/201/99
f 32/180/78 31/179/77 133/202/100
f 47/194/92 46/192/90 148/203/101
f 39/186/84 141/204/102 142/207/105
f 33/182/80 32/180/78 134/205/103
f 48/193/91 47/194/92 149/206/104
f 40/185/83 142/207/105 143/210/108
f 33/182/80 135/208/106 136/211/109
f 48/193/91 150/209/107 151/212/110
f 41/187/85 143/210/108 144/213/111
f 34/181/79 136/211/109 137/214/112
f 50/195/93 49/196/94 151/212/110
f 42/188/86 144/213/111 145/216/114
f 36/49/45 35/183/81 137/214/112
f 30/178/76 50/195/93 152/215/113
f 43/189/87 145/216/114 146/218/116
f 155/226/124 153/198/96 154/239/137
f 154/239/137 174/236/134 173/219/117
f 173/219/117 172/232/130 171/230/128
f 171/230/128 170/227/125 169/223/121
f 169/223/121 168/222/120 167/237/135
f 167/237/135 166/234/132 165/220/118
f 165/220/118 164/231/129 163/228/126
f 163/228/126 162/225/123 161/224/122
f 161/224/122 160/238/136 159/235/133
f 159/235/133 158/233/131 157/221/119
f 157/221/119 156/229/127 155/226/124
f 155/226/124 154/239/137 173/219/117
f 173/219/117 171/230/128 169/223/121
f 169/223/121 167/237/135 165/220/118
f 165/220/118 163/228/126 161/224/122
f 161/224/122 159/235/133 157/221/119
f 157/221/119 155/226/124 173/219/117
f 173/219/117 169/223/121 165/220/118
f 165/220/118 161/224/122 157/221/119
f 147/200/98 146/218/116 168/222/120
f 140/201/99 139/50/46 161/224/122
f 133/202/100 131/199/97 153/198/96
f 147/200/98 169/223/121 170/227/125
f 140/201/99 162/225/123 163/228/126
f 134/205/103 133/202/100 155/226/124
f 149/206/104 148/203/101 170/227/125
f 142/207/105 141/204/102 163/228/126
f 135/208/106 134/205/103 156/229/127
f 150/209/107 149/206/104 171/230/128
f 142/207/105 164/231/129 165/220/118
f 136/211/109 135/208/106 157/221/119
f 151/212/110 150/209/107 172/232/130
f 143/210/108 165/220/118 166/234/132
f 136/211/109 158/233/131 159/235/133
f 152/215/113 151/212/110 173/219/117
f 144/213/111 166/234/132 167/237/135
f 137/214/112 159/235/133 160/238/136
f 132/197/95 152/215/113 174/236/134
f 145/216/114 167/237/135 168/222/120
f 138/217/115 160/238/136 161/224/122
