# Blender 5.1.0
# www.blender.org
mtllib DeadBody1.mtl
g defaultMaterial_defaultMaterial.002
v 0.273415 0.104315 0.499546
v 0.272957 0.126409 0.501240
v 0.259356 0.125282 0.505470
v 0.265624 0.105801 0.502471
v 0.188648 0.182563 0.409397
v 0.171113 0.168507 0.421901
v 0.188645 0.175742 0.454913
v 0.205699 0.189441 0.441437
v 0.189313 0.061169 0.442825
v 0.211146 0.049877 0.435262
v 0.226484 0.060777 0.467025
v 0.205402 0.072683 0.475372
v 0.209681 0.175546 0.480901
v 0.224578 0.187987 0.469627
v 0.242372 0.078355 0.491346
v 0.223748 0.088976 0.498056
v 0.243140 0.169577 0.493220
v 0.253796 0.175524 0.488871
v 0.253379 0.109195 0.504990
v 0.124178 -0.016205 0.321358
v 0.150725 -0.034835 0.315218
v 0.164198 -0.024692 0.345454
v 0.136533 -0.006514 0.351194
v 0.177080 0.005395 0.378438
v 0.151258 0.020777 0.383372
v 0.108422 0.194108 0.272538
v 0.088394 0.170182 0.287196
v 0.102838 0.176665 0.316924
v 0.123770 0.200348 0.302961
v 0.125953 0.170019 0.354280
v 0.145799 0.189882 0.342475
v 0.211462 0.188392 0.396114
v 0.228202 0.195030 0.427422
v 0.156831 0.143826 0.435629
v 0.156688 0.113157 0.444202
v 0.175087 0.122950 0.477491
v 0.175378 0.152075 0.468979
v 0.235407 0.047176 0.423642
v 0.251479 0.057615 0.454167
v 0.244689 0.193402 0.457324
v 0.197932 0.131073 0.499617
v 0.198463 0.152922 0.493613
v 0.264689 0.075301 0.480299
v 0.260878 0.178231 0.485131
v 0.236224 0.138558 0.505324
v 0.236356 0.154960 0.500583
v 0.150639 0.211386 0.287749
v 0.173360 0.199030 0.327799
v 0.087736 0.131810 0.332398
v 0.088922 0.082145 0.344057
v 0.109634 0.092242 0.377837
v 0.110831 0.133162 0.367370
v 0.191724 -0.031318 0.334936
v 0.206974 0.000789 0.366442
v 0.176187 -0.042123 0.305344
v 0.134271 0.205394 0.257192
v 0.074658 0.124889 0.303470
v 0.075280 0.074368 0.316028
v 0.103153 0.033985 0.352087
v 0.090994 0.025363 0.323222
v 0.124424 0.052998 0.382997
v 0.184954 0.094355 0.480341
v 0.167104 0.083239 0.447439
v 0.205629 0.109873 0.502108
v 0.241857 0.122518 0.506907
v 0.253883 0.157554 0.499197
v 0.267378 0.159349 0.494830
v 0.245219 0.054161 0.310760
v 0.242599 0.022888 0.334389
v 0.235630 -0.005643 0.298912
v 0.239875 0.033889 0.274684
v 0.268001 0.067985 0.399001
v 0.272761 0.097480 0.385025
v 0.291881 0.107212 0.418505
v 0.284237 0.078260 0.430821
v 0.300129 0.119113 0.448059
v 0.293928 0.091782 0.458422
v 0.216077 0.179308 0.303898
v 0.229961 0.144145 0.293219
v 0.220697 0.146997 0.252636
v 0.202612 0.189086 0.260953
v 0.265188 0.142144 0.376318
v 0.250442 0.171543 0.378814
v 0.267063 0.179477 0.411097
v 0.284268 0.152037 0.409774
v 0.278825 0.180781 0.441083
v 0.294034 0.155015 0.441064
v 0.297525 0.127404 0.476006
v 0.293956 0.111471 0.482435
v 0.283652 0.172243 0.470589
v 0.292491 0.157089 0.470219
v 0.221232 -0.016237 0.270597
v 0.226784 0.025039 0.248805
v 0.207101 0.141121 0.226177
v 0.187377 0.183430 0.231676
v 0.253761 0.052894 0.412073
v 0.268864 0.063112 0.443282
v 0.231361 0.184996 0.386322
v 0.247603 0.191922 0.417893
v 0.280284 0.078963 0.469946
v 0.261605 0.191504 0.447827
v 0.286696 0.106740 0.491744
v 0.274699 0.177478 0.477952
v 0.203906 -0.035168 0.288001
v 0.218568 -0.024350 0.317650
v 0.227311 0.006712 0.352740
v 0.162931 0.201536 0.242411
v 0.178734 0.207351 0.272893
v 0.195333 0.195306 0.315978
v 0.271224 0.119824 0.378772
v 0.291019 0.129807 0.412523
v 0.299281 0.137118 0.442931
v 0.296845 0.142361 0.472106
v 0.235336 0.089865 0.256300
v 0.241157 0.098313 0.294574
v 0.222705 0.082831 0.231203
v -0.088711 0.002724 -0.113505
v -0.066150 0.001481 -0.131910
v -0.060293 -0.034660 -0.125360
v -0.084624 -0.034948 -0.105675
v -0.053939 -0.070533 -0.117872
v -0.076030 -0.072067 -0.098926
v -0.031349 0.027041 -0.134031
v -0.009269 0.038160 -0.109975
v 0.006101 0.007207 -0.108757
v -0.018281 0.004089 -0.130815
v -0.046376 0.035923 -0.129854
v -0.028125 0.051860 -0.103720
v -0.048509 0.055530 -0.093528
v -0.061700 0.037640 -0.119649
v -0.077964 0.033715 -0.109421
v -0.069776 0.049501 -0.080396
v 0.012997 -0.018251 -0.104931
v -0.011652 -0.026497 -0.125793
v 0.014802 -0.044113 -0.098753
v -0.007890 -0.057197 -0.118868
v 0.010177 -0.076524 -0.087620
v -0.012757 -0.082607 -0.112657
v -0.003695 -0.092217 -0.075635
v -0.024409 -0.093628 -0.104600
v -0.038994 -0.096272 -0.093546
v -0.022446 -0.098184 -0.063564
v -0.045296 -0.094870 -0.052254
v -0.056263 -0.094270 -0.084473
v -0.066211 -0.082479 -0.044484
v -0.073515 -0.084770 -0.075873
v -0.087416 -0.057680 -0.039527
v -0.087548 -0.068529 -0.073600
v -0.097961 -0.024983 -0.042953
v -0.097259 -0.031973 -0.079422
v -0.098591 0.008226 -0.052374
v -0.100053 0.005223 -0.087977
v -0.086106 0.034851 -0.067355
v -0.091799 0.023061 -0.096893
v -0.043386 0.002148 -0.136673
v -0.037584 -0.031861 -0.130754
v -0.031895 -0.065621 -0.123462
v -0.006573 0.063467 -0.072920
v 0.014787 0.047772 -0.079815
v 0.030889 0.016124 -0.079247
v 0.038024 -0.008344 -0.075881
v 0.039261 -0.033248 -0.069622
v 0.034123 -0.066263 -0.057586
v 0.018477 -0.084264 -0.044123
v -0.004367 -0.091639 -0.029822
v -0.027552 -0.088228 -0.018481
v -0.050443 -0.074922 -0.010125
v -0.073903 -0.048090 -0.005261
v -0.085230 -0.016067 -0.008289
v -0.084881 0.016655 -0.017882
v -0.070914 0.045810 -0.033660
v -0.052970 0.061674 -0.047702
v -0.031415 0.067883 -0.060918
v -0.043797 0.046357 0.005802
v -0.028742 0.060438 -0.006245
v -0.008210 0.066041 -0.018782
v -0.052181 0.022616 0.017027
v -0.007593 -0.064294 0.018069
v -0.027059 -0.052358 0.025044
v -0.043234 -0.030151 0.027313
v 0.014391 -0.067251 0.007201
v 0.011704 0.063134 -0.028528
v 0.030767 0.050614 -0.034918
v -0.053032 -0.004100 0.025094
v 0.047362 -0.047260 -0.015839
v 0.032911 -0.061939 -0.004147
v 0.045380 0.025752 -0.035134
v 0.052444 0.002633 -0.032111
v 0.053298 -0.020944 -0.026032
v 0.288940 0.128282 0.489903
v 0.283792 0.158652 0.483990
v 0.287667 0.143885 0.487969
v 0.255473 0.141675 0.504668
v 0.271298 0.143484 0.500168
v 0.165532 0.152049 0.389716
v 0.162645 0.151855 0.385048
v 0.151190 0.130311 0.394680
v 0.154071 0.131106 0.399302
v 0.179591 0.163856 0.381064
v 0.176741 0.163930 0.376368
v 0.198812 0.168899 0.370796
v 0.196162 0.169128 0.365986
v 0.198387 0.053009 0.402672
v 0.196004 0.050322 0.398514
v 0.216674 0.048153 0.389567
v 0.218811 0.050954 0.393787
v 0.180795 0.062031 0.407263
v 0.178291 0.059577 0.403036
v 0.162701 0.080213 0.409223
v 0.160009 0.078303 0.404819
v 0.210631 0.166156 0.358813
v 0.213235 0.165943 0.363650
v 0.227401 0.154914 0.357140
v 0.224903 0.155023 0.352235
v 0.151126 0.103900 0.401551
v 0.154023 0.105262 0.406020
v 0.231959 0.055514 0.385176
v 0.229863 0.052732 0.380922
v 0.240234 0.064605 0.369860
v 0.242259 0.067287 0.374221
v 0.241883 0.088287 0.356872
v 0.243924 0.090753 0.361384
v 0.239874 0.109008 0.350559
v 0.241993 0.110324 0.355467
v 0.237231 0.130223 0.353690
v 0.234796 0.130082 0.348725
v -0.002125 0.086437 0.044402
v 0.030194 0.100715 0.098720
v 0.047462 0.107847 0.087604
v 0.017953 0.093341 0.032091
v -0.014458 0.070876 0.054767
v 0.018520 0.085955 0.108955
v -0.019272 0.042892 0.064245
v 0.011304 0.058753 0.120103
v 0.026871 -0.058322 0.070227
v 0.054461 -0.042436 0.126615
v 0.038086 -0.029497 0.131442
v 0.010595 -0.046207 0.074861
v 0.044407 -0.062764 0.062491
v 0.073758 -0.047247 0.117833
v 0.021916 -0.003922 0.132294
v -0.008568 -0.020116 0.076558
v 0.034679 0.089900 0.024153
v 0.064534 0.105490 0.079288
v 0.080902 0.094026 0.073915
v 0.051607 0.077048 0.018591
v 0.011834 0.027042 0.128433
v -0.018738 0.011016 0.072665
v 0.089677 -0.042796 0.108192
v 0.060773 -0.057645 0.052319
v 0.072158 -0.044151 0.042216
v 0.101852 -0.029526 0.097999
v 0.095055 0.065642 0.074526
v 0.065632 0.047002 0.019249
v 0.103836 0.032983 0.078882
v 0.073371 0.016990 0.023188
v 0.075834 -0.013166 0.030978
v 0.106181 0.000028 0.087317
v 0.109159 -0.019839 0.292018
v 0.134570 -0.038352 0.285658
v 0.094183 0.181212 0.244503
v 0.075197 0.158058 0.259213
v 0.159943 -0.045628 0.275298
v 0.119628 0.192210 0.228961
v 0.062996 0.066757 0.287667
v 0.063025 0.115108 0.275069
v 0.079180 0.019878 0.293706
v 0.203625 -0.020512 0.242607
v 0.209790 0.019795 0.223170
v 0.190944 0.130938 0.201505
v 0.171094 0.171343 0.205209
v 0.186341 -0.039062 0.258968
v 0.146962 0.188665 0.215030
v 0.206225 0.075314 0.206976
v 0.103481 -0.042253 0.229631
v 0.118355 -0.041750 0.258036
v 0.093906 -0.023243 0.264322
v 0.081253 -0.024482 0.235358
v 0.144577 -0.048850 0.246889
v 0.129029 -0.048953 0.218503
v 0.068014 0.014518 0.264993
v 0.060139 0.010516 0.234920
v 0.052243 0.059439 0.259481
v 0.045834 0.052554 0.229717
v 0.053793 0.133142 0.204859
v 0.062802 0.146372 0.232314
v 0.080700 0.168741 0.217929
v 0.069614 0.153856 0.191596
v 0.052346 0.105742 0.247245
v 0.045534 0.095764 0.218345
v 0.105854 0.179428 0.202361
v 0.092921 0.163841 0.176973
v 0.116047 0.160739 0.165462
v 0.131549 0.176095 0.189406
v 0.155059 0.159467 0.180340
v 0.137721 0.145372 0.157542
v 0.169107 -0.042590 0.231780
v 0.186220 -0.024308 0.216163
v 0.150762 -0.043127 0.205146
v 0.166748 -0.025815 0.190912
v 0.174513 0.120528 0.177923
v 0.155913 0.108630 0.156364
v 0.192397 0.015060 0.198482
v 0.172351 0.011683 0.175262
v 0.189074 0.067845 0.183580
v 0.169170 0.060271 0.162023
v 0.078295 -0.047066 0.173169
v 0.089930 -0.044233 0.201154
v 0.069955 -0.027285 0.206392
v 0.060234 -0.031164 0.177737
v 0.099410 -0.053335 0.163949
v 0.113819 -0.050664 0.190550
v 0.133540 -0.045166 0.178466
v 0.118222 -0.048088 0.152445
v 0.131804 -0.032710 0.140587
v 0.148366 -0.028792 0.165582
v 0.052185 0.005750 0.205341
v 0.043598 0.000491 0.176432
v 0.039245 0.045699 0.200318
v 0.031459 0.038751 0.171451
v 0.036571 0.111409 0.149564
v 0.045067 0.121574 0.177064
v 0.058881 0.140710 0.164817
v 0.048842 0.129232 0.138456
v 0.030485 0.077910 0.161367
v 0.038450 0.086599 0.189608
v 0.079761 0.150028 0.151377
v 0.066937 0.138024 0.126598
v 0.087244 0.135255 0.116622
v 0.101017 0.147106 0.140917
v 0.120955 0.132864 0.134071
v 0.105590 0.121889 0.110451
v 0.136288 0.002689 0.127389
v 0.153490 0.007476 0.151635
v 0.138197 0.097667 0.134054
v 0.121904 0.087522 0.110852
v 0.133116 0.045257 0.116403
v 0.150394 0.052747 0.139789
v -0.066150 0.001481 -0.131910
v -0.060293 -0.034660 -0.125360
v -0.053939 -0.070533 -0.117872
v -0.038994 -0.096272 -0.093546
v -0.022446 -0.098184 -0.063564
v -0.004367 -0.091639 -0.029822
v 0.014391 -0.067251 0.007201
v 0.044407 -0.062764 0.062491
v 0.073758 -0.047247 0.117833
v 0.099410 -0.053335 0.163949
v 0.113819 -0.050664 0.190550
v 0.129029 -0.048953 0.218503
v 0.144577 -0.048850 0.246889
v 0.159943 -0.045628 0.275298
v 0.176187 -0.042123 0.305344
v 0.191724 -0.031318 0.334936
v 0.206974 0.000789 0.366442
v 0.216674 0.048153 0.389567
v 0.218811 0.050954 0.393787
v 0.235407 0.047176 0.423642
v 0.251479 0.057615 0.454167
v 0.264689 0.075301 0.480299
v 0.273415 0.104315 0.499546
v 0.272957 0.126409 0.501240
v 0.271298 0.143484 0.500168
v 0.267378 0.159349 0.494830
v 0.260878 0.178231 0.485131
v 0.244689 0.193402 0.457324
v 0.228202 0.195030 0.427422
v 0.211462 0.188392 0.396114
v 0.198812 0.168899 0.370796
v 0.196162 0.169128 0.365986
v 0.173360 0.199030 0.327799
v 0.150639 0.211386 0.287749
v 0.134271 0.205394 0.257192
v 0.119628 0.192210 0.228961
v 0.105854 0.179428 0.202361
v 0.092921 0.163841 0.176973
v 0.079761 0.150028 0.151377
v 0.066937 0.138024 0.126598
v 0.047462 0.107847 0.087604
v 0.017953 0.093341 0.032091
v -0.008210 0.066041 -0.018782
v -0.031415 0.067883 -0.060918
v -0.048509 0.055530 -0.093528
v -0.061700 0.037640 -0.119649
vn 0.2225 -0.4037 0.8874
vn 0.4370 -0.4313 0.7893
vn 0.4584 0.0388 0.8879
vn 0.1800 0.0205 0.9835
vn -0.3694 0.9201 0.1302
vn -0.5046 0.8537 -0.1284
vn -0.7617 0.6462 0.0476
vn -0.6209 0.7169 0.3172
vn -0.3911 -0.7028 0.5942
vn -0.5226 -0.7889 0.3233
vn -0.2007 -0.9548 0.2192
vn -0.0749 -0.8743 0.4795
vn -0.2073 0.8955 0.3940
vn -0.3892 0.6961 0.6033
vn -0.1901 -0.5027 0.8433
vn 0.0606 -0.7008 0.7108
vn 0.0256 0.7497 0.6612
vn -0.1165 0.6186 0.7770
vn 0.0382 -0.2882 0.9568
vn -0.5135 -0.6213 0.5918
vn -0.6043 -0.6719 0.4282
vn -0.3080 -0.8822 0.3561
vn -0.1564 -0.7965 0.5840
vn -0.3538 -0.4737 0.8065
vn 0.0091 -0.6030 0.7977
vn -0.4237 0.8622 0.2777
vn -0.5833 0.8117 0.0302
vn -0.8249 0.5191 0.2239
vn -0.7204 0.5730 0.3907
vn -0.2207 0.8202 0.5279
vn -0.5296 0.5881 0.6113
vn -0.0901 0.9950 -0.0425
vn -0.2163 0.9295 -0.2989
vn -0.7819 0.4030 0.4755
vn -0.9273 0.3132 0.2050
vn -0.9432 -0.0972 0.3178
vn -0.8072 -0.0187 0.5900
vn 0.1054 -0.9919 0.0712
vn 0.2288 -0.9167 0.3277
vn 0.0417 0.9752 0.2173
vn -0.4920 0.4246 0.7600
vn -0.5012 0.0859 0.8611
vn 0.3346 -0.7577 0.5603
vn 0.2273 0.8067 0.5455
vn -0.1493 0.4161 0.8970
vn -0.1263 0.1702 0.9773
vn 0.1098 0.9148 0.3887
vn -0.0629 0.9921 0.1089
vn -0.6847 0.3242 0.6528
vn -0.8507 0.2747 0.4482
vn -0.8643 -0.0401 0.5014
vn -0.7094 0.0215 0.7045
vn 0.2448 -0.8535 0.4601
vn 0.3688 -0.6281 0.6852
vn 0.0928 -0.9780 0.1869
vn -0.2312 0.9547 -0.1873
vn -0.9111 0.2335 0.3398
vn -0.9074 -0.0664 0.4150
vn -0.7380 -0.3702 0.5642
vn -0.7969 -0.4081 0.4454
vn -0.5794 -0.2695 0.7692
vn -0.6477 -0.4199 0.6358
vn -0.7926 -0.4919 0.3603
vn -0.3805 -0.2414 0.8927
vn -0.0640 -0.0796 0.9948
vn 0.1158 0.3985 0.9098
vn 0.3910 0.4362 0.8105
vn 0.9608 -0.1173 -0.2512
vn 0.9988 -0.0145 -0.0470
vn 0.9586 -0.2419 0.1505
vn 0.9117 -0.4054 -0.0668
vn 0.8434 -0.5094 -0.1706
vn 0.7211 -0.5587 -0.4096
vn 0.7838 -0.2704 -0.5591
vn 0.9193 -0.2199 -0.3263
vn 0.9039 -0.4234 0.0606
vn 0.9871 -0.1386 -0.0801
vn 0.7356 0.6227 -0.2668
vn 0.8200 0.5723 -0.0080
vn 0.9432 0.3131 -0.1108
vn 0.8873 0.3162 -0.3357
vn 0.8199 0.3655 -0.4406
vn 0.6900 0.2812 -0.6669
vn 0.5301 0.5668 -0.6307
vn 0.6477 0.6496 -0.3981
vn 0.8949 0.4058 -0.1859
vn 0.7188 0.6779 -0.1540
vn 0.9078 -0.2597 0.3294
vn 0.9726 -0.0304 0.2303
vn 0.8963 0.4199 0.1428
vn 0.7564 0.6353 0.1560
vn 0.7932 -0.5233 -0.3115
vn 0.8690 -0.2006 -0.4523
vn 0.7864 0.2865 -0.5473
vn 0.6001 0.5998 -0.5292
vn 0.5712 -0.8150 0.0974
vn 0.4568 -0.8761 -0.1544
vn 0.1594 0.8578 -0.4886
vn 0.2703 0.9328 -0.2385
vn 0.6364 -0.6893 0.3462
vn 0.3533 0.9349 0.0326
vn 0.6727 -0.3788 0.6356
vn 0.4724 0.7794 0.4116
vn 0.6310 -0.7406 0.2308
vn 0.4760 -0.8786 -0.0395
vn 0.7138 -0.5256 0.4628
vn 0.1837 0.9023 -0.3901
vn 0.3552 0.9300 -0.0943
vn 0.4839 0.8533 0.1941
vn 0.7647 0.0041 -0.6444
vn 0.9047 0.0718 -0.4199
vn 0.9786 0.1360 -0.1544
vn 0.9608 0.2003 0.1918
vn 0.9424 0.0974 -0.3200
vn 0.9833 0.1455 -0.1092
vn 0.8546 0.0442 -0.5174
vn -0.7758 -0.2449 -0.5816
vn -0.7685 -0.0186 -0.6396
vn -0.4812 -0.0026 -0.8766
vn -0.4485 -0.2437 -0.8599
vn -0.6933 -0.4618 -0.5532
vn -0.4018 -0.4711 -0.7853
vn 0.4840 0.0886 -0.8706
vn 0.3610 0.3876 -0.8482
vn 0.5451 0.5123 -0.6636
vn 0.6843 0.1976 -0.7019
vn 0.1406 0.8531 -0.5024
vn -0.0773 0.5881 -0.8051
vn -0.5504 0.8236 -0.1367
vn -0.2338 0.9163 -0.3252
vn -0.4099 0.6275 -0.6619
vn -0.6369 0.5882 -0.4984
vn 0.4772 -0.0895 -0.8742
vn 0.7195 -0.0134 -0.6944
vn 0.5400 -0.2418 -0.8062
vn 0.7538 -0.2119 -0.6220
vn 0.5173 -0.5342 -0.6685
vn 0.7197 -0.5175 -0.4629
vn 0.1637 -0.8333 -0.5280
vn 0.4353 -0.8853 -0.1636
vn -0.3846 -0.8992 -0.2085
vn -0.1473 -0.9212 -0.3600
vn 0.0903 -0.9948 0.0474
vn -0.2504 -0.9455 0.2081
vn -0.6340 -0.7732 0.0137
vn -0.5674 -0.7586 0.3202
vn -0.8897 -0.4518 -0.0652
vn -0.8469 -0.4445 0.2920
vn -0.9695 -0.1937 -0.1504
vn -0.9684 -0.1218 0.2175
vn -0.9814 0.0886 -0.1705
vn -0.9606 0.2264 0.1612
vn -0.8465 0.4799 -0.2306
vn -0.7979 0.6003 0.0553
vn 0.0208 -0.1879 -0.9820
vn -0.0725 -0.0226 -0.9971
vn -0.0140 -0.3677 -0.9299
vn 0.2815 0.9140 -0.2923
vn 0.6609 0.5876 -0.4669
vn 0.8089 0.2978 -0.5070
vn 0.8728 0.0534 -0.4852
vn 0.8913 -0.1887 -0.4122
vn 0.8410 -0.4746 -0.2599
vn 0.5750 -0.8169 0.0451
vn 0.2258 -0.9323 0.2827
vn -0.1215 -0.8858 0.4480
vn -0.4562 -0.6930 0.5583
vn -0.6966 -0.4028 0.5938
vn -0.8310 -0.0327 0.5553
vn -0.8239 0.3480 0.4474
vn -0.6865 0.6653 0.2935
vn -0.4243 0.9000 0.0998
vn -0.1002 0.9907 -0.0922
vn -0.7280 0.5958 0.3394
vn -0.4866 0.8719 0.0552
vn -0.1543 0.9744 -0.1638
vn -0.7921 0.3140 0.5234
vn -0.1797 -0.8825 0.4346
vn -0.4931 -0.6360 0.5936
vn -0.6681 -0.3536 0.6547
vn 0.1804 -0.9560 0.2314
vn 0.2584 0.9060 -0.3352
vn 0.6830 0.5980 -0.4194
vn -0.7726 -0.0073 0.6348
vn 0.8636 -0.4571 -0.2125
vn 0.5480 -0.8363 0.0131
vn 0.8569 0.3234 -0.4014
vn 0.9292 0.0876 -0.3590
vn 0.9384 -0.1572 -0.3076
vn 0.7038 0.0651 0.7074
vn 0.6427 0.4253 0.6373
vn 0.7056 0.2488 0.6635
vn 0.4328 0.2423 0.8683
vn 0.1218 0.2094 0.9702
vn -0.9643 0.2608 0.0451
vn -0.8070 0.5835 -0.0909
vn -0.3683 0.5938 0.7153
vn -0.5144 0.3634 0.7767
vn -0.0910 0.7797 0.6195
vn -0.5573 0.7890 -0.2587
vn 0.1880 0.8498 0.4925
vn -0.2786 0.8606 -0.4263
vn 0.0364 -0.9973 -0.0642
vn -0.2604 -0.9620 0.0826
vn 0.1233 -0.4847 0.8660
vn 0.4174 -0.5037 0.7563
vn -0.2040 -0.3752 0.9042
vn -0.5724 -0.8002 0.1788
vn -0.4193 -0.1976 0.8861
vn -0.8322 -0.5183 0.1969
vn 0.8538 0.5160 0.0693
vn 0.5404 0.7881 0.2948
vn 0.0804 0.7848 -0.6145
vn 0.4408 0.4912 -0.7513
vn -0.9787 -0.1360 0.1535
vn -0.5416 0.0716 0.8376
vn 0.6197 -0.5642 -0.5456
vn 0.3637 -0.8856 -0.2890
vn 0.7435 -0.4100 0.5283
vn 0.9675 -0.1547 0.2001
vn 0.6911 -0.2832 -0.6650
vn 0.9993 0.0345 0.0175
vn 0.6748 -0.0294 -0.7375
vn 0.9865 0.1608 -0.0308
vn 0.9553 0.2939 -0.0330
vn 0.6050 0.2244 -0.7639
vn -0.2289 0.9417 -0.2466
vn -0.5582 0.8297 -0.0083
vn -0.6216 0.7830 -0.0238
vn -0.2833 0.9143 -0.2894
vn -0.8502 0.4622 0.2523
vn -0.8061 0.5216 0.2795
vn -0.8999 0.1994 0.3879
vn -0.8638 0.2408 0.4425
vn -0.5798 -0.6521 0.4884
vn -0.2690 -0.9048 0.3303
vn -0.3652 -0.8896 0.2742
vn -0.6725 -0.6047 0.4267
vn 0.0272 -0.9974 0.0664
vn 0.0929 -0.9869 0.1317
vn -0.7491 -0.3673 0.5514
vn -0.8075 -0.3425 0.4802
vn 0.6298 0.5754 -0.5218
vn 0.1951 0.8757 -0.4417
vn 0.1593 0.8425 -0.5147
vn 0.6041 0.5096 -0.6127
vn -0.8456 -0.0395 0.5324
vn -0.8847 -0.0599 0.4623
vn 0.7714 -0.4760 -0.4224
vn 0.4397 -0.8800 -0.1799
vn 0.4817 -0.8711 -0.0961
vn 0.8131 -0.4897 -0.3147
vn 0.8260 0.2852 -0.4862
vn 0.7745 0.2352 -0.5872
vn 0.8951 0.0659 -0.4409
vn 0.8330 0.0336 -0.5522
vn 0.8439 -0.1742 -0.5075
vn 0.9023 -0.1646 -0.3986
vn -0.6348 -0.6598 0.4021
vn -0.3477 -0.8892 0.2973
vn -0.8546 0.4867 0.1810
vn -0.6270 0.7777 -0.0463
vn 0.0375 -0.9947 0.0962
vn -0.2867 0.9151 -0.2837
vn -0.9270 0.2165 0.3063
vn -0.9198 -0.0799 0.3842
vn -0.8119 -0.4058 0.4198
vn 0.8265 -0.2168 -0.5195
vn 0.7406 -0.5406 -0.3991
vn 0.5505 0.5660 -0.6137
vn 0.7452 0.2626 -0.6130
vn 0.4160 -0.8988 -0.1384
vn 0.1251 0.8635 -0.4885
vn 0.8146 0.0252 -0.5794
vn -0.7161 -0.6209 0.3189
vn -0.3858 -0.8951 0.2235
vn -0.3658 -0.8941 0.2585
vn -0.6719 -0.6438 0.3661
vn 0.0131 -0.9984 0.0556
vn -0.0031 -0.9995 0.0302
vn -0.8735 -0.3821 0.3019
vn -0.8425 -0.3999 0.3610
vn -0.9620 -0.1166 0.2468
vn -0.9453 -0.1013 0.3100
vn -0.6673 0.7352 -0.1194
vn -0.9041 0.4170 0.0934
vn -0.8804 0.4549 0.1340
vn -0.6483 0.7560 -0.0906
vn -0.9520 0.1881 0.2416
vn -0.9699 0.1547 0.1881
vn -0.3258 0.8794 -0.3471
vn -0.3108 0.8933 -0.3248
vn 0.5134 0.5150 -0.6864
vn 0.0948 0.8245 -0.5578
vn 0.1022 0.8398 -0.5332
vn 0.5213 0.5401 -0.6607
vn 0.3928 -0.9004 -0.1871
vn 0.7068 -0.5459 -0.4499
vn 0.3857 -0.8966 -0.2175
vn 0.6925 -0.5373 -0.4815
vn 0.6930 0.2206 -0.6863
vn 0.7094 0.2401 -0.6627
vn 0.7885 -0.2267 -0.5717
vn 0.7684 -0.2235 -0.5997
vn 0.7752 0.0083 -0.6316
vn 0.7535 -0.0004 -0.6574
vn -0.7252 -0.6047 0.3294
vn -0.4049 -0.8971 0.1771
vn -0.3906 -0.8869 0.2466
vn -0.7376 -0.5899 0.3285
vn 0.0133 -0.9977 0.0670
vn -0.0293 -0.9994 -0.0202
vn 0.7335 -0.5107 -0.4485
vn 0.4226 -0.8880 -0.1812
vn 0.3761 -0.8907 -0.2553
vn 0.7098 -0.5168 -0.4786
vn -0.8567 -0.3432 0.3851
vn -0.8813 -0.3523 0.3149
vn -0.9256 -0.0851 0.3688
vn -0.9569 -0.1106 0.2687
vn -0.6794 0.7211 -0.1360
vn -0.8960 0.4248 0.1291
vn -0.9079 0.4015 0.1208
vn -0.6697 0.7381 -0.0824
vn -0.9667 0.1434 0.2118
vn -0.9430 0.1737 0.2839
vn -0.3441 0.8580 -0.3813
vn -0.3112 0.8990 -0.3082
vn 0.5374 0.5023 -0.6774
vn 0.0877 0.8060 -0.5853
vn 0.1278 0.8441 -0.5207
vn 0.5596 0.5157 -0.6488
vn 0.8009 -0.2001 -0.5643
vn 0.8012 -0.1983 -0.5645
vn 0.7300 0.2219 -0.6464
vn 0.7291 0.2234 -0.6469
vn 0.7855 0.0126 -0.6188
vn 0.7937 0.0161 -0.6081
vn -0.4811 -0.0026 -0.8766
vn -0.4017 -0.4710 -0.7853
vn -0.1473 -0.9212 -0.3601
vn 0.0904 -0.9948 0.0473
vn 0.2259 -0.9322 0.2826
vn 0.1805 -0.9560 0.2314
vn 0.0273 -0.9974 0.0664
vn -0.0030 -0.9995 0.0301
vn 0.0132 -0.9984 0.0556
vn 0.0376 -0.9947 0.0962
vn 0.0929 -0.9780 0.1868
vn 0.2449 -0.8535 0.4600
vn 0.3689 -0.6281 0.6852
vn 0.4175 -0.5037 0.7563
vn 0.1055 -0.9919 0.0712
vn 0.2289 -0.9167 0.3276
vn 0.3347 -0.7577 0.5603
vn 0.4371 -0.4312 0.7893
vn 0.4330 0.2423 0.8682
vn 0.3911 0.4362 0.8104
vn -0.0900 0.9950 -0.0426
vn -0.2162 0.9295 -0.2989
vn 0.1099 0.9148 0.3887
vn -0.0628 0.9921 0.1089
vn -0.2866 0.9151 -0.2838
vn -0.3107 0.8933 -0.3249
vn -0.3257 0.8794 -0.3472
vn -0.3112 0.8990 -0.3083
vn -0.3440 0.8580 -0.3814
vn -0.2832 0.9143 -0.2895
vn -0.2287 0.9417 -0.2466
vn -0.1542 0.9744 -0.1638
vn -0.1001 0.9907 -0.0922
vn -0.2337 0.9163 -0.3252
vn -0.4099 0.6275 -0.6620
vt 0.977106 0.853314
vt 0.984995 0.859858
vt 0.996332 0.828219
vt 0.979198 0.824861
vt 0.894877 0.707361
vt 0.848448 0.697093
vt 0.839181 0.726410
vt 0.884613 0.735271
vt 0.883238 0.866457
vt 0.838092 0.875306
vt 0.846765 0.904882
vt 0.892757 0.894432
vt 0.934926 0.726050
vt 0.923022 0.748065
vt 0.921742 0.854575
vt 0.933037 0.876903
vt 0.977862 0.750783
vt 0.965668 0.760787
vt 0.965067 0.843090
vt 0.674267 0.920776
vt 0.632896 0.925496
vt 0.637160 0.965524
vt 0.680584 0.960344
vt 0.725767 0.900888
vt 0.734136 0.936668
vt 0.681310 0.641217
vt 0.637856 0.636783
vt 0.633349 0.678328
vt 0.674719 0.681722
vt 0.735284 0.663435
vt 0.726979 0.699280
vt 0.909062 0.677032
vt 0.858252 0.665996
vt 0.876486 0.767972
vt 0.831777 0.763032
vt 0.829336 0.800733
vt 0.874131 0.800942
vt 0.855912 0.936166
vt 0.906897 0.926322
vt 0.952532 0.703671
vt 0.913682 0.777478
vt 0.910838 0.801345
vt 0.950797 0.900421
vt 0.985865 0.744380
vt 0.958422 0.780989
vt 0.956343 0.801855
vt 0.750239 0.626137
vt 0.689920 0.602692
vt 0.719260 0.749227
vt 0.668339 0.739948
vt 0.665957 0.799868
vt 0.715930 0.800058
vt 0.688010 0.996515
vt 0.748409 0.974128
vt 0.640571 1.000000
vt 0.641919 0.597291
vt 0.628409 0.737999
vt 0.626456 0.799868
vt 0.667924 0.859455
vt 0.628117 0.861723
vt 0.718793 0.850908
vt 0.875898 0.833988
vt 0.831265 0.838489
vt 0.913247 0.825284
vt 0.958120 0.822756
vt 0.979536 0.779295
vt 0.996735 0.776229
vt 0.336076 0.493743
vt 0.284714 0.483005
vt 0.271850 0.528981
vt 0.325050 0.545891
vt 0.112610 0.489338
vt 0.157245 0.493876
vt 0.166229 0.454800
vt 0.119181 0.452609
vt 0.075839 0.479193
vt 0.080928 0.446466
vt 0.325007 0.306034
vt 0.271786 0.323003
vt 0.284691 0.368969
vt 0.336051 0.358201
vt 0.119175 0.399393
vt 0.166224 0.397285
vt 0.157227 0.358212
vt 0.112587 0.362633
vt 0.080928 0.405559
vt 0.075840 0.372788
vt 0.042206 0.462990
vt 0.046271 0.443412
vt 0.046281 0.408645
vt 0.042228 0.389060
vt 0.364877 0.550364
vt 0.373368 0.496142
vt 0.373347 0.355802
vt 0.364856 0.301561
vt 0.104099 0.517219
vt 0.150287 0.522723
vt 0.150256 0.329373
vt 0.104333 0.335727
vt 0.064801 0.502522
vt 0.065036 0.350145
vt 0.030587 0.472202
vt 0.030619 0.379825
vt 0.316577 0.581534
vt 0.359484 0.586947
vt 0.260723 0.562286
vt 0.359244 0.263469
vt 0.316285 0.269404
vt 0.260627 0.289721
vt 0.168112 0.426041
vt 0.120889 0.426003
vt 0.082594 0.426014
vt 0.047553 0.426030
vt 0.340618 0.425976
vt 0.291021 0.425989
vt 0.376911 0.425976
vt 0.039836 0.800262
vt 0.043354 0.753067
vt 0.009602 0.745165
vt 0.000000 0.800327
vt 0.043479 0.847456
vt 0.009756 0.855469
vt 0.924841 0.390319
vt 0.930009 0.361167
vt 0.890062 0.355586
vt 0.885431 0.395748
vt 0.897430 0.327290
vt 0.939410 0.343357
vt 0.098885 0.698575
vt 0.085885 0.669317
vt 0.041876 0.696739
vt 0.056872 0.713859
vt 0.925178 0.426247
vt 0.884248 0.426176
vt 0.924733 0.462174
vt 0.885345 0.456609
vt 0.929810 0.491347
vt 0.889855 0.496791
vt 0.939151 0.509191
vt 0.897131 0.525115
vt 0.057117 0.886636
vt 0.042188 0.903813
vt 0.086313 0.931107
vt 0.099179 0.901786
vt 0.070387 0.865912
vt 0.108649 0.873854
vt 0.075734 0.842741
vt 0.116805 0.837882
vt 0.075652 0.800201
vt 0.119261 0.800128
vt 0.075633 0.757672
vt 0.116739 0.762387
vt 0.070215 0.734528
vt 0.108479 0.726461
vt 0.959436 0.426307
vt 0.955722 0.382827
vt 0.955586 0.469775
vt 0.847376 0.323344
vt 0.842446 0.355494
vt 0.837515 0.396299
vt 0.836904 0.426098
vt 0.837439 0.455898
vt 0.842258 0.496722
vt 0.847087 0.528892
vt 0.142457 0.942618
vt 0.148652 0.912055
vt 0.155342 0.879751
vt 0.161256 0.838778
vt 0.162210 0.800077
vt 0.161228 0.761353
vt 0.155212 0.720406
vt 0.148323 0.688126
vt 0.141902 0.657575
vt 0.215201 0.726115
vt 0.212320 0.694563
vt 0.209342 0.662950
vt 0.216999 0.762982
vt 0.212598 0.905160
vt 0.215148 0.873853
vt 0.217015 0.837179
vt 0.210123 0.936691
vt 0.785848 0.325175
vt 0.782938 0.356054
vt 0.218164 0.800097
vt 0.782790 0.495975
vt 0.785617 0.526858
vt 0.781048 0.394118
vt 0.780184 0.426016
vt 0.780983 0.457914
vt 0.026661 0.445441
vt 0.026664 0.406618
vt 0.025491 0.426032
vt 1.000000 0.802254
vt 0.979419 0.802079
vt 0.786257 0.759839
vt 0.794100 0.721991
vt 0.787142 0.720508
vt 0.779547 0.759059
vt 0.796388 0.692082
vt 0.803396 0.693795
vt 0.807427 0.663850
vt 0.813646 0.665456
vt 0.811388 0.935772
vt 0.801624 0.907265
vt 0.794493 0.908834
vt 0.805200 0.937242
vt 0.786442 0.880227
vt 0.793274 0.878896
vt 0.779162 0.841625
vt 0.785859 0.840934
vt 0.209329 0.353364
vt 0.201363 0.326225
vt 0.194441 0.328291
vt 0.202583 0.355237
vt 0.783331 0.800366
vt 0.777203 0.800329
vt 0.202615 0.496817
vt 0.194494 0.523770
vt 0.201419 0.525831
vt 0.209363 0.498684
vt 0.210963 0.456959
vt 0.217409 0.458533
vt 0.212959 0.426022
vt 0.219840 0.426019
vt 0.217396 0.393506
vt 0.210950 0.395087
vt 0.289961 0.659368
vt 0.291404 0.689958
vt 0.371937 0.687095
vt 0.369110 0.659428
vt 0.373241 0.715358
vt 0.291615 0.718152
vt 0.373685 0.755864
vt 0.291412 0.756802
vt 0.291674 0.886570
vt 0.291307 0.913053
vt 0.372353 0.912374
vt 0.373539 0.884309
vt 0.369398 0.939845
vt 0.290301 0.937796
vt 0.291494 0.844310
vt 0.373724 0.843990
vt 0.706043 0.342023
vt 0.707051 0.314410
vt 0.626764 0.310541
vt 0.624623 0.337765
vt 0.291529 0.800474
vt 0.373635 0.799963
vt 0.624603 0.514132
vt 0.626758 0.541346
vt 0.706870 0.535382
vt 0.705947 0.509801
vt 0.705528 0.384823
vt 0.623818 0.380182
vt 0.705614 0.425917
vt 0.623697 0.425947
vt 0.623797 0.471715
vt 0.705478 0.467007
vt 0.591792 0.921200
vt 0.593873 0.961057
vt 0.592376 0.681840
vt 0.594641 0.640522
vt 0.594275 0.996526
vt 0.594899 0.600746
vt 0.588861 0.739553
vt 0.587528 0.799841
vt 0.588728 0.860248
vt 0.411566 0.494862
vt 0.405198 0.549112
vt 0.405190 0.302841
vt 0.411550 0.357093
vt 0.402549 0.586206
vt 0.402468 0.264368
vt 0.414318 0.425980
vt 0.513456 0.907607
vt 0.513033 0.944336
vt 0.553160 0.953567
vt 0.552502 0.914726
vt 0.551312 0.990220
vt 0.509515 0.980281
vt 0.511619 0.855984
vt 0.550332 0.858313
vt 0.511534 0.799694
vt 0.549578 0.799768
vt 0.513137 0.655044
vt 0.513612 0.692120
vt 0.553007 0.686594
vt 0.553721 0.646855
vt 0.550397 0.741319
vt 0.511650 0.743413
vt 0.509217 0.618317
vt 0.551371 0.607598
vt 0.483757 0.310737
vt 0.484798 0.275481
vt 0.443688 0.268335
vt 0.444298 0.305787
vt 0.443669 0.582791
vt 0.444301 0.546185
vt 0.484760 0.576258
vt 0.483765 0.541243
vt 0.486824 0.362688
vt 0.449009 0.359176
vt 0.449022 0.492793
vt 0.486834 0.489284
vt 0.451174 0.425985
vt 0.488324 0.425984
vt 0.436691 0.899405
vt 0.435973 0.930601
vt 0.473629 0.936285
vt 0.474744 0.902319
vt 0.469391 0.970004
vt 0.431941 0.960401
vt 0.522887 0.536014
vt 0.524812 0.568583
vt 0.562246 0.560274
vt 0.560453 0.530775
vt 0.435124 0.853037
vt 0.473304 0.854168
vt 0.434389 0.799679
vt 0.472966 0.799651
vt 0.435485 0.668371
vt 0.436292 0.699414
vt 0.474547 0.696490
vt 0.473337 0.662560
vt 0.473320 0.745074
vt 0.435094 0.746265
vt 0.431549 0.639177
vt 0.468991 0.629320
vt 0.560442 0.321225
vt 0.562226 0.291961
vt 0.524818 0.283587
vt 0.522875 0.315985
vt 0.524473 0.485835
vt 0.561975 0.482647
vt 0.561978 0.369331
vt 0.524468 0.366153
vt 0.525413 0.425991
vt 0.562777 0.425984
vt 0.989689 0.426360
vt 0.982533 0.372589
vt 0.982361 0.480108
vt 0.951082 0.527738
vt 0.906639 0.550809
vt 0.852537 0.562914
vt 0.787792 0.555185
vt 0.708905 0.560196
vt 0.630470 0.565486
vt 0.567523 0.588068
vt 0.529585 0.597991
vt 0.489217 0.608690
vt 0.446977 0.619183
vt 0.402851 0.626269
vt 0.354704 0.627709
vt 0.305825 0.619397
vt 0.247969 0.590421
vt 0.193881 0.546365
vt 0.188275 0.544861
vt 0.144158 0.549632
vt 0.094411 0.541412
vt 0.050256 0.520445
vt 0.015753 0.482565
vt 0.003449 0.451544
vt 0.000000 0.426026
vt 0.003458 0.400501
vt 0.015808 0.369441
vt 0.050120 0.331906
vt 0.094286 0.310902
vt 0.144079 0.302461
vt 0.188198 0.307207
vt 0.193801 0.305703
vt 0.247806 0.261604
vt 0.305636 0.232263
vt 0.354526 0.223836
vt 0.402781 0.225359
vt 0.447005 0.232573
vt 0.489324 0.243246
vt 0.529698 0.254072
vt 0.567580 0.264029
vt 0.630312 0.286513
vt 0.708951 0.290863
vt 0.788154 0.296846
vt 0.852949 0.289346
vt 0.907029 0.301631
vt 0.951405 0.324853
s 1
g off
g defaultMaterial_material.002
usemtl material.002
f 4/1/1 1/2/2 2/3/3
f 2/3/3 3/4/4 4/1/1
f 8/5/5 5/6/6 6/7/7
f 6/7/7 7/8/8 8/5/5
f 12/9/9 9/10/10 10/11/11
f 10/11/11 11/12/12 12/9/9
f 14/13/13 8/5/5 7/8/8
f 7/8/8 13/14/14 14/13/13
f 16/15/15 12/9/9 11/12/12
f 11/12/12 15/16/16 16/15/15
f 18/17/17 14/13/13 13/14/14
f 13/14/14 17/18/18 18/17/17
f 19/19/19 16/15/15 15/16/16
f 15/16/16 4/1/1 19/19/19
f 23/20/20 20/21/21 21/22/22
f 21/22/22 22/23/23 23/20/20
f 25/24/24 23/20/20 22/23/23
f 22/23/23 24/25/25 25/24/24
f 29/26/26 26/27/27 27/28/28
f 27/28/28 28/29/29 29/26/26
f 31/30/30 29/26/26 28/29/29
f 28/29/29 30/31/31 31/30/30
f 33/32/32 32/33/33 5/6/6
f 5/6/6 8/5/5 33/32/32
f 37/34/34 34/35/35 35/36/36
f 35/36/36 36/37/37 37/34/34
f 11/12/12 10/11/11 38/38/38
f 38/38/38 39/39/39 11/12/12
f 40/40/40 33/32/32 8/5/5
f 8/5/5 14/13/13 40/40/40
f 42/41/41 37/34/34 36/37/37
f 36/37/37 41/42/42 42/41/41
f 15/16/16 11/12/12 39/39/39
f 39/39/39 43/43/43 15/16/16
f 44/44/44 40/40/40 14/13/13
f 14/13/13 18/17/17 44/44/44
f 46/45/45 42/41/41 41/42/42
f 41/42/42 45/46/46 46/45/45
f 4/1/1 15/16/16 43/43/43
f 43/43/43 1/2/2 4/1/1
f 48/47/47 47/48/48 29/26/26
f 29/26/26 31/30/30 48/47/47
f 52/49/49 49/50/50 50/51/51
f 50/51/51 51/52/52 52/49/49
f 24/25/25 22/23/23 53/53/53
f 53/53/53 54/54/54 24/25/25
f 21/22/22 55/55/55 53/53/53
f 53/53/53 22/23/23 21/22/22
f 29/26/26 47/48/48 56/56/56
f 56/56/56 26/27/27 29/26/26
f 50/51/51 49/50/50 57/57/57
f 57/57/57 58/58/58 50/51/51
f 23/20/20 59/59/59 60/60/60
f 60/60/60 20/21/21 23/20/20
f 25/24/24 61/61/61 59/59/59
f 59/59/59 23/20/20 25/24/24
f 12/9/9 62/62/62 63/63/63
f 63/63/63 9/10/10 12/9/9
f 16/15/15 64/64/64 62/62/62
f 62/62/62 12/9/9 16/15/15
f 19/19/19 65/65/65 64/64/64
f 64/64/64 16/15/15 19/19/19
f 44/44/44 18/17/17 66/66/66
f 66/66/66 67/67/67 44/44/44
f 17/18/18 13/14/14 42/41/41
f 42/41/41 46/45/45 17/18/18
f 13/14/14 7/8/8 37/34/34
f 37/34/34 42/41/41 13/14/14
f 7/8/8 6/7/7 34/35/35
f 34/35/35 37/34/34 7/8/8
f 30/31/31 28/29/29 49/50/50
f 49/50/50 52/49/49 30/31/31
f 49/50/50 28/29/29 27/28/28
f 27/28/28 57/57/57 49/50/50
f 65/65/65 45/46/46 41/42/42
f 41/42/42 64/64/64 65/65/65
f 64/64/64 41/42/42 36/37/37
f 36/37/37 62/62/62 64/64/64
f 62/62/62 36/37/37 35/36/36
f 35/36/36 63/63/63 62/62/62
f 61/61/61 51/52/52 50/51/51
f 50/51/51 59/59/59 61/61/61
f 59/59/59 50/51/51 58/58/58
f 58/58/58 60/60/60 59/59/59
f 71/68/68 68/69/69 69/70/70
f 69/70/70 70/71/71 71/68/68
f 75/72/72 72/73/73 73/74/74
f 73/74/74 74/75/75 75/72/72
f 77/76/76 75/72/72 74/75/75
f 74/75/75 76/77/77 77/76/76
f 81/78/78 78/79/79 79/80/80
f 79/80/80 80/81/81 81/78/78
f 85/82/82 82/83/83 83/84/84
f 83/84/84 84/85/85 85/82/82
f 87/86/86 85/82/82 84/85/85
f 84/85/85 86/87/87 87/86/86
f 89/88/88 77/76/76 76/77/77
f 76/77/77 88/89/89 89/88/88
f 91/90/90 87/86/86 86/87/87
f 86/87/87 90/91/91 91/90/90
f 70/71/71 92/92/92 93/93/93
f 93/93/93 71/68/68 70/71/71
f 80/81/81 94/94/94 95/95/95
f 95/95/95 81/78/78 80/81/81
f 97/96/96 96/97/97 72/73/73
f 72/73/73 75/72/72 97/96/96
f 84/85/85 83/84/84 98/98/98
f 98/98/98 99/99/99 84/85/85
f 100/100/100 97/96/96 75/72/72
f 75/72/72 77/76/76 100/100/100
f 86/87/87 84/85/85 99/99/99
f 99/99/99 101/101/101 86/87/87
f 102/102/102 100/100/100 77/76/76
f 77/76/76 89/88/88 102/102/102
f 90/91/91 86/87/87 101/101/101
f 101/101/101 103/103/103 90/91/91
f 105/104/104 104/105/105 92/92/92
f 92/92/92 70/71/71 105/104/104
f 106/106/106 105/104/104 70/71/71
f 70/71/71 69/70/70 106/106/106
f 81/78/78 95/95/95 107/107/107
f 107/107/107 108/108/108 81/78/78
f 78/79/79 81/78/78 108/108/108
f 108/108/108 109/109/109 78/79/79
f 74/75/75 73/74/74 110/110/110
f 110/110/110 111/111/111 74/75/75
f 76/77/77 74/75/75 111/111/111
f 111/111/111 112/112/112 76/77/77
f 88/89/89 76/77/77 112/112/112
f 112/112/112 113/113/113 88/89/89
f 68/69/69 71/68/68 114/114/114
f 114/114/114 115/115/115 68/69/69
f 114/114/114 71/68/68 93/93/93
f 93/93/93 116/116/116 114/114/114
f 80/81/81 114/114/114 116/116/116
f 116/116/116 94/94/94 80/81/81
f 79/80/80 115/115/115 114/114/114
f 114/114/114 80/81/81 79/80/80
f 85/82/82 111/111/111 110/110/110
f 110/110/110 82/83/83 85/82/82
f 87/86/86 112/112/112 111/111/111
f 111/111/111 85/82/82 87/86/86
f 91/90/90 113/113/113 112/112/112
f 112/112/112 87/86/86 91/90/90
f 120/117/117 117/118/118 118/119/119
f 118/119/119 119/120/120 120/117/117
f 122/121/121 120/117/117 119/120/120
f 119/120/120 121/122/122 122/121/121
f 126/123/123 123/124/124 124/125/125
f 124/125/125 125/126/126 126/123/123
f 128/127/127 124/125/125 123/124/124
f 123/124/124 127/128/128 128/127/127
f 132/129/129 129/130/130 130/131/131
f 130/131/131 131/132/132 132/129/129
f 134/133/133 126/123/123 125/126/126
f 125/126/126 133/134/134 134/133/133
f 136/135/135 134/133/133 133/134/134
f 133/134/134 135/136/136 136/135/135
f 138/137/137 136/135/135 135/136/136
f 135/136/136 137/138/138 138/137/137
f 140/139/139 138/137/137 137/138/138
f 137/138/138 139/140/140 140/139/139
f 144/141/141 141/142/142 142/143/143
f 142/143/143 143/144/144 144/141/141
f 146/145/145 144/141/141 143/144/144
f 143/144/144 145/146/146 146/145/145
f 148/147/147 146/145/145 145/146/146
f 145/146/146 147/148/148 148/147/147
f 150/149/149 148/147/147 147/148/148
f 147/148/148 149/150/150 150/149/149
f 152/151/151 150/149/149 149/150/150
f 149/150/150 151/152/152 152/151/151
f 154/153/153 152/151/151 151/152/152
f 151/152/152 153/154/154 154/153/153
f 131/132/132 154/153/153 153/154/154
f 153/154/154 132/129/129 131/132/132
f 150/149/149 152/151/151 117/118/118
f 117/118/118 120/117/117 150/149/149
f 156/155/155 155/156/156 126/123/123
f 126/123/123 134/133/133 156/155/155
f 154/153/153 131/132/132 117/118/118
f 117/118/118 152/151/151 154/153/153
f 131/132/132 130/131/131 118/119/119
f 118/119/119 117/118/118 131/132/132
f 155/156/156 127/128/128 123/124/124
f 123/124/124 126/123/123 155/156/156
f 140/139/139 157/157/157 136/135/135
f 136/135/135 138/137/137 140/139/139
f 144/141/141 122/121/121 121/122/122
f 121/122/122 141/142/142 144/141/141
f 146/145/145 148/147/147 122/121/121
f 122/121/121 144/141/141 146/145/145
f 148/147/147 150/149/149 120/117/117
f 120/117/117 122/121/121 148/147/147
f 157/157/157 156/155/155 134/133/133
f 134/133/133 136/135/135 157/157/157
f 128/127/127 158/158/158 159/159/159
f 159/159/159 124/125/125 128/127/127
f 124/125/125 159/159/159 160/160/160
f 160/160/160 125/126/126 124/125/125
f 125/126/126 160/160/160 161/161/161
f 161/161/161 133/134/134 125/126/126
f 133/134/134 161/161/161 162/162/162
f 162/162/162 135/136/136 133/134/134
f 135/136/136 162/162/162 163/163/163
f 163/163/163 137/138/138 135/136/136
f 137/138/138 163/163/163 164/164/164
f 164/164/164 139/140/140 137/138/138
f 142/143/143 165/165/165 166/166/166
f 166/166/166 143/144/144 142/143/143
f 143/144/144 166/166/166 167/167/167
f 167/167/167 145/146/146 143/144/144
f 145/146/146 167/167/167 168/168/168
f 168/168/168 147/148/148 145/146/146
f 147/148/148 168/168/168 169/169/169
f 169/169/169 149/150/150 147/148/148
f 149/150/150 169/169/169 170/170/170
f 170/170/170 151/152/152 149/150/150
f 151/152/152 170/170/170 171/171/171
f 171/171/171 153/154/154 151/152/152
f 153/154/154 171/171/171 172/172/172
f 172/172/172 132/129/129 153/154/154
f 132/129/129 172/172/172 173/173/173
f 173/173/173 129/130/130 132/129/129
f 171/171/171 174/174/174 175/175/175
f 175/175/175 172/172/172 171/171/171
f 172/172/172 175/175/175 176/176/176
f 176/176/176 173/173/173 172/172/172
f 170/170/170 177/177/177 174/174/174
f 174/174/174 171/171/171 170/170/170
f 166/166/166 178/178/178 179/179/179
f 179/179/179 167/167/167 166/166/166
f 167/167/167 179/179/179 180/180/180
f 180/180/180 168/168/168 167/167/167
f 165/165/165 181/181/181 178/178/178
f 178/178/178 166/166/166 165/165/165
f 158/158/158 182/182/182 183/183/183
f 183/183/183 159/159/159 158/158/158
f 168/168/168 180/180/180 184/184/184
f 184/184/184 169/169/169 168/168/168
f 163/163/163 185/185/185 186/186/186
f 186/186/186 164/164/164 163/163/163
f 169/169/169 184/184/184 177/177/177
f 177/177/177 170/170/170 169/169/169
f 159/159/159 183/183/183 187/187/187
f 187/187/187 160/160/160 159/159/159
f 160/160/160 187/187/187 188/188/188
f 188/188/188 161/161/161 160/160/160
f 162/162/162 189/189/189 185/185/185
f 185/185/185 163/163/163 162/162/162
f 161/161/161 188/188/188 189/189/189
f 189/189/189 162/162/162 161/161/161
f 190/190/190 102/102/102 89/88/88
f 89/88/88 88/89/89 190/190/190
f 90/91/91 103/103/103 191/191/191
f 191/191/191 91/90/90 90/91/91
f 192/192/192 190/190/190 88/89/89
f 88/89/89 113/113/113 192/192/192
f 194/193/193 193/194/194 3/4/4
f 3/4/4 2/3/3 194/193/193
f 67/67/67 66/66/66 193/194/194
f 193/194/194 194/193/193 67/67/67
f 113/113/113 91/90/90 191/191/191
f 191/191/191 192/192/192 113/113/113
f 17/18/18 46/45/45 66/66/66
f 66/66/66 18/17/17 17/18/18
f 46/45/45 45/46/46 193/194/194
f 193/194/194 66/66/66 46/45/45
f 45/46/46 65/65/65 3/4/4
f 3/4/4 193/194/194 45/46/46
f 19/19/19 4/1/1 3/4/4
f 3/4/4 65/65/65 19/19/19
f 198/195/195 195/196/196 196/197/197
f 196/197/197 197/198/198 198/195/195
f 200/199/199 196/197/197 195/196/196
f 195/196/196 199/200/200 200/199/199
f 202/201/201 200/199/199 199/200/200
f 199/200/200 201/202/202 202/201/201
f 206/203/203 203/204/204 204/205/205
f 204/205/205 205/206/206 206/203/203
f 208/207/207 204/205/205 203/204/204
f 203/204/204 207/208/208 208/207/207
f 210/209/209 208/207/207 207/208/208
f 207/208/208 209/210/210 210/209/209
f 214/211/211 211/212/212 212/213/213
f 212/213/213 213/214/214 214/211/211
f 216/215/215 198/195/195 197/198/198
f 197/198/198 215/216/216 216/215/215
f 220/217/217 217/218/218 218/219/219
f 218/219/219 219/220/220 220/217/217
f 209/210/210 216/215/215 215/216/216
f 215/216/216 210/209/209 209/210/210
f 222/221/221 220/217/217 219/220/220
f 219/220/220 221/222/222 222/221/221
f 224/223/223 222/221/221 221/222/222
f 221/222/222 223/224/224 224/223/223
f 226/225/225 214/211/211 213/214/214
f 213/214/214 225/226/226 226/225/225
f 223/224/224 226/225/225 225/226/226
f 225/226/226 224/223/223 223/224/224
f 30/31/31 196/197/197 200/199/199
f 200/199/199 31/30/30 30/31/31
f 5/6/6 199/200/200 195/196/196
f 195/196/196 6/7/7 5/6/6
f 24/25/25 204/205/205 208/207/207
f 208/207/207 25/24/24 24/25/25
f 9/10/10 207/208/208 203/204/204
f 203/204/204 10/11/11 9/10/10
f 32/33/33 201/202/202 199/200/200
f 199/200/200 5/6/6 32/33/33
f 34/35/35 198/195/195 216/215/215
f 216/215/215 35/36/36 34/35/35
f 10/11/11 203/204/204 206/203/203
f 206/203/203 38/38/38 10/11/11
f 202/201/201 48/47/47 31/30/30
f 31/30/30 200/199/199 202/201/201
f 204/205/205 24/25/25 54/54/54
f 54/54/54 205/206/206 204/205/205
f 197/198/198 52/49/49 51/52/52
f 51/52/52 215/216/216 197/198/198
f 208/207/207 210/209/209 61/61/61
f 61/61/61 25/24/24 208/207/207
f 9/10/10 63/63/63 209/210/210
f 209/210/210 207/208/208 9/10/10
f 6/7/7 195/196/196 198/195/195
f 198/195/195 34/35/35 6/7/7
f 196/197/197 30/31/31 52/49/49
f 52/49/49 197/198/198 196/197/197
f 63/63/63 35/36/36 216/215/215
f 216/215/215 209/210/210 63/63/63
f 210/209/209 215/216/216 51/52/52
f 51/52/52 61/61/61 210/209/209
f 72/73/73 220/217/217 222/221/221
f 222/221/221 73/74/74 72/73/73
f 68/69/69 221/222/222 219/220/220
f 219/220/220 69/70/70 68/69/69
f 78/79/79 214/211/211 226/225/225
f 226/225/225 79/80/80 78/79/79
f 82/83/83 225/226/226 213/214/214
f 213/214/214 83/84/84 82/83/83
f 69/70/70 219/220/220 218/219/219
f 218/219/219 106/106/106 69/70/70
f 96/97/97 217/218/218 220/217/217
f 220/217/217 72/73/73 96/97/97
f 109/109/109 211/212/212 214/211/211
f 214/211/211 78/79/79 109/109/109
f 83/84/84 213/214/214 212/213/213
f 212/213/213 98/98/98 83/84/84
f 73/74/74 222/221/221 224/223/223
f 224/223/223 110/110/110 73/74/74
f 221/222/222 68/69/69 115/115/115
f 115/115/115 223/224/224 221/222/222
f 226/225/225 223/224/224 115/115/115
f 115/115/115 79/80/80 226/225/225
f 82/83/83 110/110/110 224/223/223
f 224/223/223 225/226/226 82/83/83
f 230/227/227 227/228/228 228/229/229
f 228/229/229 229/230/230 230/227/227
f 232/231/231 228/229/229 227/228/228
f 227/228/228 231/232/232 232/231/231
f 234/233/233 232/231/231 231/232/232
f 231/232/232 233/234/234 234/233/233
f 238/235/235 235/236/236 236/237/237
f 236/237/237 237/238/238 238/235/235
f 240/239/239 236/237/237 235/236/236
f 235/236/236 239/240/240 240/239/239
f 242/241/241 238/235/235 237/238/238
f 237/238/238 241/242/242 242/241/241
f 246/243/243 243/244/244 244/245/245
f 244/245/245 245/246/246 246/243/243
f 248/247/247 242/241/241 241/242/242
f 241/242/242 247/248/248 248/247/247
f 252/249/249 249/250/250 250/251/251
f 250/251/251 251/252/252 252/249/249
f 233/234/234 248/247/247 247/248/248
f 247/248/248 234/233/233 233/234/234
f 254/253/253 246/243/243 245/246/246
f 245/246/246 253/254/254 254/253/253
f 256/255/255 254/253/253 253/254/254
f 253/254/254 255/256/256 256/255/255
f 258/257/257 252/249/249 251/252/252
f 251/252/252 257/258/258 258/257/257
f 255/256/256 258/257/257 257/258/258
f 257/258/258 256/255/255 255/256/256
f 184/184/184 248/247/247 233/234/234
f 233/234/234 177/177/177 184/184/184
f 177/177/177 233/234/234 231/232/232
f 231/232/232 174/174/174 177/177/177
f 174/174/174 231/232/232 227/228/228
f 227/228/228 175/175/175 174/174/174
f 175/175/175 227/228/228 230/227/227
f 230/227/227 176/176/176 175/175/175
f 182/182/182 243/244/244 246/243/243
f 246/243/243 183/183/183 182/182/182
f 183/183/183 246/243/243 254/253/253
f 254/253/253 187/187/187 183/183/183
f 187/187/187 254/253/253 256/255/255
f 256/255/255 188/188/188 187/187/187
f 188/188/188 256/255/255 257/258/258
f 257/258/258 189/189/189 188/188/188
f 189/189/189 257/258/258 251/252/252
f 251/252/252 185/185/185 189/189/189
f 185/185/185 251/252/252 250/251/251
f 250/251/251 186/186/186 185/185/185
f 181/181/181 239/240/240 235/236/236
f 235/236/236 178/178/178 181/181/181
f 178/178/178 235/236/236 238/235/235
f 238/235/235 179/179/179 178/178/178
f 179/179/179 238/235/235 242/241/241
f 242/241/241 180/180/180 179/179/179
f 180/180/180 242/241/241 248/247/247
f 248/247/247 184/184/184 180/180/180
f 20/21/21 259/259/259 260/260/260
f 260/260/260 21/22/22 20/21/21
f 262/261/261 27/28/28 26/27/27
f 26/27/27 261/262/262 262/261/261
f 55/55/55 21/22/22 260/260/260
f 260/260/260 263/263/263 55/55/55
f 264/264/264 261/262/262 26/27/27
f 26/27/27 56/56/56 264/264/264
f 266/265/265 265/266/266 58/58/58
f 58/58/58 57/57/57 266/265/265
f 267/267/267 259/259/259 20/21/21
f 20/21/21 60/60/60 267/267/267
f 266/265/265 57/57/57 27/28/28
f 27/28/28 262/261/261 266/265/265
f 267/267/267 60/60/60 58/58/58
f 58/58/58 265/266/266 267/267/267
f 269/268/268 93/93/93 92/92/92
f 92/92/92 268/269/269 269/268/268
f 271/270/270 95/95/95 94/94/94
f 94/94/94 270/271/271 271/270/270
f 272/272/272 268/269/269 92/92/92
f 92/92/92 104/105/105 272/272/272
f 271/270/270 273/273/273 107/107/107
f 107/107/107 95/95/95 271/270/270
f 274/274/274 116/116/116 93/93/93
f 93/93/93 269/268/268 274/274/274
f 94/94/94 116/116/116 274/274/274
f 274/274/274 270/271/271 94/94/94
f 278/275/275 275/276/276 276/277/277
f 276/277/277 277/278/278 278/275/275
f 277/278/278 276/277/277 260/260/260
f 260/260/260 259/259/259 277/278/278
f 263/263/263 260/260/260 276/277/277
f 276/277/277 279/279/279 263/263/263
f 279/279/279 276/277/277 275/276/276
f 275/276/276 280/280/280 279/279/279
f 282/281/281 278/275/275 277/278/278
f 277/278/278 281/282/282 282/281/281
f 281/282/282 277/278/278 259/259/259
f 259/259/259 267/267/267 281/282/282
f 284/283/283 282/281/281 281/282/282
f 281/282/282 283/284/284 284/283/283
f 283/284/284 281/282/282 267/267/267
f 267/267/267 265/266/266 283/284/284
f 288/285/285 285/286/286 286/287/287
f 286/287/287 287/288/288 288/285/285
f 287/288/288 286/287/287 262/261/261
f 262/261/261 261/262/262 287/288/288
f 266/265/265 262/261/261 286/287/287
f 286/287/287 289/289/289 266/265/265
f 289/289/289 286/287/287 285/286/286
f 285/286/286 290/290/290 289/289/289
f 292/291/291 288/285/285 287/288/288
f 287/288/288 291/292/292 292/291/291
f 291/292/292 287/288/288 261/262/262
f 261/262/262 264/264/264 291/292/292
f 296/293/293 293/294/294 294/295/295
f 294/295/295 295/296/296 296/293/293
f 295/296/296 294/295/295 273/273/273
f 273/273/273 271/270/270 295/296/296
f 268/269/269 272/272/272 297/297/297
f 297/297/297 298/298/298 268/269/269
f 298/298/298 297/297/297 299/299/299
f 299/299/299 300/300/300 298/298/298
f 302/301/301 296/293/293 295/296/296
f 295/296/296 301/302/302 302/301/301
f 301/302/302 295/296/296 271/270/270
f 271/270/270 270/271/271 301/302/302
f 265/266/266 266/265/265 289/289/289
f 289/289/289 283/284/284 265/266/266
f 283/284/284 289/289/289 290/290/290
f 290/290/290 284/283/283 283/284/284
f 269/268/268 268/269/269 298/298/298
f 298/298/298 303/303/303 269/268/268
f 303/303/303 298/298/298 300/300/300
f 300/300/300 304/304/304 303/303/303
f 274/274/274 269/268/268 303/303/303
f 303/303/303 305/305/305 274/274/274
f 305/305/305 303/303/303 304/304/304
f 304/304/304 306/306/306 305/305/305
f 270/271/271 274/274/274 305/305/305
f 305/305/305 301/302/302 270/271/271
f 301/302/302 305/305/305 306/306/306
f 306/306/306 302/301/301 301/302/302
f 310/307/307 307/308/308 308/309/309
f 308/309/309 309/310/310 310/307/307
f 312/311/311 308/309/309 307/308/308
f 307/308/308 311/312/312 312/311/311
f 316/313/313 313/314/314 314/315/315
f 314/315/315 315/316/316 316/313/313
f 318/317/317 310/307/307 309/310/310
f 309/310/310 317/318/318 318/317/317
f 320/319/319 318/317/317 317/318/318
f 317/318/318 319/320/320 320/319/319
f 324/321/321 321/322/322 322/323/323
f 322/323/323 323/324/324 324/321/321
f 326/325/325 322/323/323 321/322/322
f 321/322/322 325/326/326 326/325/325
f 319/320/320 326/325/325 325/326/326
f 325/326/326 320/319/319 319/320/320
f 328/327/327 324/321/321 323/324/324
f 323/324/324 327/328/328 328/327/327
f 332/329/329 329/330/330 330/331/331
f 330/331/331 331/332/332 332/329/329
f 334/333/333 316/313/313 315/316/316
f 315/316/316 333/334/334 334/333/333
f 336/335/335 332/329/329 331/332/332
f 331/332/332 335/336/336 336/335/335
f 338/337/337 334/333/333 333/334/334
f 333/334/334 337/338/338 338/337/337
f 335/336/336 338/337/337 337/338/338
f 337/338/338 336/335/335 335/336/336
f 236/237/237 307/308/308 310/307/307
f 310/307/307 237/238/238 236/237/237
f 232/231/231 321/322/322 324/321/321
f 324/321/321 228/229/229 232/231/231
f 328/327/327 229/230/230 228/229/229
f 228/229/229 324/321/321 328/327/327
f 307/308/308 236/237/237 240/239/239
f 240/239/239 311/312/312 307/308/308
f 325/326/326 234/233/233 247/248/248
f 247/248/248 320/319/319 325/326/326
f 310/307/307 318/317/317 241/242/242
f 241/242/242 237/238/238 310/307/307
f 321/322/322 232/231/231 234/233/233
f 234/233/233 325/326/326 321/322/322
f 318/317/317 320/319/319 247/248/248
f 247/248/248 241/242/242 318/317/317
f 315/316/316 252/249/249 258/257/257
f 258/257/257 333/334/334 315/316/316
f 336/335/335 253/254/254 245/246/246
f 245/246/246 332/329/329 336/335/335
f 252/249/249 315/316/316 314/315/315
f 314/315/315 249/250/250 252/249/249
f 244/245/245 329/330/330 332/329/329
f 332/329/329 245/246/246 244/245/245
f 333/334/334 258/257/257 255/256/256
f 255/256/256 337/338/338 333/334/334
f 336/335/335 337/338/338 255/256/256
f 255/256/256 253/254/254 336/335/335
f 280/280/280 275/276/276 308/309/309
f 308/309/309 312/311/311 280/280/280
f 309/310/310 308/309/309 275/276/276
f 275/276/276 278/275/275 309/310/310
f 317/318/318 309/310/310 278/275/275
f 278/275/275 282/281/281 317/318/318
f 290/290/290 285/286/286 322/323/323
f 322/323/323 326/325/325 290/290/290
f 323/324/324 322/323/323 285/286/286
f 285/286/286 288/285/285 323/324/324
f 327/328/328 323/324/324 288/285/285
f 288/285/285 292/291/291 327/328/328
f 300/300/300 299/299/299 313/314/314
f 313/314/314 316/313/313 300/300/300
f 331/332/332 330/331/331 293/294/294
f 293/294/294 296/293/293 331/332/332
f 284/283/283 290/290/290 326/325/325
f 326/325/325 319/320/320 284/283/283
f 282/281/281 284/283/283 319/320/320
f 319/320/320 317/318/318 282/281/281
f 304/304/304 300/300/300 316/313/313
f 316/313/313 334/333/333 304/304/304
f 306/306/306 304/304/304 334/333/333
f 334/333/333 338/337/337 306/306/306
f 335/336/336 331/332/332 296/293/293
f 296/293/293 302/301/301 335/336/336
f 338/337/337 335/336/336 302/301/301
f 302/301/301 306/306/306 338/337/337
f 340/339/120 339/340/339 155/156/156
f 155/156/156 156/155/155 340/339/120
f 157/157/157 341/341/340 340/339/120
f 340/339/120 156/155/155 157/157/157
f 140/139/139 342/342/341 341/341/340
f 341/341/340 157/157/157 140/139/139
f 342/342/341 140/139/139 139/140/140
f 139/140/140 343/343/342 342/342/341
f 139/140/140 164/164/164 344/344/343
f 344/344/343 343/343/342 139/140/140
f 164/164/164 186/186/186 345/345/344
f 345/345/344 344/344/343 164/164/164
f 186/186/186 250/251/251 346/346/240
f 346/346/240 345/345/344 186/186/186
f 249/250/250 347/347/345 346/346/240
f 346/346/240 250/251/251 249/250/250
f 314/315/315 348/348/312 347/347/345
f 347/347/345 249/250/250 314/315/315
f 313/314/314 349/349/311 348/348/312
f 348/348/312 314/315/315 313/314/314
f 299/299/299 350/350/346 349/349/311
f 349/349/311 313/314/314 299/299/299
f 297/297/297 351/351/347 350/350/346
f 350/350/346 299/299/299 297/297/297
f 272/272/272 352/352/348 351/351/347
f 351/351/347 297/297/297 272/272/272
f 104/105/105 353/353/349 352/352/348
f 352/352/348 272/272/272 104/105/105
f 353/353/349 104/105/105 105/104/104
f 105/104/104 354/354/350 353/353/349
f 106/106/106 355/355/351 354/354/350
f 354/354/350 105/104/104 106/106/106
f 218/219/219 356/356/352 355/355/351
f 355/355/351 106/106/106 218/219/219
f 217/218/218 357/357/203 356/356/352
f 356/356/352 218/219/219 217/218/218
f 96/97/97 358/358/353 357/357/203
f 357/357/203 217/218/218 96/97/97
f 97/96/96 359/359/354 358/358/353
f 358/358/353 96/97/97 97/96/96
f 100/100/100 360/360/355 359/359/354
f 359/359/354 97/96/96 100/100/100
f 102/102/102 361/361/356 360/360/355
f 360/360/355 100/100/100 102/102/102
f 361/361/356 102/102/102 190/190/190
f 190/190/190 362/362/3 361/361/356
f 192/192/192 363/363/357 362/362/3
f 362/362/3 190/190/190 192/192/192
f 191/191/191 364/364/358 363/363/357
f 363/363/357 192/192/192 191/191/191
f 103/103/103 365/365/44 364/364/358
f 364/364/358 191/191/191 103/103/103
f 103/103/103 101/101/101 366/366/40
f 366/366/40 365/365/44 103/103/103
f 101/101/101 99/99/99 367/367/359
f 367/367/359 366/366/40 101/101/101
f 99/99/99 98/98/98 368/368/360
f 368/368/360 367/367/359 99/99/99
f 98/98/98 212/213/213 369/369/202
f 369/369/202 368/368/360 98/98/98
f 211/212/212 370/370/201 369/369/202
f 369/369/202 212/213/213 211/212/212
f 211/212/212 109/109/109 371/371/361
f 371/371/361 370/370/201 211/212/212
f 109/109/109 108/108/108 372/372/362
f 372/372/362 371/371/361 109/109/109
f 372/372/362 108/108/108 107/107/107
f 107/107/107 373/373/56 372/372/362
f 273/273/273 374/374/363 373/373/56
f 373/373/56 107/107/107 273/273/273
f 294/295/295 375/375/364 374/374/363
f 374/374/363 273/273/273 294/295/295
f 293/294/294 376/376/365 375/375/364
f 375/375/364 294/295/295 293/294/294
f 330/331/331 377/377/366 376/376/365
f 376/376/365 293/294/294 330/331/331
f 329/330/330 378/378/367 377/377/366
f 377/377/366 330/331/331 329/330/330
f 329/330/330 244/245/245 379/379/368
f 379/379/368 378/378/367 329/330/330
f 243/244/244 380/380/369 379/379/368
f 379/379/368 244/245/245 243/244/244
f 182/182/182 381/381/370 380/380/369
f 380/380/369 243/244/244 182/182/182
f 158/158/158 382/382/371 381/381/370
f 381/381/370 182/182/182 158/158/158
f 128/127/127 383/383/372 382/382/371
f 382/382/371 158/158/158 128/127/127
f 383/383/372 128/127/127 127/128/128
f 127/128/128 384/384/373 383/383/372
f 384/384/373 127/128/128 155/156/156
f 155/156/156 339/340/339 384/384/373
