# Blender 5.1.0
# www.blender.org
mtllib Cardboard_Box.mtl
o Box.04
v 1.133226 -1.204367 -1.188708
v 1.121281 -1.192621 -1.176859
v 1.138149 -1.202731 1.103347
v 1.126299 -1.192190 1.179347
v -1.105757 -1.115584 -1.202350
v -1.094247 -1.104296 -1.190550
v -1.190658 -1.201649 1.090945
v -1.181238 -1.191502 1.165769
v 1.133226 1.141198 -1.188708
v 1.121289 1.129452 -1.176859
v 1.138165 1.139830 1.117642
v 1.126286 1.128724 1.163544
v -1.105757 1.052415 -1.202350
v -1.094247 1.041127 -1.190550
v -1.180733 1.128057 1.150526
v -1.191134 1.138740 1.105287
v -1.088133 -0.031585 -1.163219
v -1.099484 -0.031585 -1.174928
v -1.154401 -0.031585 1.099263
v -1.166126 -0.031585 1.098877
v 1.101496 -0.031587 -1.186006
v 1.113212 -0.031585 -1.197759
v 1.102096 -0.058147 1.090788
v 1.113828 -0.058145 1.090774
v 1.178962 -1.504065 0.137943
v 1.178985 -1.492827 0.134577
v -1.151155 -1.503244 0.125612
v -1.151133 -1.492007 0.122247
v 1.196955 1.706427 0.074499
v 1.196989 1.696064 0.069003
v -1.133162 1.705606 0.062168
v -1.133129 1.695243 0.056672
vn -0.9742 -0.0223 0.2245
vn -0.0571 -0.0451 0.9973
vn -0.0328 -0.0449 0.9985
vn 0.9873 0.0231 0.1571
vn 0.0432 0.0783 0.9960
vn 0.0012 0.0779 0.9970
vn -0.9915 0.0203 0.1282
vn -0.0730 0.0584 0.9956
vn -0.9923 0.0200 0.1222
vn 0.9679 -0.0255 0.2500
vn 0.0256 -0.0614 0.9978
vn 0.9693 -0.0252 0.2448
vn 0.0050 -0.2870 -0.9579
vn 0.0050 -0.2869 -0.9579
vn 0.8204 -0.5350 0.2017
vn 0.9992 0.0048 0.0407
vn 0.9992 0.0097 0.0392
vn -0.7173 -0.6729 0.1809
vn -0.9992 -0.0163 -0.0358
vn -0.7153 -0.6748 0.1816
vn 0.0045 0.4686 -0.8834
vn -0.6977 0.6450 0.3117
vn -0.9988 0.0261 -0.0413
vn -0.9988 0.0204 -0.0444
vn 0.7848 0.5250 0.3294
vn 0.9987 -0.0163 0.0474
vn 0.7834 0.5265 0.3301
vn -0.0198 -0.9996 -0.0186
vn -0.0197 -0.9996 -0.0187
vn -0.0003 -0.9993 -0.0375
vn 0.0202 0.9996 0.0181
vn 0.0192 0.9996 0.0191
vn 0.0398 0.9992 -0.0003
vn -0.9994 -0.0109 -0.0314
vn -0.9993 -0.0171 -0.0343
vn -0.9991 -0.0212 -0.0362
vn 0.9995 0.0108 0.0313
vn 0.9993 0.0171 0.0343
vn 0.9996 0.0064 0.0293
vn -0.0198 0.9996 -0.0185
vn -0.0196 0.9996 -0.0187
vn -0.0396 0.9992 0.0007
vn 0.0193 -0.9996 0.0190
vn 0.0202 -0.9996 0.0182
vn 0.0398 -0.9992 -0.0004
vn 0.9998 0.0183 -0.0007
vn 0.9998 0.0200 -0.0015
vn 0.9998 0.0212 -0.0022
vn -0.9998 -0.0183 0.0007
vn -0.9998 -0.0200 0.0015
vn -0.9999 -0.0170 0.0001
vn 0.0012 -0.0018 -1.0000
vn -0.0054 -0.0152 -0.9999
vn 0.0058 0.0076 -1.0000
vn -0.0012 0.0018 1.0000
vn 0.0054 0.0153 0.9999
vn 0.0104 0.0255 0.9996
vn -0.0054 0.0152 -0.9999
vn 0.0012 0.0018 -1.0000
vn 0.0058 -0.0076 -1.0000
vn -0.0012 -0.0018 1.0000
vn 0.0054 -0.0153 0.9999
vn -0.0059 0.0078 1.0000
vn 0.9998 -0.0180 -0.0010
vn 0.9998 -0.0193 -0.0016
vn 0.9999 -0.0171 -0.0005
vn -0.9998 0.0193 0.0017
vn -0.9998 0.0180 0.0010
vn -0.9999 0.0170 0.0005
vn -0.9994 0.0110 -0.0314
vn -0.9993 0.0171 -0.0343
vn -0.9995 0.0065 -0.0293
vn 0.9993 -0.0171 0.0343
vn 0.9995 -0.0108 0.0313
vn 0.9996 -0.0064 0.0293
vn -0.0019 -0.9580 0.2869
vn -0.0019 -0.9579 0.2870
vn -0.0019 -0.9580 0.2868
vn 0.0019 0.9579 -0.2870
vn 0.0019 0.9580 -0.2869
vn 0.0019 0.9580 -0.2868
vn -0.0029 0.8834 0.4686
vn -0.0028 0.8834 0.4685
vn -0.0028 0.8835 0.4685
vn 0.0029 -0.8834 -0.4686
vn 0.0028 -0.8834 -0.4685
vn 0.0029 -0.8834 -0.4687
vn -0.9755 -0.0220 0.2191
vn 0.9883 0.0227 0.1510
vn -0.0328 0.0580 0.9978
vn 0.0012 -0.0612 0.9981
vn 0.8191 -0.5368 0.2022
vn -0.9992 -0.0094 -0.0380
vn -0.6959 0.6465 0.3127
vn 0.9988 -0.0207 0.0451
vn -0.0396 -0.9992 0.0008
vn 0.0001 0.9993 0.0370
vn -0.9995 -0.0065 -0.0293
vn 0.9991 0.0211 0.0361
vn -0.0003 0.9993 -0.0374
vn 0.0001 -0.9993 0.0371
vn 0.9999 0.0171 -0.0001
vn -0.9998 -0.0212 0.0021
vn -0.0103 -0.0253 -0.9996
vn -0.0059 -0.0078 1.0000
vn -0.0103 0.0253 -0.9996
vn 0.0104 -0.0255 0.9996
vn 0.9998 -0.0203 -0.0022
vn -0.9998 0.0202 0.0021
vn -0.9991 0.0212 -0.0362
vn 0.9991 -0.0210 0.0361
vn -0.0020 -0.9579 0.2870
vn 0.0020 0.9579 -0.2870
vn 0.0028 -0.8835 -0.4685
vt 0.510051 0.331767
vt 0.503837 0.185239
vt 0.504031 0.185235
vt 0.000000 0.038767
vt 0.008706 0.182148
vt 0.008514 0.182144
vt 0.510051 0.038593
vt 0.501832 0.037373
vt 0.000415 0.332113
vt 0.005544 0.333548
vt 0.255082 0.405814
vt 0.253878 0.700318
vt 0.253877 0.405812
vt 0.008381 0.037484
vt 0.113153 0.000000
vt 0.113509 0.001422
vt 0.397776 0.000000
vt 0.251259 0.405814
vt 0.252415 0.700318
vt 0.251259 0.700320
vt 0.505033 0.333157
vt 0.393422 0.405601
vt 0.392821 0.404295
vt 0.118497 0.405812
vt 0.255082 0.987895
vt 0.504996 0.702733
vt 0.504996 0.997075
vt 0.243300 0.405812
vt 0.000000 0.703875
vt 0.002059 0.406418
vt 0.256616 0.324030
vt 0.752642 0.407372
vt 0.634266 0.693792
vt 0.635826 0.409787
vt 0.508179 0.710902
vt 0.758766 0.996056
vt 0.507920 0.993892
vt 0.761253 0.295469
vt 0.518033 0.000374
vt 0.759275 0.000000
vt 0.255082 0.038678
vt 0.507920 0.406986
vt 0.384433 0.691315
vt 0.381497 0.405601
vt 0.002181 0.851884
vt 0.243792 0.988729
vt 0.000000 1.000000
vt 0.997847 0.848395
vt 0.758766 0.983974
vt 0.759426 0.848394
vt 0.243792 0.715022
vt 0.758767 0.712814
vt 1.000000 0.701652
vt 0.253783 0.335130
vt 0.255082 0.186904
vt 0.255082 0.407109
vt 0.255082 0.050023
vt 0.258895 0.187003
vt 0.519044 0.405601
vt 0.989894 0.005881
vt 0.878349 0.294508
vt 0.878200 0.000000
vt 0.881959 0.406249
vt 0.985846 0.696250
vt 0.881949 0.700757
vt 0.760578 0.407144
vt 0.881949 0.693496
vt 0.760489 0.701652
vt 0.761255 0.294508
vt 0.878200 0.006734
vt 0.878200 0.301138
vt 0.255082 0.700319
vt 0.397420 0.001423
vt 0.252415 0.405812
vt 0.119095 0.404506
vt 0.255720 0.704905
vt 0.251259 0.703875
vt 0.760489 0.701652
vt 0.758766 0.701652
vt 0.510051 0.295470
vt 0.507920 0.702733
vt 0.243105 0.852039
vt 1.000000 0.995139
vt 0.255208 0.700873
vt 0.507920 0.701652
vt 0.989894 0.297536
vt 0.985846 0.401908
vt 0.881949 0.401908
vt 0.761253 0.000000
s 1
usemtl Box_4
f 15/1/1 20/2/2 19/3/3
f 4/4/4 24/5/5 23/6/6
f 8/7/7 20/2/8 7/8/9
f 12/9/10 24/5/11 11/10/12
f 25/11/13 28/12/14 26/13/13
f 3/14/15 25/15/16 26/16/17
f 7/8/18 27/17/19 8/7/20
f 29/18/21 32/19/21 31/20/21
f 16/21/22 31/22/23 32/23/24
f 11/10/25 29/24/26 12/9/27
f 5/25/28 3/26/29 7/27/30
f 6/28/31 4/29/32 2/30/33
f 13/31/34 20/2/35 16/21/36
f 14/32/37 19/33/38 17/34/39
f 13/35/40 11/36/41 9/37/42
f 12/38/43 14/39/44 10/40/45
f 1/41/46 24/5/47 3/14/48
f 2/42/49 23/43/50 21/44/51
f 22/45/52 13/46/53 9/47/54
f 21/48/55 14/49/56 17/50/57
f 5/51/58 22/45/59 1/29/60
f 21/48/61 6/52/62 2/53/63
f 9/54/64 24/5/65 22/55/66
f 23/43/67 10/56/68 21/44/69
f 5/57/70 20/2/71 18/58/72
f 19/33/73 6/59/74 17/34/75
f 4/60/76 27/61/77 25/62/78
f 28/63/79 3/64/80 26/65/81
f 31/66/82 12/67/83 29/68/84
f 32/69/85 11/70/86 16/71/87
f 15/1/1 16/21/88 20/2/2
f 4/4/4 3/14/89 24/5/5
f 8/7/7 19/3/90 20/2/8
f 12/9/10 23/6/91 24/5/11
f 25/11/13 27/72/14 28/12/14
f 3/14/15 4/4/92 25/15/16
f 7/8/18 28/73/93 27/17/19
f 29/18/21 30/74/21 32/19/21
f 16/21/22 15/1/94 31/22/23
f 11/10/25 30/75/95 29/24/26
f 5/25/28 1/76/96 3/26/29
f 6/28/31 8/77/97 4/29/32
f 13/31/34 18/58/98 20/2/35
f 14/32/37 15/78/99 19/33/38
f 13/35/40 16/79/100 11/36/41
f 12/38/43 15/80/101 14/39/44
f 1/41/46 22/55/102 24/5/47
f 2/42/49 4/81/103 23/43/50
f 22/45/52 18/82/104 13/46/53
f 21/48/55 10/83/105 14/49/56
f 5/51/58 18/82/106 22/45/59
f 21/48/61 17/50/107 6/52/62
f 9/54/64 11/10/108 24/5/65
f 23/43/67 12/84/109 10/56/68
f 5/57/70 7/8/110 20/2/71
f 19/33/73 8/85/111 6/59/74
f 4/60/76 8/86/112 27/61/77
f 28/63/79 7/87/113 3/64/80
f 31/66/82 15/88/82 12/67/83
f 32/69/85 30/89/114 11/70/86
