# Blender 5.1.0
# www.blender.org
mtllib SeaShell.mtl
o Cylinder009
v 1.355922 4.737245 -5.033417
v 1.545763 4.814717 -5.309922
v 1.192367 4.460004 -5.126011
v 1.445892 4.636895 -5.371634
v 0.868569 3.799426 -4.955260
v 1.106429 4.068838 -5.195248
v 1.376098 4.355542 -5.403321
v 1.112966 3.369018 -5.022347
v 1.251018 3.639379 -5.244581
v 1.426844 4.000056 -5.400015
v 1.559128 3.079740 -4.947576
v 1.597284 3.315860 -5.204617
v 1.644939 3.728843 -5.326448
v 2.040239 3.031442 -4.644651
v 2.022510 3.328705 -4.931061
v 1.954338 3.711996 -5.107625
v 2.400964 3.171145 -4.132516
v 2.371605 3.553239 -4.555040
v 2.242609 3.831503 -4.790255
v 2.175120 3.933490 -3.129143
v 2.196808 4.351937 -3.547519
v 2.133367 4.467216 -4.004416
v 2.049210 4.476458 -4.283011
v 1.764225 4.607704 -3.395936
v 1.778639 4.681781 -3.877538
v 1.789606 4.707994 -4.553233
v 1.045919 4.644298 -3.387320
v 1.184434 4.720188 -3.833399
v 1.453143 4.751487 -4.543651
v 0.415151 4.296977 -3.592928
v 0.641634 4.442405 -4.016726
v 1.117681 4.608182 -4.649714
v 0.159818 3.615944 -3.954566
v 0.441162 3.881693 -4.333664
v 0.933869 4.247735 -4.809499
v 0.110767 2.866280 -4.327013
v 0.416783 3.271683 -4.678524
v 0.612380 2.173900 -4.501927
v 0.846359 2.692228 -4.815870
v 1.441723 1.764211 -4.371090
v 1.536779 2.346895 -4.686230
v 2.291841 1.764345 -3.898168
v 2.239425 2.348829 -4.281417
v 2.854875 2.179705 -3.155046
v 2.710478 2.671283 -3.643598
v 2.119192 3.630470 -1.527959
v 2.057487 3.895216 -2.298376
v 1.757988 4.199900 -3.034443
v 1.380144 3.870541 -1.282370
v 1.420238 4.073812 -2.100527
v 1.105967 4.267171 -3.010710
v 0.255005 2.088486 -0.635127
v 0.270543 3.703035 -1.291257
v 0.527605 3.924168 -2.134314
v 0.524332 3.985498 -3.127891
v 0.034950 1.642171 -0.701817
v -0.444920 2.259846 -1.030868
v -0.529285 2.940179 -1.701091
v -0.134065 3.242709 -2.431501
v 0.188891 3.345978 -3.387929
v -0.054916 0.938489 -0.640504
v -0.906273 1.375420 -1.337258
v -1.109037 2.020859 -2.200550
v -0.574543 2.522154 -2.869257
v 0.041423 2.641007 -3.668020
v -0.015539 0.365387 -0.621638
v -0.718433 0.391622 -1.614540
v -0.868352 0.903772 -2.667846
v -0.350813 1.620428 -3.255274
v 0.420823 1.951941 -3.833526
v 0.267064 -0.110458 -0.460277
v 0.000461 -0.423549 -1.661728
v 0.036328 -0.028675 -2.844164
v 0.397472 0.870262 -3.391610
v 1.129742 1.494388 -3.751335
v 0.649445 -0.396756 -0.148045
v 0.984150 -0.842703 -1.337046
v 1.281294 -0.472161 -2.567536
v 1.414279 0.522944 -3.158901
v 1.911703 1.398397 -3.361089
v 1.028220 -0.475844 0.316456
v 1.892632 -0.758807 -0.622015
v 2.449673 -0.284481 -1.810508
v 2.359252 0.687696 -2.537804
v 2.485075 1.646631 -2.681438
v 0.866615 -0.257689 1.617914
v 2.139667 0.670120 1.542229
v 2.806988 1.685155 0.605788
v 2.586731 2.302950 -0.568727
v 2.043967 2.898517 -1.109023
v 0.584751 -0.236217 2.000899
v 1.527111 1.100445 2.099233
v 2.047893 2.297311 1.203000
v 1.909178 2.821285 -0.069861
v 1.401080 3.176516 -0.731441
v 0.132472 -0.365857 2.298232
v 0.367691 1.313201 2.489005
v 0.677272 2.653718 1.555355
v 0.886244 3.096865 0.208228
v -0.236018 -0.560821 2.510216
v -0.739407 1.105675 2.506924
v -0.674658 2.500359 1.502672
v -0.230799 2.947446 0.169614
v 0.185031 2.925360 -0.619885
v 2.615144 3.278352 -1.833749
v 2.481966 3.626688 -2.553918
v 2.430001 0.217407 0.995618
v 3.153605 1.085538 0.002930
v 2.908180 1.812990 -1.056087
v 2.420606 2.490736 -1.391718
v 1.586998 4.843087 -4.958728
v 1.679656 4.880163 -5.236430
v 1.807276 4.807606 -4.976119
v 1.821347 4.843623 -5.242378
v 1.915442 4.728828 -5.083124
v 1.886365 4.793036 -5.346370
v 1.887756 4.600277 -5.482004
v 1.859095 4.682898 -5.564121
v 1.833641 4.749532 -5.585009
v 2.074316 4.129599 -5.023868
v 1.817380 4.526718 -5.576157
v 1.877389 4.085093 -5.285717
v 1.754632 4.572032 -5.596495
v 1.689879 4.098759 -5.408689
v 1.697078 4.633008 -5.597969
v 1.549264 4.264257 -5.464081
v 1.625126 4.726466 -5.598583
v 1.512740 4.512185 -5.473392
v 1.598233 4.842363 -5.535286
v 1.539461 4.705294 -5.442452
v 1.604499 4.828845 -5.395768
v 1.751575 4.848377 -5.590265
v 1.706967 4.874842 -5.335998
v 1.781487 4.813872 -5.592800
v 1.813092 4.844752 -5.333663
v -0.253819 -0.169905 2.348080
v -0.649797 1.099717 2.328025
v -0.672063 2.318356 1.447780
v -0.183261 2.716904 0.275986
v 0.145007 -0.005675 2.243283
v -0.098783 1.269946 2.460982
v -0.041872 2.426503 1.632572
v 0.342990 2.837472 0.493154
v 0.719802 2.689866 -0.159450
v 0.274730 2.572263 -0.277760
v 0.549022 1.424828 2.340549
v 0.627566 2.498268 1.589067
v 0.972018 2.903975 0.546559
v 1.301859 2.840491 -0.103365
v -0.072152 -0.047630 0.347039
v 0.070990 -0.653516 0.576895
v 0.364087 -0.691833 0.631844
v 0.669969 -0.554758 0.723499
v 0.888910 -0.410069 1.016690
v 0.646677 1.603625 -0.515823
v 0.198362 0.892856 -0.395069
v 0.166581 0.178613 0.325471
v 0.376701 1.157640 -0.457290
v 0.528828 0.218323 0.411239
v 0.767795 0.117139 0.758099
v 1.131082 1.878627 -0.523142
v 1.118332 0.059096 1.030525
v 0.988858 -0.368159 1.287681
v 1.649095 2.202497 -0.533436
v 1.656130 0.336363 0.943801
v 1.018020 0.014460 1.505280
v 0.733281 0.145174 1.948206
v 1.237007 1.384538 1.877304
v 1.321155 2.260470 1.243861
v 1.602530 2.609215 0.434012
v 1.893845 2.667107 -0.041990
v 2.210904 2.193757 -0.392539
v 1.525729 0.248422 1.348985
v 1.331883 0.404337 1.674773
v 1.954750 1.823489 1.023614
v 2.148647 2.147496 0.390130
v 2.319240 2.249379 0.020622
v 2.494056 2.004274 -0.183212
v 2.255386 1.205539 0.886121
v 2.184327 0.571033 0.914858
v 2.168250 0.918158 1.298742
v 2.038845 0.512274 1.370257
v 1.842690 1.237825 1.569804
v 1.760209 0.674660 1.665268
v -0.000000 -0.000001 0.000000
v -0.016309 0.426260 -0.100943
v 0.203118 -0.391590 0.176545
v 0.504131 -0.574449 0.370754
v 0.788697 -0.556999 0.629367
v 0.163133 0.600447 -0.053962
v 0.474634 0.705208 -0.028959
v 0.743996 0.770561 0.096148
v 1.181336 0.922264 0.172463
v 1.697336 1.185963 0.152720
v 2.213243 1.323636 0.201100
v 2.346893 1.680754 0.271371
v -0.089192 -0.364504 0.428255
v 0.667975 3.538860 -4.786843
v 0.993984 3.054200 -4.883109
v 1.538176 2.755525 -4.776269
v 2.111689 2.710394 -4.431292
v 2.535146 2.892728 -3.840104
v 2.306902 3.744677 -2.849028
v 1.972630 4.575154 -4.648183
v 1.778337 4.638485 -4.173870
v 1.322051 4.679690 -4.159660
v 0.895413 4.488051 -4.309289
v 0.708072 4.045184 -4.540457
v 1.893230 3.982615 -2.666787
v 1.270959 4.085352 -2.548675
v 0.561076 3.882493 -2.632393
v 0.070029 3.246860 -2.889882
v -0.201386 2.565732 -3.222969
v 0.082292 1.802665 -3.476632
v 0.774146 1.221710 -3.496498
v 1.629067 1.004749 -3.194435
v 2.354388 1.209066 -2.573602
v 2.267270 2.549587 -0.857308
v 1.733976 2.942981 -0.441471
v 2.586736 2.147684 -1.248074
v 1.878134 4.802809 -5.515874
v 1.966678 4.406952 -5.298065
v 1.855871 4.386176 -5.492055
v 1.743035 4.406469 -5.556690
v 1.651944 4.511839 -5.580986
v 1.622114 4.668550 -5.590667
v 1.599644 4.792253 -5.488145
v 1.650641 4.870971 -5.499442
v 1.738736 4.884272 -5.487401
v 1.799057 4.863719 -5.496165
v 1.021756 3.124235 -0.214043
v 0.085871 3.049042 -0.206910
v 2.421932 3.572006 -3.401453
v 2.430710 3.985046 -3.883669
v 2.319952 4.165651 -4.253859
v 2.175126 4.282029 -4.520514
v 2.629051 2.071322 -1.806978
v 2.909636 2.823804 -2.282630
v 2.741654 3.261209 -2.924106
v 2.561905 3.389615 -3.151994
v 2.466590 -0.242728 0.353870
v 3.144921 0.455522 -0.713434
v 2.914320 1.303048 -1.632113
v 2.692971 1.714224 -1.727575
v 2.048360 4.444281 -4.856467
v 1.941615 4.656227 -5.241123
v 1.903862 4.741446 -5.437525
v 1.714497 4.896477 -5.539770
v 1.386942 -0.389669 0.870150
v 1.077943 -0.441394 0.995582
v 1.276747 -0.288794 1.242887
v 1.158064 -0.060345 1.639514
v 0.825812 0.087708 2.059192
v 0.192439 0.061724 2.423076
v -0.387290 -0.219472 2.554051
vn -0.5901 0.8018 -0.0944
vn -0.8179 0.3945 -0.4188
vn -0.8444 0.3841 -0.3734
vn -0.6220 0.7452 -0.2404
vn -0.7748 0.3761 -0.5081
vn -0.6373 0.7348 -0.2320
vn -0.8186 0.3737 -0.4362
vn -0.7402 0.0616 -0.6696
vn -0.7658 0.0330 -0.6423
vn -0.6324 0.0514 -0.7729
vn -0.6732 0.0184 -0.7393
vn -0.4399 -0.3031 -0.8453
vn -0.4354 -0.3893 -0.8117
vn -0.2753 -0.2370 -0.9317
vn -0.2890 -0.2758 -0.9168
vn 0.1180 -0.5506 -0.8264
vn 0.1258 -0.6216 -0.7731
vn 0.2470 -0.3457 -0.9052
vn 0.2307 -0.4082 -0.8833
vn 0.6276 -0.4385 -0.6434
vn 0.6330 -0.4637 -0.6199
vn 0.6759 -0.2469 -0.6944
vn 0.6861 -0.3142 -0.6562
vn 0.9290 -0.1352 -0.3445
vn 0.9504 -0.1202 -0.2869
vn 0.8937 0.0392 -0.4469
vn 0.8992 -0.0211 -0.4370
vn 0.9696 0.2416 0.0387
vn 0.9355 0.3497 0.0503
vn 0.9015 0.4078 -0.1450
vn 0.9066 0.3974 -0.1421
vn 0.7566 0.5601 0.3373
vn 0.3830 0.7366 0.5574
vn 0.7371 0.5847 0.3389
vn 0.3122 0.9480 0.0622
vn 0.2667 0.8277 0.4938
vn 0.6741 0.7386 0.0030
vn 0.3612 0.9272 0.0995
vn -0.1625 0.8150 0.5563
vn -0.1855 0.9826 0.0130
vn -0.2429 0.8849 0.3974
vn -0.1728 0.9848 0.0156
vn -0.7235 0.6103 0.3224
vn -0.6556 0.7250 -0.2111
vn -0.7863 0.5979 0.1555
vn -0.6290 0.7439 -0.2258
vn -0.9494 0.3000 -0.0931
vn -0.9332 0.3591 0.0152
vn -0.8090 0.3962 -0.4341
vn -0.7967 0.3988 -0.4542
vn -0.9486 -0.0424 -0.3135
vn -0.6900 0.0741 -0.7200
vn -0.8731 -0.0914 -0.4788
vn -0.6607 0.0832 -0.7461
vn -0.6326 -0.5298 -0.5649
vn -0.2702 -0.2938 -0.9169
vn -0.4801 -0.5327 -0.6970
vn -0.2444 -0.2682 -0.9318
vn -0.1131 -0.7744 -0.6225
vn 0.2295 -0.4022 -0.8863
vn 0.0694 -0.7061 -0.7047
vn 0.2491 -0.3882 -0.8873
vn 0.4370 -0.7593 -0.4822
vn 0.6751 -0.2679 -0.6874
vn 0.5974 -0.6161 -0.5134
vn 0.6838 -0.2358 -0.6905
vn 0.8909 -0.4116 -0.1923
vn 0.9181 0.0590 -0.3920
vn 0.9396 -0.2965 -0.1711
vn 0.9118 0.1254 -0.3909
vn 0.9871 0.0689 0.1448
vn 0.9877 0.0644 0.1425
vn 0.8966 0.4259 -0.1212
vn 0.8545 0.4786 -0.2017
vn 0.5429 0.6512 0.5303
vn 0.0492 0.9774 0.2054
vn 0.0701 0.8716 0.4852
vn 0.4116 0.8664 0.2829
vn 0.4379 0.8846 0.1604
vn 0.1638 0.9864 0.0162
vn -0.8038 0.3981 0.4421
vn -0.4541 0.8849 -0.1033
vn -0.4921 0.8685 0.0592
vn -0.4591 0.7886 0.4089
vn -0.1108 0.9773 0.1807
vn -0.6872 0.0796 0.7221
vn -0.7144 0.2239 0.6629
vn -0.4770 0.1961 0.8568
vn -0.8137 0.5529 0.1795
vn -0.7469 0.6425 -0.1713
vn -0.6104 0.7916 0.0296
vn -0.8756 -0.0156 0.4828
vn -0.7855 0.1875 0.5898
vn -0.9736 0.2098 -0.0893
vn -0.8049 0.3336 -0.4909
vn -0.8148 0.5226 -0.2509
vn -0.8810 -0.4334 0.1898
vn -0.9585 -0.2555 0.1261
vn -0.8385 -0.3135 -0.4458
vn -0.5971 -0.1274 -0.7920
vn -0.7604 0.1811 -0.6237
vn -0.6147 -0.7885 -0.0212
vn -0.7191 -0.6823 -0.1317
vn -0.4083 -0.6710 -0.6189
vn -0.1660 -0.3986 -0.9020
vn -0.4646 -0.2384 -0.8528
vn -0.1759 -0.9820 -0.0690
vn -0.2829 -0.9404 -0.1889
vn 0.1574 -0.7962 -0.5842
vn 0.3471 -0.4473 -0.8242
vn 0.0096 -0.4372 -0.8993
vn 0.2805 -0.9589 0.0427
vn 0.1215 -0.9908 -0.0594
vn 0.6672 -0.6531 -0.3581
vn 0.7675 -0.2520 -0.5894
vn 0.5085 -0.3995 -0.7628
vn 0.9445 -0.3225 -0.0615
vn 0.6105 -0.7510 0.2515
vn 0.9418 0.0423 -0.3334
vn 0.8502 -0.2055 -0.4846
vn -0.4595 -0.8878 -0.0259
vn 0.5845 -0.4029 0.7042
vn -0.0645 -0.9505 -0.3039
vn 0.6874 -0.1910 0.7007
vn 0.5686 0.6009 0.5618
vn 0.5335 0.0412 0.8448
vn 0.8463 0.3377 0.4120
vn 0.5404 0.8088 0.2320
vn 0.7244 0.6805 0.1098
vn 0.7221 0.6886 0.0666
vn 0.4346 -0.1308 0.8911
vn 0.3228 -0.9284 -0.1840
vn 0.1186 0.7844 0.6087
vn 0.1961 0.2777 0.9404
vn 0.1288 0.9601 0.2482
vn 0.4436 0.8852 0.1403
vn -0.7366 -0.3869 0.5547
vn -0.5252 -0.6823 -0.5085
vn -0.7825 0.5566 0.2791
vn -0.8428 0.0082 0.5382
vn -0.8069 0.5266 -0.2678
vn 0.8269 0.3876 0.4074
vn 0.7440 0.4612 0.4834
vn 0.8814 0.2976 0.3668
vn 0.7523 0.6502 0.1057
vn 0.7126 0.7000 0.0461
vn 0.4938 -0.5824 0.6457
vn -0.7429 -0.5888 0.3185
vn 0.3969 -0.8266 0.3990
vn 0.7225 -0.4619 0.5144
vn 0.9736 0.0421 0.2242
vn 0.8971 0.4275 -0.1115
vn 0.8702 0.4913 0.0357
vn -0.0824 0.9828 0.1654
vn -0.1641 0.9844 0.0633
vn -0.0957 0.9939 0.0555
vn -0.0518 0.9953 0.0822
vn -0.6187 0.7798 -0.0951
vn 0.3742 0.8909 0.2576
vn 0.4053 0.8913 0.2031
vn 0.4805 0.8711 0.1013
vn 0.4132 0.9060 0.0913
vn 0.7620 0.6369 0.1171
vn 0.7862 0.6126 0.0810
vn 0.7915 0.6089 0.0525
vn 0.9446 0.3229 -0.0585
vn 0.9519 0.3009 -0.0578
vn 0.9769 0.1565 -0.1455
vn 0.7865 0.4603 -0.4118
vn 0.7536 -0.0986 -0.6499
vn 0.3845 -0.0044 -0.9231
vn 0.6449 -0.3404 -0.6843
vn 0.9170 -0.0849 -0.3898
vn 0.9511 -0.0101 -0.3088
vn 0.0895 -0.3848 -0.9186
vn 0.4910 -0.1535 -0.8575
vn -0.3268 -0.2333 -0.9158
vn 0.0360 -0.0630 -0.9974
vn -0.5191 0.1392 -0.8433
vn -0.0586 -0.0664 -0.9961
vn -0.9285 0.3573 -0.1013
vn -0.5766 -0.0850 -0.8126
vn -0.4795 0.8760 0.0519
vn -0.9131 0.3625 -0.1868
vn 0.2455 0.9689 0.0318
vn 0.1187 0.9902 -0.0731
vn 0.5204 0.8413 -0.1465
vn 0.3829 0.6261 -0.6793
vn 0.2772 0.3576 -0.8918
vn -0.4562 -0.2427 -0.8561
vn -0.5955 -0.6232 -0.5069
vn -0.3736 -0.4207 -0.8267
vn -0.4415 -0.8632 -0.2449
vn -0.4072 -0.0401 -0.9125
vn 0.0218 -0.1913 -0.9813
vn 0.1564 -0.8023 -0.5760
vn -0.8468 -0.5039 0.1704
vn 0.1837 -0.9829 0.0157
vn -0.4166 -0.2306 -0.8794
vn -0.6462 0.2115 -0.7333
vn -0.1754 -0.7362 -0.6536
vn 0.0862 -0.7763 0.6244
vn -0.0644 -0.9781 -0.1980
vn -0.0838 0.1611 0.9834
vn -0.2104 -0.8927 0.3985
vn -0.1491 0.1714 0.9738
vn -0.8861 0.3567 0.2960
vn -0.8949 -0.3332 -0.2969
vn -0.4443 -0.7359 -0.5110
vn 0.0459 -0.9529 -0.2998
vn -0.3680 0.1514 0.9174
vn -0.5025 0.4335 0.7480
vn -0.5284 0.5703 0.6289
vn -0.3462 0.6562 0.6705
vn -0.4383 0.5897 0.6783
vn -0.3106 0.6375 0.7050
vn -0.2589 0.6314 0.7309
vn -0.7673 0.5102 -0.3886
vn -0.6416 0.6674 0.3781
vn -0.5034 -0.2453 -0.8285
vn -0.4257 0.3780 -0.8221
vn -0.5078 -0.6081 -0.6102
vn -0.4275 -0.7878 -0.4434
vn -0.3952 -0.9175 0.0443
vn -0.4634 -0.1746 0.8688
vn -0.4968 0.8268 -0.2638
vn -0.3804 0.8351 0.3974
vn -0.5280 0.2887 -0.7986
vn -0.6488 -0.2812 -0.7071
vn -0.7059 -0.4617 -0.5371
vn -0.7177 -0.4898 -0.4950
vn -0.7166 -0.6844 -0.1343
vn -0.6517 0.5716 0.4987
vn -0.7952 -0.1758 0.5803
vn -0.7487 0.5900 -0.3023
vn -0.6972 0.6429 0.3170
vn -0.8453 -0.0641 -0.5305
vn -0.9758 -0.0566 -0.2111
vn -0.7002 0.3530 0.6206
vn -0.8022 -0.5914 -0.0820
vn -0.2675 -0.9107 0.3148
vn -0.4221 -0.7151 0.5571
vn 0.1953 -0.9782 0.0709
vn -0.3498 0.5561 0.7539
vn -0.5037 0.6137 0.6080
vn -0.4914 0.4571 0.7413
vn -0.6065 0.4470 0.6575
vn -0.9983 -0.0465 -0.0361
vn -0.5330 -0.5755 0.6202
vn 0.3421 -0.9368 -0.0739
vn 0.6422 0.7665 -0.0063
vn 0.9104 0.2449 -0.3334
vn 0.1475 -0.9658 0.2132
vn 0.3226 -0.9380 0.1266
vn 0.2725 0.8401 0.4690
vt 0.741436 0.972545
vt 0.759651 0.947460
vt 0.766817 0.974967
vt 0.740683 0.943703
vt 0.753456 0.923510
vt 0.740649 0.922390
vt 0.750231 0.915415
vt 0.782511 0.952492
vt 0.793894 0.976697
vt 0.770699 0.926912
vt 0.763281 0.914550
vt 0.808260 0.951528
vt 0.821295 0.970838
vt 0.792154 0.929614
vt 0.780330 0.914655
vt 0.833159 0.944913
vt 0.849550 0.958439
vt 0.813541 0.926821
vt 0.796447 0.910034
vt 0.854405 0.928182
vt 0.877020 0.940305
vt 0.832235 0.912812
vt 0.810065 0.898452
vt 0.874052 0.904494
vt 0.906144 0.918532
vt 0.852423 0.894214
vt 0.829093 0.883267
vt 0.902838 0.869377
vt 0.939305 0.884058
vt 0.876350 0.863467
vt 0.856204 0.858491
vt 0.915512 0.842864
vt 0.954306 0.828106
vt 0.948999 0.857044
vt 0.893251 0.813838
vt 0.923029 0.816958
vt 0.886152 0.839082
vt 0.874785 0.812558
vt 0.964413 0.788799
vt 0.904243 0.779723
vt 0.933163 0.780062
vt 0.882392 0.780260
vt 0.975002 0.748247
vt 0.911073 0.742466
vt 0.941526 0.740967
vt 0.887276 0.745360
vt 0.946303 0.696546
vt 0.985081 0.700768
vt 0.912101 0.702302
vt 0.888922 0.707976
vt 0.991217 0.651426
vt 0.912616 0.660537
vt 0.948995 0.650064
vt 0.890495 0.668952
vt 0.990483 0.597767
vt 0.909523 0.617135
vt 0.946577 0.602137
vt 0.887533 0.628253
vt 0.981108 0.540870
vt 0.901319 0.571547
vt 0.937313 0.551218
vt 0.879543 0.586128
vt 0.963059 0.482738
vt 0.886872 0.525861
vt 0.920922 0.499339
vt 0.867575 0.542864
vt 0.937172 0.423314
vt 0.865923 0.479873
vt 0.895319 0.447475
vt 0.852154 0.496552
vt 0.860634 0.395173
vt 0.905469 0.361245
vt 0.833644 0.435605
vt 0.822360 0.451820
vt 0.798412 0.345935
vt 0.748536 0.374838
vt 0.757061 0.322915
vt 0.768773 0.415603
vt 0.782879 0.394268
vt 0.083057 0.321331
vt 0.028077 0.335753
vt 0.027004 0.306942
vt 0.699559 0.360169
vt 0.697869 0.302007
vt 0.732829 0.399664
vt 0.622837 0.199099
vt 0.616304 0.244960
vt 0.588147 0.198752
vt 0.682511 0.234650
vt 0.636211 0.302088
vt 0.644107 0.357809
vt 0.688368 0.390105
vt 0.556115 0.249658
vt 0.534926 0.182795
vt 0.578034 0.308699
vt 0.591632 0.363715
vt 0.636443 0.388855
vt 0.501699 0.248702
vt 0.486221 0.179364
vt 0.522227 0.314236
vt 0.535990 0.373595
vt 0.585199 0.393561
vt 0.447846 0.244348
vt 0.441154 0.168916
vt 0.464243 0.316378
vt 0.475915 0.379899
vt 0.528943 0.402584
vt 0.394826 0.235290
vt 0.399066 0.155803
vt 0.405005 0.313312
vt 0.413299 0.380697
vt 0.467578 0.408506
vt 0.341367 0.219842
vt 0.356691 0.141179
vt 0.342705 0.303950
vt 0.347729 0.375467
vt 0.403135 0.408585
vt 0.275141 0.286139
vt 0.282892 0.198650
vt 0.277844 0.362643
vt 0.335770 0.402244
vt 0.257086 0.079150
vt 0.211294 0.080888
vt 0.221275 0.058052
vt 0.218409 0.167681
vt 0.153509 0.238083
vt 0.176137 0.146546
vt 0.203279 0.260041
vt 0.137686 0.318732
vt 0.176297 0.364002
vt 0.192910 0.340535
vt 0.172595 0.049944
vt 0.191723 0.029480
vt 0.083295 0.204093
vt 0.119306 0.108299
vt 0.076472 0.292327
vt 0.128394 0.341774
vt 0.154093 0.013633
vt 0.176072 0.003788
vt 0.013348 0.168805
vt 0.073532 0.061767
vt 0.010756 0.272749
vt 0.830963 0.368062
vt 0.827463 0.303584
vt 0.869862 0.327919
vt 0.809267 0.412867
vt 0.796271 0.431043
vt 0.249418 0.099327
vt 0.291743 0.093721
vt 0.287576 0.111778
vt 0.250644 0.182597
vt 0.238751 0.273931
vt 0.235522 0.352624
vt 0.220157 0.377026
vt 0.719438 0.966110
vt 0.725944 0.939652
vt 0.730721 0.922336
vt 0.732638 0.916458
vt 0.740724 0.915669
vt 0.701432 0.955336
vt 0.715153 0.932607
vt 0.723225 0.918427
vt 0.726366 0.913988
vt 0.691002 0.943822
vt 0.710977 0.923675
vt 0.721802 0.911156
vt 0.687721 0.927804
vt 0.711126 0.913232
vt 0.721664 0.905343
vt 0.727326 0.903068
vt 0.723567 0.897275
vt 0.728285 0.898136
vt 0.706637 0.889914
vt 0.716421 0.898778
vt 0.699761 0.902443
vt 0.712240 0.883425
vt 0.716829 0.890608
vt 0.721134 0.881626
vt 0.721102 0.888711
vt 0.730459 0.885034
vt 0.726276 0.887750
vt 0.749132 0.908813
vt 0.750905 0.897034
vt 0.756821 0.901085
vt 0.741464 0.907748
vt 0.747895 0.903147
vt 0.735378 0.907594
vt 0.741167 0.904072
vt 0.732192 0.905894
vt 0.736325 0.898314
vt 0.734883 0.895935
vt 0.680452 0.020894
vt 0.708514 0.029891
vt 0.694821 0.042646
vt 0.790542 0.099748
vt 0.813455 0.198558
vt 0.758216 0.129074
vt 0.856621 0.166547
vt 0.868035 0.257559
vt 0.953325 0.236873
vt 0.942709 0.280006
vt 0.597484 0.752559
vt 0.536260 0.548417
vt 0.584791 0.562200
vt 0.500476 0.917938
vt 0.553218 0.729973
vt 0.348298 0.976952
vt 0.479380 0.874383
vt 0.249785 0.944853
vt 0.352913 0.928230
vt 0.979731 0.334741
vt 0.901103 0.305009
vt 0.540456 0.486903
vt 0.583483 0.499015
vt 0.522837 0.717214
vt 0.471298 0.536233
vt 0.469471 0.854738
vt 0.262761 0.910019
vt 0.357766 0.906106
vt 0.481885 0.473551
vt 0.189580 0.798933
vt 0.280605 0.890504
vt 0.232254 0.798162
vt 0.495022 0.151089
vt 0.463524 0.140365
vt 0.428107 0.127053
vt 0.393212 0.120267
vt 0.602428 0.162683
vt 0.567703 0.163940
vt 0.540201 0.161486
vt 0.058478 0.712145
vt 0.126907 0.660384
vt 0.087816 0.746584
vt 0.171312 0.667752
vt 0.143122 0.808999
vt 0.212674 0.661752
vt 0.252498 0.669307
vt 0.403878 0.466585
vt 0.385413 0.518189
vt 0.326244 0.466787
vt 0.297434 0.540389
vt 0.467546 0.695796
vt 0.432808 0.565900
vt 0.430613 0.807660
vt 0.348717 0.857453
vt 0.293367 0.870296
vt 0.249565 0.801128
vt 0.379574 0.553376
vt 0.327560 0.568859
vt 0.423756 0.601327
vt 0.428817 0.672066
vt 0.394468 0.749863
vt 0.333338 0.794260
vt 0.301679 0.820785
vt 0.269066 0.690008
vt 0.274690 0.787130
vt 0.381058 0.587911
vt 0.330768 0.600752
vt 0.384665 0.636812
vt 0.353035 0.677252
vt 0.470083 0.118279
vt 0.449623 0.107661
vt 0.422469 0.096674
vt 0.360699 0.105463
vt 0.358637 0.114912
vt 0.490596 0.118082
vt 0.511584 0.145593
vt 0.159748 0.570068
vt 0.089622 0.651510
vt 0.117460 0.567275
vt 0.230438 0.555496
vt 0.298133 0.734921
vt 0.263743 0.469383
vt 0.198913 0.465194
vt 0.161313 0.460007
vt 0.102738 0.524131
vt 0.145500 0.457734
vt 0.110557 0.478971
vt 0.864485 0.713377
vt 0.861318 0.748148
vt 0.869086 0.676845
vt 0.867518 0.638500
vt 0.768738 0.900547
vt 0.860675 0.598948
vt 0.781134 0.894982
vt 0.849559 0.559131
vt 0.791229 0.885849
vt 0.835243 0.516630
vt 0.805868 0.874068
vt 0.808900 0.467828
vt 0.832424 0.853649
vt 0.781718 0.447812
vt 0.752698 0.437821
vt 0.851262 0.809444
vt 0.868032 0.836972
vt 0.844725 0.832518
vt 0.715992 0.426917
vt 0.857069 0.780095
vt 0.679039 0.420002
vt 0.632332 0.420473
vt 0.580850 0.424351
vt 0.523404 0.432699
vt 0.459833 0.437964
vt 0.392795 0.436915
vt 0.323674 0.426906
vt 0.266014 0.387075
vt 0.254047 0.405074
vt 0.204962 0.395615
vt 0.157351 0.385548
vt 0.318856 0.110486
vt 0.310685 0.130426
vt 0.773843 0.272088
vt 0.104226 0.359365
vt 0.323597 0.099693
vt 0.733579 0.887114
vt 0.914142 0.228377
vt 0.962177 0.367359
vt 0.393380 0.100515
s 1
usemtl 01_-_Default
f 32/1/1 3/2/2 35/3/3
f 1/4/4 4/5/5 3/2/2
f 2/6/6 130/7/7 4/5/5
f 35/3/3 6/8/8 5/9/9
f 3/2/2 7/10/10 6/8/8
f 4/5/5 128/11/11 7/10/10
f 5/9/9 9/12/12 8/13/13
f 6/8/8 10/14/14 9/12/12
f 7/10/10 126/15/15 10/14/14
f 8/13/13 12/16/16 11/17/17
f 9/12/12 13/18/18 12/16/16
f 10/14/14 124/19/19 13/18/18
f 11/17/17 15/20/20 14/21/21
f 12/16/16 16/22/22 15/20/20
f 13/18/18 122/23/23 16/22/22
f 14/21/21 18/24/24 17/25/25
f 15/20/20 19/26/26 18/24/24
f 16/22/22 120/27/27 19/26/26
f 17/25/25 234/28/28 233/29/29
f 18/24/24 235/30/30 234/28/28
f 19/26/26 236/31/31 235/30/30
f 21/32/32 48/33/33 20/34/34
f 21/32/32 25/35/35 24/36/36
f 22/37/37 205/38/38 25/35/35
f 24/36/36 51/39/39 48/33/33
f 24/36/36 28/40/40 27/41/41
f 25/35/35 206/42/42 28/40/40
f 27/41/41 55/43/43 51/39/39
f 27/41/41 31/44/44 30/45/45
f 28/40/40 207/46/46 31/44/44
f 55/43/43 33/47/47 60/48/48
f 30/45/45 34/49/49 33/47/47
f 31/44/44 208/50/50 34/49/49
f 33/47/47 65/51/51 60/48/48
f 33/47/47 37/52/52 36/53/53
f 34/49/49 198/54/54 37/52/52
f 36/53/53 70/55/55 65/51/51
f 36/53/53 39/56/56 38/57/57
f 37/52/52 199/58/58 39/56/56
f 38/57/57 75/59/59 70/55/55
f 38/57/57 41/60/60 40/61/61
f 39/56/56 200/62/62 41/60/60
f 40/61/61 80/63/63 75/59/59
f 40/61/61 43/64/64 42/65/65
f 41/60/60 201/66/66 43/64/64
f 42/65/65 85/67/67 80/63/63
f 42/65/65 45/68/68 44/69/69
f 43/64/64 202/70/70 45/68/68
f 85/67/67 238/71/71 237/72/72
f 44/69/69 239/73/73 238/71/71
f 45/68/68 240/74/74 239/73/73
f 46/75/75 50/76/76 49/77/77
f 209/78/78 50/76/76 47/79/79
f 231/80/80 104/81/81 232/82/82
f 49/77/77 54/83/83 53/84/84
f 210/85/85 54/83/83 50/76/76
f 52/86/86 57/87/87 56/88/88
f 104/89/81 58/90/89 57/87/87
f 53/84/84 59/91/90 58/90/89
f 211/92/91 59/91/90 54/83/83
f 56/88/88 62/93/92 61/94/93
f 57/87/87 63/95/94 62/93/92
f 58/90/89 64/96/95 63/95/94
f 212/97/96 64/96/95 59/91/90
f 61/94/93 67/98/97 66/99/98
f 62/93/92 68/100/99 67/98/97
f 63/95/94 69/101/100 68/100/99
f 213/102/101 69/101/100 64/96/95
f 66/99/98 72/103/102 71/104/103
f 67/98/97 73/105/104 72/103/102
f 68/100/99 74/106/105 73/105/104
f 214/107/106 74/106/105 69/101/100
f 71/104/103 77/108/107 76/109/108
f 72/103/102 78/110/109 77/108/107
f 73/105/104 79/111/110 78/110/109
f 215/112/111 79/111/110 74/106/105
f 76/109/108 82/113/112 81/114/113
f 77/108/107 83/115/114 82/113/112
f 78/110/109 84/116/115 83/115/114
f 216/117/116 84/116/115 79/111/110
f 82/113/112 242/118/117 241/119/118
f 83/115/114 243/120/119 242/118/117
f 217/121/120 243/120/119 84/116/115
f 86/122/121 253/123/122 91/124/123
f 87/125/124 93/126/125 92/127/126
f 88/128/127 94/129/128 93/126/125
f 218/130/129 94/129/128 89/131/130
f 91/124/123 254/132/131 96/133/132
f 92/127/126 98/134/133 97/135/134
f 93/126/125 99/136/135 98/134/133
f 231/80/80 94/129/128 219/137/136
f 96/133/132 255/138/137 100/139/138
f 97/135/134 102/140/139 101/141/140
f 98/134/133 103/142/141 102/140/139
f 99/136/135 232/82/82 103/142/141
f 105/143/142 90/144/143 110/145/144
f 47/79/79 105/143/142 106/146/145
f 203/147/146 47/79/79 106/146/145
f 252/148/147 163/149/148 251/150/149
f 88/128/127 107/151/150 108/152/151
f 89/131/130 108/152/151 109/153/152
f 89/131/130 220/154/153 218/130/129
f 29/155/154 1/4/4 32/1/1
f 2/6/6 111/156/155 112/157/156
f 2/6/6 133/158/157 131/159/158
f 26/160/159 111/156/155 29/155/154
f 112/157/156 113/161/160 114/162/161
f 133/158/157 114/162/161 135/163/162
f 204/164/163 113/161/160 26/160/159
f 114/162/161 115/165/164 116/166/165
f 135/163/162 114/162/161 116/166/165
f 245/167/166 115/165/164 204/164/163
f 116/166/165 246/168/167 247/169/168
f 221/170/169 118/171/170 119/172/171
f 223/173/172 117/174/173 222/175/174
f 224/176/175 121/177/176 223/173/172
f 225/178/177 123/179/178 224/176/175
f 226/180/179 125/181/180 225/178/177
f 227/182/181 127/183/182 226/184/179
f 228/185/183 129/186/184 227/182/181
f 229/187/185 248/188/186 228/185/183
f 230/189/187 132/190/188 229/187/185
f 221/170/169 134/191/189 230/189/187
f 100/192/138 255/193/137 136/194/190
f 101/195/140 138/196/191 137/197/192
f 102/198/139 139/199/193 138/196/191
f 139/199/193 232/200/82 104/201/81
f 137/202/192 140/203/194 136/204/190
f 138/205/191 141/206/195 137/202/192
f 139/207/193 142/208/196 138/205/191
f 145/209/197 143/210/198 139/207/193
f 52/211/86 145/212/197 104/201/81
f 136/204/190 96/213/132 100/214/138
f 140/203/194 146/215/199 167/216/200
f 142/208/196 146/215/199 141/206/195
f 143/210/198 147/217/201 142/208/196
f 144/218/202 148/219/203 143/210/198
f 140/203/194 91/220/123 96/213/132
f 145/209/197 161/221/204 144/218/202
f 149/222/205 161/221/204 164/223/206
f 66/99/98 186/224/207 61/94/93
f 71/104/103 185/225/208 66/99/98
f 76/109/108 187/226/209 71/104/103
f 81/114/113 188/227/210 76/109/108
f 56/88/88 155/228/211 52/86/86
f 61/94/93 158/229/212 56/88/88
f 186/224/207 156/230/213 61/94/93
f 156/231/213 191/232/214 158/233/212
f 158/233/212 192/234/215 155/235/211
f 155/235/211 193/236/216 161/221/204
f 161/221/204 194/237/217 164/223/206
f 86/238/121 167/216/200 166/239/218
f 163/240/148 166/239/218 162/241/219
f 167/216/200 168/242/220 174/243/221
f 147/217/201 168/242/220 146/215/199
f 148/219/203 169/244/222 147/217/201
f 149/222/205 170/245/223 148/219/203
f 164/223/206 171/246/224 149/222/205
f 194/237/217 172/247/225 164/223/206
f 166/239/218 174/243/221 173/248/226
f 162/241/219 173/248/226 165/249/227
f 168/242/220 184/250/228 174/243/221
f 169/244/222 183/251/229 168/242/220
f 170/245/223 175/252/230 169/244/222
f 171/246/224 176/253/231 170/245/223
f 172/247/225 177/254/232 171/246/224
f 195/255/233 178/256/234 172/247/225
f 173/248/226 184/250/228 182/257/235
f 165/249/227 182/257/235 180/258/236
f 180/258/236 181/259/237 179/260/238
f 181/259/237 184/250/228 183/251/229
f 185/225/208 150/261/239 186/224/207
f 187/226/209 197/262/240 185/225/208
f 188/227/210 151/263/241 187/226/209
f 153/264/242 188/227/210 189/265/243
f 186/224/207 157/266/244 190/267/245
f 159/268/246 190/269/245 157/270/244
f 159/268/246 192/234/215 191/232/214
f 160/271/247 193/236/216 192/234/215
f 193/236/216 165/249/227 194/237/217
f 194/237/217 180/258/236 195/255/233
f 195/255/233 179/260/238 196/272/248
f 179/260/238 183/251/229 175/252/230
f 196/272/248 175/252/230 176/253/231
f 196/272/248 177/254/232 178/256/234
f 154/273/249 162/241/219 160/271/247
f 160/271/247 153/274/242 154/273/249
f 159/268/246 152/275/250 153/274/242
f 150/276/239 152/275/250 157/270/244
f 151/277/241 150/276/239 197/278/240
f 35/279/3 207/46/46 32/280/1
f 131/159/158 227/182/181 130/7/7
f 5/281/9 208/50/50 35/279/3
f 130/7/7 226/184/179 128/11/11
f 8/282/13 198/54/54 5/281/9
f 128/11/11 225/283/177 126/15/15
f 11/284/17 199/58/58 8/282/13
f 126/15/15 224/285/175 124/19/19
f 14/286/21 200/62/62 11/284/17
f 124/19/19 223/287/172 122/23/23
f 17/288/25 201/66/66 14/286/21
f 122/23/23 222/289/174 120/27/27
f 233/290/29 202/70/70 17/288/25
f 245/291/166 120/27/27 222/289/174
f 203/147/146 233/290/29 20/292/34
f 209/78/78 20/292/34 48/293/33
f 26/294/159 23/295/251 204/296/163
f 210/85/85 48/293/33 51/297/39
f 205/38/38 29/298/154 206/42/42
f 211/92/91 51/297/39 55/299/43
f 206/42/42 32/280/1 207/46/46
f 212/97/96 55/299/43 60/300/48
f 213/102/101 60/300/48 65/301/51
f 214/107/106 65/301/51 70/302/55
f 215/112/111 70/302/55 75/303/59
f 216/117/116 75/303/59 80/304/63
f 217/121/120 80/304/63 85/305/67
f 244/306/252 85/305/67 237/307/72
f 220/154/153 237/307/72 110/308/144
f 218/130/129 110/308/144 90/309/143
f 133/158/157 228/185/183 131/159/158
f 135/163/162 229/187/185 133/158/157
f 116/166/165 230/189/187 135/163/162
f 90/309/143 219/137/136 218/130/129
f 20/34/34 234/28/28 21/32/32
f 22/37/37 234/28/28 235/30/30
f 23/295/251 235/30/30 236/31/31
f 110/145/144 238/71/71 105/143/142
f 106/146/145 238/71/71 239/73/73
f 106/146/145 240/74/74 203/147/146
f 251/150/149 250/310/253 249/311/254
f 108/152/151 241/119/118 242/118/117
f 109/153/152 242/118/117 243/120/119
f 244/306/252 109/153/152 243/120/119
f 222/175/174 246/168/167 245/167/166
f 117/174/173 247/169/168 246/168/167
f 204/296/163 236/31/31 245/291/166
f 116/166/165 247/169/168 221/170/169
f 95/312/255 53/84/84 104/89/81
f 231/80/80 219/137/136 95/313/255
f 95/312/255 46/75/75 49/77/77
f 121/177/176 118/171/170 117/174/173
f 125/181/180 118/171/170 123/179/178
f 125/181/180 134/191/189 119/172/171
f 127/183/182 132/190/188 134/191/189
f 132/190/188 129/186/184 248/188/186
f 154/314/249 189/265/243 250/310/253
f 81/114/113 241/119/118 249/311/254
f 81/114/113 250/310/253 189/265/243
f 249/311/254 107/151/150 251/150/149
f 163/149/148 250/310/253 251/150/149
f 251/150/149 87/125/124 252/148/147
f 252/148/147 92/127/126 253/123/122
f 253/123/122 97/135/134 254/132/131
f 254/132/131 101/141/140 255/138/137
f 255/193/137 137/197/192 136/194/190
f 32/1/1 1/4/4 3/2/2
f 1/4/4 2/6/6 4/5/5
f 2/6/6 131/159/158 130/7/7
f 35/3/3 3/2/2 6/8/8
f 3/2/2 4/5/5 7/10/10
f 4/5/5 130/7/7 128/11/11
f 5/9/9 6/8/8 9/12/12
f 6/8/8 7/10/10 10/14/14
f 7/10/10 128/11/11 126/15/15
f 8/13/13 9/12/12 12/16/16
f 9/12/12 10/14/14 13/18/18
f 10/14/14 126/15/15 124/19/19
f 11/17/17 12/16/16 15/20/20
f 12/16/16 13/18/18 16/22/22
f 13/18/18 124/19/19 122/23/23
f 14/21/21 15/20/20 18/24/24
f 15/20/20 16/22/22 19/26/26
f 16/22/22 122/23/23 120/27/27
f 17/25/25 18/24/24 234/28/28
f 18/24/24 19/26/26 235/30/30
f 19/26/26 120/27/27 236/31/31
f 21/32/32 24/36/36 48/33/33
f 21/32/32 22/37/37 25/35/35
f 22/37/37 23/295/251 205/38/38
f 24/36/36 27/41/41 51/39/39
f 24/36/36 25/35/35 28/40/40
f 25/35/35 205/38/38 206/42/42
f 27/41/41 30/45/45 55/43/43
f 27/41/41 28/40/40 31/44/44
f 28/40/40 206/42/42 207/46/46
f 55/43/43 30/45/45 33/47/47
f 30/45/45 31/44/44 34/49/49
f 31/44/44 207/46/46 208/50/50
f 33/47/47 36/53/53 65/51/51
f 33/47/47 34/49/49 37/52/52
f 34/49/49 208/50/50 198/54/54
f 36/53/53 38/57/57 70/55/55
f 36/53/53 37/52/52 39/56/56
f 37/52/52 198/54/54 199/58/58
f 38/57/57 40/61/61 75/59/59
f 38/57/57 39/56/56 41/60/60
f 39/56/56 199/58/58 200/62/62
f 40/61/61 42/65/65 80/63/63
f 40/61/61 41/60/60 43/64/64
f 41/60/60 200/62/62 201/66/66
f 42/65/65 44/69/69 85/67/67
f 42/65/65 43/64/64 45/68/68
f 43/64/64 201/66/66 202/70/70
f 85/67/67 44/69/69 238/71/71
f 44/69/69 45/68/68 239/73/73
f 45/68/68 202/70/70 240/74/74
f 46/75/75 47/79/79 50/76/76
f 209/78/78 210/85/85 50/76/76
f 231/80/80 95/313/255 104/81/81
f 49/77/77 50/76/76 54/83/83
f 210/85/85 211/92/91 54/83/83
f 52/86/86 104/89/81 57/87/87
f 104/89/81 53/84/84 58/90/89
f 53/84/84 54/83/83 59/91/90
f 211/92/91 212/97/96 59/91/90
f 56/88/88 57/87/87 62/93/92
f 57/87/87 58/90/89 63/95/94
f 58/90/89 59/91/90 64/96/95
f 212/97/96 213/102/101 64/96/95
f 61/94/93 62/93/92 67/98/97
f 62/93/92 63/95/94 68/100/99
f 63/95/94 64/96/95 69/101/100
f 213/102/101 214/107/106 69/101/100
f 66/99/98 67/98/97 72/103/102
f 67/98/97 68/100/99 73/105/104
f 68/100/99 69/101/100 74/106/105
f 214/107/106 215/112/111 74/106/105
f 71/104/103 72/103/102 77/108/107
f 72/103/102 73/105/104 78/110/109
f 73/105/104 74/106/105 79/111/110
f 215/112/111 216/117/116 79/111/110
f 76/109/108 77/108/107 82/113/112
f 77/108/107 78/110/109 83/115/114
f 78/110/109 79/111/110 84/116/115
f 216/117/116 217/121/120 84/116/115
f 82/113/112 83/115/114 242/118/117
f 83/115/114 84/116/115 243/120/119
f 217/121/120 244/306/252 243/120/119
f 86/122/121 252/148/147 253/123/122
f 87/125/124 88/128/127 93/126/125
f 88/128/127 89/131/130 94/129/128
f 218/130/129 219/137/136 94/129/128
f 91/124/123 253/123/122 254/132/131
f 92/127/126 93/126/125 98/134/133
f 93/126/125 94/129/128 99/136/135
f 231/80/80 99/136/135 94/129/128
f 96/133/132 254/132/131 255/138/137
f 97/135/134 98/134/133 102/140/139
f 98/134/133 99/136/135 103/142/141
f 99/136/135 231/80/80 232/82/82
f 105/143/142 46/75/75 90/144/143
f 47/79/79 46/75/75 105/143/142
f 203/147/146 209/78/78 47/79/79
f 252/148/147 86/122/121 163/149/148
f 88/128/127 87/125/124 107/151/150
f 89/131/130 88/128/127 108/152/151
f 89/131/130 109/153/152 220/154/153
f 29/155/154 111/156/155 1/4/4
f 2/6/6 1/4/4 111/156/155
f 2/6/6 112/157/156 133/158/157
f 26/160/159 113/161/160 111/156/155
f 112/157/156 111/156/155 113/161/160
f 133/158/157 112/157/156 114/162/161
f 204/164/163 115/165/164 113/161/160
f 114/162/161 113/161/160 115/165/164
f 245/167/166 246/168/167 115/165/164
f 116/166/165 115/165/164 246/168/167
f 221/170/169 247/169/168 118/171/170
f 223/173/172 121/177/176 117/174/173
f 224/176/175 123/179/178 121/177/176
f 225/178/177 125/181/180 123/179/178
f 226/180/179 127/315/182 125/181/180
f 227/182/181 129/186/184 127/183/182
f 228/185/183 248/188/186 129/186/184
f 229/187/185 132/190/188 248/188/186
f 230/189/187 134/191/189 132/190/188
f 221/170/169 119/172/171 134/191/189
f 101/195/140 102/198/139 138/196/191
f 102/198/139 103/316/141 139/199/193
f 104/201/81 145/212/197 139/199/193
f 139/199/193 103/316/141 232/200/82
f 137/202/192 141/206/195 140/203/194
f 138/205/191 142/208/196 141/206/195
f 139/207/193 143/210/198 142/208/196
f 145/209/197 144/218/202 143/210/198
f 52/211/86 155/317/211 145/212/197
f 136/204/190 140/203/194 96/213/132
f 140/203/194 141/206/195 146/215/199
f 142/208/196 147/217/201 146/215/199
f 143/210/198 148/219/203 147/217/201
f 144/218/202 149/222/205 148/219/203
f 140/203/194 167/216/200 91/220/123
f 145/209/197 155/235/211 161/221/204
f 149/222/205 144/218/202 161/221/204
f 66/99/98 185/225/208 186/224/207
f 71/104/103 187/226/209 185/225/208
f 76/109/108 188/227/210 187/226/209
f 81/114/113 189/265/243 188/227/210
f 56/88/88 158/229/212 155/228/211
f 61/94/93 156/230/213 158/229/212
f 186/224/207 190/267/245 156/230/213
f 156/231/213 190/269/245 191/232/214
f 158/233/212 191/232/214 192/234/215
f 155/235/211 192/234/215 193/236/216
f 161/221/204 193/236/216 194/237/217
f 86/238/121 91/220/123 167/216/200
f 163/240/148 86/238/121 166/239/218
f 167/216/200 146/215/199 168/242/220
f 147/217/201 169/244/222 168/242/220
f 148/219/203 170/245/223 169/244/222
f 149/222/205 171/246/224 170/245/223
f 164/223/206 172/247/225 171/246/224
f 194/237/217 195/255/233 172/247/225
f 166/239/218 167/216/200 174/243/221
f 162/241/219 166/239/218 173/248/226
f 168/242/220 183/251/229 184/250/228
f 169/244/222 175/252/230 183/251/229
f 170/245/223 176/253/231 175/252/230
f 171/246/224 177/254/232 176/253/231
f 172/247/225 178/256/234 177/254/232
f 195/255/233 196/272/248 178/256/234
f 173/248/226 174/243/221 184/250/228
f 165/249/227 173/248/226 182/257/235
f 180/258/236 182/257/235 181/259/237
f 181/259/237 182/257/235 184/250/228
f 185/225/208 197/262/240 150/261/239
f 187/226/209 151/263/241 197/262/240
f 188/227/210 152/318/250 151/263/241
f 153/264/242 152/318/250 188/227/210
f 186/224/207 150/261/239 157/266/244
f 159/268/246 191/232/214 190/269/245
f 159/268/246 160/271/247 192/234/215
f 160/271/247 162/241/219 193/236/216
f 193/236/216 162/241/219 165/249/227
f 194/237/217 165/249/227 180/258/236
f 195/255/233 180/258/236 179/260/238
f 179/260/238 181/259/237 183/251/229
f 196/272/248 179/260/238 175/252/230
f 196/272/248 176/253/231 177/254/232
f 154/273/249 163/240/148 162/241/219
f 160/271/247 159/268/246 153/274/242
f 159/268/246 157/270/244 152/275/250
f 150/276/239 151/277/241 152/275/250
f 35/279/3 208/50/50 207/46/46
f 131/159/158 228/185/183 227/182/181
f 5/281/9 198/54/54 208/50/50
f 130/7/7 227/182/181 226/184/179
f 8/282/13 199/58/58 198/54/54
f 128/11/11 226/184/179 225/283/177
f 11/284/17 200/62/62 199/58/58
f 126/15/15 225/283/177 224/285/175
f 14/286/21 201/66/66 200/62/62
f 124/19/19 224/285/175 223/287/172
f 17/288/25 202/70/70 201/66/66
f 122/23/23 223/287/172 222/289/174
f 233/290/29 240/74/74 202/70/70
f 245/291/166 236/31/31 120/27/27
f 203/147/146 240/74/74 233/290/29
f 209/78/78 203/147/146 20/292/34
f 26/294/159 205/38/38 23/295/251
f 210/85/85 209/78/78 48/293/33
f 205/38/38 26/294/159 29/298/154
f 211/92/91 210/85/85 51/297/39
f 206/42/42 29/298/154 32/280/1
f 212/97/96 211/92/91 55/299/43
f 213/102/101 212/97/96 60/300/48
f 214/107/106 213/102/101 65/301/51
f 215/112/111 214/107/106 70/302/55
f 216/117/116 215/112/111 75/303/59
f 217/121/120 216/117/116 80/304/63
f 244/306/252 217/121/120 85/305/67
f 220/154/153 244/306/252 237/307/72
f 218/130/129 220/154/153 110/308/144
f 133/158/157 229/187/185 228/185/183
f 135/163/162 230/189/187 229/187/185
f 116/166/165 221/170/169 230/189/187
f 90/309/143 95/313/255 219/137/136
f 20/34/34 233/29/29 234/28/28
f 22/37/37 21/32/32 234/28/28
f 23/295/251 22/37/37 235/30/30
f 110/145/144 237/72/72 238/71/71
f 106/146/145 105/143/142 238/71/71
f 106/146/145 239/73/73 240/74/74
f 108/152/151 107/151/150 241/119/118
f 109/153/152 108/152/151 242/118/117
f 244/306/252 220/154/153 109/153/152
f 222/175/174 117/174/173 246/168/167
f 117/174/173 118/171/170 247/169/168
f 204/296/163 23/295/251 236/31/31
f 95/312/255 49/77/77 53/84/84
f 95/312/255 90/144/143 46/75/75
f 121/177/176 123/179/178 118/171/170
f 125/181/180 119/172/171 118/171/170
f 125/181/180 127/315/182 134/191/189
f 127/183/182 129/186/184 132/190/188
f 154/314/249 153/264/242 189/265/243
f 81/114/113 82/113/112 241/119/118
f 81/114/113 249/311/254 250/310/253
f 249/311/254 241/119/118 107/151/150
f 163/149/148 154/314/249 250/310/253
f 251/150/149 107/151/150 87/125/124
f 252/148/147 87/125/124 92/127/126
f 253/123/122 92/127/126 97/135/134
f 254/132/131 97/135/134 101/141/140
f 255/193/137 101/195/140 137/197/192
