# Blender 5.1.1
# www.blender.org
mtllib SM_SphereLowpoly.mtl
o Sphere
v 0.000000 0.000000 1.000000
v 0.923880 0.000000 0.382683
v 1.000000 0.000000 0.000000
v 0.923880 0.000000 -0.382683
v 0.382683 0.000000 -0.923880
v 0.000000 0.000000 -1.000000
v 0.353553 -0.146447 0.923880
v 0.653281 -0.270598 0.707107
v 0.853553 -0.353553 0.382683
v 0.923880 -0.382683 0.000000
v 0.853553 -0.353553 -0.382683
v 0.653281 -0.270598 -0.707107
v 0.353553 -0.146447 -0.923880
v 0.270598 -0.270598 0.923880
v 0.500000 -0.500000 0.707107
v 0.653281 -0.653282 0.382683
v 0.707107 -0.707107 0.000000
v 0.653281 -0.653282 -0.382683
v 0.500000 -0.500000 -0.707107
v 0.270598 -0.270598 -0.923880
v 0.146447 -0.353553 0.923880
v 0.270598 -0.653281 0.707107
v 0.353553 -0.853553 0.382683
v 0.382683 -0.923880 0.000000
v 0.353553 -0.853553 -0.382683
v 0.270598 -0.653281 -0.707107
v 0.146447 -0.353553 -0.923880
v -0.000000 -0.382683 0.923880
v -0.000000 -0.707107 0.707107
v -0.000000 -0.923880 0.382683
v -0.000000 -1.000000 0.000000
v -0.000000 -0.923880 -0.382683
v -0.000000 -0.707107 -0.707107
v -0.000000 -0.382683 -0.923880
v -0.146447 -0.353553 0.923880
v -0.270598 -0.653281 0.707107
v -0.353554 -0.853553 0.382683
v -0.382684 -0.923879 0.000000
v -0.353554 -0.853553 -0.382683
v -0.270598 -0.653281 -0.707107
v -0.146447 -0.353553 -0.923880
v -0.270598 -0.270598 0.923880
v -0.500000 -0.500000 0.707107
v -0.653282 -0.653281 0.382683
v -0.707107 -0.707107 0.000000
v -0.653282 -0.653281 -0.382683
v -0.500000 -0.500000 -0.707107
v -0.270598 -0.270598 -0.923880
v -0.353553 -0.146447 0.923880
v -0.653281 -0.270598 0.707107
v -0.853553 -0.353553 0.382683
v -0.923880 -0.382683 0.000000
v -0.853553 -0.353553 -0.382683
v -0.653281 -0.270598 -0.707107
v -0.353553 -0.146447 -0.923880
v -0.382683 0.000000 0.923880
v -0.707107 0.000000 0.707107
v -0.923879 0.000000 0.382683
v -1.000000 0.000000 0.000000
v -0.923879 0.000000 -0.382683
v -0.707107 0.000000 -0.707107
v -0.382683 0.000000 -0.923880
v -0.353553 0.146447 0.923880
v -0.653281 0.270598 0.707107
v -0.853553 0.353554 0.382683
v -0.923879 0.382684 0.000000
v -0.853553 0.353554 -0.382683
v -0.653281 0.270598 -0.707107
v -0.353553 0.146447 -0.923880
v -0.270598 0.270598 0.923880
v -0.500000 0.500000 0.707107
v -0.653281 0.653282 0.382683
v -0.707106 0.707107 0.000000
v -0.653281 0.653282 -0.382683
v -0.500000 0.500000 -0.707107
v -0.270598 0.270598 -0.923880
v -0.146446 0.353553 0.923880
v -0.270598 0.653281 0.707107
v -0.353553 0.853553 0.382683
v -0.382683 0.923880 0.000000
v -0.353553 0.853553 -0.382683
v -0.270598 0.653281 -0.707107
v -0.146446 0.353553 -0.923880
v 0.000000 0.382683 0.923880
v 0.000000 0.707107 0.707107
v 0.000000 0.923879 0.382683
v 0.000001 1.000000 0.000000
v 0.000000 0.923879 -0.382683
v 0.000000 0.707107 -0.707107
v 0.000000 0.382683 -0.923880
v 0.146447 0.353553 0.923880
v 0.270598 0.653281 0.707107
v 0.353554 0.853553 0.382683
v 0.382684 0.923879 0.000000
v 0.353554 0.853553 -0.382683
v 0.270598 0.653281 -0.707107
v 0.146447 0.353553 -0.923880
v 0.270598 0.270598 0.923880
v 0.500000 0.500000 0.707107
v 0.653282 0.653281 0.382683
v 0.707107 0.707106 0.000000
v 0.653282 0.653281 -0.382683
v 0.500000 0.500000 -0.707107
v 0.270598 0.270598 -0.923880
v 0.353554 0.146446 0.923880
v 0.653281 0.270598 0.707107
v 0.853553 0.353553 0.382683
v 0.923880 0.382683 0.000000
v 0.853553 0.353553 -0.382683
v 0.653281 0.270598 -0.707107
v 0.353554 0.146446 -0.923880
v 0.382683 -0.000000 0.923880
v 0.707107 -0.000000 0.707107
v 0.707107 -0.000000 -0.707107
vn -0.0000 -0.0000 1.0000
vn 0.9273 -0.0000 0.3744
vn 1.0000 -0.0000 -0.0000
vn 0.9273 -0.0000 -0.3744
vn 0.4031 -0.0000 -0.9152
vn -0.0000 -0.0000 -1.0000
vn 0.3724 -0.1543 0.9152
vn 0.6641 -0.2751 0.6952
vn 0.8567 -0.3549 0.3744
vn 0.9239 -0.3827 -0.0000
vn 0.8567 -0.3549 -0.3744
vn 0.6641 -0.2751 -0.6952
vn 0.3724 -0.1543 -0.9152
vn 0.2850 -0.2850 0.9152
vn 0.5083 -0.5083 0.6952
vn 0.6557 -0.6557 0.3744
vn 0.7071 -0.7071 -0.0000
vn 0.6557 -0.6557 -0.3744
vn 0.5083 -0.5083 -0.6952
vn 0.2850 -0.2850 -0.9152
vn 0.1543 -0.3724 0.9152
vn 0.2751 -0.6641 0.6952
vn 0.3549 -0.8567 0.3744
vn 0.3827 -0.9239 -0.0000
vn 0.3549 -0.8567 -0.3744
vn 0.2751 -0.6641 -0.6952
vn 0.1543 -0.3724 -0.9152
vn -0.0000 -0.4031 0.9152
vn -0.0000 -0.7189 0.6952
vn -0.0000 -0.9273 0.3744
vn -0.0000 -1.0000 -0.0000
vn -0.0000 -0.9273 -0.3744
vn -0.0000 -0.7189 -0.6952
vn -0.0000 -0.4031 -0.9152
vn -0.1543 -0.3724 0.9152
vn -0.2751 -0.6641 0.6952
vn -0.3549 -0.8567 0.3744
vn -0.3827 -0.9239 -0.0000
vn -0.3549 -0.8567 -0.3744
vn -0.2751 -0.6641 -0.6952
vn -0.1543 -0.3724 -0.9152
vn -0.2850 -0.2850 0.9152
vn -0.5083 -0.5083 0.6952
vn -0.6557 -0.6557 0.3744
vn -0.7071 -0.7071 -0.0000
vn -0.6557 -0.6557 -0.3744
vn -0.5083 -0.5083 -0.6952
vn -0.2850 -0.2850 -0.9152
vn -0.3724 -0.1543 0.9152
vn -0.6641 -0.2751 0.6952
vn -0.8567 -0.3549 0.3744
vn -0.9239 -0.3827 -0.0000
vn -0.8567 -0.3549 -0.3744
vn -0.6641 -0.2751 -0.6952
vn -0.3724 -0.1543 -0.9152
vn -0.4031 -0.0000 0.9152
vn -0.7189 -0.0000 0.6952
vn -0.9273 -0.0000 0.3744
vn -1.0000 -0.0000 -0.0000
vn -0.9273 -0.0000 -0.3744
vn -0.7189 -0.0000 -0.6952
vn -0.4031 -0.0000 -0.9152
vn -0.3724 0.1543 0.9152
vn -0.6641 0.2751 0.6952
vn -0.8567 0.3549 0.3744
vn -0.9239 0.3827 -0.0000
vn -0.8567 0.3549 -0.3744
vn -0.6641 0.2751 -0.6952
vn -0.3724 0.1543 -0.9152
vn -0.2850 0.2850 0.9152
vn -0.5083 0.5083 0.6952
vn -0.6557 0.6557 0.3744
vn -0.7071 0.7071 -0.0000
vn -0.6557 0.6557 -0.3744
vn -0.5083 0.5083 -0.6952
vn -0.2850 0.2850 -0.9152
vn -0.1543 0.3724 0.9152
vn -0.2751 0.6641 0.6952
vn -0.3549 0.8567 0.3744
vn -0.3827 0.9239 -0.0000
vn -0.3549 0.8567 -0.3744
vn -0.2751 0.6641 -0.6952
vn -0.1543 0.3724 -0.9152
vn -0.0000 0.4031 0.9152
vn -0.0000 0.7189 0.6952
vn -0.0000 0.9273 0.3744
vn -0.0000 1.0000 -0.0000
vn -0.0000 0.9273 -0.3744
vn -0.0000 0.7189 -0.6952
vn -0.0000 0.4031 -0.9152
vn 0.1543 0.3724 0.9152
vn 0.2751 0.6641 0.6952
vn 0.3549 0.8567 0.3744
vn 0.3827 0.9239 -0.0000
vn 0.3549 0.8567 -0.3744
vn 0.2751 0.6641 -0.6952
vn 0.1543 0.3724 -0.9152
vn 0.2850 0.2850 0.9152
vn 0.5083 0.5083 0.6952
vn 0.6557 0.6557 0.3744
vn 0.7071 0.7071 -0.0000
vn 0.6557 0.6557 -0.3744
vn 0.5083 0.5083 -0.6952
vn 0.2850 0.2850 -0.9152
vn 0.3724 0.1543 0.9152
vn 0.6641 0.2751 0.6952
vn 0.8567 0.3549 0.3744
vn 0.9239 0.3827 -0.0000
vn 0.8567 0.3549 -0.3744
vn 0.6641 0.2751 -0.6952
vn 0.3724 0.1543 -0.9152
vn 0.4031 -0.0000 0.9152
vn 0.7189 -0.0000 0.6952
vn 0.7189 -0.0000 -0.6952
vt 0.718750 0.000000
vt 0.750000 0.125000
vt 0.687500 0.125000
vt 0.750000 0.250000
vt 0.750000 0.375000
vt 0.687500 0.375000
vt 0.687500 0.250000
vt 0.750000 0.500000
vt 0.750000 0.625000
vt 0.687500 0.625000
vt 0.687500 0.500000
vt 0.750000 0.750000
vt 0.750000 0.875000
vt 0.687500 0.875000
vt 0.687500 0.750000
vt 0.718750 1.000000
vt 0.625000 0.250000
vt 0.625000 0.125000
vt 0.625000 0.500000
vt 0.625000 0.375000
vt 0.625000 0.750000
vt 0.625000 0.625000
vt 0.656250 1.000000
vt 0.625000 0.875000
vt 0.656250 0.000000
vt 0.562500 0.500000
vt 0.562500 0.375000
vt 0.562500 0.750000
vt 0.562500 0.625000
vt 0.593750 1.000000
vt 0.562500 0.875000
vt 0.593750 0.000000
vt 0.562500 0.125000
vt 0.562500 0.250000
vt 0.531250 0.000000
vt 0.500000 0.125000
vt 0.500000 0.375000
vt 0.500000 0.250000
vt 0.500000 0.625000
vt 0.500000 0.500000
vt 0.500000 0.875000
vt 0.500000 0.750000
vt 0.531250 1.000000
vt 0.437500 0.625000
vt 0.437500 0.500000
vt 0.437500 0.875000
vt 0.437500 0.750000
vt 0.437500 0.250000
vt 0.437500 0.125000
vt 0.437500 0.375000
vt 0.468750 1.000000
vt 0.468750 0.000000
vt 0.375000 0.250000
vt 0.375000 0.125000
vt 0.375000 0.500000
vt 0.375000 0.375000
vt 0.375000 0.750000
vt 0.375000 0.625000
vt 0.406250 1.000000
vt 0.375000 0.875000
vt 0.406250 0.000000
vt 0.312500 0.750000
vt 0.312500 0.625000
vt 0.343750 1.000000
vt 0.312500 0.875000
vt 0.343750 0.000000
vt 0.312500 0.125000
vt 0.312500 0.375000
vt 0.312500 0.250000
vt 0.312500 0.500000
vt 0.281250 0.000000
vt 0.250000 0.125000
vt 0.250000 0.375000
vt 0.250000 0.250000
vt 0.250000 0.625000
vt 0.250000 0.500000
vt 0.250000 0.875000
vt 0.250000 0.750000
vt 0.281250 1.000000
vt 0.187500 0.875000
vt 0.187500 0.750000
vt 0.187500 0.250000
vt 0.187500 0.125000
vt 0.187500 0.500000
vt 0.187500 0.375000
vt 0.187500 0.625000
vt 0.218750 1.000000
vt 0.218750 0.000000
vt 0.125000 0.250000
vt 0.125000 0.125000
vt 0.125000 0.500000
vt 0.125000 0.375000
vt 0.125000 0.750000
vt 0.125000 0.625000
vt 0.156250 1.000000
vt 0.125000 0.875000
vt 0.156250 0.000000
vt 0.093750 1.000000
vt 0.062500 0.875000
vt 0.093750 0.000000
vt 0.062500 0.125000
vt 0.062500 0.375000
vt 0.062500 0.250000
vt 0.062500 0.625000
vt 0.062500 0.500000
vt 0.062500 0.750000
vt 0.000000 0.375000
vt 0.000000 0.250000
vt 0.000000 0.625000
vt 0.000000 0.500000
vt 0.000000 0.875000
vt 0.000000 0.750000
vt 0.000000 0.125000
vt 0.031250 1.000000
vt 0.031250 0.000000
vt 1.000000 0.125000
vt 1.000000 0.250000
vt 0.937500 0.250000
vt 0.937500 0.125000
vt 1.000000 0.375000
vt 1.000000 0.500000
vt 0.937500 0.500000
vt 0.937500 0.375000
vt 1.000000 0.625000
vt 1.000000 0.750000
vt 0.937500 0.750000
vt 0.937500 0.625000
vt 1.000000 0.875000
vt 0.968750 1.000000
vt 0.937500 0.875000
vt 0.968750 0.000000
vt 0.875000 0.500000
vt 0.875000 0.375000
vt 0.875000 0.750000
vt 0.875000 0.625000
vt 0.906250 1.000000
vt 0.875000 0.875000
vt 0.906250 0.000000
vt 0.875000 0.125000
vt 0.875000 0.250000
vt 0.843750 0.000000
vt 0.812500 0.125000
vt 0.812500 0.375000
vt 0.812500 0.250000
vt 0.812500 0.625000
vt 0.812500 0.500000
vt 0.812500 0.875000
vt 0.812500 0.750000
vt 0.843750 1.000000
vt 0.781250 1.000000
vt 0.781250 0.000000
s 1
usemtl Material
f 6/1/6 5/2/5 13/3/13
f 114/4/114 4/5/4 11/6/11 12/7/12
f 3/8/3 2/9/2 9/10/9 10/11/10
f 113/12/113 112/13/112 7/14/7 8/15/8
f 5/2/5 114/4/114 12/7/12 13/3/13
f 4/5/4 3/8/3 10/11/10 11/6/11
f 2/9/2 113/12/113 8/15/8 9/10/9
f 112/13/112 1/16/1 7/14/7
f 13/3/13 12/7/12 19/17/19 20/18/20
f 11/6/11 10/11/10 17/19/17 18/20/18
f 9/10/9 8/15/8 15/21/15 16/22/16
f 7/14/7 1/23/1 14/24/14
f 6/25/6 13/3/13 20/18/20
f 12/7/12 11/6/11 18/20/18 19/17/19
f 10/11/10 9/10/9 16/22/16 17/19/17
f 8/15/8 7/14/7 14/24/14 15/21/15
f 18/20/18 17/19/17 24/26/24 25/27/25
f 16/22/16 15/21/15 22/28/22 23/29/23
f 14/24/14 1/30/1 21/31/21
f 6/32/6 20/18/20 27/33/27
f 19/17/19 18/20/18 25/27/25 26/34/26
f 17/19/17 16/22/16 23/29/23 24/26/24
f 15/21/15 14/24/14 21/31/21 22/28/22
f 20/18/20 19/17/19 26/34/26 27/33/27
f 6/35/6 27/33/27 34/36/34
f 26/34/26 25/27/25 32/37/32 33/38/33
f 24/26/24 23/29/23 30/39/30 31/40/31
f 22/28/22 21/31/21 28/41/28 29/42/29
f 27/33/27 26/34/26 33/38/33 34/36/34
f 25/27/25 24/26/24 31/40/31 32/37/32
f 23/29/23 22/28/22 29/42/29 30/39/30
f 21/31/21 1/43/1 28/41/28
f 31/40/31 30/39/30 37/44/37 38/45/38
f 29/42/29 28/41/28 35/46/35 36/47/36
f 34/36/34 33/38/33 40/48/40 41/49/41
f 32/37/32 31/40/31 38/45/38 39/50/39
f 30/39/30 29/42/29 36/47/36 37/44/37
f 28/41/28 1/51/1 35/46/35
f 6/52/6 34/36/34 41/49/41
f 33/38/33 32/37/32 39/50/39 40/48/40
f 41/49/41 40/48/40 47/53/47 48/54/48
f 39/50/39 38/45/38 45/55/45 46/56/46
f 37/44/37 36/47/36 43/57/43 44/58/44
f 35/46/35 1/59/1 42/60/42
f 6/61/6 41/49/41 48/54/48
f 40/48/40 39/50/39 46/56/46 47/53/47
f 38/45/38 37/44/37 44/58/44 45/55/45
f 36/47/36 35/46/35 42/60/42 43/57/43
f 44/58/44 43/57/43 50/62/50 51/63/51
f 42/60/42 1/64/1 49/65/49
f 6/66/6 48/54/48 55/67/55
f 47/53/47 46/56/46 53/68/53 54/69/54
f 45/55/45 44/58/44 51/63/51 52/70/52
f 43/57/43 42/60/42 49/65/49 50/62/50
f 48/54/48 47/53/47 54/69/54 55/67/55
f 46/56/46 45/55/45 52/70/52 53/68/53
f 6/71/6 55/67/55 62/72/62
f 54/69/54 53/68/53 60/73/60 61/74/61
f 52/70/52 51/63/51 58/75/58 59/76/59
f 50/62/50 49/65/49 56/77/56 57/78/57
f 55/67/55 54/69/54 61/74/61 62/72/62
f 53/68/53 52/70/52 59/76/59 60/73/60
f 51/63/51 50/62/50 57/78/57 58/75/58
f 49/65/49 1/79/1 56/77/56
f 57/78/57 56/77/56 63/80/63 64/81/64
f 62/72/62 61/74/61 68/82/68 69/83/69
f 60/73/60 59/76/59 66/84/66 67/85/67
f 58/75/58 57/78/57 64/81/64 65/86/65
f 56/77/56 1/87/1 63/80/63
f 6/88/6 62/72/62 69/83/69
f 61/74/61 60/73/60 67/85/67 68/82/68
f 59/76/59 58/75/58 65/86/65 66/84/66
f 69/83/69 68/82/68 75/89/75 76/90/76
f 67/85/67 66/84/66 73/91/73 74/92/74
f 65/86/65 64/81/64 71/93/71 72/94/72
f 63/80/63 1/95/1 70/96/70
f 6/97/6 69/83/69 76/90/76
f 68/82/68 67/85/67 74/92/74 75/89/75
f 66/84/66 65/86/65 72/94/72 73/91/73
f 64/81/64 63/80/63 70/96/70 71/93/71
f 70/96/70 1/98/1 77/99/77
f 6/100/6 76/90/76 83/101/83
f 75/89/75 74/92/74 81/102/81 82/103/82
f 73/91/73 72/94/72 79/104/79 80/105/80
f 71/93/71 70/96/70 77/99/77 78/106/78
f 76/90/76 75/89/75 82/103/82 83/101/83
f 74/92/74 73/91/73 80/105/80 81/102/81
f 72/94/72 71/93/71 78/106/78 79/104/79
f 82/103/82 81/102/81 88/107/88 89/108/89
f 80/105/80 79/104/79 86/109/86 87/110/87
f 78/106/78 77/99/77 84/111/84 85/112/85
f 83/101/83 82/103/82 89/108/89 90/113/90
f 81/102/81 80/105/80 87/110/87 88/107/88
f 79/104/79 78/106/78 85/112/85 86/109/86
f 77/99/77 1/114/1 84/111/84
f 6/115/6 83/101/83 90/113/90
f 90/116/90 89/117/89 96/118/96 97/119/97
f 88/120/88 87/121/87 94/122/94 95/123/95
f 86/124/86 85/125/85 92/126/92 93/127/93
f 84/128/84 1/129/1 91/130/91
f 6/131/6 90/116/90 97/119/97
f 89/117/89 88/120/88 95/123/95 96/118/96
f 87/121/87 86/124/86 93/127/93 94/122/94
f 85/125/85 84/128/84 91/130/91 92/126/92
f 95/123/95 94/122/94 101/132/101 102/133/102
f 93/127/93 92/126/92 99/134/99 100/135/100
f 91/130/91 1/136/1 98/137/98
f 6/138/6 97/119/97 104/139/104
f 96/118/96 95/123/95 102/133/102 103/140/103
f 94/122/94 93/127/93 100/135/100 101/132/101
f 92/126/92 91/130/91 98/137/98 99/134/99
f 97/119/97 96/118/96 103/140/103 104/139/104
f 6/141/6 104/139/104 111/142/111
f 103/140/103 102/133/102 109/143/109 110/144/110
f 101/132/101 100/135/100 107/145/107 108/146/108
f 99/134/99 98/137/98 105/147/105 106/148/106
f 104/139/104 103/140/103 110/144/110 111/142/111
f 102/133/102 101/132/101 108/146/108 109/143/109
f 100/135/100 99/134/99 106/148/106 107/145/107
f 98/137/98 1/149/1 105/147/105
f 108/146/108 107/145/107 2/9/2 3/8/3
f 106/148/106 105/147/105 112/13/112 113/12/113
f 111/142/111 110/144/110 114/4/114 5/2/5
f 109/143/109 108/146/108 3/8/3 4/5/4
f 107/145/107 106/148/106 113/12/113 2/9/2
f 105/147/105 1/150/1 112/13/112
f 6/151/6 111/142/111 5/2/5
f 110/144/110 109/143/109 4/5/4 114/4/114
