# Blender 5.1.0
# www.blender.org
mtllib Bandage.mtl
o Bandage_Bandage_0
v 0.205508 -1.000908 0.097603
v 0.206571 -1.001124 0.100519
v 0.202307 -1.018145 0.098303
v -0.178529 -1.126905 0.099627
v -0.169731 -1.114321 0.092402
v -0.170781 -1.134073 0.094980
v -0.180379 -1.073533 0.103320
v -0.180858 -1.100078 0.106882
v -0.184072 -1.119763 0.106405
v -0.177637 -1.031108 0.122257
v -0.175271 -1.015664 0.116767
v -0.185693 -1.007966 0.117314
v 0.197840 -0.978089 0.094079
v 0.206571 -1.001124 0.100519
v 0.205508 -1.000908 0.097603
v 0.139657 -0.892151 0.090906
v 0.160908 -0.898348 0.086772
v 0.143471 -0.899004 0.089851
v 0.137904 -0.882322 0.085409
v 0.167869 -0.885209 0.087619
v 0.139712 -0.883529 0.085289
v -0.208920 -1.434347 0.104991
v -0.217376 -1.462023 0.101620
v -0.233437 -1.460156 0.109715
v -0.208948 -1.503606 0.107805
v -0.233351 -1.460379 0.110318
v -0.233437 -1.460156 0.109715
v -0.182559 -1.041613 0.125312
v -0.178751 -1.085654 0.116078
v -0.171434 -1.069614 0.121249
v -0.172088 -1.044683 0.124326
v -0.168249 -1.061049 0.139473
v -0.177637 -1.031108 0.122257
v -0.185693 -1.007966 0.117314
v -0.175271 -1.015664 0.116767
v -0.177637 -1.031108 0.122257
v -0.171538 -1.000891 0.120612
v -0.133503 -0.879474 0.116663
v -0.142333 -0.894327 0.122960
v -0.137812 -0.895245 0.122032
v -0.119710 -0.909765 0.130094
v 0.183934 -0.907436 0.111814
v 0.200451 -0.910969 0.115534
v 0.161209 -0.896273 0.111594
v -0.169738 -1.073476 0.092303
v -0.170587 -1.139176 0.078398
v -0.168809 -1.093055 0.074337
v -0.173586 -1.046819 0.079744
v -0.179314 -1.164167 0.100095
v -0.166496 -1.080591 0.053272
v -0.190792 -1.162238 0.104492
v -0.168102 -1.179888 0.083642
v -0.186278 -1.213481 0.098892
v -0.165547 -1.210065 0.060115
v -0.179819 -1.272139 0.102014
v -0.186114 -1.273845 0.107057
v -0.173722 -1.343160 0.094470
v -0.166985 -1.332430 0.046623
v -0.156250 -1.332403 0.030931
v -0.163701 -1.426264 0.046497
v -0.153616 -1.426310 0.030776
v -0.139486 -1.434766 0.018868
v -0.153431 -1.451062 0.038089
v -0.163563 -1.442447 0.061387
v -0.130857 -1.337718 0.009086
v -0.178340 -1.425292 0.091368
v -0.204967 -1.421161 0.104126
v -0.208920 -1.434347 0.104991
v -0.197847 -1.448434 0.091408
v -0.217376 -1.462023 0.101620
v -0.166186 -1.466014 0.052052
v -0.137954 -1.460921 0.025901
v -0.208261 -1.464008 0.087844
v -0.189162 -1.468752 0.068138
v -0.158783 -1.470615 0.042061
v -0.186388 -1.499604 0.092798
v -0.141931 -1.487243 0.060792
v -0.193619 -1.509081 0.105249
v -0.200080 -1.519263 0.106681
v -0.142492 -1.501796 0.105039
v -0.137185 -1.516479 0.108058
v -0.108868 -1.510518 0.104870
v -0.146056 -1.493969 0.092163
v -0.108697 -1.496700 0.101647
v -0.096444 -1.486315 0.048181
v -0.036143 -1.478039 0.100304
v -0.027313 -1.492096 0.104669
v 0.001162 -1.490320 0.106002
v -0.119029 -1.459192 0.016945
v -0.089071 -1.457505 0.014543
v -0.122366 -1.435039 0.011180
v -0.104883 -1.440211 0.009085
v -0.110107 -1.343001 0.002798
v -0.073519 -1.479087 0.046498
v -0.051823 -1.455839 0.012662
v -0.007482 -1.438628 0.006498
v -0.030841 -1.470804 0.046169
v -0.000480 -1.455948 0.011481
v 0.010203 -1.463769 0.045702
v 0.054563 -1.459202 0.014675
v 0.028024 -1.467388 0.083336
v 0.095281 -1.477976 0.046142
v 0.035237 -1.473552 0.100220
v 0.040558 -1.491052 0.103343
v 0.060198 -1.472012 0.083408
v 0.067133 -1.483415 0.100333
v 0.108229 -1.491594 0.111064
v 0.093870 -1.488717 0.098926
v 0.093903 -1.483285 0.085227
v 0.150747 -1.497778 0.085547
v 0.144947 -1.486987 0.050608
v 0.109152 -1.460782 0.017025
v 0.167258 -1.466430 0.034729
v 0.144307 -1.443551 0.012986
v 0.111193 -1.447014 0.010222
v 0.114733 -1.374864 0.004073
v 0.142776 -1.373161 0.007752
v 0.134007 -1.227824 0.002823
v 0.102111 -1.183454 -0.000307
v 0.047435 -1.275671 0.003154
v 0.001348 -0.974356 0.004715
v -0.101274 -1.163978 0.000000
v -0.118669 -1.211861 0.002523
v -0.110130 -0.958529 0.010049
v -0.144391 -1.153350 0.018861
v -0.130918 -1.002837 0.011949
v -0.151695 -0.995895 0.025796
v 0.001385 -0.955463 0.006892
v -0.067757 -0.941921 0.015393
v -0.000454 -0.941505 0.016326
v -0.090700 -0.922621 0.042909
v -0.127594 -0.958789 0.014500
v -0.003776 -0.938159 0.025236
v -0.071874 -0.929260 0.060344
v -0.071873 -0.922222 0.081685
v -0.094571 -0.907925 0.092010
v -0.082228 -0.918952 0.125254
v -0.105322 -0.913134 0.121796
v -0.108696 -0.910273 0.095521
v -0.119253 -0.924424 0.055286
v -0.124110 -0.936106 0.027127
v -0.119710 -0.909765 0.130094
v -0.144926 -0.955319 0.025547
v -0.131750 -0.900873 0.106673
v -0.133503 -0.879474 0.116663
v -0.177772 -0.963403 0.070004
v -0.178259 -0.944954 0.068053
v -0.178201 -1.011120 0.097967
v -0.157981 -0.922325 0.071182
v -0.195904 -0.944435 0.097693
v -0.140198 -0.922451 0.067478
v -0.173419 -0.913028 0.090726
v -0.133123 -0.908421 0.082092
v -0.158062 -0.910297 0.095148
v -0.139590 -0.915346 0.090743
v -0.133371 -0.903125 0.100387
v -0.140632 -0.891825 0.100166
v -0.148558 -0.906964 0.100858
v -0.177108 -0.906388 0.110716
v -0.185481 -0.899503 0.120545
v -0.199618 -0.944512 0.109987
v -0.200288 -0.946079 0.123687
v -0.202464 -0.942669 0.135695
v -0.182557 -0.902144 0.146731
v -0.197839 -0.968625 0.131501
v -0.190486 -0.998410 0.116958
v -0.204718 -0.970618 0.120179
v -0.193471 -1.012869 0.108417
v -0.204718 -0.970618 0.120179
v -0.195514 -0.968738 0.107451
v -0.193471 -1.012869 0.108417
v -0.189055 -0.995343 0.107386
v -0.185840 -1.020138 0.110220
v -0.190553 -1.041789 0.109909
v -0.177798 -1.038140 0.102210
v -0.190151 -1.075356 0.109849
v -0.190600 -1.096468 0.106847
v 0.199317 -0.984455 0.111082
v 0.208974 -0.969194 0.108065
v 0.215327 -0.889483 0.091825
v 0.167869 -0.885209 0.087619
v 0.188924 -0.909748 0.084738
v 0.209895 -0.945357 0.082488
v 0.158470 -0.924051 0.048625
v 0.215327 -0.889483 0.091825
v 0.233437 -0.952728 0.093878
v 0.216547 -0.957828 0.110757
v 0.200451 -0.910969 0.115534
v 0.215327 -0.889483 0.091825
v 0.167869 -0.885209 0.087619
v 0.183714 -0.970731 0.064241
v 0.179159 -0.952998 0.039852
v 0.174801 -0.968964 0.035929
v 0.149080 -0.949907 0.017226
v 0.189395 -0.995449 0.060941
v 0.170665 -0.986787 0.027094
v 0.189326 -1.023760 0.086250
v 0.202331 -1.041673 0.097773
v 0.181368 -1.023817 0.048126
v 0.186374 -1.041417 0.087473
v 0.186024 -1.091033 0.085094
v 0.185032 -1.043502 0.056960
v 0.179256 -1.078845 0.041106
v 0.184655 -1.183480 0.069016
v 0.185512 -1.169080 0.082219
v 0.186257 -1.226487 0.088981
v 0.196015 -1.211961 0.090262
v 0.186024 -1.091033 0.085094
v 0.181967 -1.383812 0.051569
v 0.185549 -1.228034 0.085597
v 0.167267 -1.029239 0.022354
v 0.185635 -1.359200 0.085548
v 0.191382 -1.303759 0.090097
v 0.191285 -1.238366 0.089474
v 0.172326 -1.222462 0.028649
v 0.134007 -1.227824 0.002823
v 0.142776 -1.373161 0.007752
v 0.171914 -1.431716 0.031323
v 0.144307 -1.443551 0.012986
v 0.177371 -1.447722 0.034560
v 0.167258 -1.466430 0.034729
v 0.191734 -1.475504 0.056725
v 0.195010 -1.458709 0.053768
v 0.178791 -1.437164 0.048168
v 0.194689 -1.440185 0.092411
v 0.184012 -1.428283 0.070773
v 0.185078 -1.425089 0.094134
v 0.185566 -1.401372 0.085565
v 0.192246 -1.395860 0.089307
v 0.126875 -1.000954 0.005482
v 0.102111 -1.183454 -0.000307
v 0.001348 -0.974356 0.004715
v 0.119880 -0.967394 0.006405
v 0.001385 -0.955463 0.006892
v 0.107634 -0.946804 0.011629
v 0.135903 -0.932876 0.028807
v 0.052776 -0.945377 0.011769
v -0.000454 -0.941505 0.016326
v 0.100696 -0.933275 0.025432
v 0.139685 -0.917395 0.054011
v 0.122068 -0.925715 0.044607
v 0.116838 -0.916946 0.085829
v 0.081183 -0.915809 0.090787
v 0.074288 -0.924580 0.086297
v 0.091940 -0.926985 0.042779
v 0.051176 -0.931509 0.081637
v 0.052726 -0.938202 0.028574
v -0.003776 -0.938159 0.025236
v -0.071874 -0.929260 0.060344
v 0.042429 -0.933488 0.049512
v -0.011177 -0.932181 0.058457
v -0.071873 -0.922222 0.081685
v 0.014273 -0.929387 0.091080
v 0.036910 -0.921746 0.086593
v 0.069063 -0.908028 0.084402
v 0.001049 -0.929257 0.094335
v 0.107711 -0.896053 0.084723
v 0.029697 -0.920841 0.106325
v 0.035536 -0.920406 0.087075
v -0.029207 -0.915702 0.111426
v -0.036057 -0.921520 0.094106
v -0.082228 -0.918952 0.125254
v -0.048241 -0.914215 0.112885
v -0.046949 -0.924417 0.124755
v -0.127762 -1.325248 0.193255
v -0.104849 -1.319979 0.199038
v -0.125545 -1.226068 0.194461
v -0.146786 -1.321682 0.181475
v -0.139053 -1.000904 0.186024
v -0.109950 -0.971000 0.194642
v -0.129267 -0.960465 0.187439
v -0.125823 -0.946894 0.183767
v -0.147911 -0.950144 0.170227
v -0.153463 -0.963672 0.170611
v -0.156920 -1.257912 0.170824
v -0.167562 -1.400132 0.140535
v -0.180931 -0.958160 0.131278
v -0.164418 -1.254406 0.155255
v -0.165054 -1.016894 0.154975
v -0.170887 -1.309783 0.128155
v -0.171393 -1.264914 0.121191
v -0.172095 -1.159843 0.113770
v -0.168355 -1.105523 0.144673
v -0.176517 -1.123119 0.113803
v -0.168524 -1.094948 0.127103
v -0.172048 -1.029295 0.134115
v -0.171258 -1.041200 0.128464
v -0.171538 -1.000891 0.120612
v -0.162557 -0.975843 0.153349
v -0.168532 -0.982729 0.130162
v -0.197839 -0.968625 0.131501
v -0.175271 -1.015664 0.116767
v -0.133000 -0.932830 0.169801
v -0.169802 -0.935511 0.136638
v -0.202464 -0.942669 0.135695
v -0.164249 -0.919201 0.135401
v -0.182557 -0.902144 0.146731
v -0.173110 -0.908304 0.144843
v -0.173110 -0.908304 0.144843
v -0.167223 -0.895142 0.143953
v -0.182557 -0.902144 0.146731
v -0.173110 -0.908304 0.144843
v -0.167223 -0.895142 0.143953
v -0.164249 -0.919201 0.135401
v -0.119710 -0.909765 0.130094
v -0.185481 -0.899503 0.120545
v -0.182557 -0.902144 0.146731
v -0.120900 -0.926180 0.155359
v -0.105322 -0.913134 0.121796
v -0.103139 -0.924288 0.160567
v -0.133000 -0.932830 0.169801
v -0.083862 -0.930285 0.172595
v -0.092720 -0.916464 0.143028
v -0.082228 -0.918952 0.125254
v -0.071626 -0.925698 0.157046
v -0.046949 -0.924417 0.124755
v 0.015497 -0.947812 0.190235
v -0.092575 -0.946478 0.190129
v -0.125823 -0.946894 0.183767
v -0.147911 -0.950144 0.170227
v -0.109950 -0.971000 0.194642
v -0.064200 -0.990257 0.198208
v -0.125545 -1.226068 0.194461
v -0.104849 -1.319979 0.199038
v 0.001364 -0.958593 0.196497
v 0.089972 -0.967378 0.196623
v 0.135720 -1.084201 0.195817
v 0.086351 -0.953986 0.193164
v 0.154631 -1.172846 0.189149
v 0.165363 -0.999141 0.181613
v 0.147849 -0.972713 0.191206
v 0.173941 -0.965625 0.172552
v 0.149632 -0.953543 0.185828
v 0.175972 -0.936120 0.159065
v 0.139453 -0.938332 0.179233
v 0.164113 -0.919019 0.151186
v 0.183934 -0.907436 0.111814
v 0.171821 -0.910603 0.117450
v 0.129004 -0.924381 0.161854
v 0.115024 -0.915107 0.125129
v 0.077735 -0.929630 0.162381
v 0.026147 -0.928682 0.117745
v 0.118434 -0.907712 0.110500
v 0.165188 -0.903468 0.107163
v 0.152172 -0.894101 0.108038
v 0.146655 -0.885721 0.108848
v 0.070784 -0.923809 0.115923
v 0.110187 -0.900873 0.104675
v -0.029207 -0.915702 0.111426
v 0.029697 -0.920841 0.106325
v 0.069104 -0.912509 0.107148
v 0.035536 -0.920406 0.087075
v 0.069063 -0.908028 0.084402
v 0.137904 -0.882322 0.085409
v 0.147784 -0.886806 0.093683
v 0.167869 -0.885209 0.087619
v 0.200451 -0.910969 0.115534
v 0.161209 -0.896273 0.111594
v -0.127762 -1.325248 0.193255
v -0.111957 -1.433189 0.193360
v -0.027030 -1.419122 0.196171
v -0.105063 -1.464600 0.184500
v -0.043135 -1.457186 0.182475
v 0.086373 -1.397936 0.197984
v -0.099777 -1.476263 0.174145
v -0.041306 -1.466111 0.174282
v 0.135907 -1.394437 0.195369
v 0.156506 -1.390621 0.187912
v 0.151311 -1.447180 0.185651
v -0.100016 -1.499218 0.117269
v -0.050388 -1.476356 0.139396
v -0.006072 -1.472760 0.115774
v 0.010218 -1.462648 0.174731
v -0.027313 -1.492096 0.104669
v -0.108868 -1.510518 0.104870
v 0.001162 -1.490320 0.106002
v 0.036937 -1.469879 0.121287
v 0.040558 -1.491052 0.103343
v 0.108229 -1.491594 0.111064
v 0.086831 -1.478648 0.126789
v 0.058356 -1.469001 0.153587
v 0.134433 -1.485444 0.158578
v 0.108229 -1.491594 0.111064
v 0.072443 -1.455336 0.187930
v 0.015470 -1.418593 0.194193
v 0.127089 -1.442097 0.193277
v 0.155293 -1.459225 0.177723
v 0.121837 -1.457342 0.188261
v 0.186967 -1.505136 0.132377
v 0.201497 -1.516372 0.112516
v 0.151006 -1.510179 0.094773
v 0.202635 -1.520787 0.099621
v 0.093870 -1.488717 0.098926
v 0.189263 -1.510461 0.080369
v 0.150747 -1.497778 0.085547
v 0.202331 -1.041673 0.097773
v 0.192019 -1.032575 0.108617
v 0.201975 -1.073377 0.096211
v 0.195321 -1.005851 0.110500
v 0.186024 -1.091033 0.085094
v 0.202331 -1.041673 0.097773
v 0.199317 -0.984455 0.111082
v 0.186610 -1.103085 0.107649
v 0.196015 -1.211961 0.090262
v 0.187876 -1.062453 0.104945
v 0.185707 -1.355511 0.130124
v 0.197402 -1.256278 0.086535
v 0.199387 -1.367623 0.084680
v 0.182904 -1.048708 0.146433
v 0.189376 -1.415699 0.131898
v 0.179266 -0.986671 0.158781
v 0.165363 -0.999141 0.181613
v 0.173941 -0.965625 0.172552
v 0.174793 -1.046988 0.169171
v 0.184175 -0.984542 0.137302
v 0.154631 -1.172846 0.189149
v 0.167569 -1.190579 0.179517
v 0.216547 -0.957828 0.110757
v 0.208974 -0.969194 0.108065
v 0.156506 -1.390621 0.187912
v 0.200451 -0.910969 0.115534
v 0.175972 -0.936120 0.159065
v 0.183934 -0.907436 0.111814
v 0.172339 -1.445750 0.172464
v 0.151311 -1.447180 0.185651
v 0.155293 -1.459225 0.177723
v 0.209465 -1.480680 0.129683
v 0.186967 -1.505136 0.132377
v 0.201497 -1.516372 0.112516
v 0.223336 -1.486195 0.112514
v 0.202635 -1.520787 0.099621
v 0.219497 -1.462438 0.110839
v 0.225481 -1.486352 0.099049
v 0.213822 -1.482879 0.080625
v 0.189263 -1.510461 0.080369
v 0.191734 -1.475504 0.056725
v 0.217707 -1.461025 0.094232
v 0.194689 -1.440185 0.092411
v 0.212540 -1.460865 0.080624
v 0.195010 -1.458709 0.053768
v 0.189355 -1.437204 0.123404
v 0.202541 -1.436100 0.110974
v 0.185078 -1.425089 0.094134
v 0.185684 -1.425369 0.100908
v 0.192246 -1.395860 0.089307
v 0.170031 -1.500253 0.064238
v 0.188897 -1.328874 0.091316
v 0.189019 -1.357950 0.091165
v 0.185635 -1.359200 0.085548
v 0.189019 -1.357950 0.091165
v 0.191722 -1.357464 0.089988
v 0.188897 -1.328874 0.091316
v -0.217376 -1.462023 0.101620
v -0.200080 -1.519263 0.106681
v -0.205625 -1.430398 0.105217
v -0.204967 -1.421161 0.104126
v -0.233351 -1.460379 0.110318
v 0.192246 -1.395860 0.089307
v 0.199387 -1.367623 0.084680
v 0.191382 -1.303759 0.090097
v 0.197402 -1.256278 0.086535
v 0.191285 -1.238366 0.089474
v 0.196015 -1.211961 0.090262
v -0.190553 -1.041789 0.109909
v -0.182559 -1.041613 0.125312
v -0.185693 -1.007966 0.117314
v -0.190151 -1.075356 0.109849
v -0.190151 -1.075356 0.109849
v -0.178751 -1.085654 0.116078
v -0.190600 -1.096468 0.106847
v -0.184072 -1.119763 0.106405
v -0.176517 -1.123119 0.113803
v -0.182388 -1.158562 0.113859
v -0.190792 -1.162238 0.104492
v -0.186278 -1.213481 0.098892
v -0.172095 -1.159843 0.113770
v -0.184283 -1.270136 0.115080
v -0.186114 -1.273845 0.107057
v -0.171393 -1.264914 0.121191
v -0.174541 -1.298969 0.113239
v -0.170887 -1.309783 0.128155
v -0.190529 -1.318681 0.113339
v -0.192402 -1.322068 0.111732
v -0.173722 -1.343160 0.094470
v -0.206586 -1.396343 0.105404
v -0.170811 -1.357407 0.126129
v -0.167562 -1.400132 0.140535
v -0.204967 -1.421161 0.104126
v -0.185541 -1.463094 0.135300
v -0.183453 -1.447732 0.149099
v 0.172222 -0.905091 0.113540
v -0.177921 -1.043246 0.124186
v -0.183453 -1.447732 0.149099
v -0.160384 -1.417632 0.160031
v -0.144779 -1.429866 0.180389
v -0.111957 -1.433189 0.193360
v -0.145108 -1.473755 0.165162
v -0.185541 -1.463094 0.135300
v -0.105063 -1.464600 0.184500
v -0.099777 -1.476263 0.174145
v -0.135232 -1.489369 0.140802
v -0.100016 -1.499218 0.117269
v -0.177498 -1.496404 0.135531
v -0.133517 -1.499351 0.119067
v -0.108868 -1.510518 0.104870
v -0.137185 -1.516479 0.108058
v -0.192451 -1.500266 0.122169
v -0.137185 -1.516479 0.108058
vn 0.9167 0.0074 -0.3995
vn 0.9840 -0.0361 0.1746
vn 0.5892 -0.0927 0.8026
vn -0.6301 0.0568 -0.7744
vn -0.9414 0.0284 -0.3361
vn -0.8677 0.0704 -0.4921
vn -0.6187 0.0062 -0.7856
vn -0.0526 -0.0555 -0.9971
vn -0.9970 0.0724 -0.0285
vn -0.2006 0.2098 0.9569
vn 0.1315 0.0794 0.9881
vn -0.3669 -0.0433 0.9293
vn 0.9334 -0.0652 -0.3529
vn 0.9840 -0.0361 0.1745
vn 0.9167 0.0074 -0.3996
vn -0.0564 -0.2935 -0.9543
vn 0.0625 0.4433 -0.8942
vn -0.2117 0.4780 -0.8524
vn -0.1077 0.8460 -0.5222
vn 0.1362 0.9557 0.2608
vn 0.0408 -0.0865 -0.9954
vn -0.6702 0.4681 -0.5759
vn -0.5813 0.0041 -0.8137
vn -0.9241 0.1932 -0.3296
vn -0.8712 -0.4849 -0.0765
vn -0.8587 0.0417 0.5108
vn -0.3824 0.0346 0.9233
vn -0.6186 -0.0847 0.7811
vn -0.7030 -0.1234 0.7004
vn -0.5981 -0.3215 0.7341
vn -0.9851 -0.0207 0.1705
vn -0.2006 0.2099 0.9569
vn -0.3669 -0.0434 0.9293
vn -0.9665 0.2036 0.1561
vn -0.6092 -0.1186 0.7841
vn 0.3561 0.9258 0.1267
vn 0.1117 0.7450 0.6576
vn 0.1117 0.3654 0.9241
vn -0.1310 0.3514 0.9270
vn -0.2953 -0.5863 0.7543
vn -0.9439 -0.0654 -0.3238
vn -0.9869 0.0339 -0.1579
vn -0.9963 -0.0046 -0.0856
vn -0.9863 -0.1006 -0.1307
vn -0.5490 0.2870 -0.7850
vn -0.9371 -0.0297 -0.3478
vn -0.9893 0.0627 -0.1314
vn -0.9143 -0.0129 -0.4048
vn -0.9636 -0.0143 -0.2669
vn -0.9822 -0.0008 -0.1879
vn -0.8105 -0.0133 -0.5856
vn -0.9353 0.0397 -0.3516
vn -0.8476 0.0402 -0.5291
vn -0.9241 0.0004 -0.3822
vn -0.7543 0.0038 -0.6565
vn -0.9101 -0.1198 -0.3966
vn -0.7555 -0.0927 -0.6485
vn -0.5524 -0.1514 -0.8197
vn -0.7756 -0.1141 -0.6208
vn -0.8688 0.0614 -0.4914
vn -0.4836 -0.0233 -0.8750
vn -0.7124 0.2005 -0.6725
vn -0.5960 0.0240 -0.8026
vn -0.6702 0.4681 -0.5760
vn -0.5736 0.4364 -0.6932
vn -0.6426 0.4094 -0.6477
vn -0.4300 -0.4865 -0.7606
vn -0.7838 0.0255 -0.6205
vn -0.6774 -0.0172 -0.7355
vn -0.5222 -0.3111 -0.7941
vn -0.3249 -0.7231 -0.6096
vn -0.0870 -0.8996 -0.4281
vn -0.1218 -0.3097 -0.9430
vn -0.4325 -0.8778 -0.2062
vn 0.0418 -0.5597 -0.8276
vn 0.1222 -0.9409 -0.3160
vn 0.1011 -0.9416 -0.3212
vn 0.0730 -0.9316 -0.3561
vn 0.0551 -0.7061 -0.7060
vn 0.0853 -0.9070 -0.4123
vn 0.1419 -0.7536 -0.6419
vn 0.0598 -0.2615 -0.9633
vn -0.0158 -0.9964 -0.0828
vn -0.1967 -0.5403 -0.8182
vn -0.0029 -0.5842 -0.8116
vn -0.2894 -0.1525 -0.9450
vn -0.0871 -0.1991 -0.9761
vn -0.1482 -0.0345 -0.9884
vn 0.1987 -0.9048 -0.3768
vn 0.0158 -0.6240 -0.7813
vn -0.0014 -0.1670 -0.9860
vn 0.1385 -0.9557 -0.2598
vn 0.0269 -0.6904 -0.7229
vn 0.0240 -0.9829 -0.1825
vn -0.0367 -0.6782 -0.7339
vn -0.0341 -0.9812 -0.1897
vn -0.1385 -0.9405 -0.3102
vn -0.0820 -0.6814 -0.7273
vn -0.1214 -0.9477 -0.2953
vn -0.2156 -0.9505 -0.2236
vn -0.1046 -0.7512 -0.6517
vn -0.3021 -0.9351 0.1854
vn -0.2311 -0.9555 -0.1833
vn -0.2389 -0.9310 -0.2758
vn -0.3040 -0.8013 -0.5152
vn -0.0781 -0.8533 -0.5155
vn 0.0361 -0.6536 -0.7560
vn 0.3649 -0.4995 -0.7857
vn 0.3105 -0.2665 -0.9124
vn 0.0618 -0.2823 -0.9573
vn 0.0670 -0.0474 -0.9966
vn 0.3814 -0.0328 -0.9238
vn 0.3237 -0.0067 -0.9462
vn 0.0310 0.0035 -0.9995
vn -0.0070 -0.0114 -0.9999
vn -0.0107 0.0692 -0.9975
vn -0.0981 0.0174 -0.9950
vn -0.3290 0.0004 -0.9443
vn -0.1416 0.2927 -0.9457
vn -0.6890 0.0093 -0.7247
vn -0.3781 0.0436 -0.9248
vn -0.7206 0.0450 -0.6918
vn -0.0119 0.3352 -0.9421
vn -0.0300 0.6307 -0.7754
vn 0.0190 0.7863 -0.6175
vn 0.0411 0.9340 -0.3549
vn -0.3589 0.2806 -0.8902
vn 0.0549 0.9631 -0.2636
vn 0.2733 0.9507 -0.1468
vn 0.2610 0.9495 -0.1744
vn 0.1621 0.9848 -0.0627
vn 0.2179 0.9706 0.1027
vn 0.1807 0.9640 0.1948
vn 0.0602 0.9912 -0.1177
vn -0.1351 0.9183 -0.3720
vn -0.2704 0.7217 -0.6372
vn 0.3469 0.8323 0.4324
vn -0.6121 0.3379 -0.7149
vn 0.6832 0.6562 -0.3202
vn -0.8693 -0.0853 -0.4869
vn -0.7699 0.3063 -0.5599
vn -0.9151 -0.1269 -0.3827
vn -0.3667 0.7591 -0.5379
vn -0.8946 0.1972 -0.4011
vn -0.1777 0.8895 -0.4211
vn -0.4820 0.7162 -0.5046
vn -0.3207 0.8776 -0.3563
vn -0.0725 0.8060 -0.5875
vn -0.3554 0.8440 -0.4018
vn -0.0660 0.7886 -0.6114
vn 0.1205 0.5647 -0.8165
vn 0.2527 0.2683 -0.9296
vn -0.5644 0.5852 -0.5822
vn -0.6627 0.6801 -0.3136
vn -0.9436 0.2669 -0.1959
vn -0.9793 0.1844 -0.0838
vn -0.8185 -0.0134 0.5744
vn -0.5749 0.6612 0.4819
vn -0.4753 -0.2423 0.8458
vn -0.5339 -0.3957 0.7472
vn -0.9907 -0.1364 0.0024
vn -0.5187 -0.3529 0.7787
vn -0.5154 -0.3544 0.7802
vn -0.8353 -0.1370 -0.5325
vn -0.0090 -0.0865 -0.9962
vn -0.4951 -0.1246 -0.8598
vn -0.8801 -0.0232 -0.4743
vn -0.9595 0.0449 -0.2780
vn -0.8335 -0.0244 -0.5519
vn -0.9923 -0.0792 -0.0950
vn -0.2907 -0.0176 -0.9567
vn 0.9206 -0.2450 0.3040
vn 0.7768 -0.5962 -0.2027
vn 0.5449 0.8384 0.0162
vn 0.0898 0.0166 -0.9958
vn 0.2698 0.3905 -0.8802
vn 0.5892 -0.1371 -0.7963
vn 0.3652 0.7087 -0.6036
vn 0.4591 0.1028 -0.8824
vn 0.9194 -0.3388 -0.2000
vn 0.7793 -0.2050 0.5922
vn 0.4729 0.5661 0.6752
vn 0.5449 0.8384 0.0161
vn 0.1362 0.9558 0.2607
vn 0.9111 -0.0948 -0.4012
vn 0.7601 0.1898 -0.6214
vn 0.8163 0.0582 -0.5746
vn 0.3938 0.3613 -0.8452
vn 0.9269 0.0180 -0.3748
vn 0.6893 0.0593 -0.7221
vn 0.8536 -0.1655 -0.4940
vn 0.9956 -0.0523 -0.0772
vn 0.9347 -0.0118 -0.3552
vn 0.8641 -0.0798 -0.4970
vn 0.9601 -0.1202 -0.2526
vn 0.9764 -0.0035 -0.2158
vn 0.9304 -0.0134 -0.3664
vn 0.9921 0.0019 -0.1255
vn 0.9004 0.0057 -0.4351
vn 0.6977 0.0686 -0.7131
vn 0.9154 -0.0343 -0.4011
vn 0.6656 0.0231 -0.7459
vn 0.9621 -0.0085 -0.2726
vn 0.9666 0.0738 -0.2453
vn 0.6423 0.0174 -0.7662
vn 0.9045 0.0056 -0.4265
vn 0.6396 -0.0038 -0.7687
vn 0.5251 0.0278 -0.8506
vn 0.7607 -0.0059 -0.6491
vn 0.3237 -0.0066 -0.9461
vn 0.3815 -0.0328 -0.9238
vn 0.7616 0.0268 -0.6475
vn 0.3106 -0.2665 -0.9124
vn 0.7209 0.0135 -0.6929
vn 0.3650 -0.4995 -0.7857
vn 0.5973 -0.3850 -0.7036
vn 0.8150 0.1342 -0.5636
vn 0.9111 0.2416 -0.3340
vn 0.7625 0.5721 -0.3020
vn 0.9697 0.1400 -0.2005
vn 0.9582 0.2295 -0.1708
vn 0.8911 -0.1007 -0.4424
vn 0.8006 -0.1888 -0.5687
vn 0.2297 0.0536 -0.9718
vn 0.1646 0.1475 -0.9753
vn 0.0578 0.5047 -0.8614
vn 0.1302 0.7705 -0.6240
vn -0.0048 0.6599 -0.7513
vn -0.0128 0.8479 -0.5300
vn -0.1052 0.8845 -0.4545
vn -0.1107 0.9367 -0.3322
vn -0.2442 0.7458 -0.6198
vn 0.0436 0.0329 -0.9985
vn -0.0949 0.7767 -0.6227
vn -0.0910 0.9694 -0.2280
vn -0.0754 0.8626 -0.5002
vn -0.0720 0.9406 -0.3317
vn 0.2732 0.9507 -0.1469
vn -0.0558 0.9865 -0.1543
vn 0.0583 0.9887 -0.1382
vn 0.2609 0.9495 -0.1744
vn -0.1029 0.9579 -0.2681
vn -0.1616 0.1690 -0.9723
vn -0.2243 0.5282 -0.8190
vn 0.0523 0.9389 -0.3403
vn 0.1054 -0.2411 -0.9648
vn -0.1603 0.9705 0.1803
vn -0.3240 0.6960 -0.6408
vn 0.1245 0.9823 0.1399
vn 0.0739 0.9602 -0.2693
vn 0.2178 0.9706 0.1026
vn -0.0672 0.9961 0.0570
vn 0.1350 0.8961 0.4227
vn -0.4030 -0.0336 0.9146
vn -0.1183 -0.0150 0.9929
vn -0.3356 0.0087 0.9420
vn -0.6971 -0.0459 0.7155
vn -0.5264 0.0278 0.8498
vn -0.1672 0.1331 0.9769
vn -0.4036 0.2176 0.8887
vn -0.3116 0.4678 0.8271
vn -0.6441 0.4302 0.6325
vn -0.7309 0.1512 0.6655
vn -0.8169 -0.0064 0.5767
vn -0.8205 0.1542 0.5505
vn -0.2537 -0.2261 0.9405
vn -0.9468 -0.0030 0.3218
vn -0.9112 0.0357 0.4104
vn -0.9017 0.0983 0.4211
vn -0.8091 -0.0037 0.5876
vn -0.6882 -0.0876 0.7202
vn -0.9742 0.0248 0.2244
vn -0.8178 -0.0096 0.5755
vn -0.9436 0.0353 0.3292
vn -0.9899 -0.0038 0.1416
vn -0.9078 -0.1086 0.4052
vn -0.6092 -0.1187 0.7841
vn -0.9033 -0.0823 0.4210
vn -0.8334 -0.2235 0.5055
vn -0.4754 -0.2423 0.8458
vn 0.1315 0.0793 0.9881
vn -0.3338 0.7174 0.6115
vn -0.3175 -0.0086 0.9482
vn -0.8185 -0.0133 0.5743
vn 0.2339 0.1834 0.9548
vn 0.0200 -0.2824 0.9591
vn 0.2963 -0.1973 0.9345
vn 0.2963 -0.1972 0.9345
vn 0.1855 -0.0166 0.9825
vn -0.5749 0.6612 0.4820
vn 0.2964 -0.1973 0.9345
vn 0.2059 0.7953 0.5702
vn 0.2340 0.1834 0.9548
vn 0.3468 0.8323 0.4324
vn -0.5749 0.6613 0.4819
vn -0.0973 0.9221 0.3746
vn 0.1807 0.9640 0.1949
vn -0.0785 0.9098 0.4076
vn -0.3337 0.7175 0.6114
vn 0.0199 0.8514 0.5242
vn 0.0814 0.9700 0.2289
vn 0.2179 0.9706 0.1026
vn 0.1490 0.9512 0.2703
vn 0.1351 0.8962 0.4226
vn 0.0010 0.7668 0.6418
vn -0.0643 0.4954 0.8663
vn -0.3116 0.4679 0.8271
vn -0.1671 0.1331 0.9769
vn -0.0328 0.0620 0.9975
vn -0.3355 0.0087 0.9420
vn -0.1182 -0.0150 0.9929
vn 0.0002 0.2795 0.9601
vn 0.0585 0.1402 0.9884
vn 0.2082 0.0086 0.9780
vn 0.0455 0.4411 0.8963
vn 0.4806 0.0087 0.8769
vn 0.6720 0.0032 0.7406
vn 0.3239 0.1239 0.9380
vn 0.7415 0.0881 0.6651
vn 0.3410 0.3632 0.8671
vn 0.6097 0.4428 0.6574
vn 0.1538 0.6375 0.7550
vn 0.2583 0.8318 0.4914
vn 0.1319 0.8139 0.5658
vn -0.0867 0.8862 0.4552
vn -0.0267 0.8880 0.4591
vn -0.1334 0.9385 0.3184
vn -0.1283 0.9492 0.2875
vn -0.0189 0.9076 0.4195
vn -0.1429 0.6740 0.7248
vn -0.4008 0.0945 0.9113
vn -0.1519 -0.2022 0.9675
vn 0.0730 0.7447 0.6634
vn -0.1301 0.8550 0.5020
vn -0.2120 0.7118 0.6696
vn -0.2114 0.8299 0.5164
vn -0.2244 0.5282 -0.8189
vn 0.2821 0.9362 0.2098
vn 0.1362 0.9558 0.2608
vn 0.4728 0.5661 0.6752
vn -0.2610 -0.1967 0.9451
vn -0.4029 -0.0336 0.9146
vn -0.1993 -0.1831 0.9627
vn 0.0176 -0.1969 0.9803
vn -0.1130 -0.4891 0.8649
vn 0.0773 -0.5147 0.8539
vn 0.0154 -0.0552 0.9984
vn 0.0176 -0.8105 0.5855
vn 0.1078 -0.8381 0.5348
vn 0.2052 -0.0357 0.9781
vn 0.5173 -0.0247 0.8555
vn 0.3564 -0.2885 0.8887
vn 0.1265 -0.8528 0.5067
vn 0.2501 -0.9370 0.2441
vn 0.0701 -0.8250 0.5608
vn 0.0167 -0.8037 0.5948
vn 0.1468 -0.6201 0.7707
vn -0.0159 -0.9964 -0.0827
vn -0.0829 -0.8775 0.4724
vn -0.1214 -0.9477 -0.2952
vn -0.0720 -0.8159 0.5737
vn -0.1955 -0.9135 0.3569
vn -0.1253 -0.9624 0.2412
vn -0.0755 -0.8415 0.5350
vn -0.0868 -0.6009 0.7946
vn 0.0086 -0.3363 0.9417
vn 0.1373 -0.2202 0.9657
vn 0.3433 -0.5002 0.7950
vn 0.0764 -0.5326 0.8429
vn 0.2350 -0.7220 0.6507
vn 0.3478 -0.8176 0.4588
vn -0.3049 -0.9121 -0.2740
vn 0.3845 -0.9149 -0.1227
vn 0.1844 -0.7670 -0.6146
vn -0.3040 -0.8013 -0.5153
vn 0.9956 -0.0524 -0.0773
vn 0.8673 -0.0862 0.4902
vn 0.9923 -0.1218 -0.0204
vn 0.8314 -0.1551 0.5336
vn 0.9601 -0.1203 -0.2526
vn 0.9956 -0.0524 -0.0772
vn 0.9206 -0.2451 0.3040
vn 0.9944 -0.0418 0.0966
vn 0.9154 -0.0342 -0.4012
vn 0.8069 -0.0978 0.5826
vn 0.9564 0.0200 0.2914
vn 0.9612 0.0078 0.2757
vn 0.9768 -0.0223 0.2132
vn 0.9664 -0.0252 0.2559
vn 0.9735 -0.0308 0.2267
vn 0.9358 0.0217 0.3518
vn 0.6720 0.0032 0.7405
vn 0.7416 0.0881 0.6650
vn 0.8660 -0.0138 0.4998
vn 0.9159 -0.1351 0.3780
vn 0.4807 0.0087 0.8769
vn 0.7699 0.0051 0.6382
vn 0.7793 -0.2050 0.5921
vn 0.7769 -0.5962 -0.2026
vn 0.5173 -0.0247 0.8554
vn 0.4729 0.5662 0.6752
vn 0.6098 0.4427 0.6574
vn 0.1318 0.8139 0.5658
vn 0.7089 -0.1125 0.6963
vn 0.3434 -0.5002 0.7950
vn 0.7103 -0.1682 0.6835
vn 0.2351 -0.7220 0.6508
vn 0.8913 -0.2004 0.4067
vn 0.8820 0.4088 0.2343
vn 0.9616 -0.1887 -0.1991
vn 0.7595 -0.2105 -0.6155
vn 0.1845 -0.7670 -0.6146
vn 0.8532 0.4770 -0.2108
vn 0.8159 0.3747 -0.4404
vn 0.8151 0.1341 -0.5636
vn 0.8510 0.4124 0.3251
vn 0.7165 0.6748 0.1767
vn 0.9582 0.2294 -0.1708
vn 0.9382 0.3462 -0.0028
vn -0.0121 -0.8357 -0.5491
vn 0.9932 -0.0937 -0.0691
vn 0.8559 0.0063 -0.5171
vn -0.2132 0.9730 -0.0882
vn -0.3873 0.6995 -0.6006
vn -0.3419 0.1715 -0.9240
vn -0.5126 0.0067 -0.8586
vn -0.4325 -0.8777 -0.2062
vn -0.5362 0.2205 0.8148
vn -0.2221 0.1300 0.9663
vn 0.8006 -0.1887 -0.5687
vn 0.9044 0.0056 -0.4266
vn -0.5627 0.0028 -0.8267
vn -0.5301 0.0043 -0.8480
vn -0.4402 -0.0003 -0.8979
vn -0.2749 0.0635 -0.9594
vn -0.2489 0.0734 -0.9657
vn -0.9595 0.0449 -0.2781
vn -0.3668 -0.0433 0.9293
vn -0.8875 -0.0114 0.4607
vn -0.9923 -0.0791 -0.0950
vn -0.6186 -0.0847 0.7812
vn -0.3825 0.0346 0.9233
vn -0.5233 -0.1436 0.8400
vn -0.9970 0.0724 -0.0286
vn -0.8177 -0.0096 0.5755
vn -0.4059 -0.0648 0.9116
vn -0.9636 -0.0144 -0.2669
vn -0.6883 -0.0876 0.7202
vn -0.7435 -0.0038 0.6687
vn -0.8091 -0.0038 0.5877
vn -0.5863 0.1166 0.8017
vn -0.9017 0.0983 0.4212
vn -0.6209 0.0885 0.7789
vn -0.9935 0.1075 -0.0368
vn -0.8475 0.0402 -0.5292
vn -0.9833 0.0936 -0.1559
vn -0.8156 0.0350 0.5776
vn -0.8204 0.1542 0.5506
vn -0.5961 0.0240 -0.8025
vn -0.6659 -0.1782 0.7245
vn -0.7657 -0.0821 0.6380
vn -0.0907 0.4551 0.8858
vn -0.0249 -0.0669 0.9974
vn -0.7656 -0.0822 0.6380
vn -0.7717 0.1893 0.6071
vn -0.5466 -0.0929 0.8322
vn -0.1994 -0.1831 0.9627
vn -0.3338 -0.5725 0.7489
vn -0.6658 -0.1782 0.7245
vn -0.1131 -0.4891 0.8648
vn 0.0175 -0.8105 0.5855
vn 0.0139 -0.8894 0.4570
vn -0.3609 -0.6443 0.6743
vn 0.0826 -0.7805 0.6196
vn 0.1010 -0.9416 -0.3212
vn 0.1222 -0.9409 -0.3159
vn -0.3529 -0.4974 0.7925
vn 0.0112 -0.6345 0.7728
vt 0.871094 0.152222
vt 0.874023 0.151367
vt 0.875488 0.169189
vt 0.603516 0.958496
vt 0.594727 0.951172
vt 0.607910 0.952148
vt 0.566406 0.961426
vt 0.584961 0.962402
vt 0.598633 0.965820
vt 0.540039 0.975586
vt 0.528320 0.983887
vt 0.519043 0.978027
vt 0.850098 0.137939
vt 0.861328 0.156860
vt 0.858398 0.157837
vt 0.791504 0.055450
vt 0.806152 0.068787
vt 0.792480 0.060486
vt 0.795898 0.044281
vt 0.814453 0.060303
vt 0.795410 0.047943
vt 0.218018 0.313965
vt 0.202026 0.300049
vt 0.209351 0.289307
vt 0.100952 0.312988
vt 0.080688 0.345703
vt 0.078918 0.344482
vt 0.065857 0.678223
vt 0.069031 0.643555
vt 0.074280 0.656738
vt 0.073608 0.675781
vt 0.086487 0.665039
vt 0.068848 0.686523
vt 0.061096 0.702148
vt 0.064331 0.698730
vt 0.067200 0.709961
vt 0.035767 0.046600
vt 0.044586 0.036102
vt 0.047729 0.041107
vt 0.059326 0.055695
vt 0.026932 0.301514
vt 0.024109 0.314941
vt 0.025803 0.282471
vt 0.566406 0.951660
vt 0.612305 0.940918
vt 0.579590 0.938965
vt 0.546875 0.943359
vt 0.629395 0.957031
vt 0.570801 0.923828
vt 0.628906 0.966309
vt 0.641113 0.943848
vt 0.665039 0.960938
vt 0.662109 0.927246
vt 0.706543 0.958008
vt 0.708008 0.963867
vt 0.758301 0.951172
vt 0.748535 0.917480
vt 0.748047 0.903809
vt 0.815430 0.911621
vt 0.814453 0.898438
vt 0.819336 0.885254
vt 0.832520 0.899414
vt 0.828125 0.918945
vt 0.750977 0.879883
vt 0.817383 0.945312
vt 0.818359 0.966797
vt 0.831543 0.968750
vt 0.840820 0.951172
vt 0.860352 0.964355
vt 0.845215 0.910156
vt 0.836914 0.883789
vt 0.857422 0.950684
vt 0.854980 0.929199
vt 0.846191 0.900391
vt 0.887207 0.929688
vt 0.867676 0.890625
vt 0.898438 0.937988
vt 0.907227 0.944336
vt 0.902344 0.895508
vt 0.915527 0.893555
vt 0.912109 0.871094
vt 0.891602 0.896484
vt 0.901855 0.868652
vt 0.863281 0.857422
vt 0.900391 0.813965
vt 0.912598 0.809570
vt 0.912598 0.787109
vt 0.833984 0.870117
vt 0.833984 0.849121
vt 0.818848 0.872070
vt 0.822266 0.859863
vt 0.754395 0.864258
vt 0.861816 0.840332
vt 0.833496 0.822754
vt 0.820801 0.791504
vt 0.861328 0.809570
vt 0.834473 0.786621
vt 0.860352 0.779297
vt 0.836914 0.747559
vt 0.887695 0.767090
vt 0.862793 0.718262
vt 0.899902 0.762207
vt 0.911621 0.757812
vt 0.888184 0.744629
vt 0.902344 0.738770
vt 0.908203 0.707520
vt 0.900879 0.719727
vt 0.890625 0.720215
vt 0.893555 0.680176
vt 0.868164 0.682129
vt 0.837891 0.708984
vt 0.848633 0.664062
vt 0.824219 0.683105
vt 0.826172 0.707520
vt 0.774902 0.706055
vt 0.773438 0.685547
vt 0.671387 0.693359
vt 0.640625 0.716797
vt 0.706055 0.753906
vt 0.495117 0.789551
vt 0.628906 0.859375
vt 0.662598 0.871582
vt 0.485107 0.868164
vt 0.622070 0.893555
vt 0.516113 0.882812
vt 0.511230 0.900391
vt 0.480957 0.790039
vt 0.471191 0.839355
vt 0.467285 0.791016
vt 0.447754 0.859375
vt 0.485840 0.880371
vt 0.460205 0.793945
vt 0.433594 0.844238
vt 0.413330 0.849609
vt 0.407227 0.874023
vt 0.376465 0.864746
vt 0.381836 0.885254
vt 0.407471 0.886719
vt 0.445312 0.885254
vt 0.466797 0.881348
vt 0.374512 0.899414
vt 0.483398 0.895020
vt 0.400146 0.911133
vt 0.387451 0.932617
vt 0.486816 0.936035
vt 0.471680 0.933105
vt 0.520996 0.956543
vt 0.449707 0.920898
vt 0.468506 0.959473
vt 0.444092 0.906738
vt 0.440918 0.941406
vt 0.424805 0.905762
vt 0.429688 0.932617
vt 0.425781 0.916504
vt 0.409912 0.913574
vt 0.407471 0.925293
vt 0.421387 0.924805
vt 0.429932 0.957031
vt 0.423828 0.970215
vt 0.467773 0.969727
vt 0.466797 0.981934
vt 0.462402 0.992676
vt 0.419678 0.995605
vt 0.487549 0.990723
vt 0.511719 0.979980
vt 0.488037 0.979492
vt 0.520020 0.970215
vt 0.488037 0.966797
vt 0.508301 0.965332
vt 0.527344 0.969238
vt 0.543457 0.970215
vt 0.540527 0.959473
vt 0.567383 0.970703
vt 0.582520 0.969727
vt 0.865723 0.140259
vt 0.860840 0.127686
vt 0.846680 0.072144
vt 0.825195 0.083496
vt 0.839844 0.111267
vt 0.792480 0.100281
vt 0.855957 0.113159
vt 0.869141 0.113464
vt 0.868652 0.079895
vt 0.864258 0.046722
vt 0.823730 0.136597
vt 0.803711 0.125732
vt 0.801758 0.138062
vt 0.776855 0.125488
vt 0.825195 0.157227
vt 0.795410 0.152222
vt 0.844727 0.180420
vt 0.861328 0.194458
vt 0.814453 0.180664
vt 0.845703 0.194702
vt 0.842773 0.234253
vt 0.821777 0.195923
vt 0.808594 0.223633
vt 0.828125 0.304932
vt 0.838379 0.294434
vt 0.840820 0.338379
vt 0.848145 0.327393
vt 0.809082 0.458740
vt 0.839355 0.339355
vt 0.791504 0.185181
vt 0.835938 0.440430
vt 0.841309 0.398193
vt 0.842773 0.347656
vt 0.793457 0.333740
vt 0.756836 0.336670
vt 0.761230 0.448975
vt 0.789551 0.495117
vt 0.763184 0.503418
vt 0.793457 0.508301
vt 0.785645 0.523438
vt 0.810059 0.534180
vt 0.812500 0.519531
vt 0.804688 0.499756
vt 0.841309 0.502441
vt 0.823242 0.493408
vt 0.840820 0.490234
vt 0.834961 0.473145
vt 0.839844 0.468994
vt 0.758301 0.162476
vt 0.733398 0.301758
vt 0.662598 0.137939
vt 0.754395 0.136963
vt 0.663574 0.122437
vt 0.746582 0.120667
vt 0.770508 0.109131
vt 0.704102 0.115723
vt 0.661621 0.107178
vt 0.743652 0.105896
vt 0.779785 0.089478
vt 0.763184 0.094482
vt 0.766113 0.062225
vt 0.740723 0.049866
vt 0.732422 0.054871
vt 0.739746 0.091187
vt 0.711426 0.055145
vt 0.706543 0.100098
vt 0.658691 0.097534
vt 0.604980 0.059723
vt 0.700195 0.080688
vt 0.655762 0.067505
vt 0.606934 0.040527
vt 0.680664 0.042694
vt 0.702148 0.044067
vt 0.733398 0.038055
vt 0.670410 0.038483
vt 0.767090 0.044556
vt 0.694336 0.026901
vt 0.701172 0.041931
vt 0.645996 0.018127
vt 0.638184 0.033447
vt 0.602051 0.000940
vt 0.630371 0.014084
vt 0.633301 0.000517
vt 0.168091 0.468994
vt 0.186035 0.475586
vt 0.159912 0.545898
vt 0.149902 0.469727
vt 0.124939 0.717285
vt 0.145752 0.743652
vt 0.128052 0.749512
vt 0.127441 0.761230
vt 0.106628 0.755371
vt 0.104858 0.743652
vt 0.132080 0.517090
vt 0.122681 0.405029
vt 0.067017 0.745605
vt 0.118042 0.518066
vt 0.094727 0.700684
vt 0.102844 0.472900
vt 0.092712 0.506348
vt 0.076904 0.586426
vt 0.094788 0.631348
vt 0.072510 0.614746
vt 0.080261 0.638184
vt 0.078735 0.688965
vt 0.075684 0.679199
vt 0.090088 0.732422
vt 0.072571 0.724609
vt 0.052307 0.738770
vt 0.062561 0.699707
vt 0.112671 0.772949
vt 0.073792 0.765137
vt 0.048340 0.758789
vt 0.076538 0.778809
vt 0.062500 0.791504
vt 0.070007 0.786133
vt 0.065186 0.011620
vt 0.053802 0.013451
vt 0.061768 0.002594
vt 0.071289 0.022522
vt 0.032074 0.005402
vt 0.052032 0.000517
vt 0.082214 0.056824
vt 0.053070 0.067322
vt 0.084351 0.071106
vt 0.096191 0.048676
vt 0.093384 0.086914
vt 0.068787 0.078247
vt 0.054993 0.086731
vt 0.080139 0.095886
vt 0.055115 0.114746
vt 0.107605 0.165283
vt 0.112732 0.081360
vt 0.111755 0.055023
vt 0.108032 0.034271
vt 0.133057 0.068604
vt 0.146484 0.105164
vt 0.331543 0.065674
vt 0.403564 0.085876
vt 0.119202 0.154785
vt 0.122925 0.223877
vt 0.211792 0.263916
vt 0.112427 0.220581
vt 0.279785 0.283203
vt 0.144409 0.286865
vt 0.124695 0.269287
vt 0.114014 0.294678
vt 0.109131 0.270020
vt 0.084839 0.293701
vt 0.095825 0.261719
vt 0.070312 0.281494
vt 0.039337 0.299805
vt 0.042633 0.288574
vt 0.078308 0.253418
vt 0.048096 0.242188
vt 0.080872 0.213379
vt 0.048676 0.171387
vt 0.035553 0.245239
vt 0.033813 0.282959
vt 0.027267 0.272949
vt 0.020844 0.269287
vt 0.044708 0.205811
vt 0.026947 0.238403
vt 0.041199 0.127563
vt 0.037140 0.173218
vt 0.033569 0.204834
vt 0.021072 0.175049
vt 0.013779 0.202148
vt 0.003405 0.260010
vt 0.008827 0.270020
vt 0.000517 0.283447
vt 0.408691 0.067566
vt 0.491699 0.084534
vt 0.477539 0.149902
vt 0.516602 0.090881
vt 0.510254 0.138672
vt 0.456787 0.237183
vt 0.527832 0.095764
vt 0.520020 0.140503
vt 0.452148 0.275391
vt 0.448486 0.292725
vt 0.493164 0.290771
vt 0.574219 0.099854
vt 0.549316 0.136841
vt 0.562500 0.172241
vt 0.515625 0.180908
vt 0.579102 0.155640
vt 0.587891 0.093323
vt 0.577637 0.178223
vt 0.556152 0.203369
vt 0.577148 0.207886
vt 0.568359 0.257568
vt 0.553711 0.240601
vt 0.532227 0.218994
vt 0.531738 0.278564
vt 0.502930 0.229126
vt 0.476807 0.183228
vt 0.489014 0.270508
vt 0.505859 0.293701
vt 0.501465 0.266846
vt 0.554199 0.320068
vt 0.571777 0.331543
vt 0.584961 0.291504
vt 0.583496 0.333008
vt 0.577148 0.245972
vt 0.599121 0.319824
vt 0.595703 0.287354
vt 0.874512 0.191406
vt 0.889648 0.182983
vt 0.873535 0.221191
vt 0.889160 0.156860
vt 0.868652 0.240479
vt 0.861328 0.199951
vt 0.886719 0.135864
vt 0.891602 0.251465
vt 0.876953 0.357178
vt 0.889160 0.211670
vt 0.923340 0.494629
vt 0.874023 0.400391
vt 0.875977 0.508789
vt 0.927246 0.196655
vt 0.926758 0.553711
vt 0.937012 0.135986
vt 0.964355 0.146729
vt 0.950684 0.114380
vt 0.950684 0.193848
vt 0.916016 0.135254
vt 0.984375 0.314697
vt 0.968750 0.332520
vt 0.878418 0.106567
vt 0.878418 0.120789
vt 0.990723 0.525879
vt 0.891602 0.059174
vt 0.939941 0.084351
vt 0.902832 0.045410
vt 0.971191 0.580566
vt 0.995117 0.581055
vt 0.987793 0.592285
vt 0.929199 0.619141
vt 0.948242 0.639648
vt 0.926758 0.649902
vt 0.914551 0.624512
vt 0.916016 0.653809
vt 0.907715 0.607910
vt 0.907227 0.626465
vt 0.893555 0.631348
vt 0.897949 0.657227
vt 0.868652 0.642090
vt 0.895996 0.611328
vt 0.884277 0.586914
vt 0.887207 0.615234
vt 0.858887 0.623535
vt 0.922363 0.576172
vt 0.905273 0.583008
vt 0.887695 0.565918
vt 0.895996 0.564941
vt 0.882324 0.537109
vt 0.883301 0.665527
vt 0.839844 0.417480
vt 0.839355 0.438965
vt 0.840332 0.438965
vt 0.073425 0.332275
vt 0.107788 0.300781
vt 0.220703 0.316650
vt 0.213867 0.322510
vt 0.211182 0.288574
vt 0.841797 0.470703
vt 0.848633 0.447754
vt 0.848145 0.361572
vt 0.192871 0.636719
vt 0.215820 0.638184
vt 0.203003 0.677246
vt 0.195923 0.598145
vt 0.212646 0.586426
vt 0.195068 0.574707
vt 0.201050 0.551270
vt 0.212402 0.548340
vt 0.209473 0.518555
vt 0.198364 0.514648
vt 0.202271 0.474365
vt 0.217407 0.516602
vt 0.217041 0.430420
vt 0.208984 0.427490
vt 0.226685 0.435303
vt 0.224731 0.411865
vt 0.234009 0.405762
vt 0.217163 0.396240
vt 0.214233 0.393311
vt 0.195312 0.378906
vt 0.216675 0.339844
vt 0.238770 0.372559
vt 0.253418 0.344727
vt 0.249512 0.295166
vt 0.257568 0.308105
vt 0.036499 0.289307
vt 0.070129 0.677246
vt 0.126587 0.365723
vt 0.140381 0.393311
vt 0.161865 0.386230
vt 0.190063 0.386963
vt 0.161499 0.350098
vt 0.121826 0.350098
vt 0.195312 0.361084
vt 0.197998 0.347900
vt 0.165405 0.325684
vt 0.188721 0.301025
vt 0.132324 0.326172
vt 0.163208 0.307373
vt 0.179199 0.288574
vt 0.156738 0.291992
vt 0.117981 0.319580
s 1
usemtl Bandage.002
f 1/1/1 2/2/2 3/3/3
f 4/4/4 5/5/5 6/6/6
f 7/7/7 8/8/8 9/9/9
f 10/10/10 11/11/11 12/12/12
f 13/13/13 14/14/14 15/15/15
f 16/16/16 17/17/17 18/18/18
f 19/19/19 20/20/20 21/21/21
f 22/22/22 23/23/23 24/24/24
f 25/25/25 26/26/26 27/27/24
f 28/28/27 29/29/28 30/30/29
f 31/31/30 30/30/29 32/32/31
f 33/33/32 34/34/33 28/28/27
f 35/35/34 36/33/34 37/36/35
f 38/37/36 39/38/37 40/39/38
f 41/40/39 38/37/36 40/39/38
s 0
f 42/41/40 43/42/40 44/43/40
s 1
f 8/8/8 5/5/5 4/4/4
f 8/8/8 45/44/41 5/5/5
f 45/44/41 8/8/8 7/7/7
f 45/44/41 46/45/42 5/5/5
f 5/5/5 46/45/42 6/6/6
f 47/46/43 46/45/42 45/44/41
f 47/46/43 45/44/41 48/47/44
f 6/6/6 46/45/42 49/48/45
f 6/6/6 49/48/45 4/4/4
f 50/49/46 46/45/42 47/46/43
f 47/46/43 48/47/44 50/49/46
f 4/4/4 49/48/45 51/50/47
f 52/51/48 49/48/45 46/45/42
f 52/51/48 51/50/47 49/48/45
f 4/4/4 51/50/47 9/9/9
f 8/8/8 4/4/4 9/9/9
f 51/50/47 52/51/48 53/52/49
f 54/53/50 52/51/48 46/45/42
f 50/49/46 54/53/50 46/45/42
f 52/51/48 55/54/51 53/52/49
f 53/52/49 55/54/51 56/55/52
f 57/56/53 56/55/52 55/54/51
f 52/51/48 58/57/54 55/54/51
f 57/56/53 55/54/51 58/57/54
f 54/53/50 58/57/54 52/51/48
f 59/58/55 58/57/54 54/53/50
f 50/49/46 59/58/55 54/53/50
f 58/57/54 60/59/56 57/56/53
f 61/60/57 58/57/54 59/58/55
f 58/57/54 61/60/57 60/59/56
f 61/60/57 59/58/55 62/61/58
f 61/60/57 63/62/59 60/59/56
f 62/61/58 63/62/59 61/60/57
f 60/59/56 63/62/59 64/63/60
f 62/61/58 59/58/55 65/64/61
f 60/59/56 64/63/60 66/65/62
f 66/65/62 57/56/53 60/59/56
f 57/56/53 66/65/62 67/66/63
f 67/66/63 66/65/62 68/67/64
f 68/67/64 66/65/62 69/68/65
f 64/63/60 69/68/65 66/65/62
f 68/67/64 69/68/65 70/69/23
f 63/62/59 71/70/66 64/63/60
f 71/70/66 69/68/65 64/63/60
f 62/61/58 72/71/67 63/62/59
f 72/71/67 71/70/66 63/62/59
f 69/68/65 73/72/68 70/69/23
f 71/70/66 74/73/69 69/68/65
f 74/73/69 73/72/68 69/68/65
f 75/74/70 74/73/69 71/70/66
f 75/74/70 71/70/66 72/71/67
f 76/75/71 73/72/68 74/73/69
f 75/74/70 76/75/71 74/73/69
f 76/75/71 70/69/23 73/72/68
f 75/74/70 72/71/67 77/76/72
f 75/74/70 77/76/72 76/75/71
f 78/77/73 70/69/23 76/75/71
f 78/77/73 79/78/74 70/69/23
f 80/79/75 79/78/74 78/77/73
f 78/77/73 76/75/71 80/79/75
f 80/79/75 81/80/76 79/78/74
f 80/79/75 82/81/77 81/80/76
f 83/82/78 80/79/75 76/75/71
f 83/82/78 76/75/71 77/76/72
f 80/79/75 84/83/79 82/81/77
f 83/82/78 84/83/79 80/79/75
f 85/84/80 83/82/78 77/76/72
f 84/83/79 83/82/78 85/84/80
f 86/85/81 82/81/77 84/83/79
f 86/85/81 84/83/79 85/84/80
f 86/85/81 87/86/82 82/81/77
f 87/86/82 86/85/81 88/87/83
f 77/76/72 89/88/84 85/84/80
f 89/88/84 77/76/72 72/71/67
f 85/84/80 89/88/84 90/89/85
f 91/90/86 89/88/84 72/71/67
f 62/61/58 91/90/86 72/71/67
f 91/90/86 62/61/58 65/64/61
f 91/90/86 92/91/87 89/88/84
f 92/91/87 90/89/85 89/88/84
f 65/64/61 93/92/88 91/90/86
f 93/92/88 92/91/87 91/90/86
f 94/93/89 85/84/80 90/89/85
f 85/84/80 94/93/89 86/85/81
f 92/91/87 95/94/90 90/89/85
f 94/93/89 90/89/85 95/94/90
f 96/95/91 95/94/90 92/91/87
f 96/95/91 92/91/87 93/92/88
f 97/96/92 94/93/89 95/94/90
f 97/96/92 86/85/81 94/93/89
f 98/97/93 97/96/92 95/94/90
f 96/95/91 98/97/93 95/94/90
f 97/96/92 99/98/94 86/85/81
f 99/98/94 97/96/92 98/97/93
f 96/95/91 100/99/95 98/97/93
f 100/99/95 99/98/94 98/97/93
f 99/98/94 101/100/96 86/85/81
f 102/101/97 99/98/94 100/99/95
f 102/101/97 101/100/96 99/98/94
f 103/102/98 86/85/81 101/100/96
f 86/85/81 103/102/98 88/87/83
f 88/87/83 103/102/98 104/103/99
f 102/101/97 105/104/100 101/100/96
f 101/100/96 105/104/100 103/102/98
f 106/105/101 104/103/99 103/102/98
f 107/106/102 104/103/99 106/105/101
f 108/107/103 107/106/102 106/105/101
f 109/108/104 103/102/98 105/104/100
f 109/108/104 106/105/101 103/102/98
f 109/108/104 105/104/100 102/101/97
f 106/105/101 109/108/104 108/107/103
f 108/107/103 109/108/104 110/109/105
f 109/108/104 102/101/97 111/110/106
f 109/108/104 111/110/106 110/109/105
f 102/101/97 100/99/95 112/111/107
f 111/110/106 102/101/97 112/111/107
f 96/95/91 112/111/107 100/99/95
f 113/112/108 111/110/106 112/111/107
f 113/112/108 112/111/107 114/113/109
f 114/113/109 112/111/107 115/114/110
f 112/111/107 96/95/91 115/114/110
f 116/115/111 115/114/110 96/95/91
f 114/113/109 115/114/110 116/115/111
f 93/92/88 116/115/111 96/95/91
f 117/116/112 114/113/109 116/115/111
f 118/117/113 117/116/112 116/115/111
f 119/118/114 118/117/113 116/115/111
f 120/119/115 119/118/114 116/115/111
f 120/119/115 116/115/111 93/92/88
f 121/120/116 119/118/114 120/119/115
f 120/119/115 122/121/117 121/120/116
f 122/121/117 120/119/115 93/92/88
f 123/122/118 122/121/117 93/92/88
f 93/92/88 65/64/61 123/122/118
f 124/123/119 121/120/116 122/121/117
f 125/124/120 123/122/118 65/64/61
f 125/124/120 65/64/61 59/58/55
f 125/124/120 59/58/55 50/49/46
f 126/125/121 122/121/117 123/122/118
f 123/122/118 125/124/120 126/125/121
f 122/121/117 126/125/121 124/123/119
f 50/49/46 127/126/122 125/124/120
f 127/126/122 126/125/121 125/124/120
f 128/127/123 121/120/116 124/123/119
f 124/123/119 129/128/124 128/127/123
f 129/128/124 130/129/125 128/127/123
f 131/130/126 130/129/125 129/128/124
f 132/131/127 124/123/119 126/125/121
f 131/130/126 133/132/128 130/129/125
f 131/130/126 134/133/129 133/132/128
f 135/134/130 134/133/129 131/130/126
f 135/134/130 131/130/126 136/135/131
f 137/136/132 135/134/130 136/135/131
f 137/136/132 136/135/131 138/137/133
f 138/137/133 136/135/131 139/138/134
f 136/135/131 131/130/126 140/139/135
f 136/135/131 140/139/135 139/138/134
f 131/130/126 129/128/124 141/140/136
f 131/130/126 141/140/136 140/139/135
f 124/123/119 141/140/136 129/128/124
f 132/131/127 141/140/136 124/123/119
f 142/141/137 138/137/133 139/138/134
f 132/131/127 143/142/138 141/140/136
f 143/142/138 132/131/127 126/125/121
f 143/142/138 126/125/121 127/126/122
f 139/138/134 144/143/139 142/141/137
f 142/141/137 144/143/139 145/144/36
f 143/142/138 127/126/122 146/145/140
f 146/145/140 127/126/122 50/49/46
f 146/145/140 50/49/46 48/47/44
f 147/146/141 143/142/138 146/145/140
f 143/142/138 147/146/141 141/140/136
f 146/145/140 48/47/44 148/147/142
f 149/148/143 141/140/136 147/146/141
f 147/146/141 146/145/140 150/149/144
f 149/148/143 147/146/141 150/149/144
f 151/150/145 141/140/136 149/148/143
f 151/150/145 140/139/135 141/140/136
f 150/149/144 152/151/146 149/148/143
f 140/139/135 151/150/145 153/152/147
f 140/139/135 153/152/147 139/138/134
f 144/143/139 139/138/134 153/152/147
f 151/150/145 149/148/143 154/153/148
f 154/153/148 149/148/143 152/151/146
f 151/150/145 155/154/149 153/152/147
f 155/154/149 151/150/145 154/153/148
f 153/152/147 156/155/150 144/143/139
f 155/154/149 156/155/150 153/152/147
f 144/143/139 156/155/150 157/156/151
f 157/156/151 145/144/36 144/143/139
f 155/154/149 158/157/152 156/155/150
f 157/156/151 156/155/150 158/157/152
f 158/157/152 155/154/149 154/153/148
f 157/156/151 158/157/152 154/153/148
f 159/158/153 145/144/36 157/156/151
f 159/158/153 157/156/151 154/153/148
f 152/151/146 159/158/153 154/153/148
f 159/158/153 160/159/154 145/144/36
f 161/160/155 159/158/153 152/151/146
f 161/160/155 152/151/146 150/149/144
f 160/159/154 159/158/153 162/161/156
f 161/160/155 162/161/156 159/158/153
f 160/159/154 163/162/157 164/163/158
f 163/162/157 160/159/154 162/161/156
f 162/161/156 165/164/159 163/162/157
f 166/165/160 11/11/11 165/164/159
f 165/164/159 162/161/156 167/166/161
f 161/160/155 167/166/161 162/161/156
f 165/164/159 167/166/161 166/165/160
f 168/167/162 166/165/160 169/166/163
f 167/166/161 161/160/155 170/168/164
f 170/168/164 161/160/155 150/149/144
f 167/166/161 170/168/164 171/167/165
f 170/168/164 172/169/166 171/167/165
f 150/149/144 146/145/140 170/168/164
f 146/145/140 148/147/142 170/168/164
f 170/168/164 148/147/142 172/169/166
f 172/169/166 148/147/142 173/170/167
f 174/171/168 12/12/12 173/170/167
f 173/170/167 148/147/142 175/172/169
f 175/172/169 174/171/168 173/170/167
f 148/147/142 48/47/44 175/172/169
f 48/47/44 45/44/41 175/172/169
f 174/171/168 175/172/169 176/173/170
f 175/172/169 45/44/41 7/7/7
f 7/7/7 176/173/170 175/172/169
f 176/173/170 7/7/7 177/174/171
f 7/7/7 9/9/9 177/174/171
f 178/175/172 13/13/13 179/176/173
f 13/13/13 178/175/172 14/14/14
f 20/20/20 17/17/17 21/21/21
f 180/177/174 17/17/17 181/20/175
f 17/17/17 180/177/174 182/178/176
f 182/178/176 180/177/174 183/179/177
f 182/178/176 184/180/178 17/17/17
f 184/180/178 182/178/176 183/179/177
f 183/179/177 185/177/179 186/181/180
f 186/181/180 179/176/173 183/179/177
f 187/182/181 179/176/173 186/181/180
f 188/183/182 187/182/181 186/181/180
f 186/181/180 189/177/183 188/183/182
f 188/183/182 189/177/183 190/184/184
f 179/176/173 191/185/185 183/179/177
f 191/185/185 179/176/173 13/13/13
f 183/179/177 191/185/185 192/186/186
f 184/180/178 183/179/177 192/186/186
f 193/187/187 192/186/186 191/185/185
f 194/188/188 184/180/178 192/186/186
f 192/186/186 193/187/187 194/188/188
f 191/185/185 195/189/189 193/187/187
f 195/189/189 191/185/185 13/13/13
f 15/15/15 195/189/189 13/13/13
f 196/190/190 193/187/187 195/189/189
f 193/187/187 196/190/190 194/188/188
f 197/191/191 195/189/189 15/15/15
f 198/192/192 197/191/191 15/15/15
f 195/189/189 197/191/191 199/193/193
f 199/193/193 196/190/190 195/189/189
f 198/192/192 200/194/194 197/191/191
f 200/194/194 198/192/192 201/195/195
f 197/191/191 200/194/194 202/196/196
f 202/196/196 199/193/193 197/191/191
f 202/196/196 200/194/194 201/195/195
f 199/193/193 202/196/196 203/197/197
f 201/195/195 203/197/197 202/196/196
f 203/197/197 196/190/190 199/193/193
f 203/197/197 201/195/195 204/198/198
f 201/195/195 205/199/199 204/198/198
f 204/198/198 205/199/199 206/200/200
f 207/201/201 206/200/200 205/199/199
f 207/201/201 205/199/199 208/195/202
f 209/202/203 203/197/197 204/198/198
f 204/198/198 210/203/204 209/202/203
f 211/204/205 196/190/190 203/197/197
f 209/202/203 210/203/204 212/205/206
f 212/205/206 210/203/204 213/206/207
f 210/203/204 214/207/208 213/206/207
f 211/204/205 203/197/197 215/208/209
f 203/197/197 209/202/203 215/208/209
f 215/208/209 216/209/210 211/204/205
f 215/208/209 217/210/211 216/209/210
f 217/210/211 215/208/209 218/211/212
f 215/208/209 209/202/203 218/211/212
f 219/212/213 217/210/211 218/211/212
f 220/213/214 219/212/213 218/211/212
f 220/213/214 221/214/215 219/212/213
f 222/215/216 221/214/215 220/213/214
f 223/216/217 222/215/216 220/213/214
f 224/217/218 223/216/217 220/213/214
f 224/217/218 220/213/214 218/211/212
f 209/202/203 224/217/218 218/211/212
f 223/216/217 224/217/218 225/218/219
f 224/217/218 226/219/220 225/218/219
f 209/202/203 226/219/220 224/217/218
f 212/205/206 226/219/220 209/202/203
f 227/220/221 225/218/219 226/219/220
f 228/221/222 227/220/221 226/219/220
f 212/205/206 228/221/222 226/219/220
f 229/222/223 228/221/222 212/205/206
f 229/222/223 227/220/221 228/221/222
f 230/223/224 211/204/205 216/209/210
f 216/209/210 231/224/114 230/223/224
f 230/223/224 231/224/114 232/225/116
f 211/204/205 230/223/224 196/190/190
f 233/226/225 196/190/190 230/223/224
f 233/226/225 230/223/224 232/225/116
f 233/226/225 232/225/116 234/227/123
f 194/188/188 196/190/190 233/226/225
f 235/228/226 194/188/188 233/226/225
f 194/188/188 235/228/226 236/229/227
f 184/180/178 194/188/188 236/229/227
f 233/226/225 237/230/228 235/228/226
f 237/230/228 233/226/225 234/227/123
f 238/231/125 237/230/228 234/227/123
f 236/229/227 235/228/226 239/232/229
f 237/230/228 239/232/229 235/228/226
f 184/180/178 236/229/227 240/233/230
f 17/17/17 184/180/178 240/233/230
f 17/17/17 240/233/230 18/18/18
f 239/232/229 241/234/231 236/229/227
f 236/229/227 241/234/231 240/233/230
f 18/18/18 240/233/230 242/235/232
f 240/233/230 241/234/231 242/235/232
f 18/18/18 242/235/232 243/236/233
f 243/236/233 16/16/16 18/18/18
f 242/235/232 241/234/231 244/237/234
f 243/236/233 242/235/232 244/237/234
f 241/234/231 239/232/229 245/238/235
f 245/238/235 244/237/234 241/234/231
f 239/232/229 237/230/228 245/238/235
f 244/237/234 246/239/236 243/236/233
f 246/239/236 244/237/234 245/238/235
f 245/238/235 237/230/228 247/240/237
f 247/240/237 237/230/228 238/231/125
f 238/231/125 248/241/128 247/240/237
f 247/240/237 248/241/128 249/242/238
f 250/243/239 245/238/235 247/240/237
f 245/238/235 250/243/239 246/239/236
f 250/243/239 247/240/237 251/244/240
f 247/240/237 249/242/238 251/244/240
f 251/244/240 249/242/238 252/245/241
f 246/239/236 250/243/239 253/246/242
f 250/243/239 251/244/240 253/246/242
f 254/247/243 246/239/236 253/246/242
f 243/236/233 246/239/236 254/247/243
f 255/248/244 243/236/233 254/247/243
f 251/244/240 256/249/245 253/246/242
f 243/236/233 255/248/244 257/250/246
f 255/248/244 19/19/19 257/250/246
f 257/250/246 19/19/19 21/21/21
f 243/236/233 257/250/246 16/16/16
f 21/21/21 16/16/16 257/250/246
f 17/17/17 16/16/16 21/21/21
f 256/249/245 258/251/247 253/246/242
f 259/252/248 253/246/242 258/251/247
f 256/249/245 260/253/249 258/251/247
f 256/249/245 261/254/250 260/253/249
f 256/249/245 251/244/240 261/254/250
f 251/244/240 252/245/241 261/254/250
f 252/245/241 262/255/251 261/254/250
f 261/254/250 262/255/251 263/256/252
f 260/253/249 261/254/250 263/256/252
f 262/255/251 264/257/253 263/256/252
f 263/256/252 264/257/253 260/253/249
f 265/258/254 266/259/255 267/260/256
f 268/261/257 265/258/254 267/260/256
f 267/260/256 269/262/258 268/261/257
f 267/260/256 270/263/259 269/262/258
f 271/264/260 269/262/258 270/263/259
f 270/263/259 272/265/261 271/264/260
f 272/265/261 273/266/262 271/264/260
f 274/267/263 271/264/260 273/266/262
f 271/264/260 274/267/263 269/262/258
f 275/268/264 268/261/257 269/262/258
f 274/267/263 275/268/264 269/262/258
f 276/269/265 268/261/257 275/268/264
f 274/267/263 273/266/262 277/270/266
f 276/269/265 275/268/264 278/271/267
f 279/272/268 275/268/264 274/267/263
f 278/271/267 275/268/264 279/272/268
f 280/273/269 276/269/265 278/271/267
f 281/274/270 280/273/269 278/271/267
f 278/271/267 282/275/271 281/274/270
f 282/275/271 278/271/267 283/276/272
f 279/272/268 283/276/272 278/271/267
f 282/275/271 283/276/272 284/277/273
f 284/277/273 283/276/272 285/278/274
f 32/32/31 285/278/274 283/276/272
f 283/276/272 279/272/268 32/32/31
f 32/32/31 30/30/29 285/278/274
f 30/30/29 29/29/28 285/278/274
f 29/29/28 284/277/273 285/278/274
f 286/279/275 32/32/31 279/272/268
f 287/280/276 32/32/31 286/279/275
f 287/280/276 286/279/275 288/36/277
f 279/272/268 288/36/277 286/279/275
f 288/36/277 33/33/32 287/280/276
f 289/281/278 288/36/277 279/272/268
f 289/281/278 279/272/268 274/267/263
f 289/281/278 274/267/263 277/270/266
f 290/282/279 288/36/277 289/281/278
f 290/282/279 289/281/278 277/270/266
f 290/282/279 277/270/266 288/36/277
f 288/36/277 291/283/280 292/284/281
f 277/270/266 291/283/280 288/36/277
f 273/266/262 293/285/282 277/270/266
f 277/270/266 294/286/283 291/283/280
f 277/270/266 293/285/282 294/286/283
f 295/287/284 291/283/280 294/286/283
f 296/288/285 294/286/283 293/285/282
f 297/289/286 295/287/284 294/286/283
f 294/286/283 296/288/285 298/290/287
f 297/289/286 294/286/283 298/290/287
f 299/291/288 300/292/289 301/293/290
f 302/291/291 40/39/38 303/292/292
f 302/291/291 304/294/293 40/39/38
f 40/39/38 39/38/37 303/292/292
f 305/40/294 40/39/38 304/294/293
f 39/38/37 306/295/154 303/292/292
f 306/295/154 307/296/295 303/292/292
f 38/37/36 306/295/154 39/38/37
f 304/294/293 308/297/296 305/40/294
f 308/297/296 309/298/297 305/40/294
f 310/299/298 309/298/297 308/297/296
f 304/294/293 311/300/299 308/297/296
f 310/299/298 308/297/296 311/300/299
f 312/301/300 310/299/298 311/300/299
f 309/298/297 310/299/298 313/302/301
f 309/298/297 313/302/301 314/303/302
f 315/304/303 313/302/301 310/299/298
f 314/303/302 313/302/301 315/304/303
f 315/304/303 310/299/298 312/301/300
f 314/303/302 315/304/303 316/305/304
f 317/306/305 316/305/304 315/304/303
f 312/301/300 317/306/305 315/304/303
f 318/307/306 312/301/300 311/300/299
f 318/307/306 317/306/305 312/301/300
f 318/307/306 311/300/299 319/308/307
f 311/300/299 320/309/262 319/308/307
f 321/310/308 318/307/306 319/308/307
f 318/307/306 321/310/308 322/311/309
f 321/310/308 323/312/310 322/311/309
f 323/312/310 324/313/311 322/311/309
f 325/314/312 318/307/306 322/311/309
f 318/307/306 325/314/312 317/306/305
f 325/314/312 322/311/309 326/315/313
f 322/311/309 324/313/311 327/316/314
f 327/316/314 326/315/313 322/311/309
f 325/314/312 326/315/313 328/317/315
f 317/306/305 325/314/312 328/317/315
f 329/318/316 330/319/317 327/316/314
f 331/320/318 327/316/314 330/319/317
f 331/320/318 326/315/313 327/316/314
f 330/319/317 332/321/319 331/320/318
f 331/320/318 332/321/319 333/322/320
f 333/322/320 326/315/313 331/320/318
f 333/322/320 328/317/315 326/315/313
f 333/322/320 332/321/319 334/323/321
f 334/323/321 335/324/322 333/322/320
f 335/324/322 328/317/315 333/322/320
f 328/317/315 335/324/322 317/306/305
f 336/325/323 335/324/322 334/323/321
f 337/326/324 338/327/325 336/325/323
f 337/326/324 336/325/323 334/323/321
f 335/324/322 336/325/323 339/328/326
f 339/328/326 317/306/305 335/324/322
f 340/329/327 339/328/326 336/325/323
f 338/327/325 340/329/327 336/325/323
f 339/328/326 341/330/328 317/306/305
f 339/328/326 340/329/327 341/330/328
f 317/306/305 342/331/329 316/305/304
f 342/331/329 317/306/305 341/330/328
f 338/327/325 343/332/330 340/329/327
f 344/333/331 343/332/330 338/327/325
f 345/334/332 343/332/330 344/333/331
f 346/335/333 343/332/330 345/334/332
f 340/329/327 347/336/334 341/330/328
f 347/336/334 340/329/327 343/332/330
f 342/331/329 341/330/328 347/336/334
f 346/335/333 348/337/335 343/332/330
f 343/332/330 348/337/335 347/336/334
f 342/331/329 349/338/249 316/305/304
f 349/338/249 342/331/329 350/339/247
f 351/340/336 350/339/247 342/331/329
f 351/340/336 342/331/329 347/336/334
f 348/337/335 351/340/336 347/336/334
f 352/341/248 350/339/247 351/340/336
f 353/342/337 352/341/248 351/340/336
f 353/342/337 351/340/336 354/343/19
f 351/340/336 348/337/335 354/343/19
f 346/335/333 354/343/19 348/337/335
f 354/343/19 346/335/333 355/344/338
f 355/344/338 356/345/339 354/343/19
f 355/344/338 357/42/340 356/345/339
f 355/344/338 346/335/333 357/42/340
f 346/335/333 358/43/341 357/42/340
f 359/346/342 360/347/343 324/313/311
f 324/313/311 360/347/343 361/348/344
f 360/347/343 362/349/345 361/348/344
f 363/350/346 361/348/344 362/349/345
f 324/313/311 361/348/344 364/351/347
f 327/316/314 324/313/311 364/351/347
f 362/349/345 365/352/348 363/350/346
f 366/353/349 363/350/346 365/352/348
f 327/316/314 364/351/347 367/354/350
f 367/354/350 329/318/316 327/316/314
f 367/354/350 368/355/351 329/318/316
f 368/355/351 367/354/350 369/356/352
f 366/353/349 365/352/348 370/357/353
f 366/353/349 370/357/353 371/358/354
f 372/359/355 371/358/354 370/357/353
f 373/360/356 366/353/349 371/358/354
f 372/359/355 373/360/356 371/358/354
f 373/360/356 363/350/346 366/353/349
f 370/357/353 374/361/357 372/359/355
f 370/357/353 375/362/77 374/361/357
f 372/359/355 374/361/357 376/363/358
f 372/359/355 376/363/358 377/364/359
f 373/360/356 372/359/355 377/364/359
f 376/363/358 378/365/360 377/364/359
f 379/366/361 380/367/362 378/365/360
f 380/367/362 377/364/359 378/365/360
f 381/368/363 377/364/359 380/367/362
f 381/368/363 373/360/356 377/364/359
f 382/369/364 381/368/363 380/367/362
f 382/369/364 380/367/362 383/366/102
f 381/368/363 384/370/365 373/360/356
f 381/368/363 382/369/364 384/370/365
f 385/371/366 363/350/346 373/360/356
f 384/370/365 385/371/366 373/360/356
f 385/371/366 361/348/344 363/350/346
f 364/351/347 361/348/344 385/371/366
f 385/371/366 386/372/367 364/351/347
f 385/371/366 384/370/365 386/372/367
f 367/354/350 364/351/347 386/372/367
f 369/356/352 367/354/350 386/372/367
f 369/356/352 386/372/367 387/373/368
f 387/373/368 386/372/367 388/374/369
f 388/374/369 386/372/367 384/370/365
f 384/370/365 382/369/364 388/374/369
f 387/373/368 388/374/369 382/369/364
f 387/373/368 382/369/364 389/375/370
f 390/376/371 389/375/370 382/369/364
f 390/376/371 382/369/364 391/377/372
f 382/369/364 383/366/102 391/377/372
f 391/377/372 392/378/373 390/376/371
f 391/377/372 383/366/102 393/379/103
f 392/378/373 391/377/372 394/380/374
f 393/379/103 395/381/375 391/377/372
f 394/380/374 391/377/372 395/381/375
f 1/1/1 3/3/3 396/382/376
f 396/382/376 3/3/3 397/383/377
f 397/383/377 398/384/378 396/382/376
f 399/385/379 397/383/377 3/3/3
f 398/384/378 400/386/380 401/387/381
f 399/385/379 2/2/2 402/388/382
f 2/2/2 399/385/379 3/3/3
f 403/389/383 400/386/380 398/384/378
f 400/386/380 403/389/383 404/390/384
f 403/389/383 398/384/378 405/391/385
f 398/384/378 397/383/377 405/391/385
f 403/389/383 406/392/386 404/390/384
f 404/390/384 406/392/386 407/393/387
f 407/393/387 406/392/386 408/394/388
f 405/391/385 409/395/389 403/389/383
f 403/389/383 409/395/389 406/392/386
f 405/391/385 397/383/377 409/395/389
f 408/394/388 406/392/386 410/396/390
f 411/397/391 409/395/389 397/383/377
f 397/383/377 399/385/379 411/397/391
f 412/398/392 411/397/391 413/399/393
f 414/400/394 411/397/391 412/398/392
f 411/397/391 414/400/394 409/395/389
f 415/401/395 411/397/391 399/385/379
f 413/399/393 411/397/391 415/401/395
f 402/388/382 415/401/395 399/385/379
f 416/402/396 414/400/394 412/398/392
f 416/402/396 417/403/397 414/400/394
f 414/400/394 417/403/397 409/395/389
f 418/404/398 415/401/395 402/388/382
f 418/404/398 402/388/382 419/405/399
f 418/404/398 413/399/393 415/401/395
f 416/402/396 420/406/400 417/403/397
f 418/404/398 421/407/401 413/399/393
f 422/408/402 413/399/393 421/407/401
f 423/409/403 422/408/402 421/407/401
f 417/403/397 420/406/400 424/410/404
f 409/395/389 417/403/397 424/410/404
f 409/395/389 424/410/404 406/392/386
f 406/392/386 424/410/404 410/396/390
f 420/406/400 425/411/352 424/410/404
f 426/412/405 424/410/404 425/411/352
f 426/412/405 427/413/406 424/410/404
f 426/412/405 428/414/407 427/413/406
f 428/414/407 429/415/371 427/413/406
f 429/415/371 430/416/408 427/413/406
f 429/415/371 431/417/373 430/416/408
f 424/410/404 427/413/406 432/418/409
f 432/418/409 427/413/406 430/416/408
f 431/417/373 433/419/410 430/416/408
f 432/418/409 430/416/408 433/419/410
f 433/419/410 431/417/373 434/420/411
f 431/417/373 435/421/412 434/420/411
f 434/420/411 435/421/412 436/422/216
f 433/419/410 434/420/411 437/423/413
f 437/423/413 432/418/409 433/419/410
f 432/418/409 437/423/413 438/424/219
f 439/425/414 437/423/413 434/420/411
f 438/424/219 437/423/413 439/425/414
f 434/420/411 436/422/216 439/425/414
f 436/422/216 440/426/415 439/425/414
f 439/425/414 440/426/415 438/424/219
f 432/418/409 441/427/416 424/410/404
f 410/396/390 424/410/404 441/427/416
f 442/428/417 441/427/416 432/418/409
f 438/424/219 442/428/417 432/418/409
f 438/424/219 443/429/418 442/428/417
f 441/427/416 444/430/419 410/396/390
f 441/427/416 442/428/417 444/430/419
f 408/394/388 410/396/390 444/430/419
f 444/430/419 442/428/417 443/429/418
f 408/394/388 444/430/419 445/431/223
f 445/431/223 444/430/419 443/429/418
f 173/170/167 171/167/165 172/169/166
f 166/165/160 168/167/162 173/170/167
f 166/165/160 173/170/167 12/12/12
f 11/11/11 166/165/160 12/12/12
f 436/422/216 435/421/412 446/432/420
f 113/112/108 436/422/216 446/432/420
f 111/110/106 113/112/108 446/432/420
f 110/109/105 111/110/106 446/432/420
f 446/432/420 435/421/412 110/109/105
f 255/248/244 254/247/243 259/252/248
f 254/247/243 253/246/242 259/252/248
f 447/433/421 448/434/422 212/205/206
f 447/433/421 212/205/206 213/206/207
f 449/205/423 450/434/424 451/435/425
f 450/434/424 452/433/426 451/435/425
f 453/436/23 454/437/427 25/25/25
f 25/25/25 27/27/24 453/436/23
f 455/438/428 456/439/429 22/22/22
f 455/438/428 22/22/22 457/440/26
f 457/440/26 22/22/22 24/24/24
f 451/435/425 458/441/430 212/205/431
f 458/441/430 451/435/425 459/442/432
f 451/435/425 452/433/426 459/442/432
f 452/433/426 460/206/433 459/442/432
f 461/443/434 459/442/432 460/206/433
f 461/443/434 460/206/433 462/207/435
f 463/201/436 461/443/434 462/207/435
f 214/207/208 206/200/200 207/201/201
f 206/200/200 214/207/208 210/203/204
f 204/198/198 206/200/200 210/203/204
f 464/444/437 465/445/27 466/446/438
f 465/445/27 464/444/437 467/447/439
f 468/447/440 469/448/441 465/445/442
f 470/449/443 469/448/441 468/447/440
f 470/449/443 471/450/444 469/448/441
f 469/448/441 471/450/444 472/451/445
f 471/450/444 473/452/446 472/451/445
f 473/452/446 471/450/444 474/453/47
f 475/454/447 473/452/446 474/453/47
f 473/452/446 476/455/448 472/451/445
f 476/455/448 473/452/446 475/454/447
f 476/455/448 475/454/447 477/456/449
f 475/454/447 478/457/52 477/456/449
f 479/458/450 476/455/448 477/456/449
f 477/456/449 480/459/451 479/458/450
f 481/460/452 479/458/450 480/459/451
f 480/459/451 482/461/453 481/460/452
f 480/459/451 477/456/449 482/461/453
f 478/457/52 483/462/454 477/456/449
f 483/462/454 482/461/453 477/456/449
f 484/463/455 483/462/454 478/457/52
f 485/464/456 483/462/454 484/463/455
f 483/462/454 485/464/456 482/461/453
f 482/461/453 486/465/457 481/460/452
f 486/465/457 482/461/453 485/464/456
f 486/465/457 487/466/458 481/460/452
f 487/466/458 486/465/457 485/464/456
f 485/464/456 484/463/455 488/439/459
f 488/439/459 455/438/428 485/464/456
f 487/466/458 485/464/456 455/438/428
f 457/440/26 489/467/460 455/438/428
f 489/467/460 490/468/461 455/438/428
f 490/468/461 487/466/458 455/438/428
f 358/43/341 346/335/333 345/334/332
f 344/333/331 358/43/341 345/334/332
f 344/333/331 491/469/462 358/43/341
f 491/469/462 344/333/331 338/327/325
f 358/43/341 491/469/462 337/326/324
f 338/327/325 337/326/324 491/469/462
f 31/31/30 32/32/31 287/280/276
f 31/31/30 287/280/276 492/470/463
f 492/470/463 30/30/29 31/31/30
f 287/280/276 33/33/32 492/470/463
f 492/470/463 28/28/27 30/30/29
f 33/33/32 28/28/27 492/470/463
f 276/269/265 493/471/464 494/472/465
f 268/261/257 276/269/265 494/472/465
f 494/472/465 265/258/254 268/261/257
f 494/472/465 495/473/466 265/258/254
f 494/472/465 493/471/464 495/473/466
f 496/474/467 265/258/254 495/473/466
f 495/473/466 497/475/468 496/474/467
f 497/475/468 495/473/466 493/471/464
f 497/475/468 493/471/464 498/476/469
f 496/474/467 497/475/468 499/477/470
f 500/478/471 499/477/470 497/475/468
f 501/479/472 500/478/471 497/475/468
f 500/478/471 501/479/472 502/480/353
f 501/479/472 497/475/468 503/481/473
f 502/480/353 501/479/472 504/482/474
f 503/481/473 504/482/474 501/479/472
f 502/480/353 504/482/474 505/483/475
f 505/483/475 504/482/474 506/484/476
f 504/482/474 507/485/477 506/484/476
f 507/485/477 504/482/474 503/481/473
f 503/481/473 497/475/468 507/485/477
f 497/475/468 498/476/469 507/485/477
f 26/26/26 507/485/477 498/476/469
f 26/26/26 25/25/25 507/485/477
f 25/25/25 454/437/427 507/485/477
f 508/484/478 507/485/477 454/437/427
