# Blender 5.1.0
# www.blender.org
mtllib mop0.mtl
o Mop_LP
v -0.080764 0.115796 -2.612058
v -0.080764 -0.117438 -2.612058
v -0.076360 0.044690 -2.373565
v -0.076360 -0.046332 -2.373565
v 0.012990 0.044690 -2.373565
v 0.012990 -0.046332 -2.373565
v 0.017394 0.115796 -2.612058
v 0.017394 -0.117438 -2.612058
v -0.004880 0.044690 -2.373565
v -0.002238 0.115796 -2.612058
v -0.002238 -0.117438 -2.612058
v -0.004880 -0.046332 -2.373565
v -0.058490 0.044690 -2.373565
v -0.061133 0.115796 -2.612058
v -0.061133 -0.117438 -2.612058
v -0.058490 -0.046332 -2.373565
v -0.080764 0.101935 -2.491940
v -0.080764 -0.103576 -2.491940
v -0.061133 -0.103576 -2.491940
v -0.002238 -0.103576 -2.491940
v 0.017394 -0.103576 -2.491940
v 0.017394 0.101935 -2.491940
v -0.002238 0.101935 -2.491940
v -0.061133 0.101935 -2.491940
v -0.080764 0.115796 -2.539185
v -0.080764 -0.117438 -2.539185
v -0.061133 -0.117438 -2.539185
v -0.002238 -0.117438 -2.539185
v 0.017394 -0.117438 -2.539185
v 0.017394 0.115796 -2.539185
v -0.002238 0.115796 -2.539185
v -0.061133 0.115796 -2.539185
v -0.080764 0.112662 -2.612058
v -0.061133 0.112662 -2.612058
v -0.061133 0.109501 -2.539185
v -0.061133 0.096387 -2.491940
v -0.002238 0.096387 -2.491940
v -0.002238 0.109501 -2.539185
v -0.002238 0.112662 -2.612058
v 0.017394 0.112662 -2.612058
v 0.017394 -0.113125 -2.612058
v -0.002238 -0.113125 -2.612058
v -0.002238 -0.113125 -2.539185
v -0.002238 -0.099778 -2.491940
v -0.061133 -0.099778 -2.491940
v -0.061133 -0.113125 -2.539185
v -0.061133 -0.113125 -2.612058
v -0.080764 -0.113125 -2.612058
v -0.061133 0.115796 -2.685361
v -0.061133 0.112662 -2.685361
v -0.080764 0.112662 -2.685361
v -0.080764 0.115796 -2.685361
v 0.017394 0.115796 -2.685361
v 0.017394 0.112662 -2.685361
v -0.002238 0.112662 -2.685361
v -0.002238 0.115796 -2.685361
v 0.017394 -0.113125 -2.685361
v -0.002238 -0.113125 -2.685361
v 0.017394 -0.117438 -2.685361
v -0.002238 -0.117438 -2.685361
v -0.061133 -0.113125 -2.685361
v -0.080764 -0.113125 -2.685361
v -0.061133 -0.117438 -2.685361
v -0.080764 -0.117438 -2.685361
v -0.080764 0.112637 -2.539185
v -0.080764 0.098331 -2.491940
v -0.076360 0.040075 -2.373565
v -0.058490 0.040276 -2.373565
v -0.004880 0.040877 -2.373565
v 0.012990 0.041077 -2.373565
v 0.017394 0.112631 -2.539185
v 0.017394 0.098728 -2.491940
v -0.080764 -0.112337 -2.539185
v -0.080764 -0.097850 -2.491940
v -0.076360 -0.040879 -2.373565
v -0.058490 -0.040707 -2.373565
v -0.004880 -0.040190 -2.373565
v 0.012990 -0.040018 -2.373565
v 0.017394 -0.098702 -2.491940
v 0.017394 -0.112912 -2.539185
v -0.093966 0.489317 -2.812058
v -0.093966 -0.497757 -2.812058
v 0.034042 0.489317 -2.812058
v 0.034042 -0.497757 -2.812058
v -0.128881 0.489317 -2.733888
v -0.128881 -0.497757 -2.733888
v 0.068957 -0.497757 -2.733888
v 0.068957 0.489317 -2.733888
v -0.051529 0.489317 -2.692312
v -0.051529 -0.497757 -2.692312
v -0.008395 -0.497757 -2.692312
v -0.008395 0.489317 -2.692312
v -0.051529 0.489317 -2.650209
v -0.051529 -0.497757 -2.650209
v -0.008395 -0.497757 -2.650209
v -0.008395 0.489317 -2.650209
v -0.126376 0.489317 -2.716425
v -0.126376 -0.497757 -2.716425
v 0.066452 -0.497757 -2.716425
v 0.066452 0.489317 -2.716425
v 0.007020 -0.477739 -2.662040
v 0.012073 -0.477739 -2.664615
v 0.016084 -0.477739 -2.668625
v 0.018659 -0.477739 -2.673679
v 0.019546 -0.477739 -2.679280
v 0.018659 -0.477739 -2.684882
v 0.016084 -0.477739 -2.689935
v 0.012073 -0.477739 -2.693945
v 0.007020 -0.477739 -2.696520
v 0.001419 -0.477739 -2.697407
v -0.004183 -0.477739 -2.696520
v -0.009236 -0.477739 -2.693945
v -0.013247 -0.477739 -2.689935
v -0.015821 -0.477739 -2.684882
v -0.016708 -0.477739 -2.679280
v -0.015821 -0.477739 -2.673679
v -0.013247 -0.477739 -2.668625
v -0.009236 -0.477739 -2.664615
v -0.004183 -0.477739 -2.662040
v 0.001419 -0.477739 -2.661153
v 0.007020 0.476464 -2.662040
v 0.012073 0.476464 -2.664615
v 0.016084 0.476464 -2.668625
v 0.018659 0.476464 -2.673679
v 0.019546 0.476464 -2.679280
v 0.018659 0.476464 -2.684882
v 0.016084 0.476464 -2.689935
v 0.012073 0.476464 -2.693945
v 0.007020 0.476464 -2.696520
v 0.001419 0.476464 -2.697407
v -0.004183 0.476464 -2.696520
v -0.009236 0.476464 -2.693945
v -0.013247 0.476464 -2.689935
v -0.015821 0.476464 -2.684882
v -0.016708 0.476464 -2.679280
v -0.015821 0.476464 -2.673679
v -0.013247 0.476464 -2.668625
v -0.009236 0.476464 -2.664615
v -0.004183 0.476464 -2.662040
v 0.001419 0.476464 -2.661153
v 0.001419 -0.477739 -2.679280
v 0.001419 0.476464 -2.679280
v -0.015821 0.115660 -2.684882
v -0.013247 0.115660 -2.689935
v -0.009236 0.115660 -2.693945
v -0.004183 0.115660 -2.696520
v 0.001419 0.115660 -2.697407
v 0.007020 0.115660 -2.696520
v 0.012073 0.115660 -2.693945
v 0.016084 0.115660 -2.689935
v 0.018659 0.115660 -2.684882
v 0.019546 0.115660 -2.679280
v 0.018659 0.115660 -2.673679
v 0.016084 0.115660 -2.668625
v 0.012073 0.115660 -2.664615
v 0.007020 0.115660 -2.662040
v 0.001419 0.115660 -2.661153
v -0.004183 0.115660 -2.662040
v -0.009236 0.115660 -2.664615
v -0.013247 0.115660 -2.668625
v -0.015821 0.115660 -2.673679
v -0.016708 0.115660 -2.679280
v -0.015821 -0.116935 -2.684882
v -0.013247 -0.116935 -2.689935
v -0.009236 -0.116935 -2.693945
v -0.004183 -0.116935 -2.696520
v 0.001419 -0.116935 -2.697407
v 0.007020 -0.116935 -2.696520
v 0.012073 -0.116935 -2.693945
v 0.016084 -0.116935 -2.689935
v 0.018659 -0.116935 -2.684882
v 0.019546 -0.116935 -2.679280
v 0.018659 -0.116935 -2.673679
v 0.016084 -0.116935 -2.668625
v 0.012073 -0.116935 -2.664615
v 0.007020 -0.116935 -2.662040
v 0.001419 -0.116935 -2.661153
v -0.004183 -0.116935 -2.662040
v -0.009236 -0.116935 -2.664615
v -0.013247 -0.116935 -2.668625
v -0.015821 -0.116935 -2.673679
v -0.016708 -0.116935 -2.679280
v -0.015821 0.112035 -2.684882
v -0.013247 0.112035 -2.689935
v -0.009236 0.112035 -2.693945
v -0.004183 0.112035 -2.696520
v 0.001419 0.112035 -2.697407
v 0.007020 0.112035 -2.696520
v 0.012073 0.112035 -2.693945
v 0.016084 0.112035 -2.689935
v 0.018659 0.112035 -2.684882
v 0.019546 0.112035 -2.679280
v 0.018659 0.112035 -2.673679
v 0.016084 0.112035 -2.668625
v 0.012073 0.112035 -2.664615
v 0.007020 0.112035 -2.662040
v 0.001419 0.112035 -2.661153
v -0.004183 0.112035 -2.662040
v -0.009236 0.112035 -2.664615
v -0.013247 0.112035 -2.668625
v -0.015821 0.112035 -2.673679
v -0.016708 0.112035 -2.679280
v -0.015821 -0.112877 -2.684882
v -0.016708 -0.112877 -2.679280
v -0.015821 -0.112877 -2.673679
v -0.013247 -0.112877 -2.668625
v -0.009236 -0.112877 -2.664615
v -0.004183 -0.112877 -2.662040
v 0.001419 -0.112877 -2.661153
v 0.007020 -0.112877 -2.662040
v 0.012073 -0.112877 -2.664615
v 0.016084 -0.112877 -2.668625
v 0.018659 -0.112877 -2.673679
v 0.019546 -0.112877 -2.679280
v 0.018659 -0.112877 -2.684882
v 0.016084 -0.112877 -2.689935
v 0.012073 -0.112877 -2.693945
v 0.007020 -0.112877 -2.696520
v 0.001419 -0.112877 -2.697407
v -0.004183 -0.112877 -2.696520
v -0.009236 -0.112877 -2.693945
v -0.013247 -0.112877 -2.689935
v -0.010043 0.112035 -2.683004
v -0.008331 0.112035 -2.686364
v -0.005665 0.112035 -2.689030
v -0.002305 0.112035 -2.690742
v 0.001419 0.112035 -2.691332
v 0.005143 0.112035 -2.690742
v 0.008502 0.112035 -2.689030
v 0.011169 0.112035 -2.686364
v 0.012880 0.112035 -2.683004
v 0.013470 0.112035 -2.679280
v 0.012880 0.112035 -2.675556
v 0.011169 0.112035 -2.672197
v 0.008502 0.112035 -2.669531
v 0.005143 0.112035 -2.667819
v 0.001419 0.112035 -2.667229
v -0.002305 0.112035 -2.667819
v -0.005665 0.112035 -2.669531
v -0.008331 0.112035 -2.672197
v -0.010043 0.112035 -2.675556
v -0.010633 0.112035 -2.679280
v -0.009926 0.115660 -2.682966
v -0.008232 0.115660 -2.686291
v -0.005593 0.115660 -2.688931
v -0.002267 0.115660 -2.690625
v 0.001419 0.115660 -2.691208
v 0.005105 0.115660 -2.690625
v 0.008430 0.115660 -2.688931
v 0.011069 0.115660 -2.686291
v 0.012763 0.115660 -2.682966
v 0.013347 0.115660 -2.679280
v 0.012763 0.115660 -2.675594
v 0.011069 0.115660 -2.672269
v 0.008430 0.115660 -2.669630
v 0.005105 0.115660 -2.667936
v 0.001419 0.115660 -2.667352
v -0.002267 0.115660 -2.667936
v -0.005593 0.115660 -2.669630
v -0.008232 0.115660 -2.672269
v -0.009926 0.115660 -2.675594
v -0.010510 0.115660 -2.679280
v -0.010683 -0.112877 -2.683212
v -0.011306 -0.112877 -2.679280
v -0.010683 -0.112877 -2.675348
v -0.008876 -0.112877 -2.671801
v -0.006061 -0.112877 -2.668986
v -0.002513 -0.112877 -2.667178
v 0.001419 -0.112877 -2.666556
v 0.005351 -0.112877 -2.667178
v 0.008898 -0.112877 -2.668986
v 0.011713 -0.112877 -2.671801
v 0.013520 -0.112877 -2.675348
v 0.014143 -0.112877 -2.679280
v 0.013520 -0.112877 -2.683212
v 0.011713 -0.112877 -2.686759
v 0.008898 -0.112877 -2.689574
v 0.005351 -0.112877 -2.691382
v 0.001419 -0.112877 -2.692005
v -0.002513 -0.112877 -2.691382
v -0.006061 -0.112877 -2.689574
v -0.008876 -0.112877 -2.686759
v -0.011307 -0.116935 -2.683415
v -0.009406 -0.116935 -2.687145
v -0.006446 -0.116935 -2.690105
v -0.002716 -0.116935 -2.692006
v 0.001419 -0.116935 -2.692661
v 0.005553 -0.116935 -2.692006
v 0.009283 -0.116935 -2.690105
v 0.012243 -0.116935 -2.687145
v 0.014144 -0.116935 -2.683415
v 0.014799 -0.116935 -2.679280
v 0.014144 -0.116935 -2.675146
v 0.012243 -0.116935 -2.671416
v 0.009283 -0.116935 -2.668455
v 0.005553 -0.116935 -2.666555
v 0.001419 -0.116935 -2.665900
v -0.002716 -0.116935 -2.666555
v -0.006446 -0.116935 -2.668455
v -0.009406 -0.116935 -2.671415
v -0.011307 -0.116935 -2.675146
v -0.011962 -0.116935 -2.679280
v -0.058410 -0.477739 -2.662040
v -0.053356 -0.477739 -2.664615
v -0.049346 -0.477739 -2.668625
v -0.046771 -0.477739 -2.673679
v -0.045884 -0.477739 -2.679280
v -0.046771 -0.477739 -2.684882
v -0.049346 -0.477739 -2.689935
v -0.053356 -0.477739 -2.693945
v -0.058410 -0.477739 -2.696520
v -0.064011 -0.477739 -2.697407
v -0.069613 -0.477739 -2.696520
v -0.074666 -0.477739 -2.693945
v -0.078676 -0.477739 -2.689935
v -0.081251 -0.477739 -2.684882
v -0.082138 -0.477739 -2.679280
v -0.081251 -0.477739 -2.673679
v -0.078676 -0.477739 -2.668625
v -0.074666 -0.477739 -2.664615
v -0.069613 -0.477739 -2.662040
v -0.064011 -0.477739 -2.661153
v -0.058410 0.476464 -2.662040
v -0.053356 0.476464 -2.664615
v -0.049346 0.476464 -2.668625
v -0.046771 0.476464 -2.673679
v -0.045884 0.476464 -2.679280
v -0.046771 0.476464 -2.684882
v -0.049346 0.476464 -2.689935
v -0.053356 0.476464 -2.693945
v -0.058410 0.476464 -2.696520
v -0.064011 0.476464 -2.697407
v -0.069613 0.476464 -2.696520
v -0.074666 0.476464 -2.693945
v -0.078676 0.476464 -2.689935
v -0.081251 0.476464 -2.684882
v -0.082138 0.476464 -2.679280
v -0.081251 0.476464 -2.673679
v -0.078676 0.476464 -2.668625
v -0.074666 0.476464 -2.664615
v -0.069613 0.476464 -2.662040
v -0.064011 0.476464 -2.661153
v -0.064011 -0.477739 -2.679280
v -0.064011 0.476464 -2.679280
v -0.081251 0.115660 -2.684882
v -0.078676 0.115660 -2.689935
v -0.074666 0.115660 -2.693945
v -0.069613 0.115660 -2.696520
v -0.064011 0.115660 -2.697407
v -0.058410 0.115660 -2.696520
v -0.053356 0.115660 -2.693945
v -0.049346 0.115660 -2.689935
v -0.046771 0.115660 -2.684882
v -0.045884 0.115660 -2.679280
v -0.046771 0.115660 -2.673679
v -0.049346 0.115660 -2.668625
v -0.053356 0.115660 -2.664615
v -0.058410 0.115660 -2.662040
v -0.064011 0.115660 -2.661153
v -0.069613 0.115660 -2.662040
v -0.074666 0.115660 -2.664615
v -0.078676 0.115660 -2.668625
v -0.081251 0.115660 -2.673679
v -0.082138 0.115660 -2.679280
v -0.081251 -0.116935 -2.684882
v -0.078676 -0.116935 -2.689935
v -0.074666 -0.116935 -2.693945
v -0.069613 -0.116935 -2.696520
v -0.064011 -0.116935 -2.697407
v -0.058410 -0.116935 -2.696520
v -0.053356 -0.116935 -2.693945
v -0.049346 -0.116935 -2.689935
v -0.046771 -0.116935 -2.684882
v -0.045884 -0.116935 -2.679280
v -0.046771 -0.116935 -2.673679
v -0.049346 -0.116935 -2.668625
v -0.053356 -0.116935 -2.664615
v -0.058410 -0.116935 -2.662040
v -0.064011 -0.116935 -2.661153
v -0.069613 -0.116935 -2.662040
v -0.074666 -0.116935 -2.664615
v -0.078676 -0.116935 -2.668625
v -0.081251 -0.116935 -2.673679
v -0.082138 -0.116935 -2.679280
v -0.081251 0.112035 -2.684882
v -0.078676 0.112035 -2.689935
v -0.074666 0.112035 -2.693945
v -0.069613 0.112035 -2.696520
v -0.064011 0.112035 -2.697407
v -0.058410 0.112035 -2.696520
v -0.053356 0.112035 -2.693945
v -0.049346 0.112035 -2.689935
v -0.046771 0.112035 -2.684882
v -0.045884 0.112035 -2.679280
v -0.046771 0.112035 -2.673679
v -0.049346 0.112035 -2.668625
v -0.053356 0.112035 -2.664615
v -0.058410 0.112035 -2.662040
v -0.064011 0.112035 -2.661153
v -0.069613 0.112035 -2.662040
v -0.074666 0.112035 -2.664615
v -0.078676 0.112035 -2.668625
v -0.081251 0.112035 -2.673679
v -0.082138 0.112035 -2.679280
v -0.081251 -0.112877 -2.684882
v -0.082138 -0.112877 -2.679280
v -0.081251 -0.112877 -2.673679
v -0.078676 -0.112877 -2.668625
v -0.074666 -0.112877 -2.664615
v -0.069613 -0.112877 -2.662040
v -0.064011 -0.112877 -2.661153
v -0.058410 -0.112877 -2.662040
v -0.053356 -0.112877 -2.664615
v -0.049346 -0.112877 -2.668625
v -0.046771 -0.112877 -2.673679
v -0.045884 -0.112877 -2.679280
v -0.046771 -0.112877 -2.684882
v -0.049346 -0.112877 -2.689935
v -0.053356 -0.112877 -2.693945
v -0.058410 -0.112877 -2.696520
v -0.064011 -0.112877 -2.697407
v -0.069613 -0.112877 -2.696520
v -0.074666 -0.112877 -2.693945
v -0.078676 -0.112877 -2.689935
v -0.075473 0.112035 -2.683004
v -0.073761 0.112035 -2.686364
v -0.071095 0.112035 -2.689030
v -0.067735 0.112035 -2.690742
v -0.064011 0.112035 -2.691332
v -0.060287 0.112035 -2.690742
v -0.056927 0.112035 -2.689030
v -0.054261 0.112035 -2.686364
v -0.052550 0.112035 -2.683004
v -0.051960 0.112035 -2.679280
v -0.052550 0.112035 -2.675556
v -0.054261 0.112035 -2.672197
v -0.056927 0.112035 -2.669531
v -0.060287 0.112035 -2.667819
v -0.064011 0.112035 -2.667229
v -0.067735 0.112035 -2.667819
v -0.071095 0.112035 -2.669531
v -0.073761 0.112035 -2.672197
v -0.075473 0.112035 -2.675556
v -0.076063 0.112035 -2.679280
v -0.075356 0.115660 -2.682966
v -0.073662 0.115660 -2.686291
v -0.071022 0.115660 -2.688931
v -0.067697 0.115660 -2.690625
v -0.064011 0.115660 -2.691208
v -0.060325 0.115660 -2.690625
v -0.057000 0.115660 -2.688931
v -0.054361 0.115660 -2.686291
v -0.052667 0.115660 -2.682966
v -0.052083 0.115660 -2.679280
v -0.052667 0.115660 -2.675594
v -0.054361 0.115660 -2.672269
v -0.057000 0.115660 -2.669630
v -0.060325 0.115660 -2.667936
v -0.064011 0.115660 -2.667352
v -0.067697 0.115660 -2.667936
v -0.071022 0.115660 -2.669630
v -0.073662 0.115660 -2.672269
v -0.075356 0.115660 -2.675594
v -0.075940 0.115660 -2.679280
v -0.076113 -0.112877 -2.683212
v -0.076736 -0.112877 -2.679280
v -0.076113 -0.112877 -2.675348
v -0.074306 -0.112877 -2.671801
v -0.071490 -0.112877 -2.668986
v -0.067943 -0.112877 -2.667178
v -0.064011 -0.112877 -2.666556
v -0.060079 -0.112877 -2.667178
v -0.056532 -0.112877 -2.668986
v -0.053717 -0.112877 -2.671801
v -0.051909 -0.112877 -2.675348
v -0.051287 -0.112877 -2.679280
v -0.051909 -0.112877 -2.683212
v -0.053717 -0.112877 -2.686759
v -0.056532 -0.112877 -2.689574
v -0.060079 -0.112877 -2.691382
v -0.064011 -0.112877 -2.692005
v -0.067943 -0.112877 -2.691382
v -0.071490 -0.112877 -2.689574
v -0.074306 -0.112877 -2.686759
v -0.076737 -0.116935 -2.683415
v -0.074836 -0.116935 -2.687145
v -0.071876 -0.116935 -2.690105
v -0.068146 -0.116935 -2.692006
v -0.064011 -0.116935 -2.692661
v -0.059876 -0.116935 -2.692006
v -0.056147 -0.116935 -2.690105
v -0.053186 -0.116935 -2.687145
v -0.051286 -0.116935 -2.683415
v -0.050631 -0.116935 -2.679280
v -0.051286 -0.116935 -2.675146
v -0.053186 -0.116935 -2.671416
v -0.056147 -0.116935 -2.668455
v -0.059876 -0.116935 -2.666555
v -0.064011 -0.116935 -2.665900
v -0.068146 -0.116935 -2.666555
v -0.071876 -0.116935 -2.668455
v -0.074836 -0.116935 -2.671415
v -0.076737 -0.116935 -2.675146
v -0.077391 -0.116935 -2.679280
v -0.020703 -0.028495 -2.377776
v -0.012351 -0.024240 -2.377776
v -0.005722 -0.017611 -2.377776
v -0.001467 -0.009259 -2.377776
v -0.000000 0.000000 -2.377776
v -0.001467 0.009259 -2.377776
v -0.005722 0.017611 -2.377776
v -0.012351 0.024240 -2.377776
v -0.020703 0.028495 -2.377776
v -0.029962 0.029962 -2.377776
v -0.039221 0.028495 -2.377776
v -0.047573 0.024240 -2.377776
v -0.054201 0.017611 -2.377776
v -0.058457 0.009259 -2.377776
v -0.059924 0.000000 -2.377776
v -0.058457 -0.009259 -2.377776
v -0.054201 -0.017611 -2.377776
v -0.047573 -0.024240 -2.377776
v -0.039221 -0.028495 -2.377776
v -0.029962 -0.029962 -2.377776
v -0.020703 -0.028495 0.962824
v -0.012351 -0.024240 0.962824
v -0.005722 -0.017611 0.962824
v -0.001466 -0.009259 0.962824
v 0.000000 0.000000 0.962824
v -0.001466 0.009259 0.962824
v -0.005722 0.017611 0.962824
v -0.012351 0.024240 0.962824
v -0.020703 0.028495 0.962824
v -0.029962 0.029962 0.962824
v -0.039220 0.028495 0.962824
v -0.047573 0.024240 0.962824
v -0.054201 0.017611 0.962824
v -0.058457 0.009259 0.962824
v -0.059923 0.000000 0.962824
v -0.058457 -0.009259 0.962824
v -0.054201 -0.017611 0.962824
v -0.047573 -0.024240 0.962824
v -0.039220 -0.028495 0.962824
v -0.029962 -0.029962 0.962824
v -0.021156 -0.027101 0.972082
v -0.013213 -0.023053 0.972082
v -0.006908 -0.016749 0.972082
v -0.002861 -0.008806 0.972082
v -0.001466 0.000000 0.972082
v -0.002861 0.008806 0.972082
v -0.006908 0.016749 0.972082
v -0.013213 0.023053 0.972082
v -0.021156 0.027101 0.972082
v -0.029962 0.028495 0.972082
v -0.038767 0.027101 0.972082
v -0.046711 0.023053 0.972082
v -0.053015 0.016749 0.972082
v -0.057062 0.008806 0.972082
v -0.058457 0.000000 0.972082
v -0.057062 -0.008806 0.972082
v -0.053015 -0.016749 0.972082
v -0.046711 -0.023053 0.972082
v -0.038767 -0.027101 0.972082
v -0.029962 -0.028495 0.972082
v -0.022471 -0.023053 0.980437
v -0.015714 -0.019610 0.980437
v -0.010351 -0.014248 0.980437
v -0.006908 -0.007490 0.980437
v -0.005722 0.000000 0.980437
v -0.006908 0.007490 0.980437
v -0.010351 0.014248 0.980437
v -0.015714 0.019610 0.980437
v -0.022471 0.023053 0.980437
v -0.029962 0.024240 0.980437
v -0.037452 0.023053 0.980437
v -0.044209 0.019610 0.980437
v -0.049572 0.014248 0.980437
v -0.053015 0.007490 0.980437
v -0.054201 0.000000 0.980437
v -0.053015 -0.007490 0.980437
v -0.049572 -0.014248 0.980437
v -0.044209 -0.019610 0.980437
v -0.037452 -0.023053 0.980437
v -0.029962 -0.024240 0.980437
v -0.024520 -0.016749 0.987063
v -0.019610 -0.014248 0.987063
v -0.015714 -0.010351 0.987063
v -0.013213 -0.005442 0.987063
v -0.012351 0.000000 0.987063
v -0.013213 0.005442 0.987063
v -0.015714 0.010352 0.987063
v -0.019610 0.014248 0.987063
v -0.024520 0.016749 0.987063
v -0.029962 0.017611 0.987063
v -0.035404 0.016749 0.987063
v -0.040313 0.014248 0.987063
v -0.044209 0.010352 0.987063
v -0.046711 0.005442 0.987063
v -0.047573 0.000000 0.987063
v -0.046711 -0.005442 0.987063
v -0.044209 -0.010351 0.987063
v -0.040313 -0.014248 0.987063
v -0.035404 -0.016749 0.987063
v -0.029962 -0.017611 0.987063
v -0.027101 -0.008806 0.991320
v -0.024520 -0.007490 0.991320
v -0.022471 -0.005442 0.991320
v -0.021156 -0.002861 0.991320
v -0.020703 0.000000 0.991320
v -0.021156 0.002861 0.991320
v -0.022471 0.005442 0.991320
v -0.024520 0.007490 0.991320
v -0.027101 0.008806 0.991320
v -0.029962 0.009259 0.991320
v -0.032823 0.008806 0.991320
v -0.035404 0.007490 0.991320
v -0.037452 0.005442 0.991320
v -0.038767 0.002861 0.991320
v -0.039220 0.000000 0.991320
v -0.038767 -0.002861 0.991320
v -0.037452 -0.005442 0.991320
v -0.035404 -0.007490 0.991320
v -0.032823 -0.008806 0.991320
v -0.029962 -0.009259 0.991320
v -0.029962 0.000000 0.992785
v -0.020703 -0.028495 -2.253794
v -0.012351 -0.024240 -2.253794
v -0.005722 -0.017611 -2.253794
v -0.001467 -0.009259 -2.253794
v -0.000000 0.000000 -2.253794
v -0.001467 0.009259 -2.253794
v -0.005722 0.017611 -2.253794
v -0.012351 0.024240 -2.253794
v -0.020703 0.028495 -2.253794
v -0.029962 0.029962 -2.253794
v -0.039221 0.028495 -2.253794
v -0.047573 0.024240 -2.253794
v -0.054201 0.017611 -2.253794
v -0.058457 0.009259 -2.253794
v -0.059924 0.000000 -2.253794
v -0.058457 -0.009259 -2.253794
v -0.054201 -0.017611 -2.253794
v -0.047573 -0.024240 -2.253794
v -0.039221 -0.028495 -2.253794
v -0.029962 -0.029962 -2.253794
v -0.020703 -0.028495 -0.000000
v -0.012351 -0.024240 -0.000000
v -0.005722 -0.017611 -0.000000
v -0.001466 -0.009259 -0.000000
v -0.000000 0.000000 -0.000000
v -0.001466 0.009259 -0.000000
v -0.005722 0.017611 -0.000000
v -0.012351 0.024240 -0.000000
v -0.020703 0.028495 -0.000000
v -0.029962 0.029962 -0.000000
v -0.039220 0.028495 -0.000000
v -0.047573 0.024240 -0.000000
v -0.054201 0.017611 -0.000000
v -0.058457 0.009259 -0.000000
v -0.059923 0.000000 -0.000000
v -0.058457 -0.009259 -0.000000
v -0.054201 -0.017611 -0.000000
v -0.047573 -0.024240 -0.000000
v -0.039220 -0.028495 -0.000000
v -0.029962 -0.029962 -0.000000
v -0.016517 -0.018506 -2.240794
v -0.022893 -0.021755 -2.240794
v -0.016516 -0.018506 -0.013001
v -0.022893 -0.021755 -0.013001
v -0.011456 -0.013445 -2.240794
v -0.011456 -0.013445 -0.013001
v -0.008207 -0.007069 -2.240794
v -0.008207 -0.007069 -0.013001
v -0.007087 0.000000 -2.240794
v -0.007087 0.000000 -0.013001
v -0.008207 0.007069 -2.240794
v -0.008207 0.007069 -0.013001
v -0.011456 0.013445 -2.240794
v -0.011456 0.013445 -0.013001
v -0.016517 0.018506 -2.240794
v -0.016516 0.018506 -0.013001
v -0.022893 0.021755 -2.240794
v -0.022893 0.021755 -0.013001
v -0.029962 0.022874 -2.240794
v -0.029962 0.022874 -0.013001
v -0.037030 0.021755 -2.240794
v -0.037030 0.021755 -0.013001
v -0.043407 0.018506 -2.240794
v -0.043407 0.018506 -0.013001
v -0.048468 0.013445 -2.240794
v -0.048468 0.013445 -0.013001
v -0.051717 0.007069 -2.240794
v -0.051717 0.007069 -0.013001
v -0.052836 0.000000 -2.240794
v -0.052836 0.000000 -0.013001
v -0.051717 -0.007069 -2.240794
v -0.051717 -0.007069 -0.013001
v -0.048468 -0.013445 -2.240794
v -0.048468 -0.013445 -0.013001
v -0.043407 -0.018506 -2.240794
v -0.043407 -0.018506 -0.013001
v -0.037030 -0.021755 -2.240794
v -0.037030 -0.021755 -0.013001
v -0.029962 -0.022874 -2.240794
v -0.029962 -0.022874 -0.013001
vn -0.9998 -0.0000 0.0189
vn -0.9993 -0.0000 0.0372
vn -0.9997 -0.0000 0.0241
vn 0.9998 -0.0001 0.0189
vn 0.9993 -0.0000 0.0372
vn 0.9998 -0.0000 0.0189
vn -0.0000 -0.0000 -1.0000
vn -0.0000 -0.9066 0.4221
vn -0.0000 -0.9003 0.4354
vn -0.0000 -0.9197 0.3926
vn -0.0000 0.9065 0.4223
vn -0.0000 0.9003 0.4354
vn -0.0000 0.9065 0.4221
vn -0.0000 0.9197 0.3926
vn -0.0000 -0.9065 0.4223
vn -1.0000 -0.0000 -0.0000
vn -0.0000 -0.9934 0.1145
vn -0.0000 -0.9198 0.3924
vn 1.0000 -0.0000 -0.0000
vn -0.0000 0.9934 0.1145
vn -0.0000 -1.0000 -0.0000
vn -0.0000 1.0000 -0.0000
vn -0.0000 -0.0000 1.0000
vn 0.9997 -0.0000 0.0230
vn -0.9997 -0.0000 0.0227
vn 0.9997 -0.0000 0.0239
vn -0.9131 -0.0000 -0.4078
vn 0.9131 -0.0000 -0.4078
vn -0.4875 -0.0000 0.8731
vn -0.3066 -0.0000 0.9518
vn -0.4889 -0.0003 0.8723
vn 0.4875 -0.0000 0.8731
vn 0.3066 -0.0000 0.9518
vn 0.4889 -0.0000 0.8723
vn -0.9899 -0.0000 0.1420
vn 0.9899 -0.0000 0.1420
vn 0.5878 -0.0000 0.8090
vn 0.3090 -0.0000 0.9510
vn 0.3090 -0.0000 0.9511
vn 0.8090 -0.0000 0.5878
vn 0.9510 -0.0000 0.3090
vn 0.9511 -0.0000 0.3090
vn 0.9511 -0.0000 -0.3090
vn 0.8090 -0.0000 -0.5878
vn 0.5877 -0.0000 -0.8090
vn 0.3090 -0.0000 -0.9511
vn 0.5878 -0.0000 -0.8090
vn 0.3090 -0.0000 -0.9510
vn -0.3090 -0.0000 -0.9510
vn -0.5878 -0.0000 -0.8090
vn -0.3090 -0.0000 -0.9511
vn -0.8090 -0.0000 -0.5878
vn -0.5877 -0.0000 -0.8091
vn -0.9511 -0.0000 -0.3090
vn -0.9511 -0.0000 0.3090
vn -0.8090 -0.0000 0.5878
vn -0.5878 -0.0000 0.8090
vn -0.3090 -0.0000 0.9510
vn -0.3090 -0.0000 0.9511
vn -0.3091 -0.0000 -0.9510
vn 0.0001 -0.0000 -1.0000
vn -0.0001 -0.0000 -1.0000
vn 0.3091 -0.0000 -0.9510
vn -0.3089 -0.0000 -0.9511
vn 0.3091 -0.0000 0.9510
vn 0.3089 -0.0000 0.9511
vn 0.0001 -0.0000 1.0000
vn -0.0001 -0.0000 1.0000
vn -0.3089 -0.0000 0.9511
vn -0.3091 -0.0000 0.9510
vn 0.3089 -0.0000 -0.9511
vn 0.5878 -0.8090 -0.0000
vn 0.3087 -0.9502 0.0414
vn 0.3090 -0.9511 -0.0000
vn 0.8090 -0.5878 -0.0000
vn 0.7201 -0.6496 0.2438
vn 0.9511 -0.3090 -0.0000
vn 0.8860 -0.3944 0.2438
vn 0.9644 -0.1023 0.2438
vn 0.9511 0.3090 -0.0000
vn 0.9491 0.1993 0.2438
vn 0.8090 0.5878 -0.0000
vn 0.8398 0.4850 0.2438
vn 0.5878 0.8090 -0.0000
vn 0.6496 0.7201 0.2438
vn 0.3090 0.9511 -0.0000
vn 0.3953 0.8856 0.2438
vn 0.1037 0.9643 0.2438
vn -0.3090 0.9511 -0.0000
vn -0.2017 0.9486 0.2438
vn -0.5878 0.8090 -0.0000
vn -0.4828 0.8411 0.2438
vn -0.8090 0.5878 -0.0000
vn -0.7208 0.6489 0.2438
vn -0.9511 0.3090 -0.0000
vn -0.8856 0.3953 0.2438
vn -0.9644 0.1023 0.2438
vn -0.9511 -0.3090 -0.0000
vn -0.9491 -0.1993 0.2438
vn -0.8090 -0.5878 -0.0000
vn -0.8404 -0.4841 0.2438
vn -0.5878 -0.8090 -0.0000
vn -0.6496 -0.7201 0.2438
vn -0.3090 -0.9511 -0.0000
vn -0.3944 -0.8860 0.2438
vn -0.1037 -0.9643 0.2438
vn 0.2007 -0.9488 0.2438
vn 0.3612 -0.9321 0.0248
vn 0.5613 -0.7726 0.2966
vn 0.2951 -0.9083 0.2965
vn 0.5447 -0.8383 0.0219
vn 0.7726 -0.5614 0.2965
vn 0.9657 -0.2588 0.0217
vn 0.7596 -0.6459 0.0767
vn 0.9550 -0.0000 0.2965
vn 0.9083 -0.2864 0.3049
vn 0.9334 0.3583 0.0217
vn 0.9942 -0.0760 0.0767
vn 0.7726 0.5613 0.2965
vn 0.9032 0.3022 0.3049
vn 0.8383 0.5447 0.0219
vn 0.5614 0.7727 0.2964
vn 0.6290 0.7771 0.0219
vn 0.2951 0.9083 0.2965
vn 0.3581 0.9334 0.0219
vn -0.0000 0.9550 0.2965
vn -0.3581 0.9334 0.0219
vn 0.0760 0.9942 0.0767
vn -0.6290 0.7771 0.0219
vn -0.3022 0.9032 0.3049
vn -0.8385 0.5445 0.0217
vn -0.5665 0.7656 0.3049
vn -0.9083 0.2951 0.2965
vn -0.7754 0.5530 0.3049
vn -0.9334 0.3581 0.0219
vn -0.9550 -0.0000 0.2965
vn -0.9334 -0.3581 0.0219
vn -0.9942 0.0760 0.0767
vn -0.7770 -0.6292 0.0217
vn -0.9032 -0.3022 0.3049
vn -0.5614 -0.7726 0.2965
vn -0.7656 -0.5665 0.3049
vn -0.2588 -0.9657 0.0217
vn -0.6459 -0.7596 0.0767
vn -0.0000 -0.9550 0.2965
vn -0.2864 -0.9083 0.3049
vn -0.0760 -0.9942 0.0767
vn 0.4849 -0.6674 0.5653
vn 0.2549 -0.7845 0.5653
vn 0.6687 -0.4630 0.5818
vn 0.7791 -0.2336 0.5818
vn 0.8131 0.0184 0.5818
vn 0.7676 0.2689 0.5818
vn 0.6470 0.4929 0.5818
vn 0.2549 0.7845 0.5653
vn 0.4631 0.6686 0.5818
vn -0.0000 0.8249 0.5653
vn -0.2549 0.7846 0.5652
vn -0.4928 0.6470 0.5818
vn -0.7846 0.2549 0.5652
vn -0.6687 0.4631 0.5818
vn -0.7845 -0.2549 0.5653
vn -0.8131 -0.0185 0.5818
vn -0.6674 -0.4848 0.5653
vn -0.4848 -0.6673 0.5654
vn -0.2549 -0.7845 0.5653
vn -0.0000 -0.8249 0.5652
vn 0.3674 -0.5057 0.7806
vn 0.1931 -0.5942 0.7808
vn 0.5006 -0.3215 0.8037
vn 0.6251 -0.0000 0.7805
vn 0.5754 -0.1516 0.8037
vn 0.5057 0.3674 0.7806
vn 0.5546 0.2156 0.8037
vn 0.3673 0.5055 0.7808
vn 0.1931 0.5944 0.7806
vn -0.0000 0.6248 0.7808
vn -0.1932 0.5944 0.7806
vn -0.3673 0.5056 0.7807
vn -0.5006 0.3216 0.8037
vn -0.5754 0.1512 0.8037
vn -0.5944 -0.1931 0.7807
vn -0.5940 -0.0340 0.8037
vn -0.5055 -0.3673 0.7808
vn -0.3674 -0.5057 0.7805
vn -0.1514 -0.5754 0.8037
vn 0.0340 -0.5940 0.8037
vn 0.1212 -0.3729 0.9199
vn 0.2422 -0.2095 0.9473
vn 0.3729 -0.1212 0.9199
vn 0.2949 -0.1248 0.9473
vn 0.3729 0.1212 0.9199
vn 0.3119 0.0723 0.9474
vn 0.2305 0.3172 0.9199
vn 0.2098 0.2419 0.9473
vn -0.0000 0.3921 0.9199
vn 0.0276 0.3190 0.9474
vn -0.2306 0.3172 0.9199
vn -0.1652 0.2743 0.9473
vn -0.2951 0.1244 0.9473
vn -0.3191 0.0271 0.9473
vn -0.3727 -0.1211 0.9200
vn -0.3119 -0.0723 0.9473
vn -0.3172 -0.2305 0.9199
vn -0.1212 -0.3729 0.9199
vn -0.1249 -0.2949 0.9473
vn 0.0723 -0.3119 0.9473
vn 0.5884 -0.8085 0.0117
vn 0.3090 -0.9510 -0.0117
vn 0.3090 -0.9510 0.0117
vn 0.8095 -0.5871 0.0107
vn 0.3578 -0.9034 -0.2362
vn 0.9512 -0.3082 0.0118
vn 0.6200 -0.7481 -0.2363
vn 0.9999 0.0008 0.0125
vn 0.8205 -0.5205 -0.2362
vn 0.9507 0.3098 0.0107
vn 0.9410 -0.2425 -0.2361
vn 0.8085 0.5884 0.0117
vn 0.9698 0.0612 -0.2362
vn 0.5871 0.8094 0.0117
vn 0.9034 0.3578 -0.2362
vn 0.3083 0.9512 0.0125
vn 0.7481 0.6200 -0.2363
vn -0.0008 0.9999 0.0107
vn 0.5214 0.8200 -0.2361
vn -0.3097 0.9508 0.0125
vn 0.2408 0.9414 -0.2363
vn -0.5884 0.8085 0.0107
vn -0.0612 0.9698 -0.2362
vn -0.8094 0.5871 0.0117
vn -0.3579 0.9034 -0.2362
vn -0.9512 0.3082 0.0118
vn -0.6195 0.7486 -0.2362
vn -0.9999 -0.0007 0.0125
vn -0.8200 0.5214 -0.2361
vn -0.9507 -0.3098 0.0118
vn -0.9414 0.2408 -0.2363
vn -0.8085 -0.5883 0.0117
vn -0.9699 -0.0601 -0.2361
vn -0.5871 -0.8093 0.0153
vn -0.9034 -0.3578 -0.2362
vn -0.3090 -0.9509 -0.0153
vn -0.7509 -0.6168 -0.2359
vn 0.0008 -0.9999 0.0117
vn -0.5235 -0.8187 0.2358
vn -0.2415 -0.9412 -0.2362
vn 0.5859 -0.8104 -0.0032
vn 0.3090 -0.9511 -0.0032
vn 0.8076 -0.5897 -0.0050
vn 0.9503 -0.3113 -0.0032
vn 1.0000 -0.0024 -0.0019
vn 0.9518 0.3068 -0.0032
vn 0.8104 0.5859 -0.0032
vn 0.5897 0.8076 -0.0050
vn 0.3113 0.9503 -0.0019
vn 0.0023 1.0000 -0.0050
vn -0.3068 0.9518 -0.0032
vn -0.5859 0.8104 -0.0032
vn -0.8076 0.5897 -0.0032
vn -0.9503 0.3113 -0.0019
vn -1.0000 0.0023 -0.0050
vn -0.9518 -0.3068 -0.0019
vn -0.8104 -0.5859 -0.0032
vn -0.5897 -0.8076 -0.0050
vn -0.3113 -0.9503 -0.0019
vn -0.0024 -1.0000 -0.0032
vn -0.0000 0.9198 0.3924
vt 0.606300 0.088980
vt 0.630879 0.141080
vt 0.604674 0.088992
vt 0.758137 0.100488
vt 0.705853 0.037889
vt 0.758122 0.011399
vt 0.975133 0.198349
vt 0.966441 0.300681
vt 0.966432 0.198350
vt 0.659314 0.299643
vt 0.652533 0.358489
vt 0.650566 0.299644
vt 0.090047 0.291868
vt 0.148893 0.285080
vt 0.148893 0.293043
vt 0.090048 0.318111
vt 0.148894 0.324895
vt 0.090048 0.326859
vt 0.994850 0.035420
vt 0.986136 0.137750
vt 0.986149 0.035419
vt 0.685558 0.299641
vt 0.692348 0.358486
vt 0.684385 0.358487
vt 0.148894 0.316931
vt 0.660496 0.358489
vt 0.599695 0.068178
vt 0.659312 0.277663
vt 0.650564 0.277664
vt 0.694304 0.277660
vt 0.694306 0.299640
vt 0.778987 0.106758
vt 0.778970 0.004983
vt 0.068069 0.318112
vt 0.068069 0.326860
vt 0.068068 0.283120
vt 0.068068 0.291869
vt 0.598270 0.068189
vt 0.599454 0.036021
vt 0.659310 0.245190
vt 0.650561 0.245191
vt 0.685556 0.277661
vt 0.694302 0.245187
vt 0.811146 0.106766
vt 0.811128 0.004882
vt 0.035595 0.318113
vt 0.035596 0.326861
vt 0.035594 0.283121
vt 0.035594 0.291870
vt 0.813261 0.097821
vt 0.839251 0.009303
vt 0.839251 0.097821
vt 0.740429 0.212245
vt 0.708271 0.111786
vt 0.740429 0.110360
vt 0.687422 0.206222
vt 0.708270 0.212245
vt 0.931029 0.100206
vt 0.910181 0.005770
vt 0.931030 0.011688
vt 0.878022 0.106229
vt 0.910181 0.106229
vt 0.752013 0.004345
vt 0.743350 0.002930
vt 0.752013 0.002930
vt 0.878022 0.004344
vt 0.910181 0.002930
vt 0.931030 0.009185
vt 0.813261 0.009303
vt 0.839251 0.006800
vt 0.687422 0.115201
vt 0.708270 0.108946
vt 0.740429 0.108946
vt 0.741209 0.004345
vt 0.732545 0.002930
vt 0.741209 0.002930
vt 0.725594 0.011593
vt 0.723649 0.002930
vt 0.725596 0.002930
vt 0.708270 0.214191
vt 0.740429 0.214191
vt 0.687421 0.207936
vt 0.813261 0.099535
vt 0.839251 0.099535
vt 0.931029 0.101920
vt 0.878022 0.108175
vt 0.910181 0.108175
vt 0.730043 0.011593
vt 0.728097 0.002930
vt 0.730044 0.002930
vt 0.845674 0.002930
vt 0.878022 0.002930
vt 0.975130 0.165860
vt 0.598039 0.036031
vt 0.599222 0.003673
vt 0.002930 0.283122
vt 0.843494 0.108175
vt 0.811146 0.108181
vt 0.994854 0.002931
vt 0.772777 0.110360
vt 0.002931 0.318114
vt 0.994837 0.137751
vt 0.986131 0.170239
vt 0.811128 0.002935
vt 0.843476 0.004876
vt 0.685554 0.245188
vt 0.694299 0.212523
vt 0.772777 0.214191
vt 0.975143 0.300680
vt 0.966444 0.333171
vt 0.845674 0.106229
vt 0.659307 0.212525
vt 0.701336 0.035291
vt 0.703051 0.002930
vt 0.703282 0.035277
vt 0.880634 0.141641
vt 0.882265 0.149527
vt 0.880635 0.149527
vt 0.880630 0.117984
vt 0.882355 0.141641
vt 0.880629 0.110098
vt 0.882622 0.117984
vt 0.701211 0.067451
vt 0.694823 0.088346
vt 0.632961 0.141065
vt 0.882712 0.110098
vt 0.919165 0.117978
vt 0.918936 0.141635
vt 0.918859 0.149522
vt 0.778987 0.108186
vt 0.758137 0.101935
vt 0.705859 0.076113
vt 0.703513 0.067435
vt 0.697407 0.088328
vt 0.671951 0.140786
vt 0.919241 0.110092
vt 0.921703 0.117978
vt 0.921707 0.141635
vt 0.921708 0.149521
vt 0.705853 0.035040
vt 0.758121 0.009200
vt 0.778969 0.002941
vt 0.443403 0.281213
vt 0.002931 0.224076
vt 0.443405 0.224091
vt 0.443402 0.002930
vt 0.002936 0.041203
vt 0.002930 0.002998
vt 0.768540 0.288817
vt 0.733669 0.216109
vt 0.768549 0.231695
vt 0.443430 0.183885
vt 0.002964 0.222158
vt 0.002958 0.183953
vt 0.958197 0.177995
vt 0.880629 0.200036
vt 0.923414 0.162190
vt 0.443409 0.049006
vt 0.002943 0.084165
vt 0.002937 0.049075
vt 0.002957 0.176081
vt 0.443423 0.140922
vt 0.443429 0.176012
vt 0.443415 0.084097
vt 0.002946 0.102954
vt 0.002951 0.140991
vt 0.443420 0.122133
vt 0.957082 0.228833
vt 0.930217 0.227513
vt 0.944635 0.214760
vt 0.898071 0.241583
vt 0.715111 0.250623
vt 0.696319 0.269869
vt 0.696322 0.250620
vt 0.002949 0.122203
vt 0.725862 0.303273
vt 0.715107 0.269872
vt 0.443408 0.041134
vt 0.725876 0.217225
vt 0.733655 0.304392
vt 0.892071 0.236486
vt 0.612993 0.142998
vt 0.610465 0.304003
vt 0.610462 0.142998
vt 0.615524 0.142998
vt 0.612996 0.304003
vt 0.618054 0.142998
vt 0.615526 0.304003
vt 0.620585 0.142998
vt 0.618057 0.304003
vt 0.623116 0.142998
vt 0.620588 0.304003
vt 0.625647 0.142998
vt 0.623119 0.304003
vt 0.628178 0.142998
vt 0.625650 0.304003
vt 0.630709 0.142998
vt 0.628181 0.304003
vt 0.633240 0.142998
vt 0.630711 0.304003
vt 0.635770 0.142998
vt 0.633242 0.304003
vt 0.638301 0.142998
vt 0.635773 0.304003
vt 0.640832 0.142998
vt 0.638303 0.304002
vt 0.643362 0.142997
vt 0.640834 0.304002
vt 0.645893 0.142997
vt 0.643365 0.304002
vt 0.648424 0.142997
vt 0.645896 0.304002
vt 0.600339 0.142998
vt 0.597811 0.304003
vt 0.597808 0.142998
vt 0.602869 0.142998
vt 0.600341 0.304003
vt 0.605400 0.142998
vt 0.602872 0.304003
vt 0.607931 0.142998
vt 0.605403 0.304003
vt 0.607934 0.304003
vt 0.847950 0.040138
vt 0.845542 0.039356
vt 0.849214 0.032149
vt 0.850480 0.040138
vt 0.852887 0.039356
vt 0.854935 0.037868
vt 0.856422 0.035821
vt 0.857204 0.033414
vt 0.857204 0.030883
vt 0.856422 0.028476
vt 0.854934 0.026429
vt 0.852886 0.024941
vt 0.850480 0.024159
vt 0.847949 0.024159
vt 0.845541 0.024942
vt 0.843494 0.026429
vt 0.842007 0.028477
vt 0.841225 0.030884
vt 0.841225 0.033415
vt 0.842007 0.035821
vt 0.843495 0.037869
vt 0.635250 0.007248
vt 0.636032 0.009655
vt 0.628042 0.010919
vt 0.636031 0.012186
vt 0.635249 0.014593
vt 0.633761 0.016640
vt 0.631714 0.018127
vt 0.629306 0.018909
vt 0.626776 0.018909
vt 0.624369 0.018126
vt 0.622322 0.016638
vt 0.620834 0.014591
vt 0.620052 0.012184
vt 0.620053 0.009653
vt 0.620835 0.007246
vt 0.622323 0.005199
vt 0.624371 0.003711
vt 0.626778 0.002930
vt 0.629308 0.002930
vt 0.631715 0.003712
vt 0.633763 0.005200
vt 0.820704 0.110110
vt 0.818151 0.271115
vt 0.818173 0.110110
vt 0.815620 0.271114
vt 0.815642 0.110109
vt 0.813089 0.271114
vt 0.813111 0.110109
vt 0.810559 0.271114
vt 0.810580 0.110109
vt 0.808028 0.271113
vt 0.808050 0.110108
vt 0.805497 0.271113
vt 0.805519 0.110108
vt 0.802967 0.271113
vt 0.802988 0.110108
vt 0.800436 0.271112
vt 0.800458 0.110107
vt 0.797905 0.271112
vt 0.797927 0.110107
vt 0.795374 0.271112
vt 0.795396 0.110107
vt 0.792843 0.271111
vt 0.792865 0.110106
vt 0.790313 0.271111
vt 0.790334 0.110106
vt 0.787782 0.271111
vt 0.787803 0.110106
vt 0.785251 0.271110
vt 0.785273 0.110105
vt 0.782720 0.271110
vt 0.782742 0.110105
vt 0.780189 0.271110
vt 0.780211 0.110104
vt 0.777658 0.271109
vt 0.777680 0.110104
vt 0.775127 0.271109
vt 0.775149 0.110104
vt 0.825765 0.110111
vt 0.823213 0.271115
vt 0.823235 0.110110
vt 0.820682 0.271115
vt 0.246789 0.283125
vt 0.249319 0.383489
vt 0.246788 0.383489
vt 0.244258 0.383489
vt 0.244259 0.283125
vt 0.241727 0.383489
vt 0.241728 0.283125
vt 0.239196 0.383489
vt 0.239197 0.283124
vt 0.236665 0.383489
vt 0.236666 0.283124
vt 0.234135 0.283124
vt 0.234134 0.383489
vt 0.231604 0.383489
vt 0.231605 0.283124
vt 0.229073 0.383489
vt 0.229074 0.283124
vt 0.226542 0.383489
vt 0.226543 0.283124
vt 0.224012 0.283124
vt 0.224011 0.383489
vt 0.221480 0.383489
vt 0.221481 0.283124
vt 0.218949 0.383489
vt 0.218950 0.283124
vt 0.216419 0.383489
vt 0.216420 0.283124
vt 0.213888 0.383489
vt 0.213889 0.283124
vt 0.211357 0.383489
vt 0.211358 0.283124
vt 0.208827 0.383489
vt 0.208828 0.283124
vt 0.206296 0.383489
vt 0.206297 0.283124
vt 0.203765 0.383489
vt 0.203766 0.283124
vt 0.254382 0.283125
vt 0.251850 0.383489
vt 0.251851 0.283125
vt 0.249320 0.283125
vt 0.859802 0.035145
vt 0.861698 0.037975
vt 0.859021 0.037551
vt 0.859021 0.040082
vt 0.861699 0.039658
vt 0.859803 0.042489
vt 0.862218 0.041258
vt 0.863208 0.042619
vt 0.861291 0.044537
vt 0.863338 0.046024
vt 0.864569 0.043608
vt 0.866169 0.044128
vt 0.865745 0.046806
vt 0.867852 0.044128
vt 0.868276 0.046806
vt 0.870683 0.046024
vt 0.869452 0.043608
vt 0.870813 0.042619
vt 0.872730 0.044536
vt 0.874218 0.042488
vt 0.871802 0.041258
vt 0.875000 0.040081
vt 0.872322 0.039657
vt 0.872322 0.037975
vt 0.875000 0.037551
vt 0.871802 0.036375
vt 0.874217 0.035144
vt 0.872730 0.033096
vt 0.870813 0.035014
vt 0.869451 0.034025
vt 0.870682 0.031609
vt 0.868275 0.030827
vt 0.867851 0.033505
vt 0.866168 0.033505
vt 0.865744 0.030827
vt 0.864568 0.034025
vt 0.863337 0.031609
vt 0.861290 0.033097
vt 0.863207 0.035014
vt 0.862218 0.036375
vt 0.602405 0.007245
vt 0.605848 0.007155
vt 0.604869 0.008502
vt 0.605940 0.003711
vt 0.603892 0.005198
vt 0.608347 0.002930
vt 0.607195 0.006176
vt 0.610878 0.002930
vt 0.608780 0.005662
vt 0.612028 0.006177
vt 0.610445 0.005662
vt 0.613285 0.003713
vt 0.613376 0.007156
vt 0.616819 0.007249
vt 0.615332 0.005201
vt 0.617601 0.009656
vt 0.614354 0.008504
vt 0.614868 0.011753
vt 0.614869 0.010088
vt 0.617600 0.012186
vt 0.614353 0.013337
vt 0.615330 0.016640
vt 0.616818 0.014593
vt 0.612027 0.015663
vt 0.613374 0.014684
vt 0.613282 0.018127
vt 0.610443 0.016177
vt 0.608344 0.018908
vt 0.610875 0.018909
vt 0.605937 0.018126
vt 0.608778 0.016177
vt 0.603890 0.016638
vt 0.607194 0.015662
vt 0.604868 0.013335
vt 0.605846 0.014682
vt 0.601621 0.012183
vt 0.602403 0.014590
vt 0.601622 0.009652
vt 0.604353 0.011751
vt 0.604354 0.010086
vt 0.707487 0.005199
vt 0.710629 0.005860
vt 0.709192 0.006904
vt 0.708147 0.008341
vt 0.705999 0.007246
vt 0.707598 0.010030
vt 0.705217 0.009652
vt 0.707598 0.011807
vt 0.705217 0.012183
vt 0.708146 0.013496
vt 0.705998 0.014590
vt 0.707485 0.016638
vt 0.709190 0.014934
vt 0.710627 0.015978
vt 0.709532 0.018126
vt 0.711939 0.018909
vt 0.712317 0.016528
vt 0.714470 0.018909
vt 0.714093 0.016528
vt 0.715783 0.015979
vt 0.716877 0.018127
vt 0.718925 0.016640
vt 0.717221 0.014935
vt 0.718265 0.013498
vt 0.720413 0.014593
vt 0.718814 0.011809
vt 0.721195 0.012186
vt 0.721196 0.009655
vt 0.718815 0.010032
vt 0.718266 0.008342
vt 0.720414 0.007248
vt 0.718927 0.005201
vt 0.717222 0.006905
vt 0.716880 0.003713
vt 0.715785 0.005861
vt 0.714473 0.002930
vt 0.714096 0.005311
vt 0.712319 0.005311
vt 0.711942 0.002930
vt 0.709535 0.003711
vt 0.845542 0.021459
vt 0.848280 0.020149
vt 0.847948 0.022241
vt 0.850479 0.022241
vt 0.850148 0.020149
vt 0.851925 0.019572
vt 0.852886 0.021460
vt 0.853436 0.018474
vt 0.854934 0.019972
vt 0.854535 0.016963
vt 0.856421 0.017925
vt 0.855112 0.015187
vt 0.857204 0.015518
vt 0.855112 0.013319
vt 0.857204 0.012987
vt 0.856423 0.010580
vt 0.854535 0.011542
vt 0.854935 0.008533
vt 0.853437 0.010030
vt 0.851926 0.008932
vt 0.852888 0.007045
vt 0.850481 0.006262
vt 0.850150 0.008355
vt 0.848281 0.008354
vt 0.847951 0.006262
vt 0.846505 0.008931
vt 0.845544 0.007044
vt 0.843496 0.008531
vt 0.844993 0.010029
vt 0.842008 0.010578
vt 0.843895 0.011540
vt 0.841226 0.012985
vt 0.843317 0.013317
vt 0.843317 0.015185
vt 0.841225 0.015516
vt 0.842007 0.017923
vt 0.843894 0.016962
vt 0.843494 0.019971
vt 0.844992 0.018473
vt 0.846503 0.019571
vt 0.978959 0.002937
vt 0.976404 0.163942
vt 0.976428 0.002936
vt 0.981490 0.002937
vt 0.978935 0.163942
vt 0.984021 0.002937
vt 0.981466 0.163943
vt 0.935935 0.002930
vt 0.933380 0.163935
vt 0.933405 0.002930
vt 0.938466 0.002930
vt 0.935911 0.163936
vt 0.940997 0.002931
vt 0.938442 0.163936
vt 0.943528 0.002931
vt 0.940973 0.163936
vt 0.946059 0.002932
vt 0.943503 0.163937
vt 0.948590 0.002932
vt 0.946034 0.163937
vt 0.951120 0.002932
vt 0.948565 0.163937
vt 0.953651 0.002933
vt 0.951096 0.163938
vt 0.956182 0.002933
vt 0.953627 0.163938
vt 0.958713 0.002933
vt 0.956158 0.163939
vt 0.961243 0.002934
vt 0.958689 0.163939
vt 0.963774 0.002934
vt 0.961219 0.163939
vt 0.966305 0.002935
vt 0.963750 0.163940
vt 0.968836 0.002935
vt 0.966280 0.163940
vt 0.971367 0.002935
vt 0.968812 0.163941
vt 0.973898 0.002936
vt 0.971342 0.163941
vt 0.973873 0.163941
vt 0.682069 0.018909
vt 0.679662 0.018126
vt 0.683335 0.010919
vt 0.684600 0.018909
vt 0.687007 0.018127
vt 0.689055 0.016640
vt 0.690542 0.014592
vt 0.691325 0.012185
vt 0.691325 0.009655
vt 0.690543 0.007248
vt 0.689056 0.005200
vt 0.687008 0.003712
vt 0.684602 0.002930
vt 0.682071 0.002930
vt 0.679663 0.003712
vt 0.677616 0.005199
vt 0.676128 0.007246
vt 0.675346 0.009653
vt 0.675346 0.012184
vt 0.676127 0.014591
vt 0.677615 0.016639
vt 0.870683 0.028127
vt 0.868276 0.028909
vt 0.867010 0.020920
vt 0.865746 0.028909
vt 0.863338 0.028127
vt 0.861291 0.026640
vt 0.859803 0.024593
vt 0.859021 0.022186
vt 0.859021 0.019655
vt 0.859802 0.017248
vt 0.861289 0.015201
vt 0.863337 0.013713
vt 0.865744 0.012930
vt 0.868275 0.012930
vt 0.870682 0.013712
vt 0.872729 0.015199
vt 0.874217 0.017247
vt 0.875000 0.019653
vt 0.875000 0.022184
vt 0.874218 0.024591
vt 0.872730 0.026639
vt 0.853202 0.110098
vt 0.850656 0.271103
vt 0.850671 0.110098
vt 0.848125 0.271103
vt 0.848140 0.110098
vt 0.845594 0.271102
vt 0.845609 0.110098
vt 0.843063 0.271102
vt 0.843078 0.110098
vt 0.840533 0.271102
vt 0.840548 0.110097
vt 0.838002 0.271102
vt 0.838017 0.110097
vt 0.835471 0.271102
vt 0.835486 0.110097
vt 0.832940 0.271101
vt 0.832955 0.110097
vt 0.830409 0.271101
vt 0.830424 0.110096
vt 0.827878 0.271101
vt 0.827893 0.110096
vt 0.878510 0.110101
vt 0.875964 0.271105
vt 0.875979 0.110101
vt 0.873433 0.271105
vt 0.873448 0.110100
vt 0.870902 0.271105
vt 0.870917 0.110100
vt 0.868371 0.271105
vt 0.868386 0.110100
vt 0.865841 0.271104
vt 0.865856 0.110100
vt 0.863310 0.271104
vt 0.863325 0.110099
vt 0.860779 0.271104
vt 0.860794 0.110099
vt 0.858248 0.271104
vt 0.858263 0.110099
vt 0.855717 0.271103
vt 0.855732 0.110099
vt 0.853187 0.271103
vt 0.173791 0.283124
vt 0.176327 0.383488
vt 0.173797 0.383489
vt 0.171266 0.383489
vt 0.171260 0.283125
vt 0.168735 0.383489
vt 0.168729 0.283125
vt 0.166204 0.383489
vt 0.166198 0.283125
vt 0.163673 0.383489
vt 0.163668 0.283125
vt 0.161143 0.383489
vt 0.161137 0.283125
vt 0.158612 0.383489
vt 0.158606 0.283125
vt 0.156081 0.383490
vt 0.156076 0.283125
vt 0.153550 0.383490
vt 0.153545 0.283126
vt 0.151014 0.283126
vt 0.151019 0.383490
vt 0.201630 0.283123
vt 0.199104 0.383487
vt 0.199099 0.283123
vt 0.196574 0.383487
vt 0.196568 0.283123
vt 0.194043 0.383487
vt 0.194038 0.283123
vt 0.191512 0.383488
vt 0.191507 0.283123
vt 0.188981 0.383488
vt 0.188976 0.283124
vt 0.186451 0.383488
vt 0.186445 0.283124
vt 0.183920 0.383488
vt 0.183914 0.283124
vt 0.181389 0.383488
vt 0.181384 0.283124
vt 0.178858 0.383488
vt 0.178853 0.283124
vt 0.176322 0.283124
vt 0.870682 0.063921
vt 0.870813 0.060516
vt 0.872730 0.062433
vt 0.874217 0.060386
vt 0.871801 0.059155
vt 0.874999 0.057979
vt 0.872321 0.057554
vt 0.872321 0.055872
vt 0.874999 0.055448
vt 0.874217 0.053041
vt 0.871801 0.054272
vt 0.870813 0.052910
vt 0.872729 0.050993
vt 0.869451 0.051922
vt 0.870682 0.049506
vt 0.868275 0.048724
vt 0.867851 0.051402
vt 0.866168 0.051402
vt 0.865744 0.048724
vt 0.863338 0.049506
vt 0.864568 0.051922
vt 0.861290 0.050994
vt 0.863207 0.052911
vt 0.862218 0.054272
vt 0.859802 0.053041
vt 0.861698 0.055872
vt 0.859021 0.055448
vt 0.859021 0.057979
vt 0.861698 0.057555
vt 0.862218 0.059155
vt 0.859802 0.060386
vt 0.861290 0.062433
vt 0.863207 0.060516
vt 0.864568 0.061505
vt 0.863338 0.063921
vt 0.866168 0.062025
vt 0.865745 0.064703
vt 0.868275 0.064703
vt 0.867851 0.062025
vt 0.869451 0.061505
vt 0.845540 0.042839
vt 0.848381 0.044788
vt 0.846797 0.045303
vt 0.850478 0.042056
vt 0.847947 0.042056
vt 0.852886 0.042838
vt 0.850046 0.044788
vt 0.854933 0.044325
vt 0.851629 0.045302
vt 0.853956 0.047628
vt 0.852977 0.046281
vt 0.856421 0.046372
vt 0.854471 0.049212
vt 0.857204 0.051310
vt 0.857203 0.048779
vt 0.856423 0.053717
vt 0.854471 0.050877
vt 0.852979 0.053809
vt 0.853957 0.052461
vt 0.854935 0.055764
vt 0.851631 0.054788
vt 0.850481 0.058035
vt 0.852888 0.057252
vt 0.848382 0.055303
vt 0.850048 0.055303
vt 0.847950 0.058035
vt 0.846798 0.054789
vt 0.843496 0.055766
vt 0.845543 0.057254
vt 0.842007 0.053719
vt 0.845451 0.053810
vt 0.841225 0.051312
vt 0.844472 0.052463
vt 0.843957 0.049214
vt 0.843957 0.050879
vt 0.842006 0.046375
vt 0.841225 0.048782
vt 0.843493 0.044327
vt 0.844471 0.047630
vt 0.845450 0.046282
vt 0.659185 0.005199
vt 0.662328 0.005860
vt 0.660890 0.006904
vt 0.659846 0.008341
vt 0.657697 0.007246
vt 0.659297 0.010030
vt 0.656915 0.009653
vt 0.659297 0.011807
vt 0.656914 0.012184
vt 0.659845 0.013496
vt 0.657697 0.014591
vt 0.659183 0.016638
vt 0.660888 0.014934
vt 0.662326 0.015978
vt 0.661231 0.018126
vt 0.663638 0.018908
vt 0.664016 0.016527
vt 0.666168 0.018909
vt 0.665792 0.016528
vt 0.667481 0.015979
vt 0.668576 0.018127
vt 0.670624 0.016640
vt 0.668919 0.014935
vt 0.669964 0.013498
vt 0.672111 0.014593
vt 0.670513 0.011808
vt 0.672894 0.012186
vt 0.672894 0.009655
vt 0.670513 0.010032
vt 0.669964 0.008342
vt 0.672112 0.007248
vt 0.670625 0.005200
vt 0.668920 0.006905
vt 0.668578 0.003713
vt 0.667483 0.005860
vt 0.666171 0.002930
vt 0.665793 0.005311
vt 0.664016 0.005311
vt 0.663640 0.002930
vt 0.661233 0.003711
vt 0.645206 0.018908
vt 0.647406 0.016817
vt 0.647737 0.018909
vt 0.650144 0.018127
vt 0.649183 0.016240
vt 0.650694 0.015142
vt 0.652192 0.016640
vt 0.651793 0.013631
vt 0.653680 0.014593
vt 0.652370 0.011854
vt 0.654462 0.012186
vt 0.652370 0.009986
vt 0.654463 0.009655
vt 0.651793 0.008210
vt 0.653681 0.007248
vt 0.652194 0.005200
vt 0.650696 0.006698
vt 0.650147 0.003713
vt 0.649185 0.005600
vt 0.647408 0.005022
vt 0.647740 0.002930
vt 0.645209 0.002930
vt 0.645540 0.005022
vt 0.643763 0.005599
vt 0.642802 0.003711
vt 0.642252 0.006697
vt 0.640754 0.005198
vt 0.639266 0.007246
vt 0.641154 0.008208
vt 0.638484 0.009653
vt 0.640576 0.009984
vt 0.638483 0.012183
vt 0.640576 0.011852
vt 0.641153 0.013629
vt 0.639265 0.014590
vt 0.640752 0.016638
vt 0.642250 0.015141
vt 0.642800 0.018126
vt 0.643761 0.016239
vt 0.645538 0.016816
vt 0.909911 0.243504
vt 0.905730 0.298830
vt 0.905728 0.243504
vt 0.914094 0.243504
vt 0.909913 0.298830
vt 0.918277 0.243504
vt 0.914097 0.298830
vt 0.922460 0.243504
vt 0.918280 0.298830
vt 0.926643 0.243503
vt 0.922463 0.298829
vt 0.930827 0.243503
vt 0.926646 0.298829
vt 0.935010 0.243503
vt 0.930829 0.298829
vt 0.939193 0.243503
vt 0.935012 0.298829
vt 0.943376 0.243503
vt 0.939195 0.298829
vt 0.947559 0.243503
vt 0.943378 0.298828
vt 0.951742 0.243502
vt 0.947561 0.298828
vt 0.955925 0.243502
vt 0.951744 0.298828
vt 0.960108 0.243502
vt 0.955928 0.298828
vt 0.964291 0.243502
vt 0.960111 0.298828
vt 0.884813 0.243505
vt 0.880632 0.298831
vt 0.880629 0.243505
vt 0.888996 0.243505
vt 0.884815 0.298831
vt 0.893179 0.243505
vt 0.888998 0.298831
vt 0.897362 0.243505
vt 0.893181 0.298831
vt 0.901545 0.243505
vt 0.897364 0.298830
vt 0.901547 0.298830
vt 0.266587 0.284949
vt 0.272870 0.287113
vt 0.268455 0.288535
vt 0.272202 0.283125
vt 0.277509 0.287124
vt 0.283720 0.284950
vt 0.278105 0.283126
vt 0.285663 0.291305
vt 0.281917 0.288569
vt 0.291966 0.293197
vt 0.288496 0.288421
vt 0.289802 0.299480
vt 0.288380 0.295065
vt 0.293789 0.298812
vt 0.289790 0.304119
vt 0.293789 0.304715
vt 0.288346 0.308527
vt 0.291965 0.310330
vt 0.285610 0.312273
vt 0.283718 0.318575
vt 0.288494 0.315106
vt 0.278103 0.320399
vt 0.281850 0.314990
vt 0.272200 0.320399
vt 0.277435 0.316412
vt 0.268388 0.314956
vt 0.272796 0.316400
vt 0.266585 0.318574
vt 0.264642 0.312219
vt 0.258340 0.310328
vt 0.261809 0.315104
vt 0.256516 0.304713
vt 0.261925 0.308460
vt 0.260515 0.299406
vt 0.260503 0.304045
vt 0.258340 0.293195
vt 0.256516 0.298810
vt 0.264695 0.291252
vt 0.261959 0.294998
vt 0.261811 0.288419
vt 0.273501 0.290881
vt 0.270219 0.291924
vt 0.276944 0.290904
vt 0.280212 0.291989
vt 0.282985 0.294030
vt 0.284990 0.296829
vt 0.286033 0.300111
vt 0.284926 0.306822
vt 0.286011 0.303554
vt 0.282884 0.309594
vt 0.280085 0.311600
vt 0.276804 0.312643
vt 0.270093 0.311536
vt 0.273361 0.312621
vt 0.265315 0.306695
vt 0.267321 0.309494
vt 0.264272 0.303414
vt 0.264294 0.299971
vt 0.265379 0.296703
vt 0.267421 0.293930
vt 0.274091 0.294543
vt 0.271913 0.295225
vt 0.276374 0.294569
vt 0.280369 0.296661
vt 0.278537 0.295298
vt 0.282371 0.300701
vt 0.281690 0.298522
vt 0.282346 0.302984
vt 0.281616 0.305147
vt 0.280254 0.306979
vt 0.278392 0.308300
vt 0.276213 0.308981
vt 0.273931 0.308956
vt 0.271768 0.308226
vt 0.268615 0.305002
vt 0.269936 0.306864
vt 0.267934 0.302823
vt 0.267959 0.300541
vt 0.268689 0.298378
vt 0.270051 0.296546
vt 0.273551 0.298491
vt 0.274640 0.298156
vt 0.276857 0.298543
vt 0.275779 0.298174
vt 0.278424 0.300160
vt 0.277769 0.299228
vt 0.278741 0.302389
vt 0.278759 0.301250
vt 0.277687 0.304379
vt 0.278371 0.303467
vt 0.275665 0.305368
vt 0.276754 0.305034
vt 0.274526 0.305351
vt 0.273447 0.304981
vt 0.271881 0.303364
vt 0.272536 0.304297
vt 0.271546 0.302275
vt 0.271934 0.300057
vt 0.271564 0.301135
vt 0.272618 0.299146
vt 0.275152 0.301762
vt 0.468407 0.002933
vt 0.465072 0.997064
vt 0.465213 0.002932
vt 0.471600 0.002933
vt 0.468266 0.997064
vt 0.474794 0.002934
vt 0.471460 0.997065
vt 0.477988 0.002934
vt 0.474653 0.997065
vt 0.481181 0.002935
vt 0.477847 0.997066
vt 0.484375 0.002935
vt 0.481040 0.997066
vt 0.487568 0.002935
vt 0.484234 0.997067
vt 0.490762 0.002936
vt 0.487428 0.997067
vt 0.493956 0.002936
vt 0.490621 0.997068
vt 0.497149 0.002937
vt 0.493815 0.997068
vt 0.500343 0.002937
vt 0.497008 0.997068
vt 0.503536 0.002938
vt 0.500202 0.997069
vt 0.506730 0.002938
vt 0.503396 0.997069
vt 0.509924 0.002939
vt 0.506589 0.997070
vt 0.449245 0.002930
vt 0.445911 0.997061
vt 0.446051 0.002930
vt 0.452439 0.002931
vt 0.449104 0.997062
vt 0.455632 0.002931
vt 0.452298 0.997062
vt 0.458685 0.997063
vt 0.455492 0.997063
vt 0.462020 0.002932
vt 0.458826 0.002932
vt 0.461879 0.997064
vt 0.541303 0.002931
vt 0.537107 0.432582
vt 0.537120 0.002930
vt 0.545486 0.002931
vt 0.541290 0.432582
vt 0.549669 0.002931
vt 0.545473 0.432582
vt 0.553852 0.002931
vt 0.549656 0.432582
vt 0.558036 0.002931
vt 0.553839 0.432583
vt 0.562219 0.002931
vt 0.558022 0.432583
vt 0.566402 0.002931
vt 0.562205 0.432583
vt 0.570585 0.002931
vt 0.566388 0.432583
vt 0.574768 0.002931
vt 0.570572 0.432583
vt 0.578951 0.002932
vt 0.574755 0.432583
vt 0.583134 0.002932
vt 0.578938 0.432583
vt 0.587317 0.002932
vt 0.583121 0.432583
vt 0.591500 0.002932
vt 0.587304 0.432584
vt 0.595683 0.002932
vt 0.591487 0.432584
vt 0.516205 0.002930
vt 0.512008 0.432581
vt 0.512022 0.002930
vt 0.520388 0.002930
vt 0.516191 0.432581
vt 0.524571 0.002930
vt 0.520374 0.432581
vt 0.528754 0.002930
vt 0.524558 0.432582
vt 0.532937 0.002930
vt 0.528741 0.432582
vt 0.532924 0.432582
vt 0.343682 0.283128
vt 0.341827 0.290300
vt 0.338871 0.284690
vt 0.297484 0.291759
vt 0.302197 0.297475
vt 0.295920 0.296570
vt 0.348740 0.283128
vt 0.344760 0.289377
vt 0.302169 0.300551
vt 0.295920 0.301630
vt 0.350753 0.290380
vt 0.347836 0.289404
vt 0.297485 0.306443
vt 0.303094 0.303484
vt 0.353552 0.284690
vt 0.353225 0.292210
vt 0.300461 0.310536
vt 0.304880 0.305988
vt 0.360618 0.291756
vt 0.357645 0.287663
vt 0.307352 0.307817
vt 0.304556 0.313509
vt 0.355935 0.297648
vt 0.355009 0.294715
vt 0.310268 0.308792
vt 0.309369 0.315069
vt 0.362183 0.296565
vt 0.355908 0.300723
vt 0.313344 0.308817
vt 0.314428 0.315065
vt 0.362185 0.301624
vt 0.354932 0.303640
vt 0.319235 0.313501
vt 0.316277 0.307891
vt 0.357649 0.310532
vt 0.360623 0.306438
vt 0.318781 0.306107
vt 0.323327 0.310530
vt 0.350598 0.307896
vt 0.353102 0.306111
vt 0.326301 0.306437
vt 0.320612 0.303636
vt 0.348742 0.315070
vt 0.353555 0.313506
vt 0.327865 0.301624
vt 0.321588 0.300720
vt 0.344590 0.308791
vt 0.347665 0.308820
vt 0.327864 0.296564
vt 0.321615 0.297644
vt 0.343683 0.315068
vt 0.341674 0.307814
vt 0.326300 0.291752
vt 0.320691 0.294711
vt 0.338874 0.313504
vt 0.339201 0.305985
vt 0.318905 0.292208
vt 0.323323 0.287659
vt 0.331807 0.306443
vt 0.334783 0.310533
vt 0.319228 0.284687
vt 0.316433 0.290379
vt 0.330241 0.301632
vt 0.337415 0.303482
vt 0.313515 0.289404
vt 0.314418 0.283127
vt 0.330240 0.296571
vt 0.336490 0.300549
vt 0.310440 0.289376
vt 0.309359 0.283127
vt 0.337493 0.294557
vt 0.336517 0.297474
vt 0.304548 0.284692
vt 0.307507 0.290301
vt 0.334776 0.287664
vt 0.331802 0.291759
vt 0.305003 0.292087
vt 0.300456 0.287667
vt 0.339323 0.292085
vt 0.303174 0.294560
vt 0.705859 0.074482
vt 0.090047 0.283119
vt 0.687422 0.117704
vt 0.743350 0.004344
vt 0.813261 0.006800
vt 0.732546 0.004344
vt 0.723648 0.011593
vt 0.728096 0.011593
vt 0.845674 0.004344
vt 0.966429 0.165860
vt 0.597808 0.003683
vt 0.002930 0.291871
vt 0.843493 0.106761
vt 0.986153 0.002930
vt 0.772777 0.108946
vt 0.002931 0.326862
vt 0.994832 0.170241
vt 0.843476 0.002930
vt 0.685551 0.212523
vt 0.772777 0.212245
vt 0.975146 0.333170
vt 0.845674 0.108175
vt 0.650559 0.212526
vt 0.701104 0.002944
vt 0.669490 0.140803
vt 0.921702 0.110092
vt 0.002930 0.281199
vt 0.443436 0.222089
vt 0.443418 0.102885
vt 0.942664 0.241586
vt 0.962523 0.184572
vt 0.648427 0.304002
vt 0.825744 0.271116
vt 0.254381 0.383489
vt 0.983996 0.163943
vt 0.878495 0.271105
vt 0.201635 0.383487
vt 0.964294 0.298827
vt 0.509783 0.997070
vt 0.595670 0.432584
s 1
usemtl lambert1.001
f 66/1/1 3/2/2 17/3/3
f 72/4/4 78/5/5 79/6/6
f 34/7/7 48/8/7 33/9/7
f 19/10/8 4/11/9 18/12/10
f 24/13/11 3/14/12 13/15/12
f 23/16/13 5/17/12 22/18/14
f 40/19/7 42/20/7 39/21/7
f 20/22/15 6/23/9 12/24/9
f 23/16/13 13/15/12 9/25/12
f 16/26/9 20/22/15 12/24/9
f 17/3/3 65/27/16 66/1/1
f 27/28/17 18/12/10 26/29/17
f 20/22/15 29/30/17 21/31/18
f 71/32/19 79/6/6 80/33/19
f 31/34/20 22/18/14 30/35/20
f 25/36/20 24/13/11 32/37/20
f 25/38/16 33/39/16 65/27/16
f 15/40/21 26/29/17 2/41/21
f 28/42/17 8/43/21 29/30/17
f 40/44/19 80/33/19 41/45/19
f 10/46/22 30/35/20 7/47/22
f 1/48/22 32/37/20 14/49/22
f 45/50/7 37/51/7 44/52/7
f 42/53/16 38/54/16 39/55/16
f 44/56/16 38/54/16 43/57/16
f 45/58/19 35/59/19 36/60/19
f 47/61/19 35/59/19 46/62/19
f 50/63/7 52/64/7 49/65/7
f 34/66/19 32/67/19 35/59/19
f 35/59/19 24/68/19 36/60/19
f 36/69/7 23/70/7 37/51/7
f 38/54/16 23/71/16 31/72/16
f 39/55/16 31/72/16 10/73/16
f 54/74/7 56/75/7 53/76/7
f 57/77/7 60/78/7 58/79/7
f 28/80/16 42/53/16 11/81/16
f 20/82/16 43/57/16 28/80/16
f 19/83/7 44/52/7 20/84/7
f 19/85/19 46/62/19 45/58/19
f 15/86/19 46/62/19 27/87/19
f 61/88/7 64/89/7 62/90/7
f 34/66/19 49/91/19 14/92/19
f 33/9/21 50/93/21 34/7/21
f 1/94/16 51/95/16 33/39/16
f 14/49/22 52/96/22 1/48/22
f 40/44/19 53/97/19 7/98/19
f 39/21/21 54/99/21 40/19/21
f 10/73/16 55/100/16 39/55/16
f 7/47/22 56/101/22 10/46/22
f 41/102/22 58/103/22 42/20/22
f 8/104/19 57/105/19 41/45/19
f 11/106/21 59/107/21 8/43/21
f 42/53/16 60/108/16 11/81/16
f 47/109/22 62/110/22 48/8/22
f 15/86/19 61/111/19 47/61/19
f 2/41/21 63/112/21 15/40/21
f 48/113/16 64/114/16 2/115/16
f 9/116/23 70/117/23 5/118/23
f 13/119/23 69/120/23 9/116/23
f 3/121/23 68/122/23 13/119/23
f 33/39/16 73/123/16 65/27/16
f 65/27/16 74/124/1 66/1/1
f 74/124/1 67/125/2 66/1/1
f 67/126/23 76/127/23 68/122/23
f 68/122/23 77/128/23 69/120/23
f 69/120/23 78/129/23 70/117/23
f 40/44/19 30/130/19 71/32/19
f 22/131/24 71/32/19 30/130/19
f 5/132/5 72/4/4 22/131/24
f 48/113/16 26/133/16 73/123/16
f 73/123/16 18/134/25 74/124/1
f 4/135/2 74/124/1 18/134/25
f 75/136/23 16/137/23 76/127/23
f 76/127/23 12/138/23 77/128/23
f 77/128/23 6/139/23 78/129/23
f 79/6/6 6/140/5 21/141/26
f 80/33/19 21/141/26 29/142/19
f 41/45/19 29/142/19 8/104/19
f 82/143/7 83/144/7 84/145/7
f 82/146/27 85/147/27 81/148/27
f 84/149/21 86/150/21 82/151/21
f 87/152/28 83/153/28 88/154/28
f 85/155/22 83/156/22 81/157/22
f 98/158/29 89/159/30 97/160/31
f 100/161/32 91/162/33 99/163/34
f 90/164/16 93/165/16 89/159/16
f 92/166/19 95/167/19 91/162/19
f 93/168/22 92/169/22 89/170/22
f 100/171/22 89/170/22 92/169/22
f 90/172/21 95/173/21 94/174/21
f 93/165/23 95/167/23 96/175/23
f 90/172/21 99/176/21 91/177/21
f 86/178/35 97/160/31 85/147/35
f 98/179/21 87/180/21 99/176/21
f 88/154/36 99/163/34 87/152/36
f 85/155/22 100/171/22 88/181/22
f 102/182/37 176/183/38 101/184/39
f 103/185/40 175/186/37 102/182/37
f 104/187/41 174/188/40 103/185/40
f 105/189/19 173/190/42 104/187/41
f 106/191/43 172/192/19 105/189/19
f 107/193/44 171/194/43 106/191/43
f 108/195/45 170/196/44 107/193/44
f 109/197/46 169/198/47 108/195/45
f 110/199/7 168/200/48 109/197/46
f 111/201/49 167/202/7 110/199/7
f 112/203/50 166/204/51 111/201/49
f 113/205/52 165/206/53 112/203/50
f 114/207/54 164/208/52 113/205/52
f 115/209/16 163/210/54 114/207/54
f 116/211/55 182/212/16 115/209/16
f 117/213/56 181/214/55 116/215/55
f 118/216/57 180/217/56 117/213/56
f 119/218/58 179/219/57 118/216/57
f 120/220/23 178/221/59 119/218/58
f 101/184/39 177/222/23 120/220/23
f 102/223/21 101/224/21 141/225/21
f 103/226/21 102/223/21 141/225/21
f 104/227/21 103/226/21 141/225/21
f 105/228/21 104/227/21 141/225/21
f 106/229/21 105/228/21 141/225/21
f 107/230/21 106/229/21 141/225/21
f 108/231/21 107/230/21 141/225/21
f 109/232/21 108/231/21 141/225/21
f 110/233/21 109/232/21 141/225/21
f 111/234/21 110/233/21 141/225/21
f 112/235/21 111/234/21 141/225/21
f 113/236/21 112/235/21 141/225/21
f 114/237/21 113/236/21 141/225/21
f 115/238/21 114/237/21 141/225/21
f 116/239/21 115/238/21 141/225/21
f 117/240/21 116/239/21 141/225/21
f 118/241/21 117/240/21 141/225/21
f 119/242/21 118/241/21 141/225/21
f 120/243/21 119/242/21 141/225/21
f 101/224/21 120/243/21 141/225/21
f 121/244/22 122/245/22 142/246/22
f 122/245/22 123/247/22 142/246/22
f 123/247/22 124/248/22 142/246/22
f 124/248/22 125/249/22 142/246/22
f 125/249/22 126/250/22 142/246/22
f 126/250/22 127/251/22 142/246/22
f 127/251/22 128/252/22 142/246/22
f 128/252/22 129/253/22 142/246/22
f 129/253/22 130/254/22 142/246/22
f 130/254/22 131/255/22 142/246/22
f 131/255/22 132/256/22 142/246/22
f 132/256/22 133/257/22 142/246/22
f 133/257/22 134/258/22 142/246/22
f 134/258/22 135/259/22 142/246/22
f 135/259/22 136/260/22 142/246/22
f 136/260/22 137/261/22 142/246/22
f 137/261/22 138/262/22 142/246/22
f 138/262/22 139/263/22 142/246/22
f 139/263/22 140/264/22 142/246/22
f 140/264/22 121/244/22 142/246/22
f 143/265/54 133/266/52 144/267/52
f 144/267/52 132/268/53 145/269/50
f 145/269/50 131/270/51 146/271/60
f 146/271/60 130/272/61 147/273/62
f 147/273/62 129/274/63 148/275/46
f 148/275/46 128/276/47 149/277/45
f 149/277/45 127/278/44 150/279/44
f 150/279/44 126/280/43 151/281/43
f 151/281/43 125/282/19 152/283/19
f 152/283/19 124/284/42 153/285/41
f 153/285/41 123/286/40 154/287/40
f 154/287/40 122/288/37 155/289/37
f 155/289/37 121/290/38 156/291/39
f 156/291/39 140/292/23 157/293/23
f 157/293/23 139/294/59 158/295/58
f 158/295/58 138/296/57 159/297/57
f 159/297/57 137/298/56 160/299/56
f 160/299/56 136/300/55 161/301/55
f 161/302/55 135/303/16 162/304/16
f 162/304/16 134/305/54 143/265/54
f 222/306/52 183/307/54 184/308/52
f 222/306/52 185/309/53 221/310/50
f 221/310/50 186/311/64 220/312/60
f 220/312/60 187/313/61 219/314/62
f 219/314/62 188/315/46 218/316/46
f 217/317/47 188/315/46 189/318/47
f 217/317/47 190/319/44 216/320/44
f 216/320/44 191/321/43 215/322/43
f 215/322/43 192/323/19 214/324/19
f 213/325/42 192/323/19 193/326/42
f 213/325/42 194/327/40 212/328/40
f 212/328/40 195/329/37 211/330/37
f 211/330/37 196/331/65 210/332/66
f 210/332/66 197/333/67 209/334/68
f 209/334/68 198/335/69 208/336/70
f 208/336/70 199/337/57 207/338/57
f 207/338/57 200/339/56 206/340/56
f 206/340/56 201/341/55 205/342/55
f 205/343/55 202/344/16 204/345/16
f 204/345/16 183/307/54 203/346/54
f 183/347/22 224/348/22 184/349/22
f 185/350/22 224/348/22 225/351/22
f 186/352/22 225/351/22 226/353/22
f 186/352/22 227/354/22 187/355/22
f 188/356/22 227/354/22 228/357/22
f 188/356/22 229/358/22 189/359/22
f 189/359/22 230/360/22 190/361/22
f 191/362/22 230/360/22 231/363/22
f 191/362/22 232/364/22 192/365/22
f 193/366/22 232/364/22 233/367/22
f 194/368/22 233/367/22 234/369/22
f 194/368/22 235/370/22 195/371/22
f 195/371/22 236/372/22 196/373/22
f 197/374/22 236/372/22 237/375/22
f 197/374/22 238/376/22 198/377/22
f 199/378/22 238/376/22 239/379/22
f 199/378/22 240/380/22 200/381/22
f 200/381/22 241/382/22 201/383/22
f 202/384/22 241/382/22 242/385/22
f 202/384/22 223/386/22 183/347/22
f 143/387/21 244/388/21 243/389/21
f 145/390/21 244/388/21 144/391/21
f 146/392/21 245/393/21 145/390/21
f 147/394/21 246/395/21 146/392/21
f 147/394/21 248/396/21 247/397/21
f 148/398/21 249/399/21 248/396/21
f 150/400/21 249/399/21 149/401/21
f 151/402/21 250/403/21 150/400/21
f 151/402/21 252/404/21 251/405/21
f 152/406/21 253/407/21 252/404/21
f 154/408/21 253/407/21 153/409/21
f 154/408/21 255/410/21 254/411/21
f 155/412/21 256/413/21 255/410/21
f 157/414/21 256/413/21 156/415/21
f 158/416/21 257/417/21 157/414/21
f 159/418/21 258/419/21 158/416/21
f 159/418/21 260/420/21 259/421/21
f 161/422/21 260/420/21 160/423/21
f 162/424/21 261/425/21 161/422/21
f 162/424/21 243/389/21 262/426/21
f 204/427/21 263/428/21 264/429/21
f 204/427/21 265/430/21 205/431/21
f 205/431/21 266/432/21 206/433/21
f 206/433/21 267/434/21 207/435/21
f 207/435/21 268/436/21 208/437/21
f 209/438/21 268/436/21 269/439/21
f 209/438/21 270/440/21 210/441/21
f 211/442/21 270/440/21 271/443/21
f 212/444/21 271/443/21 272/445/21
f 212/444/21 273/446/21 213/447/21
f 214/448/21 273/446/21 274/449/21
f 214/448/21 275/450/21 215/451/21
f 215/451/21 276/452/21 216/453/21
f 217/454/21 276/452/21 277/455/21
f 217/454/21 278/456/21 218/457/21
f 219/458/21 278/456/21 279/459/21
f 220/460/21 279/459/21 280/461/21
f 221/462/21 280/461/21 281/463/21
f 221/462/21 282/464/21 222/465/21
f 203/466/21 282/464/21 263/428/21
f 163/467/22 284/468/22 164/469/22
f 165/470/22 284/468/22 285/471/22
f 165/470/22 286/472/22 166/473/22
f 166/473/22 287/474/22 167/475/22
f 167/475/22 288/476/22 168/477/22
f 168/477/22 289/478/22 169/479/22
f 169/479/22 290/480/22 170/481/22
f 171/482/22 290/480/22 291/483/22
f 172/484/22 291/483/22 292/485/22
f 172/484/22 293/486/22 173/487/22
f 174/488/22 293/486/22 294/489/22
f 174/488/22 295/490/22 175/491/22
f 175/491/22 296/492/22 176/493/22
f 177/494/22 296/492/22 297/495/22
f 178/496/22 297/495/22 298/497/22
f 179/498/22 298/497/22 299/499/22
f 179/498/22 300/500/22 180/501/22
f 181/502/22 300/500/22 301/503/22
f 182/504/22 301/503/22 302/505/22
f 182/504/22 283/506/22 163/467/22
f 304/507/37 378/508/38 303/509/39
f 305/510/40 377/511/37 304/507/37
f 306/512/41 376/513/40 305/510/40
f 307/514/19 375/515/42 306/516/41
f 308/517/43 374/518/19 307/514/19
f 309/519/44 373/520/43 308/517/43
f 310/521/45 372/522/44 309/519/44
f 311/523/46 371/524/47 310/521/45
f 312/525/7 370/526/48 311/523/46
f 313/527/49 369/528/7 312/525/7
f 314/529/50 368/530/51 313/527/49
f 315/531/52 367/532/53 314/529/50
f 316/533/54 366/534/52 315/531/52
f 317/535/16 365/536/54 316/533/54
f 318/537/55 384/538/16 317/535/16
f 319/539/56 383/540/55 318/537/55
f 320/541/57 382/542/56 319/539/56
f 321/543/58 381/544/57 320/541/57
f 322/545/23 380/546/59 321/543/58
f 303/509/39 379/547/23 322/545/23
f 304/548/21 303/549/21 343/550/21
f 305/551/21 304/548/21 343/550/21
f 306/552/21 305/551/21 343/550/21
f 307/553/21 306/552/21 343/550/21
f 308/554/21 307/553/21 343/550/21
f 309/555/21 308/554/21 343/550/21
f 310/556/21 309/555/21 343/550/21
f 311/557/21 310/556/21 343/550/21
f 312/558/21 311/557/21 343/550/21
f 313/559/21 312/558/21 343/550/21
f 314/560/21 313/559/21 343/550/21
f 315/561/21 314/560/21 343/550/21
f 316/562/21 315/561/21 343/550/21
f 317/563/21 316/562/21 343/550/21
f 318/564/21 317/563/21 343/550/21
f 319/565/21 318/564/21 343/550/21
f 320/566/21 319/565/21 343/550/21
f 321/567/21 320/566/21 343/550/21
f 322/568/21 321/567/21 343/550/21
f 303/549/21 322/568/21 343/550/21
f 323/569/22 324/570/22 344/571/22
f 324/570/22 325/572/22 344/571/22
f 325/572/22 326/573/22 344/571/22
f 326/573/22 327/574/22 344/571/22
f 327/574/22 328/575/22 344/571/22
f 328/575/22 329/576/22 344/571/22
f 329/576/22 330/577/22 344/571/22
f 330/577/22 331/578/22 344/571/22
f 331/578/22 332/579/22 344/571/22
f 332/579/22 333/580/22 344/571/22
f 333/580/22 334/581/22 344/571/22
f 334/581/22 335/582/22 344/571/22
f 335/582/22 336/583/22 344/571/22
f 336/583/22 337/584/22 344/571/22
f 337/584/22 338/585/22 344/571/22
f 338/585/22 339/586/22 344/571/22
f 339/586/22 340/587/22 344/571/22
f 340/587/22 341/588/22 344/571/22
f 341/588/22 342/589/22 344/571/22
f 342/589/22 323/569/22 344/571/22
f 345/590/54 335/591/52 346/592/52
f 346/592/52 334/593/53 347/594/50
f 347/594/50 333/595/51 348/596/60
f 348/596/60 332/597/61 349/598/62
f 349/598/62 331/599/63 350/600/46
f 350/600/46 330/601/47 351/602/45
f 351/602/45 329/603/44 352/604/44
f 352/604/44 328/605/43 353/606/43
f 353/606/43 327/607/19 354/608/19
f 354/608/19 326/609/42 355/610/41
f 355/611/41 325/612/40 356/613/40
f 356/613/40 324/614/37 357/615/37
f 357/615/37 323/616/38 358/617/39
f 358/617/39 342/618/23 359/619/23
f 359/619/23 341/620/59 360/621/58
f 360/621/58 340/622/57 361/623/57
f 361/623/57 339/624/56 362/625/56
f 362/625/56 338/626/55 363/627/55
f 363/627/55 337/628/16 364/629/16
f 364/629/16 336/630/54 345/590/54
f 424/631/52 385/632/54 386/633/52
f 424/631/52 387/634/53 423/635/50
f 423/635/50 388/636/64 422/637/60
f 422/637/60 389/638/61 421/639/62
f 421/639/62 390/640/63 420/641/71
f 420/641/71 391/642/47 419/643/45
f 419/643/45 392/644/44 418/645/44
f 418/645/44 393/646/43 417/647/43
f 417/647/43 394/648/19 416/649/19
f 415/650/42 394/648/19 395/651/42
f 415/652/42 396/653/40 414/654/40
f 414/654/40 397/655/37 413/656/37
f 413/656/37 398/657/65 412/658/66
f 412/658/66 399/659/67 411/660/68
f 411/660/68 400/661/69 410/662/70
f 410/662/70 401/663/57 409/664/57
f 409/664/57 402/665/56 408/666/56
f 408/666/56 403/667/55 407/668/55
f 407/668/55 404/669/16 406/670/16
f 406/670/16 385/632/54 405/671/54
f 385/672/22 426/673/22 386/674/22
f 387/675/22 426/673/22 427/676/22
f 388/677/22 427/676/22 428/678/22
f 388/677/22 429/679/22 389/680/22
f 390/681/22 429/679/22 430/682/22
f 390/681/22 431/683/22 391/684/22
f 391/684/22 432/685/22 392/686/22
f 393/687/22 432/685/22 433/688/22
f 393/687/22 434/689/22 394/690/22
f 395/691/22 434/689/22 435/692/22
f 396/693/22 435/692/22 436/694/22
f 396/693/22 437/695/22 397/696/22
f 397/696/22 438/697/22 398/698/22
f 399/699/22 438/697/22 439/700/22
f 399/699/22 440/701/22 400/702/22
f 401/703/22 440/701/22 441/704/22
f 401/703/22 442/705/22 402/706/22
f 402/706/22 443/707/22 403/708/22
f 404/709/22 443/707/22 444/710/22
f 404/709/22 425/711/22 385/672/22
f 345/712/21 446/713/21 445/714/21
f 347/715/21 446/713/21 346/716/21
f 348/717/21 447/718/21 347/715/21
f 349/719/21 448/720/21 348/717/21
f 349/719/21 450/721/21 449/722/21
f 350/723/21 451/724/21 450/721/21
f 352/725/21 451/724/21 351/726/21
f 353/727/21 452/728/21 352/725/21
f 353/727/21 454/729/21 453/730/21
f 354/731/21 455/732/21 454/729/21
f 356/733/21 455/732/21 355/734/21
f 356/733/21 457/735/21 456/736/21
f 357/737/21 458/738/21 457/735/21
f 359/739/21 458/738/21 358/740/21
f 360/741/21 459/742/21 359/739/21
f 361/743/21 460/744/21 360/741/21
f 361/743/21 462/745/21 461/746/21
f 363/747/21 462/745/21 362/748/21
f 364/749/21 463/750/21 363/747/21
f 364/749/21 445/714/21 464/751/21
f 406/752/21 465/753/21 466/754/21
f 406/752/21 467/755/21 407/756/21
f 407/756/21 468/757/21 408/758/21
f 408/758/21 469/759/21 409/760/21
f 409/760/21 470/761/21 410/762/21
f 411/763/21 470/761/21 471/764/21
f 411/763/21 472/765/21 412/766/21
f 413/767/21 472/765/21 473/768/21
f 414/769/21 473/768/21 474/770/21
f 414/769/21 475/771/21 415/772/21
f 416/773/21 475/771/21 476/774/21
f 416/773/21 477/775/21 417/776/21
f 417/776/21 478/777/21 418/778/21
f 419/779/21 478/777/21 479/780/21
f 419/779/21 480/781/21 420/782/21
f 421/783/21 480/781/21 481/784/21
f 422/785/21 481/784/21 482/786/21
f 423/787/21 482/786/21 483/788/21
f 423/787/21 484/789/21 424/790/21
f 405/791/21 484/789/21 465/753/21
f 365/792/22 486/793/22 366/794/22
f 367/795/22 486/793/22 487/796/22
f 367/795/22 488/797/22 368/798/22
f 368/798/22 489/799/22 369/800/22
f 369/800/22 490/801/22 370/802/22
f 370/802/22 491/803/22 371/804/22
f 371/804/22 492/805/22 372/806/22
f 373/807/22 492/805/22 493/808/22
f 374/809/22 493/808/22 494/810/22
f 374/809/22 495/811/22 375/812/22
f 376/813/22 495/811/22 496/814/22
f 376/813/22 497/815/22 377/816/22
f 377/816/22 498/817/22 378/818/22
f 379/819/22 498/817/22 499/820/22
f 380/821/22 499/820/22 500/822/22
f 381/823/22 500/822/22 501/824/22
f 381/823/22 502/825/22 382/826/22
f 383/827/22 502/825/22 503/828/22
f 384/829/22 503/828/22 504/830/22
f 384/829/22 485/831/22 365/792/22
f 506/832/72 626/833/73 505/834/74
f 507/835/75 627/836/76 506/832/72
f 508/837/77 628/838/78 507/835/75
f 509/839/19 629/840/79 508/837/77
f 510/841/80 630/842/81 509/839/19
f 511/843/82 631/844/83 510/841/80
f 512/845/84 632/846/85 511/843/82
f 513/847/86 633/848/87 512/845/84
f 514/849/22 634/850/88 513/847/86
f 515/851/89 635/852/90 514/849/22
f 516/853/91 636/854/92 515/851/89
f 517/855/93 637/856/94 516/853/91
f 518/857/95 638/858/96 517/855/93
f 519/859/16 639/860/97 518/857/95
f 520/861/98 640/862/99 519/863/16
f 521/864/100 641/865/101 520/861/98
f 522/866/102 642/867/103 521/864/100
f 523/868/104 643/869/105 522/866/102
f 524/870/21 644/871/106 523/868/104
f 505/834/74 645/872/107 524/870/21
f 525/873/108 546/874/109 545/875/110
f 526/876/111 547/877/112 546/874/109
f 528/878/113 547/877/112 527/879/114
f 528/878/113 549/880/115 548/881/116
f 530/882/117 549/880/115 529/883/118
f 530/882/117 551/884/119 550/885/120
f 531/886/121 552/887/122 551/884/119
f 532/888/123 553/889/124 552/887/122
f 533/890/125 554/891/126 553/889/124
f 535/892/127 554/891/126 534/893/128
f 536/894/129 555/895/130 535/892/127
f 537/896/131 556/897/132 536/894/129
f 537/896/131 558/898/133 557/899/134
f 538/900/135 559/901/136 558/898/133
f 540/902/137 559/901/136 539/903/138
f 541/904/139 560/905/140 540/902/137
f 541/904/139 562/906/141 561/907/142
f 543/908/143 562/906/141 542/909/144
f 543/908/143 564/910/145 563/911/146
f 525/873/108 564/910/145 544/912/147
f 545/875/110 566/913/148 565/914/149
f 547/877/112 566/913/148 546/874/109
f 548/881/116 567/915/150 547/877/112
f 549/880/115 568/916/151 548/881/116
f 550/885/120 569/917/152 549/880/115
f 551/884/119 570/918/153 550/885/120
f 552/887/122 571/919/154 551/884/119
f 552/887/122 573/920/155 572/921/156
f 553/889/124 574/922/157 573/920/155
f 554/891/126 575/923/158 574/922/157
f 556/897/132 575/923/158 555/895/130
f 557/899/134 576/924/159 556/897/132
f 557/899/134 578/925/160 577/926/161
f 559/901/136 578/925/160 558/898/133
f 559/901/136 580/927/162 579/928/163
f 560/905/140 581/929/164 580/927/162
f 561/907/142 582/930/165 581/929/164
f 562/906/141 583/931/166 582/930/165
f 563/911/146 584/932/167 583/931/166
f 564/910/145 565/914/149 584/932/167
f 565/914/149 586/933/168 585/934/169
f 567/915/150 586/933/168 566/913/148
f 568/916/151 587/935/170 567/915/150
f 568/916/151 589/936/171 588/937/172
f 570/918/153 589/936/171 569/917/152
f 570/918/153 591/938/173 590/939/174
f 571/919/154 592/940/175 591/938/173
f 572/921/156 593/941/176 592/940/175
f 573/920/155 594/942/177 593/941/176
f 574/922/157 595/943/178 594/942/177
f 575/923/158 596/944/179 595/943/178
f 577/926/161 596/944/179 576/924/159
f 578/925/160 597/945/180 577/926/161
f 579/928/163 598/946/181 578/925/160
f 579/928/163 600/947/182 599/948/183
f 580/927/162 601/949/184 600/947/182
f 581/929/164 602/950/185 601/949/184
f 583/931/166 602/950/185 582/930/165
f 584/932/167 603/951/186 583/931/166
f 584/932/167 585/934/169 604/952/187
f 586/933/168 605/953/188 585/934/169
f 587/935/170 606/954/189 586/933/168
f 587/935/170 608/955/190 607/956/191
f 589/936/171 608/955/190 588/937/172
f 589/936/171 610/957/192 609/958/193
f 591/938/173 610/957/192 590/939/174
f 591/938/173 612/959/194 611/960/195
f 593/941/176 612/959/194 592/940/175
f 593/941/176 614/961/196 613/962/197
f 595/943/178 614/961/196 594/942/177
f 595/943/178 616/963/198 615/964/199
f 597/945/180 616/963/198 596/944/179
f 598/946/181 617/965/200 597/945/180
f 599/948/183 618/966/201 598/946/181
f 599/948/183 620/967/202 619/968/203
f 600/947/182 621/969/204 620/967/202
f 602/950/185 621/969/204 601/949/184
f 602/950/185 623/970/205 622/971/206
f 604/952/187 623/970/205 603/951/186
f 604/952/187 605/953/188 624/972/207
f 605/953/188 606/954/189 625/973/23
f 606/954/189 607/956/191 625/973/23
f 607/956/191 608/955/190 625/973/23
f 608/955/190 609/958/193 625/973/23
f 609/958/193 610/957/192 625/973/23
f 610/957/192 611/960/195 625/973/23
f 611/960/195 612/959/194 625/973/23
f 612/959/194 613/962/197 625/973/23
f 613/962/197 614/961/196 625/973/23
f 614/961/196 615/964/199 625/973/23
f 615/964/199 616/963/198 625/973/23
f 616/963/198 617/965/200 625/973/23
f 617/965/200 618/966/201 625/973/23
f 618/966/201 619/968/203 625/973/23
f 619/968/203 620/967/202 625/973/23
f 620/967/202 621/969/204 625/973/23
f 621/969/204 622/971/206 625/973/23
f 622/971/206 623/970/205 625/973/23
f 623/970/205 624/972/207 625/973/23
f 624/972/207 605/953/188 625/973/23
f 666/974/208 669/975/209 667/976/210
f 670/977/211 668/978/212 666/974/208
f 672/979/213 671/980/214 670/977/211
f 674/981/215 673/982/216 672/979/213
f 676/983/217 675/984/218 674/981/215
f 678/985/219 677/986/220 676/983/217
f 680/987/221 679/988/222 678/985/219
f 682/989/223 681/990/224 680/987/221
f 684/991/225 683/992/226 682/989/223
f 686/993/227 685/994/228 684/991/225
f 688/995/229 687/996/230 686/993/227
f 690/997/231 689/998/232 688/995/229
f 692/999/233 691/1000/234 690/997/231
f 694/1001/235 693/1002/236 692/999/233
f 696/1003/237 695/1004/238 694/1005/235
f 698/1006/239 697/1007/240 696/1003/237
f 700/1008/241 699/1009/242 698/1006/239
f 700/1008/241 703/1010/243 701/1011/244
f 704/1012/245 703/1010/243 702/1013/246
f 667/976/210 705/1014/247 704/1012/245
f 647/1015/248 525/1016/108 646/1017/249
f 648/1018/250 526/1019/111 647/1015/248
f 649/1020/251 527/1021/114 648/1018/250
f 650/1022/252 528/1023/113 649/1020/251
f 651/1024/253 529/1025/118 650/1022/252
f 652/1026/254 530/1027/117 651/1024/253
f 653/1028/255 531/1029/121 652/1026/254
f 654/1030/256 532/1031/123 653/1028/255
f 655/1032/257 533/1033/125 654/1030/256
f 656/1034/258 534/1035/128 655/1032/257
f 657/1036/259 535/1037/127 656/1034/258
f 658/1038/260 536/1039/129 657/1036/259
f 659/1040/261 537/1041/131 658/1038/260
f 660/1042/262 538/1043/135 659/1040/261
f 661/1044/263 539/1045/138 660/1046/262
f 662/1047/264 540/1048/137 661/1044/263
f 663/1049/265 541/1050/139 662/1047/264
f 664/1051/266 542/1052/144 663/1049/265
f 665/1053/267 543/1054/143 664/1051/266
f 646/1017/249 544/1055/147 665/1053/267
f 627/1056/76 667/1057/210 626/1058/73
f 646/1059/249 668/1060/212 647/1061/248
f 628/1062/78 666/1063/208 627/1056/76
f 647/1061/248 671/1064/214 648/1065/250
f 628/1062/78 672/1066/213 670/1067/211
f 649/1068/251 671/1064/214 673/1069/216
f 629/1070/79 674/1071/215 672/1066/213
f 650/1072/252 673/1069/216 675/1073/218
f 631/1074/83 674/1071/215 630/1075/81
f 650/1072/252 677/1076/220 651/1077/253
f 631/1074/83 678/1078/219 676/1079/217
f 651/1077/253 679/1080/222 652/1081/254
f 632/1082/85 680/1083/221 678/1078/219
f 652/1081/254 681/1084/224 653/1085/255
f 633/1086/87 682/1087/223 680/1083/221
f 654/1088/256 681/1084/224 683/1089/226
f 635/1090/90 682/1087/223 634/1091/88
f 654/1088/256 685/1092/228 655/1093/257
f 635/1090/90 686/1094/227 684/1095/225
f 656/1096/258 685/1092/228 687/1097/230
f 637/1098/94 686/1094/227 636/1099/92
f 657/1100/259 687/1097/230 689/1101/232
f 637/1098/94 690/1102/231 688/1103/229
f 658/1104/260 689/1101/232 691/1105/234
f 638/1106/96 692/1107/233 690/1102/231
f 659/1108/261 691/1105/234 693/1109/236
f 639/1110/97 694/1111/235 692/1107/233
f 659/1108/261 695/1112/238 660/1113/262
f 641/1114/101 694/1111/235 640/1115/99
f 661/1116/263 695/1112/238 697/1117/240
f 642/1118/103 696/1119/237 641/1114/101
f 661/1116/263 699/1120/242 662/1121/264
f 643/1122/105 698/1123/239 642/1118/103
f 662/1121/264 701/1124/244 663/1125/265
f 643/1122/105 702/1126/246 700/1127/241
f 664/1128/266 701/1124/244 703/1129/243
f 645/1130/107 702/1126/246 644/1131/106
f 664/1128/266 705/1132/247 665/1133/267
f 626/1058/73 704/1134/245 645/1130/107
f 665/1133/267 669/1135/209 646/1059/249
f 66/1/1 67/125/2 3/2/2
f 72/4/4 70/1136/5 78/5/5
f 34/7/7 47/109/7 48/8/7
f 19/10/8 16/26/9 4/11/9
f 24/13/11 17/1137/268 3/14/12
f 23/16/13 9/25/12 5/17/12
f 40/19/7 41/102/7 42/20/7
f 20/22/15 21/31/18 6/23/9
f 23/16/13 24/13/11 13/15/12
f 16/26/9 19/10/8 20/22/15
f 17/3/3 25/38/16 65/27/16
f 27/28/17 19/10/8 18/12/10
f 20/22/15 28/42/17 29/30/17
f 71/32/19 72/4/4 79/6/6
f 31/34/20 23/16/13 22/18/14
f 25/36/20 17/1137/268 24/13/11
f 25/38/16 1/94/16 33/39/16
f 15/40/21 27/28/17 26/29/17
f 28/42/17 11/106/21 8/43/21
f 40/44/19 71/32/19 80/33/19
f 10/46/22 31/34/20 30/35/20
f 1/48/22 25/36/20 32/37/20
f 45/50/7 36/69/7 37/51/7
f 42/53/16 43/57/16 38/54/16
f 44/56/16 37/1138/16 38/54/16
f 45/58/19 46/62/19 35/59/19
f 47/61/19 34/66/19 35/59/19
f 50/63/7 51/1139/7 52/64/7
f 34/66/19 14/92/19 32/67/19
f 35/59/19 32/67/19 24/68/19
f 36/69/7 24/1140/7 23/70/7
f 38/54/16 37/1138/16 23/71/16
f 39/55/16 38/54/16 31/72/16
f 54/74/7 55/1141/7 56/75/7
f 57/77/7 59/1142/7 60/78/7
f 28/80/16 43/57/16 42/53/16
f 20/82/16 44/56/16 43/57/16
f 19/83/7 45/50/7 44/52/7
f 19/85/19 27/87/19 46/62/19
f 15/86/19 47/61/19 46/62/19
f 61/88/7 63/1143/7 64/89/7
f 34/66/19 50/1144/19 49/91/19
f 33/9/21 51/1145/21 50/93/21
f 1/94/16 52/1146/16 51/95/16
f 14/49/22 49/1147/22 52/96/22
f 40/44/19 54/1148/19 53/97/19
f 39/21/21 55/1149/21 54/99/21
f 10/73/16 56/1150/16 55/100/16
f 7/47/22 53/1151/22 56/101/22
f 41/102/22 57/1152/22 58/103/22
f 8/104/19 59/1153/19 57/105/19
f 11/106/21 60/1154/21 59/107/21
f 42/53/16 58/1155/16 60/108/16
f 47/109/22 61/1156/22 62/110/22
f 15/86/19 63/1157/19 61/111/19
f 2/41/21 64/1158/21 63/112/21
f 48/113/16 62/1159/16 64/114/16
f 9/116/23 69/120/23 70/117/23
f 13/119/23 68/122/23 69/120/23
f 3/121/23 67/126/23 68/122/23
f 33/39/16 48/113/16 73/123/16
f 65/27/16 73/123/16 74/124/1
f 74/124/1 75/1160/2 67/125/2
f 67/126/23 75/136/23 76/127/23
f 68/122/23 76/127/23 77/128/23
f 69/120/23 77/128/23 78/129/23
f 40/44/19 7/98/19 30/130/19
f 22/131/24 72/4/4 71/32/19
f 5/132/5 70/1136/5 72/4/4
f 48/113/16 2/115/16 26/133/16
f 73/123/16 26/133/16 18/134/25
f 4/135/2 75/1160/2 74/124/1
f 75/136/23 4/1161/23 16/137/23
f 76/127/23 16/137/23 12/138/23
f 77/128/23 12/138/23 6/139/23
f 79/6/6 78/5/5 6/140/5
f 80/33/19 79/6/6 21/141/26
f 41/45/19 80/33/19 29/142/19
f 82/143/7 81/1162/7 83/144/7
f 82/146/27 86/178/27 85/147/27
f 84/149/21 87/180/21 86/150/21
f 87/152/28 84/1163/28 83/153/28
f 85/155/22 88/181/22 83/156/22
f 98/158/29 90/164/30 89/159/30
f 100/161/32 92/166/33 91/162/33
f 90/164/16 94/1164/16 93/165/16
f 92/166/19 96/175/19 95/167/19
f 93/168/22 96/1165/22 92/169/22
f 100/171/22 97/1166/22 89/170/22
f 90/172/21 91/177/21 95/173/21
f 93/165/23 94/1164/23 95/167/23
f 90/172/21 98/179/21 99/176/21
f 86/178/35 98/158/29 97/160/31
f 98/179/21 86/150/21 87/180/21
f 88/154/36 100/161/32 99/163/34
f 85/155/22 97/1166/22 100/171/22
f 102/182/37 175/186/37 176/183/38
f 103/185/40 174/188/40 175/186/37
f 104/187/41 173/190/42 174/188/40
f 105/189/19 172/192/19 173/190/42
f 106/191/43 171/194/43 172/192/19
f 107/193/44 170/196/44 171/194/43
f 108/195/45 169/198/47 170/196/44
f 109/197/46 168/200/48 169/198/47
f 110/199/7 167/202/7 168/200/48
f 111/201/49 166/204/51 167/202/7
f 112/203/50 165/206/53 166/204/51
f 113/205/52 164/208/52 165/206/53
f 114/207/54 163/210/54 164/208/52
f 115/209/16 182/212/16 163/210/54
f 116/211/55 181/1167/55 182/212/16
f 117/213/56 180/217/56 181/214/55
f 118/216/57 179/219/57 180/217/56
f 119/218/58 178/221/59 179/219/57
f 120/220/23 177/222/23 178/221/59
f 101/184/39 176/183/38 177/222/23
f 143/265/54 134/305/54 133/266/52
f 144/267/52 133/266/52 132/268/53
f 145/269/50 132/268/53 131/270/51
f 146/271/60 131/270/51 130/272/61
f 147/273/62 130/272/61 129/274/63
f 148/275/46 129/274/63 128/276/47
f 149/277/45 128/276/47 127/278/44
f 150/279/44 127/278/44 126/280/43
f 151/281/43 126/280/43 125/282/19
f 152/283/19 125/282/19 124/284/42
f 153/285/41 124/284/42 123/286/40
f 154/287/40 123/286/40 122/288/37
f 155/289/37 122/288/37 121/290/38
f 156/291/39 121/290/38 140/292/23
f 157/293/23 140/292/23 139/294/59
f 158/295/58 139/294/59 138/296/57
f 159/297/57 138/296/57 137/298/56
f 160/299/56 137/298/56 136/300/55
f 161/302/55 136/1168/55 135/303/16
f 162/304/16 135/303/16 134/305/54
f 222/306/52 203/346/54 183/307/54
f 222/306/52 184/308/52 185/309/53
f 221/310/50 185/309/53 186/311/64
f 220/312/60 186/311/64 187/313/61
f 219/314/62 187/313/61 188/315/46
f 217/317/47 218/316/46 188/315/46
f 217/317/47 189/318/47 190/319/44
f 216/320/44 190/319/44 191/321/43
f 215/322/43 191/321/43 192/323/19
f 213/325/42 214/324/19 192/323/19
f 213/325/42 193/326/42 194/327/40
f 212/328/40 194/327/40 195/329/37
f 211/330/37 195/329/37 196/331/65
f 210/332/66 196/331/65 197/333/67
f 209/334/68 197/333/67 198/335/69
f 208/336/70 198/335/69 199/337/57
f 207/338/57 199/337/57 200/339/56
f 206/340/56 200/339/56 201/341/55
f 205/343/55 201/1169/55 202/344/16
f 204/345/16 202/344/16 183/307/54
f 183/347/22 223/386/22 224/348/22
f 185/350/22 184/349/22 224/348/22
f 186/352/22 185/350/22 225/351/22
f 186/352/22 226/353/22 227/354/22
f 188/356/22 187/355/22 227/354/22
f 188/356/22 228/357/22 229/358/22
f 189/359/22 229/358/22 230/360/22
f 191/362/22 190/361/22 230/360/22
f 191/362/22 231/363/22 232/364/22
f 193/366/22 192/365/22 232/364/22
f 194/368/22 193/366/22 233/367/22
f 194/368/22 234/369/22 235/370/22
f 195/371/22 235/370/22 236/372/22
f 197/374/22 196/373/22 236/372/22
f 197/374/22 237/375/22 238/376/22
f 199/378/22 198/377/22 238/376/22
f 199/378/22 239/379/22 240/380/22
f 200/381/22 240/380/22 241/382/22
f 202/384/22 201/383/22 241/382/22
f 202/384/22 242/385/22 223/386/22
f 143/387/21 144/391/21 244/388/21
f 145/390/21 245/393/21 244/388/21
f 146/392/21 246/395/21 245/393/21
f 147/394/21 247/397/21 246/395/21
f 147/394/21 148/398/21 248/396/21
f 148/398/21 149/401/21 249/399/21
f 150/400/21 250/403/21 249/399/21
f 151/402/21 251/405/21 250/403/21
f 151/402/21 152/406/21 252/404/21
f 152/406/21 153/409/21 253/407/21
f 154/408/21 254/411/21 253/407/21
f 154/408/21 155/412/21 255/410/21
f 155/412/21 156/415/21 256/413/21
f 157/414/21 257/417/21 256/413/21
f 158/416/21 258/419/21 257/417/21
f 159/418/21 259/421/21 258/419/21
f 159/418/21 160/423/21 260/420/21
f 161/422/21 261/425/21 260/420/21
f 162/424/21 262/426/21 261/425/21
f 162/424/21 143/387/21 243/389/21
f 204/427/21 203/466/21 263/428/21
f 204/427/21 264/429/21 265/430/21
f 205/431/21 265/430/21 266/432/21
f 206/433/21 266/432/21 267/434/21
f 207/435/21 267/434/21 268/436/21
f 209/438/21 208/437/21 268/436/21
f 209/438/21 269/439/21 270/440/21
f 211/442/21 210/441/21 270/440/21
f 212/444/21 211/442/21 271/443/21
f 212/444/21 272/445/21 273/446/21
f 214/448/21 213/447/21 273/446/21
f 214/448/21 274/449/21 275/450/21
f 215/451/21 275/450/21 276/452/21
f 217/454/21 216/453/21 276/452/21
f 217/454/21 277/455/21 278/456/21
f 219/458/21 218/457/21 278/456/21
f 220/460/21 219/458/21 279/459/21
f 221/462/21 220/460/21 280/461/21
f 221/462/21 281/463/21 282/464/21
f 203/466/21 222/465/21 282/464/21
f 163/467/22 283/506/22 284/468/22
f 165/470/22 164/469/22 284/468/22
f 165/470/22 285/471/22 286/472/22
f 166/473/22 286/472/22 287/474/22
f 167/475/22 287/474/22 288/476/22
f 168/477/22 288/476/22 289/478/22
f 169/479/22 289/478/22 290/480/22
f 171/482/22 170/481/22 290/480/22
f 172/484/22 171/482/22 291/483/22
f 172/484/22 292/485/22 293/486/22
f 174/488/22 173/487/22 293/486/22
f 174/488/22 294/489/22 295/490/22
f 175/491/22 295/490/22 296/492/22
f 177/494/22 176/493/22 296/492/22
f 178/496/22 177/494/22 297/495/22
f 179/498/22 178/496/22 298/497/22
f 179/498/22 299/499/22 300/500/22
f 181/502/22 180/501/22 300/500/22
f 182/504/22 181/502/22 301/503/22
f 182/504/22 302/505/22 283/506/22
f 304/507/37 377/511/37 378/508/38
f 305/510/40 376/513/40 377/511/37
f 306/512/41 375/1170/42 376/513/40
f 307/514/19 374/518/19 375/515/42
f 308/517/43 373/520/43 374/518/19
f 309/519/44 372/522/44 373/520/43
f 310/521/45 371/524/47 372/522/44
f 311/523/46 370/526/48 371/524/47
f 312/525/7 369/528/7 370/526/48
f 313/527/49 368/530/51 369/528/7
f 314/529/50 367/532/53 368/530/51
f 315/531/52 366/534/52 367/532/53
f 316/533/54 365/536/54 366/534/52
f 317/535/16 384/538/16 365/536/54
f 318/537/55 383/540/55 384/538/16
f 319/539/56 382/542/56 383/540/55
f 320/541/57 381/544/57 382/542/56
f 321/543/58 380/546/59 381/544/57
f 322/545/23 379/547/23 380/546/59
f 303/509/39 378/508/38 379/547/23
f 345/590/54 336/630/54 335/591/52
f 346/592/52 335/591/52 334/593/53
f 347/594/50 334/593/53 333/595/51
f 348/596/60 333/595/51 332/597/61
f 349/598/62 332/597/61 331/599/63
f 350/600/46 331/599/63 330/601/47
f 351/602/45 330/601/47 329/603/44
f 352/604/44 329/603/44 328/605/43
f 353/606/43 328/605/43 327/607/19
f 354/608/19 327/607/19 326/609/42
f 355/611/41 326/1171/42 325/612/40
f 356/613/40 325/612/40 324/614/37
f 357/615/37 324/614/37 323/616/38
f 358/617/39 323/616/38 342/618/23
f 359/619/23 342/618/23 341/620/59
f 360/621/58 341/620/59 340/622/57
f 361/623/57 340/622/57 339/624/56
f 362/625/56 339/624/56 338/626/55
f 363/627/55 338/626/55 337/628/16
f 364/629/16 337/628/16 336/630/54
f 424/631/52 405/671/54 385/632/54
f 424/631/52 386/633/52 387/634/53
f 423/635/50 387/634/53 388/636/64
f 422/637/60 388/636/64 389/638/61
f 421/639/62 389/638/61 390/640/63
f 420/641/71 390/640/63 391/642/47
f 419/643/45 391/642/47 392/644/44
f 418/645/44 392/644/44 393/646/43
f 417/647/43 393/646/43 394/648/19
f 415/650/42 416/649/19 394/648/19
f 415/652/42 395/1172/42 396/653/40
f 414/654/40 396/653/40 397/655/37
f 413/656/37 397/655/37 398/657/65
f 412/658/66 398/657/65 399/659/67
f 411/660/68 399/659/67 400/661/69
f 410/662/70 400/661/69 401/663/57
f 409/664/57 401/663/57 402/665/56
f 408/666/56 402/665/56 403/667/55
f 407/668/55 403/667/55 404/669/16
f 406/670/16 404/669/16 385/632/54
f 385/672/22 425/711/22 426/673/22
f 387/675/22 386/674/22 426/673/22
f 388/677/22 387/675/22 427/676/22
f 388/677/22 428/678/22 429/679/22
f 390/681/22 389/680/22 429/679/22
f 390/681/22 430/682/22 431/683/22
f 391/684/22 431/683/22 432/685/22
f 393/687/22 392/686/22 432/685/22
f 393/687/22 433/688/22 434/689/22
f 395/691/22 394/690/22 434/689/22
f 396/693/22 395/691/22 435/692/22
f 396/693/22 436/694/22 437/695/22
f 397/696/22 437/695/22 438/697/22
f 399/699/22 398/698/22 438/697/22
f 399/699/22 439/700/22 440/701/22
f 401/703/22 400/702/22 440/701/22
f 401/703/22 441/704/22 442/705/22
f 402/706/22 442/705/22 443/707/22
f 404/709/22 403/708/22 443/707/22
f 404/709/22 444/710/22 425/711/22
f 345/712/21 346/716/21 446/713/21
f 347/715/21 447/718/21 446/713/21
f 348/717/21 448/720/21 447/718/21
f 349/719/21 449/722/21 448/720/21
f 349/719/21 350/723/21 450/721/21
f 350/723/21 351/726/21 451/724/21
f 352/725/21 452/728/21 451/724/21
f 353/727/21 453/730/21 452/728/21
f 353/727/21 354/731/21 454/729/21
f 354/731/21 355/734/21 455/732/21
f 356/733/21 456/736/21 455/732/21
f 356/733/21 357/737/21 457/735/21
f 357/737/21 358/740/21 458/738/21
f 359/739/21 459/742/21 458/738/21
f 360/741/21 460/744/21 459/742/21
f 361/743/21 461/746/21 460/744/21
f 361/743/21 362/748/21 462/745/21
f 363/747/21 463/750/21 462/745/21
f 364/749/21 464/751/21 463/750/21
f 364/749/21 345/712/21 445/714/21
f 406/752/21 405/791/21 465/753/21
f 406/752/21 466/754/21 467/755/21
f 407/756/21 467/755/21 468/757/21
f 408/758/21 468/757/21 469/759/21
f 409/760/21 469/759/21 470/761/21
f 411/763/21 410/762/21 470/761/21
f 411/763/21 471/764/21 472/765/21
f 413/767/21 412/766/21 472/765/21
f 414/769/21 413/767/21 473/768/21
f 414/769/21 474/770/21 475/771/21
f 416/773/21 415/772/21 475/771/21
f 416/773/21 476/774/21 477/775/21
f 417/776/21 477/775/21 478/777/21
f 419/779/21 418/778/21 478/777/21
f 419/779/21 479/780/21 480/781/21
f 421/783/21 420/782/21 480/781/21
f 422/785/21 421/783/21 481/784/21
f 423/787/21 422/785/21 482/786/21
f 423/787/21 483/788/21 484/789/21
f 405/791/21 424/790/21 484/789/21
f 365/792/22 485/831/22 486/793/22
f 367/795/22 366/794/22 486/793/22
f 367/795/22 487/796/22 488/797/22
f 368/798/22 488/797/22 489/799/22
f 369/800/22 489/799/22 490/801/22
f 370/802/22 490/801/22 491/803/22
f 371/804/22 491/803/22 492/805/22
f 373/807/22 372/806/22 492/805/22
f 374/809/22 373/807/22 493/808/22
f 374/809/22 494/810/22 495/811/22
f 376/813/22 375/812/22 495/811/22
f 376/813/22 496/814/22 497/815/22
f 377/816/22 497/815/22 498/817/22
f 379/819/22 378/818/22 498/817/22
f 380/821/22 379/819/22 499/820/22
f 381/823/22 380/821/22 500/822/22
f 381/823/22 501/824/22 502/825/22
f 383/827/22 382/826/22 502/825/22
f 384/829/22 383/827/22 503/828/22
f 384/829/22 504/830/22 485/831/22
f 506/832/72 627/836/76 626/833/73
f 507/835/75 628/838/78 627/836/76
f 508/837/77 629/840/79 628/838/78
f 509/839/19 630/842/81 629/840/79
f 510/841/80 631/844/83 630/842/81
f 511/843/82 632/846/85 631/844/83
f 512/845/84 633/848/87 632/846/85
f 513/847/86 634/850/88 633/848/87
f 514/849/22 635/852/90 634/850/88
f 515/851/89 636/854/92 635/852/90
f 516/853/91 637/856/94 636/854/92
f 517/855/93 638/858/96 637/856/94
f 518/857/95 639/860/97 638/858/96
f 519/859/16 640/1173/99 639/860/97
f 520/861/98 641/865/101 640/862/99
f 521/864/100 642/867/103 641/865/101
f 522/866/102 643/869/105 642/867/103
f 523/868/104 644/871/106 643/869/105
f 524/870/21 645/872/107 644/871/106
f 505/834/74 626/833/73 645/872/107
f 525/873/108 526/876/111 546/874/109
f 526/876/111 527/879/114 547/877/112
f 528/878/113 548/881/116 547/877/112
f 528/878/113 529/883/118 549/880/115
f 530/882/117 550/885/120 549/880/115
f 530/882/117 531/886/121 551/884/119
f 531/886/121 532/888/123 552/887/122
f 532/888/123 533/890/125 553/889/124
f 533/890/125 534/893/128 554/891/126
f 535/892/127 555/895/130 554/891/126
f 536/894/129 556/897/132 555/895/130
f 537/896/131 557/899/134 556/897/132
f 537/896/131 538/900/135 558/898/133
f 538/900/135 539/903/138 559/901/136
f 540/902/137 560/905/140 559/901/136
f 541/904/139 561/907/142 560/905/140
f 541/904/139 542/909/144 562/906/141
f 543/908/143 563/911/146 562/906/141
f 543/908/143 544/912/147 564/910/145
f 525/873/108 545/875/110 564/910/145
f 545/875/110 546/874/109 566/913/148
f 547/877/112 567/915/150 566/913/148
f 548/881/116 568/916/151 567/915/150
f 549/880/115 569/917/152 568/916/151
f 550/885/120 570/918/153 569/917/152
f 551/884/119 571/919/154 570/918/153
f 552/887/122 572/921/156 571/919/154
f 552/887/122 553/889/124 573/920/155
f 553/889/124 554/891/126 574/922/157
f 554/891/126 555/895/130 575/923/158
f 556/897/132 576/924/159 575/923/158
f 557/899/134 577/926/161 576/924/159
f 557/899/134 558/898/133 578/925/160
f 559/901/136 579/928/163 578/925/160
f 559/901/136 560/905/140 580/927/162
f 560/905/140 561/907/142 581/929/164
f 561/907/142 562/906/141 582/930/165
f 562/906/141 563/911/146 583/931/166
f 563/911/146 564/910/145 584/932/167
f 564/910/145 545/875/110 565/914/149
f 565/914/149 566/913/148 586/933/168
f 567/915/150 587/935/170 586/933/168
f 568/916/151 588/937/172 587/935/170
f 568/916/151 569/917/152 589/936/171
f 570/918/153 590/939/174 589/936/171
f 570/918/153 571/919/154 591/938/173
f 571/919/154 572/921/156 592/940/175
f 572/921/156 573/920/155 593/941/176
f 573/920/155 574/922/157 594/942/177
f 574/922/157 575/923/158 595/943/178
f 575/923/158 576/924/159 596/944/179
f 577/926/161 597/945/180 596/944/179
f 578/925/160 598/946/181 597/945/180
f 579/928/163 599/948/183 598/946/181
f 579/928/163 580/927/162 600/947/182
f 580/927/162 581/929/164 601/949/184
f 581/929/164 582/930/165 602/950/185
f 583/931/166 603/951/186 602/950/185
f 584/932/167 604/952/187 603/951/186
f 584/932/167 565/914/149 585/934/169
f 586/933/168 606/954/189 605/953/188
f 587/935/170 607/956/191 606/954/189
f 587/935/170 588/937/172 608/955/190
f 589/936/171 609/958/193 608/955/190
f 589/936/171 590/939/174 610/957/192
f 591/938/173 611/960/195 610/957/192
f 591/938/173 592/940/175 612/959/194
f 593/941/176 613/962/197 612/959/194
f 593/941/176 594/942/177 614/961/196
f 595/943/178 615/964/199 614/961/196
f 595/943/178 596/944/179 616/963/198
f 597/945/180 617/965/200 616/963/198
f 598/946/181 618/966/201 617/965/200
f 599/948/183 619/968/203 618/966/201
f 599/948/183 600/947/182 620/967/202
f 600/947/182 601/949/184 621/969/204
f 602/950/185 622/971/206 621/969/204
f 602/950/185 603/951/186 623/970/205
f 604/952/187 624/972/207 623/970/205
f 604/952/187 585/934/169 605/953/188
f 666/974/208 668/978/212 669/975/209
f 670/977/211 671/980/214 668/978/212
f 672/979/213 673/982/216 671/980/214
f 674/981/215 675/984/218 673/982/216
f 676/983/217 677/986/220 675/984/218
f 678/985/219 679/988/222 677/986/220
f 680/987/221 681/990/224 679/988/222
f 682/989/223 683/992/226 681/990/224
f 684/991/225 685/994/228 683/992/226
f 686/993/227 687/996/230 685/994/228
f 688/995/229 689/998/232 687/996/230
f 690/997/231 691/1000/234 689/998/232
f 692/999/233 693/1002/236 691/1000/234
f 694/1001/235 695/1174/238 693/1002/236
f 696/1003/237 697/1007/240 695/1004/238
f 698/1006/239 699/1009/242 697/1007/240
f 700/1008/241 701/1011/244 699/1009/242
f 700/1008/241 702/1013/246 703/1010/243
f 704/1012/245 705/1014/247 703/1010/243
f 667/976/210 669/975/209 705/1014/247
f 647/1015/248 526/1019/111 525/1016/108
f 648/1018/250 527/1021/114 526/1019/111
f 649/1020/251 528/1023/113 527/1021/114
f 650/1022/252 529/1025/118 528/1023/113
f 651/1024/253 530/1027/117 529/1025/118
f 652/1026/254 531/1029/121 530/1027/117
f 653/1028/255 532/1031/123 531/1029/121
f 654/1030/256 533/1033/125 532/1031/123
f 655/1032/257 534/1035/128 533/1033/125
f 656/1034/258 535/1037/127 534/1035/128
f 657/1036/259 536/1039/129 535/1037/127
f 658/1038/260 537/1041/131 536/1039/129
f 659/1040/261 538/1043/135 537/1041/131
f 660/1042/262 539/1175/138 538/1043/135
f 661/1044/263 540/1048/137 539/1045/138
f 662/1047/264 541/1050/139 540/1048/137
f 663/1049/265 542/1052/144 541/1050/139
f 664/1051/266 543/1054/143 542/1052/144
f 665/1053/267 544/1055/147 543/1054/143
f 646/1017/249 525/1016/108 544/1055/147
f 627/1056/76 666/1063/208 667/1057/210
f 646/1059/249 669/1135/209 668/1060/212
f 628/1062/78 670/1067/211 666/1063/208
f 647/1061/248 668/1060/212 671/1064/214
f 628/1062/78 629/1070/79 672/1066/213
f 649/1068/251 648/1065/250 671/1064/214
f 629/1070/79 630/1075/81 674/1071/215
f 650/1072/252 649/1068/251 673/1069/216
f 631/1074/83 676/1079/217 674/1071/215
f 650/1072/252 675/1073/218 677/1076/220
f 631/1074/83 632/1082/85 678/1078/219
f 651/1077/253 677/1076/220 679/1080/222
f 632/1082/85 633/1086/87 680/1083/221
f 652/1081/254 679/1080/222 681/1084/224
f 633/1086/87 634/1091/88 682/1087/223
f 654/1088/256 653/1085/255 681/1084/224
f 635/1090/90 684/1095/225 682/1087/223
f 654/1088/256 683/1089/226 685/1092/228
f 635/1090/90 636/1099/92 686/1094/227
f 656/1096/258 655/1093/257 685/1092/228
f 637/1098/94 688/1103/229 686/1094/227
f 657/1100/259 656/1096/258 687/1097/230
f 637/1098/94 638/1106/96 690/1102/231
f 658/1104/260 657/1100/259 689/1101/232
f 638/1106/96 639/1110/97 692/1107/233
f 659/1108/261 658/1104/260 691/1105/234
f 639/1110/97 640/1115/99 694/1111/235
f 659/1108/261 693/1109/236 695/1112/238
f 641/1114/101 696/1119/237 694/1111/235
f 661/1116/263 660/1113/262 695/1112/238
f 642/1118/103 698/1123/239 696/1119/237
f 661/1116/263 697/1117/240 699/1120/242
f 643/1122/105 700/1127/241 698/1123/239
f 662/1121/264 699/1120/242 701/1124/244
f 643/1122/105 644/1131/106 702/1126/246
f 664/1128/266 663/1125/265 701/1124/244
f 645/1130/107 704/1134/245 702/1126/246
f 664/1128/266 703/1129/243 705/1132/247
f 626/1058/73 667/1057/210 704/1134/245
f 665/1133/267 705/1132/247 669/1135/209
