# Blender 5.1.0
# www.blender.org
mtllib Mop.mtl
o Mop_LP
v -0.003762 -0.084462 -0.087785
v 0.229473 -0.084462 -0.087785
v 0.067344 -0.322955 -0.083380
v 0.158366 -0.322955 -0.083380
v 0.067344 -0.322955 0.005969
v 0.158366 -0.322955 0.005969
v -0.003762 -0.084462 0.010374
v 0.229473 -0.084462 0.010374
v 0.067344 -0.322955 -0.011901
v -0.003762 -0.084462 -0.009258
v 0.229473 -0.084462 -0.009258
v 0.158366 -0.322955 -0.011901
v 0.067344 -0.322955 -0.065510
v -0.003762 -0.084462 -0.068153
v 0.229473 -0.084462 -0.068153
v 0.158366 -0.322955 -0.065510
v 0.010100 -0.204580 -0.087785
v 0.215611 -0.204580 -0.087785
v 0.215611 -0.204580 -0.068153
v 0.215611 -0.204580 -0.009258
v 0.215611 -0.204580 0.010374
v 0.010100 -0.204580 0.010374
v 0.010100 -0.204580 -0.009258
v 0.010100 -0.204580 -0.068153
v -0.003762 -0.157336 -0.087785
v 0.229473 -0.157335 -0.087785
v 0.229473 -0.157335 -0.068153
v 0.229473 -0.157335 -0.009258
v 0.229473 -0.157335 0.010374
v -0.003762 -0.157336 0.010374
v -0.003762 -0.157336 -0.009258
v -0.003762 -0.157336 -0.068153
v -0.000627 -0.084462 -0.087785
v -0.000627 -0.084462 -0.068153
v 0.002533 -0.157336 -0.068153
v 0.015647 -0.204580 -0.068153
v 0.015647 -0.204580 -0.009258
v 0.002533 -0.157336 -0.009258
v -0.000627 -0.084462 -0.009258
v -0.000627 -0.084462 0.010374
v 0.225159 -0.084462 0.010374
v 0.225159 -0.084462 -0.009258
v 0.225159 -0.157335 -0.009258
v 0.211812 -0.204580 -0.009258
v 0.211812 -0.204580 -0.068153
v 0.225159 -0.157335 -0.068153
v 0.225159 -0.084462 -0.068153
v 0.225159 -0.084462 -0.087785
v -0.003762 -0.011159 -0.068153
v -0.000627 -0.011159 -0.068153
v -0.000627 -0.011159 -0.087785
v -0.003762 -0.011159 -0.087785
v -0.003762 -0.011159 0.010374
v -0.000627 -0.011159 0.010374
v -0.000627 -0.011159 -0.009258
v -0.003762 -0.011159 -0.009258
v 0.225159 -0.011159 0.010374
v 0.225159 -0.011159 -0.009258
v 0.229473 -0.011159 0.010374
v 0.229473 -0.011159 -0.009258
v 0.225159 -0.011159 -0.068153
v 0.225159 -0.011159 -0.087785
v 0.229473 -0.011159 -0.068153
v 0.229473 -0.011159 -0.087785
v -0.000602 -0.157336 -0.087785
v 0.013703 -0.204580 -0.087785
v 0.071959 -0.322955 -0.083380
v 0.071759 -0.322955 -0.065510
v 0.071158 -0.322955 -0.011901
v 0.070957 -0.322955 0.005969
v -0.000596 -0.157336 0.010374
v 0.013306 -0.204580 0.010374
v 0.224372 -0.157335 -0.087785
v 0.209885 -0.204580 -0.087785
v 0.152913 -0.322955 -0.083380
v 0.152741 -0.322955 -0.065510
v 0.152225 -0.322955 -0.011901
v 0.152053 -0.322955 0.005969
v 0.210736 -0.204580 0.010374
v 0.224947 -0.157335 0.010373
v -0.377282 0.115538 -0.100986
v 0.609791 0.115538 -0.100986
v -0.377282 0.115538 0.027022
v 0.609791 0.115538 0.027022
v -0.377282 0.037368 -0.135901
v 0.609791 0.037368 -0.135901
v 0.609791 0.037368 0.061937
v -0.377282 0.037368 0.061937
v -0.377282 -0.004207 -0.058550
v 0.609791 -0.004207 -0.058550
v 0.609791 -0.004207 -0.015415
v -0.377282 -0.004207 -0.015415
v -0.377282 -0.046311 -0.058550
v 0.609791 -0.046311 -0.058550
v 0.609791 -0.046311 -0.015415
v -0.377282 -0.046311 -0.015415
v -0.377282 0.019905 -0.133397
v 0.609791 0.019905 -0.133397
v 0.609791 0.019905 0.059432
v -0.377282 0.019905 0.059432
v 0.589773 -0.034480 -0.000000
v 0.589773 -0.031905 0.005053
v 0.589773 -0.027895 0.009063
v 0.589773 -0.022841 0.011638
v 0.589773 -0.017240 0.012525
v 0.589773 -0.011638 0.011638
v 0.589773 -0.006585 0.009063
v 0.589773 -0.002575 0.005053
v 0.589773 0.000000 -0.000000
v 0.589773 0.000887 -0.005602
v 0.589773 0.000000 -0.011203
v 0.589773 -0.002575 -0.016256
v 0.589773 -0.006585 -0.020267
v 0.589773 -0.011638 -0.022842
v 0.589773 -0.017240 -0.023729
v 0.589773 -0.022841 -0.022842
v 0.589773 -0.027895 -0.020267
v 0.589773 -0.031905 -0.016256
v 0.589773 -0.034480 -0.011203
v 0.589773 -0.035367 -0.005602
v -0.364429 -0.034480 -0.000000
v -0.364429 -0.031905 0.005053
v -0.364429 -0.027895 0.009063
v -0.364429 -0.022842 0.011638
v -0.364429 -0.017240 0.012525
v -0.364429 -0.011638 0.011638
v -0.364429 -0.006585 0.009063
v -0.364429 -0.002575 0.005053
v -0.364429 -0.000000 -0.000000
v -0.364429 0.000887 -0.005602
v -0.364429 -0.000000 -0.011203
v -0.364429 -0.002575 -0.016256
v -0.364429 -0.006585 -0.020267
v -0.364429 -0.011638 -0.022842
v -0.364429 -0.017240 -0.023729
v -0.364429 -0.022842 -0.022842
v -0.364429 -0.027895 -0.020267
v -0.364429 -0.031905 -0.016256
v -0.364429 -0.034480 -0.011203
v -0.364429 -0.035367 -0.005602
v 0.589773 -0.017240 -0.005602
v -0.364429 -0.017240 -0.005602
v -0.003625 -0.011638 -0.022842
v -0.003625 -0.006585 -0.020267
v -0.003625 -0.002575 -0.016256
v -0.003625 0.000000 -0.011203
v -0.003625 0.000887 -0.005602
v -0.003625 -0.000000 -0.000000
v -0.003625 -0.002575 0.005053
v -0.003625 -0.006585 0.009063
v -0.003625 -0.011638 0.011638
v -0.003625 -0.017240 0.012525
v -0.003625 -0.022841 0.011638
v -0.003625 -0.027895 0.009063
v -0.003625 -0.031905 0.005053
v -0.003625 -0.034480 -0.000000
v -0.003625 -0.035367 -0.005602
v -0.003625 -0.034480 -0.011203
v -0.003625 -0.031905 -0.016256
v -0.003625 -0.027895 -0.020267
v -0.003625 -0.022841 -0.022842
v -0.003625 -0.017240 -0.023729
v 0.228970 -0.011638 -0.022842
v 0.228970 -0.006585 -0.020267
v 0.228970 -0.002575 -0.016256
v 0.228970 0.000000 -0.011203
v 0.228970 0.000887 -0.005602
v 0.228970 0.000000 -0.000000
v 0.228970 -0.002575 0.005053
v 0.228970 -0.006585 0.009063
v 0.228970 -0.011638 0.011638
v 0.228970 -0.017240 0.012525
v 0.228970 -0.022841 0.011638
v 0.228970 -0.027895 0.009063
v 0.228970 -0.031905 0.005053
v 0.228970 -0.034480 -0.000000
v 0.228970 -0.035367 -0.005602
v 0.228970 -0.034480 -0.011203
v 0.228970 -0.031905 -0.016256
v 0.228970 -0.027895 -0.020267
v 0.228970 -0.022841 -0.022842
v 0.228970 -0.017240 -0.023729
v -0.000000 -0.011638 -0.022842
v -0.000000 -0.006585 -0.020267
v -0.000000 -0.002575 -0.016256
v -0.000000 0.000000 -0.011203
v -0.000000 0.000887 -0.005602
v -0.000000 0.000000 -0.000000
v -0.000000 -0.002575 0.005053
v -0.000000 -0.006585 0.009063
v -0.000000 -0.011638 0.011638
v -0.000000 -0.017240 0.012525
v -0.000000 -0.022841 0.011638
v -0.000000 -0.027895 0.009063
v -0.000000 -0.031905 0.005053
v -0.000000 -0.034480 -0.000000
v -0.000000 -0.035367 -0.005602
v -0.000000 -0.034480 -0.011203
v -0.000000 -0.031905 -0.016256
v -0.000000 -0.027895 -0.020267
v -0.000000 -0.022841 -0.022842
v -0.000000 -0.017240 -0.023729
v 0.224911 -0.011638 -0.022842
v 0.224911 -0.017240 -0.023729
v 0.224911 -0.022841 -0.022842
v 0.224911 -0.027895 -0.020267
v 0.224911 -0.031905 -0.016256
v 0.224911 -0.034480 -0.011203
v 0.224911 -0.035367 -0.005602
v 0.224911 -0.034480 -0.000000
v 0.224911 -0.031905 0.005053
v 0.224911 -0.027895 0.009063
v 0.224911 -0.022841 0.011638
v 0.224911 -0.017240 0.012525
v 0.224911 -0.011638 0.011638
v 0.224911 -0.006585 0.009063
v 0.224911 -0.002575 0.005053
v 0.224911 0.000000 -0.000000
v 0.224911 0.000887 -0.005602
v 0.224911 0.000000 -0.011203
v 0.224911 -0.002575 -0.016256
v 0.224911 -0.006585 -0.020267
v -0.000000 -0.013516 -0.017063
v -0.000000 -0.010156 -0.015352
v -0.000000 -0.007490 -0.012685
v -0.000000 -0.005778 -0.009326
v -0.000000 -0.005188 -0.005602
v -0.000000 -0.005778 -0.001878
v -0.000000 -0.007490 0.001482
v -0.000000 -0.010156 0.004148
v -0.000000 -0.013516 0.005860
v -0.000000 -0.017240 0.006450
v -0.000000 -0.020964 0.005860
v -0.000000 -0.024323 0.004148
v -0.000000 -0.026989 0.001482
v -0.000000 -0.028701 -0.001878
v -0.000000 -0.029291 -0.005602
v -0.000000 -0.028701 -0.009326
v -0.000000 -0.026989 -0.012685
v -0.000000 -0.024323 -0.015352
v -0.000000 -0.020964 -0.017063
v -0.000000 -0.017240 -0.017653
v -0.003625 -0.013554 -0.016946
v -0.003625 -0.010229 -0.015252
v -0.003625 -0.007589 -0.012613
v -0.003625 -0.005895 -0.009288
v -0.003625 -0.005312 -0.005602
v -0.003625 -0.005895 -0.001916
v -0.003625 -0.007589 0.001410
v -0.003625 -0.010229 0.004048
v -0.003625 -0.013554 0.005743
v -0.003625 -0.017240 0.006327
v -0.003625 -0.020926 0.005743
v -0.003625 -0.024251 0.004048
v -0.003625 -0.026890 0.001410
v -0.003625 -0.028584 -0.001916
v -0.003625 -0.029168 -0.005602
v -0.003625 -0.028584 -0.009288
v -0.003625 -0.026890 -0.012613
v -0.003625 -0.024251 -0.015252
v -0.003625 -0.020926 -0.016946
v -0.003625 -0.017240 -0.017530
v 0.224911 -0.013308 -0.017704
v 0.224911 -0.017240 -0.018326
v 0.224911 -0.021172 -0.017704
v 0.224911 -0.024719 -0.015896
v 0.224911 -0.027534 -0.013081
v 0.224911 -0.029342 -0.009534
v 0.224911 -0.029964 -0.005602
v 0.224911 -0.029342 -0.001670
v 0.224911 -0.027534 0.001878
v 0.224911 -0.024719 0.004693
v 0.224911 -0.021172 0.006500
v 0.224911 -0.017240 0.007123
v 0.224911 -0.013308 0.006500
v 0.224911 -0.009760 0.004693
v 0.224911 -0.006945 0.001878
v 0.224911 -0.005138 -0.001670
v 0.224911 -0.004515 -0.005602
v 0.224911 -0.005138 -0.009534
v 0.224911 -0.006945 -0.013081
v 0.224911 -0.009760 -0.015896
v 0.228970 -0.013105 -0.018327
v 0.228970 -0.009375 -0.016427
v 0.228970 -0.006415 -0.013466
v 0.228970 -0.004514 -0.009736
v 0.228970 -0.003860 -0.005602
v 0.228970 -0.004514 -0.001467
v 0.228970 -0.006415 0.002263
v 0.228970 -0.009375 0.005223
v 0.228970 -0.013105 0.007124
v 0.228970 -0.017240 0.007779
v 0.228970 -0.021375 0.007124
v 0.228970 -0.025104 0.005223
v 0.228970 -0.028065 0.002263
v 0.228970 -0.029965 -0.001467
v 0.228970 -0.030620 -0.005602
v 0.228970 -0.029965 -0.009736
v 0.228970 -0.028065 -0.013466
v 0.228970 -0.025105 -0.016427
v 0.228970 -0.021375 -0.018327
v 0.228970 -0.017240 -0.018982
v 0.589773 -0.034480 -0.065430
v 0.589773 -0.031905 -0.060377
v 0.589773 -0.027895 -0.056367
v 0.589773 -0.022841 -0.053792
v 0.589773 -0.017240 -0.052905
v 0.589773 -0.011638 -0.053792
v 0.589773 -0.006585 -0.056367
v 0.589773 -0.002575 -0.060377
v 0.589773 0.000000 -0.065430
v 0.589773 0.000887 -0.071032
v 0.589773 0.000000 -0.076633
v 0.589773 -0.002575 -0.081686
v 0.589773 -0.006585 -0.085697
v 0.589773 -0.011638 -0.088271
v 0.589773 -0.017240 -0.089159
v 0.589773 -0.022841 -0.088271
v 0.589773 -0.027895 -0.085697
v 0.589773 -0.031905 -0.081686
v 0.589773 -0.034480 -0.076633
v 0.589773 -0.035367 -0.071032
v -0.364429 -0.034480 -0.065430
v -0.364429 -0.031905 -0.060377
v -0.364429 -0.027895 -0.056367
v -0.364429 -0.022842 -0.053792
v -0.364429 -0.017240 -0.052904
v -0.364429 -0.011638 -0.053792
v -0.364429 -0.006585 -0.056367
v -0.364429 -0.002575 -0.060377
v -0.364429 -0.000000 -0.065430
v -0.364429 0.000887 -0.071031
v -0.364429 -0.000000 -0.076633
v -0.364429 -0.002575 -0.081686
v -0.364429 -0.006585 -0.085697
v -0.364429 -0.011638 -0.088271
v -0.364429 -0.017240 -0.089159
v -0.364429 -0.022842 -0.088271
v -0.364429 -0.027895 -0.085697
v -0.364429 -0.031905 -0.081686
v -0.364429 -0.034480 -0.076633
v -0.364429 -0.035367 -0.071031
v 0.589773 -0.017240 -0.071032
v -0.364429 -0.017240 -0.071031
v -0.003625 -0.011638 -0.088271
v -0.003625 -0.006585 -0.085697
v -0.003625 -0.002575 -0.081686
v -0.003625 0.000000 -0.076633
v -0.003625 0.000887 -0.071031
v -0.003625 0.000000 -0.065430
v -0.003625 -0.002575 -0.060377
v -0.003625 -0.006585 -0.056367
v -0.003625 -0.011638 -0.053792
v -0.003625 -0.017240 -0.052904
v -0.003625 -0.022841 -0.053792
v -0.003625 -0.027895 -0.056367
v -0.003625 -0.031905 -0.060377
v -0.003625 -0.034480 -0.065430
v -0.003625 -0.035367 -0.071031
v -0.003625 -0.034480 -0.076633
v -0.003625 -0.031905 -0.081686
v -0.003625 -0.027895 -0.085697
v -0.003625 -0.022841 -0.088271
v -0.003625 -0.017240 -0.089159
v 0.228970 -0.011638 -0.088271
v 0.228970 -0.006585 -0.085697
v 0.228970 -0.002575 -0.081686
v 0.228970 0.000000 -0.076633
v 0.228970 0.000887 -0.071032
v 0.228970 0.000000 -0.065430
v 0.228970 -0.002575 -0.060377
v 0.228970 -0.006585 -0.056367
v 0.228970 -0.011638 -0.053792
v 0.228970 -0.017240 -0.052904
v 0.228970 -0.022841 -0.053792
v 0.228970 -0.027895 -0.056367
v 0.228970 -0.031905 -0.060377
v 0.228970 -0.034480 -0.065430
v 0.228970 -0.035367 -0.071032
v 0.228970 -0.034480 -0.076633
v 0.228970 -0.031905 -0.081686
v 0.228970 -0.027895 -0.085697
v 0.228970 -0.022841 -0.088271
v 0.228970 -0.017240 -0.089159
v -0.000000 -0.011638 -0.088271
v -0.000000 -0.006585 -0.085697
v -0.000000 -0.002575 -0.081686
v -0.000000 0.000000 -0.076633
v -0.000000 0.000887 -0.071031
v -0.000000 0.000000 -0.065430
v -0.000000 -0.002575 -0.060377
v -0.000000 -0.006585 -0.056367
v -0.000000 -0.011638 -0.053792
v -0.000000 -0.017240 -0.052904
v -0.000000 -0.022841 -0.053792
v -0.000000 -0.027895 -0.056367
v -0.000000 -0.031905 -0.060377
v -0.000000 -0.034480 -0.065430
v -0.000000 -0.035367 -0.071031
v -0.000000 -0.034480 -0.076633
v -0.000000 -0.031905 -0.081686
v -0.000000 -0.027895 -0.085697
v -0.000000 -0.022841 -0.088271
v -0.000000 -0.017240 -0.089159
v 0.224911 -0.011638 -0.088271
v 0.224911 -0.017240 -0.089159
v 0.224911 -0.022841 -0.088271
v 0.224911 -0.027895 -0.085697
v 0.224911 -0.031905 -0.081686
v 0.224911 -0.034480 -0.076633
v 0.224911 -0.035367 -0.071032
v 0.224911 -0.034480 -0.065430
v 0.224911 -0.031905 -0.060377
v 0.224911 -0.027895 -0.056367
v 0.224911 -0.022841 -0.053792
v 0.224911 -0.017240 -0.052904
v 0.224911 -0.011638 -0.053792
v 0.224911 -0.006585 -0.056367
v 0.224911 -0.002575 -0.060377
v 0.224911 0.000000 -0.065430
v 0.224911 0.000887 -0.071032
v 0.224911 0.000000 -0.076633
v 0.224911 -0.002575 -0.081686
v 0.224911 -0.006585 -0.085697
v -0.000000 -0.013516 -0.082493
v -0.000000 -0.010156 -0.080781
v -0.000000 -0.007490 -0.078115
v -0.000000 -0.005778 -0.074756
v -0.000000 -0.005188 -0.071031
v -0.000000 -0.005778 -0.067307
v -0.000000 -0.007490 -0.063948
v -0.000000 -0.010156 -0.061282
v -0.000000 -0.013516 -0.059570
v -0.000000 -0.017240 -0.058980
v -0.000000 -0.020964 -0.059570
v -0.000000 -0.024323 -0.061282
v -0.000000 -0.026989 -0.063948
v -0.000000 -0.028701 -0.067307
v -0.000000 -0.029291 -0.071031
v -0.000000 -0.028701 -0.074756
v -0.000000 -0.026989 -0.078115
v -0.000000 -0.024323 -0.080781
v -0.000000 -0.020964 -0.082493
v -0.000000 -0.017240 -0.083083
v -0.003625 -0.013554 -0.082376
v -0.003625 -0.010229 -0.080682
v -0.003625 -0.007589 -0.078043
v -0.003625 -0.005895 -0.074718
v -0.003625 -0.005312 -0.071031
v -0.003625 -0.005895 -0.067346
v -0.003625 -0.007589 -0.064020
v -0.003625 -0.010229 -0.061381
v -0.003625 -0.013554 -0.059687
v -0.003625 -0.017240 -0.059103
v -0.003625 -0.020926 -0.059687
v -0.003625 -0.024251 -0.061381
v -0.003625 -0.026890 -0.064020
v -0.003625 -0.028584 -0.067346
v -0.003625 -0.029168 -0.071031
v -0.003625 -0.028584 -0.074718
v -0.003625 -0.026890 -0.078043
v -0.003625 -0.024251 -0.080682
v -0.003625 -0.020926 -0.082376
v -0.003625 -0.017240 -0.082960
v 0.224911 -0.013308 -0.083133
v 0.224911 -0.017240 -0.083756
v 0.224911 -0.021172 -0.083133
v 0.224911 -0.024719 -0.081326
v 0.224911 -0.027534 -0.078511
v 0.224911 -0.029342 -0.074964
v 0.224911 -0.029964 -0.071032
v 0.224911 -0.029342 -0.067100
v 0.224911 -0.027534 -0.063552
v 0.224911 -0.024719 -0.060737
v 0.224911 -0.021172 -0.058930
v 0.224911 -0.017240 -0.058307
v 0.224911 -0.013308 -0.058930
v 0.224911 -0.009760 -0.060737
v 0.224911 -0.006945 -0.063552
v 0.224911 -0.005138 -0.067100
v 0.224911 -0.004515 -0.071032
v 0.224911 -0.005138 -0.074964
v 0.224911 -0.006945 -0.078511
v 0.224911 -0.009760 -0.081326
v 0.228970 -0.013105 -0.083757
v 0.228970 -0.009375 -0.081857
v 0.228970 -0.006415 -0.078896
v 0.228970 -0.004514 -0.075166
v 0.228970 -0.003860 -0.071032
v 0.228970 -0.004514 -0.066897
v 0.228970 -0.006415 -0.063167
v 0.228970 -0.009375 -0.060207
v 0.228970 -0.013105 -0.058306
v 0.228970 -0.017240 -0.057651
v 0.228970 -0.021374 -0.058306
v 0.228970 -0.025104 -0.060207
v 0.228970 -0.028065 -0.063167
v 0.228970 -0.029965 -0.066897
v 0.228970 -0.030620 -0.071032
v 0.228970 -0.029965 -0.075166
v 0.228970 -0.028065 -0.078896
v 0.228970 -0.025105 -0.081857
v 0.228970 -0.021374 -0.083757
v 0.228970 -0.017240 -0.084412
v 0.140530 -0.318744 -0.027724
v 0.136274 -0.318744 -0.019371
v 0.129646 -0.318744 -0.012743
v 0.121293 -0.318744 -0.008487
v 0.112035 -0.318744 -0.007021
v 0.102776 -0.318744 -0.008487
v 0.094423 -0.318744 -0.012743
v 0.087795 -0.318744 -0.019371
v 0.083539 -0.318744 -0.027724
v 0.082073 -0.318744 -0.036982
v 0.083539 -0.318744 -0.046241
v 0.087795 -0.318744 -0.054593
v 0.094423 -0.318744 -0.061222
v 0.102776 -0.318744 -0.065478
v 0.112035 -0.318744 -0.066944
v 0.121293 -0.318744 -0.065478
v 0.129646 -0.318744 -0.061222
v 0.136274 -0.318744 -0.054593
v 0.140530 -0.318744 -0.046241
v 0.141996 -0.318744 -0.036982
v 0.140530 -3.659344 -0.027724
v 0.136274 -3.659344 -0.019371
v 0.129646 -3.659344 -0.012743
v 0.121293 -3.659344 -0.008487
v 0.112035 -3.659344 -0.007021
v 0.102776 -3.659344 -0.008487
v 0.094424 -3.659344 -0.012743
v 0.087795 -3.659344 -0.019371
v 0.083539 -3.659344 -0.027724
v 0.082073 -3.659344 -0.036982
v 0.083539 -3.659344 -0.046241
v 0.087795 -3.659344 -0.054593
v 0.094424 -3.659344 -0.061222
v 0.102776 -3.659344 -0.065478
v 0.112035 -3.659344 -0.066944
v 0.121293 -3.659344 -0.065478
v 0.129646 -3.659344 -0.061222
v 0.136274 -3.659344 -0.054594
v 0.140530 -3.659344 -0.046241
v 0.141996 -3.659344 -0.036982
v 0.139135 -3.668602 -0.028177
v 0.135088 -3.668602 -0.020233
v 0.128784 -3.668602 -0.013929
v 0.120840 -3.668602 -0.009882
v 0.112035 -3.668602 -0.008487
v 0.103229 -3.668602 -0.009882
v 0.095286 -3.668602 -0.013929
v 0.088982 -3.668602 -0.020233
v 0.084934 -3.668602 -0.028177
v 0.083539 -3.668602 -0.036982
v 0.084934 -3.668602 -0.045788
v 0.088982 -3.668602 -0.053732
v 0.095286 -3.668602 -0.060036
v 0.103229 -3.668602 -0.064083
v 0.112035 -3.668602 -0.065478
v 0.120840 -3.668602 -0.064083
v 0.128784 -3.668602 -0.060036
v 0.135088 -3.668602 -0.053732
v 0.139135 -3.668602 -0.045788
v 0.140530 -3.668602 -0.036982
v 0.135088 -3.676957 -0.029492
v 0.131645 -3.676957 -0.022735
v 0.126282 -3.676957 -0.017372
v 0.119525 -3.676957 -0.013929
v 0.112035 -3.676957 -0.012743
v 0.104544 -3.676957 -0.013929
v 0.097787 -3.676957 -0.017372
v 0.092425 -3.676957 -0.022735
v 0.088982 -3.676957 -0.029492
v 0.087795 -3.676957 -0.036982
v 0.088982 -3.676957 -0.044473
v 0.092424 -3.676957 -0.051230
v 0.097787 -3.676957 -0.056593
v 0.104544 -3.676957 -0.060036
v 0.112035 -3.676957 -0.061222
v 0.119525 -3.676957 -0.060036
v 0.126282 -3.676957 -0.056593
v 0.131645 -3.676957 -0.051230
v 0.135088 -3.676957 -0.044473
v 0.136274 -3.676957 -0.036982
v 0.128784 -3.683583 -0.031540
v 0.126282 -3.683583 -0.026631
v 0.122386 -3.683583 -0.022735
v 0.117477 -3.683583 -0.020233
v 0.112035 -3.683583 -0.019371
v 0.106593 -3.683583 -0.020233
v 0.101683 -3.683583 -0.022735
v 0.097787 -3.683583 -0.026631
v 0.095286 -3.683583 -0.031540
v 0.094424 -3.683583 -0.036982
v 0.095286 -3.683583 -0.042425
v 0.097787 -3.683583 -0.047334
v 0.101683 -3.683583 -0.051230
v 0.106593 -3.683583 -0.053732
v 0.112035 -3.683583 -0.054594
v 0.117477 -3.683583 -0.053732
v 0.122386 -3.683583 -0.051230
v 0.126282 -3.683583 -0.047334
v 0.128784 -3.683583 -0.042425
v 0.129646 -3.683583 -0.036982
v 0.120840 -3.687840 -0.034121
v 0.119525 -3.687840 -0.031540
v 0.117477 -3.687840 -0.029492
v 0.114896 -3.687840 -0.028177
v 0.112035 -3.687840 -0.027724
v 0.109174 -3.687840 -0.028177
v 0.106593 -3.687840 -0.029492
v 0.104544 -3.687840 -0.031540
v 0.103229 -3.687840 -0.034121
v 0.102776 -3.687840 -0.036982
v 0.103229 -3.687840 -0.039844
v 0.104544 -3.687840 -0.042425
v 0.106593 -3.687840 -0.044473
v 0.109174 -3.687840 -0.045788
v 0.112035 -3.687840 -0.046241
v 0.114896 -3.687840 -0.045788
v 0.117477 -3.687840 -0.044473
v 0.119525 -3.687840 -0.042425
v 0.120840 -3.687840 -0.039844
v 0.121293 -3.687840 -0.036982
v 0.112035 -3.689305 -0.036982
v 0.140530 -0.442726 -0.027724
v 0.136274 -0.442726 -0.019371
v 0.129646 -0.442726 -0.012743
v 0.121293 -0.442726 -0.008487
v 0.112035 -0.442726 -0.007021
v 0.102776 -0.442726 -0.008487
v 0.094423 -0.442726 -0.012743
v 0.087795 -0.442726 -0.019371
v 0.083539 -0.442726 -0.027724
v 0.082073 -0.442726 -0.036982
v 0.083539 -0.442726 -0.046241
v 0.087795 -0.442726 -0.054593
v 0.094423 -0.442726 -0.061222
v 0.102776 -0.442726 -0.065478
v 0.112035 -0.442726 -0.066944
v 0.121293 -0.442726 -0.065478
v 0.129646 -0.442726 -0.061222
v 0.136274 -0.442726 -0.054593
v 0.140530 -0.442726 -0.046241
v 0.141996 -0.442726 -0.036982
v 0.140530 -2.696520 -0.027724
v 0.136274 -2.696520 -0.019371
v 0.129646 -2.696520 -0.012743
v 0.121293 -2.696520 -0.008487
v 0.112035 -2.526308 -0.007021
v 0.102776 -2.696520 -0.008487
v 0.094424 -2.696520 -0.012743
v 0.087795 -2.696520 -0.019371
v 0.083539 -2.696520 -0.027724
v 0.082073 -2.696520 -0.036982
v 0.083539 -2.696520 -0.046241
v 0.087795 -2.696520 -0.054593
v 0.094424 -2.696520 -0.061222
v 0.102776 -2.696520 -0.065478
v 0.112035 -2.696520 -0.066944
v 0.121293 -2.696520 -0.065478
v 0.129646 -2.696520 -0.061222
v 0.136274 -2.696520 -0.054594
v 0.140530 -2.696520 -0.046241
v 0.141996 -2.696520 -0.036982
v 0.130540 -0.455726 -0.023537
v 0.133789 -0.455726 -0.029914
v 0.130540 -2.683519 -0.023537
v 0.133790 -2.683519 -0.029914
v 0.125480 -0.455726 -0.018476
v 0.125480 -2.683519 -0.018477
v 0.119103 -0.455726 -0.015227
v 0.119103 -2.683519 -0.015228
v 0.112035 -0.455726 -0.014108
v 0.112035 -2.683519 -0.014108
v 0.104966 -0.455726 -0.015227
v 0.104966 -2.683519 -0.015228
v 0.098589 -0.455726 -0.018476
v 0.098589 -2.683519 -0.018477
v 0.093529 -0.455726 -0.023537
v 0.093529 -2.683519 -0.023537
v 0.090280 -0.455726 -0.029914
v 0.090280 -2.683519 -0.029914
v 0.089160 -0.455726 -0.036982
v 0.089160 -2.683519 -0.036982
v 0.090280 -0.455726 -0.044051
v 0.090280 -2.683519 -0.044051
v 0.093529 -0.455726 -0.050428
v 0.093529 -2.683519 -0.050428
v 0.098589 -0.455726 -0.055488
v 0.098589 -2.683519 -0.055488
v 0.104966 -0.455726 -0.058737
v 0.104966 -2.683519 -0.058737
v 0.112035 -0.455726 -0.059857
v 0.112035 -2.683519 -0.059857
v 0.119103 -0.455726 -0.058737
v 0.119103 -2.683519 -0.058737
v 0.125480 -0.455726 -0.055488
v 0.125480 -2.683519 -0.055488
v 0.130540 -0.455726 -0.050428
v 0.130541 -2.683519 -0.050428
v 0.133789 -0.455726 -0.044051
v 0.133790 -2.683519 -0.044051
v 0.134909 -0.455726 -0.036982
v 0.134909 -2.683519 -0.036982
vn -0.0000 -0.0189 -0.9998
vn -0.0000 -0.0372 -0.9993
vn -0.0000 -0.0241 -0.9997
vn 0.0001 -0.0189 0.9998
vn -0.0000 -0.0372 0.9993
vn -0.0000 -0.0189 0.9998
vn -0.0000 1.0000 -0.0000
vn 0.9066 -0.4221 -0.0000
vn 0.9003 -0.4354 -0.0000
vn 0.9197 -0.3926 -0.0000
vn -0.9065 -0.4223 -0.0000
vn -0.9003 -0.4354 -0.0000
vn -0.9065 -0.4221 -0.0000
vn -0.9197 -0.3926 -0.0000
vn 0.9065 -0.4223 -0.0000
vn -0.0000 -0.0000 -1.0000
vn 0.9934 -0.1145 -0.0000
vn 0.9198 -0.3924 -0.0000
vn -0.0000 -0.0000 1.0000
vn -0.9934 -0.1145 -0.0000
vn 1.0000 -0.0000 -0.0000
vn -1.0000 -0.0000 -0.0000
vn -0.0000 -1.0000 -0.0000
vn -0.0000 -0.0230 0.9997
vn -0.0000 -0.0227 -0.9997
vn -0.0000 -0.0239 0.9997
vn -0.0000 0.4078 -0.9131
vn -0.0000 0.4078 0.9131
vn -0.0000 -0.8731 -0.4875
vn -0.0000 -0.9518 -0.3066
vn 0.0002 -0.8723 -0.4889
vn -0.0000 -0.8731 0.4875
vn -0.0000 -0.9518 0.3066
vn -0.0000 -0.8723 0.4889
vn -0.0000 -0.1420 -0.9899
vn -0.0000 -0.1420 0.9899
vn -0.0000 -0.8090 0.5878
vn -0.0000 -0.9511 0.3090
vn -0.0000 -0.5878 0.8090
vn -0.0000 -0.3090 0.9511
vn -0.0000 0.3090 0.9511
vn -0.0000 0.5878 0.8090
vn -0.0000 0.8090 0.5878
vn -0.0000 0.9511 0.3090
vn -0.0000 0.9511 -0.3090
vn -0.0000 0.8090 -0.5878
vn -0.0000 0.5878 -0.8090
vn -0.0000 0.3090 -0.9511
vn -0.0000 -0.3090 -0.9511
vn -0.0000 -0.5878 -0.8090
vn -0.0000 -0.8090 -0.5878
vn -0.0000 -0.9511 -0.3090
vn 0.8090 -0.0000 0.5878
vn 0.9503 -0.0404 0.3088
vn 0.9511 -0.0000 0.3090
vn 0.5878 -0.0000 0.8090
vn 0.6507 -0.2438 0.7191
vn 0.3090 -0.0000 0.9511
vn 0.3953 -0.2438 0.8856
vn 0.1023 -0.2438 0.9644
vn -0.3090 -0.0000 0.9511
vn -0.2017 -0.2438 0.9486
vn -0.5878 -0.0000 0.8090
vn -0.4841 -0.2438 0.8404
vn -0.8090 -0.0000 0.5878
vn -0.7201 -0.2438 0.6496
vn -0.9511 -0.0000 0.3090
vn -0.8850 -0.2438 0.3966
vn -0.9645 -0.2438 0.1013
vn -0.9511 -0.0000 -0.3090
vn -0.9491 -0.2438 -0.1993
vn -0.8090 -0.0000 -0.5878
vn -0.8404 -0.2438 -0.4841
vn -0.5878 -0.0000 -0.8090
vn -0.6496 -0.2438 -0.7201
vn -0.3090 -0.0000 -0.9511
vn -0.3953 -0.2438 -0.8856
vn -0.1013 -0.2438 -0.9645
vn 0.3088 -0.0401 -0.9503
vn 0.1981 -0.2439 -0.9494
vn 0.5878 -0.0000 -0.8090
vn 0.3090 -0.0000 -0.9511
vn 0.8090 -0.0000 -0.5878
vn 0.7191 -0.2438 -0.6507
vn 0.9511 -0.0000 -0.3090
vn 0.8856 -0.2438 -0.3953
vn 0.9645 -0.2438 -0.1013
vn 0.9491 -0.2438 0.1993
vn 0.9321 -0.0248 0.3612
vn 0.7726 -0.2965 0.5614
vn 0.9083 -0.2965 0.2951
vn 0.8383 -0.0219 0.5447
vn 0.5613 -0.2966 0.7726
vn 0.6290 -0.0219 0.7771
vn 0.2951 -0.2965 0.9083
vn -0.0521 -0.0219 0.9984
vn 0.3798 -0.0767 0.9219
vn -0.2951 -0.2965 0.9083
vn -0.0083 -0.3049 0.9524
vn -0.2590 -0.0219 0.9656
vn -0.5614 -0.2965 0.7726
vn -0.5447 -0.0219 0.8383
vn -0.7726 -0.2965 0.5614
vn -0.9657 -0.0217 0.2588
vn -0.7596 -0.0767 0.6459
vn -0.9550 -0.2965 -0.0000
vn -0.9083 -0.3049 0.2864
vn -0.9334 -0.0217 -0.3583
vn -0.9942 -0.0767 0.0760
vn -0.7726 -0.2965 -0.5614
vn -0.9032 -0.3049 -0.3021
vn -0.8383 -0.0219 -0.5447
vn -0.5614 -0.2965 -0.7726
vn -0.2588 -0.0217 -0.9657
vn -0.6459 -0.0767 -0.7596
vn -0.0000 -0.2965 -0.9550
vn -0.2864 -0.3049 -0.9083
vn -0.0521 -0.0219 -0.9984
vn 0.2951 -0.2965 -0.9083
vn 0.6292 -0.0217 -0.7770
vn 0.2349 -0.0767 -0.9690
vn 0.7726 -0.2965 -0.5614
vn 0.5665 -0.3049 -0.7656
vn 0.7771 -0.0219 -0.6290
vn 0.9083 -0.2965 -0.2951
vn 0.9334 -0.0219 -0.3581
vn 0.9550 -0.2965 -0.0000
vn 0.9942 -0.0767 -0.0760
vn 0.6673 -0.5653 0.4849
vn 0.7845 -0.5654 0.2549
vn 0.4849 -0.5652 0.6674
vn -0.0000 -0.5653 0.8249
vn 0.2338 -0.5818 0.7790
vn -0.2549 -0.5652 0.7846
vn -0.6674 -0.5653 0.4848
vn -0.4928 -0.5818 0.6470
vn -0.8248 -0.5654 -0.0000
vn -0.7790 -0.5818 0.2337
vn -0.7846 -0.5652 -0.2549
vn -0.6470 -0.5818 -0.4928
vn -0.2549 -0.5652 -0.7846
vn -0.4631 -0.5818 -0.6687
vn 0.2549 -0.5652 -0.7845
vn 0.0184 -0.5818 -0.8131
vn 0.4849 -0.5652 -0.6674
vn 0.6687 -0.5818 -0.4631
vn 0.8249 -0.5652 -0.0000
vn 0.7790 -0.5818 -0.2338
vn 0.5945 -0.7805 0.1932
vn 0.4607 -0.8037 0.3765
vn 0.3216 -0.8037 0.5005
vn 0.1512 -0.8037 0.5754
vn -0.1931 -0.7807 0.5944
vn -0.0340 -0.8037 0.5940
vn -0.3673 -0.7807 0.5056
vn -0.5056 -0.7807 0.3673
vn -0.6249 -0.7807 -0.0000
vn -0.5754 -0.8038 0.1512
vn -0.5056 -0.7807 -0.3673
vn -0.5544 -0.8037 -0.2159
vn -0.3216 -0.8037 -0.5006
vn -0.1512 -0.8037 -0.5754
vn 0.0341 -0.8037 -0.5940
vn 0.3673 -0.7807 -0.5056
vn 0.2158 -0.8037 -0.5545
vn 0.5056 -0.7807 -0.3674
vn 0.5755 -0.8037 -0.1511
vn 0.5941 -0.8037 0.0336
vn 0.3172 -0.9199 0.2305
vn 0.3722 -0.9202 0.1209
vn 0.1244 -0.9473 0.2951
vn 0.0271 -0.9473 0.3191
vn -0.1211 -0.9200 0.3726
vn -0.0723 -0.9473 0.3119
vn -0.2303 -0.9200 0.3170
vn -0.3172 -0.9199 0.2305
vn -0.3921 -0.9199 -0.0000
vn -0.3190 -0.9474 0.0277
vn -0.3172 -0.9199 -0.2306
vn -0.2743 -0.9473 -0.1652
vn -0.1244 -0.9474 -0.2951
vn -0.0271 -0.9473 -0.3191
vn 0.1211 -0.9200 -0.3727
vn 0.0723 -0.9473 -0.3119
vn 0.2303 -0.9200 -0.3170
vn 0.3172 -0.9199 -0.2305
vn 0.3921 -0.9199 -0.0000
vn 0.3190 -0.9473 -0.0276
vn 0.8085 -0.0125 0.5884
vn 0.9509 0.0155 0.3090
vn 0.9511 -0.0039 0.3090
vn 0.5871 -0.0117 0.8094
vn 0.9038 0.2361 0.3569
vn 0.3082 -0.0117 0.9512
vn 0.7481 0.2363 0.6200
vn -0.0008 -0.0107 0.9999
vn 0.9473 0.1993 0.2507
vn -0.3098 -0.0117 0.9507
vn -0.1120 0.9904 -0.0809
vn -0.5884 -0.0117 0.8085
vn -0.7150 0.2001 0.6698
vn -0.8094 -0.0125 0.5871
vn -0.3578 0.2362 0.9034
vn -0.9512 -0.0107 0.3083
vn -0.6187 0.2361 0.7493
vn -0.9999 -0.0125 -0.0008
vn -0.8205 0.2362 0.5205
vn -0.9508 -0.0117 -0.3097
vn -0.9414 0.2363 0.2408
vn -0.8085 -0.0117 -0.5884
vn -0.9699 0.2361 -0.0602
vn -0.5871 -0.0117 -0.8094
vn -0.9031 0.2363 -0.3585
vn -0.3082 -0.0107 -0.9513
vn -0.7486 0.2362 -0.6195
vn 0.0007 -0.0125 -0.9999
vn -0.5205 0.2362 -0.8205
vn 0.3098 -0.0107 -0.9507
vn -0.2425 0.2361 -0.9410
vn 0.5883 -0.0125 -0.8085
vn 0.0612 0.2362 -0.9698
vn 0.8094 -0.0117 -0.5872
vn 0.3578 0.2362 -0.9034
vn 0.9513 -0.0107 -0.3082
vn 0.6200 0.2363 -0.7481
vn 0.9999 -0.0157 0.0008
vn 0.8200 0.2361 -0.5214
vn 0.9404 0.2359 -0.2449
vn 0.8104 0.0019 0.5859
vn 0.9511 0.0032 0.3090
vn 0.5897 0.0050 0.8076
vn 0.3811 -0.1083 0.9182
vn -0.3772 -0.1035 0.9203
vn -0.3847 0.9116 0.1449
vn -0.5859 0.0032 0.8104
vn -0.8076 0.0019 0.5897
vn -0.9503 0.0032 0.3113
vn -1.0000 0.0050 0.0023
vn -0.9518 0.0019 -0.3068
vn -0.8104 0.0050 -0.5859
vn -0.5897 0.0032 -0.8076
vn -0.3113 0.0032 -0.9503
vn -0.0024 0.0019 -1.0000
vn 0.3068 0.0032 -0.9518
vn 0.5859 0.0032 -0.8104
vn 0.8076 0.0050 -0.5897
vn 0.9503 0.0019 -0.3113
vn 1.0000 0.0050 -0.0023
vn -0.9198 -0.3924 -0.0000
vt 0.606300 0.088980
vt 0.630879 0.141080
vt 0.604674 0.088992
vt 0.758137 0.100488
vt 0.705853 0.037889
vt 0.758122 0.011399
vt 0.975133 0.198349
vt 0.966441 0.300681
vt 0.966432 0.198350
vt 0.659314 0.299643
vt 0.652533 0.358489
vt 0.650566 0.299644
vt 0.090047 0.291868
vt 0.148893 0.285080
vt 0.148893 0.293043
vt 0.090048 0.318111
vt 0.148894 0.324895
vt 0.090048 0.326859
vt 0.994850 0.035420
vt 0.986136 0.137750
vt 0.986149 0.035419
vt 0.685558 0.299641
vt 0.692348 0.358486
vt 0.684385 0.358487
vt 0.148894 0.316931
vt 0.660496 0.358489
vt 0.599695 0.068178
vt 0.659312 0.277663
vt 0.650564 0.277664
vt 0.694304 0.277660
vt 0.694306 0.299640
vt 0.778987 0.106758
vt 0.778970 0.004983
vt 0.068069 0.318112
vt 0.068069 0.326860
vt 0.068068 0.283120
vt 0.068068 0.291869
vt 0.598270 0.068189
vt 0.599454 0.036021
vt 0.659310 0.245190
vt 0.650561 0.245191
vt 0.685556 0.277661
vt 0.694302 0.245187
vt 0.811146 0.106766
vt 0.811128 0.004882
vt 0.035595 0.318113
vt 0.035596 0.326861
vt 0.035594 0.283121
vt 0.035594 0.291870
vt 0.813261 0.097821
vt 0.839251 0.009303
vt 0.839251 0.097821
vt 0.740429 0.212245
vt 0.708271 0.111786
vt 0.740429 0.110360
vt 0.687422 0.206222
vt 0.708270 0.212245
vt 0.931029 0.100206
vt 0.910181 0.005770
vt 0.931030 0.011688
vt 0.878022 0.106229
vt 0.910181 0.106229
vt 0.752013 0.004345
vt 0.743350 0.002930
vt 0.752013 0.002930
vt 0.878022 0.004344
vt 0.910181 0.002930
vt 0.931030 0.009185
vt 0.813261 0.009303
vt 0.839251 0.006800
vt 0.687422 0.115201
vt 0.708270 0.108946
vt 0.740429 0.108946
vt 0.741209 0.004345
vt 0.732545 0.002930
vt 0.741209 0.002930
vt 0.725594 0.011593
vt 0.723649 0.002930
vt 0.725596 0.002930
vt 0.708270 0.214191
vt 0.740429 0.214191
vt 0.687421 0.207936
vt 0.813261 0.099535
vt 0.839251 0.099535
vt 0.931029 0.101920
vt 0.878022 0.108175
vt 0.910181 0.108175
vt 0.730043 0.011593
vt 0.728097 0.002930
vt 0.730044 0.002930
vt 0.845674 0.002930
vt 0.878022 0.002930
vt 0.975130 0.165860
vt 0.598039 0.036031
vt 0.599222 0.003673
vt 0.002930 0.283122
vt 0.843494 0.108175
vt 0.811146 0.108181
vt 0.994854 0.002931
vt 0.772777 0.110360
vt 0.002931 0.318114
vt 0.994837 0.137751
vt 0.986131 0.170239
vt 0.811128 0.002935
vt 0.843476 0.004876
vt 0.685554 0.245188
vt 0.694299 0.212523
vt 0.772777 0.214191
vt 0.975143 0.300680
vt 0.966444 0.333171
vt 0.845674 0.106229
vt 0.659307 0.212525
vt 0.701336 0.035291
vt 0.703051 0.002930
vt 0.703282 0.035277
vt 0.880634 0.141641
vt 0.882265 0.149527
vt 0.880635 0.149527
vt 0.880630 0.117984
vt 0.882355 0.141641
vt 0.880629 0.110098
vt 0.882622 0.117984
vt 0.701211 0.067451
vt 0.694823 0.088346
vt 0.632961 0.141065
vt 0.882712 0.110098
vt 0.919165 0.117978
vt 0.918936 0.141635
vt 0.918859 0.149522
vt 0.778987 0.108186
vt 0.758137 0.101935
vt 0.705859 0.076113
vt 0.703513 0.067435
vt 0.697407 0.088328
vt 0.671951 0.140786
vt 0.919241 0.110092
vt 0.921703 0.117978
vt 0.921707 0.141635
vt 0.921708 0.149521
vt 0.705853 0.035040
vt 0.758121 0.009200
vt 0.778969 0.002941
vt 0.443403 0.281213
vt 0.002931 0.224076
vt 0.443405 0.224091
vt 0.443402 0.002930
vt 0.002936 0.041203
vt 0.002930 0.002998
vt 0.768540 0.288817
vt 0.733669 0.216109
vt 0.768549 0.231695
vt 0.443430 0.183885
vt 0.002964 0.222158
vt 0.002958 0.183953
vt 0.958197 0.177995
vt 0.880629 0.200036
vt 0.923414 0.162190
vt 0.443409 0.049006
vt 0.002943 0.084165
vt 0.002937 0.049075
vt 0.002957 0.176081
vt 0.443423 0.140922
vt 0.443429 0.176012
vt 0.443415 0.084097
vt 0.002946 0.102954
vt 0.002951 0.140991
vt 0.443420 0.122133
vt 0.957082 0.228833
vt 0.930217 0.227513
vt 0.944635 0.214760
vt 0.898071 0.241583
vt 0.715111 0.250623
vt 0.696319 0.269869
vt 0.696322 0.250620
vt 0.002949 0.122203
vt 0.725862 0.303273
vt 0.715107 0.269872
vt 0.443408 0.041134
vt 0.725876 0.217225
vt 0.733655 0.304392
vt 0.892071 0.236486
vt 0.612993 0.142998
vt 0.610465 0.304003
vt 0.610462 0.142998
vt 0.615524 0.142998
vt 0.612996 0.304003
vt 0.618054 0.142998
vt 0.615526 0.304003
vt 0.620585 0.142998
vt 0.618057 0.304003
vt 0.623116 0.142998
vt 0.620588 0.304003
vt 0.625647 0.142998
vt 0.623119 0.304003
vt 0.628178 0.142998
vt 0.625650 0.304003
vt 0.630709 0.142998
vt 0.628181 0.304003
vt 0.633240 0.142998
vt 0.630711 0.304003
vt 0.635770 0.142998
vt 0.633242 0.304003
vt 0.638301 0.142998
vt 0.635773 0.304003
vt 0.640832 0.142998
vt 0.638303 0.304002
vt 0.643362 0.142997
vt 0.640834 0.304002
vt 0.645893 0.142997
vt 0.643365 0.304002
vt 0.648424 0.142997
vt 0.645896 0.304002
vt 0.597808 0.142998
vt 0.600341 0.304003
vt 0.597811 0.304003
vt 0.602869 0.142998
vt 0.600339 0.142998
vt 0.605400 0.142998
vt 0.602872 0.304003
vt 0.607931 0.142998
vt 0.605403 0.304003
vt 0.607934 0.304003
vt 0.847950 0.040138
vt 0.845542 0.039356
vt 0.849214 0.032149
vt 0.850480 0.040138
vt 0.852887 0.039356
vt 0.854935 0.037868
vt 0.856422 0.035821
vt 0.857204 0.033414
vt 0.857204 0.030883
vt 0.856422 0.028476
vt 0.854934 0.026429
vt 0.852886 0.024941
vt 0.850480 0.024159
vt 0.847949 0.024159
vt 0.845541 0.024942
vt 0.843494 0.026429
vt 0.842007 0.028477
vt 0.841225 0.030884
vt 0.841225 0.033415
vt 0.842007 0.035821
vt 0.843495 0.037869
vt 0.635250 0.007248
vt 0.636032 0.009655
vt 0.628042 0.010919
vt 0.636031 0.012186
vt 0.635249 0.014593
vt 0.633761 0.016640
vt 0.631714 0.018127
vt 0.629306 0.018909
vt 0.626776 0.018909
vt 0.624369 0.018126
vt 0.622322 0.016638
vt 0.620834 0.014591
vt 0.620052 0.012184
vt 0.620053 0.009653
vt 0.620835 0.007246
vt 0.622323 0.005199
vt 0.624371 0.003711
vt 0.626778 0.002930
vt 0.629308 0.002930
vt 0.631715 0.003712
vt 0.633763 0.005200
vt 0.820704 0.110110
vt 0.818151 0.271115
vt 0.818173 0.110110
vt 0.815620 0.271114
vt 0.815642 0.110109
vt 0.813089 0.271114
vt 0.813111 0.110109
vt 0.810559 0.271114
vt 0.810580 0.110109
vt 0.808028 0.271113
vt 0.808050 0.110108
vt 0.805497 0.271113
vt 0.805519 0.110108
vt 0.802967 0.271113
vt 0.802988 0.110108
vt 0.800436 0.271112
vt 0.800458 0.110107
vt 0.797905 0.271112
vt 0.797927 0.110107
vt 0.795374 0.271112
vt 0.795396 0.110107
vt 0.792843 0.271111
vt 0.792865 0.110106
vt 0.790313 0.271111
vt 0.790334 0.110106
vt 0.787782 0.271111
vt 0.787803 0.110106
vt 0.785251 0.271110
vt 0.785273 0.110105
vt 0.782720 0.271110
vt 0.782742 0.110105
vt 0.780189 0.271110
vt 0.780211 0.110104
vt 0.777658 0.271109
vt 0.777680 0.110104
vt 0.775127 0.271109
vt 0.775149 0.110104
vt 0.825765 0.110111
vt 0.823213 0.271115
vt 0.823235 0.110110
vt 0.820682 0.271115
vt 0.246789 0.283125
vt 0.249319 0.383489
vt 0.246788 0.383489
vt 0.244258 0.383489
vt 0.244259 0.283125
vt 0.241727 0.383489
vt 0.241728 0.283125
vt 0.239196 0.383489
vt 0.239197 0.283124
vt 0.236665 0.383489
vt 0.236666 0.283124
vt 0.234135 0.283124
vt 0.234134 0.383489
vt 0.231604 0.383489
vt 0.231605 0.283124
vt 0.229073 0.383489
vt 0.229074 0.283124
vt 0.226542 0.383489
vt 0.226543 0.283124
vt 0.224012 0.283124
vt 0.224011 0.383489
vt 0.221480 0.383489
vt 0.221481 0.283124
vt 0.218949 0.383489
vt 0.218950 0.283124
vt 0.216419 0.383489
vt 0.216420 0.283124
vt 0.213888 0.383489
vt 0.213889 0.283124
vt 0.211357 0.383489
vt 0.211358 0.283124
vt 0.208827 0.383489
vt 0.208828 0.283124
vt 0.206296 0.383489
vt 0.206297 0.283124
vt 0.203765 0.383489
vt 0.203766 0.283124
vt 0.254382 0.283125
vt 0.251850 0.383489
vt 0.251851 0.283125
vt 0.249320 0.283125
vt 0.859802 0.035145
vt 0.861698 0.037975
vt 0.859021 0.037551
vt 0.859021 0.040082
vt 0.861699 0.039658
vt 0.859803 0.042489
vt 0.862218 0.041258
vt 0.863208 0.042619
vt 0.861291 0.044537
vt 0.863338 0.046024
vt 0.864569 0.043608
vt 0.866169 0.044128
vt 0.865745 0.046806
vt 0.867852 0.044128
vt 0.868276 0.046806
vt 0.870683 0.046024
vt 0.869452 0.043608
vt 0.870813 0.042619
vt 0.872730 0.044536
vt 0.874218 0.042488
vt 0.871802 0.041258
vt 0.875000 0.040081
vt 0.872322 0.039657
vt 0.872322 0.037975
vt 0.875000 0.037551
vt 0.871802 0.036375
vt 0.874217 0.035144
vt 0.872730 0.033096
vt 0.870813 0.035014
vt 0.869451 0.034025
vt 0.870682 0.031609
vt 0.868275 0.030827
vt 0.867851 0.033505
vt 0.866168 0.033505
vt 0.865744 0.030827
vt 0.864568 0.034025
vt 0.863337 0.031609
vt 0.861290 0.033097
vt 0.863207 0.035014
vt 0.862218 0.036375
vt 0.602405 0.007245
vt 0.605848 0.007155
vt 0.604869 0.008502
vt 0.605940 0.003711
vt 0.603892 0.005198
vt 0.608347 0.002930
vt 0.607195 0.006176
vt 0.610878 0.002930
vt 0.608780 0.005662
vt 0.612028 0.006177
vt 0.610445 0.005662
vt 0.613285 0.003713
vt 0.613376 0.007156
vt 0.616819 0.007249
vt 0.615332 0.005201
vt 0.617601 0.009656
vt 0.614354 0.008504
vt 0.614868 0.011753
vt 0.614869 0.010088
vt 0.617600 0.012186
vt 0.614353 0.013337
vt 0.615330 0.016640
vt 0.616818 0.014593
vt 0.612027 0.015663
vt 0.613374 0.014684
vt 0.613282 0.018127
vt 0.610443 0.016177
vt 0.608344 0.018908
vt 0.610875 0.018909
vt 0.605937 0.018126
vt 0.608778 0.016177
vt 0.603890 0.016638
vt 0.607194 0.015662
vt 0.604868 0.013335
vt 0.605846 0.014682
vt 0.601621 0.012183
vt 0.602403 0.014590
vt 0.601622 0.009652
vt 0.604353 0.011751
vt 0.604354 0.010086
vt 0.707487 0.005199
vt 0.710629 0.005860
vt 0.709192 0.006904
vt 0.708147 0.008341
vt 0.705999 0.007246
vt 0.707598 0.010030
vt 0.705217 0.009652
vt 0.707598 0.011807
vt 0.705217 0.012183
vt 0.708146 0.013496
vt 0.705998 0.014590
vt 0.707485 0.016638
vt 0.709190 0.014934
vt 0.710627 0.015978
vt 0.709532 0.018126
vt 0.711939 0.018909
vt 0.712317 0.016528
vt 0.714470 0.018909
vt 0.714093 0.016528
vt 0.715783 0.015979
vt 0.716877 0.018127
vt 0.718925 0.016640
vt 0.717221 0.014935
vt 0.718265 0.013498
vt 0.720413 0.014593
vt 0.718814 0.011809
vt 0.721195 0.012186
vt 0.721196 0.009655
vt 0.718815 0.010032
vt 0.718266 0.008342
vt 0.720414 0.007248
vt 0.718927 0.005201
vt 0.717222 0.006905
vt 0.716880 0.003713
vt 0.715785 0.005861
vt 0.714473 0.002930
vt 0.714096 0.005311
vt 0.712319 0.005311
vt 0.711942 0.002930
vt 0.709535 0.003711
vt 0.845542 0.021459
vt 0.848280 0.020149
vt 0.847948 0.022241
vt 0.850479 0.022241
vt 0.850148 0.020149
vt 0.851925 0.019572
vt 0.852886 0.021460
vt 0.853436 0.018474
vt 0.854934 0.019972
vt 0.854535 0.016963
vt 0.856421 0.017925
vt 0.855112 0.015187
vt 0.857204 0.015518
vt 0.855112 0.013319
vt 0.857204 0.012987
vt 0.856423 0.010580
vt 0.854535 0.011542
vt 0.854935 0.008533
vt 0.853437 0.010030
vt 0.851926 0.008932
vt 0.852888 0.007045
vt 0.850481 0.006262
vt 0.850150 0.008355
vt 0.848281 0.008354
vt 0.847951 0.006262
vt 0.846505 0.008931
vt 0.845544 0.007044
vt 0.843496 0.008531
vt 0.844993 0.010029
vt 0.842008 0.010578
vt 0.843895 0.011540
vt 0.841226 0.012985
vt 0.843317 0.013317
vt 0.843317 0.015185
vt 0.841225 0.015516
vt 0.842007 0.017923
vt 0.843894 0.016962
vt 0.843494 0.019971
vt 0.844992 0.018473
vt 0.846503 0.019571
vt 0.978959 0.002937
vt 0.976404 0.163942
vt 0.976428 0.002936
vt 0.981490 0.002937
vt 0.978935 0.163942
vt 0.984021 0.002937
vt 0.981466 0.163943
vt 0.935935 0.002930
vt 0.933380 0.163935
vt 0.933405 0.002930
vt 0.938466 0.002930
vt 0.935911 0.163936
vt 0.940997 0.002931
vt 0.938442 0.163936
vt 0.943528 0.002931
vt 0.940973 0.163936
vt 0.946059 0.002932
vt 0.943503 0.163937
vt 0.948590 0.002932
vt 0.946034 0.163937
vt 0.951120 0.002932
vt 0.948565 0.163937
vt 0.953651 0.002933
vt 0.951096 0.163938
vt 0.956182 0.002933
vt 0.953627 0.163938
vt 0.958713 0.002933
vt 0.956158 0.163939
vt 0.961243 0.002934
vt 0.958689 0.163939
vt 0.963774 0.002934
vt 0.961219 0.163939
vt 0.966305 0.002935
vt 0.963750 0.163940
vt 0.968836 0.002935
vt 0.966280 0.163940
vt 0.971367 0.002935
vt 0.968812 0.163941
vt 0.973898 0.002936
vt 0.971342 0.163941
vt 0.973873 0.163941
vt 0.682069 0.018909
vt 0.679662 0.018126
vt 0.683335 0.010919
vt 0.684600 0.018909
vt 0.687007 0.018127
vt 0.689055 0.016640
vt 0.690542 0.014592
vt 0.691325 0.012185
vt 0.691325 0.009655
vt 0.690543 0.007248
vt 0.689056 0.005200
vt 0.687008 0.003712
vt 0.684602 0.002930
vt 0.682071 0.002930
vt 0.679663 0.003712
vt 0.677616 0.005199
vt 0.676128 0.007246
vt 0.675346 0.009653
vt 0.675346 0.012184
vt 0.676127 0.014591
vt 0.677615 0.016639
vt 0.870683 0.028127
vt 0.868276 0.028909
vt 0.867010 0.020920
vt 0.865746 0.028909
vt 0.863338 0.028127
vt 0.861291 0.026640
vt 0.859803 0.024593
vt 0.859021 0.022186
vt 0.859021 0.019655
vt 0.859802 0.017248
vt 0.861289 0.015201
vt 0.863337 0.013713
vt 0.865744 0.012930
vt 0.868275 0.012930
vt 0.870682 0.013712
vt 0.872729 0.015199
vt 0.874217 0.017247
vt 0.875000 0.019653
vt 0.875000 0.022184
vt 0.874218 0.024591
vt 0.872730 0.026639
vt 0.853202 0.110098
vt 0.850656 0.271103
vt 0.850671 0.110098
vt 0.848125 0.271103
vt 0.848140 0.110098
vt 0.845594 0.271102
vt 0.845609 0.110098
vt 0.843063 0.271102
vt 0.843078 0.110098
vt 0.840533 0.271102
vt 0.840548 0.110097
vt 0.838002 0.271102
vt 0.838017 0.110097
vt 0.835471 0.271102
vt 0.835486 0.110097
vt 0.832940 0.271101
vt 0.832955 0.110097
vt 0.830409 0.271101
vt 0.830424 0.110096
vt 0.827878 0.271101
vt 0.827893 0.110096
vt 0.878510 0.110101
vt 0.875964 0.271105
vt 0.875979 0.110101
vt 0.873433 0.271105
vt 0.873448 0.110100
vt 0.870902 0.271105
vt 0.870917 0.110100
vt 0.868371 0.271105
vt 0.868386 0.110100
vt 0.865841 0.271104
vt 0.865856 0.110100
vt 0.863310 0.271104
vt 0.863325 0.110099
vt 0.860779 0.271104
vt 0.860794 0.110099
vt 0.858248 0.271104
vt 0.858263 0.110099
vt 0.855717 0.271103
vt 0.855732 0.110099
vt 0.853187 0.271103
vt 0.173791 0.283124
vt 0.176327 0.383488
vt 0.173797 0.383489
vt 0.171266 0.383489
vt 0.171260 0.283125
vt 0.168735 0.383489
vt 0.168729 0.283125
vt 0.166204 0.383489
vt 0.166198 0.283125
vt 0.163673 0.383489
vt 0.163668 0.283125
vt 0.161143 0.383489
vt 0.161137 0.283125
vt 0.158612 0.383489
vt 0.158606 0.283125
vt 0.156081 0.383490
vt 0.156076 0.283125
vt 0.153550 0.383490
vt 0.153545 0.283126
vt 0.151014 0.283126
vt 0.151019 0.383490
vt 0.201630 0.283123
vt 0.199104 0.383487
vt 0.199099 0.283123
vt 0.196574 0.383487
vt 0.196568 0.283123
vt 0.194043 0.383487
vt 0.194038 0.283123
vt 0.191512 0.383488
vt 0.191507 0.283123
vt 0.188981 0.383488
vt 0.188976 0.283124
vt 0.186451 0.383488
vt 0.186445 0.283124
vt 0.183920 0.383488
vt 0.183914 0.283124
vt 0.181389 0.383488
vt 0.181384 0.283124
vt 0.178858 0.383488
vt 0.178853 0.283124
vt 0.176322 0.283124
vt 0.870682 0.063921
vt 0.870813 0.060516
vt 0.872730 0.062433
vt 0.874217 0.060386
vt 0.871801 0.059155
vt 0.874999 0.057979
vt 0.872321 0.057554
vt 0.872321 0.055872
vt 0.874999 0.055448
vt 0.874217 0.053041
vt 0.871801 0.054272
vt 0.870813 0.052910
vt 0.872729 0.050993
vt 0.869451 0.051922
vt 0.870682 0.049506
vt 0.868275 0.048724
vt 0.867851 0.051402
vt 0.866168 0.051402
vt 0.865744 0.048724
vt 0.863338 0.049506
vt 0.864568 0.051922
vt 0.861290 0.050994
vt 0.863207 0.052911
vt 0.862218 0.054272
vt 0.859802 0.053041
vt 0.861698 0.055872
vt 0.859021 0.055448
vt 0.859021 0.057979
vt 0.861698 0.057555
vt 0.862218 0.059155
vt 0.859802 0.060386
vt 0.861290 0.062433
vt 0.863207 0.060516
vt 0.864568 0.061505
vt 0.863338 0.063921
vt 0.866168 0.062025
vt 0.865745 0.064703
vt 0.868275 0.064703
vt 0.867851 0.062025
vt 0.869451 0.061505
vt 0.845540 0.042839
vt 0.848381 0.044788
vt 0.846797 0.045303
vt 0.850478 0.042056
vt 0.847947 0.042056
vt 0.852886 0.042838
vt 0.850046 0.044788
vt 0.854933 0.044325
vt 0.851629 0.045302
vt 0.853956 0.047628
vt 0.852977 0.046281
vt 0.856421 0.046372
vt 0.854471 0.049212
vt 0.857204 0.051310
vt 0.857203 0.048779
vt 0.856423 0.053717
vt 0.854471 0.050877
vt 0.852979 0.053809
vt 0.853957 0.052461
vt 0.854935 0.055764
vt 0.851631 0.054788
vt 0.850481 0.058035
vt 0.852888 0.057252
vt 0.848382 0.055303
vt 0.850048 0.055303
vt 0.847950 0.058035
vt 0.846798 0.054789
vt 0.843496 0.055766
vt 0.845543 0.057254
vt 0.842007 0.053719
vt 0.845451 0.053810
vt 0.841225 0.051312
vt 0.844472 0.052463
vt 0.843957 0.049214
vt 0.843957 0.050879
vt 0.842006 0.046375
vt 0.841225 0.048782
vt 0.843493 0.044327
vt 0.844471 0.047630
vt 0.845450 0.046282
vt 0.659185 0.005199
vt 0.662328 0.005860
vt 0.660890 0.006904
vt 0.659846 0.008341
vt 0.657697 0.007246
vt 0.659297 0.010030
vt 0.656915 0.009653
vt 0.659297 0.011807
vt 0.656914 0.012184
vt 0.659845 0.013496
vt 0.657697 0.014591
vt 0.659183 0.016638
vt 0.660888 0.014934
vt 0.662326 0.015978
vt 0.661231 0.018126
vt 0.663638 0.018908
vt 0.664016 0.016527
vt 0.666168 0.018909
vt 0.665792 0.016528
vt 0.667481 0.015979
vt 0.668576 0.018127
vt 0.670624 0.016640
vt 0.668919 0.014935
vt 0.669964 0.013498
vt 0.672111 0.014593
vt 0.670513 0.011808
vt 0.672894 0.012186
vt 0.672894 0.009655
vt 0.670513 0.010032
vt 0.669964 0.008342
vt 0.672112 0.007248
vt 0.670625 0.005200
vt 0.668920 0.006905
vt 0.668578 0.003713
vt 0.667483 0.005860
vt 0.666171 0.002930
vt 0.665793 0.005311
vt 0.664016 0.005311
vt 0.663640 0.002930
vt 0.661233 0.003711
vt 0.645206 0.018908
vt 0.647406 0.016817
vt 0.647737 0.018909
vt 0.650144 0.018127
vt 0.649183 0.016240
vt 0.650694 0.015142
vt 0.652192 0.016640
vt 0.651793 0.013631
vt 0.653680 0.014593
vt 0.652370 0.011854
vt 0.654462 0.012186
vt 0.652370 0.009986
vt 0.654463 0.009655
vt 0.651793 0.008210
vt 0.653681 0.007248
vt 0.652194 0.005200
vt 0.650696 0.006698
vt 0.650147 0.003713
vt 0.649185 0.005600
vt 0.647408 0.005022
vt 0.647740 0.002930
vt 0.645209 0.002930
vt 0.645540 0.005022
vt 0.643763 0.005599
vt 0.642802 0.003711
vt 0.642252 0.006697
vt 0.640754 0.005198
vt 0.639266 0.007246
vt 0.641154 0.008208
vt 0.638484 0.009653
vt 0.640576 0.009984
vt 0.638483 0.012183
vt 0.640576 0.011852
vt 0.641153 0.013629
vt 0.639265 0.014590
vt 0.640752 0.016638
vt 0.642250 0.015141
vt 0.642800 0.018126
vt 0.643761 0.016239
vt 0.645538 0.016816
vt 0.909911 0.243504
vt 0.905730 0.298830
vt 0.905728 0.243504
vt 0.914094 0.243504
vt 0.909913 0.298830
vt 0.918277 0.243504
vt 0.914097 0.298830
vt 0.922460 0.243504
vt 0.918280 0.298830
vt 0.926643 0.243503
vt 0.922463 0.298829
vt 0.930827 0.243503
vt 0.926646 0.298829
vt 0.935010 0.243503
vt 0.930829 0.298829
vt 0.939193 0.243503
vt 0.935012 0.298829
vt 0.943376 0.243503
vt 0.939195 0.298829
vt 0.947559 0.243503
vt 0.943378 0.298828
vt 0.951742 0.243502
vt 0.947561 0.298828
vt 0.955925 0.243502
vt 0.951744 0.298828
vt 0.960108 0.243502
vt 0.955928 0.298828
vt 0.964291 0.243502
vt 0.960111 0.298828
vt 0.880629 0.243505
vt 0.884815 0.298831
vt 0.880632 0.298831
vt 0.888996 0.243505
vt 0.884813 0.243505
vt 0.893179 0.243505
vt 0.888998 0.298831
vt 0.897362 0.243505
vt 0.893181 0.298831
vt 0.901545 0.243505
vt 0.897364 0.298830
vt 0.901547 0.298830
vt 0.266587 0.284949
vt 0.272870 0.287113
vt 0.268455 0.288535
vt 0.272202 0.283125
vt 0.277509 0.287124
vt 0.278105 0.283126
vt 0.281917 0.288569
vt 0.288496 0.288421
vt 0.283720 0.284950
vt 0.288380 0.295065
vt 0.285663 0.291305
vt 0.291966 0.293197
vt 0.289802 0.299480
vt 0.293789 0.298812
vt 0.289790 0.304119
vt 0.291965 0.310330
vt 0.293789 0.304715
vt 0.285610 0.312273
vt 0.288346 0.308527
vt 0.283718 0.318575
vt 0.288494 0.315106
vt 0.277435 0.316412
vt 0.281850 0.314990
vt 0.278103 0.320399
vt 0.272796 0.316400
vt 0.266585 0.318574
vt 0.272200 0.320399
vt 0.264642 0.312219
vt 0.268388 0.314956
vt 0.261809 0.315104
vt 0.261925 0.308460
vt 0.256516 0.304713
vt 0.258340 0.310328
vt 0.260515 0.299406
vt 0.260503 0.304045
vt 0.256516 0.298810
vt 0.261959 0.294998
vt 0.258340 0.293195
vt 0.264695 0.291252
vt 0.261811 0.288419
vt 0.273501 0.290881
vt 0.270219 0.291924
vt 0.276944 0.290904
vt 0.282985 0.294030
vt 0.280212 0.291989
vt 0.284990 0.296829
vt 0.286011 0.303554
vt 0.286033 0.300111
vt 0.282884 0.309594
vt 0.284926 0.306822
vt 0.280085 0.311600
vt 0.276804 0.312643
vt 0.270093 0.311536
vt 0.273361 0.312621
vt 0.265315 0.306695
vt 0.267321 0.309494
vt 0.264272 0.303414
vt 0.264294 0.299971
vt 0.267421 0.293930
vt 0.265379 0.296703
vt 0.271913 0.295225
vt 0.274091 0.294543
vt 0.276374 0.294569
vt 0.278537 0.295298
vt 0.281690 0.298522
vt 0.280369 0.296661
vt 0.282371 0.300701
vt 0.282346 0.302984
vt 0.280254 0.306979
vt 0.281616 0.305147
vt 0.276213 0.308981
vt 0.278392 0.308300
vt 0.273931 0.308956
vt 0.271768 0.308226
vt 0.269936 0.306864
vt 0.267934 0.302823
vt 0.268615 0.305002
vt 0.267959 0.300541
vt 0.268689 0.298378
vt 0.270051 0.296546
vt 0.274640 0.298156
vt 0.273551 0.298491
vt 0.275779 0.298174
vt 0.276857 0.298543
vt 0.278424 0.300160
vt 0.277769 0.299228
vt 0.278759 0.301250
vt 0.278741 0.302389
vt 0.277687 0.304379
vt 0.278371 0.303467
vt 0.275665 0.305368
vt 0.276754 0.305034
vt 0.274526 0.305351
vt 0.273447 0.304981
vt 0.271881 0.303364
vt 0.272536 0.304297
vt 0.271546 0.302275
vt 0.271564 0.301135
vt 0.272618 0.299146
vt 0.271934 0.300057
vt 0.275152 0.301762
vt 0.468407 0.002933
vt 0.465072 0.997064
vt 0.465213 0.002932
vt 0.471600 0.002933
vt 0.468266 0.997064
vt 0.474794 0.002934
vt 0.471460 0.997065
vt 0.477988 0.002934
vt 0.474653 0.997065
vt 0.481181 0.002935
vt 0.477847 0.997066
vt 0.484375 0.002935
vt 0.481040 0.997066
vt 0.487568 0.002935
vt 0.484234 0.997067
vt 0.490762 0.002936
vt 0.487428 0.997067
vt 0.493956 0.002936
vt 0.490621 0.997068
vt 0.497149 0.002937
vt 0.493815 0.997068
vt 0.500343 0.002937
vt 0.497008 0.997068
vt 0.503536 0.002938
vt 0.500202 0.997069
vt 0.506730 0.002938
vt 0.503396 0.997069
vt 0.509924 0.002939
vt 0.506589 0.997070
vt 0.449245 0.002930
vt 0.445911 0.997061
vt 0.446051 0.002930
vt 0.452439 0.002931
vt 0.449104 0.997062
vt 0.455632 0.002931
vt 0.452298 0.997062
vt 0.458826 0.002932
vt 0.455492 0.997063
vt 0.462020 0.002932
vt 0.458685 0.997063
vt 0.461879 0.997064
vt 0.541303 0.002931
vt 0.537107 0.432582
vt 0.537120 0.002930
vt 0.545486 0.002931
vt 0.541290 0.432582
vt 0.549669 0.002931
vt 0.545473 0.432582
vt 0.553839 0.432583
vt 0.549656 0.432582
vt 0.558036 0.002931
vt 0.553852 0.002931
vt 0.562219 0.002931
vt 0.558022 0.432583
vt 0.566402 0.002931
vt 0.562205 0.432583
vt 0.570585 0.002931
vt 0.566388 0.432583
vt 0.574768 0.002931
vt 0.570572 0.432583
vt 0.578951 0.002932
vt 0.574755 0.432583
vt 0.583134 0.002932
vt 0.578938 0.432583
vt 0.587317 0.002932
vt 0.583121 0.432583
vt 0.591500 0.002932
vt 0.587304 0.432584
vt 0.595683 0.002932
vt 0.591487 0.432584
vt 0.516205 0.002930
vt 0.512008 0.432581
vt 0.512022 0.002930
vt 0.520388 0.002930
vt 0.516191 0.432581
vt 0.524571 0.002930
vt 0.520374 0.432581
vt 0.528754 0.002930
vt 0.524558 0.432582
vt 0.532937 0.002930
vt 0.528741 0.432582
vt 0.532924 0.432582
vt 0.338871 0.284690
vt 0.344760 0.289377
vt 0.341827 0.290300
vt 0.295920 0.296570
vt 0.303174 0.294560
vt 0.302197 0.297475
vt 0.348740 0.283128
vt 0.343682 0.283128
vt 0.302169 0.300551
vt 0.295920 0.301630
vt 0.353552 0.284690
vt 0.347836 0.289404
vt 0.297485 0.306443
vt 0.303094 0.303484
vt 0.357645 0.287663
vt 0.350753 0.290380
vt 0.300461 0.310536
vt 0.304880 0.305988
vt 0.355009 0.294715
vt 0.353225 0.292210
vt 0.307352 0.307817
vt 0.304556 0.313509
vt 0.360618 0.291756
vt 0.355935 0.297648
vt 0.309369 0.315069
vt 0.310268 0.308792
vt 0.362183 0.296565
vt 0.355908 0.300723
vt 0.314428 0.315065
vt 0.313344 0.308817
vt 0.360623 0.306438
vt 0.362185 0.301624
vt 0.316277 0.307891
vt 0.319235 0.313501
vt 0.353102 0.306111
vt 0.354932 0.303640
vt 0.318781 0.306107
vt 0.323327 0.310530
vt 0.353555 0.313506
vt 0.357649 0.310532
vt 0.326301 0.306437
vt 0.320612 0.303636
vt 0.348742 0.315070
vt 0.350598 0.307896
vt 0.321588 0.300720
vt 0.327865 0.301624
vt 0.343683 0.315068
vt 0.347665 0.308820
vt 0.327864 0.296564
vt 0.321615 0.297644
vt 0.338874 0.313504
vt 0.344590 0.308791
vt 0.326300 0.291752
vt 0.320691 0.294711
vt 0.339201 0.305985
vt 0.341674 0.307814
vt 0.323323 0.287659
vt 0.318905 0.292208
vt 0.331807 0.306443
vt 0.334783 0.310533
vt 0.316433 0.290379
vt 0.319228 0.284687
vt 0.336490 0.300549
vt 0.337415 0.303482
vt 0.313515 0.289404
vt 0.314418 0.283127
vt 0.330240 0.296571
vt 0.330241 0.301632
vt 0.310440 0.289376
vt 0.309359 0.283127
vt 0.331802 0.291759
vt 0.336517 0.297474
vt 0.304548 0.284692
vt 0.307507 0.290301
vt 0.339323 0.292085
vt 0.337493 0.294557
vt 0.305003 0.292087
vt 0.300456 0.287667
vt 0.334776 0.287664
vt 0.297484 0.291759
vt 0.705859 0.074482
vt 0.090047 0.283119
vt 0.687422 0.117704
vt 0.743350 0.004344
vt 0.813261 0.006800
vt 0.732546 0.004344
vt 0.723648 0.011593
vt 0.728096 0.011593
vt 0.845674 0.004344
vt 0.966429 0.165860
vt 0.597808 0.003683
vt 0.002930 0.291871
vt 0.843493 0.106761
vt 0.986153 0.002930
vt 0.772777 0.108946
vt 0.002931 0.326862
vt 0.994832 0.170241
vt 0.843476 0.002930
vt 0.685551 0.212523
vt 0.772777 0.212245
vt 0.975146 0.333170
vt 0.845674 0.108175
vt 0.650559 0.212526
vt 0.701104 0.002944
vt 0.669490 0.140803
vt 0.921702 0.110092
vt 0.002930 0.281199
vt 0.443436 0.222089
vt 0.443418 0.102885
vt 0.942664 0.241586
vt 0.962523 0.184572
vt 0.648427 0.304002
vt 0.825744 0.271116
vt 0.254381 0.383489
vt 0.983996 0.163943
vt 0.878495 0.271105
vt 0.201635 0.383487
vt 0.964294 0.298827
vt 0.509783 0.997070
vt 0.595670 0.432584
s 1
usemtl lambert1.001
f 66/1/1 3/2/2 17/3/3
f 72/4/4 78/5/5 79/6/6
f 34/7/7 48/8/7 33/9/7
f 19/10/8 4/11/9 18/12/10
f 24/13/11 3/14/12 13/15/12
f 23/16/13 5/17/12 22/18/14
f 40/19/7 42/20/7 39/21/7
f 20/22/15 6/23/9 12/24/9
f 23/16/13 13/15/12 9/25/12
f 16/26/9 20/22/15 12/24/9
f 17/3/3 65/27/16 66/1/1
f 27/28/17 18/12/10 26/29/17
f 20/22/15 29/30/17 21/31/18
f 71/32/19 79/6/6 80/33/19
f 31/34/20 22/18/14 30/35/20
f 25/36/20 24/13/11 32/37/20
f 25/38/16 33/39/16 65/27/16
f 15/40/21 26/29/17 2/41/21
f 28/42/17 8/43/21 29/30/17
f 40/44/19 80/33/19 41/45/19
f 10/46/22 30/35/20 7/47/22
f 1/48/22 32/37/20 14/49/22
f 45/50/7 37/51/7 44/52/7
f 42/53/16 38/54/16 39/55/16
f 44/56/16 38/54/16 43/57/16
f 45/58/19 35/59/19 36/60/19
f 47/61/19 35/59/19 46/62/19
f 50/63/7 52/64/7 49/65/7
f 34/66/19 32/67/19 35/59/19
f 35/59/19 24/68/19 36/60/19
f 36/69/7 23/70/7 37/51/7
f 38/54/16 23/71/16 31/72/16
f 39/55/16 31/72/16 10/73/16
f 54/74/7 56/75/7 53/76/7
f 57/77/7 60/78/7 58/79/7
f 28/80/16 42/53/16 11/81/16
f 20/82/16 43/57/16 28/80/16
f 19/83/7 44/52/7 20/84/7
f 19/85/19 46/62/19 45/58/19
f 15/86/19 46/62/19 27/87/19
f 61/88/7 64/89/7 62/90/7
f 34/66/19 49/91/19 14/92/19
f 33/9/21 50/93/21 34/7/21
f 1/94/16 51/95/16 33/39/16
f 14/49/22 52/96/22 1/48/22
f 40/44/19 53/97/19 7/98/19
f 39/21/21 54/99/21 40/19/21
f 10/73/16 55/100/16 39/55/16
f 7/47/22 56/101/22 10/46/22
f 41/102/22 58/103/22 42/20/22
f 8/104/19 57/105/19 41/45/19
f 11/106/21 59/107/21 8/43/21
f 42/53/16 60/108/16 11/81/16
f 47/109/22 62/110/22 48/8/22
f 15/86/19 61/111/19 47/61/19
f 2/41/21 63/112/21 15/40/21
f 48/113/16 64/114/16 2/115/16
f 9/116/23 70/117/23 5/118/23
f 13/119/23 69/120/23 9/116/23
f 3/121/23 68/122/23 13/119/23
f 33/39/16 73/123/16 65/27/16
f 65/27/16 74/124/1 66/1/1
f 74/124/1 67/125/2 66/1/1
f 67/126/23 76/127/23 68/122/23
f 68/122/23 77/128/23 69/120/23
f 69/120/23 78/129/23 70/117/23
f 40/44/19 30/130/19 71/32/19
f 22/131/24 71/32/19 30/130/19
f 5/132/5 72/4/4 22/131/24
f 48/113/16 26/133/16 73/123/16
f 73/123/16 18/134/25 74/124/1
f 4/135/2 74/124/1 18/134/25
f 75/136/23 16/137/23 76/127/23
f 76/127/23 12/138/23 77/128/23
f 77/128/23 6/139/23 78/129/23
f 79/6/6 6/140/5 21/141/26
f 80/33/19 21/141/26 29/142/19
f 41/45/19 29/142/19 8/104/19
f 82/143/7 83/144/7 84/145/7
f 82/146/27 85/147/27 81/148/27
f 84/149/21 86/150/21 82/151/21
f 87/152/28 83/153/28 88/154/28
f 85/155/22 83/156/22 81/157/22
f 98/158/29 89/159/30 97/160/31
f 100/161/32 91/162/33 99/163/34
f 90/164/16 93/165/16 89/159/16
f 92/166/19 95/167/19 91/162/19
f 93/168/22 92/169/22 89/170/22
f 100/171/22 89/170/22 92/169/22
f 90/172/21 95/173/21 94/174/21
f 93/165/23 95/167/23 96/175/23
f 90/172/21 99/176/21 91/177/21
f 86/178/35 97/160/31 85/147/35
f 98/179/21 87/180/21 99/176/21
f 88/154/36 99/163/34 87/152/36
f 85/155/22 100/171/22 88/181/22
f 102/182/37 176/183/38 101/184/38
f 103/185/39 175/186/37 102/182/37
f 104/187/40 174/188/39 103/185/39
f 105/189/19 173/190/40 104/187/40
f 106/191/41 172/192/19 105/189/19
f 107/193/42 171/194/41 106/191/41
f 108/195/43 170/196/42 107/193/42
f 109/197/44 169/198/43 108/195/43
f 110/199/7 168/200/44 109/197/44
f 111/201/45 167/202/7 110/199/7
f 112/203/46 166/204/45 111/201/45
f 113/205/47 165/206/46 112/203/46
f 114/207/48 164/208/47 113/205/47
f 115/209/16 163/210/48 114/207/48
f 116/211/49 182/212/16 115/209/16
f 116/213/49 180/214/50 181/215/49
f 118/216/51 180/214/50 117/217/50
f 119/218/52 179/219/51 118/216/51
f 120/220/23 178/221/52 119/218/52
f 101/184/38 177/222/23 120/220/23
f 102/223/21 101/224/21 141/225/21
f 103/226/21 102/223/21 141/225/21
f 104/227/21 103/226/21 141/225/21
f 105/228/21 104/227/21 141/225/21
f 106/229/21 105/228/21 141/225/21
f 107/230/21 106/229/21 141/225/21
f 108/231/21 107/230/21 141/225/21
f 109/232/21 108/231/21 141/225/21
f 110/233/21 109/232/21 141/225/21
f 111/234/21 110/233/21 141/225/21
f 112/235/21 111/234/21 141/225/21
f 113/236/21 112/235/21 141/225/21
f 114/237/21 113/236/21 141/225/21
f 115/238/21 114/237/21 141/225/21
f 116/239/21 115/238/21 141/225/21
f 117/240/21 116/239/21 141/225/21
f 118/241/21 117/240/21 141/225/21
f 119/242/21 118/241/21 141/225/21
f 120/243/21 119/242/21 141/225/21
f 101/224/21 120/243/21 141/225/21
f 121/244/22 122/245/22 142/246/22
f 122/245/22 123/247/22 142/246/22
f 123/247/22 124/248/22 142/246/22
f 124/248/22 125/249/22 142/246/22
f 125/249/22 126/250/22 142/246/22
f 126/250/22 127/251/22 142/246/22
f 127/251/22 128/252/22 142/246/22
f 128/252/22 129/253/22 142/246/22
f 129/253/22 130/254/22 142/246/22
f 130/254/22 131/255/22 142/246/22
f 131/255/22 132/256/22 142/246/22
f 132/256/22 133/257/22 142/246/22
f 133/257/22 134/258/22 142/246/22
f 134/258/22 135/259/22 142/246/22
f 135/259/22 136/260/22 142/246/22
f 136/260/22 137/261/22 142/246/22
f 137/261/22 138/262/22 142/246/22
f 138/262/22 139/263/22 142/246/22
f 139/263/22 140/264/22 142/246/22
f 140/264/22 121/244/22 142/246/22
f 143/265/48 133/266/47 144/267/47
f 144/267/47 132/268/46 145/269/46
f 145/269/46 131/270/45 146/271/45
f 146/271/45 130/272/7 147/273/7
f 147/273/7 129/274/44 148/275/44
f 148/275/44 128/276/43 149/277/43
f 149/277/43 127/278/42 150/279/42
f 150/279/42 126/280/41 151/281/41
f 151/281/41 125/282/19 152/283/19
f 152/283/19 124/284/40 153/285/40
f 153/285/40 123/286/39 154/287/39
f 154/287/39 122/288/37 155/289/37
f 155/289/37 121/290/38 156/291/38
f 156/291/38 140/292/23 157/293/23
f 157/293/23 139/294/52 158/295/52
f 158/295/52 138/296/51 159/297/51
f 159/297/51 137/298/50 160/299/50
f 160/299/50 136/300/49 161/301/49
f 161/302/49 135/303/16 162/304/16
f 162/304/16 134/305/48 143/265/48
f 222/306/47 183/307/48 184/308/47
f 222/306/47 185/309/46 221/310/46
f 221/310/46 186/311/45 220/312/45
f 220/312/45 187/313/7 219/314/7
f 219/314/7 188/315/44 218/316/44
f 217/317/43 188/315/44 189/318/43
f 217/317/43 190/319/42 216/320/42
f 216/320/42 191/321/41 215/322/41
f 215/322/41 192/323/19 214/324/19
f 213/325/40 192/323/19 193/326/40
f 213/325/40 194/327/39 212/328/39
f 212/328/39 195/329/37 211/330/37
f 211/330/37 196/331/38 210/332/38
f 210/332/38 197/333/23 209/334/23
f 209/334/23 198/335/52 208/336/52
f 208/336/52 199/337/51 207/338/51
f 207/338/51 200/339/50 206/340/50
f 206/340/50 201/341/49 205/342/49
f 205/343/49 202/344/16 204/345/16
f 204/345/16 183/307/48 203/346/48
f 183/347/22 224/348/22 184/349/22
f 185/350/22 224/348/22 225/351/22
f 186/352/22 225/351/22 226/353/22
f 186/352/22 227/354/22 187/355/22
f 188/356/22 227/354/22 228/357/22
f 188/356/22 229/358/22 189/359/22
f 189/359/22 230/360/22 190/361/22
f 191/362/22 230/360/22 231/363/22
f 191/362/22 232/364/22 192/365/22
f 193/366/22 232/364/22 233/367/22
f 194/368/22 233/367/22 234/369/22
f 194/368/22 235/370/22 195/371/22
f 195/371/22 236/372/22 196/373/22
f 197/374/22 236/372/22 237/375/22
f 197/374/22 238/376/22 198/377/22
f 199/378/22 238/376/22 239/379/22
f 199/378/22 240/380/22 200/381/22
f 200/381/22 241/382/22 201/383/22
f 202/384/22 241/382/22 242/385/22
f 202/384/22 223/386/22 183/347/22
f 143/387/21 244/388/21 243/389/21
f 145/390/21 244/388/21 144/391/21
f 146/392/21 245/393/21 145/390/21
f 147/394/21 246/395/21 146/392/21
f 147/394/21 248/396/21 247/397/21
f 148/398/21 249/399/21 248/396/21
f 150/400/21 249/399/21 149/401/21
f 151/402/21 250/403/21 150/400/21
f 151/402/21 252/404/21 251/405/21
f 152/406/21 253/407/21 252/404/21
f 154/408/21 253/407/21 153/409/21
f 154/408/21 255/410/21 254/411/21
f 155/412/21 256/413/21 255/410/21
f 157/414/21 256/413/21 156/415/21
f 158/416/21 257/417/21 157/414/21
f 159/418/21 258/419/21 158/416/21
f 159/418/21 260/420/21 259/421/21
f 161/422/21 260/420/21 160/423/21
f 162/424/21 261/425/21 161/422/21
f 162/424/21 243/389/21 262/426/21
f 204/427/21 263/428/21 264/429/21
f 204/427/21 265/430/21 205/431/21
f 205/431/21 266/432/21 206/433/21
f 206/433/21 267/434/21 207/435/21
f 207/435/21 268/436/21 208/437/21
f 209/438/21 268/436/21 269/439/21
f 209/438/21 270/440/21 210/441/21
f 211/442/21 270/440/21 271/443/21
f 212/444/21 271/443/21 272/445/21
f 212/444/21 273/446/21 213/447/21
f 214/448/21 273/446/21 274/449/21
f 214/448/21 275/450/21 215/451/21
f 215/451/21 276/452/21 216/453/21
f 217/454/21 276/452/21 277/455/21
f 217/454/21 278/456/21 218/457/21
f 219/458/21 278/456/21 279/459/21
f 220/460/21 279/459/21 280/461/21
f 221/462/21 280/461/21 281/463/21
f 221/462/21 282/464/21 222/465/21
f 203/466/21 282/464/21 263/428/21
f 163/467/22 284/468/22 164/469/22
f 165/470/22 284/468/22 285/471/22
f 165/470/22 286/472/22 166/473/22
f 166/473/22 287/474/22 167/475/22
f 167/475/22 288/476/22 168/477/22
f 168/477/22 289/478/22 169/479/22
f 169/479/22 290/480/22 170/481/22
f 171/482/22 290/480/22 291/483/22
f 172/484/22 291/483/22 292/485/22
f 172/484/22 293/486/22 173/487/22
f 174/488/22 293/486/22 294/489/22
f 174/488/22 295/490/22 175/491/22
f 175/491/22 296/492/22 176/493/22
f 177/494/22 296/492/22 297/495/22
f 178/496/22 297/495/22 298/497/22
f 179/498/22 298/497/22 299/499/22
f 179/498/22 300/500/22 180/501/22
f 181/502/22 300/500/22 301/503/22
f 182/504/22 301/503/22 302/505/22
f 182/504/22 283/506/22 163/467/22
f 304/507/37 378/508/38 303/509/38
f 305/510/39 377/511/37 304/507/37
f 306/512/40 376/513/39 305/510/39
f 307/514/19 375/515/40 306/516/40
f 308/517/41 374/518/19 307/514/19
f 309/519/42 373/520/41 308/517/41
f 310/521/43 372/522/42 309/519/42
f 311/523/44 371/524/43 310/521/43
f 312/525/7 370/526/44 311/523/44
f 313/527/45 369/528/7 312/525/7
f 314/529/46 368/530/45 313/527/45
f 315/531/47 367/532/46 314/529/46
f 316/533/48 366/534/47 315/531/47
f 317/535/16 365/536/48 316/533/48
f 318/537/49 384/538/16 317/535/16
f 319/539/50 383/540/49 318/537/49
f 320/541/51 382/542/50 319/539/50
f 321/543/52 381/544/51 320/541/51
f 322/545/23 380/546/52 321/543/52
f 303/509/38 379/547/23 322/545/23
f 304/548/21 303/549/21 343/550/21
f 305/551/21 304/548/21 343/550/21
f 306/552/21 305/551/21 343/550/21
f 307/553/21 306/552/21 343/550/21
f 308/554/21 307/553/21 343/550/21
f 309/555/21 308/554/21 343/550/21
f 310/556/21 309/555/21 343/550/21
f 311/557/21 310/556/21 343/550/21
f 312/558/21 311/557/21 343/550/21
f 313/559/21 312/558/21 343/550/21
f 314/560/21 313/559/21 343/550/21
f 315/561/21 314/560/21 343/550/21
f 316/562/21 315/561/21 343/550/21
f 317/563/21 316/562/21 343/550/21
f 318/564/21 317/563/21 343/550/21
f 319/565/21 318/564/21 343/550/21
f 320/566/21 319/565/21 343/550/21
f 321/567/21 320/566/21 343/550/21
f 322/568/21 321/567/21 343/550/21
f 303/549/21 322/568/21 343/550/21
f 323/569/22 324/570/22 344/571/22
f 324/570/22 325/572/22 344/571/22
f 325/572/22 326/573/22 344/571/22
f 326/573/22 327/574/22 344/571/22
f 327/574/22 328/575/22 344/571/22
f 328/575/22 329/576/22 344/571/22
f 329/576/22 330/577/22 344/571/22
f 330/577/22 331/578/22 344/571/22
f 331/578/22 332/579/22 344/571/22
f 332/579/22 333/580/22 344/571/22
f 333/580/22 334/581/22 344/571/22
f 334/581/22 335/582/22 344/571/22
f 335/582/22 336/583/22 344/571/22
f 336/583/22 337/584/22 344/571/22
f 337/584/22 338/585/22 344/571/22
f 338/585/22 339/586/22 344/571/22
f 339/586/22 340/587/22 344/571/22
f 340/587/22 341/588/22 344/571/22
f 341/588/22 342/589/22 344/571/22
f 342/589/22 323/569/22 344/571/22
f 345/590/48 335/591/47 346/592/47
f 346/592/47 334/593/46 347/594/46
f 347/594/46 333/595/45 348/596/45
f 348/596/45 332/597/7 349/598/7
f 349/598/7 331/599/44 350/600/44
f 350/600/44 330/601/43 351/602/43
f 351/602/43 329/603/42 352/604/42
f 352/604/42 328/605/41 353/606/41
f 353/606/41 327/607/19 354/608/19
f 354/608/19 326/609/40 355/610/40
f 355/611/40 325/612/39 356/613/39
f 356/613/39 324/614/37 357/615/37
f 357/615/37 323/616/38 358/617/38
f 358/617/38 342/618/23 359/619/23
f 359/619/23 341/620/52 360/621/52
f 360/621/52 340/622/51 361/623/51
f 361/623/51 339/624/50 362/625/50
f 362/625/50 338/626/49 363/627/49
f 363/627/49 337/628/16 364/629/16
f 364/629/16 336/630/48 345/590/48
f 424/631/47 385/632/48 386/633/47
f 424/631/47 387/634/46 423/635/46
f 423/635/46 388/636/45 422/637/45
f 422/637/45 389/638/7 421/639/7
f 421/639/7 390/640/44 420/641/44
f 420/641/44 391/642/43 419/643/43
f 419/643/43 392/644/42 418/645/42
f 418/645/42 393/646/41 417/647/41
f 417/647/41 394/648/19 416/649/19
f 415/650/40 394/648/19 395/651/40
f 415/652/40 396/653/39 414/654/39
f 414/654/39 397/655/37 413/656/37
f 413/656/37 398/657/38 412/658/38
f 412/658/38 399/659/23 411/660/23
f 411/660/23 400/661/52 410/662/52
f 410/662/52 401/663/51 409/664/51
f 409/664/51 402/665/50 408/666/50
f 408/666/50 403/667/49 407/668/49
f 407/668/49 404/669/16 406/670/16
f 406/670/16 385/632/48 405/671/48
f 385/672/22 426/673/22 386/674/22
f 387/675/22 426/673/22 427/676/22
f 388/677/22 427/676/22 428/678/22
f 388/677/22 429/679/22 389/680/22
f 390/681/22 429/679/22 430/682/22
f 390/681/22 431/683/22 391/684/22
f 391/684/22 432/685/22 392/686/22
f 393/687/22 432/685/22 433/688/22
f 393/687/22 434/689/22 394/690/22
f 395/691/22 434/689/22 435/692/22
f 396/693/22 435/692/22 436/694/22
f 396/693/22 437/695/22 397/696/22
f 397/696/22 438/697/22 398/698/22
f 399/699/22 438/697/22 439/700/22
f 399/699/22 440/701/22 400/702/22
f 401/703/22 440/701/22 441/704/22
f 401/703/22 442/705/22 402/706/22
f 402/706/22 443/707/22 403/708/22
f 404/709/22 443/707/22 444/710/22
f 404/709/22 425/711/22 385/672/22
f 345/712/21 446/713/21 445/714/21
f 347/715/21 446/713/21 346/716/21
f 348/717/21 447/718/21 347/715/21
f 349/719/21 448/720/21 348/717/21
f 349/719/21 450/721/21 449/722/21
f 350/723/21 451/724/21 450/721/21
f 352/725/21 451/724/21 351/726/21
f 353/727/21 452/728/21 352/725/21
f 353/727/21 454/729/21 453/730/21
f 354/731/21 455/732/21 454/729/21
f 356/733/21 455/732/21 355/734/21
f 356/733/21 457/735/21 456/736/21
f 357/737/21 458/738/21 457/735/21
f 359/739/21 458/738/21 358/740/21
f 360/741/21 459/742/21 359/739/21
f 361/743/21 460/744/21 360/741/21
f 361/743/21 462/745/21 461/746/21
f 363/747/21 462/745/21 362/748/21
f 364/749/21 463/750/21 363/747/21
f 364/749/21 445/714/21 464/751/21
f 406/752/21 465/753/21 466/754/21
f 406/752/21 467/755/21 407/756/21
f 407/756/21 468/757/21 408/758/21
f 408/758/21 469/759/21 409/760/21
f 409/760/21 470/761/21 410/762/21
f 411/763/21 470/761/21 471/764/21
f 411/763/21 472/765/21 412/766/21
f 413/767/21 472/765/21 473/768/21
f 414/769/21 473/768/21 474/770/21
f 414/769/21 475/771/21 415/772/21
f 416/773/21 475/771/21 476/774/21
f 416/773/21 477/775/21 417/776/21
f 417/776/21 478/777/21 418/778/21
f 419/779/21 478/777/21 479/780/21
f 419/779/21 480/781/21 420/782/21
f 421/783/21 480/781/21 481/784/21
f 422/785/21 481/784/21 482/786/21
f 423/787/21 482/786/21 483/788/21
f 423/787/21 484/789/21 424/790/21
f 405/791/21 484/789/21 465/753/21
f 365/792/22 486/793/22 366/794/22
f 367/795/22 486/793/22 487/796/22
f 367/795/22 488/797/22 368/798/22
f 368/798/22 489/799/22 369/800/22
f 369/800/22 490/801/22 370/802/22
f 370/802/22 491/803/22 371/804/22
f 371/804/22 492/805/22 372/806/22
f 373/807/22 492/805/22 493/808/22
f 374/809/22 493/808/22 494/810/22
f 374/809/22 495/811/22 375/812/22
f 376/813/22 495/811/22 496/814/22
f 376/813/22 497/815/22 377/816/22
f 377/816/22 498/817/22 378/818/22
f 379/819/22 498/817/22 499/820/22
f 380/821/22 499/820/22 500/822/22
f 381/823/22 500/822/22 501/824/22
f 381/823/22 502/825/22 382/826/22
f 383/827/22 502/825/22 503/828/22
f 384/829/22 503/828/22 504/830/22
f 384/829/22 485/831/22 365/792/22
f 506/832/53 626/833/54 505/834/55
f 507/835/56 627/836/57 506/832/53
f 508/837/58 628/838/59 507/835/56
f 509/839/19 629/840/60 508/837/58
f 510/841/61 630/842/62 509/839/19
f 511/843/63 631/844/64 510/841/61
f 512/845/65 632/846/66 511/843/63
f 513/847/67 633/848/68 512/845/65
f 514/849/22 634/850/69 513/847/67
f 515/851/70 635/852/71 514/849/22
f 516/853/72 636/854/73 515/851/70
f 517/855/74 637/856/75 516/853/72
f 518/857/76 638/858/77 517/855/74
f 519/859/16 639/860/78 518/857/76
f 519/861/16 641/862/79 640/863/80
f 521/864/81 641/862/79 520/865/82
f 522/866/83 642/867/84 521/864/81
f 523/868/85 643/869/86 522/866/83
f 524/870/21 644/871/87 523/868/85
f 505/834/55 645/872/88 524/870/21
f 525/873/89 546/874/90 545/875/91
f 526/876/92 547/877/93 546/874/90
f 527/878/94 548/879/95 547/877/93
f 529/880/96 548/879/95 528/881/97
f 529/880/96 550/882/98 549/883/99
f 530/884/100 551/885/101 550/882/98
f 531/886/102 552/887/103 551/885/101
f 533/888/104 552/887/103 532/889/105
f 533/888/104 554/890/106 553/891/107
f 535/892/108 554/890/106 534/893/109
f 535/892/108 556/894/110 555/895/111
f 536/896/112 557/897/113 556/894/110
f 538/898/114 557/897/113 537/899/115
f 538/898/114 559/900/116 558/901/117
f 539/902/118 560/903/119 559/900/116
f 541/904/120 560/903/119 540/905/121
f 541/904/120 562/906/122 561/907/123
f 542/908/124 563/909/125 562/906/122
f 543/910/126 564/911/127 563/909/125
f 525/873/89 564/911/127 544/912/128
f 545/875/91 566/913/129 565/914/130
f 546/874/90 567/915/131 566/913/129
f 548/879/95 567/915/131 547/877/93
f 548/879/95 569/916/132 568/917/133
f 549/883/99 570/918/134 569/916/132
f 551/885/101 570/918/134 550/882/98
f 551/885/101 572/919/135 571/920/136
f 553/891/107 572/919/135 552/887/103
f 553/891/107 574/921/137 573/922/138
f 554/890/106 575/923/139 574/921/137
f 556/894/110 575/923/139 555/895/111
f 557/897/113 576/924/140 556/894/110
f 557/897/113 578/925/141 577/926/142
f 559/900/116 578/925/141 558/901/117
f 559/900/116 580/927/143 579/928/144
f 560/903/119 581/929/145 580/927/143
f 562/906/122 581/929/145 561/907/123
f 563/909/125 582/930/146 562/906/122
f 563/909/125 584/931/147 583/932/148
f 564/911/127 565/914/130 584/931/147
f 566/913/129 585/933/149 565/914/130
f 567/915/131 586/934/150 566/913/129
f 568/917/133 587/935/151 567/915/131
f 569/916/132 588/936/152 568/917/133
f 569/916/132 590/937/153 589/938/154
f 570/918/134 591/939/155 590/937/153
f 571/920/136 592/940/156 591/939/155
f 573/922/138 592/940/156 572/919/135
f 573/922/138 594/941/157 593/942/158
f 575/923/139 594/941/157 574/921/137
f 575/923/139 596/943/159 595/944/160
f 577/926/142 596/943/159 576/924/140
f 578/925/141 597/945/161 577/926/142
f 579/928/144 598/946/162 578/925/141
f 580/927/143 599/947/163 579/928/144
f 580/927/143 601/948/164 600/949/165
f 581/929/145 602/950/166 601/948/164
f 583/932/148 602/950/166 582/930/146
f 584/931/147 603/951/167 583/932/148
f 584/931/147 585/933/149 604/952/168
f 585/933/149 606/953/169 605/954/170
f 587/935/151 606/953/169 586/934/150
f 588/936/152 607/955/171 587/935/151
f 589/938/154 608/956/172 588/936/152
f 589/938/154 610/957/173 609/958/174
f 590/937/153 611/959/175 610/957/173
f 591/939/155 612/960/176 611/959/175
f 593/942/158 612/960/176 592/940/156
f 593/942/158 614/961/177 613/962/178
f 595/944/160 614/961/177 594/941/157
f 595/944/160 616/963/179 615/964/180
f 597/945/161 616/963/179 596/943/159
f 598/946/162 617/965/181 597/945/161
f 599/947/163 618/966/182 598/946/162
f 599/947/163 620/967/183 619/968/184
f 600/949/165 621/969/185 620/967/183
f 601/948/164 622/970/186 621/969/185
f 603/951/167 622/970/186 602/950/166
f 603/951/167 624/971/187 623/972/188
f 585/933/149 624/971/187 604/952/168
f 605/954/170 606/953/169 625/973/23
f 606/953/169 607/955/171 625/973/23
f 607/955/171 608/956/172 625/973/23
f 608/956/172 609/958/174 625/973/23
f 609/958/174 610/957/173 625/973/23
f 610/957/173 611/959/175 625/973/23
f 611/959/175 612/960/176 625/973/23
f 612/960/176 613/962/178 625/973/23
f 613/962/178 614/961/177 625/973/23
f 614/961/177 615/964/180 625/973/23
f 615/964/180 616/963/179 625/973/23
f 616/963/179 617/965/181 625/973/23
f 617/965/181 618/966/182 625/973/23
f 618/966/182 619/968/184 625/973/23
f 619/968/184 620/967/183 625/973/23
f 620/967/183 621/969/185 625/973/23
f 621/969/185 622/970/186 625/973/23
f 622/970/186 623/972/188 625/973/23
f 623/972/188 624/971/187 625/973/23
f 624/971/187 605/954/170 625/973/23
f 666/974/189 669/975/190 667/976/191
f 670/977/192 668/978/193 666/974/189
f 672/979/194 671/980/195 670/977/192
f 674/981/196 673/982/197 672/979/194
f 676/983/198 675/984/199 674/981/196
f 678/985/200 677/986/201 676/983/198
f 680/987/202 679/988/203 678/985/200
f 682/989/204 681/990/205 680/987/202
f 684/991/206 683/992/207 682/989/204
f 686/993/208 685/994/209 684/991/206
f 688/995/210 687/996/211 686/993/208
f 690/997/212 689/998/213 688/995/210
f 692/999/214 691/1000/215 690/997/212
f 694/1001/216 693/1002/217 692/999/214
f 696/1003/218 695/1004/219 694/1005/216
f 698/1006/220 697/1007/221 696/1003/218
f 700/1008/222 699/1009/223 698/1006/220
f 702/1010/224 701/1011/225 700/1008/222
f 704/1012/226 703/1013/227 702/1010/224
f 704/1012/226 669/975/190 705/1014/228
f 647/1015/229 525/1016/89 646/1017/230
f 648/1018/231 526/1019/92 647/1015/229
f 649/1020/232 527/1021/94 648/1018/231
f 649/1020/232 529/1022/96 528/1023/97
f 651/1024/233 529/1022/96 650/1025/234
f 652/1026/235 530/1027/100 651/1024/233
f 653/1028/236 531/1029/102 652/1026/235
f 654/1030/237 532/1031/105 653/1028/236
f 655/1032/238 533/1033/104 654/1030/237
f 656/1034/239 534/1035/109 655/1032/238
f 657/1036/240 535/1037/108 656/1034/239
f 658/1038/241 536/1039/112 657/1036/240
f 659/1040/242 537/1041/115 658/1038/241
f 660/1042/243 538/1043/114 659/1040/242
f 661/1044/244 539/1045/118 660/1046/243
f 662/1047/245 540/1048/121 661/1044/244
f 663/1049/246 541/1050/120 662/1047/245
f 664/1051/247 542/1052/124 663/1049/246
f 665/1053/248 543/1054/126 664/1051/247
f 646/1017/230 544/1055/128 665/1053/248
f 626/1056/54 666/1057/189 667/1058/191
f 647/1059/229 669/1060/190 668/1061/193
f 628/1062/59 666/1057/189 627/1063/57
f 647/1059/229 671/1064/195 648/1065/231
f 629/1066/60 670/1067/192 628/1062/59
f 649/1068/232 671/1064/195 673/1069/197
f 630/1070/62 672/1071/194 629/1066/60
f 650/1072/234 673/1069/197 675/1073/199
f 630/1070/62 676/1074/198 674/1075/196
f 650/1072/234 677/1076/201 651/1077/233
f 631/1078/64 678/1079/200 676/1074/198
f 652/1080/235 677/1076/201 679/1081/203
f 632/1082/66 680/1083/202 678/1079/200
f 653/1084/236 679/1081/203 681/1085/205
f 634/1086/69 680/1083/202 633/1087/68
f 653/1084/236 683/1088/207 654/1089/237
f 634/1086/69 684/1090/206 682/1091/204
f 654/1089/237 685/1092/209 655/1093/238
f 636/1094/73 684/1090/206 635/1095/71
f 656/1096/239 685/1092/209 687/1097/211
f 637/1098/75 686/1099/208 636/1094/73
f 656/1096/239 689/1100/213 657/1101/240
f 638/1102/77 688/1103/210 637/1098/75
f 658/1104/241 689/1100/213 691/1105/215
f 639/1106/78 690/1107/212 638/1102/77
f 659/1108/242 691/1105/215 693/1109/217
f 639/1106/78 694/1110/216 692/1111/214
f 660/1112/243 693/1109/217 695/1113/219
f 641/1114/79 694/1110/216 640/1115/80
f 660/1112/243 697/1116/221 661/1117/244
f 641/1114/79 698/1118/220 696/1119/218
f 661/1117/244 699/1120/223 662/1121/245
f 643/1122/86 698/1118/220 642/1123/84
f 662/1121/245 701/1124/225 663/1125/246
f 644/1126/87 700/1127/222 643/1122/86
f 664/1128/247 701/1124/225 703/1129/227
f 644/1126/87 704/1130/226 702/1131/224
f 664/1128/247 705/1132/228 665/1133/248
f 626/1056/54 704/1130/226 645/1134/88
f 646/1135/230 705/1132/228 669/1060/190
f 66/1/1 67/125/2 3/2/2
f 72/4/4 70/1136/5 78/5/5
f 34/7/7 47/109/7 48/8/7
f 19/10/8 16/26/9 4/11/9
f 24/13/11 17/1137/249 3/14/12
f 23/16/13 9/25/12 5/17/12
f 40/19/7 41/102/7 42/20/7
f 20/22/15 21/31/18 6/23/9
f 23/16/13 24/13/11 13/15/12
f 16/26/9 19/10/8 20/22/15
f 17/3/3 25/38/16 65/27/16
f 27/28/17 19/10/8 18/12/10
f 20/22/15 28/42/17 29/30/17
f 71/32/19 72/4/4 79/6/6
f 31/34/20 23/16/13 22/18/14
f 25/36/20 17/1137/249 24/13/11
f 25/38/16 1/94/16 33/39/16
f 15/40/21 27/28/17 26/29/17
f 28/42/17 11/106/21 8/43/21
f 40/44/19 71/32/19 80/33/19
f 10/46/22 31/34/20 30/35/20
f 1/48/22 25/36/20 32/37/20
f 45/50/7 36/69/7 37/51/7
f 42/53/16 43/57/16 38/54/16
f 44/56/16 37/1138/16 38/54/16
f 45/58/19 46/62/19 35/59/19
f 47/61/19 34/66/19 35/59/19
f 50/63/7 51/1139/7 52/64/7
f 34/66/19 14/92/19 32/67/19
f 35/59/19 32/67/19 24/68/19
f 36/69/7 24/1140/7 23/70/7
f 38/54/16 37/1138/16 23/71/16
f 39/55/16 38/54/16 31/72/16
f 54/74/7 55/1141/7 56/75/7
f 57/77/7 59/1142/7 60/78/7
f 28/80/16 43/57/16 42/53/16
f 20/82/16 44/56/16 43/57/16
f 19/83/7 45/50/7 44/52/7
f 19/85/19 27/87/19 46/62/19
f 15/86/19 47/61/19 46/62/19
f 61/88/7 63/1143/7 64/89/7
f 34/66/19 50/1144/19 49/91/19
f 33/9/21 51/1145/21 50/93/21
f 1/94/16 52/1146/16 51/95/16
f 14/49/22 49/1147/22 52/96/22
f 40/44/19 54/1148/19 53/97/19
f 39/21/21 55/1149/21 54/99/21
f 10/73/16 56/1150/16 55/100/16
f 7/47/22 53/1151/22 56/101/22
f 41/102/22 57/1152/22 58/103/22
f 8/104/19 59/1153/19 57/105/19
f 11/106/21 60/1154/21 59/107/21
f 42/53/16 58/1155/16 60/108/16
f 47/109/22 61/1156/22 62/110/22
f 15/86/19 63/1157/19 61/111/19
f 2/41/21 64/1158/21 63/112/21
f 48/113/16 62/1159/16 64/114/16
f 9/116/23 69/120/23 70/117/23
f 13/119/23 68/122/23 69/120/23
f 3/121/23 67/126/23 68/122/23
f 33/39/16 48/113/16 73/123/16
f 65/27/16 73/123/16 74/124/1
f 74/124/1 75/1160/2 67/125/2
f 67/126/23 75/136/23 76/127/23
f 68/122/23 76/127/23 77/128/23
f 69/120/23 77/128/23 78/129/23
f 40/44/19 7/98/19 30/130/19
f 22/131/24 72/4/4 71/32/19
f 5/132/5 70/1136/5 72/4/4
f 48/113/16 2/115/16 26/133/16
f 73/123/16 26/133/16 18/134/25
f 4/135/2 75/1160/2 74/124/1
f 75/136/23 4/1161/23 16/137/23
f 76/127/23 16/137/23 12/138/23
f 77/128/23 12/138/23 6/139/23
f 79/6/6 78/5/5 6/140/5
f 80/33/19 79/6/6 21/141/26
f 41/45/19 80/33/19 29/142/19
f 82/143/7 81/1162/7 83/144/7
f 82/146/27 86/178/27 85/147/27
f 84/149/21 87/180/21 86/150/21
f 87/152/28 84/1163/28 83/153/28
f 85/155/22 88/181/22 83/156/22
f 98/158/29 90/164/30 89/159/30
f 100/161/32 92/166/33 91/162/33
f 90/164/16 94/1164/16 93/165/16
f 92/166/19 96/175/19 95/167/19
f 93/168/22 96/1165/22 92/169/22
f 100/171/22 97/1166/22 89/170/22
f 90/172/21 91/177/21 95/173/21
f 93/165/23 94/1164/23 95/167/23
f 90/172/21 98/179/21 99/176/21
f 86/178/35 98/158/29 97/160/31
f 98/179/21 86/150/21 87/180/21
f 88/154/36 100/161/32 99/163/34
f 85/155/22 97/1166/22 100/171/22
f 102/182/37 175/186/37 176/183/38
f 103/185/39 174/188/39 175/186/37
f 104/187/40 173/190/40 174/188/39
f 105/189/19 172/192/19 173/190/40
f 106/191/41 171/194/41 172/192/19
f 107/193/42 170/196/42 171/194/41
f 108/195/43 169/198/43 170/196/42
f 109/197/44 168/200/44 169/198/43
f 110/199/7 167/202/7 168/200/44
f 111/201/45 166/204/45 167/202/7
f 112/203/46 165/206/46 166/204/45
f 113/205/47 164/208/47 165/206/46
f 114/207/48 163/210/48 164/208/47
f 115/209/16 182/212/16 163/210/48
f 116/211/49 181/1167/49 182/212/16
f 116/213/49 117/217/50 180/214/50
f 118/216/51 179/219/51 180/214/50
f 119/218/52 178/221/52 179/219/51
f 120/220/23 177/222/23 178/221/52
f 101/184/38 176/183/38 177/222/23
f 143/265/48 134/305/48 133/266/47
f 144/267/47 133/266/47 132/268/46
f 145/269/46 132/268/46 131/270/45
f 146/271/45 131/270/45 130/272/7
f 147/273/7 130/272/7 129/274/44
f 148/275/44 129/274/44 128/276/43
f 149/277/43 128/276/43 127/278/42
f 150/279/42 127/278/42 126/280/41
f 151/281/41 126/280/41 125/282/19
f 152/283/19 125/282/19 124/284/40
f 153/285/40 124/284/40 123/286/39
f 154/287/39 123/286/39 122/288/37
f 155/289/37 122/288/37 121/290/38
f 156/291/38 121/290/38 140/292/23
f 157/293/23 140/292/23 139/294/52
f 158/295/52 139/294/52 138/296/51
f 159/297/51 138/296/51 137/298/50
f 160/299/50 137/298/50 136/300/49
f 161/302/49 136/1168/49 135/303/16
f 162/304/16 135/303/16 134/305/48
f 222/306/47 203/346/48 183/307/48
f 222/306/47 184/308/47 185/309/46
f 221/310/46 185/309/46 186/311/45
f 220/312/45 186/311/45 187/313/7
f 219/314/7 187/313/7 188/315/44
f 217/317/43 218/316/44 188/315/44
f 217/317/43 189/318/43 190/319/42
f 216/320/42 190/319/42 191/321/41
f 215/322/41 191/321/41 192/323/19
f 213/325/40 214/324/19 192/323/19
f 213/325/40 193/326/40 194/327/39
f 212/328/39 194/327/39 195/329/37
f 211/330/37 195/329/37 196/331/38
f 210/332/38 196/331/38 197/333/23
f 209/334/23 197/333/23 198/335/52
f 208/336/52 198/335/52 199/337/51
f 207/338/51 199/337/51 200/339/50
f 206/340/50 200/339/50 201/341/49
f 205/343/49 201/1169/49 202/344/16
f 204/345/16 202/344/16 183/307/48
f 183/347/22 223/386/22 224/348/22
f 185/350/22 184/349/22 224/348/22
f 186/352/22 185/350/22 225/351/22
f 186/352/22 226/353/22 227/354/22
f 188/356/22 187/355/22 227/354/22
f 188/356/22 228/357/22 229/358/22
f 189/359/22 229/358/22 230/360/22
f 191/362/22 190/361/22 230/360/22
f 191/362/22 231/363/22 232/364/22
f 193/366/22 192/365/22 232/364/22
f 194/368/22 193/366/22 233/367/22
f 194/368/22 234/369/22 235/370/22
f 195/371/22 235/370/22 236/372/22
f 197/374/22 196/373/22 236/372/22
f 197/374/22 237/375/22 238/376/22
f 199/378/22 198/377/22 238/376/22
f 199/378/22 239/379/22 240/380/22
f 200/381/22 240/380/22 241/382/22
f 202/384/22 201/383/22 241/382/22
f 202/384/22 242/385/22 223/386/22
f 143/387/21 144/391/21 244/388/21
f 145/390/21 245/393/21 244/388/21
f 146/392/21 246/395/21 245/393/21
f 147/394/21 247/397/21 246/395/21
f 147/394/21 148/398/21 248/396/21
f 148/398/21 149/401/21 249/399/21
f 150/400/21 250/403/21 249/399/21
f 151/402/21 251/405/21 250/403/21
f 151/402/21 152/406/21 252/404/21
f 152/406/21 153/409/21 253/407/21
f 154/408/21 254/411/21 253/407/21
f 154/408/21 155/412/21 255/410/21
f 155/412/21 156/415/21 256/413/21
f 157/414/21 257/417/21 256/413/21
f 158/416/21 258/419/21 257/417/21
f 159/418/21 259/421/21 258/419/21
f 159/418/21 160/423/21 260/420/21
f 161/422/21 261/425/21 260/420/21
f 162/424/21 262/426/21 261/425/21
f 162/424/21 143/387/21 243/389/21
f 204/427/21 203/466/21 263/428/21
f 204/427/21 264/429/21 265/430/21
f 205/431/21 265/430/21 266/432/21
f 206/433/21 266/432/21 267/434/21
f 207/435/21 267/434/21 268/436/21
f 209/438/21 208/437/21 268/436/21
f 209/438/21 269/439/21 270/440/21
f 211/442/21 210/441/21 270/440/21
f 212/444/21 211/442/21 271/443/21
f 212/444/21 272/445/21 273/446/21
f 214/448/21 213/447/21 273/446/21
f 214/448/21 274/449/21 275/450/21
f 215/451/21 275/450/21 276/452/21
f 217/454/21 216/453/21 276/452/21
f 217/454/21 277/455/21 278/456/21
f 219/458/21 218/457/21 278/456/21
f 220/460/21 219/458/21 279/459/21
f 221/462/21 220/460/21 280/461/21
f 221/462/21 281/463/21 282/464/21
f 203/466/21 222/465/21 282/464/21
f 163/467/22 283/506/22 284/468/22
f 165/470/22 164/469/22 284/468/22
f 165/470/22 285/471/22 286/472/22
f 166/473/22 286/472/22 287/474/22
f 167/475/22 287/474/22 288/476/22
f 168/477/22 288/476/22 289/478/22
f 169/479/22 289/478/22 290/480/22
f 171/482/22 170/481/22 290/480/22
f 172/484/22 171/482/22 291/483/22
f 172/484/22 292/485/22 293/486/22
f 174/488/22 173/487/22 293/486/22
f 174/488/22 294/489/22 295/490/22
f 175/491/22 295/490/22 296/492/22
f 177/494/22 176/493/22 296/492/22
f 178/496/22 177/494/22 297/495/22
f 179/498/22 178/496/22 298/497/22
f 179/498/22 299/499/22 300/500/22
f 181/502/22 180/501/22 300/500/22
f 182/504/22 181/502/22 301/503/22
f 182/504/22 302/505/22 283/506/22
f 304/507/37 377/511/37 378/508/38
f 305/510/39 376/513/39 377/511/37
f 306/512/40 375/1170/40 376/513/39
f 307/514/19 374/518/19 375/515/40
f 308/517/41 373/520/41 374/518/19
f 309/519/42 372/522/42 373/520/41
f 310/521/43 371/524/43 372/522/42
f 311/523/44 370/526/44 371/524/43
f 312/525/7 369/528/7 370/526/44
f 313/527/45 368/530/45 369/528/7
f 314/529/46 367/532/46 368/530/45
f 315/531/47 366/534/47 367/532/46
f 316/533/48 365/536/48 366/534/47
f 317/535/16 384/538/16 365/536/48
f 318/537/49 383/540/49 384/538/16
f 319/539/50 382/542/50 383/540/49
f 320/541/51 381/544/51 382/542/50
f 321/543/52 380/546/52 381/544/51
f 322/545/23 379/547/23 380/546/52
f 303/509/38 378/508/38 379/547/23
f 345/590/48 336/630/48 335/591/47
f 346/592/47 335/591/47 334/593/46
f 347/594/46 334/593/46 333/595/45
f 348/596/45 333/595/45 332/597/7
f 349/598/7 332/597/7 331/599/44
f 350/600/44 331/599/44 330/601/43
f 351/602/43 330/601/43 329/603/42
f 352/604/42 329/603/42 328/605/41
f 353/606/41 328/605/41 327/607/19
f 354/608/19 327/607/19 326/609/40
f 355/611/40 326/1171/40 325/612/39
f 356/613/39 325/612/39 324/614/37
f 357/615/37 324/614/37 323/616/38
f 358/617/38 323/616/38 342/618/23
f 359/619/23 342/618/23 341/620/52
f 360/621/52 341/620/52 340/622/51
f 361/623/51 340/622/51 339/624/50
f 362/625/50 339/624/50 338/626/49
f 363/627/49 338/626/49 337/628/16
f 364/629/16 337/628/16 336/630/48
f 424/631/47 405/671/48 385/632/48
f 424/631/47 386/633/47 387/634/46
f 423/635/46 387/634/46 388/636/45
f 422/637/45 388/636/45 389/638/7
f 421/639/7 389/638/7 390/640/44
f 420/641/44 390/640/44 391/642/43
f 419/643/43 391/642/43 392/644/42
f 418/645/42 392/644/42 393/646/41
f 417/647/41 393/646/41 394/648/19
f 415/650/40 416/649/19 394/648/19
f 415/652/40 395/1172/40 396/653/39
f 414/654/39 396/653/39 397/655/37
f 413/656/37 397/655/37 398/657/38
f 412/658/38 398/657/38 399/659/23
f 411/660/23 399/659/23 400/661/52
f 410/662/52 400/661/52 401/663/51
f 409/664/51 401/663/51 402/665/50
f 408/666/50 402/665/50 403/667/49
f 407/668/49 403/667/49 404/669/16
f 406/670/16 404/669/16 385/632/48
f 385/672/22 425/711/22 426/673/22
f 387/675/22 386/674/22 426/673/22
f 388/677/22 387/675/22 427/676/22
f 388/677/22 428/678/22 429/679/22
f 390/681/22 389/680/22 429/679/22
f 390/681/22 430/682/22 431/683/22
f 391/684/22 431/683/22 432/685/22
f 393/687/22 392/686/22 432/685/22
f 393/687/22 433/688/22 434/689/22
f 395/691/22 394/690/22 434/689/22
f 396/693/22 395/691/22 435/692/22
f 396/693/22 436/694/22 437/695/22
f 397/696/22 437/695/22 438/697/22
f 399/699/22 398/698/22 438/697/22
f 399/699/22 439/700/22 440/701/22
f 401/703/22 400/702/22 440/701/22
f 401/703/22 441/704/22 442/705/22
f 402/706/22 442/705/22 443/707/22
f 404/709/22 403/708/22 443/707/22
f 404/709/22 444/710/22 425/711/22
f 345/712/21 346/716/21 446/713/21
f 347/715/21 447/718/21 446/713/21
f 348/717/21 448/720/21 447/718/21
f 349/719/21 449/722/21 448/720/21
f 349/719/21 350/723/21 450/721/21
f 350/723/21 351/726/21 451/724/21
f 352/725/21 452/728/21 451/724/21
f 353/727/21 453/730/21 452/728/21
f 353/727/21 354/731/21 454/729/21
f 354/731/21 355/734/21 455/732/21
f 356/733/21 456/736/21 455/732/21
f 356/733/21 357/737/21 457/735/21
f 357/737/21 358/740/21 458/738/21
f 359/739/21 459/742/21 458/738/21
f 360/741/21 460/744/21 459/742/21
f 361/743/21 461/746/21 460/744/21
f 361/743/21 362/748/21 462/745/21
f 363/747/21 463/750/21 462/745/21
f 364/749/21 464/751/21 463/750/21
f 364/749/21 345/712/21 445/714/21
f 406/752/21 405/791/21 465/753/21
f 406/752/21 466/754/21 467/755/21
f 407/756/21 467/755/21 468/757/21
f 408/758/21 468/757/21 469/759/21
f 409/760/21 469/759/21 470/761/21
f 411/763/21 410/762/21 470/761/21
f 411/763/21 471/764/21 472/765/21
f 413/767/21 412/766/21 472/765/21
f 414/769/21 413/767/21 473/768/21
f 414/769/21 474/770/21 475/771/21
f 416/773/21 415/772/21 475/771/21
f 416/773/21 476/774/21 477/775/21
f 417/776/21 477/775/21 478/777/21
f 419/779/21 418/778/21 478/777/21
f 419/779/21 479/780/21 480/781/21
f 421/783/21 420/782/21 480/781/21
f 422/785/21 421/783/21 481/784/21
f 423/787/21 422/785/21 482/786/21
f 423/787/21 483/788/21 484/789/21
f 405/791/21 424/790/21 484/789/21
f 365/792/22 485/831/22 486/793/22
f 367/795/22 366/794/22 486/793/22
f 367/795/22 487/796/22 488/797/22
f 368/798/22 488/797/22 489/799/22
f 369/800/22 489/799/22 490/801/22
f 370/802/22 490/801/22 491/803/22
f 371/804/22 491/803/22 492/805/22
f 373/807/22 372/806/22 492/805/22
f 374/809/22 373/807/22 493/808/22
f 374/809/22 494/810/22 495/811/22
f 376/813/22 375/812/22 495/811/22
f 376/813/22 496/814/22 497/815/22
f 377/816/22 497/815/22 498/817/22
f 379/819/22 378/818/22 498/817/22
f 380/821/22 379/819/22 499/820/22
f 381/823/22 380/821/22 500/822/22
f 381/823/22 501/824/22 502/825/22
f 383/827/22 382/826/22 502/825/22
f 384/829/22 383/827/22 503/828/22
f 384/829/22 504/830/22 485/831/22
f 506/832/53 627/836/57 626/833/54
f 507/835/56 628/838/59 627/836/57
f 508/837/58 629/840/60 628/838/59
f 509/839/19 630/842/62 629/840/60
f 510/841/61 631/844/64 630/842/62
f 511/843/63 632/846/66 631/844/64
f 512/845/65 633/848/68 632/846/66
f 513/847/67 634/850/69 633/848/68
f 514/849/22 635/852/71 634/850/69
f 515/851/70 636/854/73 635/852/71
f 516/853/72 637/856/75 636/854/73
f 517/855/74 638/858/77 637/856/75
f 518/857/76 639/860/78 638/858/77
f 519/859/16 640/1173/80 639/860/78
f 519/861/16 520/865/82 641/862/79
f 521/864/81 642/867/84 641/862/79
f 522/866/83 643/869/86 642/867/84
f 523/868/85 644/871/87 643/869/86
f 524/870/21 645/872/88 644/871/87
f 505/834/55 626/833/54 645/872/88
f 525/873/89 526/876/92 546/874/90
f 526/876/92 527/878/94 547/877/93
f 527/878/94 528/881/97 548/879/95
f 529/880/96 549/883/99 548/879/95
f 529/880/96 530/884/100 550/882/98
f 530/884/100 531/886/102 551/885/101
f 531/886/102 532/889/105 552/887/103
f 533/888/104 553/891/107 552/887/103
f 533/888/104 534/893/109 554/890/106
f 535/892/108 555/895/111 554/890/106
f 535/892/108 536/896/112 556/894/110
f 536/896/112 537/899/115 557/897/113
f 538/898/114 558/901/117 557/897/113
f 538/898/114 539/902/118 559/900/116
f 539/902/118 540/905/121 560/903/119
f 541/904/120 561/907/123 560/903/119
f 541/904/120 542/908/124 562/906/122
f 542/908/124 543/910/126 563/909/125
f 543/910/126 544/912/128 564/911/127
f 525/873/89 545/875/91 564/911/127
f 545/875/91 546/874/90 566/913/129
f 546/874/90 547/877/93 567/915/131
f 548/879/95 568/917/133 567/915/131
f 548/879/95 549/883/99 569/916/132
f 549/883/99 550/882/98 570/918/134
f 551/885/101 571/920/136 570/918/134
f 551/885/101 552/887/103 572/919/135
f 553/891/107 573/922/138 572/919/135
f 553/891/107 554/890/106 574/921/137
f 554/890/106 555/895/111 575/923/139
f 556/894/110 576/924/140 575/923/139
f 557/897/113 577/926/142 576/924/140
f 557/897/113 558/901/117 578/925/141
f 559/900/116 579/928/144 578/925/141
f 559/900/116 560/903/119 580/927/143
f 560/903/119 561/907/123 581/929/145
f 562/906/122 582/930/146 581/929/145
f 563/909/125 583/932/148 582/930/146
f 563/909/125 564/911/127 584/931/147
f 564/911/127 545/875/91 565/914/130
f 566/913/129 586/934/150 585/933/149
f 567/915/131 587/935/151 586/934/150
f 568/917/133 588/936/152 587/935/151
f 569/916/132 589/938/154 588/936/152
f 569/916/132 570/918/134 590/937/153
f 570/918/134 571/920/136 591/939/155
f 571/920/136 572/919/135 592/940/156
f 573/922/138 593/942/158 592/940/156
f 573/922/138 574/921/137 594/941/157
f 575/923/139 595/944/160 594/941/157
f 575/923/139 576/924/140 596/943/159
f 577/926/142 597/945/161 596/943/159
f 578/925/141 598/946/162 597/945/161
f 579/928/144 599/947/163 598/946/162
f 580/927/143 600/949/165 599/947/163
f 580/927/143 581/929/145 601/948/164
f 581/929/145 582/930/146 602/950/166
f 583/932/148 603/951/167 602/950/166
f 584/931/147 604/952/168 603/951/167
f 584/931/147 565/914/130 585/933/149
f 585/933/149 586/934/150 606/953/169
f 587/935/151 607/955/171 606/953/169
f 588/936/152 608/956/172 607/955/171
f 589/938/154 609/958/174 608/956/172
f 589/938/154 590/937/153 610/957/173
f 590/937/153 591/939/155 611/959/175
f 591/939/155 592/940/156 612/960/176
f 593/942/158 613/962/178 612/960/176
f 593/942/158 594/941/157 614/961/177
f 595/944/160 615/964/180 614/961/177
f 595/944/160 596/943/159 616/963/179
f 597/945/161 617/965/181 616/963/179
f 598/946/162 618/966/182 617/965/181
f 599/947/163 619/968/184 618/966/182
f 599/947/163 600/949/165 620/967/183
f 600/949/165 601/948/164 621/969/185
f 601/948/164 602/950/166 622/970/186
f 603/951/167 623/972/188 622/970/186
f 603/951/167 604/952/168 624/971/187
f 585/933/149 605/954/170 624/971/187
f 666/974/189 668/978/193 669/975/190
f 670/977/192 671/980/195 668/978/193
f 672/979/194 673/982/197 671/980/195
f 674/981/196 675/984/199 673/982/197
f 676/983/198 677/986/201 675/984/199
f 678/985/200 679/988/203 677/986/201
f 680/987/202 681/990/205 679/988/203
f 682/989/204 683/992/207 681/990/205
f 684/991/206 685/994/209 683/992/207
f 686/993/208 687/996/211 685/994/209
f 688/995/210 689/998/213 687/996/211
f 690/997/212 691/1000/215 689/998/213
f 692/999/214 693/1002/217 691/1000/215
f 694/1001/216 695/1174/219 693/1002/217
f 696/1003/218 697/1007/221 695/1004/219
f 698/1006/220 699/1009/223 697/1007/221
f 700/1008/222 701/1011/225 699/1009/223
f 702/1010/224 703/1013/227 701/1011/225
f 704/1012/226 705/1014/228 703/1013/227
f 704/1012/226 667/976/191 669/975/190
f 647/1015/229 526/1019/92 525/1016/89
f 648/1018/231 527/1021/94 526/1019/92
f 649/1020/232 528/1023/97 527/1021/94
f 649/1020/232 650/1025/234 529/1022/96
f 651/1024/233 530/1027/100 529/1022/96
f 652/1026/235 531/1029/102 530/1027/100
f 653/1028/236 532/1031/105 531/1029/102
f 654/1030/237 533/1033/104 532/1031/105
f 655/1032/238 534/1035/109 533/1033/104
f 656/1034/239 535/1037/108 534/1035/109
f 657/1036/240 536/1039/112 535/1037/108
f 658/1038/241 537/1041/115 536/1039/112
f 659/1040/242 538/1043/114 537/1041/115
f 660/1042/243 539/1175/118 538/1043/114
f 661/1044/244 540/1048/121 539/1045/118
f 662/1047/245 541/1050/120 540/1048/121
f 663/1049/246 542/1052/124 541/1050/120
f 664/1051/247 543/1054/126 542/1052/124
f 665/1053/248 544/1055/128 543/1054/126
f 646/1017/230 525/1016/89 544/1055/128
f 626/1056/54 627/1063/57 666/1057/189
f 647/1059/229 646/1135/230 669/1060/190
f 628/1062/59 670/1067/192 666/1057/189
f 647/1059/229 668/1061/193 671/1064/195
f 629/1066/60 672/1071/194 670/1067/192
f 649/1068/232 648/1065/231 671/1064/195
f 630/1070/62 674/1075/196 672/1071/194
f 650/1072/234 649/1068/232 673/1069/197
f 630/1070/62 631/1078/64 676/1074/198
f 650/1072/234 675/1073/199 677/1076/201
f 631/1078/64 632/1082/66 678/1079/200
f 652/1080/235 651/1077/233 677/1076/201
f 632/1082/66 633/1087/68 680/1083/202
f 653/1084/236 652/1080/235 679/1081/203
f 634/1086/69 682/1091/204 680/1083/202
f 653/1084/236 681/1085/205 683/1088/207
f 634/1086/69 635/1095/71 684/1090/206
f 654/1089/237 683/1088/207 685/1092/209
f 636/1094/73 686/1099/208 684/1090/206
f 656/1096/239 655/1093/238 685/1092/209
f 637/1098/75 688/1103/210 686/1099/208
f 656/1096/239 687/1097/211 689/1100/213
f 638/1102/77 690/1107/212 688/1103/210
f 658/1104/241 657/1101/240 689/1100/213
f 639/1106/78 692/1111/214 690/1107/212
f 659/1108/242 658/1104/241 691/1105/215
f 639/1106/78 640/1115/80 694/1110/216
f 660/1112/243 659/1108/242 693/1109/217
f 641/1114/79 696/1119/218 694/1110/216
f 660/1112/243 695/1113/219 697/1116/221
f 641/1114/79 642/1123/84 698/1118/220
f 661/1117/244 697/1116/221 699/1120/223
f 643/1122/86 700/1127/222 698/1118/220
f 662/1121/245 699/1120/223 701/1124/225
f 644/1126/87 702/1131/224 700/1127/222
f 664/1128/247 663/1125/246 701/1124/225
f 644/1126/87 645/1134/88 704/1130/226
f 664/1128/247 703/1129/227 705/1132/228
f 626/1056/54 667/1058/191 704/1130/226
f 646/1135/230 665/1133/248 705/1132/228
