# Blender 5.1.0
# www.blender.org
mtllib Sponge.mtl
o Sponge3
v 0.010463 -0.000021 0.000000
v -0.000000 -0.000000 0.000000
v 0.000000 0.009989 0.000000
v 0.010583 0.009854 0.000000
v 0.013070 -0.048613 0.000000
v -0.000000 -0.049946 0.000504
v -0.000000 -0.039956 0.000000
v 0.012219 -0.039383 0.000000
v -0.000000 -0.029967 0.000000
v 0.011483 -0.029593 0.000000
v -0.000000 -0.019978 0.000000
v 0.010931 -0.019759 0.000000
v -0.000000 -0.009989 0.000000
v 0.010583 -0.009897 0.000000
v -0.013070 0.048547 0.000000
v 0.000000 0.049946 0.000504
v 0.000000 0.039956 0.000000
v -0.012219 0.039326 0.000000
v 0.000000 0.029967 0.000000
v -0.011483 0.029542 0.000000
v 0.000000 0.019978 0.000000
v -0.010931 0.019713 0.000000
v -0.010583 0.009854 0.000000
v -0.020925 -0.000081 0.000000
v -0.030884 -0.000170 0.000000
v -0.031750 0.008879 0.000504
v -0.021167 0.009471 0.000000
v -0.010463 -0.000021 0.000000
v 0.021167 0.009471 0.000000
v 0.031247 0.008907 0.000000
v 0.031388 -0.000175 0.000504
v 0.020925 -0.000082 0.000000
v -0.026135 -0.046315 0.000000
v -0.038138 -0.043633 0.000504
v -0.036163 -0.035435 0.000000
v -0.024438 -0.037783 0.000000
v -0.013117 -0.049115 0.000504
v -0.012219 -0.039383 0.000000
v 0.024438 -0.037783 0.000000
v 0.036163 -0.035435 0.000000
v 0.038949 -0.042122 0.000504
v 0.026135 -0.046315 0.000000
v -0.034449 -0.026927 0.000504
v -0.022966 -0.028543 0.000000
v -0.011483 -0.029593 0.000000
v 0.022966 -0.028543 0.000000
v 0.033950 -0.026997 0.000000
v -0.032792 -0.018190 0.000504
v -0.021861 -0.019143 0.000000
v -0.010931 -0.019759 0.000000
v 0.021861 -0.019143 0.000000
v 0.032290 -0.018234 0.000000
v -0.031246 -0.009255 0.000000
v -0.021167 -0.009638 0.000000
v -0.010583 -0.009897 0.000000
v 0.021167 -0.009638 0.000000
v 0.031750 -0.009236 0.000504
v 0.026135 0.046065 0.000000
v 0.038145 0.043128 0.000504
v 0.036165 0.034980 0.000000
v 0.024438 0.037565 0.000000
v 0.013117 0.049049 0.000504
v 0.012219 0.039326 0.000000
v -0.024438 0.037565 0.000000
v -0.036165 0.034980 0.000000
v -0.038946 0.041594 0.000504
v -0.026135 0.046065 0.000000
v 0.034449 0.026512 0.000504
v 0.022966 0.028348 0.000000
v 0.011483 0.029542 0.000000
v -0.022966 0.028348 0.000000
v -0.033951 0.026591 0.000000
v 0.032291 0.017864 0.000000
v 0.021861 0.018966 0.000000
v 0.010931 0.019713 0.000000
v -0.021861 0.018966 0.000000
v -0.032792 0.017811 0.000504
v 0.010463 -0.000021 0.030000
v -0.000000 -0.000000 0.030000
v 0.000000 0.009989 0.030000
v 0.010583 0.009854 0.030000
v 0.013117 -0.049115 0.029496
v -0.000000 -0.049946 0.029496
v -0.000000 -0.039956 0.030000
v 0.012219 -0.039383 0.030000
v -0.000000 -0.029967 0.030000
v 0.011483 -0.029593 0.030000
v -0.000000 -0.019978 0.030000
v 0.010931 -0.019759 0.030000
v -0.000000 -0.009989 0.030000
v 0.010583 -0.009897 0.030000
v -0.013117 0.049049 0.029496
v 0.000000 0.049946 0.029496
v 0.000000 0.039956 0.030000
v -0.012219 0.039326 0.030000
v 0.000000 0.029967 0.030000
v -0.011483 0.029542 0.030000
v 0.000000 0.019978 0.030000
v -0.010931 0.019713 0.030000
v -0.010583 0.009854 0.030000
v -0.020925 -0.000081 0.030000
v -0.031388 -0.000175 0.029496
v -0.031750 0.008879 0.029496
v -0.021167 0.009471 0.030000
v -0.010463 -0.000021 0.030000
v 0.021167 0.009471 0.030000
v 0.031750 0.008879 0.029496
v 0.031388 -0.000175 0.029496
v 0.020925 -0.000082 0.030000
v -0.026233 -0.046810 0.029496
v -0.038138 -0.043633 0.029496
v -0.036657 -0.035336 0.029496
v -0.024438 -0.037783 0.030000
v -0.013117 -0.049115 0.029496
v -0.012219 -0.039383 0.030000
v 0.024438 -0.037783 0.030000
v 0.036657 -0.035336 0.029496
v 0.038949 -0.042122 0.029496
v 0.026233 -0.046810 0.029496
v -0.034449 -0.026927 0.029496
v -0.022966 -0.028543 0.030000
v -0.011483 -0.029593 0.030000
v 0.022966 -0.028543 0.030000
v 0.034449 -0.026927 0.029496
v -0.032792 -0.018190 0.029496
v -0.021861 -0.019143 0.030000
v -0.010931 -0.019759 0.030000
v 0.021861 -0.019143 0.030000
v 0.032792 -0.018190 0.029496
v -0.031750 -0.009236 0.029496
v -0.021167 -0.009638 0.030000
v -0.010583 -0.009897 0.030000
v 0.021167 -0.009638 0.030000
v 0.031750 -0.009236 0.029496
v 0.026233 0.046559 0.029496
v 0.038145 0.043128 0.029496
v 0.036657 0.034871 0.029496
v 0.024438 0.037565 0.030000
v 0.013117 0.049049 0.029496
v 0.012219 0.039326 0.030000
v -0.024438 0.037565 0.030000
v -0.036657 0.034871 0.029496
v -0.038946 0.041594 0.029496
v -0.026233 0.046559 0.029496
v 0.034449 0.026512 0.029496
v 0.022966 0.028348 0.030000
v 0.011483 0.029542 0.030000
v -0.022966 0.028348 0.030000
v -0.034449 0.026512 0.029496
v 0.032792 0.017811 0.029496
v 0.021861 0.018966 0.030000
v 0.010931 0.019713 0.030000
v -0.021861 0.018966 0.030000
v -0.032792 0.017811 0.029496
v -0.038949 -0.042122 0.000504
v 0.038138 -0.043633 0.000504
v 0.038946 0.041594 0.000504
v -0.038145 0.043128 0.000504
v -0.038455 -0.042224 0.030000
v 0.037797 -0.043203 0.030000
v 0.038454 0.041706 0.030000
v -0.037798 0.042703 0.030000
v -0.000000 -0.047748 0.000000
v 0.012919 -0.046974 0.000000
v 0.000000 0.047748 0.000000
v -0.012919 0.046910 0.000000
v -0.025838 -0.044824 0.000000
v -0.012919 -0.046974 0.000000
v 0.025838 -0.044824 0.000000
v 0.025838 0.044581 0.000000
v 0.012919 0.046910 0.000000
v -0.025838 0.044581 0.000000
v -0.000000 -0.047748 0.030000
v 0.012919 -0.046974 0.030000
v 0.000000 0.047748 0.030000
v -0.012919 0.046910 0.030000
v -0.025838 -0.044824 0.030000
v -0.012919 -0.046974 0.030000
v 0.025838 -0.044824 0.030000
v 0.025838 0.044581 0.030000
v 0.012919 0.046910 0.030000
v -0.025838 0.044581 0.030000
v 0.013117 -0.049115 0.000504
v -0.000000 -0.049442 0.000000
v -0.013117 0.049049 0.000504
v 0.000000 0.049442 0.000000
v -0.031388 -0.000175 0.000504
v -0.031247 0.008907 0.000000
v 0.031750 0.008879 0.000504
v 0.030884 -0.000170 0.000000
v -0.026233 -0.046810 0.000504
v -0.037797 -0.043203 0.000000
v -0.036657 -0.035336 0.000504
v -0.013070 -0.048613 0.000000
v 0.036657 -0.035336 0.000504
v 0.038455 -0.042224 0.000000
v 0.026233 -0.046810 0.000504
v -0.033950 -0.026997 0.000000
v 0.034449 -0.026927 0.000504
v -0.032290 -0.018234 0.000000
v 0.032792 -0.018190 0.000504
v -0.031750 -0.009236 0.000504
v 0.031246 -0.009255 0.000000
v 0.026233 0.046559 0.000504
v 0.037798 0.042703 0.000000
v 0.036657 0.034871 0.000504
v 0.013070 0.048547 0.000000
v -0.036657 0.034871 0.000504
v -0.038454 0.041706 0.000000
v -0.026233 0.046559 0.000504
v 0.033951 0.026591 0.000000
v -0.034449 0.026512 0.000504
v 0.032792 0.017811 0.000504
v -0.032291 0.017864 0.000000
v 0.013070 -0.048613 0.030000
v -0.000000 -0.049442 0.030000
v -0.013070 0.048547 0.030000
v 0.000000 0.049442 0.030000
v -0.030884 -0.000170 0.030000
v -0.031247 0.008907 0.030000
v 0.031247 0.008907 0.030000
v 0.030884 -0.000170 0.030000
v -0.026135 -0.046315 0.030000
v -0.037797 -0.043203 0.030000
v -0.036163 -0.035435 0.030000
v -0.013070 -0.048613 0.030000
v 0.036163 -0.035435 0.030000
v 0.038455 -0.042224 0.030000
v 0.026135 -0.046315 0.030000
v -0.033950 -0.026997 0.030000
v 0.033950 -0.026997 0.030000
v -0.032290 -0.018234 0.030000
v 0.032290 -0.018234 0.030000
v -0.031246 -0.009255 0.030000
v 0.031246 -0.009255 0.030000
v 0.026135 0.046065 0.030000
v 0.037798 0.042703 0.030000
v 0.036165 0.034980 0.030000
v 0.013070 0.048547 0.030000
v -0.036165 0.034980 0.030000
v -0.038454 0.041706 0.030000
v -0.026135 0.046065 0.030000
v 0.033951 0.026591 0.030000
v -0.033951 0.026591 0.030000
v 0.032291 0.017864 0.030000
v -0.032291 0.017864 0.030000
v -0.038455 -0.042224 0.000000
v 0.037797 -0.043203 0.000000
v 0.038454 0.041706 0.000000
v -0.037798 0.042703 0.000000
v -0.038949 -0.042122 0.029496
v 0.038138 -0.043633 0.029496
v 0.038946 0.041594 0.029496
v -0.038145 0.043128 0.029496
v 0.013117 -0.049115 0.006012
v -0.000000 -0.049946 0.006012
v -0.013117 0.049049 0.006012
v 0.000000 0.049946 0.006012
v -0.031388 -0.000175 0.006012
v -0.031750 0.008879 0.006012
v 0.031750 0.008879 0.006012
v 0.031388 -0.000175 0.006012
v -0.026233 -0.046810 0.006012
v -0.038138 -0.043633 0.006012
v -0.036657 -0.035336 0.006012
v -0.013117 -0.049115 0.006012
v 0.036657 -0.035336 0.006012
v 0.038949 -0.042122 0.006012
v 0.026233 -0.046810 0.006012
v -0.034449 -0.026927 0.006012
v 0.034449 -0.026927 0.006012
v -0.032792 -0.018190 0.006012
v 0.032792 -0.018190 0.006012
v -0.031750 -0.009236 0.006012
v 0.031750 -0.009236 0.006012
v 0.026233 0.046559 0.006012
v 0.038145 0.043128 0.006012
v 0.036657 0.034871 0.006012
v 0.013117 0.049049 0.006012
v -0.036657 0.034871 0.006012
v -0.038946 0.041594 0.006012
v -0.026233 0.046559 0.006012
v 0.034449 0.026512 0.006012
v -0.034449 0.026512 0.006012
v 0.032792 0.017811 0.006012
v -0.032792 0.017811 0.006012
v -0.038949 -0.042122 0.006012
v 0.038138 -0.043633 0.006012
v 0.038946 0.041594 0.006012
v -0.038145 0.043128 0.006012
vn -0.0000 -0.0000 -1.0000
vn 0.0469 -0.3914 -0.9190
vn -0.0000 -0.3957 -0.9184
vn -0.0508 0.3918 -0.9186
vn -0.0000 0.3967 -0.9180
vn -0.3743 -0.0001 -0.9273
vn 0.3743 -0.0001 -0.9273
vn -0.2464 -0.3532 -0.9025
vn -0.0847 -0.3824 -0.9201
vn -0.0469 -0.3914 -0.9190
vn 0.3607 0.1076 -0.9264
vn -0.3671 0.0824 -0.9265
vn 0.3671 0.0824 -0.9265
vn -0.3714 0.0563 -0.9268
vn 0.3714 0.0563 -0.9268
vn -0.3738 0.0289 -0.9271
vn 0.3738 0.0289 -0.9271
vn 0.2514 0.3492 -0.9027
vn 0.0914 0.3816 -0.9198
vn 0.0508 0.3918 -0.9186
vn -0.3601 -0.1082 -0.9266
vn 0.3666 -0.0828 -0.9267
vn -0.3666 -0.0828 -0.9267
vn 0.3711 -0.0566 -0.9269
vn -0.3711 -0.0566 -0.9269
vn 0.3736 -0.0291 -0.9271
vn -0.3736 -0.0291 -0.9271
vn -0.0000 -0.0000 1.0000
vn -0.3743 -0.0001 0.9273
vn 0.3743 -0.0001 0.9273
vn -0.3607 0.1076 0.9264
vn 0.2464 -0.3532 0.9025
vn 0.0847 -0.3824 0.9201
vn 0.0469 -0.3914 0.9190
vn -0.3671 0.0824 0.9265
vn 0.3671 0.0824 0.9265
vn -0.3714 0.0563 0.9268
vn 0.3714 0.0563 0.9268
vn -0.3738 0.0289 0.9271
vn 0.3738 0.0289 0.9271
vn 0.3601 -0.1082 0.9266
vn -0.2514 0.3492 0.9027
vn -0.0914 0.3816 0.9198
vn -0.0508 0.3918 0.9186
vn 0.3666 -0.0828 0.9267
vn -0.3666 -0.0828 0.9267
vn 0.3711 -0.0566 0.9269
vn -0.3711 -0.0566 0.9269
vn 0.3736 -0.0291 0.9271
vn -0.3736 -0.0291 0.9271
vn 0.1183 -0.9930 -0.0000
vn -0.0000 -1.0000 -0.0000
vn -0.1276 0.9918 -0.0000
vn -0.0000 1.0000 -0.0000
vn -1.0000 -0.0000 -0.0000
vn -0.9970 -0.0780 -0.0000
vn 0.9970 -0.0780 -0.0000
vn 1.0000 -0.0000 -0.0000
vn -0.2156 -0.9765 -0.0000
vn -0.6207 -0.7840 -0.0000
vn -0.9474 0.3200 -0.0000
vn -0.9579 0.2871 -0.0000
vn -0.1183 -0.9930 -0.0000
vn 0.9579 0.2871 -0.0000
vn 0.9474 0.3200 -0.0000
vn 0.6207 -0.7840 -0.0000
vn 0.2156 -0.9765 -0.0000
vn -0.9754 0.2203 -0.0000
vn 0.9754 0.2203 -0.0000
vn -0.9885 0.1511 -0.0000
vn 0.9885 0.1511 -0.0000
vn -0.9970 0.0778 -0.0000
vn 0.9970 0.0778 -0.0000
vn 0.2319 0.9727 -0.0000
vn 0.6328 0.7743 -0.0000
vn 0.9466 -0.3223 -0.0000
vn 0.9573 -0.2890 -0.0000
vn 0.1276 0.9918 -0.0000
vn -0.9573 -0.2890 -0.0000
vn -0.9466 -0.3223 -0.0000
vn -0.6328 0.7743 -0.0000
vn -0.2319 0.9727 -0.0000
vn 0.9752 -0.2214 -0.0000
vn -0.9752 -0.2214 -0.0000
vn 0.9884 -0.1516 -0.0000
vn -0.9884 -0.1516 -0.0000
vn -0.8813 -0.4725 -0.0000
vn 0.8813 -0.4725 -0.0000
vn 0.8865 0.4627 -0.0000
vn -0.8865 0.4627 -0.0000
vn 0.0847 -0.3824 -0.9201
vn -0.0914 0.3816 -0.9198
vn -0.0847 -0.3824 0.9201
vn -0.0469 -0.3914 0.9190
vn 0.0914 0.3816 0.9198
vn 0.0508 0.3918 0.9186
vn -0.2464 -0.3532 0.9025
vn -0.4697 -0.0780 0.8794
vn 0.3607 0.1076 0.9264
vn 0.4697 -0.0780 0.8794
vn -0.3601 -0.1082 0.9266
vn -0.4709 0.0760 0.8789
vn 0.2514 0.3492 0.9027
vn 0.4709 0.0760 0.8789
vn -0.2514 0.3492 -0.9027
vn -0.4709 0.0760 -0.8789
vn 0.3601 -0.1082 -0.9266
vn 0.4709 0.0760 -0.8789
vn -0.3607 0.1076 -0.9264
vn -0.4697 -0.0780 -0.8794
vn 0.2464 -0.3532 -0.9025
vn 0.4697 -0.0780 -0.8794
vn 0.0833 -0.7023 -0.7070
vn -0.0896 0.7016 -0.7069
vn -0.7071 0.0001 -0.7071
vn 0.7071 0.0001 -0.7071
vn -0.1523 -0.6906 -0.7070
vn -0.6786 0.2045 -0.7055
vn -0.0833 -0.7023 -0.7070
vn 0.6786 0.2045 -0.7055
vn 0.1523 -0.6906 -0.7070
vn -0.6907 0.1568 -0.7059
vn 0.6907 0.1568 -0.7059
vn -0.6996 0.1076 -0.7064
vn 0.6996 0.1076 -0.7064
vn -0.7052 0.0555 -0.7068
vn 0.7052 0.0555 -0.7068
vn 0.1636 0.6882 -0.7069
vn 0.6777 -0.2055 -0.7061
vn 0.0896 0.7016 -0.7069
vn -0.6777 -0.2055 -0.7061
vn -0.1636 0.6882 -0.7069
vn 0.6901 -0.1573 -0.7064
vn -0.6901 -0.1573 -0.7064
vn 0.6992 -0.1077 -0.7067
vn -0.6992 -0.1077 -0.7067
vn 0.7050 -0.0554 -0.7070
vn -0.7050 -0.0554 -0.7070
vn -0.0000 -0.3957 0.9184
vn 0.0833 -0.7023 0.7070
vn -0.0000 0.3967 0.9180
vn -0.0896 0.7016 0.7069
vn -0.7071 0.0001 0.7071
vn 0.7071 0.0001 0.7071
vn -0.6786 0.2045 0.7055
vn -0.1523 -0.6906 0.7070
vn -0.0833 -0.7023 0.7070
vn 0.1523 -0.6906 0.7070
vn 0.6786 0.2045 0.7055
vn -0.6907 0.1568 0.7059
vn 0.6907 0.1568 0.7059
vn -0.6996 0.1076 0.7064
vn 0.6996 0.1076 0.7064
vn -0.7052 0.0555 0.7068
vn 0.7052 0.0555 0.7068
vn 0.6777 -0.2055 0.7061
vn 0.1636 0.6882 0.7069
vn 0.0896 0.7016 0.7069
vn -0.1636 0.6882 0.7069
vn -0.6777 -0.2055 0.7061
vn 0.6901 -0.1573 0.7064
vn -0.6901 -0.1573 0.7064
vn 0.6992 -0.1077 0.7067
vn -0.6992 -0.1077 0.7067
vn 0.7050 -0.0554 0.7070
vn -0.7050 -0.0554 0.7070
vn -0.4156 -0.5534 -0.7219
vn -0.7172 -0.0306 -0.6962
vn 0.4156 -0.5534 -0.7219
vn 0.7172 -0.0306 -0.6962
vn 0.4243 0.5479 -0.7210
vn 0.7185 0.0246 -0.6951
vn -0.4243 0.5479 -0.7210
vn -0.7185 0.0246 -0.6951
vn -0.4156 -0.5534 0.7219
vn -0.7172 -0.0306 0.6962
vn 0.4156 -0.5534 0.7219
vn 0.7172 -0.0306 0.6962
vn 0.4243 0.5479 0.7210
vn 0.7185 0.0246 0.6951
vn -0.4243 0.5479 0.7210
vn -0.7185 0.0246 0.6951
vn -0.0000 -0.7071 -0.7071
vn -0.0000 0.7071 -0.7071
vn -0.0000 -0.7071 0.7071
vn -0.0000 0.7071 0.7071
vt 0.232990 0.703509
vt 0.172032 0.760671
vt 0.172511 0.703661
vt 0.231749 0.427873
vt 0.156271 0.423143
vt 0.231692 0.418092
vt 0.232242 0.530544
vt 0.161435 0.476431
vt 0.231954 0.472874
vt 0.169357 0.589716
vt 0.165925 0.532953
vt 0.232517 0.588195
vt 0.171595 0.646646
vt 0.232763 0.645849
vt 0.234196 0.979156
vt 0.309671 0.983502
vt 0.234250 0.988937
vt 0.233722 0.876483
vt 0.304517 0.930263
vt 0.233998 0.934155
vt 0.233456 0.818827
vt 0.300036 0.873777
vt 0.233216 0.761170
vt 0.296613 0.817038
vt 0.411476 0.701708
vt 0.355528 0.757658
vt 0.353939 0.702480
vt 0.293470 0.703109
vt 0.294382 0.760121
vt 0.110840 0.758775
vt 0.054500 0.703335
vt 0.112040 0.703591
vt 0.450324 0.451492
vt 0.380717 0.444789
vt 0.382279 0.436939
vt 0.306299 0.432142
vt 0.307115 0.422670
vt 0.023243 0.499666
vt 0.082688 0.445289
vt 0.090930 0.485921
vt 0.373144 0.484961
vt 0.428706 0.546347
vt 0.365069 0.538130
vt 0.302491 0.475961
vt 0.298604 0.532439
vt 0.036205 0.548379
vt 0.099623 0.539253
vt 0.419281 0.597179
vt 0.358951 0.592371
vt 0.295713 0.589172
vt 0.045997 0.598979
vt 0.106220 0.593515
vt 0.413405 0.649164
vt 0.355142 0.647273
vt 0.293949 0.646094
vt 0.052225 0.650838
vt 0.110446 0.648397
vt 0.015588 0.952441
vt 0.085204 0.960889
vt 0.083640 0.968773
vt 0.159640 0.974524
vt 0.158821 0.983985
vt 0.442714 0.904734
vt 0.383255 0.960337
vt 0.375019 0.919845
vt 0.092809 0.920807
vt 0.037262 0.858278
vt 0.100904 0.867758
vt 0.167362 0.874290
vt 0.163458 0.930739
vt 0.429757 0.856305
vt 0.366335 0.866649
vt 0.046694 0.807673
vt 0.107029 0.813613
vt 0.170264 0.817578
vt 0.419971 0.805908
vt 0.359747 0.812484
vt 0.052572 0.755826
vt 0.413748 0.754169
vt 0.695551 0.701953
vt 0.634815 0.644623
vt 0.695980 0.644294
vt 0.693649 0.932673
vt 0.618726 0.972611
vt 0.623130 0.928811
vt 0.694133 0.874986
vt 0.627836 0.872313
vt 0.631487 0.815560
vt 0.633953 0.758637
vt 0.694617 0.817303
vt 0.635093 0.701629
vt 0.695092 0.759624
vt 0.697042 0.471358
vt 0.771792 0.431885
vt 0.767514 0.475608
vt 0.696712 0.529015
vt 0.763047 0.531975
vt 0.696368 0.586651
vt 0.759552 0.588625
vt 0.757155 0.645500
vt 0.818331 0.648084
vt 0.874009 0.704193
vt 0.816479 0.703274
vt 0.756017 0.702508
vt 0.517129 0.701600
vt 0.573659 0.646363
vt 0.574649 0.701522
vt 0.902682 0.908360
vt 0.842556 0.962005
vt 0.834837 0.921274
vt 0.764221 0.929928
vt 0.767892 0.973802
vt 0.475372 0.949387
vt 0.544254 0.959618
vt 0.542427 0.968208
vt 0.617763 0.982063
vt 0.890351 0.859475
vt 0.826833 0.867830
vt 0.760465 0.873347
vt 0.552657 0.919032
vt 0.498185 0.856369
vt 0.561562 0.865750
vt 0.881210 0.808731
vt 0.820934 0.813470
vt 0.757767 0.816525
vt 0.508186 0.805834
vt 0.568378 0.811529
vt 0.875639 0.756761
vt 0.817399 0.758512
vt 0.756244 0.759549
vt 0.514632 0.754036
vt 0.572830 0.756684
vt 0.488049 0.498397
vt 0.548099 0.443474
vt 0.555897 0.484045
vt 0.626500 0.474432
vt 0.622747 0.430605
vt 0.915701 0.454654
vt 0.845948 0.446616
vt 0.847522 0.439086
vt 0.772703 0.422423
vt 0.500490 0.546945
vt 0.564013 0.537314
vt 0.630379 0.530949
vt 0.838058 0.486375
vt 0.893053 0.549245
vt 0.829466 0.539230
vt 0.509743 0.597416
vt 0.570026 0.591524
vt 0.633198 0.587704
vt 0.883047 0.599830
vt 0.822763 0.593281
vt 0.515417 0.649176
vt 0.876566 0.651673
vt 0.168133 0.372891
vt 0.245475 0.405323
vt 0.168129 0.405309
vt 0.168063 0.195878
vt 0.245315 0.228254
vt 0.168060 0.228247
vt 0.743664 0.372572
vt 0.796891 0.404929
vt 0.743664 0.404930
vt 0.689349 0.197197
vt 0.742575 0.229555
vt 0.689349 0.229554
vt 0.401204 0.372929
vt 0.473717 0.405354
vt 0.401201 0.405347
vt 0.492059 0.372574
vt 0.534132 0.404932
vt 0.492059 0.404932
vt 0.322828 0.372918
vt 0.322823 0.405336
vt 0.245480 0.372905
vt 0.952100 0.197200
vt 0.994171 0.229557
vt 0.952100 0.229557
vt 0.017247 0.372874
vt 0.089755 0.405298
vt 0.017245 0.405291
vt 0.089758 0.372880
vt 0.534132 0.372574
vt 0.585205 0.404931
vt 0.901028 0.197200
vt 0.901028 0.229557
vt 0.585205 0.372573
vt 0.637440 0.404931
vt 0.848795 0.197199
vt 0.848795 0.229556
vt 0.637440 0.372573
vt 0.690393 0.404930
vt 0.795844 0.197198
vt 0.795844 0.229556
vt 0.690393 0.372572
vt 0.742575 0.197198
vt 0.401024 0.195898
vt 0.473865 0.228271
vt 0.401022 0.228267
vt 0.491998 0.197196
vt 0.533713 0.229553
vt 0.491998 0.229553
vt 0.322573 0.195892
vt 0.322570 0.228261
vt 0.245318 0.195885
vt 0.952530 0.372569
vt 0.994246 0.404927
vt 0.952530 0.404927
vt 0.016773 0.195869
vt 0.089611 0.228241
vt 0.016772 0.228237
vt 0.089613 0.195872
vt 0.533713 0.197196
vt 0.584501 0.229553
vt 0.901741 0.372570
vt 0.901741 0.404928
vt 0.584501 0.197196
vt 0.636526 0.229553
vt 0.849715 0.372570
vt 0.849715 0.404928
vt 0.636526 0.197196
vt 0.796891 0.372571
vt 0.483812 0.372936
vt 0.473725 0.234733
vt 0.483814 0.234734
vt 0.007157 0.234671
vt 0.017252 0.234672
vt 0.484036 0.195902
vt 0.473870 0.057910
vt 0.484037 0.057910
vt 0.006605 0.057877
vt 0.016776 0.057877
vt 0.157202 0.432603
vt 0.308743 0.974053
vt 0.080890 0.436689
vt 0.385047 0.968898
vt 0.693274 0.977668
vt 0.697328 0.426363
vt 0.844235 0.970629
vt 0.768689 0.983273
vt 0.546394 0.434895
vt 0.621914 0.421145
vt 0.911588 0.952919
vt 0.915427 0.947550
vt 0.485026 0.905011
vt 0.471619 0.943967
vt 0.906091 0.500441
vt 0.918960 0.460919
vt 0.479056 0.454112
vt 0.475239 0.459595
vt 0.452180 0.948924
vt 0.455943 0.943402
vt 0.024731 0.907077
vt 0.012124 0.946445
vt 0.441214 0.497225
vt 0.453775 0.457428
vt 0.013754 0.455227
vt 0.009989 0.460641
vt 0.155836 0.419052
vt 0.310116 0.987592
vt 0.415591 0.701657
vt 0.050385 0.703333
vt 0.383014 0.433292
vt 0.445285 0.497992
vt 0.307524 0.418575
vt 0.019207 0.500549
vt 0.080003 0.432671
vt 0.432794 0.546933
vt 0.032147 0.549057
vt 0.423386 0.597560
vt 0.041908 0.599426
vt 0.417520 0.649332
vt 0.048117 0.651059
vt 0.082879 0.972453
vt 0.020674 0.906243
vt 0.158402 0.988079
vt 0.446736 0.903793
vt 0.385954 0.972911
vt 0.033185 0.857630
vt 0.433805 0.855572
vt 0.042595 0.807235
vt 0.424053 0.805407
vt 0.048460 0.755604
vt 0.417853 0.753895
vt 0.693188 0.987444
vt 0.617313 0.986150
vt 0.697371 0.416577
vt 0.773173 0.418333
vt 0.878127 0.704239
vt 0.513015 0.701594
vt 0.906730 0.907523
vt 0.845068 0.974658
vt 0.769069 0.987368
vt 0.541525 0.972221
vt 0.480989 0.904110
vt 0.894419 0.858843
vt 0.494126 0.855675
vt 0.885306 0.808329
vt 0.504096 0.805373
vt 0.879752 0.756585
vt 0.510523 0.753803
vt 0.484014 0.499291
vt 0.545529 0.430873
vt 0.621511 0.417050
vt 0.848270 0.435585
vt 0.910149 0.501281
vt 0.496431 0.547629
vt 0.897133 0.549913
vt 0.505654 0.597866
vt 0.887147 0.600302
vt 0.511310 0.649398
vt 0.880679 0.651936
vt 0.452998 0.447990
vt 0.457692 0.457843
vt 0.011157 0.451896
vt 0.006007 0.460971
vt 0.012865 0.955883
vt 0.008207 0.945970
vt 0.454823 0.952213
vt 0.459920 0.943008
vt 0.914140 0.956281
vt 0.919412 0.947271
vt 0.472768 0.952709
vt 0.467631 0.943626
vt 0.476448 0.450795
vt 0.471256 0.459947
vt 0.918490 0.451175
vt 0.922837 0.461473
vt 0.245500 0.234702
vt 0.168151 0.234689
vt 0.245328 0.057893
vt 0.168072 0.057886
vt 0.796891 0.234623
vt 0.743664 0.234623
vt 0.742575 0.059254
vt 0.689349 0.059253
vt 0.401218 0.234727
vt 0.534132 0.234626
vt 0.492059 0.234626
vt 0.322846 0.234715
vt 0.994171 0.059256
vt 0.952100 0.059256
vt 0.089771 0.234678
vt 0.585205 0.234625
vt 0.901028 0.059255
vt 0.637440 0.234625
vt 0.848795 0.059255
vt 0.690393 0.234624
vt 0.795844 0.059254
vt 0.401031 0.057906
vt 0.533713 0.059252
vt 0.491998 0.059252
vt 0.322583 0.057900
vt 0.994246 0.234621
vt 0.952530 0.234621
vt 0.089620 0.057881
vt 0.584501 0.059252
vt 0.901741 0.234622
vt 0.636526 0.059252
vt 0.849715 0.234622
vt 0.483811 0.405354
vt 0.007154 0.405291
vt 0.484035 0.228271
vt 0.006603 0.228237
vt 0.473719 0.372936
vt 0.994171 0.197200
vt 0.473866 0.195902
vt 0.994246 0.372569
vt 0.007156 0.372874
vt 0.006604 0.195869
vt 0.231671 0.413977
vt 0.234270 0.993051
vt 0.693153 0.991556
vt 0.697395 0.412462
s 1
usemtl Sponge3
f 2/1/1 4/2/1 1/3/1
f 163/4/1 5/5/2 184/6/3
f 9/7/1 8/8/1 7/9/1
f 9/7/1 12/10/1 10/11/1
f 11/12/1 14/13/1 12/10/1
f 13/14/1 1/3/1 14/13/1
f 165/15/1 15/16/4 186/17/5
f 19/18/1 18/19/1 17/20/1
f 21/21/1 20/22/1 19/18/1
f 3/23/1 22/24/1 21/21/1
f 25/25/6 27/26/1 24/27/1
f 27/26/1 28/28/1 24/27/1
f 23/29/1 2/1/1 28/28/1
f 29/30/1 190/31/7 32/32/1
f 29/30/1 1/3/1 4/2/1
f 192/33/8 167/34/1 33/35/9
f 33/35/9 168/36/1 194/37/10
f 194/37/10 163/4/1 184/6/3
f 40/38/11 169/39/1 39/40/1
f 169/39/1 8/8/1 39/40/1
f 36/41/1 198/42/12 44/43/1
f 38/44/1 44/43/1 45/45/1
f 38/44/1 9/7/1 7/9/1
f 47/46/13 39/40/1 46/47/1
f 46/47/1 8/8/1 10/11/1
f 44/43/1 200/48/14 49/49/1
f 45/45/1 49/49/1 50/50/1
f 9/7/1 50/50/1 11/12/1
f 52/51/15 46/47/1 51/52/1
f 51/52/1 10/11/1 12/10/1
f 49/49/1 53/53/16 54/54/1
f 50/50/1 54/54/1 55/55/1
f 11/12/1 55/55/1 13/14/1
f 203/56/17 51/52/1 56/57/1
f 56/57/1 12/10/1 14/13/1
f 54/54/1 25/25/6 24/27/1
f 55/55/1 24/27/1 28/28/1
f 13/14/1 28/28/1 2/1/1
f 190/31/7 56/57/1 32/32/1
f 32/32/1 14/13/1 1/3/1
f 205/58/18 170/59/1 58/60/19
f 58/60/19 171/61/1 207/62/20
f 207/62/20 165/15/1 186/17/5
f 65/63/21 172/64/1 64/65/1
f 172/64/1 18/19/1 64/65/1
f 61/66/1 211/67/22 69/68/1
f 61/66/1 70/69/1 63/70/1
f 63/70/1 19/18/1 17/20/1
f 72/71/23 64/65/1 71/72/1
f 64/65/1 20/22/1 71/72/1
f 69/68/1 73/73/24 74/74/1
f 70/69/1 74/74/1 75/75/1
f 70/69/1 21/21/1 19/18/1
f 214/76/25 71/72/1 76/77/1
f 76/77/1 20/22/1 22/24/1
f 74/74/1 30/78/26 29/30/1
f 75/75/1 29/30/1 4/2/1
f 75/75/1 3/23/1 21/21/1
f 188/79/27 76/77/1 27/26/1
f 27/26/1 22/24/1 23/29/1
f 79/80/28 81/81/28 80/82/28
f 84/83/28 174/84/28 85/85/28
f 86/86/28 85/85/28 87/87/28
f 89/88/28 86/86/28 87/87/28
f 91/89/28 88/90/28 89/88/28
f 78/91/28 90/92/28 91/89/28
f 94/93/28 176/94/28 95/95/28
f 96/96/28 95/95/28 97/97/28
f 98/98/28 97/97/28 99/99/28
f 80/82/28 99/99/28 100/100/28
f 104/101/28 219/102/29 101/103/28
f 104/101/28 105/104/28 100/100/28
f 100/100/28 79/80/28 80/82/28
f 222/105/30 106/106/28 109/107/28
f 106/106/28 78/91/28 109/107/28
f 225/108/31 177/109/28 113/110/28
f 177/109/28 115/111/28 113/110/28
f 178/112/28 84/83/28 115/111/28
f 160/113/32 179/114/28 229/115/33
f 229/115/33 174/84/28 215/116/34
f 230/117/35 113/110/28 121/118/28
f 121/118/28 115/111/28 122/119/28
f 115/111/28 86/86/28 122/119/28
f 116/120/28 231/121/36 123/122/28
f 85/85/28 123/122/28 87/87/28
f 232/123/37 121/118/28 126/124/28
f 126/124/28 122/119/28 127/125/28
f 127/125/28 86/86/28 88/90/28
f 123/122/28 233/126/38 128/127/28
f 87/87/28 128/127/28 89/88/28
f 234/128/39 126/124/28 131/129/28
f 131/129/28 127/125/28 132/130/28
f 132/130/28 88/90/28 90/92/28
f 128/127/28 235/131/40 133/132/28
f 89/88/28 133/132/28 91/89/28
f 219/102/29 131/129/28 101/103/28
f 101/103/28 132/130/28 105/104/28
f 105/104/28 90/92/28 79/80/28
f 133/132/28 222/105/30 109/107/28
f 91/89/28 109/107/28 78/91/28
f 238/133/41 180/134/28 138/135/28
f 180/134/28 140/136/28 138/135/28
f 181/137/28 94/93/28 140/136/28
f 162/138/42 182/139/28 242/140/43
f 242/140/43 176/94/28 217/141/44
f 243/142/45 138/135/28 146/143/28
f 138/135/28 147/144/28 146/143/28
f 140/136/28 96/96/28 147/144/28
f 141/145/28 244/146/46 148/147/28
f 141/145/28 97/97/28 95/95/28
f 245/148/47 146/143/28 151/149/28
f 151/149/28 147/144/28 152/150/28
f 147/144/28 98/98/28 152/150/28
f 148/147/28 246/151/48 153/152/28
f 97/97/28 153/152/28 99/99/28
f 221/153/49 151/149/28 106/106/28
f 106/106/28 152/150/28 81/81/28
f 152/150/28 80/82/28 81/81/28
f 153/152/28 220/154/50 104/101/28
f 99/99/28 104/101/28 100/100/28
f 255/155/51 6/156/52 183/157/51
f 257/158/53 16/159/54 185/160/53
f 259/161/55 26/162/56 187/163/55
f 261/164/57 31/165/58 189/166/57
f 263/167/59 34/168/60 191/169/59
f 287/170/61 193/171/62 155/172/61
f 266/173/63 191/169/59 37/174/63
f 256/175/52 37/174/63 6/156/52
f 267/176/64 41/177/65 195/178/64
f 288/179/66 197/180/67 156/181/66
f 269/182/67 183/157/51 197/180/67
f 265/183/62 43/184/68 193/171/62
f 271/185/69 195/178/64 199/186/69
f 270/187/68 48/188/70 43/184/68
f 273/189/71 199/186/69 201/190/71
f 272/191/70 202/192/72 48/188/70
f 275/193/73 201/190/71 57/194/73
f 274/195/72 187/163/55 202/192/72
f 262/196/58 57/194/73 31/165/58
f 276/197/74 59/198/75 204/199/74
f 289/200/76 206/201/77 157/202/76
f 279/203/78 204/199/74 62/204/78
f 258/205/54 62/204/78 16/159/54
f 280/206/79 66/207/80 208/208/79
f 290/209/81 210/210/82 158/211/81
f 282/212/82 185/160/53 210/210/82
f 278/213/77 68/214/83 206/201/77
f 284/215/84 208/208/79 212/216/84
f 283/217/83 213/218/85 68/214/83
f 286/219/86 212/216/84 77/220/86
f 285/221/85 189/166/57 213/218/85
f 260/222/56 77/220/86 26/162/56
f 287/223/87 111/224/60 251/225/87
f 288/179/66 118/226/88 252/227/66
f 289/228/89 136/229/75 253/230/89
f 290/209/81 143/231/90 254/232/81
f 7/9/1 164/233/1 163/4/1
f 17/20/1 166/234/1 165/15/1
f 38/44/1 167/34/1 36/41/1
f 168/36/1 7/9/1 163/4/1
f 42/235/91 164/233/1 169/39/1
f 170/59/1 63/70/1 171/61/1
f 171/61/1 17/20/1 165/15/1
f 67/236/92 166/234/1 172/64/1
f 173/237/28 215/116/34 174/84/28
f 175/238/28 217/141/44 176/94/28
f 223/239/93 178/112/28 177/109/28
f 226/240/94 173/237/28 178/112/28
f 85/85/28 179/114/28 116/120/28
f 236/241/95 181/137/28 180/134/28
f 239/242/96 175/238/28 181/137/28
f 182/139/28 95/95/28 176/94/28
f 224/243/97 177/109/28 159/244/98
f 227/245/99 179/114/28 228/246/100
f 240/247/101 182/139/28 241/248/102
f 237/249/103 180/134/28 161/250/104
f 250/251/105 172/64/1 209/252/106
f 60/253/107 170/59/1 249/254/108
f 35/255/109 167/34/1 247/256/110
f 248/257/111 169/39/1 196/258/112
f 183/259/113 184/6/3 5/5/2
f 185/260/114 186/17/5 15/16/4
f 187/261/115 188/79/27 25/25/6
f 30/78/26 31/262/116 190/31/7
f 191/263/117 192/33/8 33/35/9
f 247/256/110 193/264/118 35/255/109
f 194/37/10 191/263/117 33/35/9
f 184/6/3 37/265/119 194/37/10
f 195/266/120 196/258/112 40/38/11
f 248/257/111 197/267/121 42/235/91
f 197/267/121 5/5/2 42/235/91
f 35/255/109 43/268/122 198/42/12
f 199/269/123 40/38/11 47/46/13
f 198/42/12 48/270/124 200/48/14
f 201/271/125 47/46/13 52/51/15
f 200/48/14 202/272/126 53/53/16
f 57/273/127 52/51/15 203/56/17
f 53/53/16 187/261/115 25/25/6
f 31/262/116 203/56/17 190/31/7
f 204/274/128 205/58/18 58/60/19
f 249/254/108 206/275/129 60/253/107
f 207/62/20 204/274/128 58/60/19
f 186/17/5 62/276/130 207/62/20
f 208/277/131 209/252/106 65/63/21
f 250/251/105 210/278/132 67/236/92
f 210/278/132 15/16/4 67/236/92
f 60/253/107 68/279/133 211/67/22
f 212/280/134 65/63/21 72/71/23
f 211/67/22 213/281/135 73/73/24
f 77/282/136 72/71/23 214/76/25
f 73/73/24 189/283/137 30/78/26
f 26/284/138 214/76/25 188/79/27
f 216/285/139 82/286/140 215/116/34
f 218/287/141 92/288/142 217/141/44
f 220/154/50 102/289/143 219/102/29
f 108/290/144 221/153/49 222/105/30
f 112/291/145 159/244/98 225/108/31
f 224/243/97 110/292/146 223/239/93
f 110/292/146 226/240/94 223/239/93
f 114/293/147 216/285/139 226/240/94
f 119/294/148 160/113/32 229/115/33
f 228/246/100 117/295/149 227/245/99
f 215/116/34 119/294/148 229/115/33
f 120/296/150 225/108/31 230/117/35
f 227/245/99 124/297/151 231/121/36
f 125/298/152 230/117/35 232/123/37
f 231/121/36 129/299/153 233/126/38
f 130/300/154 232/123/37 234/128/39
f 233/126/38 134/301/155 235/131/40
f 102/289/143 234/128/39 219/102/29
f 235/131/40 108/290/144 222/105/30
f 137/302/156 161/250/104 238/133/41
f 237/249/103 135/303/157 236/241/95
f 135/303/157 239/242/96 236/241/95
f 139/304/158 218/287/141 239/242/96
f 144/305/159 162/138/42 242/140/43
f 241/248/102 142/306/160 240/247/101
f 217/141/44 144/305/159 242/140/43
f 145/307/161 238/133/41 243/142/45
f 240/247/101 149/308/162 244/146/46
f 150/309/163 243/142/45 245/148/47
f 244/146/46 154/310/164 246/151/48
f 107/311/165 245/148/47 221/153/49
f 246/151/48 103/312/166 220/154/50
f 247/256/110 34/313/167 155/314/168
f 156/315/169 196/258/112 41/316/170
f 249/254/108 59/317/171 157/318/172
f 158/319/173 209/252/106 66/320/174
f 111/321/175 159/244/98 251/322/176
f 228/246/100 252/323/177 118/324/178
f 136/325/179 161/250/104 253/326/180
f 241/248/102 254/327/181 143/328/182
f 83/329/52 255/155/51 82/330/51
f 93/331/54 257/158/53 92/332/53
f 103/333/56 259/161/55 102/334/55
f 108/335/58 261/164/57 107/336/57
f 111/224/60 263/167/59 110/337/59
f 112/338/62 287/170/61 251/339/61
f 110/337/59 266/173/63 114/340/63
f 114/340/63 256/175/52 83/329/52
f 118/341/65 267/176/64 117/342/64
f 119/343/67 288/179/66 252/227/66
f 82/330/51 269/182/67 119/343/67
f 120/344/68 265/183/62 112/338/62
f 117/342/64 271/185/69 124/345/69
f 125/346/70 270/187/68 120/344/68
f 124/345/69 273/189/71 129/347/71
f 130/348/72 272/191/70 125/346/70
f 129/347/71 275/193/73 134/349/73
f 102/334/55 274/195/72 130/348/72
f 134/349/73 262/196/58 108/335/58
f 136/229/75 276/197/74 135/350/74
f 137/351/77 289/200/76 253/352/76
f 135/350/74 279/203/78 139/353/78
f 139/353/78 258/205/54 93/331/54
f 143/354/80 280/206/79 142/355/79
f 144/356/82 290/209/81 254/232/81
f 92/332/53 282/212/82 144/356/82
f 145/357/83 278/213/77 137/351/77
f 142/355/79 284/215/84 149/358/84
f 150/359/85 283/217/83 145/357/83
f 149/358/84 286/219/86 154/360/86
f 107/336/57 285/221/85 150/359/85
f 154/360/86 260/222/56 103/333/56
f 34/168/60 287/223/87 155/361/87
f 41/362/88 288/179/66 156/181/66
f 59/198/75 289/228/89 157/363/89
f 66/364/90 290/209/81 158/211/81
f 2/1/1 3/23/1 4/2/1
f 163/4/1 164/233/1 5/5/2
f 9/7/1 10/11/1 8/8/1
f 9/7/1 11/12/1 12/10/1
f 11/12/1 13/14/1 14/13/1
f 13/14/1 2/1/1 1/3/1
f 165/15/1 166/234/1 15/16/4
f 19/18/1 20/22/1 18/19/1
f 21/21/1 22/24/1 20/22/1
f 3/23/1 23/29/1 22/24/1
f 25/25/6 188/79/27 27/26/1
f 27/26/1 23/29/1 28/28/1
f 23/29/1 3/23/1 2/1/1
f 29/30/1 30/78/26 190/31/7
f 29/30/1 32/32/1 1/3/1
f 192/33/8 247/256/110 167/34/1
f 33/35/9 167/34/1 168/36/1
f 194/37/10 168/36/1 163/4/1
f 40/38/11 196/258/112 169/39/1
f 169/39/1 164/233/1 8/8/1
f 36/41/1 35/255/109 198/42/12
f 38/44/1 36/41/1 44/43/1
f 38/44/1 45/45/1 9/7/1
f 47/46/13 40/38/11 39/40/1
f 46/47/1 39/40/1 8/8/1
f 44/43/1 198/42/12 200/48/14
f 45/45/1 44/43/1 49/49/1
f 9/7/1 45/45/1 50/50/1
f 52/51/15 47/46/13 46/47/1
f 51/52/1 46/47/1 10/11/1
f 49/49/1 200/48/14 53/53/16
f 50/50/1 49/49/1 54/54/1
f 11/12/1 50/50/1 55/55/1
f 203/56/17 52/51/15 51/52/1
f 56/57/1 51/52/1 12/10/1
f 54/54/1 53/53/16 25/25/6
f 55/55/1 54/54/1 24/27/1
f 13/14/1 55/55/1 28/28/1
f 190/31/7 203/56/17 56/57/1
f 32/32/1 56/57/1 14/13/1
f 205/58/18 249/254/108 170/59/1
f 58/60/19 170/59/1 171/61/1
f 207/62/20 171/61/1 165/15/1
f 65/63/21 209/252/106 172/64/1
f 172/64/1 166/234/1 18/19/1
f 61/66/1 60/253/107 211/67/22
f 61/66/1 69/68/1 70/69/1
f 63/70/1 70/69/1 19/18/1
f 72/71/23 65/63/21 64/65/1
f 64/65/1 18/19/1 20/22/1
f 69/68/1 211/67/22 73/73/24
f 70/69/1 69/68/1 74/74/1
f 70/69/1 75/75/1 21/21/1
f 214/76/25 72/71/23 71/72/1
f 76/77/1 71/72/1 20/22/1
f 74/74/1 73/73/24 30/78/26
f 75/75/1 74/74/1 29/30/1
f 75/75/1 4/2/1 3/23/1
f 188/79/27 214/76/25 76/77/1
f 27/26/1 76/77/1 22/24/1
f 79/80/28 78/91/28 81/81/28
f 84/83/28 173/237/28 174/84/28
f 86/86/28 84/83/28 85/85/28
f 89/88/28 88/90/28 86/86/28
f 91/89/28 90/92/28 88/90/28
f 78/91/28 79/80/28 90/92/28
f 94/93/28 175/238/28 176/94/28
f 96/96/28 94/93/28 95/95/28
f 98/98/28 96/96/28 97/97/28
f 80/82/28 98/98/28 99/99/28
f 104/101/28 220/154/50 219/102/29
f 104/101/28 101/103/28 105/104/28
f 100/100/28 105/104/28 79/80/28
f 222/105/30 221/153/49 106/106/28
f 106/106/28 81/81/28 78/91/28
f 225/108/31 159/244/98 177/109/28
f 177/109/28 178/112/28 115/111/28
f 178/112/28 173/237/28 84/83/28
f 160/113/32 228/246/100 179/114/28
f 229/115/33 179/114/28 174/84/28
f 230/117/35 225/108/31 113/110/28
f 121/118/28 113/110/28 115/111/28
f 115/111/28 84/83/28 86/86/28
f 116/120/28 227/245/99 231/121/36
f 85/85/28 116/120/28 123/122/28
f 232/123/37 230/117/35 121/118/28
f 126/124/28 121/118/28 122/119/28
f 127/125/28 122/119/28 86/86/28
f 123/122/28 231/121/36 233/126/38
f 87/87/28 123/122/28 128/127/28
f 234/128/39 232/123/37 126/124/28
f 131/129/28 126/124/28 127/125/28
f 132/130/28 127/125/28 88/90/28
f 128/127/28 233/126/38 235/131/40
f 89/88/28 128/127/28 133/132/28
f 219/102/29 234/128/39 131/129/28
f 101/103/28 131/129/28 132/130/28
f 105/104/28 132/130/28 90/92/28
f 133/132/28 235/131/40 222/105/30
f 91/89/28 133/132/28 109/107/28
f 238/133/41 161/250/104 180/134/28
f 180/134/28 181/137/28 140/136/28
f 181/137/28 175/238/28 94/93/28
f 162/138/42 241/248/102 182/139/28
f 242/140/43 182/139/28 176/94/28
f 243/142/45 238/133/41 138/135/28
f 138/135/28 140/136/28 147/144/28
f 140/136/28 94/93/28 96/96/28
f 141/145/28 240/247/101 244/146/46
f 141/145/28 148/147/28 97/97/28
f 245/148/47 243/142/45 146/143/28
f 151/149/28 146/143/28 147/144/28
f 147/144/28 96/96/28 98/98/28
f 148/147/28 244/146/46 246/151/48
f 97/97/28 148/147/28 153/152/28
f 221/153/49 245/148/47 151/149/28
f 106/106/28 151/149/28 152/150/28
f 152/150/28 98/98/28 80/82/28
f 153/152/28 246/151/48 220/154/50
f 99/99/28 153/152/28 104/101/28
f 255/155/51 256/175/52 6/156/52
f 257/158/53 258/205/54 16/159/54
f 259/161/55 260/222/56 26/162/56
f 261/164/57 262/196/58 31/165/58
f 263/167/59 264/365/60 34/168/60
f 287/170/61 265/183/62 193/171/62
f 266/173/63 263/167/59 191/169/59
f 256/175/52 266/173/63 37/174/63
f 267/176/64 268/366/65 41/177/65
f 288/179/66 269/182/67 197/180/67
f 269/182/67 255/155/51 183/157/51
f 265/183/62 270/187/68 43/184/68
f 271/185/69 267/176/64 195/178/64
f 270/187/68 272/191/70 48/188/70
f 273/189/71 271/185/69 199/186/69
f 272/191/70 274/195/72 202/192/72
f 275/193/73 273/189/71 201/190/71
f 274/195/72 259/161/55 187/163/55
f 262/196/58 275/193/73 57/194/73
f 276/197/74 277/367/75 59/198/75
f 289/200/76 278/213/77 206/201/77
f 279/203/78 276/197/74 204/199/74
f 258/205/54 279/203/78 62/204/78
f 280/206/79 281/368/80 66/207/80
f 290/209/81 282/212/82 210/210/82
f 282/212/82 257/158/53 185/160/53
f 278/213/77 283/217/83 68/214/83
f 284/215/84 280/206/79 208/208/79
f 283/217/83 285/221/85 213/218/85
f 286/219/86 284/215/84 212/216/84
f 285/221/85 261/164/57 189/166/57
f 260/222/56 286/219/86 77/220/86
f 287/223/87 264/365/60 111/224/60
f 288/179/66 268/369/88 118/226/88
f 289/228/89 277/367/75 136/229/75
f 290/209/81 281/370/90 143/231/90
f 7/9/1 8/8/1 164/233/1
f 17/20/1 18/19/1 166/234/1
f 38/44/1 168/36/1 167/34/1
f 168/36/1 38/44/1 7/9/1
f 42/235/91 5/5/2 164/233/1
f 170/59/1 61/66/1 63/70/1
f 171/61/1 63/70/1 17/20/1
f 67/236/92 15/16/4 166/234/1
f 173/237/28 216/285/139 215/116/34
f 175/238/28 218/287/141 217/141/44
f 223/239/93 226/240/94 178/112/28
f 226/240/94 216/285/139 173/237/28
f 85/85/28 174/84/28 179/114/28
f 236/241/95 239/242/96 181/137/28
f 239/242/96 218/287/141 175/238/28
f 182/139/28 141/145/28 95/95/28
f 224/243/97 223/239/93 177/109/28
f 227/245/99 116/120/28 179/114/28
f 240/247/101 141/145/28 182/139/28
f 237/249/103 236/241/95 180/134/28
f 250/251/105 67/236/92 172/64/1
f 60/253/107 61/66/1 170/59/1
f 35/255/109 36/41/1 167/34/1
f 248/257/111 42/235/91 169/39/1
f 183/259/113 6/371/183 184/6/3
f 185/260/114 16/372/184 186/17/5
f 187/261/115 26/284/138 188/79/27
f 30/78/26 189/283/137 31/262/116
f 191/263/117 34/313/167 192/33/8
f 247/256/110 155/314/168 193/264/118
f 194/37/10 37/265/119 191/263/117
f 184/6/3 6/371/183 37/265/119
f 195/266/120 41/316/170 196/258/112
f 248/257/111 156/315/169 197/267/121
f 197/267/121 183/259/113 5/5/2
f 35/255/109 193/264/118 43/268/122
f 199/269/123 195/266/120 40/38/11
f 198/42/12 43/268/122 48/270/124
f 201/271/125 199/269/123 47/46/13
f 200/48/14 48/270/124 202/272/126
f 57/273/127 201/271/125 52/51/15
f 53/53/16 202/272/126 187/261/115
f 31/262/116 57/273/127 203/56/17
f 204/274/128 59/317/171 205/58/18
f 249/254/108 157/318/172 206/275/129
f 207/62/20 62/276/130 204/274/128
f 186/17/5 16/372/184 62/276/130
f 208/277/131 66/320/174 209/252/106
f 250/251/105 158/319/173 210/278/132
f 210/278/132 185/260/114 15/16/4
f 60/253/107 206/275/129 68/279/133
f 212/280/134 208/277/131 65/63/21
f 211/67/22 68/279/133 213/281/135
f 77/282/136 212/280/134 72/71/23
f 73/73/24 213/281/135 189/283/137
f 26/284/138 77/282/136 214/76/25
f 216/285/139 83/373/185 82/286/140
f 218/287/141 93/374/186 92/288/142
f 220/154/50 103/312/166 102/289/143
f 108/290/144 107/311/165 221/153/49
f 112/291/145 251/322/176 159/244/98
f 224/243/97 111/321/175 110/292/146
f 110/292/146 114/293/147 226/240/94
f 114/293/147 83/373/185 216/285/139
f 119/294/148 252/323/177 160/113/32
f 228/246/100 118/324/178 117/295/149
f 215/116/34 82/286/140 119/294/148
f 120/296/150 112/291/145 225/108/31
f 227/245/99 117/295/149 124/297/151
f 125/298/152 120/296/150 230/117/35
f 231/121/36 124/297/151 129/299/153
f 130/300/154 125/298/152 232/123/37
f 233/126/38 129/299/153 134/301/155
f 102/289/143 130/300/154 234/128/39
f 235/131/40 134/301/155 108/290/144
f 137/302/156 253/326/180 161/250/104
f 237/249/103 136/325/179 135/303/157
f 135/303/157 139/304/158 239/242/96
f 139/304/158 93/374/186 218/287/141
f 144/305/159 254/327/181 162/138/42
f 241/248/102 143/328/182 142/306/160
f 217/141/44 92/288/142 144/305/159
f 145/307/161 137/302/156 238/133/41
f 240/247/101 142/306/160 149/308/162
f 150/309/163 145/307/161 243/142/45
f 244/146/46 149/308/162 154/310/164
f 107/311/165 150/309/163 245/148/47
f 246/151/48 154/310/164 103/312/166
f 247/256/110 192/33/8 34/313/167
f 156/315/169 248/257/111 196/258/112
f 249/254/108 205/58/18 59/317/171
f 158/319/173 250/251/105 209/252/106
f 111/321/175 224/243/97 159/244/98
f 228/246/100 160/113/32 252/323/177
f 136/325/179 237/249/103 161/250/104
f 241/248/102 162/138/42 254/327/181
f 83/329/52 256/175/52 255/155/51
f 93/331/54 258/205/54 257/158/53
f 103/333/56 260/222/56 259/161/55
f 108/335/58 262/196/58 261/164/57
f 111/224/60 264/365/60 263/167/59
f 112/338/62 265/183/62 287/170/61
f 110/337/59 263/167/59 266/173/63
f 114/340/63 266/173/63 256/175/52
f 118/341/65 268/366/65 267/176/64
f 119/343/67 269/182/67 288/179/66
f 82/330/51 255/155/51 269/182/67
f 120/344/68 270/187/68 265/183/62
f 117/342/64 267/176/64 271/185/69
f 125/346/70 272/191/70 270/187/68
f 124/345/69 271/185/69 273/189/71
f 130/348/72 274/195/72 272/191/70
f 129/347/71 273/189/71 275/193/73
f 102/334/55 259/161/55 274/195/72
f 134/349/73 275/193/73 262/196/58
f 136/229/75 277/367/75 276/197/74
f 137/351/77 278/213/77 289/200/76
f 135/350/74 276/197/74 279/203/78
f 139/353/78 279/203/78 258/205/54
f 143/354/80 281/368/80 280/206/79
f 144/356/82 282/212/82 290/209/81
f 92/332/53 257/158/53 282/212/82
f 145/357/83 283/217/83 278/213/77
f 142/355/79 280/206/79 284/215/84
f 150/359/85 285/221/85 283/217/83
f 149/358/84 284/215/84 286/219/86
f 107/336/57 261/164/57 285/221/85
f 154/360/86 286/219/86 260/222/56
f 34/168/60 264/365/60 287/223/87
f 41/362/88 268/369/88 288/179/66
f 59/198/75 277/367/75 289/228/89
f 66/364/90 281/370/90 290/209/81
