# Blender 5.1.0
# www.blender.org
mtllib Sketchfab_2021_07_22_16_18_59.mtl
o Círculo_Bézier.001
v 1.173152 1.699677 1.505784
v 1.273152 1.699677 1.505784
v 1.173152 1.738721 1.467228
v 1.273152 1.738721 1.467228
v 1.173152 1.775214 1.427074
v 1.273152 1.775214 1.427074
v 1.173152 1.809152 1.385432
v 1.273152 1.809152 1.385432
v 1.173152 1.840532 1.342406
v 1.273152 1.840532 1.342406
v 1.173152 1.869350 1.298108
v 1.273152 1.869350 1.298108
v 1.173152 1.895603 1.252643
v 1.273152 1.895603 1.252643
v 1.173152 1.919286 1.206121
v 1.273152 1.919286 1.206121
v 1.173152 1.940398 1.158648
v 1.273152 1.940398 1.158648
v 1.173152 1.958933 1.110334
v 1.273152 1.958933 1.110334
v 1.173152 1.974888 1.061285
v 1.273152 1.974888 1.061285
v 1.173152 1.988260 1.011610
v 1.273152 1.988260 1.011610
v 1.173152 1.999045 0.961417
v 1.273152 1.999045 0.961417
v 1.173152 2.007239 0.910813
v 1.273152 2.007239 0.910813
v 1.173152 2.012839 0.859907
v 1.273152 2.012839 0.859907
v 1.173152 2.015842 0.808807
v 1.273152 2.015842 0.808807
v 1.173152 2.016243 0.757620
v 1.273152 2.016243 0.757620
v 1.173152 2.014040 0.706454
v 1.273152 2.014040 0.706454
v 1.173152 2.009228 0.655418
v 1.273152 2.009228 0.655418
v 1.173152 2.001804 0.604618
v 1.273152 2.001804 0.604618
v 1.173152 1.991764 0.554164
v 1.273152 1.991764 0.554164
v 1.173152 1.979105 0.504163
v 1.273152 1.979105 0.504163
v 1.173152 1.963823 0.454723
v 1.273152 1.963823 0.454723
v 1.173152 1.945914 0.405952
v 1.273152 1.945914 0.405952
v 1.173152 1.925376 0.357958
v 1.273152 1.925376 0.357958
v 1.173152 1.902204 0.310849
v 1.273152 1.902204 0.310849
v 1.173152 1.876395 0.264733
v 1.273152 1.876395 0.264733
v 1.173152 1.847944 0.219717
v 1.273152 1.847944 0.219717
v 1.173152 1.816850 0.175909
v 1.273152 1.816850 0.175909
v 1.173152 1.783108 0.133419
v 1.273152 1.783108 0.133419
v 1.173152 1.746713 0.092353
v 1.273152 1.746713 0.092353
v 1.173152 1.708157 0.053309
v 1.273152 1.708157 0.053309
v 1.173152 1.668003 0.016816
v 1.273152 1.668003 0.016816
v 1.173152 1.626360 -0.017122
v 1.273152 1.626360 -0.017122
v 1.173152 1.583336 -0.048502
v 1.273152 1.583336 -0.048502
v 1.173152 1.539037 -0.077320
v 1.273152 1.539037 -0.077320
v 1.173152 1.493572 -0.103573
v 1.273152 1.493572 -0.103573
v 1.173152 1.447050 -0.127256
v 1.273152 1.447050 -0.127256
v 1.173152 1.399577 -0.148367
v 1.273152 1.399577 -0.148367
v 1.173152 1.351263 -0.166902
v 1.273152 1.351263 -0.166902
v 1.173152 1.302214 -0.182858
v 1.273152 1.302214 -0.182858
v 1.173152 1.252539 -0.196230
v 1.273152 1.252539 -0.196230
v 1.173152 1.202346 -0.207014
v 1.273152 1.202346 -0.207014
v 1.173152 1.151742 -0.215209
v 1.273152 1.151742 -0.215209
v 1.173152 1.100836 -0.220809
v 1.273152 1.100836 -0.220809
v 1.173152 1.049736 -0.223812
v 1.273152 1.049736 -0.223812
v 1.173152 0.998549 -0.224213
v 1.273152 0.998549 -0.224213
v 1.173152 0.947383 -0.222010
v 1.273152 0.947383 -0.222010
v 1.173152 0.896347 -0.217197
v 1.273152 0.896347 -0.217197
v 1.173152 0.845548 -0.209773
v 1.273152 0.845548 -0.209773
v 1.173152 0.795094 -0.199733
v 1.273152 0.795094 -0.199733
v 1.173152 0.745093 -0.187074
v 1.273152 0.745093 -0.187074
v 1.173152 0.695653 -0.171792
v 1.273152 0.695653 -0.171792
v 1.173152 0.646882 -0.153884
v 1.273152 0.646882 -0.153884
v 1.173152 0.598888 -0.133345
v 1.273152 0.598888 -0.133345
v 1.173152 0.551778 -0.110174
v 1.273152 0.551778 -0.110174
v 1.173152 0.505662 -0.084364
v 1.273152 0.505662 -0.084364
v 1.173152 0.460646 -0.055914
v 1.273152 0.460646 -0.055914
v 1.173152 0.416839 -0.024820
v 1.273152 0.416839 -0.024820
v 1.173152 0.374348 0.008923
v 1.273152 0.374348 0.008923
v 1.173152 0.333282 0.045317
v 1.273152 0.333282 0.045317
v 1.173152 0.294238 0.083873
v 1.273152 0.294238 0.083873
v 1.173152 0.257745 0.124027
v 1.273152 0.257745 0.124027
v 1.173152 0.223807 0.165670
v 1.273152 0.223807 0.165670
v 1.173152 0.192427 0.208695
v 1.273152 0.192427 0.208695
v 1.173152 0.163610 0.252993
v 1.273152 0.163610 0.252993
v 1.173152 0.137357 0.298458
v 1.273152 0.137357 0.298458
v 1.173152 0.113673 0.344980
v 1.273152 0.113673 0.344980
v 1.173152 0.092562 0.392453
v 1.273152 0.092562 0.392453
v 1.173152 0.074027 0.440767
v 1.273152 0.074027 0.440767
v 1.173152 0.058072 0.489816
v 1.273152 0.058072 0.489816
v 1.173152 0.044700 0.539491
v 1.273152 0.044700 0.539491
v 1.173152 0.033915 0.589684
v 1.273152 0.033915 0.589684
v 1.173152 0.025720 0.640288
v 1.273152 0.025720 0.640288
v 1.173152 0.020120 0.691194
v 1.273152 0.020120 0.691194
v 1.173152 0.017117 0.742294
v 1.273152 0.017117 0.742294
v 1.173152 0.016716 0.793481
v 1.273152 0.016716 0.793481
v 1.173152 0.018920 0.844647
v 1.273153 0.018920 0.844647
v 1.173152 0.023732 0.895684
v 1.273153 0.023732 0.895684
v 1.173152 0.031156 0.946483
v 1.273153 0.031156 0.946483
v 1.173152 0.041196 0.996937
v 1.273153 0.041196 0.996937
v 1.173152 0.053855 1.046938
v 1.273153 0.053855 1.046938
v 1.173152 0.069137 1.096377
v 1.273153 0.069137 1.096377
v 1.173152 0.087045 1.145149
v 1.273153 0.087045 1.145149
v 1.173152 0.107584 1.193143
v 1.273153 0.107584 1.193143
v 1.173152 0.130756 1.240252
v 1.273153 0.130756 1.240252
v 1.173152 0.156565 1.286369
v 1.273153 0.156565 1.286369
v 1.173152 0.185015 1.331384
v 1.273153 0.185015 1.331384
v 1.173152 0.216109 1.375192
v 1.273153 0.216109 1.375192
v 1.173152 0.249852 1.417682
v 1.273153 0.249852 1.417682
v 1.173152 0.286246 1.458748
v 1.273153 0.286246 1.458748
v 1.173152 0.324802 1.497792
v 1.273153 0.324802 1.497792
v 1.173152 0.364956 1.534285
v 1.273153 0.364956 1.534285
v 1.173152 0.406599 1.568223
v 1.273153 0.406599 1.568223
v 1.173152 0.449624 1.599603
v 1.273153 0.449624 1.599603
v 1.173152 0.493922 1.628421
v 1.273153 0.493922 1.628421
v 1.173152 0.539387 1.654674
v 1.273153 0.539387 1.654674
v 1.173152 0.585909 1.678357
v 1.273153 0.585909 1.678357
v 1.173152 0.633382 1.699469
v 1.273153 0.633382 1.699469
v 1.173152 0.681696 1.718003
v 1.273153 0.681696 1.718003
v 1.173152 0.730745 1.733959
v 1.273153 0.730745 1.733959
v 1.173152 0.780420 1.747331
v 1.273153 0.780420 1.747331
v 1.173152 0.830613 1.758115
v 1.273153 0.830613 1.758115
v 1.173152 0.881217 1.766310
v 1.273153 0.881217 1.766310
v 1.173152 0.932123 1.771910
v 1.273152 0.932123 1.771910
v 1.173152 0.983223 1.774913
v 1.273152 0.983223 1.774913
v 1.173152 1.034410 1.775314
v 1.273152 1.034411 1.775314
v 1.173152 1.085576 1.773111
v 1.273152 1.085576 1.773111
v 1.173152 1.136613 1.768298
v 1.273152 1.136613 1.768298
v 1.173152 1.187412 1.760875
v 1.273152 1.187412 1.760875
v 1.173152 1.237866 1.750834
v 1.273152 1.237866 1.750834
v 1.173152 1.287867 1.738176
v 1.273152 1.287867 1.738176
v 1.173152 1.337307 1.722893
v 1.273152 1.337307 1.722893
v 1.173152 1.386078 1.704985
v 1.273152 1.386078 1.704985
v 1.173152 1.434072 1.684447
v 1.273152 1.434072 1.684447
v 1.173152 1.481181 1.661275
v 1.273152 1.481181 1.661275
v 1.173152 1.527297 1.635466
v 1.273152 1.527297 1.635466
v 1.173152 1.572314 1.607015
v 1.273152 1.572314 1.607015
v 1.173152 1.616121 1.575921
v 1.273152 1.616121 1.575921
v 1.173152 1.658611 1.542178
v 1.273152 1.658611 1.542178
vn -0.7011 0.4872 0.5207
vn 0.7011 0.4872 0.5207
vn -0.7011 0.5146 0.4937
vn 0.7011 0.5146 0.4937
vn -0.7011 0.5404 0.4652
vn 0.7011 0.5404 0.4652
vn -0.7011 0.5646 0.4355
vn 0.7011 0.5646 0.4355
vn -0.7011 0.5871 0.4046
vn 0.7011 0.5871 0.4046
vn -0.7012 0.6078 0.3728
vn 0.7012 0.6078 0.3728
vn -0.7012 0.6266 0.3401
vn 0.7012 0.6266 0.3401
vn -0.7013 0.6436 0.3067
vn 0.7013 0.6436 0.3067
vn -0.7013 0.6587 0.2726
vn 0.7013 0.6587 0.2726
vn -0.7013 0.6719 0.2380
vn 0.7013 0.6719 0.2380
vn -0.7014 0.6833 0.2030
vn 0.7014 0.6833 0.2030
vn -0.7014 0.6928 0.1676
vn 0.7014 0.6928 0.1676
vn -0.7014 0.7005 0.1319
vn 0.7014 0.7005 0.1319
vn -0.7014 0.7063 0.0960
vn 0.7014 0.7063 0.0960
vn -0.7014 0.7102 0.0599
vn 0.7014 0.7102 0.0599
vn -0.7014 0.7123 0.0237
vn 0.7014 0.7123 0.0237
vn -0.7014 0.7126 -0.0125
vn 0.7014 0.7126 -0.0125
vn -0.7014 0.7111 -0.0488
vn 0.7014 0.7111 -0.0488
vn -0.7014 0.7077 -0.0850
vn 0.7014 0.7077 -0.0850
vn -0.7014 0.7024 -0.1211
vn 0.7014 0.7024 -0.1211
vn -0.7014 0.6953 -0.1571
vn 0.7014 0.6953 -0.1571
vn -0.7013 0.6863 -0.1928
vn 0.7013 0.6863 -0.1928
vn -0.7013 0.6754 -0.2282
vn 0.7013 0.6754 -0.2282
vn -0.7013 0.6625 -0.2632
vn 0.7013 0.6625 -0.2632
vn -0.7012 0.6478 -0.2977
vn 0.7012 0.6478 -0.2977
vn -0.7012 0.6312 -0.3316
vn 0.7012 0.6312 -0.3316
vn -0.7011 0.6127 -0.3647
vn 0.7011 0.6127 -0.3647
vn -0.7011 0.5923 -0.3970
vn 0.7011 0.5923 -0.3970
vn -0.7011 0.5702 -0.4282
vn 0.7011 0.5702 -0.4282
vn -0.7011 0.5462 -0.4584
vn 0.7011 0.5462 -0.4584
vn -0.7011 0.5207 -0.4872
vn 0.7011 0.5207 -0.4872
vn -0.7011 0.4937 -0.5146
vn 0.7011 0.4937 -0.5146
vn -0.7011 0.4652 -0.5404
vn 0.7011 0.4652 -0.5404
vn -0.7011 0.4355 -0.5646
vn 0.7011 0.4355 -0.5646
vn -0.7011 0.4046 -0.5871
vn 0.7011 0.4046 -0.5871
vn -0.7012 0.3728 -0.6078
vn 0.7012 0.3728 -0.6078
vn -0.7012 0.3401 -0.6266
vn 0.7012 0.3401 -0.6266
vn -0.7013 0.3067 -0.6436
vn 0.7013 0.3067 -0.6436
vn -0.7013 0.2726 -0.6587
vn 0.7013 0.2726 -0.6587
vn -0.7013 0.2380 -0.6719
vn 0.7013 0.2380 -0.6719
vn -0.7014 0.2030 -0.6833
vn 0.7014 0.2030 -0.6833
vn -0.7014 0.1676 -0.6928
vn 0.7014 0.1676 -0.6928
vn -0.7014 0.1319 -0.7005
vn 0.7014 0.1319 -0.7005
vn -0.7014 0.0960 -0.7063
vn 0.7014 0.0960 -0.7063
vn -0.7014 0.0599 -0.7102
vn 0.7014 0.0599 -0.7102
vn -0.7014 0.0237 -0.7123
vn 0.7014 0.0237 -0.7123
vn -0.7014 -0.0125 -0.7126
vn 0.7014 -0.0125 -0.7126
vn -0.7014 -0.0488 -0.7111
vn 0.7014 -0.0488 -0.7111
vn -0.7014 -0.0850 -0.7077
vn 0.7014 -0.0850 -0.7077
vn -0.7014 -0.1211 -0.7024
vn 0.7014 -0.1211 -0.7024
vn -0.7014 -0.1571 -0.6953
vn 0.7014 -0.1571 -0.6953
vn -0.7013 -0.1928 -0.6863
vn 0.7013 -0.1928 -0.6863
vn -0.7013 -0.2282 -0.6754
vn 0.7013 -0.2282 -0.6754
vn -0.7013 -0.2632 -0.6625
vn 0.7013 -0.2632 -0.6625
vn -0.7012 -0.2977 -0.6478
vn 0.7012 -0.2977 -0.6478
vn -0.7012 -0.3316 -0.6312
vn 0.7012 -0.3316 -0.6312
vn -0.7011 -0.3647 -0.6127
vn 0.7011 -0.3647 -0.6127
vn -0.7011 -0.3970 -0.5923
vn 0.7011 -0.3970 -0.5923
vn -0.7011 -0.4282 -0.5701
vn 0.7011 -0.4282 -0.5701
vn -0.7011 -0.4584 -0.5462
vn 0.7011 -0.4584 -0.5462
vn -0.7011 -0.4872 -0.5207
vn 0.7011 -0.4872 -0.5207
vn -0.7011 -0.5146 -0.4937
vn 0.7011 -0.5146 -0.4937
vn -0.7011 -0.5404 -0.4652
vn 0.7011 -0.5404 -0.4652
vn -0.7011 -0.5646 -0.4355
vn 0.7011 -0.5646 -0.4355
vn -0.7011 -0.5871 -0.4046
vn 0.7011 -0.5871 -0.4046
vn -0.7012 -0.6078 -0.3728
vn 0.7012 -0.6078 -0.3728
vn -0.7012 -0.6266 -0.3401
vn 0.7012 -0.6266 -0.3401
vn -0.7013 -0.6436 -0.3067
vn 0.7013 -0.6436 -0.3067
vn -0.7013 -0.6587 -0.2726
vn 0.7013 -0.6587 -0.2726
vn -0.7013 -0.6719 -0.2380
vn 0.7013 -0.6719 -0.2380
vn -0.7014 -0.6833 -0.2030
vn 0.7014 -0.6833 -0.2030
vn -0.7014 -0.6928 -0.1676
vn 0.7014 -0.6928 -0.1676
vn -0.7014 -0.7005 -0.1319
vn 0.7014 -0.7005 -0.1319
vn -0.7014 -0.7063 -0.0960
vn 0.7014 -0.7063 -0.0960
vn -0.7014 -0.7102 -0.0599
vn 0.7014 -0.7102 -0.0599
vn -0.7014 -0.7123 -0.0237
vn 0.7014 -0.7123 -0.0237
vn -0.7014 -0.7126 0.0125
vn 0.7014 -0.7126 0.0125
vn -0.7014 -0.7111 0.0488
vn 0.7014 -0.7111 0.0488
vn -0.7014 -0.7077 0.0850
vn 0.7014 -0.7077 0.0850
vn -0.7014 -0.7024 0.1211
vn 0.7014 -0.7024 0.1211
vn -0.7014 -0.6953 0.1571
vn 0.7014 -0.6953 0.1571
vn -0.7013 -0.6863 0.1928
vn 0.7013 -0.6863 0.1928
vn -0.7013 -0.6754 0.2282
vn 0.7013 -0.6754 0.2282
vn -0.7013 -0.6625 0.2632
vn 0.7013 -0.6625 0.2632
vn -0.7012 -0.6478 0.2977
vn 0.7012 -0.6478 0.2977
vn -0.7012 -0.6312 0.3316
vn 0.7012 -0.6312 0.3316
vn -0.7011 -0.6127 0.3647
vn 0.7011 -0.6127 0.3647
vn -0.7011 -0.5923 0.3970
vn 0.7011 -0.5923 0.3970
vn -0.7011 -0.5701 0.4282
vn 0.7011 -0.5701 0.4282
vn -0.7011 -0.5462 0.4584
vn 0.7011 -0.5462 0.4584
vn -0.7011 -0.5207 0.4872
vn 0.7011 -0.5207 0.4872
vn -0.7011 -0.4937 0.5146
vn 0.7011 -0.4937 0.5146
vn -0.7011 -0.4652 0.5404
vn 0.7011 -0.4652 0.5404
vn -0.7011 -0.4355 0.5646
vn 0.7011 -0.4355 0.5646
vn -0.7011 -0.4046 0.5871
vn 0.7011 -0.4046 0.5871
vn -0.7012 -0.3728 0.6078
vn 0.7012 -0.3728 0.6078
vn -0.7012 -0.3401 0.6266
vn 0.7012 -0.3401 0.6266
vn -0.7013 -0.3067 0.6436
vn 0.7013 -0.3067 0.6436
vn -0.7013 -0.2726 0.6587
vn 0.7013 -0.2726 0.6587
vn -0.7013 -0.2380 0.6719
vn 0.7013 -0.2380 0.6719
vn -0.7014 -0.2030 0.6833
vn 0.7014 -0.2030 0.6833
vn -0.7014 -0.1676 0.6928
vn 0.7014 -0.1676 0.6928
vn -0.7014 -0.1319 0.7005
vn 0.7014 -0.1319 0.7005
vn -0.7014 -0.0960 0.7063
vn 0.7014 -0.0960 0.7063
vn -0.7014 -0.0599 0.7102
vn 0.7014 -0.0599 0.7102
vn -0.7014 -0.0237 0.7123
vn 0.7014 -0.0237 0.7123
vn -0.7014 0.0125 0.7126
vn 0.7014 0.0125 0.7126
vn -0.7014 0.0488 0.7111
vn 0.7014 0.0488 0.7111
vn -0.7014 0.0850 0.7077
vn 0.7014 0.0850 0.7077
vn -0.7014 0.1211 0.7024
vn 0.7014 0.1211 0.7024
vn -0.7014 0.1571 0.6953
vn 0.7014 0.1571 0.6953
vn -0.7013 0.1928 0.6863
vn 0.7013 0.1928 0.6863
vn -0.7013 0.2282 0.6754
vn 0.7013 0.2282 0.6754
vn -0.7013 0.2632 0.6625
vn 0.7013 0.2632 0.6625
vn -0.7012 0.2977 0.6478
vn 0.7012 0.2977 0.6478
vn -0.7012 0.3316 0.6312
vn 0.7012 0.3316 0.6312
vn -0.7011 0.3647 0.6127
vn 0.7011 0.3647 0.6127
vn -0.7011 0.3970 0.5923
vn 0.7011 0.3970 0.5923
vn -0.7011 0.4282 0.5702
vn 0.7011 0.4282 0.5702
vn -0.7011 0.4584 0.5462
vn 0.7011 0.4584 0.5462
vt 0.234803 0.883046
vt 0.216160 0.867078
vt 0.198171 0.849892
vt 0.180884 0.831487
vt 0.164551 0.812114
vt 0.149393 0.792054
vt 0.135408 0.771359
vt 0.122595 0.750080
vt 0.110954 0.728268
vt 0.100482 0.705975
vt 0.091178 0.683252
vt 0.083041 0.660149
vt 0.076071 0.636719
vt 0.070266 0.613013
vt 0.065623 0.589082
vt 0.062144 0.564977
vt 0.059825 0.540750
vt 0.058666 0.516452
vt 0.058666 0.492133
vt 0.059824 0.467847
vt 0.062137 0.443642
vt 0.065606 0.419572
vt 0.070228 0.395688
vt 0.076003 0.372039
vt 0.082930 0.348679
vt 0.091006 0.325658
vt 0.100232 0.303027
vt 0.110605 0.280838
vt 0.122124 0.259142
vt 0.134789 0.237990
vt 0.148598 0.217434
vt 0.163550 0.197525
vt 0.179643 0.178313
vt 0.196876 0.159852
vt 0.215017 0.142409
vt 0.233801 0.126221
vt 0.253179 0.111287
vt 0.273105 0.097603
vt 0.293529 0.085171
vt 0.314404 0.073987
vt 0.335682 0.064051
vt 0.357315 0.055362
vt 0.379254 0.047918
vt 0.401452 0.041718
vt 0.423861 0.036761
vt 0.446432 0.033045
vt 0.469119 0.030569
vt 0.491872 0.029331
vt 0.514643 0.029331
vt 0.537385 0.030567
vt 0.560049 0.033038
vt 0.582588 0.036742
vt 0.604953 0.041679
vt 0.627097 0.047846
vt 0.648971 0.055243
vt 0.670528 0.063868
vt 0.691719 0.073720
vt 0.712497 0.084798
vt 0.732813 0.097100
vt 0.752619 0.110625
vt 0.771868 0.125372
vt 0.790510 0.141340
vt 0.808499 0.158526
vt 0.825786 0.176931
vt 0.842119 0.196304
vt 0.857277 0.216364
vt 0.871262 0.237059
vt 0.884075 0.258338
vt 0.895717 0.280150
vt 0.906189 0.302443
vt 0.915492 0.325166
vt 0.923629 0.348269
vt 0.930600 0.371698
vt 0.936405 0.395405
vt 0.941047 0.419336
vt 0.944527 0.443441
vt 0.946846 0.467668
vt 0.948004 0.491966
vt 0.948004 0.516285
vt 0.946847 0.540571
vt 0.944534 0.564775
vt 0.941065 0.588846
vt 0.936442 0.612730
vt 0.930667 0.636379
vt 0.923741 0.659739
vt 0.915664 0.682760
vt 0.906439 0.705391
vt 0.896066 0.727580
vt 0.884546 0.749276
vt 0.871881 0.770428
vt 0.858072 0.790984
vt 0.843121 0.810893
vt 0.827028 0.830104
vt 0.809794 0.848566
vt 0.791653 0.866009
vt 0.772870 0.882197
vt 0.753491 0.897131
vt 0.733565 0.910815
vt 0.713141 0.923247
vt 0.692266 0.934431
vt 0.670988 0.944366
vt 0.649356 0.953056
vt 0.627416 0.960500
vt 0.605218 0.966700
vt 0.582809 0.971657
vt 0.560238 0.975373
vt 0.537552 0.977849
vt 0.514799 0.979087
vt 0.492028 0.979087
vt 0.469286 0.977851
vt 0.446621 0.975380
vt 0.424083 0.971676
vt 0.401717 0.966739
vt 0.379573 0.960572
vt 0.357699 0.953175
vt 0.336142 0.944550
vt 0.314951 0.934698
vt 0.294174 0.923620
vt 0.273858 0.911318
vt 0.254052 0.897793
vt 0.595232 0.038600
vt 0.617479 0.044288
vt 0.639480 0.051216
vt 0.661189 0.059381
vt 0.682555 0.068784
vt 0.703533 0.079426
vt 0.724073 0.091305
vt 0.744127 0.104421
vt 0.763648 0.118774
vt 0.782587 0.134364
vt 0.800897 0.151191
vt 0.818529 0.169254
vt 0.835227 0.188309
vt 0.850764 0.208079
vt 0.865141 0.228512
vt 0.878358 0.249556
vt 0.890415 0.271161
vt 0.901314 0.293274
vt 0.911052 0.315844
vt 0.919632 0.338820
vt 0.927054 0.362150
vt 0.933316 0.385783
vt 0.938421 0.409668
vt 0.942367 0.433753
vt 0.945155 0.457986
vt 0.946786 0.482316
vt 0.947260 0.506693
vt 0.946576 0.531063
vt 0.944735 0.555376
vt 0.941738 0.579581
vt 0.937584 0.603625
vt 0.932273 0.627458
vt 0.925807 0.651028
vt 0.918185 0.674284
vt 0.909407 0.697175
vt 0.899474 0.719647
vt 0.888385 0.741652
vt 0.876142 0.763136
vt 0.862744 0.784048
vt 0.848191 0.804338
vt 0.832484 0.823953
vt 0.815623 0.842843
vt 0.797835 0.860730
vt 0.779381 0.877376
vt 0.760308 0.892777
vt 0.740664 0.906937
vt 0.720497 0.919855
vt 0.699856 0.931530
vt 0.678787 0.941963
vt 0.657340 0.951155
vt 0.635563 0.959105
vt 0.613502 0.965814
vt 0.591207 0.971283
vt 0.568725 0.975511
vt 0.546105 0.978498
vt 0.523393 0.980245
vt 0.500639 0.980752
vt 0.477891 0.980020
vt 0.455196 0.978048
vt 0.432602 0.974837
vt 0.410157 0.970387
vt 0.387910 0.964698
vt 0.365909 0.957771
vt 0.344200 0.949606
vt 0.322834 0.940202
vt 0.301856 0.929561
vt 0.281316 0.917682
vt 0.261262 0.904566
vt 0.241741 0.890212
vt 0.222802 0.874623
vt 0.204492 0.857796
vt 0.186860 0.839733
vt 0.170162 0.820677
vt 0.154625 0.800907
vt 0.140248 0.780475
vt 0.127031 0.759430
vt 0.114973 0.737826
vt 0.104075 0.715713
vt 0.094337 0.693143
vt 0.085757 0.670167
vt 0.078335 0.646836
vt 0.072073 0.623203
vt 0.066968 0.599318
vt 0.063022 0.575234
vt 0.060234 0.551001
vt 0.058603 0.526670
vt 0.058129 0.502294
vt 0.058813 0.477924
vt 0.060654 0.453611
vt 0.063651 0.429406
vt 0.067805 0.405361
vt 0.073116 0.381528
vt 0.079582 0.357958
vt 0.087204 0.334702
vt 0.095982 0.311812
vt 0.105915 0.289339
vt 0.117004 0.267335
vt 0.129247 0.245851
vt 0.142645 0.224938
vt 0.157198 0.204648
vt 0.172905 0.185033
vt 0.189766 0.166144
vt 0.207554 0.148256
vt 0.226008 0.131611
vt 0.245081 0.116209
vt 0.264725 0.102050
vt 0.284892 0.089132
vt 0.305533 0.077457
vt 0.326602 0.067024
vt 0.348048 0.057832
vt 0.369826 0.049882
vt 0.391887 0.043172
vt 0.414182 0.037704
vt 0.436664 0.033476
vt 0.459284 0.030489
vt 0.481996 0.028742
vt 0.504750 0.028234
vt 0.527498 0.028967
vt 0.550193 0.030939
vt 0.572787 0.034150
vt 0.014412 0.416237
vt 0.014412 0.424563
vt 0.001060 0.424563
vt 0.001060 0.416237
vt 0.014412 0.432795
vt 0.001060 0.432795
vt 0.014412 0.440946
vt 0.001060 0.440946
vt 0.014412 0.449026
vt 0.001060 0.449026
vt 0.014412 0.457044
vt 0.001060 0.457044
vt 0.014412 0.465009
vt 0.001060 0.465009
vt 0.014412 0.472930
vt 0.001060 0.472930
vt 0.014412 0.480813
vt 0.001060 0.480813
vt 0.014412 0.488664
vt 0.001060 0.488664
vt 0.014412 0.496490
vt 0.001060 0.496490
vt 0.014412 0.504295
vt 0.001060 0.504295
vt 0.014412 0.512084
vt 0.001060 0.512084
vt 0.014412 0.519862
vt 0.001060 0.519862
vt 0.014412 0.527632
vt 0.001060 0.527632
vt 0.014412 0.535399
vt 0.001060 0.535399
vt 0.014412 0.543165
vt 0.001060 0.543165
vt 0.014412 0.550935
vt 0.001060 0.550935
vt 0.014412 0.558713
vt 0.001060 0.558713
vt 0.014412 0.566503
vt 0.001060 0.566503
vt 0.014412 0.574308
vt 0.001060 0.574308
vt 0.014412 0.582133
vt 0.001060 0.582133
vt 0.014412 0.589985
vt 0.001060 0.589985
vt 0.014412 0.597867
vt 0.001060 0.597867
vt 0.014412 0.605788
vt 0.001060 0.605788
vt 0.014412 0.613753
vt 0.001060 0.613754
vt 0.014412 0.621772
vt 0.001060 0.621772
vt 0.014412 0.629851
vt 0.001060 0.629851
vt 0.014412 0.638002
vt 0.001060 0.638002
vt 0.014412 0.646234
vt 0.001060 0.646234
vt 0.014412 0.654560
vt 0.001060 0.654560
vt 0.014412 0.662885
vt 0.001060 0.662885
vt 0.014412 0.671118
vt 0.001060 0.671118
vt 0.014412 0.679268
vt 0.001060 0.679269
vt 0.014412 0.687348
vt 0.001060 0.687348
vt 0.014412 0.695366
vt 0.001060 0.695366
vt 0.014412 0.703332
vt 0.001060 0.703332
vt 0.014412 0.711252
vt 0.001060 0.711252
vt 0.014412 0.719135
vt 0.001060 0.719135
vt 0.014412 0.726987
vt 0.001060 0.726987
vt 0.014412 0.734812
vt 0.001060 0.734812
vt 0.014412 0.742617
vt 0.001060 0.742617
vt 0.014412 0.750407
vt 0.001060 0.750407
vt 0.014412 0.758184
vt 0.001060 0.758184
vt 0.014412 0.765955
vt 0.001060 0.765955
vt 0.014412 0.773721
vt 0.001060 0.773721
vt 0.014412 0.781488
vt 0.001060 0.781488
vt 0.014412 0.789258
vt 0.001060 0.789258
vt 0.014412 0.797036
vt 0.001060 0.797036
vt 0.014412 0.804825
vt 0.001060 0.804825
vt 0.014412 0.812630
vt 0.001060 0.812630
vt 0.014412 0.820456
vt 0.001060 0.820456
vt 0.014412 0.828307
vt 0.001060 0.828308
vt 0.014412 0.836190
vt 0.001060 0.836190
vt 0.014412 0.844111
vt 0.001060 0.844111
vt 0.014412 0.852076
vt 0.001060 0.852076
vt 0.014412 0.860094
vt 0.001060 0.860094
vt 0.014412 0.868174
vt 0.001060 0.868174
vt 0.014412 0.876325
vt 0.001060 0.876325
vt 0.014412 0.884557
vt 0.001060 0.884557
vt 0.014412 0.892883
vt 0.001060 0.892883
vt 0.014412 0.901208
vt 0.001060 0.901208
vt 0.014412 0.909441
vt 0.001060 0.909441
vt 0.014412 0.917591
vt 0.001060 0.917591
vt 0.014412 0.925671
vt 0.001060 0.925671
vt 0.014412 0.933689
vt 0.001060 0.933689
vt 0.014412 0.941655
vt 0.001060 0.941655
vt 0.014412 0.949575
vt 0.001060 0.949575
vt 0.014412 0.957458
vt 0.001060 0.957458
vt 0.014412 0.965309
vt 0.001060 0.965309
vt 0.014412 0.973135
vt 0.001060 0.973135
vt 0.014412 0.980940
vt 0.001060 0.980940
vt 0.014411 0.027650
vt 0.014411 0.035439
vt 0.001059 0.035439
vt 0.001059 0.027650
vt 0.014411 0.043217
vt 0.001059 0.043217
vt 0.014411 0.050987
vt 0.001059 0.050987
vt 0.014411 0.058754
vt 0.001059 0.058754
vt 0.014411 0.066520
vt 0.001059 0.066520
vt 0.014411 0.074290
vt 0.001059 0.074290
vt 0.014411 0.082068
vt 0.001059 0.082068
vt 0.014411 0.089858
vt 0.001059 0.089858
vt 0.014411 0.097663
vt 0.001059 0.097663
vt 0.014411 0.105488
vt 0.001059 0.105488
vt 0.014411 0.113340
vt 0.001059 0.113340
vt 0.014411 0.121222
vt 0.001059 0.121222
vt 0.014411 0.129143
vt 0.001059 0.129143
vt 0.014411 0.137109
vt 0.001059 0.137109
vt 0.014411 0.145127
vt 0.001059 0.145127
vt 0.014411 0.153206
vt 0.001059 0.153206
vt 0.014411 0.161357
vt 0.001059 0.161357
vt 0.014411 0.169589
vt 0.001059 0.169589
vt 0.014411 0.177915
vt 0.001059 0.177915
vt 0.014411 0.186240
vt 0.001059 0.186240
vt 0.014411 0.194473
vt 0.001059 0.194473
vt 0.014411 0.202623
vt 0.001059 0.202623
vt 0.014411 0.210703
vt 0.001059 0.210703
vt 0.014411 0.218721
vt 0.001059 0.218721
vt 0.014411 0.226687
vt 0.001059 0.226687
vt 0.014411 0.234607
vt 0.001059 0.234607
vt 0.014411 0.242490
vt 0.001059 0.242490
vt 0.014411 0.250341
vt 0.001059 0.250341
vt 0.014411 0.258167
vt 0.001059 0.258167
vt 0.014411 0.265972
vt 0.001059 0.265972
vt 0.014411 0.273762
vt 0.001059 0.273762
vt 0.014411 0.281539
vt 0.001059 0.281539
vt 0.014411 0.289310
vt 0.001059 0.289310
vt 0.014411 0.297076
vt 0.001059 0.297076
vt 0.014411 0.304843
vt 0.001059 0.304843
vt 0.014411 0.312613
vt 0.001059 0.312613
vt 0.014411 0.320391
vt 0.001059 0.320391
vt 0.014411 0.328180
vt 0.001059 0.328180
vt 0.014411 0.335985
vt 0.001060 0.335985
vt 0.014411 0.343811
vt 0.001060 0.343811
vt 0.014411 0.351662
vt 0.001060 0.351662
vt 0.014411 0.359545
vt 0.001060 0.359545
vt 0.014411 0.367466
vt 0.001060 0.367466
vt 0.014411 0.375431
vt 0.001060 0.375431
vt 0.014411 0.383449
vt 0.001060 0.383449
vt 0.014411 0.391529
vt 0.001060 0.391529
vt 0.014411 0.399680
vt 0.001060 0.399680
vt 0.014411 0.407912
vt 0.001060 0.407912
s 1
usemtl Material_BTC
f 8/1/8 6/2/6 4/3/4 2/4/2 240/5/240 238/6/238 236/7/236 234/8/234 232/9/232 230/10/230 228/11/228 226/12/226 224/13/224 222/14/222 220/15/220 218/16/218 216/17/216 214/18/214 212/19/212 210/20/210 208/21/208 206/22/206 204/23/204 202/24/202 200/25/200 198/26/198 196/27/196 194/28/194 192/29/192 190/30/190 188/31/188 186/32/186 184/33/184 182/34/182 180/35/180 178/36/178 176/37/176 174/38/174 172/39/172 170/40/170 168/41/168 166/42/166 164/43/164 162/44/162 160/45/160 158/46/158 156/47/156 154/48/154 152/49/152 150/50/150 148/51/148 146/52/146 144/53/144 142/54/142 140/55/140 138/56/138 136/57/136 134/58/134 132/59/132 130/60/130 128/61/128 126/62/126 124/63/124 122/64/122 120/65/120 118/66/118 116/67/116 114/68/114 112/69/112 110/70/110 108/71/108 106/72/106 104/73/104 102/74/102 100/75/100 98/76/98 96/77/96 94/78/94 92/79/92 90/80/90 88/81/88 86/82/86 84/83/84 82/84/82 80/85/80 78/86/78 76/87/76 74/88/74 72/89/72 70/90/70 68/91/68 66/92/66 64/93/64 62/94/62 60/95/60 58/96/58 56/97/56 54/98/54 52/99/52 50/100/50 48/101/48 46/102/46 44/103/44 42/104/42 40/105/40 38/106/38 36/107/36 34/108/34 32/109/32 30/110/30 28/111/28 26/112/26 24/113/24 22/114/22 20/115/20 18/116/18 16/117/16 14/118/14 12/119/12 10/120/10
f 159/121/159 161/122/161 163/123/163 165/124/165 167/125/167 169/126/169 171/127/171 173/128/173 175/129/175 177/130/177 179/131/179 181/132/181 183/133/183 185/134/185 187/135/187 189/136/189 191/137/191 193/138/193 195/139/195 197/140/197 199/141/199 201/142/201 203/143/203 205/144/205 207/145/207 209/146/209 211/147/211 213/148/213 215/149/215 217/150/217 219/151/219 221/152/221 223/153/223 225/154/225 227/155/227 229/156/229 231/157/231 233/158/233 235/159/235 237/160/237 239/161/239 1/162/1 3/163/3 5/164/5 7/165/7 9/166/9 11/167/11 13/168/13 15/169/15 17/170/17 19/171/19 21/172/21 23/173/23 25/174/25 27/175/27 29/176/29 31/177/31 33/178/33 35/179/35 37/180/37 39/181/39 41/182/41 43/183/43 45/184/45 47/185/47 49/186/49 51/187/51 53/188/53 55/189/55 57/190/57 59/191/59 61/192/61 63/193/63 65/194/65 67/195/67 69/196/69 71/197/71 73/198/73 75/199/75 77/200/77 79/201/79 81/202/81 83/203/83 85/204/85 87/205/87 89/206/89 91/207/91 93/208/93 95/209/95 97/210/97 99/211/99 101/212/101 103/213/103 105/214/105 107/215/107 109/216/109 111/217/111 113/218/113 115/219/115 117/220/117 119/221/119 121/222/121 123/223/123 125/224/125 127/225/127 129/226/129 131/227/131 133/228/133 135/229/135 137/230/137 139/231/139 141/232/141 143/233/143 145/234/145 147/235/147 149/236/149 151/237/151 153/238/153 155/239/155 157/240/157
f 2/241/2 4/242/4 3/243/3 1/244/1
f 4/242/4 6/245/6 5/246/5 3/243/3
f 6/245/6 8/247/8 7/248/7 5/246/5
f 8/247/8 10/249/10 9/250/9 7/248/7
f 10/249/10 12/251/12 11/252/11 9/250/9
f 12/251/12 14/253/14 13/254/13 11/252/11
f 14/253/14 16/255/16 15/256/15 13/254/13
f 16/255/16 18/257/18 17/258/17 15/256/15
f 18/257/18 20/259/20 19/260/19 17/258/17
f 20/259/20 22/261/22 21/262/21 19/260/19
f 22/261/22 24/263/24 23/264/23 21/262/21
f 24/263/24 26/265/26 25/266/25 23/264/23
f 26/265/26 28/267/28 27/268/27 25/266/25
f 28/267/28 30/269/30 29/270/29 27/268/27
f 30/269/30 32/271/32 31/272/31 29/270/29
f 32/271/32 34/273/34 33/274/33 31/272/31
f 34/273/34 36/275/36 35/276/35 33/274/33
f 36/275/36 38/277/38 37/278/37 35/276/35
f 38/277/38 40/279/40 39/280/39 37/278/37
f 40/279/40 42/281/42 41/282/41 39/280/39
f 42/281/42 44/283/44 43/284/43 41/282/41
f 44/283/44 46/285/46 45/286/45 43/284/43
f 46/285/46 48/287/48 47/288/47 45/286/45
f 48/287/48 50/289/50 49/290/49 47/288/47
f 50/289/50 52/291/52 51/292/51 49/290/49
f 52/291/52 54/293/54 53/294/53 51/292/51
f 54/293/54 56/295/56 55/296/55 53/294/53
f 56/295/56 58/297/58 57/298/57 55/296/55
f 58/297/58 60/299/60 59/300/59 57/298/57
f 60/299/60 62/301/62 61/302/61 59/300/59
f 62/301/62 64/303/64 63/304/63 61/302/61
f 64/303/64 66/305/66 65/306/65 63/304/63
f 66/305/66 68/307/68 67/308/67 65/306/65
f 68/307/68 70/309/70 69/310/69 67/308/67
f 70/309/70 72/311/72 71/312/71 69/310/69
f 72/311/72 74/313/74 73/314/73 71/312/71
f 74/313/74 76/315/76 75/316/75 73/314/73
f 76/315/76 78/317/78 77/318/77 75/316/75
f 78/317/78 80/319/80 79/320/79 77/318/77
f 80/319/80 82/321/82 81/322/81 79/320/79
f 82/321/82 84/323/84 83/324/83 81/322/81
f 84/323/84 86/325/86 85/326/85 83/324/83
f 86/325/86 88/327/88 87/328/87 85/326/85
f 88/327/88 90/329/90 89/330/89 87/328/87
f 90/329/90 92/331/92 91/332/91 89/330/89
f 92/331/92 94/333/94 93/334/93 91/332/91
f 94/333/94 96/335/96 95/336/95 93/334/93
f 96/335/96 98/337/98 97/338/97 95/336/95
f 98/337/98 100/339/100 99/340/99 97/338/97
f 100/339/100 102/341/102 101/342/101 99/340/99
f 102/341/102 104/343/104 103/344/103 101/342/101
f 104/343/104 106/345/106 105/346/105 103/344/103
f 106/345/106 108/347/108 107/348/107 105/346/105
f 108/347/108 110/349/110 109/350/109 107/348/107
f 110/349/110 112/351/112 111/352/111 109/350/109
f 112/351/112 114/353/114 113/354/113 111/352/111
f 114/353/114 116/355/116 115/356/115 113/354/113
f 116/355/116 118/357/118 117/358/117 115/356/115
f 118/357/118 120/359/120 119/360/119 117/358/117
f 120/359/120 122/361/122 121/362/121 119/360/119
f 122/361/122 124/363/124 123/364/123 121/362/121
f 124/363/124 126/365/126 125/366/125 123/364/123
f 126/365/126 128/367/128 127/368/127 125/366/125
f 128/367/128 130/369/130 129/370/129 127/368/127
f 130/369/130 132/371/132 131/372/131 129/370/129
f 132/371/132 134/373/134 133/374/133 131/372/131
f 134/373/134 136/375/136 135/376/135 133/374/133
f 136/375/136 138/377/138 137/378/137 135/376/135
f 138/377/138 140/379/140 139/380/139 137/378/137
f 140/379/140 142/381/142 141/382/141 139/380/139
f 142/381/142 144/383/144 143/384/143 141/382/141
f 144/385/144 146/386/146 145/387/145 143/388/143
f 146/386/146 148/389/148 147/390/147 145/387/145
f 148/389/148 150/391/150 149/392/149 147/390/147
f 150/391/150 152/393/152 151/394/151 149/392/149
f 152/393/152 154/395/154 153/396/153 151/394/151
f 154/395/154 156/397/156 155/398/155 153/396/153
f 156/397/156 158/399/158 157/400/157 155/398/155
f 158/399/158 160/401/160 159/402/159 157/400/157
f 160/401/160 162/403/162 161/404/161 159/402/159
f 162/403/162 164/405/164 163/406/163 161/404/161
f 164/405/164 166/407/166 165/408/165 163/406/163
f 166/407/166 168/409/168 167/410/167 165/408/165
f 168/409/168 170/411/170 169/412/169 167/410/167
f 170/411/170 172/413/172 171/414/171 169/412/169
f 172/413/172 174/415/174 173/416/173 171/414/171
f 174/415/174 176/417/176 175/418/175 173/416/173
f 176/417/176 178/419/178 177/420/177 175/418/175
f 178/419/178 180/421/180 179/422/179 177/420/177
f 180/421/180 182/423/182 181/424/181 179/422/179
f 182/423/182 184/425/184 183/426/183 181/424/181
f 184/425/184 186/427/186 185/428/185 183/426/183
f 186/427/186 188/429/188 187/430/187 185/428/185
f 188/429/188 190/431/190 189/432/189 187/430/187
f 190/431/190 192/433/192 191/434/191 189/432/189
f 192/433/192 194/435/194 193/436/193 191/434/191
f 194/435/194 196/437/196 195/438/195 193/436/193
f 196/437/196 198/439/198 197/440/197 195/438/195
f 198/439/198 200/441/200 199/442/199 197/440/197
f 200/441/200 202/443/202 201/444/201 199/442/199
f 202/443/202 204/445/204 203/446/203 201/444/201
f 204/445/204 206/447/206 205/448/205 203/446/203
f 206/447/206 208/449/208 207/450/207 205/448/205
f 208/449/208 210/451/210 209/452/209 207/450/207
f 210/451/210 212/453/212 211/454/211 209/452/209
f 212/453/212 214/455/214 213/456/213 211/454/211
f 214/455/214 216/457/216 215/458/215 213/456/213
f 216/457/216 218/459/218 217/460/217 215/458/215
f 218/459/218 220/461/220 219/462/219 217/460/217
f 220/461/220 222/463/222 221/464/221 219/462/219
f 222/463/222 224/465/224 223/466/223 221/464/221
f 224/465/224 226/467/226 225/468/225 223/466/223
f 226/467/226 228/469/228 227/470/227 225/468/225
f 228/469/228 230/471/230 229/472/229 227/470/227
f 230/471/230 232/473/232 231/474/231 229/472/229
f 232/473/232 234/475/234 233/476/233 231/474/231
f 234/475/234 236/477/236 235/478/235 233/476/233
f 236/477/236 238/479/238 237/480/237 235/478/235
f 238/479/238 240/481/240 239/482/239 237/480/237
f 240/481/240 2/241/2 1/244/1 239/482/239
