# Blender 5.1.0
# www.blender.org
mtllib Book.mtl
o polySurface146.051
v 0.182998 0.057845 -1.173299
v 0.208730 0.057499 -1.166270
v 0.182998 -0.729566 -1.212120
v -0.128662 0.001733 -0.035146
v -0.102930 0.001386 -0.028116
v -0.128662 -0.785679 -0.073967
v -0.102930 -0.803812 -0.067814
v -0.077198 -0.813852 -0.061263
v 0.208730 -0.747700 -1.205968
v 0.234462 -0.757739 -1.199416
v 0.260195 -0.758086 -1.192387
v 0.234462 0.057153 -1.159241
v 0.260195 0.056807 -1.152211
v -0.077198 0.001040 -0.021087
v -0.051465 0.000694 -0.014057
v -0.025733 0.000346 -0.007029
v -0.051465 -0.814198 -0.054233
v -0.025733 -0.804851 -0.046727
v -0.000001 -0.787413 -0.038820
v 0.285927 -0.748738 -1.184879
v 0.311659 -0.731299 -1.176974
v 0.285927 0.056459 -1.145182
v 0.311659 0.056113 -1.138153
v -0.000001 0.000000 0.000000
vn -0.0000 0.9988 0.0492
vn 0.2638 0.0475 -0.9634
vn -0.9646 0.0130 -0.2635
vn -0.2638 -0.0475 0.9634
vn -0.4420 -0.8818 -0.1645
vn -0.5355 -0.8235 -0.1872
vn -0.1725 -0.9804 -0.0956
vn 0.1725 -0.9850 -0.0013
vn 0.4420 -0.8937 0.0770
vn 0.5355 -0.8380 0.1053
vn 0.4421 -0.8937 0.0770
vn 0.9646 -0.0130 0.2635
vn 0.5355 -0.8379 0.1053
vt 0.526405 0.110061
vt 0.529638 0.123015
vt 0.526114 0.110141
vt 0.235213 0.620396
vt 0.234887 0.629302
vt 0.234912 0.620396
vt 0.095097 0.590254
vt 0.104713 0.603099
vt 0.095819 0.603581
vt 0.281483 0.668899
vt 0.281796 0.677805
vt 0.281494 0.677806
vt 0.104353 0.589752
vt 0.103991 0.589772
vt 0.281784 0.668697
vt 0.282097 0.677805
vt 0.780404 0.108818
vt 0.776570 0.121606
vt 0.780095 0.108733
vt 0.235187 0.629505
vt 0.235515 0.620397
vt 0.235489 0.629615
vt 0.235790 0.629616
vt 0.780695 0.108897
vt 0.776879 0.121691
vt 0.526696 0.109982
vt 0.530510 0.122776
vt 0.530219 0.122855
vt 0.529929 0.122935
vt 0.282387 0.668587
vt 0.282398 0.677804
vt 0.527277 0.109823
vt 0.530801 0.122696
vt 0.282688 0.668696
vt 0.282700 0.677804
vt 0.781004 0.108982
vt 0.777170 0.121771
vt 0.282990 0.668897
vt 0.283001 0.677804
vt 0.586212 0.408361
vt 0.584719 0.421629
vt 0.584360 0.421579
vt 0.236117 0.620399
vt 0.236394 0.629307
vt 0.236092 0.629507
vt 0.235816 0.620398
vt 0.531092 0.122617
vt 0.593539 0.422865
vt 0.586571 0.408411
vt 0.595391 0.409647
vt 0.105075 0.603080
vt 0.282085 0.668587
vt 0.526986 0.109902
vt 0.777479 0.121855
vt 0.236419 0.620400
vt 0.527568 0.109743
s 1
usemtl standardSurface2
f 5/1/1 1/2/1 4/3/1
f 2/4/2 3/5/2 1/6/2
f 1/7/3 6/8/3 4/9/3
f 6/10/4 5/11/4 4/12/4
f 9/13/5 6/8/6 3/14/6
f 7/15/4 14/16/4 5/11/4
f 10/17/7 7/18/5 9/19/5
f 9/20/2 12/21/2 10/22/2
f 12/21/2 11/23/2 10/22/2
f 11/24/8 8/25/7 10/17/7
f 14/26/1 13/27/1 12/28/1
f 5/1/1 12/28/1 2/29/1
f 14/16/4 17/30/4 15/31/4
f 13/27/1 16/32/1 22/33/1
f 15/31/4 18/34/4 16/35/4
f 20/36/9 17/37/8 11/24/8
f 16/35/4 19/38/4 24/39/4
f 20/40/9 19/41/10 18/42/11
f 22/43/2 21/44/2 20/45/2
f 13/46/2 20/45/2 11/23/2
f 16/32/1 23/47/1 22/33/1
f 24/48/12 21/49/12 23/50/12
f 5/1/1 2/29/1 1/2/1
f 2/4/2 9/20/2 3/5/2
f 1/7/3 3/14/3 6/8/3
f 6/10/4 7/15/4 5/11/4
f 9/13/5 7/51/5 6/8/6
f 7/15/4 8/52/4 14/16/4
f 10/17/7 8/25/7 7/18/5
f 9/20/2 2/4/2 12/21/2
f 12/21/2 13/46/2 11/23/2
f 11/24/8 17/37/8 8/25/7
f 14/26/1 15/53/1 13/27/1
f 5/1/1 14/26/1 12/28/1
f 14/16/4 8/52/4 17/30/4
f 13/27/1 15/53/1 16/32/1
f 15/31/4 17/30/4 18/34/4
f 20/36/9 18/54/11 17/37/8
f 16/35/4 18/34/4 19/38/4
f 20/40/9 21/49/13 19/41/10
f 22/43/2 23/55/2 21/44/2
f 13/46/2 22/43/2 20/45/2
f 16/32/1 24/56/1 23/47/1
f 24/48/12 19/41/12 21/49/12
